G75*
G70*
%OFA0B0*%
%FSLAX24Y24*%
%IPPOS*%
%LPD*%
%AMOC8*
5,1,8,0,0,1.08239X$1,22.5*
%
%ADD10C,0.0907*%
%ADD11R,0.3150X0.3543*%
%ADD12C,0.1379*%
%ADD13C,0.0671*%
%ADD14C,0.0552*%
%ADD15R,0.0552X0.0552*%
%ADD16C,0.3080*%
%ADD17C,0.1143*%
%ADD18C,0.0623*%
%ADD19OC8,0.0680*%
%ADD20C,0.0724*%
%ADD21C,0.1332*%
%ADD22C,0.0680*%
%ADD23C,0.0606*%
D10*
X025961Y017281D03*
X033835Y017281D03*
X033835Y033029D03*
X025961Y033029D03*
D11*
X028520Y001927D03*
X032063Y001927D03*
D12*
X036787Y002123D03*
X009228Y002123D03*
X009228Y045431D03*
X036787Y045431D03*
D13*
X012772Y007635D03*
D14*
X009984Y013777D03*
X009984Y014564D03*
X009984Y015352D03*
X009984Y016139D03*
X009984Y016927D03*
X009984Y017714D03*
X009984Y018501D03*
X009984Y019289D03*
X009984Y020076D03*
X009984Y020864D03*
X009000Y020864D03*
X009000Y020076D03*
X009000Y019289D03*
X009000Y018501D03*
X009000Y017714D03*
X009000Y016927D03*
X009000Y016139D03*
X009000Y015352D03*
X009000Y014564D03*
X009000Y013777D03*
X020449Y029092D03*
X020449Y029879D03*
X019661Y029879D03*
X019661Y030667D03*
X020449Y030667D03*
X022417Y025549D03*
X022417Y024761D03*
X022417Y023974D03*
X022417Y023186D03*
X022417Y022399D03*
X022417Y021612D03*
X022417Y020824D03*
X022417Y020037D03*
X022417Y019249D03*
X023402Y019249D03*
X023402Y020037D03*
X023402Y020824D03*
X023402Y021612D03*
X023402Y022399D03*
X023402Y023186D03*
X023402Y023974D03*
X023402Y024761D03*
X023402Y025549D03*
D15*
X019661Y029092D03*
X022417Y018462D03*
X023402Y018462D03*
D16*
X023185Y044820D03*
X030685Y044820D03*
D17*
X007063Y006139D03*
X007063Y009131D03*
D18*
X010134Y007635D03*
D19*
X018791Y008092D03*
X019791Y008092D03*
X019791Y007092D03*
X018791Y007092D03*
X020791Y007092D03*
X021791Y007092D03*
X021791Y008092D03*
X020791Y008092D03*
X022791Y008092D03*
X022791Y007092D03*
X023791Y007092D03*
X024791Y007092D03*
X024791Y008092D03*
X023791Y008092D03*
D20*
X009622Y034982D03*
X009622Y036072D03*
X009622Y037163D03*
X009622Y038253D03*
X009622Y039344D03*
X008504Y038799D03*
X008504Y037708D03*
X008504Y036618D03*
X008504Y035527D03*
D21*
X009063Y032244D03*
X009063Y042082D03*
D22*
X015315Y045131D02*
X015315Y045731D01*
X016315Y045731D02*
X016315Y045131D01*
X017315Y045131D02*
X017315Y045731D01*
X036881Y013753D02*
X037481Y013753D01*
X037481Y012753D02*
X036881Y012753D01*
X036881Y011753D02*
X037481Y011753D01*
D23*
X011591Y007635D03*
M02*
