G75*
G70*
%OFA0B0*%
%FSLAX24Y24*%
%IPPOS*%
%LPD*%
%AMOC8*
5,1,8,0,0,1.08239X$1,22.5*
%
%ADD10C,0.0000*%
%ADD11C,0.0472*%
%ADD12R,0.0472X0.0472*%
%ADD13C,0.3000*%
%ADD14C,0.1063*%
%ADD15C,0.0543*%
%ADD16OC8,0.0600*%
%ADD17C,0.0644*%
%ADD18C,0.0600*%
%ADD19C,0.0098*%
%ADD20C,0.0197*%
%ADD21C,0.0297*%
%ADD22C,0.0079*%
%ADD23C,0.0787*%
%ADD24C,0.0138*%
%ADD25C,0.0526*%
D10*
X005291Y001336D02*
X005291Y046218D01*
X005293Y046284D01*
X005298Y046350D01*
X005308Y046416D01*
X005321Y046481D01*
X005337Y046545D01*
X005357Y046608D01*
X005381Y046670D01*
X005408Y046730D01*
X005438Y046789D01*
X005472Y046846D01*
X005509Y046901D01*
X005549Y046954D01*
X005591Y047005D01*
X005637Y047053D01*
X005685Y047099D01*
X005736Y047141D01*
X005789Y047181D01*
X005844Y047218D01*
X005901Y047252D01*
X005960Y047282D01*
X006020Y047309D01*
X006082Y047333D01*
X006145Y047353D01*
X006209Y047369D01*
X006274Y047382D01*
X006340Y047392D01*
X006406Y047397D01*
X006472Y047399D01*
X037575Y047399D01*
X037641Y047397D01*
X037707Y047392D01*
X037773Y047382D01*
X037838Y047369D01*
X037902Y047353D01*
X037965Y047333D01*
X038027Y047309D01*
X038087Y047282D01*
X038146Y047252D01*
X038203Y047218D01*
X038258Y047181D01*
X038311Y047141D01*
X038362Y047099D01*
X038410Y047053D01*
X038456Y047005D01*
X038498Y046954D01*
X038538Y046901D01*
X038575Y046846D01*
X038609Y046789D01*
X038639Y046730D01*
X038666Y046670D01*
X038690Y046608D01*
X038710Y046545D01*
X038726Y046481D01*
X038739Y046416D01*
X038749Y046350D01*
X038754Y046284D01*
X038756Y046218D01*
X038756Y001336D01*
X038754Y001270D01*
X038749Y001204D01*
X038739Y001138D01*
X038726Y001073D01*
X038710Y001009D01*
X038690Y000946D01*
X038666Y000884D01*
X038639Y000824D01*
X038609Y000765D01*
X038575Y000708D01*
X038538Y000653D01*
X038498Y000600D01*
X038456Y000549D01*
X038410Y000501D01*
X038362Y000455D01*
X038311Y000413D01*
X038258Y000373D01*
X038203Y000336D01*
X038146Y000302D01*
X038087Y000272D01*
X038027Y000245D01*
X037965Y000221D01*
X037902Y000201D01*
X037838Y000185D01*
X037773Y000172D01*
X037707Y000162D01*
X037641Y000157D01*
X037575Y000155D01*
X006472Y000155D01*
X006406Y000157D01*
X006340Y000162D01*
X006274Y000172D01*
X006209Y000185D01*
X006145Y000201D01*
X006082Y000221D01*
X006020Y000245D01*
X005960Y000272D01*
X005901Y000302D01*
X005844Y000336D01*
X005789Y000373D01*
X005736Y000413D01*
X005685Y000455D01*
X005637Y000501D01*
X005591Y000549D01*
X005549Y000600D01*
X005509Y000653D01*
X005472Y000708D01*
X005438Y000765D01*
X005408Y000824D01*
X005381Y000884D01*
X005357Y000946D01*
X005337Y001009D01*
X005321Y001073D01*
X005308Y001138D01*
X005298Y001204D01*
X005293Y001270D01*
X005291Y001336D01*
X008578Y002123D02*
X008580Y002173D01*
X008586Y002223D01*
X008596Y002273D01*
X008609Y002321D01*
X008626Y002369D01*
X008647Y002415D01*
X008671Y002459D01*
X008699Y002501D01*
X008730Y002541D01*
X008764Y002578D01*
X008801Y002613D01*
X008840Y002644D01*
X008881Y002673D01*
X008925Y002698D01*
X008971Y002720D01*
X009018Y002738D01*
X009066Y002752D01*
X009115Y002763D01*
X009165Y002770D01*
X009215Y002773D01*
X009266Y002772D01*
X009316Y002767D01*
X009366Y002758D01*
X009414Y002746D01*
X009462Y002729D01*
X009508Y002709D01*
X009553Y002686D01*
X009596Y002659D01*
X009636Y002629D01*
X009674Y002596D01*
X009709Y002560D01*
X009742Y002521D01*
X009771Y002480D01*
X009797Y002437D01*
X009820Y002392D01*
X009839Y002345D01*
X009854Y002297D01*
X009866Y002248D01*
X009874Y002198D01*
X009878Y002148D01*
X009878Y002098D01*
X009874Y002048D01*
X009866Y001998D01*
X009854Y001949D01*
X009839Y001901D01*
X009820Y001854D01*
X009797Y001809D01*
X009771Y001766D01*
X009742Y001725D01*
X009709Y001686D01*
X009674Y001650D01*
X009636Y001617D01*
X009596Y001587D01*
X009553Y001560D01*
X009508Y001537D01*
X009462Y001517D01*
X009414Y001500D01*
X009366Y001488D01*
X009316Y001479D01*
X009266Y001474D01*
X009215Y001473D01*
X009165Y001476D01*
X009115Y001483D01*
X009066Y001494D01*
X009018Y001508D01*
X008971Y001526D01*
X008925Y001548D01*
X008881Y001573D01*
X008840Y001602D01*
X008801Y001633D01*
X008764Y001668D01*
X008730Y001705D01*
X008699Y001745D01*
X008671Y001787D01*
X008647Y001831D01*
X008626Y001877D01*
X008609Y001925D01*
X008596Y001973D01*
X008586Y002023D01*
X008580Y002073D01*
X008578Y002123D01*
X012477Y007635D02*
X012479Y007669D01*
X012485Y007703D01*
X012495Y007736D01*
X012508Y007767D01*
X012526Y007797D01*
X012546Y007825D01*
X012570Y007850D01*
X012596Y007872D01*
X012624Y007890D01*
X012655Y007906D01*
X012687Y007918D01*
X012721Y007926D01*
X012755Y007930D01*
X012789Y007930D01*
X012823Y007926D01*
X012857Y007918D01*
X012889Y007906D01*
X012919Y007890D01*
X012948Y007872D01*
X012974Y007850D01*
X012998Y007825D01*
X013018Y007797D01*
X013036Y007767D01*
X013049Y007736D01*
X013059Y007703D01*
X013065Y007669D01*
X013067Y007635D01*
X013065Y007601D01*
X013059Y007567D01*
X013049Y007534D01*
X013036Y007503D01*
X013018Y007473D01*
X012998Y007445D01*
X012974Y007420D01*
X012948Y007398D01*
X012920Y007380D01*
X012889Y007364D01*
X012857Y007352D01*
X012823Y007344D01*
X012789Y007340D01*
X012755Y007340D01*
X012721Y007344D01*
X012687Y007352D01*
X012655Y007364D01*
X012624Y007380D01*
X012596Y007398D01*
X012570Y007420D01*
X012546Y007445D01*
X012526Y007473D01*
X012508Y007503D01*
X012495Y007534D01*
X012485Y007567D01*
X012479Y007601D01*
X012477Y007635D01*
X025548Y017281D02*
X025550Y017321D01*
X025556Y017362D01*
X025566Y017401D01*
X025579Y017439D01*
X025597Y017476D01*
X025618Y017510D01*
X025642Y017543D01*
X025669Y017573D01*
X025699Y017600D01*
X025732Y017624D01*
X025766Y017645D01*
X025803Y017663D01*
X025841Y017676D01*
X025880Y017686D01*
X025921Y017692D01*
X025961Y017694D01*
X026001Y017692D01*
X026042Y017686D01*
X026081Y017676D01*
X026119Y017663D01*
X026156Y017645D01*
X026190Y017624D01*
X026223Y017600D01*
X026253Y017573D01*
X026280Y017543D01*
X026304Y017510D01*
X026325Y017476D01*
X026343Y017439D01*
X026356Y017401D01*
X026366Y017362D01*
X026372Y017321D01*
X026374Y017281D01*
X026372Y017241D01*
X026366Y017200D01*
X026356Y017161D01*
X026343Y017123D01*
X026325Y017086D01*
X026304Y017052D01*
X026280Y017019D01*
X026253Y016989D01*
X026223Y016962D01*
X026190Y016938D01*
X026156Y016917D01*
X026119Y016899D01*
X026081Y016886D01*
X026042Y016876D01*
X026001Y016870D01*
X025961Y016868D01*
X025921Y016870D01*
X025880Y016876D01*
X025841Y016886D01*
X025803Y016899D01*
X025766Y016917D01*
X025732Y016938D01*
X025699Y016962D01*
X025669Y016989D01*
X025642Y017019D01*
X025618Y017052D01*
X025597Y017086D01*
X025579Y017123D01*
X025566Y017161D01*
X025556Y017200D01*
X025550Y017241D01*
X025548Y017281D01*
X033422Y017281D02*
X033424Y017321D01*
X033430Y017362D01*
X033440Y017401D01*
X033453Y017439D01*
X033471Y017476D01*
X033492Y017510D01*
X033516Y017543D01*
X033543Y017573D01*
X033573Y017600D01*
X033606Y017624D01*
X033640Y017645D01*
X033677Y017663D01*
X033715Y017676D01*
X033754Y017686D01*
X033795Y017692D01*
X033835Y017694D01*
X033875Y017692D01*
X033916Y017686D01*
X033955Y017676D01*
X033993Y017663D01*
X034030Y017645D01*
X034064Y017624D01*
X034097Y017600D01*
X034127Y017573D01*
X034154Y017543D01*
X034178Y017510D01*
X034199Y017476D01*
X034217Y017439D01*
X034230Y017401D01*
X034240Y017362D01*
X034246Y017321D01*
X034248Y017281D01*
X034246Y017241D01*
X034240Y017200D01*
X034230Y017161D01*
X034217Y017123D01*
X034199Y017086D01*
X034178Y017052D01*
X034154Y017019D01*
X034127Y016989D01*
X034097Y016962D01*
X034064Y016938D01*
X034030Y016917D01*
X033993Y016899D01*
X033955Y016886D01*
X033916Y016876D01*
X033875Y016870D01*
X033835Y016868D01*
X033795Y016870D01*
X033754Y016876D01*
X033715Y016886D01*
X033677Y016899D01*
X033640Y016917D01*
X033606Y016938D01*
X033573Y016962D01*
X033543Y016989D01*
X033516Y017019D01*
X033492Y017052D01*
X033471Y017086D01*
X033453Y017123D01*
X033440Y017161D01*
X033430Y017200D01*
X033424Y017241D01*
X033422Y017281D01*
X036137Y002123D02*
X036139Y002173D01*
X036145Y002223D01*
X036155Y002273D01*
X036168Y002321D01*
X036185Y002369D01*
X036206Y002415D01*
X036230Y002459D01*
X036258Y002501D01*
X036289Y002541D01*
X036323Y002578D01*
X036360Y002613D01*
X036399Y002644D01*
X036440Y002673D01*
X036484Y002698D01*
X036530Y002720D01*
X036577Y002738D01*
X036625Y002752D01*
X036674Y002763D01*
X036724Y002770D01*
X036774Y002773D01*
X036825Y002772D01*
X036875Y002767D01*
X036925Y002758D01*
X036973Y002746D01*
X037021Y002729D01*
X037067Y002709D01*
X037112Y002686D01*
X037155Y002659D01*
X037195Y002629D01*
X037233Y002596D01*
X037268Y002560D01*
X037301Y002521D01*
X037330Y002480D01*
X037356Y002437D01*
X037379Y002392D01*
X037398Y002345D01*
X037413Y002297D01*
X037425Y002248D01*
X037433Y002198D01*
X037437Y002148D01*
X037437Y002098D01*
X037433Y002048D01*
X037425Y001998D01*
X037413Y001949D01*
X037398Y001901D01*
X037379Y001854D01*
X037356Y001809D01*
X037330Y001766D01*
X037301Y001725D01*
X037268Y001686D01*
X037233Y001650D01*
X037195Y001617D01*
X037155Y001587D01*
X037112Y001560D01*
X037067Y001537D01*
X037021Y001517D01*
X036973Y001500D01*
X036925Y001488D01*
X036875Y001479D01*
X036825Y001474D01*
X036774Y001473D01*
X036724Y001476D01*
X036674Y001483D01*
X036625Y001494D01*
X036577Y001508D01*
X036530Y001526D01*
X036484Y001548D01*
X036440Y001573D01*
X036399Y001602D01*
X036360Y001633D01*
X036323Y001668D01*
X036289Y001705D01*
X036258Y001745D01*
X036230Y001787D01*
X036206Y001831D01*
X036185Y001877D01*
X036168Y001925D01*
X036155Y001973D01*
X036145Y002023D01*
X036139Y002073D01*
X036137Y002123D01*
X033422Y033029D02*
X033424Y033069D01*
X033430Y033110D01*
X033440Y033149D01*
X033453Y033187D01*
X033471Y033224D01*
X033492Y033258D01*
X033516Y033291D01*
X033543Y033321D01*
X033573Y033348D01*
X033606Y033372D01*
X033640Y033393D01*
X033677Y033411D01*
X033715Y033424D01*
X033754Y033434D01*
X033795Y033440D01*
X033835Y033442D01*
X033875Y033440D01*
X033916Y033434D01*
X033955Y033424D01*
X033993Y033411D01*
X034030Y033393D01*
X034064Y033372D01*
X034097Y033348D01*
X034127Y033321D01*
X034154Y033291D01*
X034178Y033258D01*
X034199Y033224D01*
X034217Y033187D01*
X034230Y033149D01*
X034240Y033110D01*
X034246Y033069D01*
X034248Y033029D01*
X034246Y032989D01*
X034240Y032948D01*
X034230Y032909D01*
X034217Y032871D01*
X034199Y032834D01*
X034178Y032800D01*
X034154Y032767D01*
X034127Y032737D01*
X034097Y032710D01*
X034064Y032686D01*
X034030Y032665D01*
X033993Y032647D01*
X033955Y032634D01*
X033916Y032624D01*
X033875Y032618D01*
X033835Y032616D01*
X033795Y032618D01*
X033754Y032624D01*
X033715Y032634D01*
X033677Y032647D01*
X033640Y032665D01*
X033606Y032686D01*
X033573Y032710D01*
X033543Y032737D01*
X033516Y032767D01*
X033492Y032800D01*
X033471Y032834D01*
X033453Y032871D01*
X033440Y032909D01*
X033430Y032948D01*
X033424Y032989D01*
X033422Y033029D01*
X025548Y033029D02*
X025550Y033069D01*
X025556Y033110D01*
X025566Y033149D01*
X025579Y033187D01*
X025597Y033224D01*
X025618Y033258D01*
X025642Y033291D01*
X025669Y033321D01*
X025699Y033348D01*
X025732Y033372D01*
X025766Y033393D01*
X025803Y033411D01*
X025841Y033424D01*
X025880Y033434D01*
X025921Y033440D01*
X025961Y033442D01*
X026001Y033440D01*
X026042Y033434D01*
X026081Y033424D01*
X026119Y033411D01*
X026156Y033393D01*
X026190Y033372D01*
X026223Y033348D01*
X026253Y033321D01*
X026280Y033291D01*
X026304Y033258D01*
X026325Y033224D01*
X026343Y033187D01*
X026356Y033149D01*
X026366Y033110D01*
X026372Y033069D01*
X026374Y033029D01*
X026372Y032989D01*
X026366Y032948D01*
X026356Y032909D01*
X026343Y032871D01*
X026325Y032834D01*
X026304Y032800D01*
X026280Y032767D01*
X026253Y032737D01*
X026223Y032710D01*
X026190Y032686D01*
X026156Y032665D01*
X026119Y032647D01*
X026081Y032634D01*
X026042Y032624D01*
X026001Y032618D01*
X025961Y032616D01*
X025921Y032618D01*
X025880Y032624D01*
X025841Y032634D01*
X025803Y032647D01*
X025766Y032665D01*
X025732Y032686D01*
X025699Y032710D01*
X025669Y032737D01*
X025642Y032767D01*
X025618Y032800D01*
X025597Y032834D01*
X025579Y032871D01*
X025566Y032909D01*
X025556Y032948D01*
X025550Y032989D01*
X025548Y033029D01*
X036137Y045431D02*
X036139Y045481D01*
X036145Y045531D01*
X036155Y045581D01*
X036168Y045629D01*
X036185Y045677D01*
X036206Y045723D01*
X036230Y045767D01*
X036258Y045809D01*
X036289Y045849D01*
X036323Y045886D01*
X036360Y045921D01*
X036399Y045952D01*
X036440Y045981D01*
X036484Y046006D01*
X036530Y046028D01*
X036577Y046046D01*
X036625Y046060D01*
X036674Y046071D01*
X036724Y046078D01*
X036774Y046081D01*
X036825Y046080D01*
X036875Y046075D01*
X036925Y046066D01*
X036973Y046054D01*
X037021Y046037D01*
X037067Y046017D01*
X037112Y045994D01*
X037155Y045967D01*
X037195Y045937D01*
X037233Y045904D01*
X037268Y045868D01*
X037301Y045829D01*
X037330Y045788D01*
X037356Y045745D01*
X037379Y045700D01*
X037398Y045653D01*
X037413Y045605D01*
X037425Y045556D01*
X037433Y045506D01*
X037437Y045456D01*
X037437Y045406D01*
X037433Y045356D01*
X037425Y045306D01*
X037413Y045257D01*
X037398Y045209D01*
X037379Y045162D01*
X037356Y045117D01*
X037330Y045074D01*
X037301Y045033D01*
X037268Y044994D01*
X037233Y044958D01*
X037195Y044925D01*
X037155Y044895D01*
X037112Y044868D01*
X037067Y044845D01*
X037021Y044825D01*
X036973Y044808D01*
X036925Y044796D01*
X036875Y044787D01*
X036825Y044782D01*
X036774Y044781D01*
X036724Y044784D01*
X036674Y044791D01*
X036625Y044802D01*
X036577Y044816D01*
X036530Y044834D01*
X036484Y044856D01*
X036440Y044881D01*
X036399Y044910D01*
X036360Y044941D01*
X036323Y044976D01*
X036289Y045013D01*
X036258Y045053D01*
X036230Y045095D01*
X036206Y045139D01*
X036185Y045185D01*
X036168Y045233D01*
X036155Y045281D01*
X036145Y045331D01*
X036139Y045381D01*
X036137Y045431D01*
X008578Y045431D02*
X008580Y045481D01*
X008586Y045531D01*
X008596Y045581D01*
X008609Y045629D01*
X008626Y045677D01*
X008647Y045723D01*
X008671Y045767D01*
X008699Y045809D01*
X008730Y045849D01*
X008764Y045886D01*
X008801Y045921D01*
X008840Y045952D01*
X008881Y045981D01*
X008925Y046006D01*
X008971Y046028D01*
X009018Y046046D01*
X009066Y046060D01*
X009115Y046071D01*
X009165Y046078D01*
X009215Y046081D01*
X009266Y046080D01*
X009316Y046075D01*
X009366Y046066D01*
X009414Y046054D01*
X009462Y046037D01*
X009508Y046017D01*
X009553Y045994D01*
X009596Y045967D01*
X009636Y045937D01*
X009674Y045904D01*
X009709Y045868D01*
X009742Y045829D01*
X009771Y045788D01*
X009797Y045745D01*
X009820Y045700D01*
X009839Y045653D01*
X009854Y045605D01*
X009866Y045556D01*
X009874Y045506D01*
X009878Y045456D01*
X009878Y045406D01*
X009874Y045356D01*
X009866Y045306D01*
X009854Y045257D01*
X009839Y045209D01*
X009820Y045162D01*
X009797Y045117D01*
X009771Y045074D01*
X009742Y045033D01*
X009709Y044994D01*
X009674Y044958D01*
X009636Y044925D01*
X009596Y044895D01*
X009553Y044868D01*
X009508Y044845D01*
X009462Y044825D01*
X009414Y044808D01*
X009366Y044796D01*
X009316Y044787D01*
X009266Y044782D01*
X009215Y044781D01*
X009165Y044784D01*
X009115Y044791D01*
X009066Y044802D01*
X009018Y044816D01*
X008971Y044834D01*
X008925Y044856D01*
X008881Y044881D01*
X008840Y044910D01*
X008801Y044941D01*
X008764Y044976D01*
X008730Y045013D01*
X008699Y045053D01*
X008671Y045095D01*
X008647Y045139D01*
X008626Y045185D01*
X008609Y045233D01*
X008596Y045281D01*
X008586Y045331D01*
X008580Y045381D01*
X008578Y045431D01*
X008437Y042082D02*
X008439Y042132D01*
X008445Y042181D01*
X008455Y042230D01*
X008468Y042278D01*
X008486Y042324D01*
X008507Y042370D01*
X008532Y042413D01*
X008559Y042454D01*
X008591Y042493D01*
X008625Y042529D01*
X008662Y042562D01*
X008701Y042593D01*
X008743Y042620D01*
X008787Y042644D01*
X008832Y042664D01*
X008879Y042680D01*
X008927Y042693D01*
X008976Y042702D01*
X009026Y042707D01*
X009075Y042708D01*
X009125Y042705D01*
X009174Y042698D01*
X009223Y042687D01*
X009271Y042673D01*
X009317Y042654D01*
X009362Y042632D01*
X009404Y042607D01*
X009445Y042578D01*
X009483Y042546D01*
X009519Y042511D01*
X009551Y042474D01*
X009581Y042434D01*
X009607Y042391D01*
X009630Y042347D01*
X009649Y042301D01*
X009665Y042254D01*
X009677Y042206D01*
X009685Y042157D01*
X009689Y042107D01*
X009689Y042057D01*
X009685Y042007D01*
X009677Y041958D01*
X009665Y041910D01*
X009649Y041863D01*
X009630Y041817D01*
X009607Y041773D01*
X009581Y041730D01*
X009551Y041690D01*
X009519Y041653D01*
X009483Y041618D01*
X009445Y041586D01*
X009404Y041557D01*
X009362Y041532D01*
X009317Y041510D01*
X009271Y041491D01*
X009223Y041477D01*
X009174Y041466D01*
X009125Y041459D01*
X009075Y041456D01*
X009026Y041457D01*
X008976Y041462D01*
X008927Y041471D01*
X008879Y041484D01*
X008832Y041500D01*
X008787Y041520D01*
X008743Y041544D01*
X008701Y041571D01*
X008662Y041602D01*
X008625Y041635D01*
X008591Y041671D01*
X008559Y041710D01*
X008532Y041751D01*
X008507Y041794D01*
X008486Y041840D01*
X008468Y041886D01*
X008455Y041934D01*
X008445Y041983D01*
X008439Y042032D01*
X008437Y042082D01*
X008437Y032244D02*
X008439Y032294D01*
X008445Y032343D01*
X008455Y032392D01*
X008468Y032440D01*
X008486Y032486D01*
X008507Y032532D01*
X008532Y032575D01*
X008559Y032616D01*
X008591Y032655D01*
X008625Y032691D01*
X008662Y032724D01*
X008701Y032755D01*
X008743Y032782D01*
X008787Y032806D01*
X008832Y032826D01*
X008879Y032842D01*
X008927Y032855D01*
X008976Y032864D01*
X009026Y032869D01*
X009075Y032870D01*
X009125Y032867D01*
X009174Y032860D01*
X009223Y032849D01*
X009271Y032835D01*
X009317Y032816D01*
X009362Y032794D01*
X009404Y032769D01*
X009445Y032740D01*
X009483Y032708D01*
X009519Y032673D01*
X009551Y032636D01*
X009581Y032596D01*
X009607Y032553D01*
X009630Y032509D01*
X009649Y032463D01*
X009665Y032416D01*
X009677Y032368D01*
X009685Y032319D01*
X009689Y032269D01*
X009689Y032219D01*
X009685Y032169D01*
X009677Y032120D01*
X009665Y032072D01*
X009649Y032025D01*
X009630Y031979D01*
X009607Y031935D01*
X009581Y031892D01*
X009551Y031852D01*
X009519Y031815D01*
X009483Y031780D01*
X009445Y031748D01*
X009404Y031719D01*
X009362Y031694D01*
X009317Y031672D01*
X009271Y031653D01*
X009223Y031639D01*
X009174Y031628D01*
X009125Y031621D01*
X009075Y031618D01*
X009026Y031619D01*
X008976Y031624D01*
X008927Y031633D01*
X008879Y031646D01*
X008832Y031662D01*
X008787Y031682D01*
X008743Y031706D01*
X008701Y031733D01*
X008662Y031764D01*
X008625Y031797D01*
X008591Y031833D01*
X008559Y031872D01*
X008532Y031913D01*
X008507Y031956D01*
X008486Y032002D01*
X008468Y032048D01*
X008455Y032096D01*
X008445Y032145D01*
X008439Y032194D01*
X008437Y032244D01*
D11*
X009000Y020864D03*
X009000Y020076D03*
X009000Y019289D03*
X009000Y018501D03*
X009000Y017714D03*
X009000Y016927D03*
X009000Y016139D03*
X009000Y015352D03*
X009000Y014564D03*
X009000Y013777D03*
X009984Y013777D03*
X009984Y014564D03*
X009984Y015352D03*
X009984Y016139D03*
X009984Y016927D03*
X009984Y017714D03*
X009984Y018501D03*
X009984Y019289D03*
X009984Y020076D03*
X009984Y020864D03*
X019661Y029879D03*
X019661Y030667D03*
X020449Y030667D03*
X020449Y029879D03*
X020449Y029092D03*
X022417Y025549D03*
X022417Y024761D03*
X022417Y023974D03*
X022417Y023186D03*
X022417Y022399D03*
X022417Y021612D03*
X022417Y020824D03*
X022417Y020037D03*
X022417Y019249D03*
X023402Y019249D03*
X023402Y020037D03*
X023402Y020824D03*
X023402Y021612D03*
X023402Y022399D03*
X023402Y023186D03*
X023402Y023974D03*
X023402Y024761D03*
X023402Y025549D03*
D12*
X019661Y029092D03*
X022417Y018462D03*
X023402Y018462D03*
D13*
X023185Y044820D03*
X030685Y044820D03*
D14*
X007063Y009131D03*
X007063Y006139D03*
D15*
X010134Y007635D03*
D16*
X018791Y008092D03*
X019791Y008092D03*
X019791Y007092D03*
X018791Y007092D03*
X020791Y007092D03*
X021791Y007092D03*
X021791Y008092D03*
X020791Y008092D03*
X022791Y008092D03*
X022791Y007092D03*
X023791Y007092D03*
X024791Y007092D03*
X024791Y008092D03*
X023791Y008092D03*
D17*
X009622Y034982D03*
X009622Y036072D03*
X009622Y037163D03*
X009622Y038253D03*
X009622Y039344D03*
X008504Y038799D03*
X008504Y037708D03*
X008504Y036618D03*
X008504Y035527D03*
D18*
X015315Y045131D02*
X015315Y045731D01*
X016315Y045731D02*
X016315Y045131D01*
X017315Y045131D02*
X017315Y045731D01*
X036881Y013753D02*
X037481Y013753D01*
X037481Y012753D02*
X036881Y012753D01*
X036881Y011753D02*
X037481Y011753D01*
D19*
X037575Y000155D02*
X005291Y000155D01*
X005291Y047399D01*
X038756Y047399D01*
X038756Y001336D01*
X038744Y001168D01*
X038708Y001003D01*
X038649Y000845D01*
X038568Y000698D01*
X038467Y000563D01*
X038348Y000443D01*
X038213Y000342D01*
X038065Y000262D01*
X037908Y000203D01*
X037743Y000167D01*
X037575Y000155D01*
X037936Y000213D02*
X005291Y000213D01*
X005291Y000310D02*
X038154Y000310D01*
X038300Y000407D02*
X005291Y000407D01*
X005291Y000504D02*
X038409Y000504D01*
X038496Y000601D02*
X005291Y000601D01*
X005291Y000698D02*
X038569Y000698D01*
X038622Y000795D02*
X005291Y000795D01*
X005291Y000892D02*
X038667Y000892D01*
X038703Y000989D02*
X005291Y000989D01*
X005291Y001086D02*
X038726Y001086D01*
X038745Y001183D02*
X005291Y001183D01*
X005291Y001280D02*
X038752Y001280D01*
X038756Y001377D02*
X005291Y001377D01*
X005291Y001474D02*
X008971Y001474D01*
X009089Y001425D02*
X009367Y001425D01*
X009624Y001531D01*
X009821Y001728D01*
X009927Y001984D01*
X009927Y002262D01*
X009821Y002519D01*
X009624Y002716D01*
X009367Y002822D01*
X009089Y002822D01*
X008832Y002716D01*
X008636Y002519D01*
X008530Y002262D01*
X008530Y001984D01*
X008636Y001728D01*
X008832Y001531D01*
X009089Y001425D01*
X008793Y001571D02*
X005291Y001571D01*
X005291Y001668D02*
X008696Y001668D01*
X008621Y001765D02*
X005291Y001765D01*
X005291Y001862D02*
X008580Y001862D01*
X008540Y001959D02*
X005291Y001959D01*
X005291Y002056D02*
X008530Y002056D01*
X008530Y002153D02*
X005291Y002153D01*
X005291Y002250D02*
X008530Y002250D01*
X008564Y002347D02*
X005291Y002347D01*
X005291Y002444D02*
X008605Y002444D01*
X008657Y002540D02*
X005291Y002540D01*
X005291Y002637D02*
X008754Y002637D01*
X008877Y002734D02*
X005291Y002734D01*
X005291Y002831D02*
X038756Y002831D01*
X038756Y002734D02*
X037138Y002734D01*
X037183Y002716D02*
X036926Y002822D01*
X036648Y002822D01*
X036392Y002716D01*
X036195Y002519D01*
X036089Y002262D01*
X036089Y001984D01*
X036195Y001728D01*
X036392Y001531D01*
X036648Y001425D01*
X036926Y001425D01*
X037183Y001531D01*
X037380Y001728D01*
X037486Y001984D01*
X037486Y002262D01*
X037380Y002519D01*
X037183Y002716D01*
X037262Y002637D02*
X038756Y002637D01*
X038756Y002540D02*
X037359Y002540D01*
X037411Y002444D02*
X038756Y002444D01*
X038756Y002347D02*
X037451Y002347D01*
X037486Y002250D02*
X038756Y002250D01*
X038756Y002153D02*
X037486Y002153D01*
X037486Y002056D02*
X038756Y002056D01*
X038756Y001959D02*
X037475Y001959D01*
X037435Y001862D02*
X038756Y001862D01*
X038756Y001765D02*
X037395Y001765D01*
X037320Y001668D02*
X038756Y001668D01*
X038756Y001571D02*
X037223Y001571D01*
X037045Y001474D02*
X038756Y001474D01*
X038756Y002928D02*
X005291Y002928D01*
X005291Y003025D02*
X038756Y003025D01*
X038756Y003122D02*
X005291Y003122D01*
X005291Y003219D02*
X038756Y003219D01*
X038756Y003316D02*
X005291Y003316D01*
X005291Y003413D02*
X038756Y003413D01*
X038756Y003510D02*
X005291Y003510D01*
X005291Y003607D02*
X038756Y003607D01*
X038756Y003704D02*
X005291Y003704D01*
X005291Y003801D02*
X038756Y003801D01*
X038756Y003898D02*
X005291Y003898D01*
X005291Y003995D02*
X038756Y003995D01*
X038756Y004092D02*
X005291Y004092D01*
X005291Y004189D02*
X038756Y004189D01*
X038756Y004286D02*
X005291Y004286D01*
X005291Y004383D02*
X038756Y004383D01*
X038756Y004480D02*
X005291Y004480D01*
X005291Y004577D02*
X038756Y004577D01*
X038756Y004674D02*
X005291Y004674D01*
X005291Y004771D02*
X038756Y004771D01*
X038756Y004868D02*
X005291Y004868D01*
X005291Y004965D02*
X038756Y004965D01*
X038756Y005062D02*
X005291Y005062D01*
X005291Y005159D02*
X038756Y005159D01*
X038756Y005256D02*
X005291Y005256D01*
X005291Y005353D02*
X038756Y005353D01*
X038756Y005450D02*
X005291Y005450D01*
X005291Y005546D02*
X006728Y005546D01*
X006761Y005527D02*
X006844Y005493D01*
X006930Y005470D01*
X007014Y005459D01*
X007014Y006090D01*
X007112Y006090D01*
X007112Y005459D01*
X007196Y005470D01*
X007282Y005493D01*
X007365Y005527D01*
X007442Y005572D01*
X007513Y005626D01*
X007576Y005689D01*
X007630Y005760D01*
X007675Y005837D01*
X038756Y005837D01*
X038756Y005740D02*
X007615Y005740D01*
X007675Y005837D02*
X007709Y005920D01*
X007732Y006006D01*
X007743Y006090D01*
X007112Y006090D01*
X007112Y006188D01*
X007743Y006188D01*
X007732Y006272D01*
X007709Y006358D01*
X007675Y006441D01*
X007630Y006518D01*
X007576Y006589D01*
X007513Y006652D01*
X007442Y006706D01*
X007365Y006751D01*
X007282Y006785D01*
X007196Y006808D01*
X007112Y006819D01*
X007112Y006189D01*
X007014Y006189D01*
X007014Y006819D01*
X006930Y006808D01*
X006844Y006785D01*
X006761Y006751D01*
X006684Y006706D01*
X006613Y006652D01*
X006550Y006589D01*
X006496Y006518D01*
X006451Y006441D01*
X006417Y006358D01*
X006394Y006272D01*
X006383Y006188D01*
X007014Y006188D01*
X007014Y006090D01*
X006383Y006090D01*
X006394Y006006D01*
X006417Y005920D01*
X006451Y005837D01*
X005291Y005837D01*
X005291Y005740D02*
X006511Y005740D01*
X006496Y005760D02*
X006550Y005689D01*
X006613Y005626D01*
X006684Y005572D01*
X006761Y005527D01*
X006596Y005643D02*
X005291Y005643D01*
X005291Y005934D02*
X006413Y005934D01*
X006391Y006031D02*
X005291Y006031D01*
X005291Y006128D02*
X007014Y006128D01*
X007014Y006031D02*
X007112Y006031D01*
X007112Y005934D02*
X007014Y005934D01*
X007014Y005837D02*
X007112Y005837D01*
X007112Y005740D02*
X007014Y005740D01*
X007014Y005643D02*
X007112Y005643D01*
X007112Y005546D02*
X007014Y005546D01*
X007398Y005546D02*
X038756Y005546D01*
X038756Y005643D02*
X007530Y005643D01*
X007713Y005934D02*
X038756Y005934D01*
X038756Y006031D02*
X007735Y006031D01*
X007738Y006225D02*
X038756Y006225D01*
X038756Y006128D02*
X007112Y006128D01*
X007112Y006225D02*
X007014Y006225D01*
X007014Y006322D02*
X007112Y006322D01*
X007112Y006419D02*
X007014Y006419D01*
X007014Y006516D02*
X007112Y006516D01*
X007112Y006613D02*
X007014Y006613D01*
X007014Y006710D02*
X007112Y006710D01*
X007112Y006807D02*
X007014Y006807D01*
X006926Y006807D02*
X005291Y006807D01*
X005291Y006710D02*
X006690Y006710D01*
X006574Y006613D02*
X005291Y006613D01*
X005291Y006516D02*
X006495Y006516D01*
X006442Y006419D02*
X005291Y006419D01*
X005291Y006322D02*
X006407Y006322D01*
X006388Y006225D02*
X005291Y006225D01*
X005291Y006904D02*
X018401Y006904D01*
X018382Y006922D02*
X018622Y006683D01*
X018961Y006683D01*
X019201Y006922D01*
X019201Y007261D01*
X018961Y007501D01*
X018622Y007501D01*
X018614Y007493D01*
X018245Y007862D01*
X018245Y024696D01*
X019530Y025981D01*
X022745Y025981D01*
X023072Y025655D01*
X023056Y025617D01*
X023056Y025480D01*
X023109Y025353D01*
X023206Y025256D01*
X023333Y025203D01*
X023470Y025203D01*
X023597Y025256D01*
X023694Y025353D01*
X023747Y025480D01*
X023747Y025617D01*
X023694Y025744D01*
X023597Y025841D01*
X023470Y025894D01*
X023333Y025894D01*
X023296Y025879D01*
X022877Y026298D01*
X022745Y026298D01*
X019399Y026298D01*
X019306Y026205D01*
X017928Y024827D01*
X017928Y024696D01*
X017928Y007731D01*
X018021Y007638D01*
X018390Y007269D01*
X018382Y007261D01*
X018382Y006922D01*
X018382Y007001D02*
X005291Y007001D01*
X005291Y007098D02*
X012545Y007098D01*
X012563Y007086D02*
X012842Y007052D01*
X012842Y007052D01*
X013106Y007152D01*
X013292Y007362D01*
X013292Y007362D01*
X013359Y007635D01*
X013292Y007908D01*
X013292Y007908D01*
X013106Y008119D01*
X013106Y008119D01*
X012842Y008219D01*
X012563Y008185D01*
X012332Y008025D01*
X012332Y008025D01*
X012201Y007776D01*
X012201Y007776D01*
X012201Y007495D01*
X012201Y007495D01*
X012332Y007246D01*
X012332Y007245D02*
X012563Y007086D01*
X012563Y007086D01*
X012405Y007195D02*
X005291Y007195D01*
X005291Y007292D02*
X009967Y007292D01*
X009918Y007312D02*
X010058Y007254D01*
X010210Y007254D01*
X010350Y007312D01*
X010457Y007420D01*
X010515Y007559D01*
X010515Y007711D01*
X010457Y007851D01*
X010350Y007958D01*
X010210Y008016D01*
X010058Y008016D01*
X009918Y007958D01*
X009811Y007851D01*
X009753Y007711D01*
X009753Y007559D01*
X009811Y007420D01*
X009918Y007312D01*
X009842Y007389D02*
X005291Y007389D01*
X005291Y007486D02*
X009783Y007486D01*
X009753Y007583D02*
X005291Y007583D01*
X005291Y007680D02*
X009753Y007680D01*
X009780Y007777D02*
X005291Y007777D01*
X005291Y007874D02*
X009834Y007874D01*
X009949Y007971D02*
X005291Y007971D01*
X005291Y008068D02*
X012393Y008068D01*
X012332Y008025D02*
X012332Y008025D01*
X012303Y007971D02*
X011753Y007971D01*
X011801Y007951D02*
X011665Y008007D01*
X011517Y008007D01*
X011380Y007951D01*
X011275Y007846D01*
X011219Y007709D01*
X011219Y007561D01*
X011275Y007425D01*
X011380Y007320D01*
X011517Y007263D01*
X011665Y007263D01*
X011801Y007320D01*
X011906Y007425D01*
X011963Y007561D01*
X011963Y007709D01*
X011906Y007846D01*
X011801Y007951D01*
X011878Y007874D02*
X012252Y007874D01*
X012201Y007777D02*
X011935Y007777D01*
X011963Y007680D02*
X012201Y007680D01*
X012201Y007583D02*
X011963Y007583D01*
X011931Y007486D02*
X012205Y007486D01*
X012256Y007389D02*
X011870Y007389D01*
X011734Y007292D02*
X012307Y007292D01*
X012332Y007246D02*
X012332Y007245D01*
X012332Y007245D01*
X012964Y007098D02*
X018382Y007098D01*
X018382Y007195D02*
X013144Y007195D01*
X013106Y007152D02*
X013106Y007152D01*
X013106Y007152D01*
X013230Y007292D02*
X018367Y007292D01*
X018270Y007389D02*
X013299Y007389D01*
X013323Y007486D02*
X018173Y007486D01*
X018076Y007583D02*
X013346Y007583D01*
X013348Y007680D02*
X017979Y007680D01*
X017928Y007777D02*
X013325Y007777D01*
X013301Y007874D02*
X017928Y007874D01*
X017928Y007971D02*
X013237Y007971D01*
X013151Y008068D02*
X017928Y008068D01*
X017928Y008165D02*
X012985Y008165D01*
X012842Y008219D02*
X012842Y008219D01*
X012563Y008185D02*
X012563Y008185D01*
X012534Y008165D02*
X005291Y008165D01*
X005291Y008262D02*
X017928Y008262D01*
X017928Y008359D02*
X005291Y008359D01*
X005291Y008456D02*
X017928Y008456D01*
X017928Y008553D02*
X007340Y008553D01*
X007426Y008588D02*
X007190Y008491D01*
X006936Y008491D01*
X006700Y008588D01*
X006520Y008768D01*
X006422Y009004D01*
X006422Y009259D01*
X006520Y009494D01*
X006700Y009674D01*
X006936Y009772D01*
X007190Y009772D01*
X007426Y009674D01*
X007606Y009494D01*
X007704Y009259D01*
X007704Y009004D01*
X007606Y008768D01*
X007426Y008588D01*
X007487Y008649D02*
X017928Y008649D01*
X017928Y008746D02*
X007584Y008746D01*
X007637Y008843D02*
X017928Y008843D01*
X017928Y008940D02*
X007677Y008940D01*
X007704Y009037D02*
X017928Y009037D01*
X017928Y009134D02*
X007704Y009134D01*
X007704Y009231D02*
X017928Y009231D01*
X017928Y009328D02*
X007675Y009328D01*
X007635Y009425D02*
X017928Y009425D01*
X017928Y009522D02*
X007578Y009522D01*
X007481Y009619D02*
X017928Y009619D01*
X017928Y009716D02*
X007325Y009716D01*
X006801Y009716D02*
X005291Y009716D01*
X005291Y009619D02*
X006645Y009619D01*
X006548Y009522D02*
X005291Y009522D01*
X005291Y009425D02*
X006491Y009425D01*
X006451Y009328D02*
X005291Y009328D01*
X005291Y009231D02*
X006422Y009231D01*
X006422Y009134D02*
X005291Y009134D01*
X005291Y009037D02*
X006422Y009037D01*
X006449Y008940D02*
X005291Y008940D01*
X005291Y008843D02*
X006489Y008843D01*
X006542Y008746D02*
X005291Y008746D01*
X005291Y008649D02*
X006639Y008649D01*
X006786Y008553D02*
X005291Y008553D01*
X005291Y009813D02*
X017928Y009813D01*
X017928Y009910D02*
X005291Y009910D01*
X005291Y010007D02*
X017928Y010007D01*
X017928Y010104D02*
X005291Y010104D01*
X005291Y010201D02*
X017928Y010201D01*
X017928Y010298D02*
X005291Y010298D01*
X005291Y010395D02*
X017928Y010395D01*
X017928Y010492D02*
X005291Y010492D01*
X005291Y010589D02*
X017928Y010589D01*
X017928Y010686D02*
X005291Y010686D01*
X005291Y010783D02*
X017928Y010783D01*
X017928Y010880D02*
X005291Y010880D01*
X005291Y010977D02*
X017928Y010977D01*
X017928Y011074D02*
X005291Y011074D01*
X005291Y011171D02*
X017928Y011171D01*
X017928Y011268D02*
X005291Y011268D01*
X005291Y011365D02*
X017928Y011365D01*
X017928Y011462D02*
X005291Y011462D01*
X005291Y011559D02*
X017928Y011559D01*
X017928Y011656D02*
X005291Y011656D01*
X005291Y011752D02*
X017928Y011752D01*
X017928Y011849D02*
X005291Y011849D01*
X005291Y011946D02*
X017928Y011946D01*
X017928Y012043D02*
X005291Y012043D01*
X005291Y012140D02*
X017928Y012140D01*
X017928Y012237D02*
X005291Y012237D01*
X005291Y012334D02*
X017928Y012334D01*
X017928Y012431D02*
X005291Y012431D01*
X005291Y012528D02*
X017928Y012528D01*
X017928Y012625D02*
X005291Y012625D01*
X005291Y012722D02*
X017928Y012722D01*
X017928Y012819D02*
X005291Y012819D01*
X005291Y012916D02*
X017928Y012916D01*
X017928Y013013D02*
X005291Y013013D01*
X005291Y013110D02*
X017928Y013110D01*
X017928Y013207D02*
X005291Y013207D01*
X005291Y013304D02*
X017928Y013304D01*
X017928Y013401D02*
X005291Y013401D01*
X005291Y013498D02*
X008791Y013498D01*
X008804Y013484D02*
X008931Y013432D01*
X009069Y013432D01*
X009196Y013484D01*
X009293Y013581D01*
X009345Y013708D01*
X009345Y013846D01*
X009293Y013973D01*
X009196Y014070D01*
X009069Y014122D01*
X008931Y014122D01*
X008804Y014070D01*
X008707Y013973D01*
X008655Y013846D01*
X008655Y013708D01*
X008707Y013581D01*
X008804Y013484D01*
X008702Y013595D02*
X005291Y013595D01*
X005291Y013692D02*
X008661Y013692D01*
X008655Y013789D02*
X005291Y013789D01*
X005291Y013886D02*
X008671Y013886D01*
X008717Y013983D02*
X005291Y013983D01*
X005291Y014080D02*
X008828Y014080D01*
X008931Y014219D02*
X009069Y014219D01*
X009196Y014272D01*
X009293Y014369D01*
X009345Y014496D01*
X009345Y014633D01*
X009293Y014760D01*
X009196Y014857D01*
X009069Y014910D01*
X008931Y014910D01*
X008804Y014857D01*
X008707Y014760D01*
X008655Y014633D01*
X008655Y014496D01*
X008707Y014369D01*
X008804Y014272D01*
X008931Y014219D01*
X008802Y014274D02*
X005291Y014274D01*
X005291Y014371D02*
X008706Y014371D01*
X008666Y014468D02*
X005291Y014468D01*
X005291Y014565D02*
X008655Y014565D01*
X008666Y014662D02*
X005291Y014662D01*
X005291Y014759D02*
X008707Y014759D01*
X008803Y014855D02*
X005291Y014855D01*
X005291Y014952D02*
X017928Y014952D01*
X017928Y014855D02*
X010182Y014855D01*
X010180Y014857D02*
X010053Y014910D01*
X009916Y014910D01*
X009789Y014857D01*
X009691Y014760D01*
X009639Y014633D01*
X009639Y014496D01*
X009691Y014369D01*
X009789Y014272D01*
X009916Y014219D01*
X010053Y014219D01*
X010180Y014272D01*
X010277Y014369D01*
X010330Y014496D01*
X010330Y014633D01*
X010277Y014760D01*
X010180Y014857D01*
X010278Y014759D02*
X017928Y014759D01*
X017928Y014662D02*
X010318Y014662D01*
X010330Y014565D02*
X017928Y014565D01*
X017928Y014468D02*
X010318Y014468D01*
X010278Y014371D02*
X017928Y014371D01*
X017928Y014274D02*
X010182Y014274D01*
X010156Y014080D02*
X017928Y014080D01*
X017928Y014177D02*
X005291Y014177D01*
X005291Y015049D02*
X008759Y015049D01*
X008754Y015052D02*
X008817Y015010D01*
X008888Y014981D01*
X008962Y014966D01*
X008970Y014966D01*
X008970Y015322D01*
X008615Y015322D01*
X008615Y015314D01*
X008629Y015239D01*
X008658Y015169D01*
X008701Y015106D01*
X008754Y015052D01*
X008674Y015146D02*
X005291Y015146D01*
X005291Y015243D02*
X008629Y015243D01*
X008615Y015381D02*
X008970Y015381D01*
X008970Y015322D01*
X009030Y015322D01*
X009030Y015381D01*
X009385Y015381D01*
X009385Y015390D01*
X009371Y015464D01*
X009342Y015534D01*
X009686Y015534D01*
X009691Y015547D02*
X009639Y015421D01*
X009639Y015283D01*
X009691Y015156D01*
X009789Y015059D01*
X009916Y015006D01*
X010053Y015006D01*
X010180Y015059D01*
X010265Y015144D01*
X010338Y015144D01*
X010889Y015695D01*
X011011Y015817D01*
X011011Y021329D01*
X011011Y021501D01*
X008699Y023813D01*
X008699Y023828D01*
X008660Y023923D01*
X008587Y023996D01*
X008492Y024035D01*
X008390Y024035D01*
X008295Y023996D01*
X008222Y023923D01*
X008183Y023828D01*
X008183Y023726D01*
X008222Y023631D01*
X008295Y023558D01*
X008390Y023519D01*
X008405Y023519D01*
X010596Y021329D01*
X010596Y015989D01*
X010216Y015609D01*
X010180Y015645D01*
X010053Y015697D01*
X009916Y015697D01*
X009789Y015645D01*
X009691Y015547D01*
X009646Y015437D02*
X009376Y015437D01*
X009342Y015534D02*
X009299Y015597D01*
X009246Y015651D01*
X009183Y015693D01*
X009112Y015722D01*
X009038Y015737D01*
X009030Y015737D01*
X009030Y015382D01*
X008970Y015382D01*
X008970Y015737D01*
X008962Y015737D01*
X008888Y015722D01*
X008817Y015693D01*
X008754Y015651D01*
X008701Y015597D01*
X008658Y015534D01*
X005291Y015534D01*
X005291Y015437D02*
X008624Y015437D01*
X008629Y015464D02*
X008615Y015390D01*
X008615Y015381D01*
X008629Y015464D02*
X008658Y015534D01*
X008734Y015631D02*
X005291Y015631D01*
X005291Y015728D02*
X008917Y015728D01*
X008888Y015769D02*
X008962Y015754D01*
X008970Y015754D01*
X008970Y016109D01*
X009030Y016109D01*
X009030Y015754D01*
X009038Y015754D01*
X009112Y015769D01*
X009183Y015798D01*
X009246Y015840D01*
X009299Y015894D01*
X009342Y015957D01*
X009371Y016027D01*
X009385Y016101D01*
X009385Y016110D01*
X009030Y016110D01*
X009030Y016169D01*
X009385Y016169D01*
X009385Y016177D01*
X009371Y016252D01*
X009342Y016322D01*
X009319Y016355D01*
X009517Y016355D01*
X009646Y016225D01*
X009639Y016208D01*
X009639Y016070D01*
X009691Y015944D01*
X009789Y015846D01*
X009916Y015794D01*
X010053Y015794D01*
X010180Y015846D01*
X010277Y015944D01*
X010330Y016070D01*
X010330Y016208D01*
X010277Y016335D01*
X010180Y016432D01*
X010053Y016485D01*
X009916Y016485D01*
X009898Y016477D01*
X009769Y016607D01*
X009664Y016711D01*
X009273Y016711D01*
X009293Y016731D01*
X009345Y016858D01*
X009345Y016995D01*
X009293Y017122D01*
X009196Y017219D01*
X009069Y017272D01*
X008931Y017272D01*
X008804Y017219D01*
X008707Y017122D01*
X008655Y016995D01*
X008655Y016858D01*
X008707Y016731D01*
X008727Y016711D01*
X008121Y016711D01*
X008056Y016776D01*
X008080Y016799D01*
X008156Y016984D01*
X008156Y024780D01*
X008254Y024780D01*
X008295Y024739D01*
X008390Y024700D01*
X008492Y024700D01*
X008587Y024739D01*
X008660Y024812D01*
X008699Y024907D01*
X008699Y025009D01*
X008660Y025104D01*
X008587Y025177D01*
X008492Y025216D01*
X008390Y025216D01*
X008295Y025177D01*
X008254Y025136D01*
X008156Y025136D01*
X008156Y025144D01*
X016545Y033532D01*
X019323Y030753D01*
X019316Y030735D01*
X019316Y030598D01*
X019369Y030471D01*
X019466Y030374D01*
X019593Y030321D01*
X019730Y030321D01*
X019857Y030374D01*
X019954Y030471D01*
X020007Y030598D01*
X020007Y030735D01*
X019954Y030862D01*
X019857Y030960D01*
X019730Y031012D01*
X019593Y031012D01*
X019575Y031005D01*
X016796Y033784D01*
X017311Y034298D01*
X019168Y034298D01*
X019368Y034298D01*
X019553Y034374D01*
X023293Y038114D01*
X023490Y038311D01*
X023631Y038453D01*
X023708Y038638D01*
X023708Y040803D01*
X023708Y041003D01*
X023688Y041051D01*
X023688Y043289D01*
X023806Y043321D01*
X024173Y043533D01*
X024473Y043832D01*
X024685Y044199D01*
X024794Y044608D01*
X024794Y045032D01*
X024685Y045441D01*
X024473Y045808D01*
X024173Y046108D01*
X023806Y046320D01*
X023397Y046429D01*
X022973Y046429D01*
X022564Y046320D01*
X022197Y046108D01*
X021897Y045808D01*
X021685Y045441D01*
X021576Y045032D01*
X021576Y044608D01*
X021685Y044199D01*
X021897Y043832D01*
X022197Y043533D01*
X022564Y043321D01*
X022682Y043289D01*
X022682Y040983D01*
X022682Y040783D01*
X022702Y040736D01*
X022702Y038946D01*
X022582Y038826D01*
X019059Y035304D01*
X017002Y035304D01*
X016817Y035227D01*
X016676Y035085D01*
X015889Y034298D01*
X015418Y033827D01*
X008921Y033827D01*
X007664Y035083D01*
X007664Y037667D01*
X008380Y038383D01*
X008418Y038368D01*
X008590Y038368D01*
X008748Y038433D01*
X008869Y038554D01*
X008935Y038713D01*
X008935Y038884D01*
X008869Y039043D01*
X008748Y039164D01*
X008590Y039230D01*
X008418Y039230D01*
X008260Y039164D01*
X008139Y039043D01*
X008073Y038884D01*
X008073Y038713D01*
X008087Y038678D01*
X007371Y037961D01*
X007249Y037839D01*
X007249Y035083D01*
X007249Y034911D01*
X008627Y033534D01*
X008749Y033412D01*
X015002Y033412D01*
X007369Y025778D01*
X007369Y025778D01*
X007227Y025637D01*
X007151Y025452D01*
X007151Y024858D01*
X007151Y016984D01*
X007227Y016799D01*
X007369Y016658D01*
X007553Y016581D01*
X007747Y016581D01*
X007973Y016355D01*
X008121Y016355D01*
X008681Y016355D01*
X008658Y016322D01*
X008629Y016252D01*
X008615Y016177D01*
X008615Y016169D01*
X008970Y016169D01*
X008970Y016110D01*
X008615Y016110D01*
X008615Y016101D01*
X008629Y016027D01*
X008658Y015957D01*
X008701Y015894D01*
X008754Y015840D01*
X008817Y015798D01*
X008888Y015769D01*
X008970Y015728D02*
X009030Y015728D01*
X009083Y015728D02*
X010335Y015728D01*
X010432Y015825D02*
X010129Y015825D01*
X010256Y015922D02*
X010529Y015922D01*
X010596Y016019D02*
X010308Y016019D01*
X010330Y016116D02*
X010596Y016116D01*
X010596Y016213D02*
X010328Y016213D01*
X010287Y016310D02*
X010596Y016310D01*
X010596Y016407D02*
X010205Y016407D01*
X010101Y016601D02*
X010596Y016601D01*
X010596Y016698D02*
X010244Y016698D01*
X010277Y016731D02*
X010330Y016858D01*
X010330Y016995D01*
X010277Y017122D01*
X010180Y017219D01*
X010053Y017272D01*
X009916Y017272D01*
X009789Y017219D01*
X009691Y017122D01*
X009639Y016995D01*
X009639Y016858D01*
X009691Y016731D01*
X009789Y016634D01*
X009916Y016581D01*
X010053Y016581D01*
X010180Y016634D01*
X010277Y016731D01*
X010304Y016795D02*
X010596Y016795D01*
X010596Y016892D02*
X010330Y016892D01*
X010330Y016989D02*
X010596Y016989D01*
X010596Y017086D02*
X010292Y017086D01*
X010217Y017183D02*
X010596Y017183D01*
X010596Y017280D02*
X008156Y017280D01*
X008156Y017377D02*
X008912Y017377D01*
X008931Y017369D02*
X009069Y017369D01*
X009196Y017421D01*
X009293Y017518D01*
X009345Y017645D01*
X009345Y017783D01*
X009293Y017910D01*
X009196Y018007D01*
X009069Y018059D01*
X008931Y018059D01*
X008804Y018007D01*
X008707Y017910D01*
X008655Y017783D01*
X008655Y017645D01*
X008707Y017518D01*
X008804Y017421D01*
X008931Y017369D01*
X009088Y017377D02*
X009896Y017377D01*
X009916Y017369D02*
X010053Y017369D01*
X010180Y017421D01*
X010277Y017518D01*
X010330Y017645D01*
X010330Y017783D01*
X010277Y017910D01*
X010180Y018007D01*
X010053Y018059D01*
X009916Y018059D01*
X009789Y018007D01*
X009691Y017910D01*
X009639Y017783D01*
X009639Y017645D01*
X009691Y017518D01*
X009789Y017421D01*
X009916Y017369D01*
X010072Y017377D02*
X010596Y017377D01*
X010596Y017474D02*
X010232Y017474D01*
X010299Y017571D02*
X010596Y017571D01*
X010596Y017668D02*
X010330Y017668D01*
X010330Y017765D02*
X010596Y017765D01*
X010596Y017861D02*
X010297Y017861D01*
X010228Y017958D02*
X010596Y017958D01*
X010596Y018055D02*
X010063Y018055D01*
X010053Y018156D02*
X010180Y018209D01*
X010277Y018306D01*
X010330Y018433D01*
X010330Y018570D01*
X010277Y018697D01*
X010180Y018794D01*
X010053Y018847D01*
X009916Y018847D01*
X009789Y018794D01*
X009691Y018697D01*
X009639Y018570D01*
X009639Y018433D01*
X009691Y018306D01*
X009789Y018209D01*
X009916Y018156D01*
X010053Y018156D01*
X009906Y018055D02*
X009078Y018055D01*
X009069Y018156D02*
X008931Y018156D01*
X008804Y018209D01*
X008707Y018306D01*
X008655Y018433D01*
X008655Y018570D01*
X008707Y018697D01*
X008804Y018794D01*
X008931Y018847D01*
X009069Y018847D01*
X009196Y018794D01*
X009293Y018697D01*
X009345Y018570D01*
X009345Y018433D01*
X009293Y018306D01*
X009196Y018209D01*
X009069Y018156D01*
X008922Y018055D02*
X008156Y018055D01*
X008156Y017958D02*
X008756Y017958D01*
X008687Y017861D02*
X008156Y017861D01*
X008156Y017765D02*
X008655Y017765D01*
X008655Y017668D02*
X008156Y017668D01*
X008156Y017571D02*
X008685Y017571D01*
X008752Y017474D02*
X008156Y017474D01*
X008156Y017183D02*
X008768Y017183D01*
X008692Y017086D02*
X008156Y017086D01*
X008156Y016989D02*
X008655Y016989D01*
X008655Y016892D02*
X008118Y016892D01*
X008075Y016795D02*
X008681Y016795D01*
X008654Y016310D02*
X005291Y016310D01*
X005291Y016407D02*
X007921Y016407D01*
X007824Y016504D02*
X005291Y016504D01*
X005291Y016601D02*
X007506Y016601D01*
X007329Y016698D02*
X005291Y016698D01*
X005291Y016795D02*
X007232Y016795D01*
X007189Y016892D02*
X005291Y016892D01*
X005291Y016989D02*
X007151Y016989D01*
X007151Y017086D02*
X005291Y017086D01*
X005291Y017183D02*
X007151Y017183D01*
X007151Y017280D02*
X005291Y017280D01*
X005291Y017377D02*
X007151Y017377D01*
X007151Y017474D02*
X005291Y017474D01*
X005291Y017571D02*
X007151Y017571D01*
X007151Y017668D02*
X005291Y017668D01*
X005291Y017765D02*
X007151Y017765D01*
X007151Y017861D02*
X005291Y017861D01*
X005291Y017958D02*
X007151Y017958D01*
X007151Y018055D02*
X005291Y018055D01*
X005291Y018152D02*
X007151Y018152D01*
X007151Y018249D02*
X005291Y018249D01*
X005291Y018346D02*
X007151Y018346D01*
X007151Y018443D02*
X005291Y018443D01*
X005291Y018540D02*
X007151Y018540D01*
X007151Y018637D02*
X005291Y018637D01*
X005291Y018734D02*
X007151Y018734D01*
X007151Y018831D02*
X005291Y018831D01*
X005291Y018928D02*
X007151Y018928D01*
X007151Y019025D02*
X005291Y019025D01*
X005291Y019122D02*
X007151Y019122D01*
X007151Y019219D02*
X005291Y019219D01*
X005291Y019316D02*
X007151Y019316D01*
X007151Y019413D02*
X005291Y019413D01*
X005291Y019510D02*
X007151Y019510D01*
X007151Y019607D02*
X005291Y019607D01*
X005291Y019704D02*
X007151Y019704D01*
X007151Y019801D02*
X005291Y019801D01*
X005291Y019898D02*
X007151Y019898D01*
X007151Y019995D02*
X005291Y019995D01*
X005291Y020092D02*
X007151Y020092D01*
X007151Y020189D02*
X005291Y020189D01*
X005291Y020286D02*
X007151Y020286D01*
X007151Y020383D02*
X005291Y020383D01*
X005291Y020480D02*
X007151Y020480D01*
X007151Y020577D02*
X005291Y020577D01*
X005291Y020674D02*
X007151Y020674D01*
X007151Y020771D02*
X005291Y020771D01*
X005291Y020868D02*
X007151Y020868D01*
X007151Y020964D02*
X005291Y020964D01*
X005291Y021061D02*
X007151Y021061D01*
X007151Y021158D02*
X005291Y021158D01*
X005291Y021255D02*
X007151Y021255D01*
X007151Y021352D02*
X005291Y021352D01*
X005291Y021449D02*
X007151Y021449D01*
X007151Y021546D02*
X005291Y021546D01*
X005291Y021643D02*
X007151Y021643D01*
X007151Y021740D02*
X005291Y021740D01*
X005291Y021837D02*
X007151Y021837D01*
X007151Y021934D02*
X005291Y021934D01*
X005291Y022031D02*
X007151Y022031D01*
X007151Y022128D02*
X005291Y022128D01*
X005291Y022225D02*
X007151Y022225D01*
X007151Y022322D02*
X005291Y022322D01*
X005291Y022419D02*
X007151Y022419D01*
X007151Y022516D02*
X005291Y022516D01*
X005291Y022613D02*
X007151Y022613D01*
X007151Y022710D02*
X005291Y022710D01*
X005291Y022807D02*
X007151Y022807D01*
X007151Y022904D02*
X005291Y022904D01*
X005291Y023001D02*
X007151Y023001D01*
X007151Y023098D02*
X005291Y023098D01*
X005291Y023195D02*
X007151Y023195D01*
X007151Y023292D02*
X005291Y023292D01*
X005291Y023389D02*
X007151Y023389D01*
X007151Y023486D02*
X005291Y023486D01*
X005291Y023583D02*
X007151Y023583D01*
X007151Y023680D02*
X005291Y023680D01*
X005291Y023777D02*
X007151Y023777D01*
X007151Y023874D02*
X005291Y023874D01*
X005291Y023971D02*
X007151Y023971D01*
X007151Y024067D02*
X005291Y024067D01*
X005291Y024164D02*
X007151Y024164D01*
X007151Y024261D02*
X005291Y024261D01*
X005291Y024358D02*
X007151Y024358D01*
X007151Y024455D02*
X005291Y024455D01*
X005291Y024552D02*
X007151Y024552D01*
X007151Y024649D02*
X005291Y024649D01*
X005291Y024746D02*
X007151Y024746D01*
X007151Y024843D02*
X005291Y024843D01*
X005291Y024940D02*
X007151Y024940D01*
X007151Y025037D02*
X005291Y025037D01*
X005291Y025134D02*
X007151Y025134D01*
X007151Y025231D02*
X005291Y025231D01*
X005291Y025328D02*
X007151Y025328D01*
X007151Y025425D02*
X005291Y025425D01*
X005291Y025522D02*
X007180Y025522D01*
X007220Y025619D02*
X005291Y025619D01*
X005291Y025716D02*
X007306Y025716D01*
X007404Y025813D02*
X005291Y025813D01*
X005291Y025910D02*
X007500Y025910D01*
X007597Y026007D02*
X005291Y026007D01*
X005291Y026104D02*
X007694Y026104D01*
X007791Y026201D02*
X005291Y026201D01*
X005291Y026298D02*
X007888Y026298D01*
X007985Y026395D02*
X005291Y026395D01*
X005291Y026492D02*
X008082Y026492D01*
X008179Y026589D02*
X005291Y026589D01*
X005291Y026686D02*
X008276Y026686D01*
X008373Y026783D02*
X005291Y026783D01*
X005291Y026880D02*
X008470Y026880D01*
X008567Y026977D02*
X005291Y026977D01*
X005291Y027074D02*
X008664Y027074D01*
X008761Y027170D02*
X005291Y027170D01*
X005291Y027267D02*
X008858Y027267D01*
X008955Y027364D02*
X005291Y027364D01*
X005291Y027461D02*
X009052Y027461D01*
X009149Y027558D02*
X005291Y027558D01*
X005291Y027655D02*
X009246Y027655D01*
X009343Y027752D02*
X005291Y027752D01*
X005291Y027849D02*
X009440Y027849D01*
X009537Y027946D02*
X005291Y027946D01*
X005291Y028043D02*
X009634Y028043D01*
X009731Y028140D02*
X005291Y028140D01*
X005291Y028237D02*
X009828Y028237D01*
X009925Y028334D02*
X005291Y028334D01*
X005291Y028431D02*
X010022Y028431D01*
X010119Y028528D02*
X005291Y028528D01*
X005291Y028625D02*
X010216Y028625D01*
X010313Y028722D02*
X005291Y028722D01*
X005291Y028819D02*
X010410Y028819D01*
X010506Y028916D02*
X005291Y028916D01*
X005291Y029013D02*
X010603Y029013D01*
X010700Y029110D02*
X005291Y029110D01*
X005291Y029207D02*
X010797Y029207D01*
X010894Y029304D02*
X005291Y029304D01*
X005291Y029401D02*
X010991Y029401D01*
X011088Y029498D02*
X005291Y029498D01*
X005291Y029595D02*
X011185Y029595D01*
X011282Y029692D02*
X005291Y029692D01*
X005291Y029789D02*
X011379Y029789D01*
X011476Y029886D02*
X005291Y029886D01*
X005291Y029983D02*
X011573Y029983D01*
X011670Y030080D02*
X005291Y030080D01*
X005291Y030176D02*
X011767Y030176D01*
X011864Y030273D02*
X005291Y030273D01*
X005291Y030370D02*
X011961Y030370D01*
X012058Y030467D02*
X005291Y030467D01*
X005291Y030564D02*
X012155Y030564D01*
X012252Y030661D02*
X005291Y030661D01*
X005291Y030758D02*
X012349Y030758D01*
X012446Y030855D02*
X005291Y030855D01*
X005291Y030952D02*
X012543Y030952D01*
X012640Y031049D02*
X005291Y031049D01*
X005291Y031146D02*
X012737Y031146D01*
X012834Y031243D02*
X005291Y031243D01*
X005291Y031340D02*
X012931Y031340D01*
X013028Y031437D02*
X005291Y031437D01*
X005291Y031534D02*
X013125Y031534D01*
X013222Y031631D02*
X009349Y031631D01*
X009445Y031671D02*
X009635Y031861D01*
X009738Y032109D01*
X009738Y032378D01*
X009635Y032626D01*
X009445Y032816D01*
X009197Y032919D01*
X008929Y032919D01*
X008681Y032816D01*
X008491Y032626D01*
X008388Y032378D01*
X008388Y032109D01*
X008491Y031861D01*
X008681Y031671D01*
X008929Y031568D01*
X009197Y031568D01*
X009445Y031671D01*
X009502Y031728D02*
X013319Y031728D01*
X013416Y031825D02*
X009599Y031825D01*
X009661Y031922D02*
X013513Y031922D01*
X013609Y032019D02*
X009701Y032019D01*
X009738Y032116D02*
X013706Y032116D01*
X013803Y032213D02*
X009738Y032213D01*
X009738Y032310D02*
X013900Y032310D01*
X013997Y032407D02*
X009726Y032407D01*
X009686Y032504D02*
X014094Y032504D01*
X014191Y032601D02*
X009646Y032601D01*
X009564Y032698D02*
X014288Y032698D01*
X014385Y032795D02*
X009467Y032795D01*
X009263Y032892D02*
X014482Y032892D01*
X014579Y032989D02*
X005291Y032989D01*
X005291Y033086D02*
X014676Y033086D01*
X014773Y033183D02*
X005291Y033183D01*
X005291Y033279D02*
X014870Y033279D01*
X014967Y033376D02*
X005291Y033376D01*
X005291Y033473D02*
X008687Y033473D01*
X008590Y033570D02*
X005291Y033570D01*
X005291Y033667D02*
X008493Y033667D01*
X008396Y033764D02*
X005291Y033764D01*
X005291Y033861D02*
X008299Y033861D01*
X008202Y033958D02*
X005291Y033958D01*
X005291Y034055D02*
X008105Y034055D01*
X008008Y034152D02*
X005291Y034152D01*
X005291Y034249D02*
X007911Y034249D01*
X007814Y034346D02*
X005291Y034346D01*
X005291Y034443D02*
X007717Y034443D01*
X007620Y034540D02*
X005291Y034540D01*
X005291Y034637D02*
X007523Y034637D01*
X007426Y034734D02*
X005291Y034734D01*
X005291Y034831D02*
X007330Y034831D01*
X007249Y034928D02*
X005291Y034928D01*
X005291Y035025D02*
X007249Y035025D01*
X007249Y035122D02*
X005291Y035122D01*
X005291Y035219D02*
X007249Y035219D01*
X007249Y035316D02*
X005291Y035316D01*
X005291Y035413D02*
X007249Y035413D01*
X007249Y035510D02*
X005291Y035510D01*
X005291Y035607D02*
X007249Y035607D01*
X007249Y035704D02*
X005291Y035704D01*
X005291Y035801D02*
X007249Y035801D01*
X007249Y035898D02*
X005291Y035898D01*
X005291Y035995D02*
X007249Y035995D01*
X007249Y036092D02*
X005291Y036092D01*
X005291Y036189D02*
X007249Y036189D01*
X007249Y036286D02*
X005291Y036286D01*
X005291Y036382D02*
X007249Y036382D01*
X007249Y036479D02*
X005291Y036479D01*
X005291Y036576D02*
X007249Y036576D01*
X007249Y036673D02*
X005291Y036673D01*
X005291Y036770D02*
X007249Y036770D01*
X007249Y036867D02*
X005291Y036867D01*
X005291Y036964D02*
X007249Y036964D01*
X007249Y037061D02*
X005291Y037061D01*
X005291Y037158D02*
X007249Y037158D01*
X007249Y037255D02*
X005291Y037255D01*
X005291Y037352D02*
X007249Y037352D01*
X007249Y037449D02*
X005291Y037449D01*
X005291Y037546D02*
X007249Y037546D01*
X007249Y037643D02*
X005291Y037643D01*
X005291Y037740D02*
X007249Y037740D01*
X007249Y037837D02*
X005291Y037837D01*
X005291Y037934D02*
X007344Y037934D01*
X007441Y038031D02*
X005291Y038031D01*
X005291Y038128D02*
X007538Y038128D01*
X007635Y038225D02*
X005291Y038225D01*
X005291Y038322D02*
X007732Y038322D01*
X007829Y038419D02*
X005291Y038419D01*
X005291Y038516D02*
X007926Y038516D01*
X008022Y038613D02*
X005291Y038613D01*
X005291Y038710D02*
X008074Y038710D01*
X008073Y038807D02*
X005291Y038807D01*
X005291Y038904D02*
X008081Y038904D01*
X008121Y039001D02*
X005291Y039001D01*
X005291Y039098D02*
X008193Y039098D01*
X008333Y039195D02*
X005291Y039195D01*
X005291Y039292D02*
X009191Y039292D01*
X009191Y039258D02*
X009257Y039100D01*
X009378Y038979D01*
X009536Y038913D01*
X009708Y038913D01*
X009866Y038979D01*
X009987Y039100D01*
X010053Y039258D01*
X010053Y039430D01*
X009987Y039588D01*
X009866Y039709D01*
X009708Y039775D01*
X009536Y039775D01*
X009378Y039709D01*
X009257Y039588D01*
X009191Y039430D01*
X009191Y039258D01*
X009217Y039195D02*
X008674Y039195D01*
X008815Y039098D02*
X009259Y039098D01*
X009356Y039001D02*
X008887Y039001D01*
X008927Y038904D02*
X015153Y038904D01*
X015153Y039001D02*
X009888Y039001D01*
X009985Y039098D02*
X015153Y039098D01*
X015153Y039195D02*
X010027Y039195D01*
X010053Y039292D02*
X015153Y039292D01*
X015153Y039389D02*
X010053Y039389D01*
X010030Y039485D02*
X015153Y039485D01*
X015153Y039582D02*
X009990Y039582D01*
X009896Y039679D02*
X015153Y039679D01*
X015153Y039776D02*
X005291Y039776D01*
X005291Y039679D02*
X009348Y039679D01*
X009254Y039582D02*
X005291Y039582D01*
X005291Y039485D02*
X009214Y039485D01*
X009191Y039389D02*
X005291Y039389D01*
X005291Y039873D02*
X015153Y039873D01*
X015153Y039970D02*
X005291Y039970D01*
X005291Y040067D02*
X015153Y040067D01*
X015153Y040164D02*
X005291Y040164D01*
X005291Y040261D02*
X015153Y040261D01*
X015153Y040358D02*
X005291Y040358D01*
X005291Y040455D02*
X015153Y040455D01*
X015153Y040552D02*
X005291Y040552D01*
X005291Y040649D02*
X015153Y040649D01*
X015153Y040746D02*
X005291Y040746D01*
X005291Y040843D02*
X015153Y040843D01*
X015153Y040940D02*
X005291Y040940D01*
X005291Y041037D02*
X015153Y041037D01*
X015153Y041134D02*
X005291Y041134D01*
X005291Y041231D02*
X015153Y041231D01*
X015153Y041328D02*
X005291Y041328D01*
X005291Y041425D02*
X008885Y041425D01*
X008929Y041407D02*
X009197Y041407D01*
X009445Y041510D01*
X009635Y041700D01*
X009738Y041948D01*
X009738Y042216D01*
X009635Y042465D01*
X009445Y042654D01*
X009197Y042757D01*
X008929Y042757D01*
X008681Y042654D01*
X008491Y042465D01*
X008388Y042216D01*
X008388Y041948D01*
X008491Y041700D01*
X008681Y041510D01*
X008929Y041407D01*
X008668Y041522D02*
X005291Y041522D01*
X005291Y041619D02*
X008571Y041619D01*
X008484Y041716D02*
X005291Y041716D01*
X005291Y041813D02*
X008444Y041813D01*
X008404Y041910D02*
X005291Y041910D01*
X005291Y042007D02*
X008388Y042007D01*
X008388Y042104D02*
X005291Y042104D01*
X005291Y042201D02*
X008388Y042201D01*
X008421Y042298D02*
X005291Y042298D01*
X005291Y042395D02*
X008462Y042395D01*
X008518Y042491D02*
X005291Y042491D01*
X005291Y042588D02*
X008614Y042588D01*
X008755Y042685D02*
X005291Y042685D01*
X005291Y042782D02*
X015153Y042782D01*
X015153Y042685D02*
X009371Y042685D01*
X009511Y042588D02*
X015153Y042588D01*
X015153Y042491D02*
X009608Y042491D01*
X009664Y042395D02*
X015153Y042395D01*
X015153Y042298D02*
X009705Y042298D01*
X009738Y042201D02*
X015153Y042201D01*
X015153Y042104D02*
X009738Y042104D01*
X009738Y042007D02*
X015153Y042007D01*
X015153Y041910D02*
X009722Y041910D01*
X009682Y041813D02*
X015153Y041813D01*
X015153Y041716D02*
X009642Y041716D01*
X009554Y041619D02*
X015153Y041619D01*
X015153Y041522D02*
X009458Y041522D01*
X009241Y041425D02*
X015153Y041425D01*
X015509Y041425D02*
X022682Y041425D01*
X022682Y041522D02*
X015509Y041522D01*
X015509Y041619D02*
X022682Y041619D01*
X022682Y041716D02*
X015509Y041716D01*
X015509Y041813D02*
X022682Y041813D01*
X022682Y041910D02*
X015509Y041910D01*
X015509Y042007D02*
X022682Y042007D01*
X022682Y042104D02*
X015509Y042104D01*
X015509Y042201D02*
X022682Y042201D01*
X022682Y042298D02*
X015509Y042298D01*
X015509Y042395D02*
X022682Y042395D01*
X022682Y042491D02*
X015509Y042491D01*
X015509Y042588D02*
X022682Y042588D01*
X022682Y042685D02*
X015509Y042685D01*
X015509Y042782D02*
X022682Y042782D01*
X022682Y042879D02*
X015509Y042879D01*
X015509Y042976D02*
X022682Y042976D01*
X022682Y043073D02*
X015509Y043073D01*
X015509Y043170D02*
X022682Y043170D01*
X022682Y043267D02*
X015509Y043267D01*
X015509Y043364D02*
X022489Y043364D01*
X022321Y043461D02*
X015509Y043461D01*
X015509Y043558D02*
X022171Y043558D01*
X022074Y043655D02*
X015509Y043655D01*
X015509Y043752D02*
X021977Y043752D01*
X021888Y043849D02*
X015509Y043849D01*
X015509Y043946D02*
X021832Y043946D01*
X021776Y044043D02*
X015573Y044043D01*
X015509Y043979D02*
X016251Y044721D01*
X016396Y044721D01*
X016547Y044784D01*
X016662Y044899D01*
X016724Y045049D01*
X016724Y045812D01*
X016662Y045962D01*
X016547Y046077D01*
X016396Y046140D01*
X016234Y046140D01*
X016083Y046077D01*
X015968Y045962D01*
X015906Y045812D01*
X015906Y045049D01*
X015955Y044929D01*
X015257Y044231D01*
X015153Y044126D01*
X015153Y035578D01*
X015112Y035537D01*
X015073Y035442D01*
X015073Y035340D01*
X015112Y035245D01*
X015185Y035172D01*
X015279Y035133D01*
X015382Y035133D01*
X015477Y035172D01*
X015549Y035245D01*
X015589Y035340D01*
X015589Y035442D01*
X015549Y035537D01*
X015509Y035578D01*
X015509Y043979D01*
X015670Y044140D02*
X021720Y044140D01*
X021675Y044237D02*
X015767Y044237D01*
X015864Y044334D02*
X021649Y044334D01*
X021623Y044431D02*
X015961Y044431D01*
X016058Y044528D02*
X021597Y044528D01*
X021576Y044625D02*
X016155Y044625D01*
X016397Y044722D02*
X017128Y044722D01*
X017142Y044714D02*
X017210Y044692D01*
X017266Y044684D01*
X017266Y045381D01*
X017364Y045381D01*
X017364Y044684D01*
X017420Y044692D01*
X017487Y044714D01*
X017550Y044746D01*
X017608Y044788D01*
X017658Y044838D01*
X017699Y044895D01*
X017731Y044958D01*
X017753Y045025D01*
X017764Y045095D01*
X017764Y045381D01*
X017364Y045381D01*
X017364Y045480D01*
X017266Y045480D01*
X017266Y046178D01*
X017210Y046169D01*
X017142Y046147D01*
X017079Y046115D01*
X017022Y046073D01*
X016972Y046023D01*
X016931Y045966D01*
X016899Y045903D01*
X016877Y045836D01*
X016866Y045766D01*
X016866Y045480D01*
X017266Y045480D01*
X017266Y045381D01*
X016866Y045381D01*
X016866Y045095D01*
X016877Y045025D01*
X016899Y044958D01*
X016931Y044895D01*
X016972Y044838D01*
X017022Y044788D01*
X017079Y044746D01*
X017142Y044714D01*
X017266Y044722D02*
X017364Y044722D01*
X017364Y044819D02*
X017266Y044819D01*
X017266Y044916D02*
X017364Y044916D01*
X017364Y045013D02*
X017266Y045013D01*
X017266Y045110D02*
X017364Y045110D01*
X017364Y045207D02*
X017266Y045207D01*
X017266Y045304D02*
X017364Y045304D01*
X017364Y045401D02*
X021675Y045401D01*
X021649Y045304D02*
X017764Y045304D01*
X017764Y045207D02*
X021623Y045207D01*
X021597Y045110D02*
X017764Y045110D01*
X017749Y045013D02*
X021576Y045013D01*
X021576Y044916D02*
X017710Y044916D01*
X017638Y044819D02*
X021576Y044819D01*
X021576Y044722D02*
X017502Y044722D01*
X016991Y044819D02*
X016582Y044819D01*
X016669Y044916D02*
X016920Y044916D01*
X016881Y045013D02*
X016709Y045013D01*
X016724Y045110D02*
X016866Y045110D01*
X016866Y045207D02*
X016724Y045207D01*
X016724Y045304D02*
X016866Y045304D01*
X016724Y045401D02*
X017266Y045401D01*
X017266Y045498D02*
X017364Y045498D01*
X017364Y045480D02*
X017364Y046178D01*
X017420Y046169D01*
X017487Y046147D01*
X017550Y046115D01*
X017608Y046073D01*
X017658Y046023D01*
X017699Y045966D01*
X017731Y045903D01*
X017753Y045836D01*
X017764Y045766D01*
X017764Y045480D01*
X017364Y045480D01*
X017364Y045594D02*
X017266Y045594D01*
X017266Y045691D02*
X017364Y045691D01*
X017364Y045788D02*
X017266Y045788D01*
X017266Y045885D02*
X017364Y045885D01*
X017364Y045982D02*
X017266Y045982D01*
X017266Y046079D02*
X017364Y046079D01*
X017364Y046176D02*
X017266Y046176D01*
X017258Y046176D02*
X005291Y046176D01*
X005291Y046079D02*
X008969Y046079D01*
X009089Y046129D02*
X008832Y046023D01*
X008636Y045826D01*
X008530Y045570D01*
X008530Y045292D01*
X008636Y045035D01*
X008832Y044838D01*
X009089Y044732D01*
X009367Y044732D01*
X009624Y044838D01*
X009821Y045035D01*
X009927Y045292D01*
X009927Y045570D01*
X009821Y045826D01*
X009624Y046023D01*
X009367Y046129D01*
X009089Y046129D01*
X008792Y045982D02*
X005291Y045982D01*
X005291Y045885D02*
X008695Y045885D01*
X008620Y045788D02*
X005291Y045788D01*
X005291Y045691D02*
X008580Y045691D01*
X008540Y045594D02*
X005291Y045594D01*
X005291Y045498D02*
X008530Y045498D01*
X008530Y045401D02*
X005291Y045401D01*
X005291Y045304D02*
X008530Y045304D01*
X008565Y045207D02*
X005291Y045207D01*
X005291Y045110D02*
X008605Y045110D01*
X008658Y045013D02*
X005291Y045013D01*
X005291Y044916D02*
X008755Y044916D01*
X008879Y044819D02*
X005291Y044819D01*
X005291Y044722D02*
X015232Y044722D01*
X015234Y044721D02*
X015396Y044721D01*
X015547Y044784D01*
X015662Y044899D01*
X015724Y045049D01*
X015724Y045812D01*
X015662Y045962D01*
X015547Y046077D01*
X015396Y046140D01*
X015234Y046140D01*
X015083Y046077D01*
X014968Y045962D01*
X014906Y045812D01*
X014906Y045049D01*
X014968Y044899D01*
X015083Y044784D01*
X015234Y044721D01*
X015397Y044722D02*
X015748Y044722D01*
X015845Y044819D02*
X015582Y044819D01*
X015669Y044916D02*
X015942Y044916D01*
X015921Y045013D02*
X015709Y045013D01*
X015724Y045110D02*
X015906Y045110D01*
X015906Y045207D02*
X015724Y045207D01*
X015724Y045304D02*
X015906Y045304D01*
X015906Y045401D02*
X015724Y045401D01*
X015724Y045498D02*
X015906Y045498D01*
X015906Y045594D02*
X015724Y045594D01*
X015724Y045691D02*
X015906Y045691D01*
X015906Y045788D02*
X015724Y045788D01*
X015694Y045885D02*
X015936Y045885D01*
X015988Y045982D02*
X015642Y045982D01*
X015542Y046079D02*
X016088Y046079D01*
X016542Y046079D02*
X017031Y046079D01*
X016943Y045982D02*
X016642Y045982D01*
X016694Y045885D02*
X016893Y045885D01*
X016869Y045788D02*
X016724Y045788D01*
X016724Y045691D02*
X016866Y045691D01*
X016866Y045594D02*
X016724Y045594D01*
X016724Y045498D02*
X016866Y045498D01*
X017372Y046176D02*
X022315Y046176D01*
X022168Y046079D02*
X017599Y046079D01*
X017687Y045982D02*
X022071Y045982D01*
X021974Y045885D02*
X017737Y045885D01*
X017761Y045788D02*
X021886Y045788D01*
X021830Y045691D02*
X017764Y045691D01*
X017764Y045594D02*
X021774Y045594D01*
X021718Y045498D02*
X017764Y045498D01*
X015651Y044625D02*
X005291Y044625D01*
X005291Y044528D02*
X015554Y044528D01*
X015457Y044431D02*
X005291Y044431D01*
X005291Y044334D02*
X015360Y044334D01*
X015263Y044237D02*
X005291Y044237D01*
X005291Y044140D02*
X015166Y044140D01*
X015153Y044043D02*
X005291Y044043D01*
X005291Y043946D02*
X015153Y043946D01*
X015153Y043849D02*
X005291Y043849D01*
X005291Y043752D02*
X015153Y043752D01*
X015153Y043655D02*
X005291Y043655D01*
X005291Y043558D02*
X015153Y043558D01*
X015153Y043461D02*
X005291Y043461D01*
X005291Y043364D02*
X015153Y043364D01*
X015153Y043267D02*
X005291Y043267D01*
X005291Y043170D02*
X015153Y043170D01*
X015153Y043073D02*
X005291Y043073D01*
X005291Y042976D02*
X015153Y042976D01*
X015153Y042879D02*
X005291Y042879D01*
X005291Y046273D02*
X022483Y046273D01*
X022752Y046370D02*
X005291Y046370D01*
X005291Y046467D02*
X030587Y046467D01*
X030613Y046469D02*
X030470Y046457D01*
X030328Y046432D01*
X030189Y046395D01*
X030053Y046345D01*
X029923Y046285D01*
X029798Y046213D01*
X029680Y046130D01*
X029570Y046037D01*
X029468Y045936D01*
X029375Y045825D01*
X029293Y045707D01*
X029221Y045583D01*
X029160Y045452D01*
X029111Y045317D01*
X029073Y045178D01*
X029048Y045036D01*
X029036Y044892D01*
X029036Y044869D01*
X030636Y044869D01*
X030636Y044771D01*
X030734Y044771D01*
X030734Y043171D01*
X030757Y043171D01*
X030901Y043184D01*
X031042Y043209D01*
X031181Y043246D01*
X031317Y043295D01*
X031447Y043356D01*
X031572Y043428D01*
X031690Y043511D01*
X031800Y043603D01*
X031902Y043705D01*
X031995Y043815D01*
X032077Y043933D01*
X032149Y044058D01*
X032210Y044189D01*
X032259Y044324D01*
X032297Y044463D01*
X032322Y044605D01*
X032334Y044748D01*
X032334Y044771D01*
X030734Y044771D01*
X030734Y044869D01*
X032334Y044869D01*
X032334Y044892D01*
X032322Y045036D01*
X032297Y045178D01*
X032259Y045317D01*
X032210Y045452D01*
X032149Y045583D01*
X032077Y045707D01*
X031995Y045825D01*
X031902Y045936D01*
X031800Y046037D01*
X031690Y046130D01*
X031572Y046213D01*
X031447Y046285D01*
X031317Y046345D01*
X031181Y046395D01*
X031042Y046432D01*
X030901Y046457D01*
X030757Y046469D01*
X030734Y046469D01*
X030734Y044870D01*
X030636Y044870D01*
X030636Y046469D01*
X030613Y046469D01*
X030636Y046467D02*
X030734Y046467D01*
X030783Y046467D02*
X038756Y046467D01*
X038756Y046370D02*
X031249Y046370D01*
X031467Y046273D02*
X038756Y046273D01*
X038756Y046176D02*
X031624Y046176D01*
X031750Y046079D02*
X036528Y046079D01*
X036648Y046129D02*
X036392Y046023D01*
X036195Y045826D01*
X036089Y045570D01*
X036089Y045292D01*
X036195Y045035D01*
X036392Y044838D01*
X036648Y044732D01*
X036926Y044732D01*
X037183Y044838D01*
X037380Y045035D01*
X037486Y045292D01*
X037486Y045570D01*
X037380Y045826D01*
X037183Y046023D01*
X036926Y046129D01*
X036648Y046129D01*
X036351Y045982D02*
X031855Y045982D01*
X031944Y045885D02*
X036254Y045885D01*
X036179Y045788D02*
X032020Y045788D01*
X032086Y045691D02*
X036139Y045691D01*
X036099Y045594D02*
X032142Y045594D01*
X032189Y045498D02*
X036089Y045498D01*
X036089Y045401D02*
X032229Y045401D01*
X032263Y045304D02*
X036089Y045304D01*
X036124Y045207D02*
X032289Y045207D01*
X032309Y045110D02*
X036164Y045110D01*
X036217Y045013D02*
X032324Y045013D01*
X032332Y044916D02*
X036314Y044916D01*
X036438Y044819D02*
X030734Y044819D01*
X030734Y044916D02*
X030636Y044916D01*
X030636Y045013D02*
X030734Y045013D01*
X030734Y045110D02*
X030636Y045110D01*
X030636Y045207D02*
X030734Y045207D01*
X030734Y045304D02*
X030636Y045304D01*
X030636Y045401D02*
X030734Y045401D01*
X030734Y045498D02*
X030636Y045498D01*
X030636Y045594D02*
X030734Y045594D01*
X030734Y045691D02*
X030636Y045691D01*
X030636Y045788D02*
X030734Y045788D01*
X030734Y045885D02*
X030636Y045885D01*
X030636Y045982D02*
X030734Y045982D01*
X030734Y046079D02*
X030636Y046079D01*
X030636Y046176D02*
X030734Y046176D01*
X030734Y046273D02*
X030636Y046273D01*
X030636Y046370D02*
X030734Y046370D01*
X030122Y046370D02*
X023618Y046370D01*
X023887Y046273D02*
X029903Y046273D01*
X029746Y046176D02*
X024055Y046176D01*
X024202Y046079D02*
X029620Y046079D01*
X029515Y045982D02*
X024299Y045982D01*
X024396Y045885D02*
X029426Y045885D01*
X029350Y045788D02*
X024484Y045788D01*
X024540Y045691D02*
X029284Y045691D01*
X029228Y045594D02*
X024596Y045594D01*
X024652Y045498D02*
X029181Y045498D01*
X029141Y045401D02*
X024696Y045401D01*
X024721Y045304D02*
X029107Y045304D01*
X029081Y045207D02*
X024747Y045207D01*
X024773Y045110D02*
X029061Y045110D01*
X029046Y045013D02*
X024794Y045013D01*
X024794Y044916D02*
X029038Y044916D01*
X029036Y044771D02*
X029036Y044748D01*
X029048Y044605D01*
X029073Y044463D01*
X029111Y044324D01*
X029160Y044189D01*
X029221Y044058D01*
X029293Y043933D01*
X029375Y043815D01*
X029468Y043705D01*
X029570Y043603D01*
X029680Y043511D01*
X029798Y043428D01*
X029923Y043356D01*
X030053Y043295D01*
X030189Y043246D01*
X030328Y043209D01*
X030470Y043184D01*
X030613Y043171D01*
X030636Y043171D01*
X030636Y044771D01*
X029036Y044771D01*
X029038Y044722D02*
X024794Y044722D01*
X024794Y044819D02*
X030636Y044819D01*
X030636Y044722D02*
X030734Y044722D01*
X030734Y044625D02*
X030636Y044625D01*
X030636Y044528D02*
X030734Y044528D01*
X030734Y044431D02*
X030636Y044431D01*
X030636Y044334D02*
X030734Y044334D01*
X030734Y044237D02*
X030636Y044237D01*
X030636Y044140D02*
X030734Y044140D01*
X030734Y044043D02*
X030636Y044043D01*
X030636Y043946D02*
X030734Y043946D01*
X030734Y043849D02*
X030636Y043849D01*
X030636Y043752D02*
X030734Y043752D01*
X030734Y043655D02*
X030636Y043655D01*
X030636Y043558D02*
X030734Y043558D01*
X030734Y043461D02*
X030636Y043461D01*
X030636Y043364D02*
X030734Y043364D01*
X030734Y043267D02*
X030636Y043267D01*
X030130Y043267D02*
X023688Y043267D01*
X023688Y043170D02*
X038756Y043170D01*
X038756Y043073D02*
X023688Y043073D01*
X023688Y042976D02*
X038756Y042976D01*
X038756Y042879D02*
X023688Y042879D01*
X023688Y042782D02*
X038756Y042782D01*
X038756Y042685D02*
X023688Y042685D01*
X023688Y042588D02*
X038756Y042588D01*
X038756Y042491D02*
X023688Y042491D01*
X023688Y042395D02*
X038756Y042395D01*
X038756Y042298D02*
X023688Y042298D01*
X023688Y042201D02*
X038756Y042201D01*
X038756Y042104D02*
X023688Y042104D01*
X023688Y042007D02*
X038756Y042007D01*
X038756Y041910D02*
X023688Y041910D01*
X023688Y041813D02*
X038756Y041813D01*
X038756Y041716D02*
X023688Y041716D01*
X023688Y041619D02*
X038756Y041619D01*
X038756Y041522D02*
X023688Y041522D01*
X023688Y041425D02*
X038756Y041425D01*
X038756Y041328D02*
X023688Y041328D01*
X023688Y041231D02*
X038756Y041231D01*
X038756Y041134D02*
X023688Y041134D01*
X023694Y041037D02*
X038756Y041037D01*
X038756Y040940D02*
X023708Y040940D01*
X023708Y040843D02*
X038756Y040843D01*
X038756Y040746D02*
X023708Y040746D01*
X023708Y040649D02*
X038756Y040649D01*
X038756Y040552D02*
X023708Y040552D01*
X023708Y040455D02*
X038756Y040455D01*
X038756Y040358D02*
X023708Y040358D01*
X023708Y040261D02*
X038756Y040261D01*
X038756Y040164D02*
X023708Y040164D01*
X023708Y040067D02*
X038756Y040067D01*
X038756Y039970D02*
X023708Y039970D01*
X023708Y039873D02*
X038756Y039873D01*
X038756Y039776D02*
X023708Y039776D01*
X023708Y039679D02*
X038756Y039679D01*
X038756Y039582D02*
X023708Y039582D01*
X023708Y039485D02*
X038756Y039485D01*
X038756Y039389D02*
X023708Y039389D01*
X023708Y039292D02*
X038756Y039292D01*
X038756Y039195D02*
X023708Y039195D01*
X023708Y039098D02*
X038756Y039098D01*
X038756Y039001D02*
X023708Y039001D01*
X023708Y038904D02*
X038756Y038904D01*
X038756Y038807D02*
X023708Y038807D01*
X023708Y038710D02*
X038756Y038710D01*
X038756Y038613D02*
X023697Y038613D01*
X023657Y038516D02*
X038756Y038516D01*
X038756Y038419D02*
X023597Y038419D01*
X023500Y038322D02*
X038756Y038322D01*
X038756Y038225D02*
X023403Y038225D01*
X023306Y038128D02*
X038756Y038128D01*
X038756Y038031D02*
X023209Y038031D01*
X023112Y037934D02*
X038756Y037934D01*
X038756Y037837D02*
X023015Y037837D01*
X022918Y037740D02*
X038756Y037740D01*
X038756Y037643D02*
X022821Y037643D01*
X022724Y037546D02*
X038756Y037546D01*
X038756Y037449D02*
X022627Y037449D01*
X022530Y037352D02*
X038756Y037352D01*
X038756Y037255D02*
X022433Y037255D01*
X022336Y037158D02*
X038756Y037158D01*
X038756Y037061D02*
X022240Y037061D01*
X022143Y036964D02*
X038756Y036964D01*
X038756Y036867D02*
X022046Y036867D01*
X021949Y036770D02*
X038756Y036770D01*
X038756Y036673D02*
X021852Y036673D01*
X021755Y036576D02*
X038756Y036576D01*
X038756Y036479D02*
X021658Y036479D01*
X021561Y036382D02*
X038756Y036382D01*
X038756Y036286D02*
X021464Y036286D01*
X021367Y036189D02*
X038756Y036189D01*
X038756Y036092D02*
X021270Y036092D01*
X021173Y035995D02*
X038756Y035995D01*
X038756Y035898D02*
X021076Y035898D01*
X020979Y035801D02*
X038756Y035801D01*
X038756Y035704D02*
X020882Y035704D01*
X020785Y035607D02*
X038756Y035607D01*
X038756Y035510D02*
X020688Y035510D01*
X020591Y035413D02*
X038756Y035413D01*
X038756Y035316D02*
X020494Y035316D01*
X020397Y035219D02*
X038756Y035219D01*
X038756Y035122D02*
X020300Y035122D01*
X020203Y035025D02*
X038756Y035025D01*
X038756Y034928D02*
X020106Y034928D01*
X020009Y034831D02*
X038756Y034831D01*
X038756Y034734D02*
X019912Y034734D01*
X019815Y034637D02*
X038756Y034637D01*
X038756Y034540D02*
X019718Y034540D01*
X019621Y034443D02*
X038756Y034443D01*
X038756Y034346D02*
X019485Y034346D01*
X019072Y035316D02*
X015579Y035316D01*
X015589Y035413D02*
X019169Y035413D01*
X019266Y035510D02*
X015561Y035510D01*
X015509Y035607D02*
X019363Y035607D01*
X019460Y035704D02*
X015509Y035704D01*
X015509Y035801D02*
X019557Y035801D01*
X019654Y035898D02*
X015509Y035898D01*
X015509Y035995D02*
X019751Y035995D01*
X019847Y036092D02*
X015509Y036092D01*
X015509Y036189D02*
X019944Y036189D01*
X020041Y036286D02*
X015509Y036286D01*
X015509Y036382D02*
X020138Y036382D01*
X020235Y036479D02*
X015509Y036479D01*
X015509Y036576D02*
X020332Y036576D01*
X020429Y036673D02*
X015509Y036673D01*
X015509Y036770D02*
X020526Y036770D01*
X020623Y036867D02*
X015509Y036867D01*
X015509Y036964D02*
X020720Y036964D01*
X020817Y037061D02*
X015509Y037061D01*
X015509Y037158D02*
X020914Y037158D01*
X021011Y037255D02*
X015509Y037255D01*
X015509Y037352D02*
X021108Y037352D01*
X021205Y037449D02*
X015509Y037449D01*
X015509Y037546D02*
X021302Y037546D01*
X021399Y037643D02*
X015509Y037643D01*
X015509Y037740D02*
X021496Y037740D01*
X021593Y037837D02*
X015509Y037837D01*
X015509Y037934D02*
X021690Y037934D01*
X021787Y038031D02*
X015509Y038031D01*
X015509Y038128D02*
X021884Y038128D01*
X021981Y038225D02*
X015509Y038225D01*
X015509Y038322D02*
X022078Y038322D01*
X022175Y038419D02*
X015509Y038419D01*
X015509Y038516D02*
X022272Y038516D01*
X022369Y038613D02*
X015509Y038613D01*
X015509Y038710D02*
X022466Y038710D01*
X022563Y038807D02*
X015509Y038807D01*
X015509Y038904D02*
X022660Y038904D01*
X022702Y039001D02*
X015509Y039001D01*
X015509Y039098D02*
X022702Y039098D01*
X022702Y039195D02*
X015509Y039195D01*
X015509Y039292D02*
X022702Y039292D01*
X022702Y039389D02*
X015509Y039389D01*
X015509Y039485D02*
X022702Y039485D01*
X022702Y039582D02*
X015509Y039582D01*
X015509Y039679D02*
X022702Y039679D01*
X022702Y039776D02*
X015509Y039776D01*
X015509Y039873D02*
X022702Y039873D01*
X022702Y039970D02*
X015509Y039970D01*
X015509Y040067D02*
X022702Y040067D01*
X022702Y040164D02*
X015509Y040164D01*
X015509Y040261D02*
X022702Y040261D01*
X022702Y040358D02*
X015509Y040358D01*
X015509Y040455D02*
X022702Y040455D01*
X022702Y040552D02*
X015509Y040552D01*
X015509Y040649D02*
X022702Y040649D01*
X022698Y040746D02*
X015509Y040746D01*
X015509Y040843D02*
X022682Y040843D01*
X022682Y040940D02*
X015509Y040940D01*
X015509Y041037D02*
X022682Y041037D01*
X022682Y041134D02*
X015509Y041134D01*
X015509Y041231D02*
X022682Y041231D01*
X022682Y041328D02*
X015509Y041328D01*
X015153Y038807D02*
X008935Y038807D01*
X008934Y038710D02*
X015153Y038710D01*
X015153Y038613D02*
X009872Y038613D01*
X009866Y038619D02*
X009708Y038684D01*
X009536Y038684D01*
X009378Y038619D01*
X009257Y038498D01*
X009191Y038339D01*
X009191Y038168D01*
X009257Y038009D01*
X009378Y037888D01*
X009536Y037822D01*
X009708Y037822D01*
X009866Y037888D01*
X009987Y038009D01*
X010053Y038168D01*
X010053Y038339D01*
X009987Y038498D01*
X009866Y038619D01*
X009969Y038516D02*
X015153Y038516D01*
X015153Y038419D02*
X010020Y038419D01*
X010053Y038322D02*
X015153Y038322D01*
X015153Y038225D02*
X010053Y038225D01*
X010037Y038128D02*
X015153Y038128D01*
X015153Y038031D02*
X009996Y038031D01*
X009912Y037934D02*
X015153Y037934D01*
X015153Y037837D02*
X009743Y037837D01*
X009732Y037622D02*
X009671Y037632D01*
X009671Y037212D01*
X009573Y037212D01*
X009573Y037632D01*
X009512Y037622D01*
X009441Y037599D01*
X009375Y037566D01*
X009315Y037522D01*
X009263Y037470D01*
X009219Y037410D01*
X009186Y037344D01*
X009163Y037273D01*
X009153Y037212D01*
X009573Y037212D01*
X009573Y037114D01*
X009153Y037114D01*
X009163Y037052D01*
X009186Y036982D01*
X009219Y036916D01*
X009263Y036856D01*
X009315Y036804D01*
X009375Y036760D01*
X009441Y036726D01*
X009512Y036703D01*
X009573Y036694D01*
X009573Y037113D01*
X009671Y037113D01*
X009671Y036694D01*
X009732Y036703D01*
X009803Y036726D01*
X009869Y036760D01*
X009929Y036804D01*
X009981Y036856D01*
X010025Y036916D01*
X010059Y036982D01*
X010081Y037052D01*
X010091Y037114D01*
X009671Y037114D01*
X009671Y037212D01*
X010091Y037212D01*
X010081Y037273D01*
X010059Y037344D01*
X010025Y037410D01*
X009981Y037470D01*
X009929Y037522D01*
X009869Y037566D01*
X009803Y037599D01*
X009732Y037622D01*
X009671Y037546D02*
X009573Y037546D01*
X009573Y037449D02*
X009671Y037449D01*
X009671Y037352D02*
X009573Y037352D01*
X009573Y037255D02*
X009671Y037255D01*
X009671Y037158D02*
X015153Y037158D01*
X015153Y037061D02*
X010083Y037061D01*
X010050Y036964D02*
X015153Y036964D01*
X015153Y036867D02*
X009990Y036867D01*
X009883Y036770D02*
X015153Y036770D01*
X015153Y036673D02*
X008935Y036673D01*
X008935Y036703D02*
X008869Y036862D01*
X008748Y036983D01*
X008590Y037049D01*
X008418Y037049D01*
X008260Y036983D01*
X008139Y036862D01*
X008073Y036703D01*
X008073Y036532D01*
X008139Y036373D01*
X008260Y036252D01*
X008418Y036186D01*
X008590Y036186D01*
X008748Y036252D01*
X008869Y036373D01*
X008935Y036532D01*
X008935Y036703D01*
X008907Y036770D02*
X009361Y036770D01*
X009254Y036867D02*
X008864Y036867D01*
X008767Y036964D02*
X009194Y036964D01*
X009161Y037061D02*
X007664Y037061D01*
X007664Y036964D02*
X008241Y036964D01*
X008144Y036867D02*
X007664Y036867D01*
X007664Y036770D02*
X008101Y036770D01*
X008073Y036673D02*
X007664Y036673D01*
X007664Y036576D02*
X008073Y036576D01*
X008095Y036479D02*
X007664Y036479D01*
X007664Y036382D02*
X008135Y036382D01*
X008226Y036286D02*
X007664Y036286D01*
X007664Y036189D02*
X008413Y036189D01*
X008595Y036189D02*
X009204Y036189D01*
X009191Y036158D02*
X009191Y035986D01*
X009257Y035828D01*
X009378Y035707D01*
X009536Y035641D01*
X009708Y035641D01*
X009866Y035707D01*
X009987Y035828D01*
X010053Y035986D01*
X010053Y036158D01*
X009987Y036316D01*
X009866Y036438D01*
X009708Y036503D01*
X009536Y036503D01*
X009378Y036438D01*
X009257Y036316D01*
X009191Y036158D01*
X009191Y036092D02*
X007664Y036092D01*
X007664Y035995D02*
X009191Y035995D01*
X009228Y035898D02*
X008735Y035898D01*
X008748Y035892D02*
X008590Y035958D01*
X008418Y035958D01*
X008260Y035892D01*
X008139Y035771D01*
X008073Y035613D01*
X008073Y035441D01*
X008139Y035283D01*
X008260Y035162D01*
X008418Y035096D01*
X008590Y035096D01*
X008748Y035162D01*
X008869Y035283D01*
X008935Y035441D01*
X008935Y035613D01*
X008869Y035771D01*
X008748Y035892D01*
X008840Y035801D02*
X009284Y035801D01*
X009385Y035704D02*
X008897Y035704D01*
X008935Y035607D02*
X015153Y035607D01*
X015153Y035704D02*
X009859Y035704D01*
X009960Y035801D02*
X015153Y035801D01*
X015153Y035898D02*
X010016Y035898D01*
X010053Y035995D02*
X015153Y035995D01*
X015153Y036092D02*
X010053Y036092D01*
X010040Y036189D02*
X015153Y036189D01*
X015153Y036286D02*
X010000Y036286D01*
X009921Y036382D02*
X015153Y036382D01*
X015153Y036479D02*
X009765Y036479D01*
X009479Y036479D02*
X008913Y036479D01*
X008935Y036576D02*
X015153Y036576D01*
X015153Y037255D02*
X010084Y037255D01*
X010054Y037352D02*
X015153Y037352D01*
X015153Y037449D02*
X009996Y037449D01*
X009896Y037546D02*
X015153Y037546D01*
X015153Y037643D02*
X008935Y037643D01*
X008935Y037622D02*
X008869Y037464D01*
X008748Y037343D01*
X008590Y037277D01*
X008418Y037277D01*
X008260Y037343D01*
X008139Y037464D01*
X008073Y037622D01*
X008073Y037794D01*
X008139Y037952D01*
X008260Y038074D01*
X008418Y038139D01*
X008590Y038139D01*
X008748Y038074D01*
X008869Y037952D01*
X008935Y037794D01*
X008935Y037622D01*
X008903Y037546D02*
X009348Y037546D01*
X009248Y037449D02*
X008855Y037449D01*
X008758Y037352D02*
X009190Y037352D01*
X009160Y037255D02*
X007664Y037255D01*
X007664Y037158D02*
X009573Y037158D01*
X009573Y037061D02*
X009671Y037061D01*
X009671Y036964D02*
X009573Y036964D01*
X009573Y036867D02*
X009671Y036867D01*
X009671Y036770D02*
X009573Y036770D01*
X009323Y036382D02*
X008873Y036382D01*
X008781Y036286D02*
X009244Y036286D01*
X008935Y035510D02*
X015101Y035510D01*
X015073Y035413D02*
X008923Y035413D01*
X008883Y035316D02*
X009347Y035316D01*
X009378Y035347D02*
X009257Y035226D01*
X009191Y035067D01*
X009191Y034896D01*
X009257Y034738D01*
X009378Y034616D01*
X009536Y034551D01*
X009708Y034551D01*
X009866Y034616D01*
X009987Y034738D01*
X010053Y034896D01*
X010053Y035067D01*
X009987Y035226D01*
X009866Y035347D01*
X009708Y035413D01*
X009536Y035413D01*
X009378Y035347D01*
X009254Y035219D02*
X008805Y035219D01*
X008652Y035122D02*
X009214Y035122D01*
X009191Y035025D02*
X007723Y035025D01*
X007664Y035122D02*
X008356Y035122D01*
X008202Y035219D02*
X007664Y035219D01*
X007664Y035316D02*
X008125Y035316D01*
X008085Y035413D02*
X007664Y035413D01*
X007664Y035510D02*
X008073Y035510D01*
X008073Y035607D02*
X007664Y035607D01*
X007664Y035704D02*
X008111Y035704D01*
X008168Y035801D02*
X007664Y035801D01*
X007664Y035898D02*
X008272Y035898D01*
X007820Y034928D02*
X009191Y034928D01*
X009218Y034831D02*
X007917Y034831D01*
X008014Y034734D02*
X009260Y034734D01*
X009357Y034637D02*
X008111Y034637D01*
X008208Y034540D02*
X016131Y034540D01*
X016228Y034637D02*
X009887Y034637D01*
X009984Y034734D02*
X016325Y034734D01*
X016422Y034831D02*
X010026Y034831D01*
X010053Y034928D02*
X016519Y034928D01*
X016615Y035025D02*
X010053Y035025D01*
X010031Y035122D02*
X016712Y035122D01*
X016809Y035219D02*
X015523Y035219D01*
X015138Y035219D02*
X009990Y035219D01*
X009898Y035316D02*
X015083Y035316D01*
X015937Y034346D02*
X008402Y034346D01*
X008499Y034249D02*
X015840Y034249D01*
X015743Y034152D02*
X008596Y034152D01*
X008693Y034055D02*
X015646Y034055D01*
X015549Y033958D02*
X008789Y033958D01*
X008886Y033861D02*
X015452Y033861D01*
X016034Y034443D02*
X008305Y034443D01*
X008863Y032892D02*
X005291Y032892D01*
X005291Y032795D02*
X008659Y032795D01*
X008562Y032698D02*
X005291Y032698D01*
X005291Y032601D02*
X008480Y032601D01*
X008440Y032504D02*
X005291Y032504D01*
X005291Y032407D02*
X008400Y032407D01*
X008388Y032310D02*
X005291Y032310D01*
X005291Y032213D02*
X008388Y032213D01*
X008388Y032116D02*
X005291Y032116D01*
X005291Y032019D02*
X008425Y032019D01*
X008465Y031922D02*
X005291Y031922D01*
X005291Y031825D02*
X008527Y031825D01*
X008624Y031728D02*
X005291Y031728D01*
X005291Y031631D02*
X008777Y031631D01*
X011638Y028625D02*
X016539Y028625D01*
X016636Y028722D02*
X011735Y028722D01*
X011832Y028819D02*
X016733Y028819D01*
X016830Y028916D02*
X011929Y028916D01*
X012026Y029013D02*
X016926Y029013D01*
X017023Y029110D02*
X012123Y029110D01*
X012220Y029207D02*
X017120Y029207D01*
X017213Y029300D02*
X016229Y028315D01*
X012535Y028315D01*
X012524Y028326D01*
X012429Y028366D01*
X012327Y028366D01*
X012232Y028326D01*
X012159Y028254D01*
X012120Y028159D01*
X012120Y028056D01*
X012159Y027962D01*
X012232Y027889D01*
X012327Y027850D01*
X012429Y027850D01*
X012524Y027889D01*
X012535Y027900D01*
X016229Y027900D01*
X016401Y027900D01*
X017385Y028884D01*
X019316Y028884D01*
X019316Y028810D01*
X019380Y028747D01*
X019943Y028747D01*
X020007Y028810D01*
X020007Y029373D01*
X019943Y029437D01*
X019380Y029437D01*
X019316Y029373D01*
X019316Y029300D01*
X017385Y029300D01*
X017213Y029300D01*
X017320Y028819D02*
X019316Y028819D01*
X019316Y029304D02*
X012317Y029304D01*
X012414Y029401D02*
X019343Y029401D01*
X019416Y029580D02*
X019479Y029538D01*
X019549Y029509D01*
X019623Y029494D01*
X019632Y029494D01*
X019632Y029850D01*
X019276Y029850D01*
X019276Y029841D01*
X019291Y029767D01*
X019320Y029697D01*
X019362Y029634D01*
X019416Y029580D01*
X019401Y029595D02*
X012608Y029595D01*
X012705Y029692D02*
X019323Y029692D01*
X019286Y029789D02*
X012801Y029789D01*
X012898Y029886D02*
X019632Y029886D01*
X019632Y029909D02*
X019632Y029850D01*
X019691Y029850D01*
X019691Y029909D01*
X019632Y029909D01*
X019632Y030265D01*
X019623Y030265D01*
X019549Y030250D01*
X019479Y030221D01*
X019416Y030179D01*
X019362Y030125D01*
X019320Y030062D01*
X019291Y029992D01*
X019276Y029917D01*
X019276Y029909D01*
X019632Y029909D01*
X019691Y029909D02*
X019691Y030265D01*
X019699Y030265D01*
X019774Y030250D01*
X019844Y030221D01*
X019907Y030179D01*
X019961Y030125D01*
X020003Y030062D01*
X020032Y029992D01*
X020047Y029917D01*
X020047Y029909D01*
X019691Y029909D01*
X019691Y029886D02*
X020103Y029886D01*
X020103Y029948D02*
X020103Y029811D01*
X020156Y029684D01*
X020253Y029587D01*
X020380Y029534D01*
X020518Y029534D01*
X020644Y029587D01*
X020742Y029684D01*
X020794Y029811D01*
X020794Y029948D01*
X020742Y030075D01*
X020644Y030172D01*
X020518Y030225D01*
X020380Y030225D01*
X020253Y030172D01*
X020156Y030075D01*
X020103Y029948D01*
X020118Y029983D02*
X020034Y029983D01*
X019991Y030080D02*
X020160Y030080D01*
X020264Y030176D02*
X019909Y030176D01*
X019849Y030370D02*
X020262Y030370D01*
X020253Y030374D02*
X020380Y030321D01*
X020518Y030321D01*
X020644Y030374D01*
X020742Y030471D01*
X020794Y030598D01*
X020794Y030735D01*
X020742Y030862D01*
X020644Y030960D01*
X020518Y031012D01*
X020380Y031012D01*
X020253Y030960D01*
X020156Y030862D01*
X020103Y030735D01*
X020103Y030598D01*
X020156Y030471D01*
X020253Y030374D01*
X020160Y030467D02*
X019951Y030467D01*
X019993Y030564D02*
X020117Y030564D01*
X020103Y030661D02*
X020007Y030661D01*
X019997Y030758D02*
X020113Y030758D01*
X020153Y030855D02*
X019957Y030855D01*
X019864Y030952D02*
X020246Y030952D01*
X020652Y030952D02*
X038756Y030952D01*
X038756Y030855D02*
X020745Y030855D01*
X020785Y030758D02*
X038756Y030758D01*
X038756Y030661D02*
X020794Y030661D01*
X020780Y030564D02*
X038756Y030564D01*
X038756Y030467D02*
X020738Y030467D01*
X020636Y030370D02*
X038756Y030370D01*
X038756Y030273D02*
X013286Y030273D01*
X013189Y030176D02*
X019413Y030176D01*
X019332Y030080D02*
X013092Y030080D01*
X012995Y029983D02*
X019289Y029983D01*
X019632Y029983D02*
X019691Y029983D01*
X019691Y030080D02*
X019632Y030080D01*
X019632Y030176D02*
X019691Y030176D01*
X019474Y030370D02*
X013383Y030370D01*
X013480Y030467D02*
X019372Y030467D01*
X019330Y030564D02*
X013577Y030564D01*
X013674Y030661D02*
X019316Y030661D01*
X019318Y030758D02*
X013771Y030758D01*
X013868Y030855D02*
X019221Y030855D01*
X019124Y030952D02*
X013965Y030952D01*
X014062Y031049D02*
X019027Y031049D01*
X018930Y031146D02*
X014159Y031146D01*
X014256Y031243D02*
X018833Y031243D01*
X018736Y031340D02*
X014353Y031340D01*
X014450Y031437D02*
X018639Y031437D01*
X018542Y031534D02*
X014547Y031534D01*
X014644Y031631D02*
X018445Y031631D01*
X018348Y031728D02*
X014741Y031728D01*
X014838Y031825D02*
X018251Y031825D01*
X018154Y031922D02*
X014935Y031922D01*
X015032Y032019D02*
X018057Y032019D01*
X017960Y032116D02*
X015129Y032116D01*
X015226Y032213D02*
X017863Y032213D01*
X017766Y032310D02*
X015323Y032310D01*
X015420Y032407D02*
X017670Y032407D01*
X017573Y032504D02*
X015517Y032504D01*
X015614Y032601D02*
X017476Y032601D01*
X017379Y032698D02*
X015711Y032698D01*
X015808Y032795D02*
X017282Y032795D01*
X017185Y032892D02*
X015904Y032892D01*
X016001Y032989D02*
X017088Y032989D01*
X016991Y033086D02*
X016098Y033086D01*
X016195Y033183D02*
X016894Y033183D01*
X016797Y033279D02*
X016292Y033279D01*
X016389Y033376D02*
X016700Y033376D01*
X016603Y033473D02*
X016486Y033473D01*
X016816Y033764D02*
X038756Y033764D01*
X038756Y033667D02*
X016913Y033667D01*
X017010Y033570D02*
X038756Y033570D01*
X038756Y033473D02*
X033970Y033473D01*
X033927Y033492D02*
X033743Y033492D01*
X033573Y033421D01*
X033442Y033291D01*
X033372Y033121D01*
X033372Y032937D01*
X033442Y032767D01*
X033573Y032637D01*
X033743Y032566D01*
X033927Y032566D01*
X034097Y032637D01*
X034227Y032767D01*
X034297Y032937D01*
X034297Y033121D01*
X034227Y033291D01*
X034097Y033421D01*
X033927Y033492D01*
X033699Y033473D02*
X026096Y033473D01*
X026053Y033492D02*
X026223Y033421D01*
X026353Y033291D01*
X026423Y033121D01*
X026423Y032937D01*
X026353Y032767D01*
X026223Y032637D01*
X026053Y032566D01*
X025869Y032566D01*
X025699Y032637D01*
X025568Y032767D01*
X025498Y032937D01*
X025498Y033121D01*
X025568Y033291D01*
X025699Y033421D01*
X025869Y033492D01*
X026053Y033492D01*
X025825Y033473D02*
X017107Y033473D01*
X017204Y033376D02*
X025654Y033376D01*
X025564Y033279D02*
X017301Y033279D01*
X017397Y033183D02*
X025524Y033183D01*
X025498Y033086D02*
X017494Y033086D01*
X017591Y032989D02*
X025498Y032989D01*
X025517Y032892D02*
X017688Y032892D01*
X017785Y032795D02*
X025557Y032795D01*
X025638Y032698D02*
X017882Y032698D01*
X017979Y032601D02*
X025786Y032601D01*
X026135Y032601D02*
X033660Y032601D01*
X033512Y032698D02*
X026284Y032698D01*
X026364Y032795D02*
X033431Y032795D01*
X033391Y032892D02*
X026404Y032892D01*
X026423Y032989D02*
X033372Y032989D01*
X033372Y033086D02*
X026423Y033086D01*
X026398Y033183D02*
X033398Y033183D01*
X033438Y033279D02*
X026358Y033279D01*
X026267Y033376D02*
X033528Y033376D01*
X034141Y033376D02*
X038756Y033376D01*
X038756Y033279D02*
X034232Y033279D01*
X034272Y033183D02*
X038756Y033183D01*
X038756Y033086D02*
X034297Y033086D01*
X034297Y032989D02*
X038756Y032989D01*
X038756Y032892D02*
X034278Y032892D01*
X034238Y032795D02*
X038756Y032795D01*
X038756Y032698D02*
X034158Y032698D01*
X034009Y032601D02*
X038756Y032601D01*
X038756Y032504D02*
X018076Y032504D01*
X018173Y032407D02*
X038756Y032407D01*
X038756Y032310D02*
X018270Y032310D01*
X018367Y032213D02*
X038756Y032213D01*
X038756Y032116D02*
X018464Y032116D01*
X018561Y032019D02*
X038756Y032019D01*
X038756Y031922D02*
X018658Y031922D01*
X018755Y031825D02*
X038756Y031825D01*
X038756Y031728D02*
X018852Y031728D01*
X018949Y031631D02*
X038756Y031631D01*
X038756Y031534D02*
X019046Y031534D01*
X019143Y031437D02*
X038756Y031437D01*
X038756Y031340D02*
X019240Y031340D01*
X019337Y031243D02*
X038756Y031243D01*
X038756Y031146D02*
X019434Y031146D01*
X019531Y031049D02*
X038756Y031049D01*
X038756Y030176D02*
X020634Y030176D01*
X020737Y030080D02*
X038756Y030080D01*
X038756Y029983D02*
X020780Y029983D01*
X020794Y029886D02*
X038756Y029886D01*
X038756Y029789D02*
X020785Y029789D01*
X020745Y029692D02*
X038756Y029692D01*
X038756Y029595D02*
X020653Y029595D01*
X020561Y029463D02*
X020487Y029477D01*
X020478Y029477D01*
X020478Y029122D01*
X020419Y029122D01*
X020419Y029477D01*
X020411Y029477D01*
X020336Y029463D01*
X020266Y029434D01*
X020203Y029391D01*
X020149Y029338D01*
X020107Y029275D01*
X020078Y029204D01*
X020063Y029130D01*
X020063Y029121D01*
X020419Y029121D01*
X020419Y029062D01*
X020478Y029062D01*
X020478Y028707D01*
X020487Y028707D01*
X020561Y028721D01*
X020631Y028750D01*
X020694Y028793D01*
X020748Y028846D01*
X020790Y028909D01*
X020819Y028980D01*
X020834Y029054D01*
X020834Y029062D01*
X020479Y029062D01*
X020479Y029121D01*
X020834Y029121D01*
X020834Y029130D01*
X020819Y029204D01*
X020790Y029275D01*
X020748Y029338D01*
X020694Y029391D01*
X020631Y029434D01*
X020561Y029463D01*
X020478Y029401D02*
X020419Y029401D01*
X020419Y029304D02*
X020478Y029304D01*
X020478Y029207D02*
X020419Y029207D01*
X020419Y029110D02*
X020007Y029110D01*
X020063Y029062D02*
X020063Y029054D01*
X020078Y028980D01*
X020107Y028909D01*
X020149Y028846D01*
X020203Y028793D01*
X020266Y028750D01*
X020336Y028721D01*
X020411Y028707D01*
X020419Y028707D01*
X020419Y029062D01*
X020063Y029062D01*
X020072Y029013D02*
X020007Y029013D01*
X020007Y028916D02*
X020105Y028916D01*
X020177Y028819D02*
X020007Y028819D01*
X020335Y028722D02*
X017223Y028722D01*
X017126Y028625D02*
X038756Y028625D01*
X038756Y028722D02*
X020563Y028722D01*
X020478Y028722D02*
X020419Y028722D01*
X020419Y028819D02*
X020478Y028819D01*
X020478Y028916D02*
X020419Y028916D01*
X020419Y029013D02*
X020478Y029013D01*
X020479Y029110D02*
X038756Y029110D01*
X038756Y029207D02*
X020818Y029207D01*
X020771Y029304D02*
X038756Y029304D01*
X038756Y029401D02*
X020680Y029401D01*
X020826Y029013D02*
X038756Y029013D01*
X038756Y028916D02*
X020793Y028916D01*
X020721Y028819D02*
X038756Y028819D01*
X038756Y028528D02*
X017029Y028528D01*
X016932Y028431D02*
X038756Y028431D01*
X038756Y028334D02*
X016835Y028334D01*
X016738Y028237D02*
X038756Y028237D01*
X038756Y028140D02*
X017026Y028140D01*
X017052Y028130D02*
X016957Y028169D01*
X016854Y028169D01*
X016759Y028130D01*
X016687Y028057D01*
X016648Y027962D01*
X016648Y027905D01*
X015060Y026317D01*
X012565Y026317D01*
X012524Y026358D01*
X012429Y026397D01*
X012327Y026397D01*
X012232Y026358D01*
X012159Y026285D01*
X012120Y026191D01*
X012120Y026088D01*
X012159Y025993D01*
X012232Y025921D01*
X012327Y025881D01*
X012429Y025881D01*
X012524Y025921D01*
X012565Y025961D01*
X015208Y025961D01*
X015312Y026065D01*
X016865Y027619D01*
X016844Y027568D01*
X016844Y027511D01*
X014470Y025136D01*
X012565Y025136D01*
X012524Y025177D01*
X012429Y025216D01*
X012327Y025216D01*
X012232Y025177D01*
X012159Y025104D01*
X012120Y025009D01*
X012120Y024907D01*
X012159Y024812D01*
X012232Y024739D01*
X012327Y024700D01*
X012429Y024700D01*
X012524Y024739D01*
X012565Y024780D01*
X014617Y024780D01*
X014721Y024884D01*
X014721Y024884D01*
X017096Y027259D01*
X017154Y027259D01*
X017248Y027298D01*
X017321Y027371D01*
X017360Y027466D01*
X017360Y027568D01*
X017321Y027663D01*
X017248Y027736D01*
X017154Y027775D01*
X017128Y027775D01*
X017163Y027860D01*
X017163Y027962D01*
X017124Y028057D01*
X017052Y028130D01*
X017130Y028043D02*
X038756Y028043D01*
X038756Y027946D02*
X017163Y027946D01*
X017159Y027849D02*
X038756Y027849D01*
X038756Y027752D02*
X017209Y027752D01*
X017324Y027655D02*
X038756Y027655D01*
X038756Y027558D02*
X017360Y027558D01*
X017358Y027461D02*
X038756Y027461D01*
X038756Y027364D02*
X017314Y027364D01*
X017174Y027267D02*
X038756Y027267D01*
X038756Y027170D02*
X017007Y027170D01*
X016911Y027074D02*
X038756Y027074D01*
X038756Y026977D02*
X016814Y026977D01*
X016717Y026880D02*
X038756Y026880D01*
X038756Y026783D02*
X016620Y026783D01*
X016523Y026686D02*
X038756Y026686D01*
X038756Y026589D02*
X016426Y026589D01*
X016329Y026492D02*
X038756Y026492D01*
X038756Y026395D02*
X016232Y026395D01*
X016135Y026298D02*
X038756Y026298D01*
X038756Y026201D02*
X022973Y026201D01*
X023070Y026104D02*
X038756Y026104D01*
X038756Y026007D02*
X023167Y026007D01*
X023264Y025910D02*
X038756Y025910D01*
X038756Y025813D02*
X023626Y025813D01*
X023706Y025716D02*
X024976Y025716D01*
X024955Y025695D02*
X024915Y025600D01*
X024915Y025497D01*
X024955Y025403D01*
X025015Y025342D01*
X025015Y013255D01*
X024955Y013195D01*
X024950Y013183D01*
X024950Y023306D01*
X024950Y023437D01*
X023954Y024433D01*
X023861Y024526D01*
X023655Y024526D01*
X023694Y024566D01*
X023747Y024693D01*
X023747Y024830D01*
X023694Y024957D01*
X023597Y025054D01*
X023470Y025107D01*
X023333Y025107D01*
X023206Y025054D01*
X023109Y024957D01*
X023061Y024841D01*
X023046Y024827D01*
X022745Y024526D01*
X022670Y024526D01*
X022710Y024566D01*
X022763Y024693D01*
X022763Y024830D01*
X022710Y024957D01*
X022613Y025054D01*
X022486Y025107D01*
X022349Y025107D01*
X022222Y025054D01*
X022124Y024957D01*
X022072Y024830D01*
X022072Y024693D01*
X022124Y024566D01*
X022164Y024526D01*
X019989Y024526D01*
X019897Y024433D01*
X018322Y022858D01*
X018322Y022727D01*
X018322Y008357D01*
X018400Y008279D01*
X018382Y008261D01*
X018382Y007922D01*
X018622Y007683D01*
X018961Y007683D01*
X019109Y007831D01*
X019109Y007570D01*
X019202Y007477D01*
X019400Y007279D01*
X019382Y007261D01*
X019382Y006922D01*
X019622Y006683D01*
X019961Y006683D01*
X020201Y006922D01*
X020201Y007261D01*
X019961Y007501D01*
X019626Y007501D01*
X019426Y007701D01*
X019426Y007879D01*
X019622Y007683D01*
X019961Y007683D01*
X020094Y007816D01*
X020094Y007570D01*
X020186Y007477D01*
X020392Y007271D01*
X020382Y007261D01*
X020382Y006922D01*
X020622Y006683D01*
X020961Y006683D01*
X021201Y006922D01*
X021201Y007261D01*
X020961Y007501D01*
X020622Y007501D01*
X020616Y007495D01*
X020410Y007701D01*
X020410Y007894D01*
X020622Y007683D01*
X020961Y007683D01*
X021078Y007800D01*
X021078Y007570D01*
X021171Y007477D01*
X021384Y007263D01*
X021382Y007261D01*
X021382Y006922D01*
X021622Y006683D01*
X021961Y006683D01*
X022201Y006922D01*
X022201Y007261D01*
X021961Y007501D01*
X021622Y007501D01*
X021608Y007487D01*
X021395Y007701D01*
X021395Y007910D01*
X021622Y007683D01*
X021961Y007683D01*
X022062Y007784D01*
X022062Y007597D01*
X022155Y007504D01*
X022390Y007269D01*
X022382Y007261D01*
X022382Y006922D01*
X022622Y006683D01*
X022961Y006683D01*
X023201Y006922D01*
X023201Y007261D01*
X022961Y007501D01*
X022622Y007501D01*
X022614Y007493D01*
X022379Y007728D01*
X022379Y016625D01*
X023073Y017319D01*
X023533Y017319D01*
X023664Y017319D01*
X024255Y017910D01*
X024347Y018003D01*
X024347Y021743D01*
X024347Y021874D01*
X024151Y022071D01*
X024058Y022164D01*
X023655Y022164D01*
X023694Y022203D01*
X023747Y022330D01*
X023747Y022468D01*
X023711Y022555D01*
X023926Y022339D01*
X024058Y022339D01*
X024081Y022339D01*
X024141Y022279D01*
X024236Y022240D01*
X024339Y022240D01*
X024434Y022279D01*
X024506Y022351D01*
X024545Y022446D01*
X024545Y022549D01*
X024506Y022644D01*
X024434Y022716D01*
X024339Y022755D01*
X024236Y022755D01*
X024141Y022716D01*
X024081Y022656D01*
X024058Y022656D01*
X023855Y022858D01*
X023762Y022951D01*
X023655Y022951D01*
X023694Y022991D01*
X023747Y023118D01*
X023747Y023255D01*
X023694Y023382D01*
X023597Y023479D01*
X023470Y023532D01*
X023333Y023532D01*
X023206Y023479D01*
X023109Y023382D01*
X023056Y023255D01*
X023056Y023118D01*
X023092Y023031D01*
X022871Y023252D01*
X022778Y023345D01*
X022726Y023345D01*
X022710Y023382D01*
X022613Y023479D01*
X022486Y023532D01*
X022349Y023532D01*
X022222Y023479D01*
X022124Y023382D01*
X022072Y023255D01*
X022072Y023118D01*
X022124Y022991D01*
X022222Y022894D01*
X022349Y022841D01*
X022486Y022841D01*
X022613Y022894D01*
X022697Y022978D01*
X023041Y022634D01*
X023148Y022634D01*
X023109Y022595D01*
X023093Y022557D01*
X023041Y022557D01*
X022948Y022465D01*
X022727Y022243D01*
X022763Y022330D01*
X022763Y022468D01*
X022710Y022595D01*
X022613Y022692D01*
X022486Y022744D01*
X022349Y022744D01*
X022222Y022692D01*
X022124Y022595D01*
X022109Y022557D01*
X020318Y022557D01*
X020186Y022557D01*
X018808Y021179D01*
X018716Y021087D01*
X018716Y015913D01*
X018655Y015852D01*
X018639Y015812D01*
X018639Y022727D01*
X020121Y024209D01*
X022164Y024209D01*
X022124Y024170D01*
X022072Y024043D01*
X022072Y023905D01*
X022124Y023778D01*
X022222Y023681D01*
X022349Y023628D01*
X022486Y023628D01*
X022613Y023681D01*
X022710Y023778D01*
X022726Y023815D01*
X022877Y023815D01*
X022969Y023908D01*
X023056Y023995D01*
X023056Y023905D01*
X023109Y023778D01*
X023206Y023681D01*
X023333Y023628D01*
X023470Y023628D01*
X023597Y023681D01*
X023694Y023778D01*
X023747Y023905D01*
X023747Y024043D01*
X023694Y024170D01*
X023655Y024209D01*
X023730Y024209D01*
X024633Y023306D01*
X024633Y008501D01*
X024622Y008501D01*
X024446Y008325D01*
X024446Y011366D01*
X024506Y011426D01*
X024545Y011521D01*
X024545Y011624D01*
X024506Y011718D01*
X024434Y011791D01*
X024339Y011830D01*
X024236Y011830D01*
X024141Y011791D01*
X024069Y011718D01*
X024041Y011652D01*
X024014Y011718D01*
X023941Y011791D01*
X023847Y011830D01*
X023744Y011830D01*
X023649Y011791D01*
X023577Y011718D01*
X023537Y011624D01*
X023537Y011521D01*
X023577Y011426D01*
X023633Y011370D01*
X023633Y008501D01*
X023622Y008501D01*
X023382Y008261D01*
X023382Y007922D01*
X023622Y007683D01*
X023961Y007683D01*
X024129Y007851D01*
X024129Y007654D01*
X023969Y007493D01*
X023961Y007501D01*
X023622Y007501D01*
X023382Y007261D01*
X023382Y006922D01*
X023622Y006683D01*
X023961Y006683D01*
X024201Y006922D01*
X024201Y007261D01*
X024193Y007269D01*
X024353Y007430D01*
X024446Y007522D01*
X024446Y007859D01*
X024622Y007683D01*
X024961Y007683D01*
X025201Y007922D01*
X025201Y008261D01*
X024961Y008501D01*
X024950Y008501D01*
X024950Y012914D01*
X024955Y012903D01*
X025027Y012830D01*
X025122Y012791D01*
X025225Y012791D01*
X025319Y012830D01*
X025392Y012903D01*
X025431Y012997D01*
X025431Y013100D01*
X025392Y013195D01*
X025332Y013255D01*
X025332Y025342D01*
X025392Y025403D01*
X025431Y025497D01*
X025431Y025600D01*
X025392Y025695D01*
X025319Y025767D01*
X025225Y025807D01*
X025122Y025807D01*
X025027Y025767D01*
X024955Y025695D01*
X024923Y025619D02*
X023746Y025619D01*
X023747Y025522D02*
X024915Y025522D01*
X024945Y025425D02*
X023724Y025425D01*
X023669Y025328D02*
X025015Y025328D01*
X025015Y025231D02*
X023538Y025231D01*
X023614Y025037D02*
X025015Y025037D01*
X025015Y024940D02*
X023701Y024940D01*
X023741Y024843D02*
X025015Y024843D01*
X025015Y024746D02*
X023747Y024746D01*
X023729Y024649D02*
X025015Y024649D01*
X025015Y024552D02*
X023681Y024552D01*
X023795Y024368D02*
X023205Y024368D01*
X022811Y023974D01*
X022417Y023974D01*
X022072Y023971D02*
X019882Y023971D01*
X019979Y024067D02*
X022082Y024067D01*
X022122Y024164D02*
X020076Y024164D01*
X020055Y024368D02*
X022811Y024368D01*
X023205Y024761D01*
X023402Y024761D01*
X023189Y025037D02*
X022630Y025037D01*
X022717Y024940D02*
X023102Y024940D01*
X023062Y024843D02*
X022757Y024843D01*
X022763Y024746D02*
X022966Y024746D01*
X022869Y024649D02*
X022745Y024649D01*
X022772Y024552D02*
X022697Y024552D01*
X023032Y023971D02*
X023056Y023971D01*
X023069Y023874D02*
X022935Y023874D01*
X023110Y023777D02*
X022709Y023777D01*
X022610Y023680D02*
X023209Y023680D01*
X023221Y023486D02*
X022598Y023486D01*
X022704Y023389D02*
X023115Y023389D01*
X023071Y023292D02*
X022831Y023292D01*
X022928Y023195D02*
X023056Y023195D01*
X023064Y023098D02*
X023025Y023098D01*
X023106Y022793D02*
X022713Y023186D01*
X022417Y023186D01*
X022072Y023195D02*
X019106Y023195D01*
X019009Y023098D02*
X022080Y023098D01*
X022120Y023001D02*
X018912Y023001D01*
X018815Y022904D02*
X022211Y022904D01*
X022265Y022710D02*
X018639Y022710D01*
X018639Y022613D02*
X022143Y022613D01*
X022417Y022399D02*
X020252Y022399D01*
X018874Y021021D01*
X018874Y015706D01*
X018644Y015825D02*
X018639Y015825D01*
X018639Y015922D02*
X018716Y015922D01*
X018716Y016019D02*
X018639Y016019D01*
X018639Y016116D02*
X018716Y016116D01*
X018716Y016213D02*
X018639Y016213D01*
X018639Y016310D02*
X018716Y016310D01*
X018716Y016407D02*
X018639Y016407D01*
X018639Y016504D02*
X018716Y016504D01*
X018716Y016601D02*
X018639Y016601D01*
X018639Y016698D02*
X018716Y016698D01*
X018716Y016795D02*
X018639Y016795D01*
X018639Y016892D02*
X018716Y016892D01*
X018716Y016989D02*
X018639Y016989D01*
X018639Y017086D02*
X018716Y017086D01*
X018716Y017183D02*
X018639Y017183D01*
X018639Y017280D02*
X018716Y017280D01*
X018716Y017377D02*
X018639Y017377D01*
X018639Y017474D02*
X018716Y017474D01*
X018716Y017571D02*
X018639Y017571D01*
X018639Y017668D02*
X018716Y017668D01*
X018716Y017765D02*
X018639Y017765D01*
X018639Y017861D02*
X018716Y017861D01*
X018716Y017958D02*
X018639Y017958D01*
X018639Y018055D02*
X018716Y018055D01*
X018716Y018152D02*
X018639Y018152D01*
X018639Y018249D02*
X018716Y018249D01*
X018716Y018346D02*
X018639Y018346D01*
X018639Y018443D02*
X018716Y018443D01*
X018716Y018540D02*
X018639Y018540D01*
X018639Y018637D02*
X018716Y018637D01*
X018716Y018734D02*
X018639Y018734D01*
X018639Y018831D02*
X018716Y018831D01*
X018716Y018928D02*
X018639Y018928D01*
X018639Y019025D02*
X018716Y019025D01*
X018716Y019122D02*
X018639Y019122D01*
X018639Y019219D02*
X018716Y019219D01*
X018716Y019316D02*
X018639Y019316D01*
X018639Y019413D02*
X018716Y019413D01*
X018716Y019510D02*
X018639Y019510D01*
X018639Y019607D02*
X018716Y019607D01*
X018716Y019704D02*
X018639Y019704D01*
X018639Y019801D02*
X018716Y019801D01*
X018716Y019898D02*
X018639Y019898D01*
X018639Y019995D02*
X018716Y019995D01*
X018716Y020092D02*
X018639Y020092D01*
X018639Y020189D02*
X018716Y020189D01*
X018716Y020286D02*
X018639Y020286D01*
X018639Y020383D02*
X018716Y020383D01*
X018716Y020480D02*
X018639Y020480D01*
X018639Y020577D02*
X018716Y020577D01*
X018716Y020674D02*
X018639Y020674D01*
X018639Y020771D02*
X018716Y020771D01*
X018716Y020868D02*
X018639Y020868D01*
X018639Y020964D02*
X018716Y020964D01*
X018716Y021061D02*
X018639Y021061D01*
X018639Y021158D02*
X018787Y021158D01*
X018884Y021255D02*
X018639Y021255D01*
X018639Y021352D02*
X018981Y021352D01*
X019078Y021449D02*
X018639Y021449D01*
X018639Y021546D02*
X019175Y021546D01*
X019272Y021643D02*
X018639Y021643D01*
X018639Y021740D02*
X019369Y021740D01*
X019466Y021837D02*
X018639Y021837D01*
X018639Y021934D02*
X019563Y021934D01*
X019660Y022031D02*
X018639Y022031D01*
X018639Y022128D02*
X019757Y022128D01*
X019854Y022225D02*
X018639Y022225D01*
X018639Y022322D02*
X019951Y022322D01*
X020048Y022419D02*
X018639Y022419D01*
X018639Y022516D02*
X020145Y022516D01*
X020646Y022005D02*
X022713Y022005D01*
X023106Y022399D01*
X023402Y022399D01*
X023727Y022516D02*
X023750Y022516D01*
X023747Y022419D02*
X023847Y022419D01*
X023744Y022322D02*
X024098Y022322D01*
X024093Y022128D02*
X024633Y022128D01*
X024633Y022031D02*
X024190Y022031D01*
X024287Y021934D02*
X024633Y021934D01*
X024633Y021837D02*
X024347Y021837D01*
X024347Y021740D02*
X024633Y021740D01*
X024633Y021643D02*
X024347Y021643D01*
X024347Y021546D02*
X024633Y021546D01*
X024633Y021449D02*
X024347Y021449D01*
X024347Y021352D02*
X024633Y021352D01*
X024633Y021255D02*
X024347Y021255D01*
X024347Y021158D02*
X024633Y021158D01*
X024633Y021061D02*
X024347Y021061D01*
X024347Y020964D02*
X024633Y020964D01*
X024633Y020868D02*
X024347Y020868D01*
X024347Y020771D02*
X024633Y020771D01*
X024633Y020674D02*
X024347Y020674D01*
X024347Y020577D02*
X024633Y020577D01*
X024633Y020480D02*
X024347Y020480D01*
X024347Y020383D02*
X024633Y020383D01*
X024633Y020286D02*
X024347Y020286D01*
X024347Y020189D02*
X024633Y020189D01*
X024633Y020092D02*
X024347Y020092D01*
X024347Y019995D02*
X024633Y019995D01*
X024633Y019898D02*
X024347Y019898D01*
X024347Y019801D02*
X024633Y019801D01*
X024633Y019704D02*
X024347Y019704D01*
X024347Y019607D02*
X024633Y019607D01*
X024633Y019510D02*
X024347Y019510D01*
X024347Y019413D02*
X024633Y019413D01*
X024633Y019316D02*
X024347Y019316D01*
X024347Y019219D02*
X024633Y019219D01*
X024633Y019122D02*
X024347Y019122D01*
X024347Y019025D02*
X024633Y019025D01*
X024633Y018928D02*
X024347Y018928D01*
X024347Y018831D02*
X024633Y018831D01*
X024633Y018734D02*
X024347Y018734D01*
X024347Y018637D02*
X024633Y018637D01*
X024633Y018540D02*
X024347Y018540D01*
X024347Y018443D02*
X024633Y018443D01*
X024633Y018346D02*
X024347Y018346D01*
X024347Y018249D02*
X024633Y018249D01*
X024633Y018152D02*
X024347Y018152D01*
X024347Y018055D02*
X024633Y018055D01*
X024633Y017958D02*
X024303Y017958D01*
X024206Y017861D02*
X024633Y017861D01*
X024633Y017765D02*
X024109Y017765D01*
X024012Y017668D02*
X024633Y017668D01*
X024633Y017571D02*
X023915Y017571D01*
X023818Y017474D02*
X024633Y017474D01*
X024633Y017377D02*
X023721Y017377D01*
X023598Y017478D02*
X024189Y018068D01*
X024189Y021809D01*
X023992Y022005D01*
X023205Y022005D01*
X022811Y021612D01*
X022417Y021612D01*
X022111Y021060D02*
X022076Y021007D01*
X022047Y020937D01*
X022032Y020862D01*
X022032Y020854D01*
X022388Y020854D01*
X022388Y020795D01*
X022388Y020794D02*
X022447Y020794D01*
X022447Y020439D01*
X022455Y020439D01*
X022530Y020454D01*
X022600Y020483D01*
X022663Y020525D01*
X022717Y020579D01*
X022759Y020642D01*
X022788Y020712D01*
X022803Y020786D01*
X022803Y020795D01*
X022447Y020795D01*
X022447Y020854D01*
X022803Y020854D01*
X022803Y020862D01*
X022788Y020937D01*
X022759Y021007D01*
X022724Y021060D01*
X022942Y021060D01*
X023073Y021060D01*
X023296Y021282D01*
X023333Y021266D01*
X023470Y021266D01*
X023597Y021319D01*
X023694Y021416D01*
X023747Y021543D01*
X023747Y021680D01*
X023694Y021807D01*
X023655Y021847D01*
X023926Y021847D01*
X024031Y021743D01*
X024031Y019632D01*
X023954Y019709D01*
X023861Y019802D01*
X023655Y019802D01*
X023694Y019841D01*
X023747Y019968D01*
X023747Y020106D01*
X023694Y020233D01*
X023597Y020330D01*
X023470Y020382D01*
X023333Y020382D01*
X023206Y020330D01*
X023109Y020233D01*
X023056Y020106D01*
X023056Y019968D01*
X023109Y019841D01*
X023148Y019802D01*
X023139Y019802D01*
X022745Y019408D01*
X022726Y019408D01*
X022710Y019445D01*
X022613Y019542D01*
X022486Y019595D01*
X022349Y019595D01*
X022222Y019542D01*
X022124Y019445D01*
X022072Y019318D01*
X022072Y019181D01*
X022124Y019054D01*
X022164Y019014D01*
X021171Y019014D01*
X021078Y018921D01*
X020094Y017937D01*
X020094Y017806D01*
X020094Y008368D01*
X020017Y008445D01*
X020017Y019184D01*
X021892Y021060D01*
X022111Y021060D01*
X022058Y020964D02*
X021797Y020964D01*
X021700Y020868D02*
X022033Y020868D01*
X022032Y020795D02*
X022032Y020786D01*
X022047Y020712D01*
X022076Y020642D01*
X022118Y020579D01*
X022172Y020525D01*
X022235Y020483D01*
X022305Y020454D01*
X022379Y020439D01*
X022388Y020439D01*
X022388Y020794D01*
X022388Y020795D02*
X022032Y020795D01*
X022035Y020771D02*
X021603Y020771D01*
X021506Y020674D02*
X022063Y020674D01*
X022120Y020577D02*
X021409Y020577D01*
X021312Y020480D02*
X022242Y020480D01*
X022305Y020407D02*
X022235Y020378D01*
X022172Y020336D01*
X022118Y020283D01*
X022076Y020219D01*
X022047Y020149D01*
X022032Y020075D01*
X022032Y020066D01*
X022388Y020066D01*
X022388Y020007D01*
X022447Y020007D01*
X022447Y019651D01*
X022455Y019651D01*
X022530Y019666D01*
X022600Y019695D01*
X022663Y019737D01*
X022717Y019791D01*
X022759Y019854D01*
X022788Y019924D01*
X022803Y019999D01*
X022803Y020007D01*
X022447Y020007D01*
X022447Y020066D01*
X022803Y020066D01*
X022803Y020075D01*
X022788Y020149D01*
X022759Y020219D01*
X022717Y020283D01*
X022663Y020336D01*
X022600Y020378D01*
X022530Y020407D01*
X022455Y020422D01*
X022447Y020422D01*
X022447Y020067D01*
X022388Y020067D01*
X022388Y020422D01*
X022379Y020422D01*
X022305Y020407D01*
X022245Y020383D02*
X021216Y020383D01*
X021119Y020286D02*
X022121Y020286D01*
X022063Y020189D02*
X021022Y020189D01*
X020925Y020092D02*
X022035Y020092D01*
X022032Y020007D02*
X022032Y019999D01*
X022047Y019924D01*
X022076Y019854D01*
X022118Y019791D01*
X022172Y019737D01*
X022235Y019695D01*
X022305Y019666D01*
X022379Y019651D01*
X022388Y019651D01*
X022388Y020007D01*
X022032Y020007D01*
X022033Y019995D02*
X020828Y019995D01*
X020731Y019898D02*
X022058Y019898D01*
X022111Y019801D02*
X020634Y019801D01*
X020537Y019704D02*
X022222Y019704D01*
X022388Y019704D02*
X022447Y019704D01*
X022447Y019801D02*
X022388Y019801D01*
X022388Y019898D02*
X022447Y019898D01*
X022447Y019995D02*
X022388Y019995D01*
X022388Y020092D02*
X022447Y020092D01*
X022447Y020189D02*
X022388Y020189D01*
X022388Y020286D02*
X022447Y020286D01*
X022447Y020383D02*
X022388Y020383D01*
X022388Y020480D02*
X022447Y020480D01*
X022447Y020577D02*
X022388Y020577D01*
X022388Y020674D02*
X022447Y020674D01*
X022447Y020771D02*
X022388Y020771D01*
X022593Y020480D02*
X023331Y020480D01*
X023333Y020479D02*
X023470Y020479D01*
X023597Y020531D01*
X023694Y020629D01*
X023747Y020756D01*
X023747Y020893D01*
X023694Y021020D01*
X023597Y021117D01*
X023470Y021170D01*
X023333Y021170D01*
X023206Y021117D01*
X023109Y021020D01*
X023056Y020893D01*
X023056Y020756D01*
X023109Y020629D01*
X023206Y020531D01*
X023333Y020479D01*
X023472Y020480D02*
X024031Y020480D01*
X024031Y020577D02*
X023642Y020577D01*
X023713Y020674D02*
X024031Y020674D01*
X024031Y020771D02*
X023747Y020771D01*
X023747Y020868D02*
X024031Y020868D01*
X024031Y020964D02*
X023717Y020964D01*
X023653Y021061D02*
X024031Y021061D01*
X024031Y021158D02*
X023497Y021158D01*
X023306Y021158D02*
X023172Y021158D01*
X023150Y021061D02*
X023075Y021061D01*
X023086Y020964D02*
X022776Y020964D01*
X022802Y020868D02*
X023056Y020868D01*
X023056Y020771D02*
X022800Y020771D01*
X022772Y020674D02*
X023090Y020674D01*
X023161Y020577D02*
X022715Y020577D01*
X022590Y020383D02*
X024031Y020383D01*
X024031Y020286D02*
X023641Y020286D01*
X023713Y020189D02*
X024031Y020189D01*
X024031Y020092D02*
X023747Y020092D01*
X023747Y019995D02*
X024031Y019995D01*
X024031Y019898D02*
X023718Y019898D01*
X023862Y019801D02*
X024031Y019801D01*
X024031Y019704D02*
X023959Y019704D01*
X023795Y019643D02*
X023205Y019643D01*
X022811Y019249D01*
X022417Y019249D01*
X022096Y019122D02*
X020017Y019122D01*
X020017Y019025D02*
X022153Y019025D01*
X022072Y019219D02*
X020052Y019219D01*
X020149Y019316D02*
X022072Y019316D01*
X022111Y019413D02*
X020246Y019413D01*
X020343Y019510D02*
X022189Y019510D01*
X022645Y019510D02*
X022848Y019510D01*
X022944Y019607D02*
X020440Y019607D01*
X019858Y019249D02*
X021827Y021218D01*
X023008Y021218D01*
X023402Y021612D01*
X023722Y021740D02*
X024031Y021740D01*
X024031Y021643D02*
X023747Y021643D01*
X023747Y021546D02*
X024031Y021546D01*
X024031Y021449D02*
X023708Y021449D01*
X023631Y021352D02*
X024031Y021352D01*
X024031Y021255D02*
X023269Y021255D01*
X023664Y021837D02*
X023936Y021837D01*
X023703Y022225D02*
X024633Y022225D01*
X024633Y022322D02*
X024477Y022322D01*
X024534Y022419D02*
X024633Y022419D01*
X024633Y022516D02*
X024545Y022516D01*
X024519Y022613D02*
X024633Y022613D01*
X024633Y022710D02*
X024440Y022710D01*
X024633Y022807D02*
X023907Y022807D01*
X023855Y022858D02*
X023855Y022858D01*
X023810Y022904D02*
X024633Y022904D01*
X024633Y023001D02*
X023699Y023001D01*
X023739Y023098D02*
X024633Y023098D01*
X024633Y023195D02*
X023747Y023195D01*
X023732Y023292D02*
X024633Y023292D01*
X024550Y023389D02*
X023688Y023389D01*
X023582Y023486D02*
X024453Y023486D01*
X024356Y023583D02*
X019494Y023583D01*
X019591Y023680D02*
X022225Y023680D01*
X022126Y023777D02*
X019688Y023777D01*
X019785Y023874D02*
X022085Y023874D01*
X022237Y023486D02*
X019397Y023486D01*
X019300Y023389D02*
X022131Y023389D01*
X022087Y023292D02*
X019203Y023292D01*
X018949Y023486D02*
X018245Y023486D01*
X018245Y023583D02*
X019046Y023583D01*
X019143Y023680D02*
X018245Y023680D01*
X018245Y023777D02*
X019240Y023777D01*
X019337Y023874D02*
X018245Y023874D01*
X018245Y023971D02*
X019434Y023971D01*
X019531Y024067D02*
X018245Y024067D01*
X018245Y024164D02*
X019628Y024164D01*
X019725Y024261D02*
X018245Y024261D01*
X018245Y024358D02*
X019822Y024358D01*
X019919Y024455D02*
X018245Y024455D01*
X018245Y024552D02*
X022138Y024552D01*
X022090Y024649D02*
X018245Y024649D01*
X018296Y024746D02*
X022072Y024746D01*
X022077Y024843D02*
X018393Y024843D01*
X018490Y024940D02*
X022118Y024940D01*
X022205Y025037D02*
X018587Y025037D01*
X018684Y025134D02*
X025015Y025134D01*
X025332Y025134D02*
X038756Y025134D01*
X038756Y025037D02*
X025332Y025037D01*
X025332Y024940D02*
X025972Y024940D01*
X025939Y024907D02*
X025900Y024813D01*
X025900Y024710D01*
X025939Y024615D01*
X026011Y024543D01*
X026106Y024503D01*
X026191Y024503D01*
X026983Y023711D01*
X026983Y021896D01*
X026415Y022464D01*
X026415Y022549D01*
X026376Y022644D01*
X026304Y022716D01*
X026209Y022755D01*
X026106Y022755D01*
X026011Y022716D01*
X025939Y022644D01*
X025900Y022549D01*
X025900Y022446D01*
X025939Y022351D01*
X026011Y022279D01*
X026106Y022240D01*
X026191Y022240D01*
X026688Y021743D01*
X026688Y013705D01*
X025507Y012524D01*
X025507Y012392D01*
X025507Y007996D01*
X024986Y007476D01*
X024961Y007501D01*
X024622Y007501D01*
X024382Y007261D01*
X024382Y006922D01*
X024622Y006683D01*
X024961Y006683D01*
X025201Y006922D01*
X025201Y007242D01*
X025731Y007772D01*
X025824Y007865D01*
X025824Y012392D01*
X026912Y013481D01*
X027005Y013574D01*
X027005Y014204D01*
X027090Y014169D01*
X027193Y014169D01*
X027288Y014208D01*
X027360Y014280D01*
X027400Y014375D01*
X027400Y014478D01*
X027360Y014573D01*
X027300Y014633D01*
X027300Y023711D01*
X027300Y023843D01*
X026415Y024727D01*
X026415Y024813D01*
X026376Y024907D01*
X026304Y024980D01*
X026209Y025019D01*
X026106Y025019D01*
X026011Y024980D01*
X025939Y024907D01*
X025912Y024843D02*
X025332Y024843D01*
X025332Y024746D02*
X025900Y024746D01*
X025925Y024649D02*
X025332Y024649D01*
X025332Y024552D02*
X026002Y024552D01*
X026239Y024455D02*
X025332Y024455D01*
X025332Y024358D02*
X026336Y024358D01*
X026433Y024261D02*
X025332Y024261D01*
X025332Y024164D02*
X026530Y024164D01*
X026627Y024067D02*
X025332Y024067D01*
X025332Y023971D02*
X026724Y023971D01*
X026821Y023874D02*
X025332Y023874D01*
X025332Y023777D02*
X026918Y023777D01*
X026983Y023680D02*
X025332Y023680D01*
X025332Y023583D02*
X026983Y023583D01*
X026983Y023486D02*
X025332Y023486D01*
X025332Y023389D02*
X026983Y023389D01*
X026983Y023292D02*
X025332Y023292D01*
X025332Y023195D02*
X026983Y023195D01*
X026983Y023098D02*
X025332Y023098D01*
X025332Y023001D02*
X026983Y023001D01*
X026983Y022904D02*
X025332Y022904D01*
X025332Y022807D02*
X026983Y022807D01*
X026983Y022710D02*
X026310Y022710D01*
X026389Y022613D02*
X026983Y022613D01*
X026983Y022516D02*
X026415Y022516D01*
X026460Y022419D02*
X026983Y022419D01*
X026983Y022322D02*
X026557Y022322D01*
X026654Y022225D02*
X026983Y022225D01*
X026983Y022128D02*
X026751Y022128D01*
X026848Y022031D02*
X026983Y022031D01*
X026983Y021934D02*
X026945Y021934D01*
X026846Y021809D02*
X026157Y022497D01*
X025968Y022322D02*
X025332Y022322D01*
X025332Y022225D02*
X026206Y022225D01*
X026303Y022128D02*
X025332Y022128D01*
X025332Y022031D02*
X026400Y022031D01*
X026497Y021934D02*
X025332Y021934D01*
X025332Y021837D02*
X026594Y021837D01*
X026688Y021740D02*
X025332Y021740D01*
X025332Y021643D02*
X026688Y021643D01*
X026688Y021546D02*
X025332Y021546D01*
X025332Y021449D02*
X026688Y021449D01*
X026688Y021352D02*
X025332Y021352D01*
X025332Y021255D02*
X026688Y021255D01*
X026688Y021158D02*
X025332Y021158D01*
X025332Y021061D02*
X026688Y021061D01*
X026688Y020964D02*
X025332Y020964D01*
X025332Y020868D02*
X026688Y020868D01*
X026688Y020771D02*
X025332Y020771D01*
X025332Y020674D02*
X026688Y020674D01*
X026688Y020577D02*
X025332Y020577D01*
X025332Y020480D02*
X026688Y020480D01*
X026688Y020383D02*
X025332Y020383D01*
X025332Y020286D02*
X026688Y020286D01*
X026688Y020189D02*
X025332Y020189D01*
X025332Y020092D02*
X026688Y020092D01*
X026688Y019995D02*
X025332Y019995D01*
X025332Y019898D02*
X026688Y019898D01*
X026688Y019801D02*
X025332Y019801D01*
X025332Y019704D02*
X026688Y019704D01*
X026688Y019607D02*
X025332Y019607D01*
X025332Y019510D02*
X026688Y019510D01*
X026688Y019413D02*
X025332Y019413D01*
X025332Y019316D02*
X026688Y019316D01*
X026688Y019219D02*
X025332Y019219D01*
X025332Y019122D02*
X026688Y019122D01*
X026688Y019025D02*
X025332Y019025D01*
X025332Y018928D02*
X026688Y018928D01*
X026688Y018831D02*
X025332Y018831D01*
X025332Y018734D02*
X026688Y018734D01*
X026688Y018637D02*
X025332Y018637D01*
X025332Y018540D02*
X026688Y018540D01*
X026688Y018443D02*
X025332Y018443D01*
X025332Y018346D02*
X026688Y018346D01*
X026688Y018249D02*
X025332Y018249D01*
X025332Y018152D02*
X026688Y018152D01*
X026688Y018055D02*
X025332Y018055D01*
X025332Y017958D02*
X026688Y017958D01*
X026688Y017861D02*
X025332Y017861D01*
X025332Y017765D02*
X026688Y017765D01*
X026688Y017668D02*
X026228Y017668D01*
X026223Y017673D02*
X026053Y017744D01*
X025869Y017744D01*
X025699Y017673D01*
X025568Y017543D01*
X025498Y017373D01*
X025498Y017189D01*
X025568Y017019D01*
X025699Y016889D01*
X025869Y016818D01*
X026053Y016818D01*
X026223Y016889D01*
X026353Y017019D01*
X026423Y017189D01*
X026423Y017373D01*
X026353Y017543D01*
X026223Y017673D01*
X026325Y017571D02*
X026688Y017571D01*
X026688Y017474D02*
X026381Y017474D01*
X026422Y017377D02*
X026688Y017377D01*
X026688Y017280D02*
X026423Y017280D01*
X026421Y017183D02*
X026688Y017183D01*
X026688Y017086D02*
X026380Y017086D01*
X026323Y016989D02*
X026688Y016989D01*
X026688Y016892D02*
X026226Y016892D01*
X026688Y016795D02*
X025332Y016795D01*
X025332Y016892D02*
X025696Y016892D01*
X025599Y016989D02*
X025332Y016989D01*
X025332Y017086D02*
X025541Y017086D01*
X025501Y017183D02*
X025332Y017183D01*
X025332Y017280D02*
X025498Y017280D01*
X025500Y017377D02*
X025332Y017377D01*
X025332Y017474D02*
X025540Y017474D01*
X025596Y017571D02*
X025332Y017571D01*
X025332Y017668D02*
X025693Y017668D01*
X025015Y017668D02*
X024950Y017668D01*
X024950Y017765D02*
X025015Y017765D01*
X025015Y017861D02*
X024950Y017861D01*
X024950Y017958D02*
X025015Y017958D01*
X025015Y018055D02*
X024950Y018055D01*
X024950Y018152D02*
X025015Y018152D01*
X025015Y018249D02*
X024950Y018249D01*
X024950Y018346D02*
X025015Y018346D01*
X025015Y018443D02*
X024950Y018443D01*
X024950Y018540D02*
X025015Y018540D01*
X025015Y018637D02*
X024950Y018637D01*
X024950Y018734D02*
X025015Y018734D01*
X025015Y018831D02*
X024950Y018831D01*
X024950Y018928D02*
X025015Y018928D01*
X025015Y019025D02*
X024950Y019025D01*
X024950Y019122D02*
X025015Y019122D01*
X025015Y019219D02*
X024950Y019219D01*
X024950Y019316D02*
X025015Y019316D01*
X025015Y019413D02*
X024950Y019413D01*
X024950Y019510D02*
X025015Y019510D01*
X025015Y019607D02*
X024950Y019607D01*
X024950Y019704D02*
X025015Y019704D01*
X025015Y019801D02*
X024950Y019801D01*
X024950Y019898D02*
X025015Y019898D01*
X025015Y019995D02*
X024950Y019995D01*
X024950Y020092D02*
X025015Y020092D01*
X025015Y020189D02*
X024950Y020189D01*
X024950Y020286D02*
X025015Y020286D01*
X025015Y020383D02*
X024950Y020383D01*
X024950Y020480D02*
X025015Y020480D01*
X025015Y020577D02*
X024950Y020577D01*
X024950Y020674D02*
X025015Y020674D01*
X025015Y020771D02*
X024950Y020771D01*
X024950Y020868D02*
X025015Y020868D01*
X025015Y020964D02*
X024950Y020964D01*
X024950Y021061D02*
X025015Y021061D01*
X025015Y021158D02*
X024950Y021158D01*
X024950Y021255D02*
X025015Y021255D01*
X025015Y021352D02*
X024950Y021352D01*
X024950Y021449D02*
X025015Y021449D01*
X025015Y021546D02*
X024950Y021546D01*
X024950Y021643D02*
X025015Y021643D01*
X025015Y021740D02*
X024950Y021740D01*
X024950Y021837D02*
X025015Y021837D01*
X025015Y021934D02*
X024950Y021934D01*
X024950Y022031D02*
X025015Y022031D01*
X025015Y022128D02*
X024950Y022128D01*
X024950Y022225D02*
X025015Y022225D01*
X025015Y022322D02*
X024950Y022322D01*
X024950Y022419D02*
X025015Y022419D01*
X025015Y022516D02*
X024950Y022516D01*
X024950Y022613D02*
X025015Y022613D01*
X025015Y022710D02*
X024950Y022710D01*
X024950Y022807D02*
X025015Y022807D01*
X025015Y022904D02*
X024950Y022904D01*
X024950Y023001D02*
X025015Y023001D01*
X025015Y023098D02*
X024950Y023098D01*
X024950Y023195D02*
X025015Y023195D01*
X025015Y023292D02*
X024950Y023292D01*
X024950Y023389D02*
X025015Y023389D01*
X025015Y023486D02*
X024901Y023486D01*
X024804Y023583D02*
X025015Y023583D01*
X025015Y023680D02*
X024707Y023680D01*
X024610Y023777D02*
X025015Y023777D01*
X025015Y023874D02*
X024513Y023874D01*
X024416Y023971D02*
X025015Y023971D01*
X025015Y024067D02*
X024319Y024067D01*
X024222Y024164D02*
X025015Y024164D01*
X025015Y024261D02*
X024125Y024261D01*
X024028Y024358D02*
X025015Y024358D01*
X025015Y024455D02*
X023931Y024455D01*
X023795Y024368D02*
X024791Y023371D01*
X024791Y008092D01*
X024479Y008359D02*
X024446Y008359D01*
X024446Y008456D02*
X024576Y008456D01*
X024633Y008553D02*
X024446Y008553D01*
X024446Y008649D02*
X024633Y008649D01*
X024633Y008746D02*
X024446Y008746D01*
X024446Y008843D02*
X024633Y008843D01*
X024633Y008940D02*
X024446Y008940D01*
X024446Y009037D02*
X024633Y009037D01*
X024633Y009134D02*
X024446Y009134D01*
X024446Y009231D02*
X024633Y009231D01*
X024633Y009328D02*
X024446Y009328D01*
X024446Y009425D02*
X024633Y009425D01*
X024633Y009522D02*
X024446Y009522D01*
X024446Y009619D02*
X024633Y009619D01*
X024633Y009716D02*
X024446Y009716D01*
X024446Y009813D02*
X024633Y009813D01*
X024633Y009910D02*
X024446Y009910D01*
X024446Y010007D02*
X024633Y010007D01*
X024633Y010104D02*
X024446Y010104D01*
X024446Y010201D02*
X024633Y010201D01*
X024633Y010298D02*
X024446Y010298D01*
X024446Y010395D02*
X024633Y010395D01*
X024633Y010492D02*
X024446Y010492D01*
X024446Y010589D02*
X024633Y010589D01*
X024633Y010686D02*
X024446Y010686D01*
X024446Y010783D02*
X024633Y010783D01*
X024633Y010880D02*
X024446Y010880D01*
X024446Y010977D02*
X024633Y010977D01*
X024633Y011074D02*
X024446Y011074D01*
X024446Y011171D02*
X024633Y011171D01*
X024633Y011268D02*
X024446Y011268D01*
X024446Y011365D02*
X024633Y011365D01*
X024633Y011462D02*
X024521Y011462D01*
X024545Y011559D02*
X024633Y011559D01*
X024633Y011656D02*
X024532Y011656D01*
X024472Y011752D02*
X024633Y011752D01*
X024633Y011849D02*
X022379Y011849D01*
X022379Y011752D02*
X022626Y011752D01*
X022592Y011718D02*
X022553Y011624D01*
X022553Y011521D01*
X022592Y011426D01*
X022633Y011386D01*
X022633Y008501D01*
X022622Y008501D01*
X022382Y008261D01*
X022382Y007922D01*
X022622Y007683D01*
X022961Y007683D01*
X023201Y007922D01*
X023201Y008261D01*
X022961Y008501D01*
X022950Y008501D01*
X022950Y011351D01*
X022957Y011354D01*
X023030Y011426D01*
X023069Y011521D01*
X023069Y011624D01*
X023030Y011718D01*
X022957Y011791D01*
X022862Y011830D01*
X022760Y011830D01*
X022665Y011791D01*
X022592Y011718D01*
X022566Y011656D02*
X022379Y011656D01*
X022379Y011559D02*
X022553Y011559D01*
X022578Y011462D02*
X022379Y011462D01*
X022379Y011365D02*
X022633Y011365D01*
X022633Y011268D02*
X022379Y011268D01*
X022379Y011171D02*
X022633Y011171D01*
X022633Y011074D02*
X022379Y011074D01*
X022379Y010977D02*
X022633Y010977D01*
X022633Y010880D02*
X022379Y010880D01*
X022379Y010783D02*
X022633Y010783D01*
X022633Y010686D02*
X022379Y010686D01*
X022379Y010589D02*
X022633Y010589D01*
X022633Y010492D02*
X022379Y010492D01*
X022379Y010395D02*
X022633Y010395D01*
X022633Y010298D02*
X022379Y010298D01*
X022379Y010201D02*
X022633Y010201D01*
X022633Y010104D02*
X022379Y010104D01*
X022379Y010007D02*
X022633Y010007D01*
X022633Y009910D02*
X022379Y009910D01*
X022379Y009813D02*
X022633Y009813D01*
X022633Y009716D02*
X022379Y009716D01*
X022379Y009619D02*
X022633Y009619D01*
X022633Y009522D02*
X022379Y009522D01*
X022379Y009425D02*
X022633Y009425D01*
X022633Y009328D02*
X022379Y009328D01*
X022379Y009231D02*
X022633Y009231D01*
X022633Y009134D02*
X022379Y009134D01*
X022379Y009037D02*
X022633Y009037D01*
X022633Y008940D02*
X022379Y008940D01*
X022379Y008843D02*
X022633Y008843D01*
X022633Y008746D02*
X022379Y008746D01*
X022379Y008649D02*
X022633Y008649D01*
X022633Y008553D02*
X022379Y008553D01*
X022379Y008456D02*
X022576Y008456D01*
X022479Y008359D02*
X022379Y008359D01*
X022379Y008262D02*
X022382Y008262D01*
X022379Y008165D02*
X022382Y008165D01*
X022379Y008068D02*
X022382Y008068D01*
X022379Y007971D02*
X022382Y007971D01*
X022379Y007874D02*
X022431Y007874D01*
X022379Y007777D02*
X022528Y007777D01*
X022427Y007680D02*
X024129Y007680D01*
X024129Y007777D02*
X024055Y007777D01*
X024058Y007583D02*
X022524Y007583D01*
X022220Y007663D02*
X022220Y016690D01*
X023008Y017478D01*
X023598Y017478D01*
X023402Y017675D02*
X023992Y018265D01*
X023992Y019446D01*
X023795Y019643D01*
X023402Y019249D02*
X023008Y018856D01*
X021236Y018856D01*
X020252Y017871D01*
X020252Y007635D01*
X020791Y007096D01*
X020791Y007092D01*
X020382Y007098D02*
X020201Y007098D01*
X020201Y007001D02*
X020382Y007001D01*
X020401Y006904D02*
X020182Y006904D01*
X020085Y006807D02*
X020498Y006807D01*
X020594Y006710D02*
X019988Y006710D01*
X019594Y006710D02*
X018988Y006710D01*
X019085Y006807D02*
X019498Y006807D01*
X019401Y006904D02*
X019182Y006904D01*
X019201Y007001D02*
X019382Y007001D01*
X019382Y007098D02*
X019201Y007098D01*
X019201Y007195D02*
X019382Y007195D01*
X019387Y007292D02*
X019170Y007292D01*
X019073Y007389D02*
X019290Y007389D01*
X019193Y007486D02*
X018976Y007486D01*
X019109Y007583D02*
X018524Y007583D01*
X018427Y007680D02*
X019109Y007680D01*
X019109Y007777D02*
X019055Y007777D01*
X019268Y007635D02*
X019268Y020627D01*
X020646Y022005D01*
X022569Y022710D02*
X022965Y022710D01*
X022868Y022807D02*
X018718Y022807D01*
X018480Y022793D02*
X020055Y024368D01*
X019071Y025522D02*
X022072Y025522D01*
X022072Y025480D02*
X022124Y025353D01*
X022222Y025256D01*
X022349Y025203D01*
X022486Y025203D01*
X022613Y025256D01*
X022710Y025353D01*
X022763Y025480D01*
X022763Y025617D01*
X022710Y025744D01*
X022613Y025841D01*
X022486Y025894D01*
X022349Y025894D01*
X022222Y025841D01*
X022124Y025744D01*
X022072Y025617D01*
X022072Y025480D01*
X022095Y025425D02*
X018974Y025425D01*
X018877Y025328D02*
X022149Y025328D01*
X022281Y025231D02*
X018780Y025231D01*
X018526Y025425D02*
X015262Y025425D01*
X015165Y025328D02*
X018429Y025328D01*
X018332Y025231D02*
X015068Y025231D01*
X014971Y025134D02*
X018235Y025134D01*
X018139Y025037D02*
X014874Y025037D01*
X014777Y024940D02*
X018042Y024940D01*
X017945Y024843D02*
X014680Y024843D01*
X014564Y025231D02*
X008244Y025231D01*
X008341Y025328D02*
X014661Y025328D01*
X014758Y025425D02*
X008438Y025425D01*
X008535Y025522D02*
X014855Y025522D01*
X014952Y025619D02*
X008632Y025619D01*
X008729Y025716D02*
X015049Y025716D01*
X015146Y025813D02*
X008826Y025813D01*
X008923Y025910D02*
X012257Y025910D01*
X012154Y026007D02*
X009020Y026007D01*
X009117Y026104D02*
X012120Y026104D01*
X012124Y026201D02*
X009214Y026201D01*
X009311Y026298D02*
X012172Y026298D01*
X012321Y026395D02*
X009408Y026395D01*
X009505Y026492D02*
X015234Y026492D01*
X015138Y026395D02*
X012435Y026395D01*
X012498Y025910D02*
X015243Y025910D01*
X015253Y026007D02*
X015340Y026007D01*
X015350Y026104D02*
X015437Y026104D01*
X015447Y026201D02*
X015534Y026201D01*
X015544Y026298D02*
X015631Y026298D01*
X015641Y026395D02*
X015728Y026395D01*
X015738Y026492D02*
X015825Y026492D01*
X015835Y026589D02*
X015922Y026589D01*
X015932Y026686D02*
X016019Y026686D01*
X016029Y026783D02*
X016116Y026783D01*
X016126Y026880D02*
X016213Y026880D01*
X016223Y026977D02*
X016310Y026977D01*
X016320Y027074D02*
X016407Y027074D01*
X016417Y027170D02*
X016504Y027170D01*
X016514Y027267D02*
X016601Y027267D01*
X016611Y027364D02*
X016698Y027364D01*
X016708Y027461D02*
X016795Y027461D01*
X016805Y027558D02*
X016844Y027558D01*
X016592Y027849D02*
X010862Y027849D01*
X010765Y027752D02*
X016495Y027752D01*
X016398Y027655D02*
X010668Y027655D01*
X010571Y027558D02*
X016301Y027558D01*
X016204Y027461D02*
X010474Y027461D01*
X010377Y027364D02*
X016107Y027364D01*
X016010Y027267D02*
X010280Y027267D01*
X010183Y027170D02*
X015913Y027170D01*
X015816Y027074D02*
X010086Y027074D01*
X009989Y026977D02*
X015719Y026977D01*
X015622Y026880D02*
X009892Y026880D01*
X009795Y026783D02*
X015525Y026783D01*
X015428Y026686D02*
X009699Y026686D01*
X009602Y026589D02*
X015331Y026589D01*
X015844Y026007D02*
X019108Y026007D01*
X019011Y025910D02*
X015747Y025910D01*
X015650Y025813D02*
X018914Y025813D01*
X018817Y025716D02*
X015553Y025716D01*
X015456Y025619D02*
X018720Y025619D01*
X018623Y025522D02*
X015359Y025522D01*
X015941Y026104D02*
X019205Y026104D01*
X019302Y026201D02*
X016038Y026201D01*
X016447Y027946D02*
X016648Y027946D01*
X016681Y028043D02*
X016544Y028043D01*
X016641Y028140D02*
X016785Y028140D01*
X016442Y028528D02*
X011541Y028528D01*
X011444Y028431D02*
X016345Y028431D01*
X016248Y028334D02*
X012505Y028334D01*
X012250Y028334D02*
X011347Y028334D01*
X011250Y028237D02*
X012152Y028237D01*
X012120Y028140D02*
X011153Y028140D01*
X011056Y028043D02*
X012125Y028043D01*
X012175Y027946D02*
X010959Y027946D01*
X012511Y029498D02*
X019604Y029498D01*
X019632Y029498D02*
X019691Y029498D01*
X019691Y029494D02*
X019699Y029494D01*
X019774Y029509D01*
X019844Y029538D01*
X019907Y029580D01*
X019961Y029634D01*
X020003Y029697D01*
X020032Y029767D01*
X020047Y029841D01*
X020047Y029850D01*
X019691Y029850D01*
X019691Y029494D01*
X019718Y029498D02*
X038756Y029498D01*
X038756Y025716D02*
X025371Y025716D01*
X025423Y025619D02*
X038756Y025619D01*
X038756Y025522D02*
X025431Y025522D01*
X025401Y025425D02*
X038756Y025425D01*
X038756Y025328D02*
X025332Y025328D01*
X025332Y025231D02*
X038756Y025231D01*
X038756Y024940D02*
X026343Y024940D01*
X026403Y024843D02*
X038756Y024843D01*
X038756Y024746D02*
X026415Y024746D01*
X026493Y024649D02*
X038756Y024649D01*
X038756Y024552D02*
X026590Y024552D01*
X026687Y024455D02*
X038756Y024455D01*
X038756Y024358D02*
X026784Y024358D01*
X026881Y024261D02*
X038756Y024261D01*
X038756Y024164D02*
X026978Y024164D01*
X027075Y024067D02*
X038756Y024067D01*
X038756Y023971D02*
X027172Y023971D01*
X027269Y023874D02*
X038756Y023874D01*
X038756Y023777D02*
X027300Y023777D01*
X027300Y023680D02*
X038756Y023680D01*
X038756Y023583D02*
X027300Y023583D01*
X027300Y023486D02*
X038756Y023486D01*
X038756Y023389D02*
X027300Y023389D01*
X027300Y023292D02*
X038756Y023292D01*
X038756Y023195D02*
X027300Y023195D01*
X027300Y023098D02*
X038756Y023098D01*
X038756Y023001D02*
X027300Y023001D01*
X027300Y022904D02*
X038756Y022904D01*
X038756Y022807D02*
X027300Y022807D01*
X027300Y022710D02*
X038756Y022710D01*
X038756Y022613D02*
X027300Y022613D01*
X027300Y022516D02*
X038756Y022516D01*
X038756Y022419D02*
X027300Y022419D01*
X027300Y022322D02*
X038756Y022322D01*
X038756Y022225D02*
X027300Y022225D01*
X027300Y022128D02*
X038756Y022128D01*
X038756Y022031D02*
X027300Y022031D01*
X027300Y021934D02*
X038756Y021934D01*
X038756Y021837D02*
X027300Y021837D01*
X027300Y021740D02*
X038756Y021740D01*
X038756Y021643D02*
X027300Y021643D01*
X027300Y021546D02*
X038756Y021546D01*
X038756Y021449D02*
X027300Y021449D01*
X027300Y021352D02*
X038756Y021352D01*
X038756Y021255D02*
X027300Y021255D01*
X027300Y021158D02*
X038756Y021158D01*
X038756Y021061D02*
X027300Y021061D01*
X027300Y020964D02*
X038756Y020964D01*
X038756Y020868D02*
X027300Y020868D01*
X027300Y020771D02*
X038756Y020771D01*
X038756Y020674D02*
X027300Y020674D01*
X027300Y020577D02*
X038756Y020577D01*
X038756Y020480D02*
X027300Y020480D01*
X027300Y020383D02*
X038756Y020383D01*
X038756Y020286D02*
X027300Y020286D01*
X027300Y020189D02*
X038756Y020189D01*
X038756Y020092D02*
X027300Y020092D01*
X027300Y019995D02*
X038756Y019995D01*
X038756Y019898D02*
X027300Y019898D01*
X027300Y019801D02*
X038756Y019801D01*
X038756Y019704D02*
X027300Y019704D01*
X027300Y019607D02*
X038756Y019607D01*
X038756Y019510D02*
X027300Y019510D01*
X027300Y019413D02*
X038756Y019413D01*
X038756Y019316D02*
X027300Y019316D01*
X027300Y019219D02*
X038756Y019219D01*
X038756Y019122D02*
X027300Y019122D01*
X027300Y019025D02*
X038756Y019025D01*
X038756Y018928D02*
X027300Y018928D01*
X027300Y018831D02*
X038756Y018831D01*
X038756Y018734D02*
X027300Y018734D01*
X027300Y018637D02*
X038756Y018637D01*
X038756Y018540D02*
X027300Y018540D01*
X027300Y018443D02*
X038756Y018443D01*
X038756Y018346D02*
X027300Y018346D01*
X027300Y018249D02*
X038756Y018249D01*
X038756Y018152D02*
X027300Y018152D01*
X027300Y018055D02*
X038756Y018055D01*
X038756Y017958D02*
X027300Y017958D01*
X027300Y017861D02*
X038756Y017861D01*
X038756Y017765D02*
X027300Y017765D01*
X027300Y017668D02*
X033567Y017668D01*
X033573Y017673D02*
X033442Y017543D01*
X033372Y017373D01*
X033372Y017189D01*
X033442Y017019D01*
X033573Y016889D01*
X033743Y016818D01*
X033927Y016818D01*
X034097Y016889D01*
X034227Y017019D01*
X034297Y017189D01*
X034297Y017373D01*
X034227Y017543D01*
X034097Y017673D01*
X033927Y017744D01*
X033743Y017744D01*
X033573Y017673D01*
X033470Y017571D02*
X027300Y017571D01*
X027300Y017474D02*
X033414Y017474D01*
X033374Y017377D02*
X027300Y017377D01*
X027300Y017280D02*
X033372Y017280D01*
X033375Y017183D02*
X027300Y017183D01*
X027300Y017086D02*
X033415Y017086D01*
X033473Y016989D02*
X027300Y016989D01*
X027300Y016892D02*
X033570Y016892D01*
X034100Y016892D02*
X038756Y016892D01*
X038756Y016989D02*
X034197Y016989D01*
X034254Y017086D02*
X038756Y017086D01*
X038756Y017183D02*
X034295Y017183D01*
X034297Y017280D02*
X038756Y017280D01*
X038756Y017377D02*
X034296Y017377D01*
X034256Y017474D02*
X038756Y017474D01*
X038756Y017571D02*
X034199Y017571D01*
X034102Y017668D02*
X038756Y017668D01*
X038756Y016795D02*
X027300Y016795D01*
X027300Y016698D02*
X038756Y016698D01*
X038756Y016601D02*
X027300Y016601D01*
X027300Y016504D02*
X038756Y016504D01*
X038756Y016407D02*
X027300Y016407D01*
X027300Y016310D02*
X038756Y016310D01*
X038756Y016213D02*
X027300Y016213D01*
X027300Y016116D02*
X038756Y016116D01*
X038756Y016019D02*
X027300Y016019D01*
X027300Y015922D02*
X038756Y015922D01*
X038756Y015825D02*
X027300Y015825D01*
X027300Y015728D02*
X038756Y015728D01*
X038756Y015631D02*
X027300Y015631D01*
X027300Y015534D02*
X038756Y015534D01*
X038756Y015437D02*
X027300Y015437D01*
X027300Y015340D02*
X038756Y015340D01*
X038756Y015243D02*
X027300Y015243D01*
X027300Y015146D02*
X038756Y015146D01*
X038756Y015049D02*
X027300Y015049D01*
X027300Y014952D02*
X038756Y014952D01*
X038756Y014855D02*
X027300Y014855D01*
X027300Y014759D02*
X038756Y014759D01*
X038756Y014662D02*
X027300Y014662D01*
X027364Y014565D02*
X038756Y014565D01*
X038756Y014468D02*
X027400Y014468D01*
X027398Y014371D02*
X038756Y014371D01*
X038756Y014274D02*
X027354Y014274D01*
X027212Y014177D02*
X036730Y014177D01*
X036709Y014170D02*
X036646Y014138D01*
X036588Y014096D01*
X036538Y014046D01*
X036497Y013989D01*
X036465Y013926D01*
X036443Y013859D01*
X036434Y013803D01*
X037132Y013803D01*
X037132Y014203D01*
X036846Y014203D01*
X036776Y014191D01*
X036709Y014170D01*
X036572Y014080D02*
X027005Y014080D01*
X027005Y014177D02*
X027071Y014177D01*
X027005Y013983D02*
X036494Y013983D01*
X036452Y013886D02*
X027005Y013886D01*
X027005Y013789D02*
X037132Y013789D01*
X037132Y013803D02*
X037132Y013704D01*
X037230Y013704D01*
X037230Y013304D01*
X037516Y013304D01*
X037586Y013315D01*
X037654Y013337D01*
X037717Y013369D01*
X037774Y013411D01*
X037824Y013461D01*
X037865Y013518D01*
X037897Y013581D01*
X037919Y013648D01*
X037928Y013704D01*
X037230Y013704D01*
X037230Y013803D01*
X037132Y013803D01*
X037132Y013886D02*
X037230Y013886D01*
X037230Y013803D02*
X037230Y014203D01*
X037516Y014203D01*
X037586Y014191D01*
X037654Y014170D01*
X037717Y014138D01*
X037774Y014096D01*
X037824Y014046D01*
X037865Y013989D01*
X037897Y013926D01*
X037919Y013859D01*
X037928Y013803D01*
X037230Y013803D01*
X037230Y013789D02*
X038756Y013789D01*
X038756Y013886D02*
X037910Y013886D01*
X037868Y013983D02*
X038756Y013983D01*
X038756Y014080D02*
X037790Y014080D01*
X037632Y014177D02*
X038756Y014177D01*
X038756Y013692D02*
X037926Y013692D01*
X037902Y013595D02*
X038756Y013595D01*
X038756Y013498D02*
X037851Y013498D01*
X037760Y013401D02*
X038756Y013401D01*
X038756Y013304D02*
X026735Y013304D01*
X026638Y013207D02*
X038756Y013207D01*
X038756Y013110D02*
X037689Y013110D01*
X037713Y013100D02*
X037562Y013163D01*
X036800Y013163D01*
X036649Y013100D01*
X036534Y012985D01*
X036472Y012835D01*
X036472Y012672D01*
X036534Y012522D01*
X036649Y012406D01*
X036800Y012344D01*
X037562Y012344D01*
X037713Y012406D01*
X037828Y012522D01*
X037890Y012672D01*
X037890Y012835D01*
X037828Y012985D01*
X037713Y013100D01*
X037800Y013013D02*
X038756Y013013D01*
X038756Y012916D02*
X037857Y012916D01*
X037890Y012819D02*
X038756Y012819D01*
X038756Y012722D02*
X037890Y012722D01*
X037871Y012625D02*
X038756Y012625D01*
X038756Y012528D02*
X037831Y012528D01*
X037738Y012431D02*
X038756Y012431D01*
X038756Y012334D02*
X025824Y012334D01*
X025824Y012237D02*
X038756Y012237D01*
X038756Y012140D02*
X037616Y012140D01*
X037562Y012163D02*
X037713Y012100D01*
X037828Y011985D01*
X037890Y011835D01*
X037890Y011672D01*
X037828Y011522D01*
X037713Y011406D01*
X037562Y011344D01*
X036800Y011344D01*
X036649Y011406D01*
X036534Y011522D01*
X036472Y011672D01*
X036472Y011835D01*
X036534Y011985D01*
X036649Y012100D01*
X036800Y012163D01*
X037562Y012163D01*
X037770Y012043D02*
X038756Y012043D01*
X038756Y011946D02*
X037844Y011946D01*
X037884Y011849D02*
X038756Y011849D01*
X038756Y011752D02*
X037890Y011752D01*
X037883Y011656D02*
X038756Y011656D01*
X038756Y011559D02*
X037843Y011559D01*
X037768Y011462D02*
X038756Y011462D01*
X038756Y011365D02*
X037612Y011365D01*
X036750Y011365D02*
X025824Y011365D01*
X025824Y011462D02*
X036594Y011462D01*
X036519Y011559D02*
X025824Y011559D01*
X025824Y011656D02*
X036479Y011656D01*
X036472Y011752D02*
X025824Y011752D01*
X025824Y011849D02*
X036478Y011849D01*
X036518Y011946D02*
X025824Y011946D01*
X025824Y012043D02*
X036592Y012043D01*
X036746Y012140D02*
X025824Y012140D01*
X025863Y012431D02*
X036624Y012431D01*
X036531Y012528D02*
X025959Y012528D01*
X026056Y012625D02*
X036491Y012625D01*
X036472Y012722D02*
X026153Y012722D01*
X026250Y012819D02*
X036472Y012819D01*
X036506Y012916D02*
X026347Y012916D01*
X026444Y013013D02*
X036562Y013013D01*
X036673Y013110D02*
X026541Y013110D01*
X026287Y013304D02*
X025332Y013304D01*
X025332Y013401D02*
X026384Y013401D01*
X026481Y013498D02*
X025332Y013498D01*
X025332Y013595D02*
X026578Y013595D01*
X026675Y013692D02*
X025332Y013692D01*
X025332Y013789D02*
X026688Y013789D01*
X026688Y013886D02*
X025332Y013886D01*
X025332Y013983D02*
X026688Y013983D01*
X026688Y014080D02*
X025332Y014080D01*
X025332Y014177D02*
X026688Y014177D01*
X026688Y014274D02*
X025332Y014274D01*
X025332Y014371D02*
X026688Y014371D01*
X026688Y014468D02*
X025332Y014468D01*
X025332Y014565D02*
X026688Y014565D01*
X026688Y014662D02*
X025332Y014662D01*
X025332Y014759D02*
X026688Y014759D01*
X026688Y014855D02*
X025332Y014855D01*
X025332Y014952D02*
X026688Y014952D01*
X026688Y015049D02*
X025332Y015049D01*
X025332Y015146D02*
X026688Y015146D01*
X026688Y015243D02*
X025332Y015243D01*
X025332Y015340D02*
X026688Y015340D01*
X026688Y015437D02*
X025332Y015437D01*
X025332Y015534D02*
X026688Y015534D01*
X026688Y015631D02*
X025332Y015631D01*
X025332Y015728D02*
X026688Y015728D01*
X026688Y015825D02*
X025332Y015825D01*
X025332Y015922D02*
X026688Y015922D01*
X026688Y016019D02*
X025332Y016019D01*
X025332Y016116D02*
X026688Y016116D01*
X026688Y016213D02*
X025332Y016213D01*
X025332Y016310D02*
X026688Y016310D01*
X026688Y016407D02*
X025332Y016407D01*
X025332Y016504D02*
X026688Y016504D01*
X026688Y016601D02*
X025332Y016601D01*
X025332Y016698D02*
X026688Y016698D01*
X025015Y016698D02*
X024950Y016698D01*
X024950Y016795D02*
X025015Y016795D01*
X025015Y016892D02*
X024950Y016892D01*
X024950Y016989D02*
X025015Y016989D01*
X025015Y017086D02*
X024950Y017086D01*
X024950Y017183D02*
X025015Y017183D01*
X025015Y017280D02*
X024950Y017280D01*
X024950Y017377D02*
X025015Y017377D01*
X025015Y017474D02*
X024950Y017474D01*
X024950Y017571D02*
X025015Y017571D01*
X024633Y017280D02*
X023034Y017280D01*
X022937Y017183D02*
X024633Y017183D01*
X024633Y017086D02*
X022840Y017086D01*
X022743Y016989D02*
X024633Y016989D01*
X024633Y016892D02*
X022646Y016892D01*
X022549Y016795D02*
X024633Y016795D01*
X024633Y016698D02*
X022452Y016698D01*
X022379Y016601D02*
X024633Y016601D01*
X024633Y016504D02*
X022379Y016504D01*
X022379Y016407D02*
X024633Y016407D01*
X024633Y016310D02*
X022379Y016310D01*
X022379Y016213D02*
X024633Y016213D01*
X024633Y016116D02*
X022379Y016116D01*
X022379Y016019D02*
X024633Y016019D01*
X024633Y015922D02*
X022379Y015922D01*
X022379Y015825D02*
X024633Y015825D01*
X024633Y015728D02*
X022379Y015728D01*
X022379Y015631D02*
X024633Y015631D01*
X024633Y015534D02*
X022379Y015534D01*
X022379Y015437D02*
X024633Y015437D01*
X024633Y015340D02*
X022379Y015340D01*
X022379Y015243D02*
X024633Y015243D01*
X024633Y015146D02*
X022379Y015146D01*
X022379Y015049D02*
X024633Y015049D01*
X024633Y014952D02*
X022379Y014952D01*
X022379Y014855D02*
X024633Y014855D01*
X024633Y014759D02*
X022379Y014759D01*
X022379Y014662D02*
X024633Y014662D01*
X024633Y014565D02*
X022379Y014565D01*
X022379Y014468D02*
X024633Y014468D01*
X024633Y014371D02*
X022379Y014371D01*
X022379Y014274D02*
X024633Y014274D01*
X024633Y014177D02*
X022379Y014177D01*
X022379Y014080D02*
X024633Y014080D01*
X024633Y013983D02*
X022379Y013983D01*
X022379Y013886D02*
X024633Y013886D01*
X024633Y013789D02*
X022379Y013789D01*
X022379Y013692D02*
X024633Y013692D01*
X024633Y013595D02*
X022379Y013595D01*
X022379Y013498D02*
X024633Y013498D01*
X024633Y013401D02*
X022379Y013401D01*
X022379Y013304D02*
X024633Y013304D01*
X024633Y013207D02*
X022379Y013207D01*
X022379Y013110D02*
X024633Y013110D01*
X024633Y013013D02*
X022379Y013013D01*
X022379Y012916D02*
X024633Y012916D01*
X024633Y012819D02*
X022379Y012819D01*
X022379Y012722D02*
X024633Y012722D01*
X024633Y012625D02*
X022379Y012625D01*
X022379Y012528D02*
X024633Y012528D01*
X024633Y012431D02*
X022379Y012431D01*
X022379Y012334D02*
X024633Y012334D01*
X024633Y012237D02*
X022379Y012237D01*
X022379Y012140D02*
X024633Y012140D01*
X024633Y012043D02*
X022379Y012043D01*
X022379Y011946D02*
X024633Y011946D01*
X024950Y011946D02*
X025507Y011946D01*
X025507Y011849D02*
X024950Y011849D01*
X024950Y011752D02*
X025507Y011752D01*
X025507Y011656D02*
X024950Y011656D01*
X024950Y011559D02*
X025507Y011559D01*
X025507Y011462D02*
X024950Y011462D01*
X024950Y011365D02*
X025507Y011365D01*
X025507Y011268D02*
X024950Y011268D01*
X024950Y011171D02*
X025507Y011171D01*
X025507Y011074D02*
X024950Y011074D01*
X024950Y010977D02*
X025507Y010977D01*
X025507Y010880D02*
X024950Y010880D01*
X024950Y010783D02*
X025507Y010783D01*
X025507Y010686D02*
X024950Y010686D01*
X024950Y010589D02*
X025507Y010589D01*
X025507Y010492D02*
X024950Y010492D01*
X024950Y010395D02*
X025507Y010395D01*
X025507Y010298D02*
X024950Y010298D01*
X024950Y010201D02*
X025507Y010201D01*
X025507Y010104D02*
X024950Y010104D01*
X024950Y010007D02*
X025507Y010007D01*
X025507Y009910D02*
X024950Y009910D01*
X024950Y009813D02*
X025507Y009813D01*
X025507Y009716D02*
X024950Y009716D01*
X024950Y009619D02*
X025507Y009619D01*
X025507Y009522D02*
X024950Y009522D01*
X024950Y009425D02*
X025507Y009425D01*
X025507Y009328D02*
X024950Y009328D01*
X024950Y009231D02*
X025507Y009231D01*
X025507Y009134D02*
X024950Y009134D01*
X024950Y009037D02*
X025507Y009037D01*
X025507Y008940D02*
X024950Y008940D01*
X024950Y008843D02*
X025507Y008843D01*
X025507Y008746D02*
X024950Y008746D01*
X024950Y008649D02*
X025507Y008649D01*
X025507Y008553D02*
X024950Y008553D01*
X025006Y008456D02*
X025507Y008456D01*
X025507Y008359D02*
X025103Y008359D01*
X025200Y008262D02*
X025507Y008262D01*
X025507Y008165D02*
X025201Y008165D01*
X025201Y008068D02*
X025507Y008068D01*
X025481Y007971D02*
X025201Y007971D01*
X025152Y007874D02*
X025385Y007874D01*
X025288Y007777D02*
X025055Y007777D01*
X025191Y007680D02*
X024446Y007680D01*
X024446Y007777D02*
X024528Y007777D01*
X024446Y007583D02*
X025094Y007583D01*
X024997Y007486D02*
X024976Y007486D01*
X025251Y007292D02*
X038756Y007292D01*
X038756Y007389D02*
X025348Y007389D01*
X025445Y007486D02*
X038756Y007486D01*
X038756Y007583D02*
X025542Y007583D01*
X025639Y007680D02*
X038756Y007680D01*
X038756Y007777D02*
X025736Y007777D01*
X025824Y007874D02*
X038756Y007874D01*
X038756Y007971D02*
X025824Y007971D01*
X025824Y008068D02*
X038756Y008068D01*
X038756Y008165D02*
X025824Y008165D01*
X025824Y008262D02*
X038756Y008262D01*
X038756Y008359D02*
X025824Y008359D01*
X025824Y008456D02*
X038756Y008456D01*
X038756Y008553D02*
X025824Y008553D01*
X025824Y008649D02*
X038756Y008649D01*
X038756Y008746D02*
X025824Y008746D01*
X025824Y008843D02*
X038756Y008843D01*
X038756Y008940D02*
X025824Y008940D01*
X025824Y009037D02*
X038756Y009037D01*
X038756Y009134D02*
X025824Y009134D01*
X025824Y009231D02*
X038756Y009231D01*
X038756Y009328D02*
X025824Y009328D01*
X025824Y009425D02*
X038756Y009425D01*
X038756Y009522D02*
X025824Y009522D01*
X025824Y009619D02*
X038756Y009619D01*
X038756Y009716D02*
X025824Y009716D01*
X025824Y009813D02*
X038756Y009813D01*
X038756Y009910D02*
X025824Y009910D01*
X025824Y010007D02*
X038756Y010007D01*
X038756Y010104D02*
X025824Y010104D01*
X025824Y010201D02*
X038756Y010201D01*
X038756Y010298D02*
X025824Y010298D01*
X025824Y010395D02*
X038756Y010395D01*
X038756Y010492D02*
X025824Y010492D01*
X025824Y010589D02*
X038756Y010589D01*
X038756Y010686D02*
X025824Y010686D01*
X025824Y010783D02*
X038756Y010783D01*
X038756Y010880D02*
X025824Y010880D01*
X025824Y010977D02*
X038756Y010977D01*
X038756Y011074D02*
X025824Y011074D01*
X025824Y011171D02*
X038756Y011171D01*
X038756Y011268D02*
X025824Y011268D01*
X025507Y012043D02*
X024950Y012043D01*
X024950Y012140D02*
X025507Y012140D01*
X025507Y012237D02*
X024950Y012237D01*
X024950Y012334D02*
X025507Y012334D01*
X025507Y012431D02*
X024950Y012431D01*
X024950Y012528D02*
X025511Y012528D01*
X025608Y012625D02*
X024950Y012625D01*
X024950Y012722D02*
X025705Y012722D01*
X025802Y012819D02*
X025293Y012819D01*
X025397Y012916D02*
X025899Y012916D01*
X025996Y013013D02*
X025431Y013013D01*
X025427Y013110D02*
X026093Y013110D01*
X026190Y013207D02*
X025380Y013207D01*
X025173Y013049D02*
X025173Y025549D01*
X026157Y024761D02*
X027142Y023777D01*
X027142Y014427D01*
X027005Y013692D02*
X036436Y013692D01*
X036434Y013704D02*
X036443Y013648D01*
X036465Y013581D01*
X036497Y013518D01*
X036538Y013461D01*
X036588Y013411D01*
X036646Y013369D01*
X036709Y013337D01*
X036776Y013315D01*
X036846Y013304D01*
X037132Y013304D01*
X037132Y013704D01*
X036434Y013704D01*
X036460Y013595D02*
X027005Y013595D01*
X026929Y013498D02*
X036511Y013498D01*
X036602Y013401D02*
X026832Y013401D01*
X026846Y013639D02*
X026846Y021809D01*
X025911Y022419D02*
X025332Y022419D01*
X025332Y022516D02*
X025900Y022516D01*
X025926Y022613D02*
X025332Y022613D01*
X025332Y022710D02*
X026005Y022710D01*
X024287Y022497D02*
X023992Y022497D01*
X023697Y022793D01*
X023106Y022793D01*
X023127Y022613D02*
X022692Y022613D01*
X022743Y022516D02*
X022999Y022516D01*
X022902Y022419D02*
X022763Y022419D01*
X022759Y022322D02*
X022805Y022322D01*
X022771Y022904D02*
X022623Y022904D01*
X023594Y023680D02*
X024259Y023680D01*
X024162Y023777D02*
X023693Y023777D01*
X023734Y023874D02*
X024065Y023874D01*
X023968Y023971D02*
X023747Y023971D01*
X023737Y024067D02*
X023871Y024067D01*
X023774Y024164D02*
X023696Y024164D01*
X023266Y025231D02*
X022553Y025231D01*
X022685Y025328D02*
X023134Y025328D01*
X023079Y025425D02*
X022740Y025425D01*
X022763Y025522D02*
X023056Y025522D01*
X023057Y025619D02*
X022762Y025619D01*
X022722Y025716D02*
X023010Y025716D01*
X022913Y025813D02*
X022642Y025813D01*
X022816Y025910D02*
X019459Y025910D01*
X019362Y025813D02*
X022193Y025813D01*
X022113Y025716D02*
X019265Y025716D01*
X019168Y025619D02*
X022073Y025619D01*
X022811Y026139D02*
X023402Y025549D01*
X022811Y026139D02*
X019465Y026139D01*
X018087Y024761D01*
X018087Y007797D01*
X018791Y007092D01*
X018498Y006807D02*
X007200Y006807D01*
X007436Y006710D02*
X018594Y006710D01*
X018528Y007777D02*
X018331Y007777D01*
X018245Y007874D02*
X018431Y007874D01*
X018382Y007971D02*
X018245Y007971D01*
X018245Y008068D02*
X018382Y008068D01*
X018382Y008165D02*
X018245Y008165D01*
X018245Y008262D02*
X018382Y008262D01*
X018322Y008359D02*
X018245Y008359D01*
X018245Y008456D02*
X018322Y008456D01*
X018322Y008553D02*
X018245Y008553D01*
X018245Y008649D02*
X018322Y008649D01*
X018322Y008746D02*
X018245Y008746D01*
X018245Y008843D02*
X018322Y008843D01*
X018322Y008940D02*
X018245Y008940D01*
X018245Y009037D02*
X018322Y009037D01*
X018322Y009134D02*
X018245Y009134D01*
X018245Y009231D02*
X018322Y009231D01*
X018322Y009328D02*
X018245Y009328D01*
X018245Y009425D02*
X018322Y009425D01*
X018322Y009522D02*
X018245Y009522D01*
X018245Y009619D02*
X018322Y009619D01*
X018322Y009716D02*
X018245Y009716D01*
X018245Y009813D02*
X018322Y009813D01*
X018322Y009910D02*
X018245Y009910D01*
X018245Y010007D02*
X018322Y010007D01*
X018322Y010104D02*
X018245Y010104D01*
X018245Y010201D02*
X018322Y010201D01*
X018322Y010298D02*
X018245Y010298D01*
X018245Y010395D02*
X018322Y010395D01*
X018322Y010492D02*
X018245Y010492D01*
X018245Y010589D02*
X018322Y010589D01*
X018322Y010686D02*
X018245Y010686D01*
X018245Y010783D02*
X018322Y010783D01*
X018322Y010880D02*
X018245Y010880D01*
X018245Y010977D02*
X018322Y010977D01*
X018322Y011074D02*
X018245Y011074D01*
X018245Y011171D02*
X018322Y011171D01*
X018322Y011268D02*
X018245Y011268D01*
X018245Y011365D02*
X018322Y011365D01*
X018322Y011462D02*
X018245Y011462D01*
X018245Y011559D02*
X018322Y011559D01*
X018322Y011656D02*
X018245Y011656D01*
X018245Y011752D02*
X018322Y011752D01*
X018322Y011849D02*
X018245Y011849D01*
X018245Y011946D02*
X018322Y011946D01*
X018322Y012043D02*
X018245Y012043D01*
X018245Y012140D02*
X018322Y012140D01*
X018322Y012237D02*
X018245Y012237D01*
X018245Y012334D02*
X018322Y012334D01*
X018322Y012431D02*
X018245Y012431D01*
X018245Y012528D02*
X018322Y012528D01*
X018322Y012625D02*
X018245Y012625D01*
X018245Y012722D02*
X018322Y012722D01*
X018322Y012819D02*
X018245Y012819D01*
X018245Y012916D02*
X018322Y012916D01*
X018322Y013013D02*
X018245Y013013D01*
X018245Y013110D02*
X018322Y013110D01*
X018322Y013207D02*
X018245Y013207D01*
X018245Y013304D02*
X018322Y013304D01*
X018322Y013401D02*
X018245Y013401D01*
X018245Y013498D02*
X018322Y013498D01*
X018322Y013595D02*
X018245Y013595D01*
X018245Y013692D02*
X018322Y013692D01*
X018322Y013789D02*
X018245Y013789D01*
X018245Y013886D02*
X018322Y013886D01*
X018322Y013983D02*
X018245Y013983D01*
X018245Y014080D02*
X018322Y014080D01*
X018322Y014177D02*
X018245Y014177D01*
X018245Y014274D02*
X018322Y014274D01*
X018322Y014371D02*
X018245Y014371D01*
X018245Y014468D02*
X018322Y014468D01*
X018322Y014565D02*
X018245Y014565D01*
X018245Y014662D02*
X018322Y014662D01*
X018322Y014759D02*
X018245Y014759D01*
X018245Y014855D02*
X018322Y014855D01*
X018322Y014952D02*
X018245Y014952D01*
X018245Y015049D02*
X018322Y015049D01*
X018322Y015146D02*
X018245Y015146D01*
X018245Y015243D02*
X018322Y015243D01*
X018322Y015340D02*
X018245Y015340D01*
X018245Y015437D02*
X018322Y015437D01*
X018322Y015534D02*
X018245Y015534D01*
X018245Y015631D02*
X018322Y015631D01*
X018322Y015728D02*
X018245Y015728D01*
X018245Y015825D02*
X018322Y015825D01*
X018322Y015922D02*
X018245Y015922D01*
X018245Y016019D02*
X018322Y016019D01*
X018322Y016116D02*
X018245Y016116D01*
X018245Y016213D02*
X018322Y016213D01*
X018322Y016310D02*
X018245Y016310D01*
X018245Y016407D02*
X018322Y016407D01*
X018322Y016504D02*
X018245Y016504D01*
X018245Y016601D02*
X018322Y016601D01*
X018322Y016698D02*
X018245Y016698D01*
X018245Y016795D02*
X018322Y016795D01*
X018322Y016892D02*
X018245Y016892D01*
X018245Y016989D02*
X018322Y016989D01*
X018322Y017086D02*
X018245Y017086D01*
X018245Y017183D02*
X018322Y017183D01*
X018322Y017280D02*
X018245Y017280D01*
X018245Y017377D02*
X018322Y017377D01*
X018322Y017474D02*
X018245Y017474D01*
X018245Y017571D02*
X018322Y017571D01*
X018322Y017668D02*
X018245Y017668D01*
X018245Y017765D02*
X018322Y017765D01*
X018322Y017861D02*
X018245Y017861D01*
X018245Y017958D02*
X018322Y017958D01*
X018322Y018055D02*
X018245Y018055D01*
X018245Y018152D02*
X018322Y018152D01*
X018322Y018249D02*
X018245Y018249D01*
X018245Y018346D02*
X018322Y018346D01*
X018322Y018443D02*
X018245Y018443D01*
X018245Y018540D02*
X018322Y018540D01*
X018322Y018637D02*
X018245Y018637D01*
X018245Y018734D02*
X018322Y018734D01*
X018322Y018831D02*
X018245Y018831D01*
X018245Y018928D02*
X018322Y018928D01*
X018322Y019025D02*
X018245Y019025D01*
X018245Y019122D02*
X018322Y019122D01*
X018322Y019219D02*
X018245Y019219D01*
X018245Y019316D02*
X018322Y019316D01*
X018322Y019413D02*
X018245Y019413D01*
X018245Y019510D02*
X018322Y019510D01*
X018322Y019607D02*
X018245Y019607D01*
X018245Y019704D02*
X018322Y019704D01*
X018322Y019801D02*
X018245Y019801D01*
X018245Y019898D02*
X018322Y019898D01*
X018322Y019995D02*
X018245Y019995D01*
X018245Y020092D02*
X018322Y020092D01*
X018322Y020189D02*
X018245Y020189D01*
X018245Y020286D02*
X018322Y020286D01*
X018322Y020383D02*
X018245Y020383D01*
X018245Y020480D02*
X018322Y020480D01*
X018322Y020577D02*
X018245Y020577D01*
X018245Y020674D02*
X018322Y020674D01*
X018322Y020771D02*
X018245Y020771D01*
X018245Y020868D02*
X018322Y020868D01*
X018322Y020964D02*
X018245Y020964D01*
X018245Y021061D02*
X018322Y021061D01*
X018322Y021158D02*
X018245Y021158D01*
X018245Y021255D02*
X018322Y021255D01*
X018322Y021352D02*
X018245Y021352D01*
X018245Y021449D02*
X018322Y021449D01*
X018322Y021546D02*
X018245Y021546D01*
X018245Y021643D02*
X018322Y021643D01*
X018322Y021740D02*
X018245Y021740D01*
X018245Y021837D02*
X018322Y021837D01*
X018322Y021934D02*
X018245Y021934D01*
X018245Y022031D02*
X018322Y022031D01*
X018322Y022128D02*
X018245Y022128D01*
X018245Y022225D02*
X018322Y022225D01*
X018322Y022322D02*
X018245Y022322D01*
X018245Y022419D02*
X018322Y022419D01*
X018322Y022516D02*
X018245Y022516D01*
X018245Y022613D02*
X018322Y022613D01*
X018322Y022710D02*
X018245Y022710D01*
X018245Y022807D02*
X018322Y022807D01*
X018367Y022904D02*
X018245Y022904D01*
X018245Y023001D02*
X018464Y023001D01*
X018561Y023098D02*
X018245Y023098D01*
X018245Y023195D02*
X018658Y023195D01*
X018755Y023292D02*
X018245Y023292D01*
X018245Y023389D02*
X018852Y023389D01*
X018480Y022793D02*
X018480Y008423D01*
X018791Y008112D01*
X018791Y008092D01*
X019268Y007635D02*
X019791Y007112D01*
X019791Y007092D01*
X020073Y007389D02*
X020274Y007389D01*
X020177Y007486D02*
X019976Y007486D01*
X020094Y007583D02*
X019544Y007583D01*
X019447Y007680D02*
X020094Y007680D01*
X020094Y007777D02*
X020055Y007777D01*
X020410Y007777D02*
X020528Y007777D01*
X020431Y007680D02*
X021078Y007680D01*
X021078Y007777D02*
X021055Y007777D01*
X021078Y007583D02*
X020528Y007583D01*
X020431Y007874D02*
X020410Y007874D01*
X020791Y008092D02*
X020791Y017072D01*
X020803Y016887D01*
X021236Y017478D02*
X021236Y017675D01*
X022024Y018462D01*
X022417Y018462D01*
X022614Y017675D02*
X023402Y017675D01*
X022614Y017675D02*
X021791Y016852D01*
X021791Y008092D01*
X021528Y007777D02*
X021395Y007777D01*
X021395Y007874D02*
X021431Y007874D01*
X021416Y007680D02*
X022062Y007680D01*
X022055Y007777D02*
X022062Y007777D01*
X022076Y007583D02*
X021513Y007583D01*
X021236Y007635D02*
X021236Y016100D01*
X020094Y016116D02*
X020017Y016116D01*
X020017Y016019D02*
X020094Y016019D01*
X020094Y015922D02*
X020017Y015922D01*
X020017Y015825D02*
X020094Y015825D01*
X020094Y015728D02*
X020017Y015728D01*
X020017Y015631D02*
X020094Y015631D01*
X020094Y015534D02*
X020017Y015534D01*
X020017Y015437D02*
X020094Y015437D01*
X020094Y015340D02*
X020017Y015340D01*
X020017Y015243D02*
X020094Y015243D01*
X020094Y015146D02*
X020017Y015146D01*
X020017Y015049D02*
X020094Y015049D01*
X020094Y014952D02*
X020017Y014952D01*
X020017Y014855D02*
X020094Y014855D01*
X020094Y014759D02*
X020017Y014759D01*
X020017Y014662D02*
X020094Y014662D01*
X020094Y014565D02*
X020017Y014565D01*
X020017Y014468D02*
X020094Y014468D01*
X020094Y014371D02*
X020017Y014371D01*
X020017Y014274D02*
X020094Y014274D01*
X020094Y014177D02*
X020017Y014177D01*
X020017Y014080D02*
X020094Y014080D01*
X020094Y013983D02*
X020017Y013983D01*
X020017Y013886D02*
X020094Y013886D01*
X020094Y013789D02*
X020017Y013789D01*
X020017Y013692D02*
X020094Y013692D01*
X020094Y013595D02*
X020017Y013595D01*
X020017Y013498D02*
X020094Y013498D01*
X020094Y013401D02*
X020017Y013401D01*
X020017Y013304D02*
X020094Y013304D01*
X020094Y013207D02*
X020017Y013207D01*
X020017Y013110D02*
X020094Y013110D01*
X020094Y013013D02*
X020017Y013013D01*
X020017Y012916D02*
X020094Y012916D01*
X020094Y012819D02*
X020017Y012819D01*
X020017Y012722D02*
X020094Y012722D01*
X020094Y012625D02*
X020017Y012625D01*
X020017Y012528D02*
X020094Y012528D01*
X020094Y012431D02*
X020017Y012431D01*
X020017Y012334D02*
X020094Y012334D01*
X020094Y012237D02*
X020017Y012237D01*
X020017Y012140D02*
X020094Y012140D01*
X020094Y012043D02*
X020017Y012043D01*
X020017Y011946D02*
X020094Y011946D01*
X020094Y011849D02*
X020017Y011849D01*
X020017Y011752D02*
X020094Y011752D01*
X020094Y011656D02*
X020017Y011656D01*
X020017Y011559D02*
X020094Y011559D01*
X020094Y011462D02*
X020017Y011462D01*
X020017Y011365D02*
X020094Y011365D01*
X020094Y011268D02*
X020017Y011268D01*
X020017Y011171D02*
X020094Y011171D01*
X020094Y011074D02*
X020017Y011074D01*
X020017Y010977D02*
X020094Y010977D01*
X020094Y010880D02*
X020017Y010880D01*
X020017Y010783D02*
X020094Y010783D01*
X020094Y010686D02*
X020017Y010686D01*
X020017Y010589D02*
X020094Y010589D01*
X020094Y010492D02*
X020017Y010492D01*
X020017Y010395D02*
X020094Y010395D01*
X020094Y010298D02*
X020017Y010298D01*
X020017Y010201D02*
X020094Y010201D01*
X020094Y010104D02*
X020017Y010104D01*
X020017Y010007D02*
X020094Y010007D01*
X020094Y009910D02*
X020017Y009910D01*
X020017Y009813D02*
X020094Y009813D01*
X020094Y009716D02*
X020017Y009716D01*
X020017Y009619D02*
X020094Y009619D01*
X020094Y009522D02*
X020017Y009522D01*
X020017Y009425D02*
X020094Y009425D01*
X020094Y009328D02*
X020017Y009328D01*
X020017Y009231D02*
X020094Y009231D01*
X020094Y009134D02*
X020017Y009134D01*
X020017Y009037D02*
X020094Y009037D01*
X020094Y008940D02*
X020017Y008940D01*
X020017Y008843D02*
X020094Y008843D01*
X020094Y008746D02*
X020017Y008746D01*
X020017Y008649D02*
X020094Y008649D01*
X020094Y008553D02*
X020017Y008553D01*
X020017Y008456D02*
X020094Y008456D01*
X019858Y008226D02*
X019858Y019249D01*
X020017Y018928D02*
X021085Y018928D01*
X020988Y018831D02*
X020017Y018831D01*
X020017Y018734D02*
X020891Y018734D01*
X020794Y018637D02*
X020017Y018637D01*
X020017Y018540D02*
X020697Y018540D01*
X020600Y018443D02*
X020017Y018443D01*
X020017Y018346D02*
X020503Y018346D01*
X020406Y018249D02*
X020017Y018249D01*
X020017Y018152D02*
X020309Y018152D01*
X020212Y018055D02*
X020017Y018055D01*
X020017Y017958D02*
X020115Y017958D01*
X020094Y017861D02*
X020017Y017861D01*
X020017Y017765D02*
X020094Y017765D01*
X020094Y017668D02*
X020017Y017668D01*
X020017Y017571D02*
X020094Y017571D01*
X020094Y017474D02*
X020017Y017474D01*
X020017Y017377D02*
X020094Y017377D01*
X020094Y017280D02*
X020017Y017280D01*
X020017Y017183D02*
X020094Y017183D01*
X020094Y017086D02*
X020017Y017086D01*
X020017Y016989D02*
X020094Y016989D01*
X020094Y016892D02*
X020017Y016892D01*
X020017Y016795D02*
X020094Y016795D01*
X020094Y016698D02*
X020017Y016698D01*
X020017Y016601D02*
X020094Y016601D01*
X020094Y016504D02*
X020017Y016504D01*
X020017Y016407D02*
X020094Y016407D01*
X020094Y016310D02*
X020017Y016310D01*
X020017Y016213D02*
X020094Y016213D01*
X017928Y016213D02*
X011011Y016213D01*
X011011Y016116D02*
X017928Y016116D01*
X017928Y016019D02*
X011011Y016019D01*
X011011Y015922D02*
X017928Y015922D01*
X017928Y015825D02*
X011011Y015825D01*
X010922Y015728D02*
X017928Y015728D01*
X017928Y015631D02*
X010825Y015631D01*
X010728Y015534D02*
X017928Y015534D01*
X017928Y015437D02*
X010631Y015437D01*
X010534Y015340D02*
X017928Y015340D01*
X017928Y015243D02*
X010437Y015243D01*
X010340Y015146D02*
X017928Y015146D01*
X017928Y015049D02*
X010157Y015049D01*
X009812Y015049D02*
X009241Y015049D01*
X009246Y015052D02*
X009299Y015106D01*
X009342Y015169D01*
X009371Y015239D01*
X009385Y015314D01*
X009385Y015322D01*
X009030Y015322D01*
X009030Y014966D01*
X009038Y014966D01*
X009112Y014981D01*
X009183Y015010D01*
X009246Y015052D01*
X009326Y015146D02*
X009701Y015146D01*
X009655Y015243D02*
X009371Y015243D01*
X009639Y015340D02*
X009030Y015340D01*
X008970Y015340D02*
X005291Y015340D01*
X005291Y015825D02*
X008776Y015825D01*
X008681Y015922D02*
X005291Y015922D01*
X005291Y016019D02*
X008633Y016019D01*
X008622Y016213D02*
X005291Y016213D01*
X005291Y016116D02*
X008970Y016116D01*
X009030Y016116D02*
X009639Y016116D01*
X009641Y016213D02*
X009378Y016213D01*
X009346Y016310D02*
X009562Y016310D01*
X009660Y016019D02*
X009367Y016019D01*
X009318Y015922D02*
X009713Y015922D01*
X009840Y015825D02*
X009224Y015825D01*
X009030Y015825D02*
X008970Y015825D01*
X008970Y015922D02*
X009030Y015922D01*
X009030Y016019D02*
X008970Y016019D01*
X008970Y015631D02*
X009030Y015631D01*
X009030Y015534D02*
X008970Y015534D01*
X008970Y015437D02*
X009030Y015437D01*
X009030Y015243D02*
X008970Y015243D01*
X008970Y015146D02*
X009030Y015146D01*
X009030Y015049D02*
X008970Y015049D01*
X009197Y014855D02*
X009787Y014855D01*
X009691Y014759D02*
X009293Y014759D01*
X009334Y014662D02*
X009651Y014662D01*
X009639Y014565D02*
X009345Y014565D01*
X009334Y014468D02*
X009650Y014468D01*
X009691Y014371D02*
X009294Y014371D01*
X009198Y014274D02*
X009786Y014274D01*
X009813Y014080D02*
X009172Y014080D01*
X009283Y013983D02*
X009701Y013983D01*
X009691Y013973D02*
X009639Y013846D01*
X009639Y013708D01*
X009691Y013581D01*
X009789Y013484D01*
X009916Y013432D01*
X010053Y013432D01*
X010180Y013484D01*
X010277Y013581D01*
X010330Y013708D01*
X010330Y013846D01*
X010277Y013973D01*
X010180Y014070D01*
X010053Y014122D01*
X009916Y014122D01*
X009789Y014070D01*
X009691Y013973D01*
X009655Y013886D02*
X009329Y013886D01*
X009345Y013789D02*
X009639Y013789D01*
X009646Y013692D02*
X009339Y013692D01*
X009298Y013595D02*
X009686Y013595D01*
X009775Y013498D02*
X009209Y013498D01*
X010194Y013498D02*
X017928Y013498D01*
X017928Y013595D02*
X010283Y013595D01*
X010323Y013692D02*
X017928Y013692D01*
X017928Y013789D02*
X010330Y013789D01*
X010313Y013886D02*
X017928Y013886D01*
X017928Y013983D02*
X010267Y013983D01*
X010238Y015631D02*
X010193Y015631D01*
X009775Y015631D02*
X009266Y015631D01*
X009871Y016504D02*
X010596Y016504D01*
X011011Y016504D02*
X017928Y016504D01*
X017928Y016601D02*
X011011Y016601D01*
X011011Y016698D02*
X017928Y016698D01*
X017928Y016795D02*
X011011Y016795D01*
X011011Y016892D02*
X017928Y016892D01*
X017928Y016989D02*
X011011Y016989D01*
X011011Y017086D02*
X017928Y017086D01*
X017928Y017183D02*
X011011Y017183D01*
X011011Y017280D02*
X017928Y017280D01*
X017928Y017377D02*
X011011Y017377D01*
X011011Y017474D02*
X017928Y017474D01*
X017928Y017571D02*
X011011Y017571D01*
X011011Y017668D02*
X017928Y017668D01*
X017928Y017765D02*
X011011Y017765D01*
X011011Y017861D02*
X017928Y017861D01*
X017928Y017958D02*
X011011Y017958D01*
X011011Y018055D02*
X017928Y018055D01*
X017928Y018152D02*
X011011Y018152D01*
X011011Y018249D02*
X017928Y018249D01*
X017928Y018346D02*
X011011Y018346D01*
X011011Y018443D02*
X017928Y018443D01*
X017928Y018540D02*
X011011Y018540D01*
X011011Y018637D02*
X017928Y018637D01*
X017928Y018734D02*
X011011Y018734D01*
X011011Y018831D02*
X017928Y018831D01*
X017928Y018928D02*
X011011Y018928D01*
X011011Y019025D02*
X017928Y019025D01*
X017928Y019122D02*
X011011Y019122D01*
X011011Y019219D02*
X017928Y019219D01*
X017928Y019316D02*
X011011Y019316D01*
X011011Y019413D02*
X017928Y019413D01*
X017928Y019510D02*
X011011Y019510D01*
X011011Y019607D02*
X017928Y019607D01*
X017928Y019704D02*
X011011Y019704D01*
X011011Y019801D02*
X017928Y019801D01*
X017928Y019898D02*
X011011Y019898D01*
X011011Y019995D02*
X017928Y019995D01*
X017928Y020092D02*
X011011Y020092D01*
X011011Y020189D02*
X017928Y020189D01*
X017928Y020286D02*
X011011Y020286D01*
X011011Y020383D02*
X017928Y020383D01*
X017928Y020480D02*
X011011Y020480D01*
X011011Y020577D02*
X017928Y020577D01*
X017928Y020674D02*
X011011Y020674D01*
X011011Y020771D02*
X017928Y020771D01*
X017928Y020868D02*
X011011Y020868D01*
X011011Y020964D02*
X017928Y020964D01*
X017928Y021061D02*
X011011Y021061D01*
X011011Y021158D02*
X017928Y021158D01*
X017928Y021255D02*
X011011Y021255D01*
X011011Y021352D02*
X017928Y021352D01*
X017928Y021449D02*
X011011Y021449D01*
X010965Y021546D02*
X017928Y021546D01*
X017928Y021643D02*
X010868Y021643D01*
X010771Y021740D02*
X017928Y021740D01*
X017928Y021837D02*
X010674Y021837D01*
X010577Y021934D02*
X017928Y021934D01*
X017928Y022031D02*
X010480Y022031D01*
X010383Y022128D02*
X017928Y022128D01*
X017928Y022225D02*
X010286Y022225D01*
X010189Y022322D02*
X017928Y022322D01*
X017928Y022419D02*
X010093Y022419D01*
X009996Y022516D02*
X017928Y022516D01*
X017928Y022613D02*
X009899Y022613D01*
X009802Y022710D02*
X017928Y022710D01*
X017928Y022807D02*
X009705Y022807D01*
X009608Y022904D02*
X017928Y022904D01*
X017928Y023001D02*
X009511Y023001D01*
X009414Y023098D02*
X017928Y023098D01*
X017928Y023195D02*
X009317Y023195D01*
X009220Y023292D02*
X017928Y023292D01*
X017928Y023389D02*
X009123Y023389D01*
X009026Y023486D02*
X017928Y023486D01*
X017928Y023583D02*
X008929Y023583D01*
X008832Y023680D02*
X017928Y023680D01*
X017928Y023777D02*
X008735Y023777D01*
X008680Y023874D02*
X017928Y023874D01*
X017928Y023971D02*
X008612Y023971D01*
X008270Y023971D02*
X008156Y023971D01*
X008156Y024067D02*
X017928Y024067D01*
X017928Y024164D02*
X008156Y024164D01*
X008156Y024261D02*
X017928Y024261D01*
X017928Y024358D02*
X008156Y024358D01*
X008156Y024455D02*
X017928Y024455D01*
X017928Y024552D02*
X008156Y024552D01*
X008156Y024649D02*
X017928Y024649D01*
X017928Y024746D02*
X012531Y024746D01*
X012225Y024746D02*
X008594Y024746D01*
X008673Y024843D02*
X012146Y024843D01*
X012120Y024940D02*
X008699Y024940D01*
X008687Y025037D02*
X012131Y025037D01*
X012189Y025134D02*
X008630Y025134D01*
X008288Y024746D02*
X008156Y024746D01*
X008156Y023874D02*
X008202Y023874D01*
X008183Y023777D02*
X008156Y023777D01*
X008156Y023680D02*
X008202Y023680D01*
X008156Y023583D02*
X008270Y023583D01*
X008156Y023486D02*
X008439Y023486D01*
X008536Y023389D02*
X008156Y023389D01*
X008156Y023292D02*
X008633Y023292D01*
X008730Y023195D02*
X008156Y023195D01*
X008156Y023098D02*
X008826Y023098D01*
X008923Y023001D02*
X008156Y023001D01*
X008156Y022904D02*
X009020Y022904D01*
X009117Y022807D02*
X008156Y022807D01*
X008156Y022710D02*
X009214Y022710D01*
X009311Y022613D02*
X008156Y022613D01*
X008156Y022516D02*
X009408Y022516D01*
X009505Y022419D02*
X008156Y022419D01*
X008156Y022322D02*
X009602Y022322D01*
X009699Y022225D02*
X008156Y022225D01*
X008156Y022128D02*
X009796Y022128D01*
X009893Y022031D02*
X008156Y022031D01*
X008156Y021934D02*
X009990Y021934D01*
X010087Y021837D02*
X008156Y021837D01*
X008156Y021740D02*
X010184Y021740D01*
X010281Y021643D02*
X008156Y021643D01*
X008156Y021546D02*
X010378Y021546D01*
X010475Y021449D02*
X008156Y021449D01*
X008156Y021352D02*
X010572Y021352D01*
X010596Y021255D02*
X008156Y021255D01*
X008156Y021158D02*
X008809Y021158D01*
X008804Y021156D02*
X008707Y021059D01*
X008655Y020932D01*
X008655Y020795D01*
X008707Y020668D01*
X008804Y020571D01*
X008931Y020518D01*
X009069Y020518D01*
X009196Y020571D01*
X009293Y020668D01*
X009345Y020795D01*
X009345Y020932D01*
X009293Y021059D01*
X009196Y021156D01*
X009069Y021209D01*
X008931Y021209D01*
X008804Y021156D01*
X008709Y021061D02*
X008156Y021061D01*
X008156Y020964D02*
X008668Y020964D01*
X008655Y020868D02*
X008156Y020868D01*
X008156Y020771D02*
X008665Y020771D01*
X008705Y020674D02*
X008156Y020674D01*
X008156Y020577D02*
X008798Y020577D01*
X008837Y020383D02*
X008156Y020383D01*
X008156Y020480D02*
X010596Y020480D01*
X010596Y020577D02*
X010186Y020577D01*
X010180Y020571D02*
X010277Y020668D01*
X010330Y020795D01*
X010330Y020932D01*
X010277Y021059D01*
X010180Y021156D01*
X010053Y021209D01*
X009916Y021209D01*
X009789Y021156D01*
X009691Y021059D01*
X009639Y020932D01*
X009639Y020795D01*
X009691Y020668D01*
X009789Y020571D01*
X009916Y020518D01*
X010053Y020518D01*
X010180Y020571D01*
X010279Y020674D02*
X010596Y020674D01*
X010596Y020771D02*
X010320Y020771D01*
X010330Y020868D02*
X010596Y020868D01*
X010596Y020964D02*
X010316Y020964D01*
X010275Y021061D02*
X010596Y021061D01*
X010596Y021158D02*
X010175Y021158D01*
X009793Y021158D02*
X009191Y021158D01*
X009291Y021061D02*
X009694Y021061D01*
X009652Y020964D02*
X009332Y020964D01*
X009345Y020868D02*
X009639Y020868D01*
X009649Y020771D02*
X009335Y020771D01*
X009295Y020674D02*
X009689Y020674D01*
X009783Y020577D02*
X009201Y020577D01*
X009163Y020383D02*
X009822Y020383D01*
X009789Y020369D02*
X009691Y020272D01*
X009639Y020145D01*
X009639Y020007D01*
X009691Y019881D01*
X009789Y019783D01*
X009916Y019731D01*
X010053Y019731D01*
X010180Y019783D01*
X010277Y019881D01*
X010330Y020007D01*
X010330Y020145D01*
X010277Y020272D01*
X010180Y020369D01*
X010053Y020422D01*
X009916Y020422D01*
X009789Y020369D01*
X009705Y020286D02*
X009279Y020286D01*
X009293Y020272D02*
X009196Y020369D01*
X009069Y020422D01*
X008931Y020422D01*
X008804Y020369D01*
X008707Y020272D01*
X008655Y020145D01*
X008655Y020007D01*
X008707Y019881D01*
X008804Y019783D01*
X008931Y019731D01*
X009069Y019731D01*
X009196Y019783D01*
X009293Y019881D01*
X009345Y020007D01*
X009345Y020145D01*
X009293Y020272D01*
X009327Y020189D02*
X009657Y020189D01*
X009639Y020092D02*
X009345Y020092D01*
X009340Y019995D02*
X009644Y019995D01*
X009684Y019898D02*
X009300Y019898D01*
X009213Y019801D02*
X009771Y019801D01*
X009850Y019607D02*
X009135Y019607D01*
X009196Y019582D02*
X009069Y019634D01*
X008931Y019634D01*
X008804Y019582D01*
X008707Y019484D01*
X008655Y019358D01*
X008655Y019220D01*
X008707Y019093D01*
X008804Y018996D01*
X008931Y018943D01*
X009069Y018943D01*
X009196Y018996D01*
X009293Y019093D01*
X009345Y019220D01*
X009345Y019358D01*
X009293Y019484D01*
X009196Y019582D01*
X009267Y019510D02*
X009717Y019510D01*
X009691Y019484D02*
X009639Y019358D01*
X009639Y019220D01*
X009691Y019093D01*
X009789Y018996D01*
X009916Y018943D01*
X010053Y018943D01*
X010180Y018996D01*
X010277Y019093D01*
X010330Y019220D01*
X010330Y019358D01*
X010277Y019484D01*
X010180Y019582D01*
X010053Y019634D01*
X009916Y019634D01*
X009789Y019582D01*
X009691Y019484D01*
X009662Y019413D02*
X009322Y019413D01*
X009345Y019316D02*
X009639Y019316D01*
X009639Y019219D02*
X009345Y019219D01*
X009305Y019122D02*
X009679Y019122D01*
X009759Y019025D02*
X009225Y019025D01*
X009106Y018831D02*
X009878Y018831D01*
X009729Y018734D02*
X009256Y018734D01*
X009318Y018637D02*
X009667Y018637D01*
X009639Y018540D02*
X009345Y018540D01*
X009345Y018443D02*
X009639Y018443D01*
X009675Y018346D02*
X009310Y018346D01*
X009236Y018249D02*
X009748Y018249D01*
X009740Y017958D02*
X009244Y017958D01*
X009313Y017861D02*
X009671Y017861D01*
X009639Y017765D02*
X009345Y017765D01*
X009345Y017668D02*
X009639Y017668D01*
X009670Y017571D02*
X009314Y017571D01*
X009248Y017474D02*
X009736Y017474D01*
X009752Y017183D02*
X009232Y017183D01*
X009308Y017086D02*
X009676Y017086D01*
X009639Y016989D02*
X009345Y016989D01*
X009345Y016892D02*
X009639Y016892D01*
X009665Y016795D02*
X009319Y016795D01*
X009677Y016698D02*
X009724Y016698D01*
X009774Y016601D02*
X009868Y016601D01*
X011011Y016407D02*
X017928Y016407D01*
X017928Y016310D02*
X011011Y016310D01*
X010596Y018152D02*
X008156Y018152D01*
X008156Y018249D02*
X008764Y018249D01*
X008690Y018346D02*
X008156Y018346D01*
X008156Y018443D02*
X008655Y018443D01*
X008655Y018540D02*
X008156Y018540D01*
X008156Y018637D02*
X008682Y018637D01*
X008744Y018734D02*
X008156Y018734D01*
X008156Y018831D02*
X008894Y018831D01*
X008775Y019025D02*
X008156Y019025D01*
X008156Y018928D02*
X010596Y018928D01*
X010596Y018831D02*
X010091Y018831D01*
X010240Y018734D02*
X010596Y018734D01*
X010596Y018637D02*
X010302Y018637D01*
X010330Y018540D02*
X010596Y018540D01*
X010596Y018443D02*
X010330Y018443D01*
X010294Y018346D02*
X010596Y018346D01*
X010596Y018249D02*
X010221Y018249D01*
X010209Y019025D02*
X010596Y019025D01*
X010596Y019122D02*
X010289Y019122D01*
X010329Y019219D02*
X010596Y019219D01*
X010596Y019316D02*
X010330Y019316D01*
X010307Y019413D02*
X010596Y019413D01*
X010596Y019510D02*
X010252Y019510D01*
X010119Y019607D02*
X010596Y019607D01*
X010596Y019704D02*
X008156Y019704D01*
X008156Y019801D02*
X008787Y019801D01*
X008700Y019898D02*
X008156Y019898D01*
X008156Y019995D02*
X008660Y019995D01*
X008655Y020092D02*
X008156Y020092D01*
X008156Y020189D02*
X008673Y020189D01*
X008721Y020286D02*
X008156Y020286D01*
X008156Y019607D02*
X008865Y019607D01*
X008733Y019510D02*
X008156Y019510D01*
X008156Y019413D02*
X008678Y019413D01*
X008655Y019316D02*
X008156Y019316D01*
X008156Y019219D02*
X008655Y019219D01*
X008695Y019122D02*
X008156Y019122D01*
X010197Y019801D02*
X010596Y019801D01*
X010596Y019898D02*
X010284Y019898D01*
X010324Y019995D02*
X010596Y019995D01*
X010596Y020092D02*
X010330Y020092D01*
X010311Y020189D02*
X010596Y020189D01*
X010596Y020286D02*
X010263Y020286D01*
X010147Y020383D02*
X010596Y020383D01*
X019632Y029595D02*
X019691Y029595D01*
X019691Y029692D02*
X019632Y029692D01*
X019632Y029789D02*
X019691Y029789D01*
X019922Y029595D02*
X020245Y029595D01*
X020153Y029692D02*
X020000Y029692D01*
X020036Y029789D02*
X020112Y029789D01*
X020217Y029401D02*
X019979Y029401D01*
X020007Y029304D02*
X020127Y029304D01*
X020079Y029207D02*
X020007Y029207D01*
X016874Y033861D02*
X038756Y033861D01*
X038756Y033958D02*
X016971Y033958D01*
X017068Y034055D02*
X038756Y034055D01*
X038756Y034152D02*
X017165Y034152D01*
X017262Y034249D02*
X038756Y034249D01*
X038756Y043267D02*
X031240Y043267D01*
X031461Y043364D02*
X038756Y043364D01*
X038756Y043461D02*
X031619Y043461D01*
X031747Y043558D02*
X038756Y043558D01*
X038756Y043655D02*
X031852Y043655D01*
X031942Y043752D02*
X038756Y043752D01*
X038756Y043849D02*
X032018Y043849D01*
X032085Y043946D02*
X038756Y043946D01*
X038756Y044043D02*
X032141Y044043D01*
X032187Y044140D02*
X038756Y044140D01*
X038756Y044237D02*
X032228Y044237D01*
X032262Y044334D02*
X038756Y044334D01*
X038756Y044431D02*
X032288Y044431D01*
X032308Y044528D02*
X038756Y044528D01*
X038756Y044625D02*
X032323Y044625D01*
X032332Y044722D02*
X038756Y044722D01*
X038756Y044819D02*
X037136Y044819D01*
X037261Y044916D02*
X038756Y044916D01*
X038756Y045013D02*
X037358Y045013D01*
X037411Y045110D02*
X038756Y045110D01*
X038756Y045207D02*
X037451Y045207D01*
X037486Y045304D02*
X038756Y045304D01*
X038756Y045401D02*
X037486Y045401D01*
X037486Y045498D02*
X038756Y045498D01*
X038756Y045594D02*
X037476Y045594D01*
X037436Y045691D02*
X038756Y045691D01*
X038756Y045788D02*
X037396Y045788D01*
X037321Y045885D02*
X038756Y045885D01*
X038756Y045982D02*
X037224Y045982D01*
X037047Y046079D02*
X038756Y046079D01*
X038756Y046564D02*
X005291Y046564D01*
X005291Y046661D02*
X038756Y046661D01*
X038756Y046758D02*
X005291Y046758D01*
X005291Y046855D02*
X038756Y046855D01*
X038756Y046952D02*
X005291Y046952D01*
X005291Y047049D02*
X038756Y047049D01*
X038756Y047146D02*
X005291Y047146D01*
X005291Y047243D02*
X038756Y047243D01*
X038756Y047340D02*
X005291Y047340D01*
X009488Y046079D02*
X015088Y046079D01*
X014988Y045982D02*
X009665Y045982D01*
X009762Y045885D02*
X014936Y045885D01*
X014906Y045788D02*
X009836Y045788D01*
X009877Y045691D02*
X014906Y045691D01*
X014906Y045594D02*
X009917Y045594D01*
X009927Y045498D02*
X014906Y045498D01*
X014906Y045401D02*
X009927Y045401D01*
X009927Y045304D02*
X014906Y045304D01*
X014906Y045207D02*
X009892Y045207D01*
X009852Y045110D02*
X014906Y045110D01*
X014921Y045013D02*
X009799Y045013D01*
X009702Y044916D02*
X014961Y044916D01*
X015048Y044819D02*
X009577Y044819D01*
X009372Y038613D02*
X008893Y038613D01*
X008831Y038516D02*
X009275Y038516D01*
X009224Y038419D02*
X008713Y038419D01*
X008617Y038128D02*
X009207Y038128D01*
X009191Y038225D02*
X008222Y038225D01*
X008319Y038322D02*
X009191Y038322D01*
X009248Y038031D02*
X008791Y038031D01*
X008877Y037934D02*
X009332Y037934D01*
X009501Y037837D02*
X008917Y037837D01*
X008935Y037740D02*
X015153Y037740D01*
X008391Y038128D02*
X008125Y038128D01*
X008217Y038031D02*
X008028Y038031D01*
X007931Y037934D02*
X008131Y037934D01*
X008091Y037837D02*
X007834Y037837D01*
X007737Y037740D02*
X008073Y037740D01*
X008073Y037643D02*
X007664Y037643D01*
X007664Y037546D02*
X008104Y037546D01*
X008153Y037449D02*
X007664Y037449D01*
X007664Y037352D02*
X008250Y037352D01*
X022714Y020286D02*
X023162Y020286D01*
X023091Y020189D02*
X022772Y020189D01*
X022799Y020092D02*
X023056Y020092D01*
X023056Y019995D02*
X022802Y019995D01*
X022777Y019898D02*
X023085Y019898D01*
X023138Y019801D02*
X022723Y019801D01*
X022613Y019704D02*
X023041Y019704D01*
X022751Y019413D02*
X022723Y019413D01*
X024950Y016601D02*
X025015Y016601D01*
X025015Y016504D02*
X024950Y016504D01*
X024950Y016407D02*
X025015Y016407D01*
X025015Y016310D02*
X024950Y016310D01*
X024950Y016213D02*
X025015Y016213D01*
X025015Y016116D02*
X024950Y016116D01*
X024950Y016019D02*
X025015Y016019D01*
X025015Y015922D02*
X024950Y015922D01*
X024950Y015825D02*
X025015Y015825D01*
X025015Y015728D02*
X024950Y015728D01*
X024950Y015631D02*
X025015Y015631D01*
X025015Y015534D02*
X024950Y015534D01*
X024950Y015437D02*
X025015Y015437D01*
X025015Y015340D02*
X024950Y015340D01*
X024950Y015243D02*
X025015Y015243D01*
X025015Y015146D02*
X024950Y015146D01*
X024950Y015049D02*
X025015Y015049D01*
X025015Y014952D02*
X024950Y014952D01*
X024950Y014855D02*
X025015Y014855D01*
X025015Y014759D02*
X024950Y014759D01*
X024950Y014662D02*
X025015Y014662D01*
X025015Y014565D02*
X024950Y014565D01*
X024950Y014468D02*
X025015Y014468D01*
X025015Y014371D02*
X024950Y014371D01*
X024950Y014274D02*
X025015Y014274D01*
X025015Y014177D02*
X024950Y014177D01*
X024950Y014080D02*
X025015Y014080D01*
X025015Y013983D02*
X024950Y013983D01*
X024950Y013886D02*
X025015Y013886D01*
X025015Y013789D02*
X024950Y013789D01*
X024950Y013692D02*
X025015Y013692D01*
X025015Y013595D02*
X024950Y013595D01*
X024950Y013498D02*
X025015Y013498D01*
X025015Y013401D02*
X024950Y013401D01*
X024950Y013304D02*
X025015Y013304D01*
X024967Y013207D02*
X024950Y013207D01*
X024950Y012819D02*
X025053Y012819D01*
X025665Y012458D02*
X026846Y013639D01*
X025665Y012458D02*
X025665Y007931D01*
X024827Y007092D01*
X024791Y007092D01*
X024382Y007098D02*
X024201Y007098D01*
X024201Y007001D02*
X024382Y007001D01*
X024401Y006904D02*
X024182Y006904D01*
X024085Y006807D02*
X024498Y006807D01*
X024594Y006710D02*
X023988Y006710D01*
X023594Y006710D02*
X022988Y006710D01*
X023085Y006807D02*
X023498Y006807D01*
X023401Y006904D02*
X023182Y006904D01*
X023201Y007001D02*
X023382Y007001D01*
X023382Y007098D02*
X023201Y007098D01*
X023201Y007195D02*
X023382Y007195D01*
X023413Y007292D02*
X023170Y007292D01*
X023073Y007389D02*
X023510Y007389D01*
X023607Y007486D02*
X022976Y007486D01*
X023055Y007777D02*
X023528Y007777D01*
X023431Y007874D02*
X023152Y007874D01*
X023201Y007971D02*
X023382Y007971D01*
X023382Y008068D02*
X023201Y008068D01*
X023201Y008165D02*
X023382Y008165D01*
X023382Y008262D02*
X023200Y008262D01*
X023103Y008359D02*
X023479Y008359D01*
X023576Y008456D02*
X023006Y008456D01*
X022950Y008553D02*
X023633Y008553D01*
X023633Y008649D02*
X022950Y008649D01*
X022950Y008746D02*
X023633Y008746D01*
X023633Y008843D02*
X022950Y008843D01*
X022950Y008940D02*
X023633Y008940D01*
X023633Y009037D02*
X022950Y009037D01*
X022950Y009134D02*
X023633Y009134D01*
X023633Y009231D02*
X022950Y009231D01*
X022950Y009328D02*
X023633Y009328D01*
X023633Y009425D02*
X022950Y009425D01*
X022950Y009522D02*
X023633Y009522D01*
X023633Y009619D02*
X022950Y009619D01*
X022950Y009716D02*
X023633Y009716D01*
X023633Y009813D02*
X022950Y009813D01*
X022950Y009910D02*
X023633Y009910D01*
X023633Y010007D02*
X022950Y010007D01*
X022950Y010104D02*
X023633Y010104D01*
X023633Y010201D02*
X022950Y010201D01*
X022950Y010298D02*
X023633Y010298D01*
X023633Y010395D02*
X022950Y010395D01*
X022950Y010492D02*
X023633Y010492D01*
X023633Y010589D02*
X022950Y010589D01*
X022950Y010686D02*
X023633Y010686D01*
X023633Y010783D02*
X022950Y010783D01*
X022950Y010880D02*
X023633Y010880D01*
X023633Y010977D02*
X022950Y010977D01*
X022950Y011074D02*
X023633Y011074D01*
X023633Y011171D02*
X022950Y011171D01*
X022950Y011268D02*
X023633Y011268D01*
X023633Y011365D02*
X022968Y011365D01*
X023044Y011462D02*
X023562Y011462D01*
X023537Y011559D02*
X023069Y011559D01*
X023056Y011656D02*
X023551Y011656D01*
X023611Y011752D02*
X022996Y011752D01*
X022811Y011572D02*
X022791Y011553D01*
X022791Y008092D01*
X022220Y007663D02*
X022791Y007092D01*
X022382Y007098D02*
X022201Y007098D01*
X022201Y007001D02*
X022382Y007001D01*
X022401Y006904D02*
X022182Y006904D01*
X022085Y006807D02*
X022498Y006807D01*
X022594Y006710D02*
X021988Y006710D01*
X021594Y006710D02*
X020988Y006710D01*
X021085Y006807D02*
X021498Y006807D01*
X021401Y006904D02*
X021182Y006904D01*
X021201Y007001D02*
X021382Y007001D01*
X021382Y007098D02*
X021201Y007098D01*
X021201Y007195D02*
X021382Y007195D01*
X021356Y007292D02*
X021170Y007292D01*
X021259Y007389D02*
X021073Y007389D01*
X021162Y007486D02*
X020976Y007486D01*
X021236Y007635D02*
X021780Y007092D01*
X021791Y007092D01*
X022073Y007389D02*
X022270Y007389D01*
X022173Y007486D02*
X021976Y007486D01*
X022170Y007292D02*
X022367Y007292D01*
X022382Y007195D02*
X022201Y007195D01*
X023791Y007092D02*
X024287Y007588D01*
X024287Y011572D01*
X024103Y011752D02*
X023980Y011752D01*
X024040Y011656D02*
X024043Y011656D01*
X023795Y011572D02*
X023791Y011568D01*
X023791Y008092D01*
X024409Y007486D02*
X024607Y007486D01*
X024510Y007389D02*
X024312Y007389D01*
X024215Y007292D02*
X024413Y007292D01*
X024382Y007195D02*
X024201Y007195D01*
X024988Y006710D02*
X038756Y006710D01*
X038756Y006613D02*
X007552Y006613D01*
X007631Y006516D02*
X038756Y006516D01*
X038756Y006419D02*
X007684Y006419D01*
X007719Y006322D02*
X038756Y006322D01*
X038756Y006807D02*
X025085Y006807D01*
X025182Y006904D02*
X038756Y006904D01*
X038756Y007001D02*
X025201Y007001D01*
X025201Y007098D02*
X038756Y007098D01*
X038756Y007195D02*
X025201Y007195D01*
X020382Y007195D02*
X020201Y007195D01*
X020170Y007292D02*
X020371Y007292D01*
X019528Y007777D02*
X019426Y007777D01*
X019426Y007874D02*
X019431Y007874D01*
X019791Y008092D02*
X019791Y008159D01*
X019858Y008226D01*
X011428Y007971D02*
X010319Y007971D01*
X010434Y007874D02*
X011303Y007874D01*
X011247Y007777D02*
X010487Y007777D01*
X010515Y007680D02*
X011219Y007680D01*
X011219Y007583D02*
X010515Y007583D01*
X010484Y007486D02*
X011250Y007486D01*
X011311Y007389D02*
X010426Y007389D01*
X010300Y007292D02*
X011447Y007292D01*
X009579Y002734D02*
X036436Y002734D01*
X036313Y002637D02*
X009703Y002637D01*
X009800Y002540D02*
X036216Y002540D01*
X036164Y002444D02*
X009852Y002444D01*
X009892Y002347D02*
X036123Y002347D01*
X036089Y002250D02*
X009927Y002250D01*
X009927Y002153D02*
X036089Y002153D01*
X036089Y002056D02*
X009927Y002056D01*
X009916Y001959D02*
X036099Y001959D01*
X036139Y001862D02*
X009876Y001862D01*
X009836Y001765D02*
X036180Y001765D01*
X036255Y001668D02*
X009761Y001668D01*
X009664Y001571D02*
X036352Y001571D01*
X036530Y001474D02*
X009486Y001474D01*
X006496Y005760D02*
X006451Y005837D01*
X024004Y022710D02*
X024135Y022710D01*
X037132Y014177D02*
X037230Y014177D01*
X037230Y014080D02*
X037132Y014080D01*
X037132Y013983D02*
X037230Y013983D01*
X037230Y013692D02*
X037132Y013692D01*
X037132Y013595D02*
X037230Y013595D01*
X037230Y013498D02*
X037132Y013498D01*
X037132Y013401D02*
X037230Y013401D01*
X029909Y043364D02*
X023881Y043364D01*
X024049Y043461D02*
X029751Y043461D01*
X029623Y043558D02*
X024199Y043558D01*
X024296Y043655D02*
X029518Y043655D01*
X029428Y043752D02*
X024393Y043752D01*
X024482Y043849D02*
X029352Y043849D01*
X029285Y043946D02*
X024538Y043946D01*
X024594Y044043D02*
X029229Y044043D01*
X029183Y044140D02*
X024650Y044140D01*
X024695Y044237D02*
X029142Y044237D01*
X029108Y044334D02*
X024721Y044334D01*
X024747Y044431D02*
X029082Y044431D01*
X029062Y044528D02*
X024773Y044528D01*
X024794Y044625D02*
X029047Y044625D01*
D20*
X023008Y038738D02*
X023008Y038541D01*
X023008Y038738D02*
X022947Y038799D01*
X016315Y034013D02*
X015921Y033620D01*
X008835Y033620D01*
X007457Y034997D01*
X007457Y037753D01*
X008502Y038799D01*
X008504Y038799D01*
X012378Y028108D02*
X016315Y028108D01*
X017299Y029092D01*
X019661Y029092D01*
X017102Y019840D02*
X017102Y019446D01*
X016709Y019053D01*
X010803Y021415D02*
X010803Y015903D01*
X010252Y015352D01*
X009984Y015352D01*
X010803Y021415D02*
X008441Y023777D01*
D21*
X008441Y023777D03*
X008441Y024958D03*
X012378Y024958D03*
X012378Y026139D03*
X012378Y027320D03*
X012378Y028108D03*
X016906Y027911D03*
X017102Y027517D03*
X017102Y019840D03*
X018874Y015706D03*
X020803Y016887D03*
X021236Y017478D03*
X021236Y016100D03*
X022811Y011572D03*
X023795Y011572D03*
X024287Y011572D03*
X025173Y013049D03*
X027142Y014427D03*
X026157Y022497D03*
X024287Y022497D03*
X026157Y024761D03*
X025173Y025549D03*
X015331Y035391D03*
X027339Y003305D03*
X029701Y003305D03*
X030882Y003305D03*
X033244Y003305D03*
D22*
X033638Y003319D02*
X030488Y003319D01*
X030488Y003242D02*
X033638Y003242D01*
X033638Y003165D02*
X030488Y003165D01*
X030488Y003087D02*
X033638Y003087D01*
X033638Y003010D02*
X030488Y003010D01*
X030488Y002933D02*
X033638Y002933D01*
X033638Y002855D02*
X030488Y002855D01*
X030488Y002778D02*
X033638Y002778D01*
X033638Y002701D02*
X030488Y002701D01*
X030488Y002624D02*
X033638Y002624D01*
X033638Y002546D02*
X030488Y002546D01*
X030488Y002469D02*
X033638Y002469D01*
X033638Y002392D02*
X030488Y002392D01*
X030488Y002314D02*
X033638Y002314D01*
X033638Y002237D02*
X030488Y002237D01*
X030488Y002160D02*
X033638Y002160D01*
X033638Y002083D02*
X030488Y002083D01*
X030488Y002005D02*
X033638Y002005D01*
X033638Y001928D02*
X030488Y001928D01*
X030488Y001851D02*
X033638Y001851D01*
X033638Y001773D02*
X030488Y001773D01*
X030488Y001696D02*
X033638Y001696D01*
X033638Y001619D02*
X030488Y001619D01*
X030488Y001542D02*
X033638Y001542D01*
X033638Y001464D02*
X030488Y001464D01*
X030488Y001387D02*
X033638Y001387D01*
X033638Y001310D02*
X030488Y001310D01*
X030488Y001232D02*
X033638Y001232D01*
X033638Y001155D02*
X030488Y001155D01*
X030488Y001078D02*
X033638Y001078D01*
X033638Y001001D02*
X030488Y001001D01*
X030488Y000923D02*
X033638Y000923D01*
X033638Y000846D02*
X030488Y000846D01*
X030488Y000769D02*
X033638Y000769D01*
X033638Y000691D02*
X030488Y000691D01*
X030488Y000614D02*
X033638Y000614D01*
X033638Y000537D02*
X030488Y000537D01*
X030488Y000460D02*
X033638Y000460D01*
X033638Y000382D02*
X030488Y000382D01*
X030488Y000305D02*
X033638Y000305D01*
X033638Y000228D02*
X030488Y000228D01*
X030488Y000155D02*
X033638Y000155D01*
X033638Y003698D01*
X030488Y003698D01*
X030488Y000155D01*
X030094Y000155D02*
X026945Y000155D01*
X026945Y003698D01*
X030094Y003698D01*
X030094Y000155D01*
X030094Y000228D02*
X026945Y000228D01*
X026945Y000305D02*
X030094Y000305D01*
X030094Y000382D02*
X026945Y000382D01*
X026945Y000460D02*
X030094Y000460D01*
X030094Y000537D02*
X026945Y000537D01*
X026945Y000614D02*
X030094Y000614D01*
X030094Y000691D02*
X026945Y000691D01*
X026945Y000769D02*
X030094Y000769D01*
X030094Y000846D02*
X026945Y000846D01*
X026945Y000923D02*
X030094Y000923D01*
X030094Y001001D02*
X026945Y001001D01*
X026945Y001078D02*
X030094Y001078D01*
X030094Y001155D02*
X026945Y001155D01*
X026945Y001232D02*
X030094Y001232D01*
X030094Y001310D02*
X026945Y001310D01*
X026945Y001387D02*
X030094Y001387D01*
X030094Y001464D02*
X026945Y001464D01*
X026945Y001542D02*
X030094Y001542D01*
X030094Y001619D02*
X026945Y001619D01*
X026945Y001696D02*
X030094Y001696D01*
X030094Y001773D02*
X026945Y001773D01*
X026945Y001851D02*
X030094Y001851D01*
X030094Y001928D02*
X026945Y001928D01*
X026945Y002005D02*
X030094Y002005D01*
X030094Y002083D02*
X026945Y002083D01*
X026945Y002160D02*
X030094Y002160D01*
X030094Y002237D02*
X026945Y002237D01*
X026945Y002314D02*
X030094Y002314D01*
X030094Y002392D02*
X026945Y002392D01*
X026945Y002469D02*
X030094Y002469D01*
X030094Y002546D02*
X026945Y002546D01*
X026945Y002624D02*
X030094Y002624D01*
X030094Y002701D02*
X026945Y002701D01*
X026945Y002778D02*
X030094Y002778D01*
X030094Y002855D02*
X026945Y002855D01*
X026945Y002933D02*
X030094Y002933D01*
X030094Y003010D02*
X026945Y003010D01*
X026945Y003087D02*
X030094Y003087D01*
X030094Y003165D02*
X026945Y003165D01*
X026945Y003242D02*
X030094Y003242D01*
X030094Y003319D02*
X026945Y003319D01*
X026945Y003396D02*
X030094Y003396D01*
X030094Y003474D02*
X026945Y003474D01*
X026945Y003551D02*
X030094Y003551D01*
X030094Y003628D02*
X026945Y003628D01*
X030488Y003628D02*
X033638Y003628D01*
X033638Y003551D02*
X030488Y003551D01*
X030488Y003474D02*
X033638Y003474D01*
X033638Y003396D02*
X030488Y003396D01*
D23*
X007654Y017084D02*
X007654Y024958D01*
X007654Y025352D01*
X016315Y034013D01*
X017102Y034801D01*
X019268Y034801D01*
X023008Y038541D01*
X023205Y038738D01*
X023205Y040903D01*
X023185Y040883D01*
X023185Y044820D01*
D24*
X016315Y045037D02*
X015331Y044053D01*
X015331Y035391D01*
X016315Y034013D02*
X019661Y030667D01*
X016906Y027911D02*
X015134Y026139D01*
X012378Y026139D01*
X012378Y024958D02*
X014543Y024958D01*
X017102Y027517D01*
X008441Y024958D02*
X007654Y024958D01*
X007654Y017084D02*
X007654Y016927D01*
X008047Y016533D01*
X009591Y016533D01*
X009984Y016139D01*
X016315Y045037D02*
X016315Y045431D01*
D25*
X011591Y007635D03*
M02*
