%
M48
M72
T01C0.0157
T02C0.0315
T03C0.0350
T04C0.0362
T05C0.0400
T06C0.0429
T07C0.0591
T08C0.0709
T09C0.0827
T10C0.1252
T11C0.1299
T12C0.1440
%
T01
X17102Y19840
X18874Y15706
X20803Y16887
X21236Y17478
X21236Y16100
X22811Y11572
X23795Y11572
X24287Y11572
X25173Y13049
X27142Y14427
X26157Y22497
X24287Y22497
X26157Y24761
X25173Y25549
X17102Y27517
X16906Y27911
X12378Y28108
X12378Y27320
X12378Y26139
X12378Y24958
X8441Y24958
X8441Y23777
X15331Y35391
X27339Y3305
X29701Y3305
X30882Y3305
X33244Y3305
T02
X23402Y18462
X23402Y19249
X23402Y20037
X23402Y20824
X23402Y21612
X23402Y22399
X23402Y23186
X23402Y23974
X23402Y24761
X23402Y25549
X22417Y25549
X22417Y24761
X22417Y23974
X22417Y23186
X22417Y22399
X22417Y21612
X22417Y20824
X22417Y20037
X22417Y19249
X22417Y18462
X20449Y29092
X20449Y29879
X19661Y29879
X19661Y29092
X19661Y30667
X20449Y30667
X9984Y20864
X9984Y20076
X9984Y19289
X9984Y18501
X9984Y17714
X9984Y16927
X9984Y16139
X9984Y15352
X9984Y14564
X9984Y13777
X9000Y13777
X9000Y14564
X9000Y15352
X9000Y16139
X9000Y16927
X9000Y17714
X9000Y18501
X9000Y19289
X9000Y20076
X9000Y20864
T03
X11591Y7635
T04
X10134Y7635
T05
X18791Y8092
X19791Y8092
X19791Y7092
X18791Y7092
X20791Y7092
X21791Y7092
X21791Y8092
X20791Y8092
X22791Y8092
X22791Y7092
X23791Y7092
X24791Y7092
X24791Y8092
X23791Y8092
X37181Y11753
X37181Y12753
X37181Y13753
X17315Y45431
X16315Y45431
X15315Y45431
T06
X9622Y39344
X9622Y38253
X9622Y37163
X9622Y36072
X9622Y34982
X8504Y35527
X8504Y36618
X8504Y37708
X8504Y38799
T07
X12772Y7635
T08
X7063Y6139
X7063Y9131
T09
X25961Y17281
X33835Y17281
X33835Y33029
X25961Y33029
T10
X9063Y32244
X9063Y42082
T11
X9228Y45431
X36787Y45431
X36787Y2123
X9228Y2123
T12
X23185Y44820
X30685Y44820
M30
