G75*
G70*
%OFA0B0*%
%FSLAX24Y24*%
%IPPOS*%
%LPD*%
%AMOC8*
5,1,8,0,0,1.08239X$1,22.5*
%
%ADD10C,0.0160*%
%ADD11C,0.0050*%
%ADD12C,0.0047*%
%ADD13C,0.0070*%
%ADD14C,0.0090*%
%ADD15C,0.0120*%
%ADD16C,0.0197*%
%ADD17C,0.0059*%
%ADD18C,0.0028*%
%ADD19C,0.0060*%
%ADD20C,0.0039*%
%ADD21C,0.0049*%
%ADD22C,0.0098*%
%ADD23C,0.0040*%
D10*
X018677Y016494D02*
X018677Y033816D01*
X034819Y033816D01*
X034819Y016494D01*
X018677Y016494D01*
D11*
X020003Y010956D02*
X019922Y010874D01*
X019922Y010793D01*
X019909Y010618D02*
X019747Y010456D01*
X019774Y010240D02*
X019531Y010483D01*
X019369Y010321D02*
X019774Y010240D01*
X019612Y010078D02*
X019369Y010321D01*
X019279Y010232D02*
X019198Y010150D01*
X019239Y010191D02*
X019482Y009948D01*
X019522Y009988D02*
X019441Y009907D01*
X019347Y009813D02*
X019185Y009975D01*
X019023Y009975D01*
X019023Y009813D01*
X019185Y009651D01*
X019063Y009773D02*
X019226Y009935D01*
X020023Y009975D02*
X020185Y009975D01*
X020347Y009813D01*
X020441Y009907D02*
X020522Y009988D01*
X020482Y009948D02*
X020239Y010191D01*
X020198Y010150D02*
X020279Y010232D01*
X020369Y010321D02*
X020774Y010240D01*
X020531Y010483D01*
X020747Y010456D02*
X020909Y010618D01*
X021003Y010712D02*
X021165Y010874D01*
X021246Y010712D02*
X021003Y010956D01*
X021003Y010712D01*
X021369Y010321D02*
X021774Y010240D01*
X021531Y010483D01*
X021747Y010456D02*
X021909Y010618D01*
X022003Y010712D02*
X022125Y010834D01*
X022206Y010834D01*
X022246Y010793D01*
X022246Y010712D01*
X022165Y010631D01*
X022084Y010631D01*
X022003Y010712D01*
X022003Y010874D01*
X022044Y010996D01*
X022531Y010483D02*
X022774Y010240D01*
X022369Y010321D01*
X022612Y010078D01*
X022522Y009988D02*
X022441Y009907D01*
X022482Y009948D02*
X022239Y010191D01*
X022198Y010150D02*
X022279Y010232D01*
X022185Y009975D02*
X022023Y009975D01*
X022023Y009813D01*
X022185Y009651D01*
X022063Y009773D02*
X022226Y009935D01*
X022185Y009975D02*
X022347Y009813D01*
X022747Y010456D02*
X022909Y010618D01*
X023044Y010672D02*
X023044Y010753D01*
X023125Y010834D01*
X023206Y010834D01*
X023246Y010793D01*
X023246Y010712D01*
X023165Y010631D01*
X023084Y010631D01*
X023044Y010672D01*
X023044Y010753D02*
X022963Y010753D01*
X022922Y010793D01*
X022922Y010874D01*
X023003Y010956D01*
X023084Y010956D01*
X023125Y010915D01*
X023125Y010834D01*
X023531Y010483D02*
X023774Y010240D01*
X023369Y010321D01*
X023612Y010078D01*
X023522Y009988D02*
X023441Y009907D01*
X023482Y009948D02*
X023239Y010191D01*
X023198Y010150D02*
X023279Y010232D01*
X023185Y009975D02*
X023347Y009813D01*
X023226Y009935D02*
X023063Y009773D01*
X023023Y009813D02*
X023023Y009975D01*
X023185Y009975D01*
X023023Y009813D02*
X023185Y009651D01*
X024023Y009813D02*
X024023Y009975D01*
X024185Y009975D01*
X024347Y009813D01*
X024441Y009907D02*
X024522Y009988D01*
X024482Y009948D02*
X024239Y010191D01*
X024198Y010150D02*
X024279Y010232D01*
X024369Y010321D02*
X024774Y010240D01*
X024531Y010483D01*
X024747Y010456D02*
X024909Y010618D01*
X024963Y010753D02*
X024963Y010915D01*
X025206Y010672D01*
X025125Y010591D02*
X025287Y010753D01*
X025381Y010847D02*
X025381Y011171D01*
X025341Y011212D01*
X025259Y011212D01*
X025178Y011131D01*
X025178Y011050D01*
X025381Y010847D02*
X025543Y011009D01*
X025535Y010488D02*
X025779Y010245D01*
X025698Y010164D02*
X025860Y010326D01*
X025535Y010326D02*
X025535Y010488D01*
X025401Y010272D02*
X025482Y010191D01*
X025482Y010110D01*
X025360Y009988D01*
X025441Y009907D02*
X025198Y010150D01*
X025320Y010272D01*
X025401Y010272D01*
X025144Y010016D02*
X025063Y010016D01*
X024982Y009935D01*
X024982Y009854D01*
X025144Y009691D01*
X025226Y009691D01*
X025307Y009773D01*
X025307Y009854D01*
X025226Y009935D01*
X025144Y009854D01*
X024612Y010078D02*
X024369Y010321D01*
X024125Y010591D02*
X024287Y010753D01*
X024206Y010672D02*
X023963Y010915D01*
X023963Y010753D01*
X023909Y010618D02*
X023747Y010456D01*
X024023Y009813D02*
X024185Y009651D01*
X024063Y009773D02*
X024226Y009935D01*
X024516Y009217D02*
X024366Y009067D01*
X024516Y009217D02*
X024516Y008767D01*
X024366Y008767D02*
X024667Y008767D01*
X024827Y008992D02*
X025127Y008992D01*
X025052Y008767D02*
X025052Y009217D01*
X024827Y008992D01*
X024422Y010888D02*
X024341Y010888D01*
X024341Y011212D01*
X024503Y011050D01*
X024503Y010969D01*
X024422Y010888D01*
X024341Y010888D02*
X024178Y011050D01*
X024178Y011131D01*
X024259Y011212D01*
X024341Y011212D01*
X021612Y010078D02*
X021369Y010321D01*
X021279Y010232D02*
X021198Y010150D01*
X021239Y010191D02*
X021482Y009948D01*
X021522Y009988D02*
X021441Y009907D01*
X021347Y009813D02*
X021185Y009975D01*
X021023Y009975D01*
X021023Y009813D01*
X021185Y009651D01*
X021063Y009773D02*
X021226Y009935D01*
X020612Y010078D02*
X020369Y010321D01*
X020125Y010591D02*
X020125Y010915D01*
X020084Y010956D01*
X020003Y010956D01*
X020287Y010753D02*
X020125Y010591D01*
X020023Y009975D02*
X020023Y009813D01*
X020185Y009651D01*
X020063Y009773D02*
X020226Y009935D01*
X018766Y006417D02*
X018616Y006267D01*
X018766Y006417D02*
X018766Y005967D01*
X018616Y005967D02*
X018917Y005967D01*
X019253Y005930D02*
X019334Y006011D01*
X019415Y006011D01*
X019456Y005970D01*
X019456Y005889D01*
X019537Y005889D01*
X019577Y005848D01*
X019577Y005767D01*
X019496Y005686D01*
X019415Y005686D01*
X019415Y005848D02*
X019456Y005889D01*
X019253Y005849D02*
X019253Y005930D01*
X019240Y005673D02*
X019078Y005511D01*
X019105Y005295D02*
X018862Y005539D01*
X018700Y005376D02*
X019105Y005295D01*
X018943Y005133D02*
X018700Y005376D01*
X018610Y005287D02*
X018529Y005206D01*
X018569Y005246D02*
X018813Y005003D01*
X018853Y005043D02*
X018772Y004962D01*
X018678Y004868D02*
X018516Y005030D01*
X018354Y005030D01*
X018354Y004868D01*
X018516Y004706D01*
X018394Y004828D02*
X018556Y004990D01*
X018105Y005295D02*
X017862Y005539D01*
X018078Y005511D02*
X018240Y005673D01*
X018293Y005808D02*
X018293Y005970D01*
X018537Y005727D01*
X018456Y005646D02*
X018618Y005808D01*
X018105Y005295D02*
X017700Y005376D01*
X017943Y005133D01*
X017853Y005043D02*
X017772Y004962D01*
X017813Y005003D02*
X017569Y005246D01*
X017529Y005206D02*
X017610Y005287D01*
X017516Y005030D02*
X017354Y005030D01*
X017354Y004868D01*
X017516Y004706D01*
X017394Y004828D02*
X017556Y004990D01*
X017516Y005030D02*
X017678Y004868D01*
X019354Y004868D02*
X019354Y005030D01*
X019516Y005030D01*
X019678Y004868D01*
X019772Y004962D02*
X019853Y005043D01*
X019813Y005003D02*
X019569Y005246D01*
X019529Y005206D02*
X019610Y005287D01*
X019700Y005376D02*
X020105Y005295D01*
X019862Y005539D01*
X020078Y005511D02*
X020240Y005673D01*
X020334Y005767D02*
X020212Y005889D01*
X020374Y006051D01*
X020415Y005930D02*
X020496Y005930D01*
X020577Y005848D01*
X020577Y005767D01*
X020496Y005686D01*
X020415Y005686D01*
X020334Y005767D02*
X020374Y005889D01*
X020415Y005930D01*
X020862Y005539D02*
X021105Y005295D01*
X020700Y005376D01*
X020943Y005133D01*
X020853Y005043D02*
X020772Y004962D01*
X020813Y005003D02*
X020569Y005246D01*
X020529Y005206D02*
X020610Y005287D01*
X020516Y005030D02*
X020678Y004868D01*
X020556Y004990D02*
X020394Y004828D01*
X020354Y004868D02*
X020354Y005030D01*
X020516Y005030D01*
X020354Y004868D02*
X020516Y004706D01*
X019943Y005133D02*
X019700Y005376D01*
X019556Y004990D02*
X019394Y004828D01*
X019354Y004868D02*
X019516Y004706D01*
X021078Y005511D02*
X021240Y005673D01*
X021415Y005686D02*
X021415Y006011D01*
X021374Y006051D01*
X021212Y005889D01*
X021415Y005686D02*
X021456Y005646D01*
X021700Y005376D02*
X022105Y005295D01*
X021862Y005539D01*
X022078Y005511D02*
X022240Y005673D01*
X022293Y005808D02*
X022374Y005808D01*
X022496Y005930D01*
X022415Y006011D02*
X022334Y006011D01*
X022253Y005930D01*
X022253Y005849D01*
X022293Y005808D01*
X022415Y005686D02*
X022496Y005686D01*
X022577Y005767D01*
X022577Y005848D01*
X022415Y006011D01*
X022862Y005539D02*
X023105Y005295D01*
X022700Y005376D01*
X022943Y005133D01*
X022853Y005043D02*
X022772Y004962D01*
X022813Y005003D02*
X022569Y005246D01*
X022529Y005206D02*
X022610Y005287D01*
X022516Y005030D02*
X022678Y004868D01*
X022556Y004990D02*
X022394Y004828D01*
X022354Y004868D02*
X022354Y005030D01*
X022516Y005030D01*
X022354Y004868D02*
X022516Y004706D01*
X021943Y005133D02*
X021700Y005376D01*
X021610Y005287D02*
X021529Y005206D01*
X021569Y005246D02*
X021813Y005003D01*
X021853Y005043D02*
X021772Y004962D01*
X021678Y004868D02*
X021516Y005030D01*
X021354Y005030D01*
X021354Y004868D01*
X021516Y004706D01*
X021394Y004828D02*
X021556Y004990D01*
X023078Y005511D02*
X023240Y005673D01*
X023293Y005808D02*
X023293Y005970D01*
X023537Y005727D01*
X023456Y005646D02*
X023618Y005808D01*
X023712Y005902D02*
X023874Y006064D01*
X023793Y005983D02*
X023550Y006226D01*
X023550Y006064D01*
X023907Y005583D02*
X023988Y005583D01*
X023988Y005259D01*
X024069Y005259D01*
X024150Y005340D01*
X024150Y005421D01*
X023988Y005583D01*
X023907Y005583D02*
X023826Y005502D01*
X023826Y005421D01*
X023988Y005259D01*
X023813Y005246D02*
X023813Y005165D01*
X023691Y005043D01*
X023772Y004962D02*
X023529Y005206D01*
X023650Y005327D01*
X023731Y005327D01*
X023813Y005246D01*
X023556Y004990D02*
X023475Y004909D01*
X023556Y004990D02*
X023637Y004909D01*
X023637Y004828D01*
X023556Y004747D01*
X023475Y004747D01*
X023313Y004909D01*
X023313Y004990D01*
X023394Y005071D01*
X023475Y005071D01*
X036956Y014468D02*
X037406Y014468D01*
X037406Y014318D02*
X037406Y014618D01*
X037106Y014318D02*
X036956Y014468D01*
X018129Y043221D02*
X018291Y043384D01*
X018291Y043465D01*
X018169Y043586D01*
X017926Y043343D01*
X018047Y043221D01*
X018129Y043221D01*
X017832Y043437D02*
X018075Y043680D01*
X017913Y043843D02*
X017832Y043437D01*
X017670Y043599D02*
X017913Y043843D01*
X017778Y043896D02*
X017778Y043977D01*
X017697Y044058D01*
X017616Y044058D01*
X017454Y043896D01*
X017454Y043815D01*
X017535Y043734D01*
X017616Y043734D01*
X017697Y043815D01*
X017616Y043896D01*
X017268Y043424D02*
X017025Y043181D01*
X017106Y043586D01*
X016863Y043343D01*
X016769Y043437D02*
X016931Y043599D01*
X016931Y043762D01*
X016769Y043762D01*
X016607Y043599D01*
X016553Y043734D02*
X016472Y043734D01*
X016391Y043815D01*
X016391Y043896D01*
X016553Y044058D01*
X016634Y044058D01*
X016715Y043977D01*
X016715Y043896D01*
X016728Y043721D02*
X016890Y043559D01*
X016540Y043168D02*
X016297Y042925D01*
X016419Y043046D02*
X016257Y043208D01*
X016135Y043087D02*
X016378Y043330D01*
X016284Y043424D02*
X016041Y043181D01*
X016122Y043586D01*
X015879Y043343D01*
X015784Y043437D02*
X015947Y043599D01*
X015947Y043762D01*
X015784Y043762D01*
X015622Y043599D01*
X015569Y043734D02*
X015488Y043734D01*
X015407Y043815D01*
X015407Y043896D01*
X015569Y044058D01*
X015650Y044058D01*
X015731Y043977D01*
X015731Y043896D01*
X015744Y043721D02*
X015906Y043559D01*
X017119Y043087D02*
X017281Y042925D01*
X017119Y043087D02*
X017362Y043330D01*
X017880Y045206D02*
X018180Y045206D01*
X018030Y045206D02*
X018030Y045656D01*
X017880Y045506D01*
D12*
X017299Y045431D02*
X017299Y044249D01*
X017457Y044092D01*
X016394Y044092D02*
X016315Y044171D01*
X016315Y045431D01*
X015291Y045431D02*
X015291Y044210D01*
X015409Y044092D01*
X018953Y009683D02*
X018791Y009521D01*
X018791Y008092D01*
X019791Y008092D02*
X019791Y009497D01*
X019976Y009683D01*
X020791Y009474D02*
X020961Y009643D01*
X020791Y009474D02*
X020791Y008092D01*
X021791Y008092D02*
X021791Y009490D01*
X021984Y009683D01*
X022791Y009505D02*
X022969Y009683D01*
X022791Y009505D02*
X022791Y008092D01*
X023791Y008092D02*
X023791Y009482D01*
X023992Y009683D01*
X024791Y009497D02*
X024976Y009683D01*
X024791Y009497D02*
X024791Y008092D01*
D13*
X027854Y004648D02*
X027767Y004561D01*
X027767Y004214D01*
X027854Y004127D01*
X028028Y004127D01*
X028115Y004214D01*
X028115Y004387D01*
X027941Y004387D01*
X028115Y004561D02*
X028028Y004648D01*
X027854Y004648D01*
X028311Y004648D02*
X028311Y004127D01*
X028658Y004127D02*
X028311Y004648D01*
X028658Y004648D02*
X028658Y004127D01*
X028855Y004127D02*
X028855Y004648D01*
X029115Y004648D01*
X029202Y004561D01*
X029202Y004214D01*
X029115Y004127D01*
X028855Y004127D01*
X031311Y004214D02*
X031397Y004127D01*
X031571Y004127D01*
X031658Y004214D01*
X031658Y004387D01*
X031484Y004387D01*
X031311Y004214D02*
X031311Y004561D01*
X031397Y004648D01*
X031571Y004648D01*
X031658Y004561D01*
X031854Y004648D02*
X032202Y004127D01*
X032202Y004648D01*
X032398Y004648D02*
X032398Y004127D01*
X032659Y004127D01*
X032745Y004214D01*
X032745Y004561D01*
X032659Y004648D01*
X032398Y004648D01*
X031854Y004648D02*
X031854Y004127D01*
X034577Y011576D02*
X034577Y011923D01*
X034404Y011750D02*
X034751Y011750D01*
X034947Y011750D02*
X035121Y011836D01*
X035208Y011836D01*
X035295Y011750D01*
X035295Y011576D01*
X035208Y011489D01*
X035034Y011489D01*
X034947Y011576D01*
X034947Y011750D02*
X034947Y012010D01*
X035295Y012010D01*
X035491Y012010D02*
X035491Y011663D01*
X035665Y011489D01*
X035839Y011663D01*
X035839Y012010D01*
X035752Y012473D02*
X035578Y012473D01*
X035491Y012560D01*
X035295Y012647D02*
X035295Y012994D01*
X035491Y012908D02*
X035578Y012994D01*
X035752Y012994D01*
X035838Y012908D01*
X035838Y012821D01*
X035752Y012734D01*
X035838Y012647D01*
X035838Y012560D01*
X035752Y012473D01*
X035752Y012734D02*
X035665Y012734D01*
X035295Y012647D02*
X035121Y012473D01*
X034947Y012647D01*
X034947Y012994D01*
X034751Y012908D02*
X034751Y012821D01*
X034664Y012734D01*
X034751Y012647D01*
X034751Y012560D01*
X034664Y012473D01*
X034490Y012473D01*
X034404Y012560D01*
X034577Y012734D02*
X034664Y012734D01*
X034751Y012908D02*
X034664Y012994D01*
X034490Y012994D01*
X034404Y012908D01*
X034207Y012734D02*
X033860Y012734D01*
X034034Y012908D02*
X034034Y012560D01*
X034491Y013536D02*
X034664Y013536D01*
X034751Y013623D01*
X034751Y013797D01*
X034577Y013797D01*
X034404Y013971D02*
X034404Y013623D01*
X034491Y013536D01*
X034404Y013971D02*
X034491Y014057D01*
X034664Y014057D01*
X034751Y013971D01*
X034947Y014057D02*
X035295Y013536D01*
X035295Y014057D01*
X035491Y014057D02*
X035491Y013536D01*
X035752Y013536D01*
X035839Y013623D01*
X035839Y013971D01*
X035752Y014057D01*
X035491Y014057D01*
X034947Y014057D02*
X034947Y013536D01*
D14*
X016100Y028743D02*
X016100Y029441D01*
X015635Y029441D02*
X015635Y028743D01*
X015375Y028743D02*
X015375Y029209D01*
X015143Y029441D01*
X014910Y029209D01*
X014910Y028743D01*
X014650Y028860D02*
X014534Y028743D01*
X014301Y028743D01*
X014185Y028860D01*
X014185Y029325D01*
X014301Y029441D01*
X014534Y029441D01*
X014650Y029325D01*
X014910Y029092D02*
X015375Y029092D01*
X015635Y029441D02*
X016100Y028743D01*
X011823Y036420D02*
X011358Y036420D01*
X011241Y036537D01*
X011241Y036769D01*
X011358Y036886D01*
X011474Y037145D02*
X011241Y037378D01*
X011474Y037611D01*
X011939Y037611D01*
X011939Y037870D02*
X011241Y037870D01*
X011939Y038336D01*
X011241Y038336D01*
X011590Y037611D02*
X011590Y037145D01*
X011474Y037145D02*
X011939Y037145D01*
X011823Y036886D02*
X011939Y036769D01*
X011939Y036537D01*
X011823Y036420D01*
X013326Y019582D02*
X013210Y019466D01*
X013210Y019233D01*
X013326Y019117D01*
X013442Y019117D01*
X013559Y019233D01*
X013559Y019466D01*
X013675Y019582D01*
X013791Y019582D01*
X013908Y019466D01*
X013908Y019233D01*
X013791Y019117D01*
X013908Y018857D02*
X013675Y018625D01*
X013675Y018741D02*
X013675Y018392D01*
X013908Y018392D02*
X013210Y018392D01*
X013210Y018741D01*
X013326Y018857D01*
X013559Y018857D01*
X013675Y018741D01*
X013791Y018132D02*
X013326Y018132D01*
X013210Y018016D01*
X013210Y017783D01*
X013326Y017667D01*
X013791Y017667D01*
X013908Y017783D01*
X013908Y018016D01*
X013791Y018132D01*
X013791Y017407D02*
X013908Y017291D01*
X013908Y017058D01*
X013791Y016942D01*
X013559Y017058D02*
X013559Y017291D01*
X013675Y017407D01*
X013791Y017407D01*
X013559Y017058D02*
X013442Y016942D01*
X013326Y016942D01*
X013210Y017058D01*
X013210Y017291D01*
X013326Y017407D01*
X013210Y016682D02*
X013908Y016682D01*
X013210Y016217D01*
X013908Y016217D01*
X013908Y015957D02*
X013908Y015492D01*
X013210Y015492D01*
X013210Y015957D01*
X013559Y015725D02*
X013559Y015492D01*
X013675Y015232D02*
X013559Y015116D01*
X013559Y014883D01*
X013442Y014767D01*
X013326Y014767D01*
X013210Y014883D01*
X013210Y015116D01*
X013326Y015232D01*
X013675Y015232D02*
X013791Y015232D01*
X013908Y015116D01*
X013908Y014883D01*
X013791Y014767D01*
X013908Y009639D02*
X013407Y009639D01*
X013407Y009305D02*
X013908Y009639D01*
X013908Y009305D02*
X013407Y009305D01*
X013407Y009110D02*
X013407Y008943D01*
X013407Y009026D02*
X013908Y009026D01*
X013908Y008943D02*
X013908Y009110D01*
X013908Y008189D02*
X013908Y007856D01*
X013407Y007856D01*
X013574Y007646D02*
X013908Y007646D01*
X013657Y007646D02*
X013657Y007312D01*
X013574Y007312D02*
X013908Y007312D01*
X013908Y007102D02*
X013407Y007102D01*
X013574Y007312D02*
X013407Y007479D01*
X013574Y007646D01*
X013908Y007102D02*
X013407Y006768D01*
X013908Y006768D01*
X013824Y006558D02*
X013657Y006558D01*
X013657Y006391D01*
X013490Y006224D02*
X013824Y006224D01*
X013908Y006308D01*
X013908Y006475D01*
X013824Y006558D01*
X013490Y006558D02*
X013407Y006475D01*
X013407Y006308D01*
X013490Y006224D01*
X013407Y006029D02*
X013407Y005862D01*
X013407Y005945D02*
X013908Y005945D01*
X013908Y005862D02*
X013908Y006029D01*
X013824Y005652D02*
X013908Y005569D01*
X013908Y005402D01*
X013824Y005318D01*
X013657Y005402D02*
X013657Y005569D01*
X013741Y005652D01*
X013824Y005652D01*
X013657Y005402D02*
X013574Y005318D01*
X013490Y005318D01*
X013407Y005402D01*
X013407Y005569D01*
X013490Y005652D01*
D15*
X037634Y018325D02*
X037857Y018548D01*
X037634Y018771D01*
X038302Y018771D01*
X038191Y019050D02*
X038302Y019161D01*
X038302Y019384D01*
X038191Y019496D01*
X038302Y019775D02*
X037634Y019775D01*
X038302Y020221D01*
X037634Y020221D01*
X037746Y019496D02*
X037634Y019384D01*
X037634Y019161D01*
X037746Y019050D01*
X038191Y019050D01*
X038302Y018325D02*
X037634Y018325D01*
X037634Y021225D02*
X037634Y021559D01*
X037746Y021671D01*
X037857Y021671D01*
X037968Y021559D01*
X037968Y021225D01*
X038302Y021225D02*
X037634Y021225D01*
X037968Y021559D02*
X038080Y021671D01*
X038191Y021671D01*
X038302Y021559D01*
X038302Y021225D01*
X038302Y021950D02*
X037857Y021950D01*
X038080Y021950D02*
X037857Y022173D01*
X037857Y022284D01*
X037968Y022554D02*
X037857Y022666D01*
X037857Y022888D01*
X037968Y023000D01*
X038080Y023000D01*
X038080Y022554D01*
X038191Y022554D02*
X037968Y022554D01*
X038191Y022554D02*
X038302Y022666D01*
X038302Y022888D01*
X038191Y023279D02*
X038080Y023391D01*
X038080Y023725D01*
X037968Y023725D02*
X038302Y023725D01*
X038302Y023391D01*
X038191Y023279D01*
X037857Y023391D02*
X037857Y023613D01*
X037968Y023725D01*
X038080Y024004D02*
X037857Y024338D01*
X037968Y024609D02*
X038191Y024609D01*
X038302Y024720D01*
X038302Y024943D01*
X038191Y025054D01*
X037968Y025054D01*
X037857Y024943D01*
X037857Y024720D01*
X037968Y024609D01*
X038302Y024338D02*
X038080Y024004D01*
X038302Y024004D02*
X037634Y024004D01*
X037857Y025334D02*
X038191Y025334D01*
X038302Y025445D01*
X038302Y025779D01*
X037857Y025779D01*
X037857Y026059D02*
X037857Y026281D01*
X037746Y026170D02*
X038191Y026170D01*
X038302Y026281D01*
X037857Y027267D02*
X038302Y027490D01*
X037857Y027712D01*
X037857Y027992D02*
X037634Y028215D01*
X038302Y028215D01*
X038302Y028437D02*
X038302Y027992D01*
X038302Y028717D02*
X038302Y028828D01*
X038191Y028828D01*
X038191Y028717D01*
X038302Y028717D01*
X038191Y029079D02*
X037746Y029525D01*
X037634Y029413D01*
X037634Y029191D01*
X037746Y029079D01*
X038191Y029079D01*
X038302Y029191D01*
X038302Y029413D01*
X038191Y029525D01*
X037746Y029525D01*
X031545Y041160D02*
X031211Y041160D01*
X031211Y041828D01*
X031545Y041828D01*
X031656Y041716D01*
X031656Y041271D01*
X031545Y041160D01*
X030931Y041160D02*
X030931Y041828D01*
X030486Y041828D02*
X030486Y041160D01*
X030206Y041271D02*
X030206Y041494D01*
X029983Y041494D01*
X029761Y041716D02*
X029761Y041271D01*
X029872Y041160D01*
X030095Y041160D01*
X030206Y041271D01*
X030206Y041716D02*
X030095Y041828D01*
X029872Y041828D01*
X029761Y041716D01*
X030486Y041828D02*
X030931Y041160D01*
X024507Y041382D02*
X024284Y041160D01*
X024062Y041382D01*
X024062Y041828D01*
X023782Y041716D02*
X023671Y041828D01*
X023448Y041828D01*
X023337Y041716D01*
X023782Y041605D02*
X023337Y041160D01*
X023782Y041160D01*
X023782Y041605D02*
X023782Y041716D01*
X024507Y041828D02*
X024507Y041382D01*
X023057Y041160D02*
X022612Y041160D01*
X022834Y041160D02*
X022834Y041828D01*
X022612Y041605D01*
X022332Y041494D02*
X021887Y041494D01*
X022109Y041716D02*
X022109Y041271D01*
D16*
X008126Y045431D02*
X008128Y045497D01*
X008134Y045563D01*
X008144Y045628D01*
X008157Y045692D01*
X008175Y045756D01*
X008196Y045818D01*
X008221Y045879D01*
X008250Y045939D01*
X008282Y045996D01*
X008317Y046052D01*
X008356Y046105D01*
X008398Y046156D01*
X008443Y046204D01*
X008491Y046250D01*
X008541Y046293D01*
X008594Y046332D01*
X008649Y046368D01*
X008706Y046401D01*
X008765Y046431D01*
X008825Y046457D01*
X008887Y046479D01*
X008951Y046498D01*
X009015Y046512D01*
X009080Y046523D01*
X009146Y046530D01*
X009212Y046533D01*
X009277Y046532D01*
X009343Y046527D01*
X009409Y046518D01*
X009473Y046505D01*
X009537Y046489D01*
X009600Y046468D01*
X009661Y046444D01*
X009721Y046417D01*
X009779Y046385D01*
X009835Y046351D01*
X009889Y046313D01*
X009941Y046272D01*
X009990Y046228D01*
X010036Y046181D01*
X010079Y046131D01*
X010120Y046079D01*
X010157Y046024D01*
X010190Y045968D01*
X010221Y045909D01*
X010248Y045849D01*
X010271Y045787D01*
X010290Y045724D01*
X010306Y045660D01*
X010318Y045595D01*
X010326Y045530D01*
X010330Y045464D01*
X010330Y045398D01*
X010326Y045332D01*
X010318Y045267D01*
X010306Y045202D01*
X010290Y045138D01*
X010271Y045075D01*
X010248Y045013D01*
X010221Y044953D01*
X010190Y044894D01*
X010157Y044838D01*
X010120Y044783D01*
X010079Y044731D01*
X010036Y044681D01*
X009990Y044634D01*
X009941Y044590D01*
X009889Y044549D01*
X009835Y044511D01*
X009779Y044477D01*
X009721Y044445D01*
X009661Y044418D01*
X009600Y044394D01*
X009537Y044373D01*
X009473Y044357D01*
X009409Y044344D01*
X009343Y044335D01*
X009277Y044330D01*
X009212Y044329D01*
X009146Y044332D01*
X009080Y044339D01*
X009015Y044350D01*
X008951Y044364D01*
X008887Y044383D01*
X008825Y044405D01*
X008765Y044431D01*
X008706Y044461D01*
X008649Y044494D01*
X008594Y044530D01*
X008541Y044569D01*
X008491Y044612D01*
X008443Y044658D01*
X008398Y044706D01*
X008356Y044757D01*
X008317Y044810D01*
X008282Y044866D01*
X008250Y044923D01*
X008221Y044983D01*
X008196Y045044D01*
X008175Y045106D01*
X008157Y045170D01*
X008144Y045234D01*
X008134Y045299D01*
X008128Y045365D01*
X008126Y045431D01*
X035685Y045431D02*
X035687Y045497D01*
X035693Y045563D01*
X035703Y045628D01*
X035716Y045692D01*
X035734Y045756D01*
X035755Y045818D01*
X035780Y045879D01*
X035809Y045939D01*
X035841Y045996D01*
X035876Y046052D01*
X035915Y046105D01*
X035957Y046156D01*
X036002Y046204D01*
X036050Y046250D01*
X036100Y046293D01*
X036153Y046332D01*
X036208Y046368D01*
X036265Y046401D01*
X036324Y046431D01*
X036384Y046457D01*
X036446Y046479D01*
X036510Y046498D01*
X036574Y046512D01*
X036639Y046523D01*
X036705Y046530D01*
X036771Y046533D01*
X036836Y046532D01*
X036902Y046527D01*
X036968Y046518D01*
X037032Y046505D01*
X037096Y046489D01*
X037159Y046468D01*
X037220Y046444D01*
X037280Y046417D01*
X037338Y046385D01*
X037394Y046351D01*
X037448Y046313D01*
X037500Y046272D01*
X037549Y046228D01*
X037595Y046181D01*
X037638Y046131D01*
X037679Y046079D01*
X037716Y046024D01*
X037749Y045968D01*
X037780Y045909D01*
X037807Y045849D01*
X037830Y045787D01*
X037849Y045724D01*
X037865Y045660D01*
X037877Y045595D01*
X037885Y045530D01*
X037889Y045464D01*
X037889Y045398D01*
X037885Y045332D01*
X037877Y045267D01*
X037865Y045202D01*
X037849Y045138D01*
X037830Y045075D01*
X037807Y045013D01*
X037780Y044953D01*
X037749Y044894D01*
X037716Y044838D01*
X037679Y044783D01*
X037638Y044731D01*
X037595Y044681D01*
X037549Y044634D01*
X037500Y044590D01*
X037448Y044549D01*
X037394Y044511D01*
X037338Y044477D01*
X037280Y044445D01*
X037220Y044418D01*
X037159Y044394D01*
X037096Y044373D01*
X037032Y044357D01*
X036968Y044344D01*
X036902Y044335D01*
X036836Y044330D01*
X036771Y044329D01*
X036705Y044332D01*
X036639Y044339D01*
X036574Y044350D01*
X036510Y044364D01*
X036446Y044383D01*
X036384Y044405D01*
X036324Y044431D01*
X036265Y044461D01*
X036208Y044494D01*
X036153Y044530D01*
X036100Y044569D01*
X036050Y044612D01*
X036002Y044658D01*
X035957Y044706D01*
X035915Y044757D01*
X035876Y044810D01*
X035841Y044866D01*
X035809Y044923D01*
X035780Y044983D01*
X035755Y045044D01*
X035734Y045106D01*
X035716Y045170D01*
X035703Y045234D01*
X035693Y045299D01*
X035687Y045365D01*
X035685Y045431D01*
X035685Y002123D02*
X035687Y002189D01*
X035693Y002255D01*
X035703Y002320D01*
X035716Y002384D01*
X035734Y002448D01*
X035755Y002510D01*
X035780Y002571D01*
X035809Y002631D01*
X035841Y002688D01*
X035876Y002744D01*
X035915Y002797D01*
X035957Y002848D01*
X036002Y002896D01*
X036050Y002942D01*
X036100Y002985D01*
X036153Y003024D01*
X036208Y003060D01*
X036265Y003093D01*
X036324Y003123D01*
X036384Y003149D01*
X036446Y003171D01*
X036510Y003190D01*
X036574Y003204D01*
X036639Y003215D01*
X036705Y003222D01*
X036771Y003225D01*
X036836Y003224D01*
X036902Y003219D01*
X036968Y003210D01*
X037032Y003197D01*
X037096Y003181D01*
X037159Y003160D01*
X037220Y003136D01*
X037280Y003109D01*
X037338Y003077D01*
X037394Y003043D01*
X037448Y003005D01*
X037500Y002964D01*
X037549Y002920D01*
X037595Y002873D01*
X037638Y002823D01*
X037679Y002771D01*
X037716Y002716D01*
X037749Y002660D01*
X037780Y002601D01*
X037807Y002541D01*
X037830Y002479D01*
X037849Y002416D01*
X037865Y002352D01*
X037877Y002287D01*
X037885Y002222D01*
X037889Y002156D01*
X037889Y002090D01*
X037885Y002024D01*
X037877Y001959D01*
X037865Y001894D01*
X037849Y001830D01*
X037830Y001767D01*
X037807Y001705D01*
X037780Y001645D01*
X037749Y001586D01*
X037716Y001530D01*
X037679Y001475D01*
X037638Y001423D01*
X037595Y001373D01*
X037549Y001326D01*
X037500Y001282D01*
X037448Y001241D01*
X037394Y001203D01*
X037338Y001169D01*
X037280Y001137D01*
X037220Y001110D01*
X037159Y001086D01*
X037096Y001065D01*
X037032Y001049D01*
X036968Y001036D01*
X036902Y001027D01*
X036836Y001022D01*
X036771Y001021D01*
X036705Y001024D01*
X036639Y001031D01*
X036574Y001042D01*
X036510Y001056D01*
X036446Y001075D01*
X036384Y001097D01*
X036324Y001123D01*
X036265Y001153D01*
X036208Y001186D01*
X036153Y001222D01*
X036100Y001261D01*
X036050Y001304D01*
X036002Y001350D01*
X035957Y001398D01*
X035915Y001449D01*
X035876Y001502D01*
X035841Y001558D01*
X035809Y001615D01*
X035780Y001675D01*
X035755Y001736D01*
X035734Y001798D01*
X035716Y001862D01*
X035703Y001926D01*
X035693Y001991D01*
X035687Y002057D01*
X035685Y002123D01*
X008126Y002123D02*
X008128Y002189D01*
X008134Y002255D01*
X008144Y002320D01*
X008157Y002384D01*
X008175Y002448D01*
X008196Y002510D01*
X008221Y002571D01*
X008250Y002631D01*
X008282Y002688D01*
X008317Y002744D01*
X008356Y002797D01*
X008398Y002848D01*
X008443Y002896D01*
X008491Y002942D01*
X008541Y002985D01*
X008594Y003024D01*
X008649Y003060D01*
X008706Y003093D01*
X008765Y003123D01*
X008825Y003149D01*
X008887Y003171D01*
X008951Y003190D01*
X009015Y003204D01*
X009080Y003215D01*
X009146Y003222D01*
X009212Y003225D01*
X009277Y003224D01*
X009343Y003219D01*
X009409Y003210D01*
X009473Y003197D01*
X009537Y003181D01*
X009600Y003160D01*
X009661Y003136D01*
X009721Y003109D01*
X009779Y003077D01*
X009835Y003043D01*
X009889Y003005D01*
X009941Y002964D01*
X009990Y002920D01*
X010036Y002873D01*
X010079Y002823D01*
X010120Y002771D01*
X010157Y002716D01*
X010190Y002660D01*
X010221Y002601D01*
X010248Y002541D01*
X010271Y002479D01*
X010290Y002416D01*
X010306Y002352D01*
X010318Y002287D01*
X010326Y002222D01*
X010330Y002156D01*
X010330Y002090D01*
X010326Y002024D01*
X010318Y001959D01*
X010306Y001894D01*
X010290Y001830D01*
X010271Y001767D01*
X010248Y001705D01*
X010221Y001645D01*
X010190Y001586D01*
X010157Y001530D01*
X010120Y001475D01*
X010079Y001423D01*
X010036Y001373D01*
X009990Y001326D01*
X009941Y001282D01*
X009889Y001241D01*
X009835Y001203D01*
X009779Y001169D01*
X009721Y001137D01*
X009661Y001110D01*
X009600Y001086D01*
X009537Y001065D01*
X009473Y001049D01*
X009409Y001036D01*
X009343Y001027D01*
X009277Y001022D01*
X009212Y001021D01*
X009146Y001024D01*
X009080Y001031D01*
X009015Y001042D01*
X008951Y001056D01*
X008887Y001075D01*
X008825Y001097D01*
X008765Y001123D01*
X008706Y001153D01*
X008649Y001186D01*
X008594Y001222D01*
X008541Y001261D01*
X008491Y001304D01*
X008443Y001350D01*
X008398Y001398D01*
X008356Y001449D01*
X008317Y001502D01*
X008282Y001558D01*
X008250Y001615D01*
X008221Y001675D01*
X008196Y001736D01*
X008175Y001798D01*
X008157Y001862D01*
X008144Y001926D01*
X008134Y001991D01*
X008128Y002057D01*
X008126Y002123D01*
D17*
X013657Y023974D02*
X013657Y024171D01*
X013657Y028108D01*
X013657Y028305D01*
X016413Y028305D01*
X016413Y028108D01*
X016413Y026434D01*
X016709Y026434D01*
X016709Y025844D01*
X016413Y025844D01*
X016413Y024171D01*
X016413Y023974D01*
X013657Y023974D01*
X013953Y024466D02*
X013953Y025155D01*
X014248Y025450D01*
X014937Y025450D01*
X014937Y024466D01*
X013953Y024466D01*
X013953Y025647D02*
X013953Y026336D01*
X014248Y026631D01*
X014937Y026631D01*
X014937Y025647D01*
X013953Y025647D01*
X015134Y025647D02*
X015134Y026336D01*
X015429Y026631D01*
X016118Y026631D01*
X016118Y025647D01*
X015134Y025647D01*
X015134Y025450D02*
X016118Y025450D01*
X016118Y024466D01*
X015429Y024466D01*
X015134Y024761D01*
X015134Y025450D01*
X015134Y026828D02*
X015134Y027517D01*
X015429Y027812D01*
X016118Y027812D01*
X016118Y026828D01*
X015134Y026828D01*
X014937Y026828D02*
X014937Y027812D01*
X013953Y027812D01*
X013953Y027123D01*
X014248Y026828D01*
X014937Y026828D01*
X016413Y026434D02*
X016413Y025844D01*
D18*
X016413Y024171D02*
X013657Y024171D01*
X013657Y028108D02*
X016413Y028108D01*
D19*
X017342Y026336D02*
X017184Y026179D01*
X017184Y026100D01*
X017263Y026021D01*
X017341Y026021D01*
X017401Y025883D02*
X017558Y026040D01*
X017716Y026040D01*
X017716Y025883D01*
X017558Y025725D01*
X017657Y025626D02*
X017894Y025863D01*
X017815Y025469D01*
X018051Y025705D01*
X018150Y025606D02*
X017914Y025370D01*
X018071Y025213D01*
X017716Y024859D02*
X017716Y024702D01*
X017558Y024544D01*
X017657Y024445D02*
X017894Y024682D01*
X017815Y024288D01*
X018051Y024524D01*
X018150Y024425D02*
X017914Y024189D01*
X018032Y024307D02*
X018189Y024150D01*
X018307Y024268D02*
X018071Y024032D01*
X017677Y024662D02*
X017519Y024820D01*
X017558Y024859D02*
X017716Y024859D01*
X017558Y024859D02*
X017401Y024702D01*
X017341Y024840D02*
X017263Y024840D01*
X017184Y024919D01*
X017184Y024997D01*
X017342Y025155D01*
X017420Y025155D01*
X017499Y025076D01*
X017499Y024997D01*
X017677Y025843D02*
X017519Y026001D01*
X017499Y026179D02*
X017499Y026257D01*
X017420Y026336D01*
X017342Y026336D01*
X013362Y025900D02*
X013205Y026057D01*
X013126Y026057D01*
X013047Y025979D01*
X013047Y025900D01*
X013126Y025821D01*
X013205Y025900D01*
X013362Y025900D02*
X013362Y025821D01*
X013283Y025743D01*
X013205Y025743D01*
X013145Y025604D02*
X012909Y025840D01*
X012752Y025683D02*
X012988Y025447D01*
X012889Y025348D02*
X012771Y025230D01*
X012692Y025230D01*
X012535Y025387D01*
X012535Y025466D01*
X012653Y025584D01*
X012889Y025348D01*
X012752Y025683D02*
X013145Y025604D01*
X013126Y024798D02*
X013283Y024640D01*
X013126Y024640D02*
X013283Y024798D01*
X013066Y024502D02*
X013066Y024344D01*
X012830Y024581D01*
X012909Y024659D02*
X012752Y024502D01*
X012653Y024403D02*
X012653Y024088D01*
X012692Y024049D01*
X012771Y024049D01*
X012849Y024127D01*
X012849Y024206D01*
X012653Y024403D02*
X012495Y024246D01*
X012475Y024068D02*
X012318Y024068D01*
X012318Y023911D01*
X012475Y023753D01*
X012632Y023910D02*
X012475Y024068D01*
X017776Y033579D02*
X017618Y033736D01*
X017855Y033972D01*
X017756Y034071D02*
X017519Y033835D01*
X017598Y034229D01*
X017362Y033993D01*
X017263Y034092D02*
X017421Y034249D01*
X017421Y034406D01*
X017263Y034406D01*
X017106Y034249D01*
X017046Y034387D02*
X016968Y034387D01*
X016889Y034466D01*
X016889Y034545D01*
X017046Y034702D01*
X017125Y034702D01*
X017204Y034623D01*
X017204Y034545D01*
X017224Y034367D02*
X017381Y034210D01*
X015892Y034364D02*
X015558Y034364D01*
X015558Y034475D02*
X015558Y034253D01*
X015780Y034475D02*
X015892Y034364D01*
X014809Y034646D02*
X014753Y034758D01*
X014642Y034869D01*
X014642Y034702D01*
X014586Y034646D01*
X014531Y034646D01*
X014475Y034702D01*
X014475Y034813D01*
X014531Y034869D01*
X014642Y034869D01*
X013559Y035959D02*
X013559Y036038D01*
X013402Y036195D01*
X013323Y036195D01*
X013244Y036116D01*
X013244Y036038D01*
X013106Y035978D02*
X013263Y035821D01*
X013263Y035663D01*
X013106Y035663D01*
X012948Y035821D01*
X012850Y035722D02*
X013086Y035486D01*
X012692Y035564D01*
X012928Y035328D01*
X012829Y035229D02*
X012593Y035466D01*
X012711Y035347D02*
X012554Y035190D01*
X012672Y035072D02*
X012436Y035308D01*
X013066Y035703D02*
X013224Y035860D01*
X013402Y035880D02*
X013480Y035880D01*
X013559Y035959D01*
X012672Y037336D02*
X012514Y037493D01*
X012514Y037651D01*
X012672Y037651D01*
X012829Y037493D01*
X012889Y037631D02*
X012968Y037631D01*
X013046Y037710D01*
X013046Y037789D01*
X012889Y037631D02*
X012850Y037671D01*
X012850Y037986D01*
X012692Y037828D01*
X012948Y038085D02*
X013106Y038242D01*
X013027Y038163D02*
X013263Y037927D01*
X013263Y038085D01*
X013323Y038223D02*
X013480Y038380D01*
X013480Y038223D02*
X013323Y038380D01*
X014475Y039328D02*
X014531Y039272D01*
X014753Y039272D01*
X014809Y039328D01*
X014809Y039439D01*
X014753Y039495D01*
X014698Y039495D01*
X014642Y039439D01*
X014642Y039272D01*
X014475Y039328D02*
X014475Y039439D01*
X014531Y039495D01*
X015558Y039919D02*
X015558Y040030D01*
X015613Y040086D01*
X015725Y040086D02*
X015780Y039974D01*
X015780Y039919D01*
X015725Y039863D01*
X015613Y039863D01*
X015558Y039919D01*
X015725Y040086D02*
X015892Y040086D01*
X015892Y039863D01*
X017046Y036966D02*
X016889Y036808D01*
X016889Y036730D01*
X016968Y036651D01*
X017046Y036651D01*
X017125Y036730D01*
X017046Y036808D01*
X017204Y036808D02*
X017204Y036887D01*
X017125Y036966D01*
X017046Y036966D01*
X017342Y036749D02*
X017106Y036513D01*
X017263Y036355D02*
X017342Y036749D01*
X017499Y036591D02*
X017263Y036355D01*
X017362Y036256D02*
X017480Y036138D01*
X017559Y036138D01*
X017716Y036296D01*
X017716Y036374D01*
X017598Y036493D01*
X017362Y036256D01*
X017565Y044931D02*
X017065Y044931D01*
X016815Y045181D01*
X016565Y044931D01*
X016065Y044931D01*
X015815Y045181D01*
X015565Y044931D01*
X015065Y044931D01*
X014815Y045181D01*
X014815Y045681D01*
X015065Y045931D01*
X015565Y045931D01*
X015815Y045681D01*
X016065Y045931D01*
X016565Y045931D01*
X016815Y045681D01*
X017065Y045931D01*
X017565Y045931D01*
X017815Y045681D01*
X017815Y045181D01*
X017565Y044931D01*
X036931Y014253D02*
X036681Y014003D01*
X036681Y013503D01*
X036931Y013253D01*
X036681Y013003D01*
X036681Y012503D01*
X036931Y012253D01*
X036681Y012003D01*
X036681Y011503D01*
X036931Y011253D01*
X037431Y011253D01*
X037681Y011503D01*
X037681Y012003D01*
X037431Y012253D01*
X037681Y012503D01*
X037681Y013003D01*
X037431Y013253D01*
X037681Y013503D01*
X037681Y014003D01*
X037431Y014253D01*
X036931Y014253D01*
X025291Y008342D02*
X025291Y006842D01*
X025041Y006592D01*
X024541Y006592D01*
X024291Y006842D01*
X024041Y006592D01*
X023541Y006592D01*
X023291Y006842D01*
X023041Y006592D01*
X022541Y006592D01*
X022291Y006842D01*
X022041Y006592D01*
X021541Y006592D01*
X021291Y006842D01*
X021041Y006592D01*
X020541Y006592D01*
X020291Y006842D01*
X020041Y006592D01*
X019541Y006592D01*
X019291Y006842D01*
X019041Y006592D01*
X018541Y006592D01*
X018291Y006842D01*
X018291Y008342D01*
X018541Y008592D01*
X019041Y008592D01*
X019291Y008342D01*
X019541Y008592D01*
X020041Y008592D01*
X020291Y008342D01*
X020541Y008592D01*
X021041Y008592D01*
X021291Y008342D01*
X021541Y008592D01*
X022041Y008592D01*
X022291Y008342D01*
X022541Y008592D01*
X023041Y008592D01*
X023291Y008342D01*
X023541Y008592D01*
X024041Y008592D01*
X024291Y008342D01*
X024541Y008592D01*
X025041Y008592D01*
X025291Y008342D01*
D20*
X017004Y024958D02*
X015626Y024958D01*
X015626Y026139D02*
X017004Y026139D01*
X014445Y026139D02*
X013362Y026139D01*
X013362Y024958D02*
X014445Y024958D01*
X016866Y034722D02*
X016630Y034958D01*
X015764Y034958D01*
X015599Y034976D02*
X015601Y035001D01*
X015607Y035025D01*
X015616Y035047D01*
X015629Y035068D01*
X015645Y035087D01*
X015664Y035103D01*
X015685Y035116D01*
X015707Y035125D01*
X015731Y035131D01*
X015756Y035133D01*
X015781Y035131D01*
X015805Y035125D01*
X015827Y035116D01*
X015848Y035103D01*
X015867Y035087D01*
X015883Y035068D01*
X015896Y035047D01*
X015905Y035025D01*
X015911Y035001D01*
X015913Y034976D01*
X015911Y034951D01*
X015905Y034927D01*
X015896Y034905D01*
X015883Y034884D01*
X015867Y034865D01*
X015848Y034849D01*
X015827Y034836D01*
X015805Y034827D01*
X015781Y034821D01*
X015756Y034819D01*
X015731Y034821D01*
X015707Y034827D01*
X015685Y034836D01*
X015664Y034849D01*
X015645Y034865D01*
X015629Y034884D01*
X015616Y034905D01*
X015607Y034927D01*
X015601Y034951D01*
X015599Y034976D01*
X015599Y036066D02*
X015601Y036091D01*
X015607Y036115D01*
X015616Y036137D01*
X015629Y036158D01*
X015645Y036177D01*
X015664Y036193D01*
X015685Y036206D01*
X015707Y036215D01*
X015731Y036221D01*
X015756Y036223D01*
X015781Y036221D01*
X015805Y036215D01*
X015827Y036206D01*
X015848Y036193D01*
X015867Y036177D01*
X015883Y036158D01*
X015896Y036137D01*
X015905Y036115D01*
X015911Y036091D01*
X015913Y036066D01*
X015911Y036041D01*
X015905Y036017D01*
X015896Y035995D01*
X015883Y035974D01*
X015867Y035955D01*
X015848Y035939D01*
X015827Y035926D01*
X015805Y035917D01*
X015781Y035911D01*
X015756Y035909D01*
X015731Y035911D01*
X015707Y035917D01*
X015685Y035926D01*
X015664Y035939D01*
X015645Y035955D01*
X015629Y035974D01*
X015616Y035995D01*
X015607Y036017D01*
X015601Y036041D01*
X015599Y036066D01*
X014508Y035521D02*
X014510Y035546D01*
X014516Y035570D01*
X014525Y035592D01*
X014538Y035613D01*
X014554Y035632D01*
X014573Y035648D01*
X014594Y035661D01*
X014616Y035670D01*
X014640Y035676D01*
X014665Y035678D01*
X014690Y035676D01*
X014714Y035670D01*
X014736Y035661D01*
X014757Y035648D01*
X014776Y035632D01*
X014792Y035613D01*
X014805Y035592D01*
X014814Y035570D01*
X014820Y035546D01*
X014822Y035521D01*
X014820Y035496D01*
X014814Y035472D01*
X014805Y035450D01*
X014792Y035429D01*
X014776Y035410D01*
X014757Y035394D01*
X014736Y035381D01*
X014714Y035372D01*
X014690Y035366D01*
X014665Y035364D01*
X014640Y035366D01*
X014616Y035372D01*
X014594Y035381D01*
X014573Y035394D01*
X014554Y035410D01*
X014538Y035429D01*
X014525Y035450D01*
X014516Y035472D01*
X014510Y035496D01*
X014508Y035521D01*
X014661Y036612D02*
X013992Y036612D01*
X013559Y036179D01*
X014508Y036612D02*
X014510Y036637D01*
X014516Y036661D01*
X014525Y036683D01*
X014538Y036704D01*
X014554Y036723D01*
X014573Y036739D01*
X014594Y036752D01*
X014616Y036761D01*
X014640Y036767D01*
X014665Y036769D01*
X014690Y036767D01*
X014714Y036761D01*
X014736Y036752D01*
X014757Y036739D01*
X014776Y036723D01*
X014792Y036704D01*
X014805Y036683D01*
X014814Y036661D01*
X014820Y036637D01*
X014822Y036612D01*
X014820Y036587D01*
X014814Y036563D01*
X014805Y036541D01*
X014792Y036520D01*
X014776Y036501D01*
X014757Y036485D01*
X014736Y036472D01*
X014714Y036463D01*
X014690Y036457D01*
X014665Y036455D01*
X014640Y036457D01*
X014616Y036463D01*
X014594Y036472D01*
X014573Y036485D01*
X014554Y036501D01*
X014538Y036520D01*
X014525Y036541D01*
X014516Y036563D01*
X014510Y036587D01*
X014508Y036612D01*
X014508Y037702D02*
X014510Y037727D01*
X014516Y037751D01*
X014525Y037773D01*
X014538Y037794D01*
X014554Y037813D01*
X014573Y037829D01*
X014594Y037842D01*
X014616Y037851D01*
X014640Y037857D01*
X014665Y037859D01*
X014690Y037857D01*
X014714Y037851D01*
X014736Y037842D01*
X014757Y037829D01*
X014776Y037813D01*
X014792Y037794D01*
X014805Y037773D01*
X014814Y037751D01*
X014820Y037727D01*
X014822Y037702D01*
X014820Y037677D01*
X014814Y037653D01*
X014805Y037631D01*
X014792Y037610D01*
X014776Y037591D01*
X014757Y037575D01*
X014736Y037562D01*
X014714Y037553D01*
X014690Y037547D01*
X014665Y037545D01*
X014640Y037547D01*
X014616Y037553D01*
X014594Y037562D01*
X014573Y037575D01*
X014554Y037591D01*
X014538Y037610D01*
X014525Y037631D01*
X014516Y037653D01*
X014510Y037677D01*
X014508Y037702D01*
X014661Y038777D02*
X013874Y038777D01*
X013559Y038462D01*
X014508Y038793D02*
X014510Y038818D01*
X014516Y038842D01*
X014525Y038864D01*
X014538Y038885D01*
X014554Y038904D01*
X014573Y038920D01*
X014594Y038933D01*
X014616Y038942D01*
X014640Y038948D01*
X014665Y038950D01*
X014690Y038948D01*
X014714Y038942D01*
X014736Y038933D01*
X014757Y038920D01*
X014776Y038904D01*
X014792Y038885D01*
X014805Y038864D01*
X014814Y038842D01*
X014820Y038818D01*
X014822Y038793D01*
X014820Y038768D01*
X014814Y038744D01*
X014805Y038722D01*
X014792Y038701D01*
X014776Y038682D01*
X014757Y038666D01*
X014736Y038653D01*
X014714Y038644D01*
X014690Y038638D01*
X014665Y038636D01*
X014640Y038638D01*
X014616Y038644D01*
X014594Y038653D01*
X014573Y038666D01*
X014554Y038682D01*
X014538Y038701D01*
X014525Y038722D01*
X014516Y038744D01*
X014510Y038768D01*
X014508Y038793D01*
X015599Y039338D02*
X015601Y039363D01*
X015607Y039387D01*
X015616Y039409D01*
X015629Y039430D01*
X015645Y039449D01*
X015664Y039465D01*
X015685Y039478D01*
X015707Y039487D01*
X015731Y039493D01*
X015756Y039495D01*
X015781Y039493D01*
X015805Y039487D01*
X015827Y039478D01*
X015848Y039465D01*
X015867Y039449D01*
X015883Y039430D01*
X015896Y039409D01*
X015905Y039387D01*
X015911Y039363D01*
X015913Y039338D01*
X015911Y039313D01*
X015905Y039289D01*
X015896Y039267D01*
X015883Y039246D01*
X015867Y039227D01*
X015848Y039211D01*
X015827Y039198D01*
X015805Y039189D01*
X015781Y039183D01*
X015756Y039181D01*
X015731Y039183D01*
X015707Y039189D01*
X015685Y039198D01*
X015664Y039211D01*
X015645Y039227D01*
X015629Y039246D01*
X015616Y039267D01*
X015607Y039289D01*
X015601Y039313D01*
X015599Y039338D01*
X015599Y038247D02*
X015601Y038272D01*
X015607Y038296D01*
X015616Y038318D01*
X015629Y038339D01*
X015645Y038358D01*
X015664Y038374D01*
X015685Y038387D01*
X015707Y038396D01*
X015731Y038402D01*
X015756Y038404D01*
X015781Y038402D01*
X015805Y038396D01*
X015827Y038387D01*
X015848Y038374D01*
X015867Y038358D01*
X015883Y038339D01*
X015896Y038318D01*
X015905Y038296D01*
X015911Y038272D01*
X015913Y038247D01*
X015911Y038222D01*
X015905Y038198D01*
X015896Y038176D01*
X015883Y038155D01*
X015867Y038136D01*
X015848Y038120D01*
X015827Y038107D01*
X015805Y038098D01*
X015781Y038092D01*
X015756Y038090D01*
X015731Y038092D01*
X015707Y038098D01*
X015685Y038107D01*
X015664Y038120D01*
X015645Y038136D01*
X015629Y038155D01*
X015616Y038176D01*
X015607Y038198D01*
X015601Y038222D01*
X015599Y038247D01*
X015724Y037163D02*
X016709Y037163D01*
X016866Y037005D01*
X015599Y037157D02*
X015601Y037182D01*
X015607Y037206D01*
X015616Y037228D01*
X015629Y037249D01*
X015645Y037268D01*
X015664Y037284D01*
X015685Y037297D01*
X015707Y037306D01*
X015731Y037312D01*
X015756Y037314D01*
X015781Y037312D01*
X015805Y037306D01*
X015827Y037297D01*
X015848Y037284D01*
X015867Y037268D01*
X015883Y037249D01*
X015896Y037228D01*
X015905Y037206D01*
X015911Y037182D01*
X015913Y037157D01*
X015911Y037132D01*
X015905Y037108D01*
X015896Y037086D01*
X015883Y037065D01*
X015867Y037046D01*
X015848Y037030D01*
X015827Y037017D01*
X015805Y037008D01*
X015781Y037002D01*
X015756Y037000D01*
X015731Y037002D01*
X015707Y037008D01*
X015685Y037017D01*
X015664Y037030D01*
X015645Y037046D01*
X015629Y037065D01*
X015616Y037086D01*
X015607Y037108D01*
X015601Y037132D01*
X015599Y037157D01*
D21*
X015582Y026139D02*
X015584Y026152D01*
X015590Y026164D01*
X015599Y026173D01*
X015610Y026180D01*
X015623Y026183D01*
X015636Y026182D01*
X015648Y026177D01*
X015658Y026169D01*
X015666Y026158D01*
X015670Y026146D01*
X015670Y026132D01*
X015666Y026120D01*
X015658Y026109D01*
X015648Y026101D01*
X015636Y026096D01*
X015623Y026095D01*
X015610Y026098D01*
X015599Y026105D01*
X015590Y026114D01*
X015584Y026126D01*
X015582Y026139D01*
X015582Y024958D02*
X015584Y024971D01*
X015590Y024983D01*
X015599Y024992D01*
X015610Y024999D01*
X015623Y025002D01*
X015636Y025001D01*
X015648Y024996D01*
X015658Y024988D01*
X015666Y024977D01*
X015670Y024965D01*
X015670Y024951D01*
X015666Y024939D01*
X015658Y024928D01*
X015648Y024920D01*
X015636Y024915D01*
X015623Y024914D01*
X015610Y024917D01*
X015599Y024924D01*
X015590Y024933D01*
X015584Y024945D01*
X015582Y024958D01*
X014401Y024958D02*
X014403Y024971D01*
X014409Y024983D01*
X014418Y024992D01*
X014429Y024999D01*
X014442Y025002D01*
X014455Y025001D01*
X014467Y024996D01*
X014477Y024988D01*
X014485Y024977D01*
X014489Y024965D01*
X014489Y024951D01*
X014485Y024939D01*
X014477Y024928D01*
X014467Y024920D01*
X014455Y024915D01*
X014442Y024914D01*
X014429Y024917D01*
X014418Y024924D01*
X014409Y024933D01*
X014403Y024945D01*
X014401Y024958D01*
X014401Y026139D02*
X014403Y026152D01*
X014409Y026164D01*
X014418Y026173D01*
X014429Y026180D01*
X014442Y026183D01*
X014455Y026182D01*
X014467Y026177D01*
X014477Y026169D01*
X014485Y026158D01*
X014489Y026146D01*
X014489Y026132D01*
X014485Y026120D01*
X014477Y026109D01*
X014467Y026101D01*
X014455Y026096D01*
X014442Y026095D01*
X014429Y026098D01*
X014418Y026105D01*
X014409Y026114D01*
X014403Y026126D01*
X014401Y026139D01*
D22*
X015405Y033915D02*
X014322Y034396D01*
X014322Y034397D02*
X014274Y034420D01*
X014228Y034447D01*
X014184Y034476D01*
X014141Y034509D01*
X014101Y034544D01*
X014064Y034582D01*
X014029Y034622D01*
X013997Y034665D01*
X013968Y034710D01*
X013942Y034756D01*
X013919Y034805D01*
X013900Y034854D01*
X013884Y034905D01*
X013871Y034957D01*
X013862Y035010D01*
X013857Y035063D01*
X013855Y035116D01*
X013854Y035115D02*
X013854Y036316D01*
X013854Y036651D02*
X013854Y038600D01*
X013854Y038934D02*
X013854Y039190D01*
X014322Y039930D02*
X015405Y040411D01*
X015404Y040410D02*
X015454Y040430D01*
X015506Y040447D01*
X015558Y040460D01*
X015611Y040470D01*
X015665Y040476D01*
X015719Y040478D01*
X015773Y040476D01*
X015826Y040471D01*
X015880Y040462D01*
X015932Y040450D01*
X015984Y040434D01*
X016034Y040414D01*
X016083Y040391D01*
X016130Y040365D01*
X016175Y040336D01*
X016218Y040303D01*
X016259Y040268D01*
X016297Y040230D01*
X016333Y040189D01*
X016366Y040147D01*
X016395Y040101D01*
X016422Y040054D01*
X016445Y040006D01*
X016465Y039956D01*
X016482Y039904D01*
X016494Y039852D01*
X016504Y039799D01*
X016509Y039745D01*
X016511Y039691D01*
X016512Y039691D02*
X016512Y037281D01*
X016512Y037045D02*
X016512Y035076D01*
X016512Y034840D02*
X016512Y034634D01*
X016511Y034634D02*
X016509Y034580D01*
X016504Y034526D01*
X016494Y034473D01*
X016482Y034421D01*
X016465Y034369D01*
X016445Y034319D01*
X016422Y034271D01*
X016395Y034224D01*
X016366Y034178D01*
X016333Y034136D01*
X016297Y034095D01*
X016259Y034057D01*
X016218Y034022D01*
X016175Y033989D01*
X016130Y033960D01*
X016083Y033934D01*
X016034Y033911D01*
X015984Y033891D01*
X015932Y033875D01*
X015880Y033863D01*
X015826Y033854D01*
X015773Y033849D01*
X015719Y033847D01*
X015665Y033849D01*
X015611Y033855D01*
X015558Y033865D01*
X015506Y033878D01*
X015454Y033895D01*
X015404Y033915D01*
X013855Y039210D02*
X013857Y039263D01*
X013862Y039316D01*
X013871Y039369D01*
X013884Y039421D01*
X013900Y039472D01*
X013919Y039521D01*
X013942Y039570D01*
X013968Y039616D01*
X013997Y039661D01*
X014029Y039704D01*
X014064Y039744D01*
X014101Y039782D01*
X014141Y039817D01*
X014184Y039850D01*
X014228Y039879D01*
X014274Y039906D01*
X014322Y039929D01*
D23*
X007594Y001868D02*
X007476Y001750D01*
X007830Y001750D01*
X007830Y001986D02*
X007476Y001986D01*
X007594Y001868D01*
X007535Y002112D02*
X007476Y002171D01*
X007476Y002289D01*
X007535Y002348D01*
X007594Y002348D01*
X007653Y002289D01*
X007712Y002348D01*
X007771Y002348D01*
X007830Y002289D01*
X007830Y002171D01*
X007771Y002112D01*
X007653Y002230D02*
X007653Y002289D01*
X035035Y002289D02*
X035094Y002348D01*
X035153Y002348D01*
X035212Y002289D01*
X035271Y002348D01*
X035330Y002348D01*
X035389Y002289D01*
X035389Y002171D01*
X035330Y002112D01*
X035389Y001986D02*
X035035Y001986D01*
X035153Y001868D01*
X035035Y001750D01*
X035389Y001750D01*
X035094Y002112D02*
X035035Y002171D01*
X035035Y002289D01*
X035212Y002289D02*
X035212Y002230D01*
M02*
