G75*
G70*
%OFA0B0*%
%FSLAX24Y24*%
%IPPOS*%
%LPD*%
%AMOC8*
5,1,8,0,0,1.08239X$1,22.5*
%
%ADD10C,0.0000*%
D10*
X000504Y000524D02*
X000504Y017847D01*
X016646Y017847D01*
X016646Y000524D01*
X000504Y000524D01*
X007354Y001311D02*
X007356Y001352D01*
X007362Y001393D01*
X007372Y001433D01*
X007385Y001472D01*
X007402Y001509D01*
X007423Y001545D01*
X007447Y001579D01*
X007474Y001610D01*
X007503Y001638D01*
X007536Y001664D01*
X007570Y001686D01*
X007607Y001705D01*
X007645Y001720D01*
X007685Y001732D01*
X007725Y001740D01*
X007766Y001744D01*
X007808Y001744D01*
X007849Y001740D01*
X007889Y001732D01*
X007929Y001720D01*
X007967Y001705D01*
X008003Y001686D01*
X008038Y001664D01*
X008071Y001638D01*
X008100Y001610D01*
X008127Y001579D01*
X008151Y001545D01*
X008172Y001509D01*
X008189Y001472D01*
X008202Y001433D01*
X008212Y001393D01*
X008218Y001352D01*
X008220Y001311D01*
X008218Y001270D01*
X008212Y001229D01*
X008202Y001189D01*
X008189Y001150D01*
X008172Y001113D01*
X008151Y001077D01*
X008127Y001043D01*
X008100Y001012D01*
X008071Y000984D01*
X008038Y000958D01*
X008004Y000936D01*
X007967Y000917D01*
X007929Y000902D01*
X007889Y000890D01*
X007849Y000882D01*
X007808Y000878D01*
X007766Y000878D01*
X007725Y000882D01*
X007685Y000890D01*
X007645Y000902D01*
X007607Y000917D01*
X007571Y000936D01*
X007536Y000958D01*
X007503Y000984D01*
X007474Y001012D01*
X007447Y001043D01*
X007423Y001077D01*
X007402Y001113D01*
X007385Y001150D01*
X007372Y001189D01*
X007362Y001229D01*
X007356Y001270D01*
X007354Y001311D01*
X015228Y001311D02*
X015230Y001352D01*
X015236Y001393D01*
X015246Y001433D01*
X015259Y001472D01*
X015276Y001509D01*
X015297Y001545D01*
X015321Y001579D01*
X015348Y001610D01*
X015377Y001638D01*
X015410Y001664D01*
X015444Y001686D01*
X015481Y001705D01*
X015519Y001720D01*
X015559Y001732D01*
X015599Y001740D01*
X015640Y001744D01*
X015682Y001744D01*
X015723Y001740D01*
X015763Y001732D01*
X015803Y001720D01*
X015841Y001705D01*
X015877Y001686D01*
X015912Y001664D01*
X015945Y001638D01*
X015974Y001610D01*
X016001Y001579D01*
X016025Y001545D01*
X016046Y001509D01*
X016063Y001472D01*
X016076Y001433D01*
X016086Y001393D01*
X016092Y001352D01*
X016094Y001311D01*
X016092Y001270D01*
X016086Y001229D01*
X016076Y001189D01*
X016063Y001150D01*
X016046Y001113D01*
X016025Y001077D01*
X016001Y001043D01*
X015974Y001012D01*
X015945Y000984D01*
X015912Y000958D01*
X015878Y000936D01*
X015841Y000917D01*
X015803Y000902D01*
X015763Y000890D01*
X015723Y000882D01*
X015682Y000878D01*
X015640Y000878D01*
X015599Y000882D01*
X015559Y000890D01*
X015519Y000902D01*
X015481Y000917D01*
X015445Y000936D01*
X015410Y000958D01*
X015377Y000984D01*
X015348Y001012D01*
X015321Y001043D01*
X015297Y001077D01*
X015276Y001113D01*
X015259Y001150D01*
X015246Y001189D01*
X015236Y001229D01*
X015230Y001270D01*
X015228Y001311D01*
X015228Y017060D02*
X015230Y017101D01*
X015236Y017142D01*
X015246Y017182D01*
X015259Y017221D01*
X015276Y017258D01*
X015297Y017294D01*
X015321Y017328D01*
X015348Y017359D01*
X015377Y017387D01*
X015410Y017413D01*
X015444Y017435D01*
X015481Y017454D01*
X015519Y017469D01*
X015559Y017481D01*
X015599Y017489D01*
X015640Y017493D01*
X015682Y017493D01*
X015723Y017489D01*
X015763Y017481D01*
X015803Y017469D01*
X015841Y017454D01*
X015877Y017435D01*
X015912Y017413D01*
X015945Y017387D01*
X015974Y017359D01*
X016001Y017328D01*
X016025Y017294D01*
X016046Y017258D01*
X016063Y017221D01*
X016076Y017182D01*
X016086Y017142D01*
X016092Y017101D01*
X016094Y017060D01*
X016092Y017019D01*
X016086Y016978D01*
X016076Y016938D01*
X016063Y016899D01*
X016046Y016862D01*
X016025Y016826D01*
X016001Y016792D01*
X015974Y016761D01*
X015945Y016733D01*
X015912Y016707D01*
X015878Y016685D01*
X015841Y016666D01*
X015803Y016651D01*
X015763Y016639D01*
X015723Y016631D01*
X015682Y016627D01*
X015640Y016627D01*
X015599Y016631D01*
X015559Y016639D01*
X015519Y016651D01*
X015481Y016666D01*
X015445Y016685D01*
X015410Y016707D01*
X015377Y016733D01*
X015348Y016761D01*
X015321Y016792D01*
X015297Y016826D01*
X015276Y016862D01*
X015259Y016899D01*
X015246Y016938D01*
X015236Y016978D01*
X015230Y017019D01*
X015228Y017060D01*
X007354Y017060D02*
X007356Y017101D01*
X007362Y017142D01*
X007372Y017182D01*
X007385Y017221D01*
X007402Y017258D01*
X007423Y017294D01*
X007447Y017328D01*
X007474Y017359D01*
X007503Y017387D01*
X007536Y017413D01*
X007570Y017435D01*
X007607Y017454D01*
X007645Y017469D01*
X007685Y017481D01*
X007725Y017489D01*
X007766Y017493D01*
X007808Y017493D01*
X007849Y017489D01*
X007889Y017481D01*
X007929Y017469D01*
X007967Y017454D01*
X008003Y017435D01*
X008038Y017413D01*
X008071Y017387D01*
X008100Y017359D01*
X008127Y017328D01*
X008151Y017294D01*
X008172Y017258D01*
X008189Y017221D01*
X008202Y017182D01*
X008212Y017142D01*
X008218Y017101D01*
X008220Y017060D01*
X008218Y017019D01*
X008212Y016978D01*
X008202Y016938D01*
X008189Y016899D01*
X008172Y016862D01*
X008151Y016826D01*
X008127Y016792D01*
X008100Y016761D01*
X008071Y016733D01*
X008038Y016707D01*
X008004Y016685D01*
X007967Y016666D01*
X007929Y016651D01*
X007889Y016639D01*
X007849Y016631D01*
X007808Y016627D01*
X007766Y016627D01*
X007725Y016631D01*
X007685Y016639D01*
X007645Y016651D01*
X007607Y016666D01*
X007571Y016685D01*
X007536Y016707D01*
X007503Y016733D01*
X007474Y016761D01*
X007447Y016792D01*
X007423Y016826D01*
X007402Y016862D01*
X007385Y016899D01*
X007372Y016938D01*
X007362Y016978D01*
X007356Y017019D01*
X007354Y017060D01*
M02*
