G75*
G70*
%OFA0B0*%
%FSLAX24Y24*%
%IPPOS*%
%LPD*%
%AMOC8*
5,1,8,0,0,1.08239X$1,22.5*
%
%ADD10C,0.0946*%
%ADD11R,0.0513X0.0474*%
%ADD12R,0.0316X0.0493*%
%ADD13R,0.0671X0.0592*%
%ADD14R,0.0592X0.0671*%
%ADD15R,0.0671X0.0631*%
%ADD16R,0.0631X0.0671*%
%ADD17R,0.0631X0.0631*%
%ADD18R,0.0474X0.0513*%
%ADD19C,0.0552*%
%ADD20R,0.0474X0.0277*%
%ADD21R,0.0789X0.0710*%
%ADD22R,0.3308X0.1379*%
%ADD23R,0.1064X0.0749*%
%ADD24R,0.0480X0.0480*%
%ADD25C,0.0480*%
%ADD26R,0.0671X0.0474*%
%ADD27R,0.0671X0.1379*%
%ADD28R,0.0710X0.0789*%
%ADD29R,0.0218X0.0710*%
%ADD30R,0.0970X0.0930*%
%ADD31R,0.0950X0.0552*%
%ADD32R,0.0671X0.0297*%
%ADD33R,0.0407X0.0328*%
%ADD34R,0.0434X0.0356*%
%ADD35R,0.0356X0.0434*%
%ADD36C,0.0671*%
D10*
X007797Y001311D03*
X015671Y001311D03*
X015671Y017060D03*
X007797Y017060D03*
D11*
X007857Y015583D03*
X008526Y015583D03*
X010416Y014697D03*
X011085Y014697D03*
X012180Y007162D03*
X012850Y007162D03*
D12*
X014246Y015026D03*
X014620Y015026D03*
X014994Y015026D03*
X014994Y016089D03*
X014620Y016089D03*
X014246Y016089D03*
D13*
X013504Y015793D03*
X013504Y015123D03*
X011636Y003910D03*
X011636Y003241D03*
X009569Y003241D03*
X009569Y003910D03*
D14*
X011951Y012926D03*
X012699Y012926D03*
X012699Y013713D03*
X011951Y013713D03*
X015534Y015288D03*
X016203Y015288D03*
D15*
X008388Y007227D03*
X008388Y006420D03*
X007601Y006420D03*
X007601Y007227D03*
X010853Y004497D03*
X010853Y003690D03*
D16*
X014225Y003654D03*
X014225Y004520D03*
X015032Y004520D03*
X015839Y004520D03*
X015839Y003654D03*
X015032Y003654D03*
X012713Y012116D03*
X011906Y012116D03*
D17*
X009431Y014245D03*
X009431Y015741D03*
D18*
X001006Y001863D03*
X001006Y002532D03*
X001105Y005701D03*
X001105Y006371D03*
X001105Y008851D03*
X001105Y009520D03*
X005986Y009382D03*
X005986Y008890D03*
X005986Y008398D03*
X005986Y007906D03*
X006085Y007414D03*
X005986Y006922D03*
X006656Y006922D03*
X006754Y007414D03*
X006656Y007906D03*
X006656Y008398D03*
X006656Y008890D03*
X006656Y009382D03*
X007069Y012729D03*
X007069Y013319D03*
X007738Y013319D03*
X007738Y012729D03*
X010416Y012729D03*
X010416Y012138D03*
X011085Y012138D03*
X011085Y012729D03*
X011675Y010288D03*
X011675Y009619D03*
X011695Y008989D03*
X012364Y008989D03*
X010101Y006863D03*
X010101Y006331D03*
X009431Y006331D03*
X009431Y006863D03*
X006951Y005937D03*
X006951Y005445D03*
X006951Y004953D03*
X006951Y004461D03*
X006951Y003969D03*
X006951Y003477D03*
X006282Y003477D03*
X006282Y003969D03*
X006282Y004461D03*
X006282Y004953D03*
X006282Y005445D03*
X006282Y005937D03*
D19*
X005238Y005642D03*
X005238Y004855D03*
X005238Y004067D03*
X005238Y003280D03*
X005238Y002493D03*
X004254Y002493D03*
X004254Y003280D03*
X004254Y004067D03*
X004254Y004855D03*
X004254Y005642D03*
X004254Y006430D03*
X004254Y007217D03*
X004254Y008004D03*
X004254Y008792D03*
X004254Y009579D03*
X005238Y009579D03*
X005238Y008792D03*
X005238Y008004D03*
X005238Y007217D03*
X005238Y006430D03*
D20*
X010337Y013339D03*
X010337Y013713D03*
X010337Y014087D03*
X011164Y014087D03*
X011164Y013713D03*
X011164Y013339D03*
D21*
X009372Y013378D03*
X009372Y012276D03*
D22*
X014884Y012197D03*
X014884Y014048D03*
D23*
X012423Y015682D03*
X010849Y015682D03*
D24*
X009484Y017060D03*
X009484Y001311D03*
D25*
X009984Y001311D03*
X010484Y001311D03*
X010984Y001311D03*
X011484Y001311D03*
X011984Y001311D03*
X012484Y001311D03*
X012984Y001311D03*
X013484Y001311D03*
X013984Y001311D03*
X013984Y017060D03*
X013484Y017060D03*
X012984Y017060D03*
X012484Y017060D03*
X011984Y017060D03*
X011484Y017060D03*
X010984Y017060D03*
X010484Y017060D03*
X009984Y017060D03*
D26*
X013723Y009678D03*
X013723Y009087D03*
X013723Y008497D03*
X013723Y007906D03*
D27*
X016203Y008792D03*
D28*
X015573Y006764D03*
X014471Y006764D03*
X014333Y010859D03*
X015435Y010859D03*
D29*
X003250Y011075D03*
X002994Y011075D03*
X002738Y011075D03*
X002483Y011075D03*
X002227Y011075D03*
X001971Y011075D03*
X001715Y011075D03*
X001715Y008871D03*
X001971Y008871D03*
X002227Y008871D03*
X002483Y008871D03*
X002738Y008871D03*
X002994Y008871D03*
X003250Y008871D03*
X003250Y007138D03*
X002994Y007138D03*
X002738Y007138D03*
X002483Y007138D03*
X002227Y007138D03*
X001971Y007138D03*
X001715Y007138D03*
X001715Y004934D03*
X001971Y004934D03*
X002227Y004934D03*
X002483Y004934D03*
X002738Y004934D03*
X002994Y004934D03*
X003250Y004934D03*
X003250Y003300D03*
X002994Y003300D03*
X002738Y003300D03*
X002483Y003300D03*
X002227Y003300D03*
X001971Y003300D03*
X001715Y003300D03*
X001715Y001095D03*
X001971Y001095D03*
X002227Y001095D03*
X002483Y001095D03*
X002738Y001095D03*
X002994Y001095D03*
X003250Y001095D03*
D30*
X003688Y012532D03*
X005608Y012532D03*
X005805Y016469D03*
X003885Y016469D03*
D31*
X002404Y014993D03*
X002404Y014008D03*
X005317Y014008D03*
X005317Y014993D03*
D32*
X008900Y010723D03*
X008900Y010223D03*
X008900Y009723D03*
X008900Y009223D03*
X011026Y009223D03*
X011026Y009723D03*
X011026Y010223D03*
X011026Y010723D03*
D33*
X012817Y008739D03*
X012817Y007861D03*
D34*
X004845Y001469D03*
X004845Y000957D03*
X004353Y000957D03*
X004353Y001469D03*
X004254Y010800D03*
X004254Y011311D03*
X003762Y011311D03*
X003762Y010800D03*
D35*
X003329Y008201D03*
X003329Y007709D03*
X002817Y007709D03*
X002817Y008201D03*
X002246Y008201D03*
X002246Y007709D03*
X001734Y007709D03*
X001734Y008201D03*
X001734Y004363D03*
X001734Y003871D03*
X002246Y003871D03*
X002246Y004363D03*
X002719Y004363D03*
X002719Y003871D03*
X003231Y003871D03*
X003231Y004363D03*
D36*
X009514Y002524D03*
X010514Y002524D03*
X011514Y002524D03*
X012514Y002524D03*
M02*
