G75*
G70*
%OFA0B0*%
%FSLAX24Y24*%
%IPPOS*%
%LPD*%
%AMOC8*
5,1,8,0,0,1.08239X$1,22.5*
%
%ADD10C,0.0946*%
%ADD11R,0.0513X0.0474*%
%ADD12R,0.0316X0.0493*%
%ADD13R,0.0671X0.0592*%
%ADD14R,0.0592X0.0671*%
%ADD15R,0.0671X0.0631*%
%ADD16R,0.0631X0.0671*%
%ADD17R,0.0631X0.0631*%
%ADD18R,0.0474X0.0513*%
%ADD19C,0.0552*%
%ADD20R,0.0474X0.0277*%
%ADD21R,0.0789X0.0710*%
%ADD22R,0.3308X0.1379*%
%ADD23R,0.1064X0.0749*%
%ADD24R,0.0480X0.0480*%
%ADD25C,0.0480*%
%ADD26R,0.0671X0.0474*%
%ADD27R,0.0671X0.1379*%
%ADD28R,0.0710X0.0789*%
%ADD29R,0.0218X0.0710*%
%ADD30R,0.1261X0.0395*%
%ADD31R,0.0970X0.0930*%
%ADD32R,0.0950X0.0552*%
%ADD33C,0.0671*%
D10*
X021374Y001311D03*
X029248Y001311D03*
X029248Y017060D03*
X021374Y017060D03*
D11*
X021433Y015583D03*
X022102Y015583D03*
X023992Y014697D03*
X024661Y014697D03*
X025756Y007162D03*
X026426Y007162D03*
D12*
X027822Y015026D03*
X028196Y015026D03*
X028570Y015026D03*
X028570Y016089D03*
X028196Y016089D03*
X027822Y016089D03*
D13*
X027080Y015793D03*
X027080Y015123D03*
X025212Y003910D03*
X025212Y003241D03*
X023145Y003241D03*
X023145Y003910D03*
D14*
X025527Y012926D03*
X026275Y012926D03*
X026275Y013713D03*
X025527Y013713D03*
X029110Y015288D03*
X029779Y015288D03*
D15*
X021964Y007227D03*
X021177Y007227D03*
X021177Y006420D03*
X021964Y006420D03*
X024429Y004497D03*
X024429Y003690D03*
D16*
X027801Y003654D03*
X028608Y003654D03*
X029415Y003654D03*
X029415Y004520D03*
X028608Y004520D03*
X027801Y004520D03*
X026289Y012116D03*
X025482Y012116D03*
D17*
X023007Y014245D03*
X023007Y015741D03*
D18*
X014681Y002552D03*
X014681Y003221D03*
X014681Y005701D03*
X014681Y006371D03*
X014681Y008851D03*
X014681Y009520D03*
X019563Y009382D03*
X019563Y008890D03*
X019563Y008398D03*
X019563Y007906D03*
X019661Y007414D03*
X019563Y006922D03*
X020232Y006922D03*
X020330Y007414D03*
X020232Y007906D03*
X020232Y008398D03*
X020232Y008890D03*
X020232Y009382D03*
X023007Y006863D03*
X023007Y006331D03*
X023677Y006331D03*
X023677Y006863D03*
X025271Y006882D03*
X025271Y006213D03*
X020527Y005937D03*
X020527Y005445D03*
X020527Y004953D03*
X020527Y004461D03*
X020527Y003969D03*
X020527Y003477D03*
X019858Y003477D03*
X019858Y003969D03*
X019858Y004461D03*
X019858Y004953D03*
X019858Y005445D03*
X019858Y005937D03*
X023992Y012138D03*
X023992Y012729D03*
X024661Y012729D03*
X024661Y012138D03*
X021314Y012729D03*
X021314Y013319D03*
X020645Y013319D03*
X020645Y012729D03*
D19*
X018814Y009579D03*
X018814Y008792D03*
X018814Y008004D03*
X018814Y007217D03*
X018814Y006430D03*
X018814Y005642D03*
X018814Y004855D03*
X018814Y004067D03*
X018814Y003280D03*
X018814Y002493D03*
X017830Y002493D03*
X017830Y003280D03*
X017830Y004067D03*
X017830Y004855D03*
X017830Y005642D03*
X017830Y006430D03*
X017830Y007217D03*
X017830Y008004D03*
X017830Y008792D03*
X017830Y009579D03*
D20*
X023913Y013339D03*
X023913Y013713D03*
X023913Y014087D03*
X024740Y014087D03*
X024740Y013713D03*
X024740Y013339D03*
D21*
X022948Y013378D03*
X022948Y012276D03*
D22*
X028460Y012197D03*
X028460Y014048D03*
D23*
X026000Y015682D03*
X024425Y015682D03*
D24*
X023061Y017060D03*
X023061Y001311D03*
D25*
X023561Y001311D03*
X024061Y001311D03*
X024561Y001311D03*
X025061Y001311D03*
X025561Y001311D03*
X026061Y001311D03*
X026561Y001311D03*
X027061Y001311D03*
X027561Y001311D03*
X027561Y017060D03*
X027061Y017060D03*
X026561Y017060D03*
X026061Y017060D03*
X025561Y017060D03*
X025061Y017060D03*
X024561Y017060D03*
X024061Y017060D03*
X023561Y017060D03*
D26*
X027299Y009678D03*
X027299Y009087D03*
X027299Y008497D03*
X027299Y007906D03*
D27*
X029779Y008792D03*
D28*
X029011Y010859D03*
X027909Y010859D03*
X028047Y006764D03*
X029149Y006764D03*
D29*
X016826Y007138D03*
X016570Y007138D03*
X016314Y007138D03*
X016059Y007138D03*
X015803Y007138D03*
X015547Y007138D03*
X015291Y007138D03*
X015291Y008083D03*
X015547Y008083D03*
X015803Y008083D03*
X016059Y008083D03*
X016314Y008083D03*
X016570Y008083D03*
X016826Y008083D03*
X016826Y010288D03*
X016570Y010288D03*
X016314Y010288D03*
X016059Y010288D03*
X015803Y010288D03*
X015547Y010288D03*
X015291Y010288D03*
X015291Y004934D03*
X015547Y004934D03*
X015803Y004934D03*
X016059Y004934D03*
X016314Y004934D03*
X016570Y004934D03*
X016826Y004934D03*
X016826Y003989D03*
X016570Y003989D03*
X016314Y003989D03*
X016059Y003989D03*
X015803Y003989D03*
X015547Y003989D03*
X015291Y003989D03*
X015291Y001784D03*
X015547Y001784D03*
X015803Y001784D03*
X016059Y001784D03*
X016314Y001784D03*
X016570Y001784D03*
X016826Y001784D03*
D30*
X022240Y008079D03*
X022240Y009079D03*
X022240Y010079D03*
X022240Y011079D03*
X026019Y011079D03*
X026019Y010079D03*
X026019Y009079D03*
X026019Y008079D03*
D31*
X019184Y011745D03*
X017264Y011745D03*
X017461Y015682D03*
X019381Y015682D03*
D32*
X018893Y014205D03*
X018893Y013221D03*
X015980Y013221D03*
X015980Y014205D03*
D33*
X023090Y002524D03*
X024090Y002524D03*
X025090Y002524D03*
X026090Y002524D03*
M02*
