G75*
G70*
%OFA0B0*%
%FSLAX24Y24*%
%IPPOS*%
%LPD*%
%AMOC8*
5,1,8,0,0,1.08239X$1,22.5*
%
%ADD10C,0.0079*%
%ADD11C,0.0030*%
%ADD12C,0.0050*%
%ADD13C,0.0197*%
%ADD14C,0.0060*%
%ADD15C,0.0100*%
%ADD16C,0.0150*%
%ADD17C,0.0236*%
%ADD18C,0.0157*%
%ADD19C,0.0039*%
D10*
X001644Y002709D02*
X001646Y002725D01*
X001652Y002741D01*
X001661Y002755D01*
X001673Y002766D01*
X001687Y002774D01*
X001703Y002779D01*
X001719Y002780D01*
X001735Y002777D01*
X001750Y002770D01*
X001764Y002761D01*
X001774Y002748D01*
X001782Y002733D01*
X001786Y002717D01*
X001786Y002701D01*
X001782Y002685D01*
X001774Y002670D01*
X001764Y002657D01*
X001751Y002648D01*
X001735Y002641D01*
X001719Y002638D01*
X001703Y002639D01*
X001687Y002644D01*
X001673Y002652D01*
X001661Y002663D01*
X001652Y002677D01*
X001646Y002693D01*
X001644Y002709D01*
X001644Y006548D02*
X001646Y006564D01*
X001652Y006580D01*
X001661Y006594D01*
X001673Y006605D01*
X001687Y006613D01*
X001703Y006618D01*
X001719Y006619D01*
X001735Y006616D01*
X001750Y006609D01*
X001764Y006600D01*
X001774Y006587D01*
X001782Y006572D01*
X001786Y006556D01*
X001786Y006540D01*
X001782Y006524D01*
X001774Y006509D01*
X001764Y006496D01*
X001751Y006487D01*
X001735Y006480D01*
X001719Y006477D01*
X001703Y006478D01*
X001687Y006483D01*
X001673Y006491D01*
X001661Y006502D01*
X001652Y006516D01*
X001646Y006532D01*
X001644Y006548D01*
X001644Y010485D02*
X001646Y010501D01*
X001652Y010517D01*
X001661Y010531D01*
X001673Y010542D01*
X001687Y010550D01*
X001703Y010555D01*
X001719Y010556D01*
X001735Y010553D01*
X001750Y010546D01*
X001764Y010537D01*
X001774Y010524D01*
X001782Y010509D01*
X001786Y010493D01*
X001786Y010477D01*
X001782Y010461D01*
X001774Y010446D01*
X001764Y010433D01*
X001751Y010424D01*
X001735Y010417D01*
X001719Y010414D01*
X001703Y010415D01*
X001687Y010420D01*
X001673Y010428D01*
X001661Y010439D01*
X001652Y010453D01*
X001646Y010469D01*
X001644Y010485D01*
X012640Y008497D02*
X012994Y008497D01*
X013762Y004993D02*
X016321Y004993D01*
X016321Y003142D01*
X013762Y003142D01*
X013762Y004993D01*
D11*
X014221Y005226D02*
X014221Y005468D01*
X014464Y005226D01*
X014403Y005165D01*
X014282Y005165D01*
X014221Y005226D01*
X014464Y005226D02*
X014464Y005468D01*
X014403Y005529D01*
X014282Y005529D01*
X014221Y005468D01*
X014584Y005529D02*
X014826Y005529D01*
X014705Y005529D02*
X014705Y005165D01*
X014946Y005226D02*
X014946Y005468D01*
X015007Y005529D01*
X015128Y005529D01*
X015189Y005468D01*
X015189Y005226D01*
X015128Y005165D01*
X015007Y005165D01*
X014946Y005226D01*
X015309Y005226D02*
X015309Y005468D01*
X015369Y005529D01*
X015491Y005529D01*
X015551Y005468D01*
X015551Y005226D01*
X015491Y005165D01*
X015369Y005165D01*
X015309Y005226D01*
X015671Y005226D02*
X015732Y005165D01*
X015914Y005165D01*
X015914Y005529D01*
X015732Y005529D01*
X015671Y005468D01*
X015671Y005408D01*
X015732Y005347D01*
X015914Y005347D01*
X015732Y005347D02*
X015671Y005286D01*
X015671Y005226D01*
X015732Y003009D02*
X015671Y002949D01*
X015671Y002888D01*
X015732Y002827D01*
X015914Y002827D01*
X015914Y002645D02*
X015732Y002645D01*
X015671Y002706D01*
X015671Y002767D01*
X015732Y002827D01*
X015732Y003009D02*
X015914Y003009D01*
X015914Y002645D01*
X015551Y002706D02*
X015491Y002645D01*
X015369Y002645D01*
X015309Y002706D01*
X015309Y002949D01*
X015369Y003009D01*
X015491Y003009D01*
X015551Y002949D01*
X015551Y002706D01*
X015189Y002706D02*
X015189Y002949D01*
X015128Y003009D01*
X015007Y003009D01*
X014946Y002949D01*
X014946Y002706D01*
X015007Y002645D01*
X015128Y002645D01*
X015189Y002706D01*
X014826Y003009D02*
X014584Y003009D01*
X014705Y003009D02*
X014705Y002645D01*
X014464Y002645D02*
X014221Y002645D01*
X014343Y002645D02*
X014343Y003009D01*
X014464Y002888D01*
X002477Y016858D02*
X002389Y017035D01*
X002294Y017079D02*
X002250Y017123D01*
X002161Y017123D01*
X002117Y017079D01*
X002117Y017035D01*
X002294Y016858D01*
X002117Y016858D01*
X002022Y016858D02*
X001978Y016858D01*
X001978Y016902D01*
X002022Y016902D01*
X002022Y016858D01*
X001886Y016858D02*
X001709Y016858D01*
X001798Y016858D02*
X001798Y017123D01*
X001886Y017035D01*
X001614Y016902D02*
X001570Y016902D01*
X001570Y016858D01*
X001614Y016858D01*
X001614Y016902D01*
X001479Y016902D02*
X001479Y017079D01*
X001434Y017123D01*
X001346Y017123D01*
X001302Y017079D01*
X001479Y016902D01*
X001434Y016858D01*
X001346Y016858D01*
X001302Y016902D01*
X001302Y017079D01*
X002477Y016858D02*
X002566Y017035D01*
D12*
X002860Y015500D02*
X002860Y013500D01*
X004860Y013500D01*
X004860Y015500D01*
X002860Y015500D01*
X010793Y014087D02*
X010795Y014101D01*
X010801Y014115D01*
X010809Y014127D01*
X010821Y014135D01*
X010835Y014141D01*
X010849Y014143D01*
X010863Y014141D01*
X010877Y014135D01*
X010889Y014127D01*
X010897Y014115D01*
X010903Y014101D01*
X010905Y014087D01*
X010903Y014073D01*
X010897Y014059D01*
X010889Y014047D01*
X010877Y014039D01*
X010863Y014033D01*
X010849Y014031D01*
X010835Y014033D01*
X010821Y014039D01*
X010809Y014047D01*
X010801Y014059D01*
X010795Y014073D01*
X010793Y014087D01*
X014190Y015735D02*
X014192Y015749D01*
X014198Y015763D01*
X014206Y015775D01*
X014218Y015783D01*
X014232Y015789D01*
X014246Y015791D01*
X014260Y015789D01*
X014274Y015783D01*
X014286Y015775D01*
X014294Y015763D01*
X014300Y015749D01*
X014302Y015735D01*
X014300Y015721D01*
X014294Y015707D01*
X014286Y015695D01*
X014274Y015687D01*
X014260Y015681D01*
X014246Y015679D01*
X014232Y015681D01*
X014218Y015687D01*
X014206Y015695D01*
X014198Y015707D01*
X014192Y015721D01*
X014190Y015735D01*
X013431Y004377D02*
X013431Y003836D01*
X013611Y003836D02*
X013251Y003836D01*
X013611Y004197D02*
X013431Y004377D01*
D13*
X004648Y003674D02*
X003860Y003674D01*
X003860Y005249D01*
X004648Y005249D01*
X004648Y003674D01*
D14*
X005202Y017175D02*
X005147Y017231D01*
X005147Y017509D01*
X005314Y017509D01*
X005369Y017453D01*
X005369Y017342D01*
X005314Y017286D01*
X005147Y017286D01*
X005202Y017175D02*
X005258Y017175D01*
X005007Y017286D02*
X004896Y017286D01*
X004951Y017286D02*
X004951Y017509D01*
X005007Y017509D01*
X004951Y017620D02*
X004951Y017676D01*
X004765Y017453D02*
X004765Y017342D01*
X004710Y017286D01*
X004543Y017286D01*
X004543Y017509D02*
X004710Y017509D01*
X004765Y017453D01*
X004040Y017342D02*
X003985Y017286D01*
X003873Y017286D01*
X003818Y017342D01*
X003678Y017286D02*
X003678Y017509D01*
X003566Y017620D01*
X003455Y017509D01*
X003455Y017286D01*
X003315Y017286D02*
X003315Y017620D01*
X003093Y017286D01*
X003093Y017620D01*
X003455Y017453D02*
X003678Y017453D01*
X003818Y017565D02*
X003873Y017620D01*
X003985Y017620D01*
X004040Y017565D01*
X004040Y017342D01*
X002590Y017286D02*
X002590Y017620D01*
X002368Y017286D01*
X002368Y017620D01*
X002228Y017453D02*
X002228Y017342D01*
X002172Y017286D01*
X002061Y017286D01*
X002005Y017342D01*
X002005Y017453D01*
X002061Y017509D01*
X002172Y017509D01*
X002228Y017453D01*
X001865Y017453D02*
X001865Y017342D01*
X001810Y017286D01*
X001643Y017286D01*
X001643Y017620D01*
X001643Y017509D02*
X001810Y017509D01*
X001865Y017453D01*
X001503Y017453D02*
X001503Y017342D01*
X001447Y017286D01*
X001336Y017286D01*
X001280Y017398D02*
X001503Y017398D01*
X001503Y017453D02*
X001447Y017509D01*
X001336Y017509D01*
X001280Y017453D01*
X001280Y017398D01*
X005509Y017398D02*
X005676Y017398D01*
X005732Y017342D01*
X005676Y017286D01*
X005509Y017286D01*
X005509Y017453D01*
X005565Y017509D01*
X005676Y017509D01*
X005872Y017620D02*
X005872Y017286D01*
X006094Y017286D02*
X006094Y017620D01*
X005983Y017509D01*
X005872Y017620D01*
D15*
X009195Y015229D02*
X009431Y014914D01*
X009668Y015229D01*
X009195Y015229D01*
X009195Y014914D02*
X009668Y014914D01*
D16*
X011986Y015150D02*
X011986Y016233D01*
D17*
X004242Y015000D02*
X004244Y015021D01*
X004250Y015041D01*
X004259Y015061D01*
X004271Y015078D01*
X004286Y015092D01*
X004304Y015104D01*
X004324Y015112D01*
X004344Y015117D01*
X004365Y015118D01*
X004386Y015115D01*
X004406Y015109D01*
X004425Y015098D01*
X004442Y015085D01*
X004455Y015069D01*
X004466Y015051D01*
X004474Y015031D01*
X004478Y015011D01*
X004478Y014989D01*
X004474Y014969D01*
X004466Y014949D01*
X004455Y014931D01*
X004442Y014915D01*
X004425Y014902D01*
X004406Y014891D01*
X004386Y014885D01*
X004365Y014882D01*
X004344Y014883D01*
X004324Y014888D01*
X004304Y014896D01*
X004286Y014908D01*
X004271Y014922D01*
X004259Y014939D01*
X004250Y014959D01*
X004244Y014979D01*
X004242Y015000D01*
X004242Y014000D02*
X004244Y014021D01*
X004250Y014041D01*
X004259Y014061D01*
X004271Y014078D01*
X004286Y014092D01*
X004304Y014104D01*
X004324Y014112D01*
X004344Y014117D01*
X004365Y014118D01*
X004386Y014115D01*
X004406Y014109D01*
X004425Y014098D01*
X004442Y014085D01*
X004455Y014069D01*
X004466Y014051D01*
X004474Y014031D01*
X004478Y014011D01*
X004478Y013989D01*
X004474Y013969D01*
X004466Y013949D01*
X004455Y013931D01*
X004442Y013915D01*
X004425Y013902D01*
X004406Y013891D01*
X004386Y013885D01*
X004365Y013882D01*
X004344Y013883D01*
X004324Y013888D01*
X004304Y013896D01*
X004286Y013908D01*
X004271Y013922D01*
X004259Y013939D01*
X004250Y013959D01*
X004244Y013979D01*
X004242Y014000D01*
D18*
X010278Y010723D02*
X010280Y010741D01*
X010286Y010757D01*
X010295Y010772D01*
X010308Y010785D01*
X010323Y010794D01*
X010339Y010800D01*
X010357Y010802D01*
X010375Y010800D01*
X010391Y010794D01*
X010406Y010785D01*
X010419Y010772D01*
X010428Y010757D01*
X010434Y010741D01*
X010436Y010723D01*
X010434Y010705D01*
X010428Y010689D01*
X010419Y010674D01*
X010406Y010661D01*
X010391Y010652D01*
X010375Y010646D01*
X010357Y010644D01*
X010339Y010646D01*
X010323Y010652D01*
X010308Y010661D01*
X010295Y010674D01*
X010286Y010689D01*
X010280Y010705D01*
X010278Y010723D01*
D19*
X012817Y008477D02*
X012660Y008221D01*
X012975Y008221D01*
X012817Y008477D01*
X012799Y008448D02*
X012835Y008448D01*
X012858Y008410D02*
X012776Y008410D01*
X012753Y008372D02*
X012882Y008372D01*
X012905Y008334D02*
X012729Y008334D01*
X012706Y008296D02*
X012928Y008296D01*
X012952Y008258D02*
X012683Y008258D01*
M02*
