G75*
G70*
%OFA0B0*%
%FSLAX24Y24*%
%IPPOS*%
%LPD*%
%AMOC8*
5,1,8,0,0,1.08239X$1,22.5*
%
%ADD10R,0.0433X0.0394*%
%ADD11R,0.0236X0.0413*%
%ADD12R,0.0591X0.0512*%
%ADD13R,0.0512X0.0591*%
%ADD14R,0.0591X0.0551*%
%ADD15R,0.0551X0.0591*%
%ADD16R,0.0551X0.0551*%
%ADD17R,0.0394X0.0433*%
%ADD18C,0.0472*%
%ADD19R,0.0394X0.0197*%
%ADD20R,0.0709X0.0630*%
%ADD21R,0.3228X0.1299*%
%ADD22R,0.0984X0.0669*%
%ADD23R,0.0400X0.0400*%
%ADD24C,0.0400*%
%ADD25R,0.0591X0.0394*%
%ADD26R,0.0591X0.1299*%
%ADD27R,0.0630X0.0709*%
%ADD28R,0.0138X0.0630*%
%ADD29R,0.1181X0.0315*%
%ADD30R,0.0890X0.0850*%
%ADD31R,0.0870X0.0472*%
%ADD32C,0.0218*%
%ADD33C,0.0098*%
%ADD34C,0.0237*%
%ADD35C,0.0197*%
%ADD36C,0.0591*%
%ADD37C,0.0217*%
%ADD38C,0.0160*%
%ADD39C,0.0157*%
%ADD40C,0.0138*%
%ADD41C,0.0059*%
%ADD42C,0.0079*%
D10*
X021433Y015583D03*
X022102Y015583D03*
X023992Y014697D03*
X024661Y014697D03*
X025756Y007162D03*
X026426Y007162D03*
D11*
X027822Y015026D03*
X028196Y015026D03*
X028570Y015026D03*
X028570Y016089D03*
X028196Y016089D03*
X027822Y016089D03*
D12*
X027080Y015793D03*
X027080Y015123D03*
X025212Y003910D03*
X025212Y003241D03*
X023145Y003241D03*
X023145Y003910D03*
D13*
X025527Y012926D03*
X026275Y012926D03*
X026275Y013713D03*
X025527Y013713D03*
X029110Y015288D03*
X029779Y015288D03*
D14*
X021964Y007227D03*
X021177Y007227D03*
X021177Y006420D03*
X021964Y006420D03*
X024429Y004497D03*
X024429Y003690D03*
D15*
X027801Y003654D03*
X028608Y003654D03*
X029415Y003654D03*
X029415Y004520D03*
X028608Y004520D03*
X027801Y004520D03*
X026289Y012116D03*
X025482Y012116D03*
D16*
X023007Y014245D03*
X023007Y015741D03*
D17*
X021314Y013319D03*
X021314Y012729D03*
X020645Y012729D03*
X020645Y013319D03*
X023992Y012729D03*
X023992Y012138D03*
X024661Y012138D03*
X024661Y012729D03*
X020232Y009382D03*
X020232Y008890D03*
X020232Y008398D03*
X020232Y007906D03*
X020330Y007414D03*
X020232Y006922D03*
X019563Y006922D03*
X019661Y007414D03*
X019563Y007906D03*
X019563Y008398D03*
X019563Y008890D03*
X019563Y009382D03*
X019858Y005937D03*
X019858Y005445D03*
X019858Y004953D03*
X019858Y004461D03*
X019858Y003969D03*
X019858Y003477D03*
X020527Y003477D03*
X020527Y003969D03*
X020527Y004461D03*
X020527Y004953D03*
X020527Y005445D03*
X020527Y005937D03*
X023007Y006331D03*
X023007Y006863D03*
X023677Y006863D03*
X023677Y006331D03*
X025271Y006213D03*
X025271Y006882D03*
X014681Y006371D03*
X014681Y005701D03*
X014681Y003221D03*
X014681Y002552D03*
X014681Y008851D03*
X014681Y009520D03*
D18*
X017830Y009579D03*
X017830Y008792D03*
X017830Y008004D03*
X017830Y007217D03*
X017830Y006430D03*
X017830Y005642D03*
X017830Y004855D03*
X017830Y004067D03*
X017830Y003280D03*
X017830Y002493D03*
X018814Y002493D03*
X018814Y003280D03*
X018814Y004067D03*
X018814Y004855D03*
X018814Y005642D03*
X018814Y006430D03*
X018814Y007217D03*
X018814Y008004D03*
X018814Y008792D03*
X018814Y009579D03*
D19*
X023913Y013339D03*
X023913Y013713D03*
X023913Y014087D03*
X024740Y014087D03*
X024740Y013713D03*
X024740Y013339D03*
D20*
X022948Y013378D03*
X022948Y012276D03*
D21*
X028460Y012197D03*
X028460Y014048D03*
D22*
X026000Y015682D03*
X024425Y015682D03*
D23*
X023061Y017060D03*
X023061Y001311D03*
D24*
X023561Y001311D03*
X024061Y001311D03*
X024561Y001311D03*
X025061Y001311D03*
X025561Y001311D03*
X026061Y001311D03*
X026561Y001311D03*
X027061Y001311D03*
X027561Y001311D03*
X027561Y017060D03*
X027061Y017060D03*
X026561Y017060D03*
X026061Y017060D03*
X025561Y017060D03*
X025061Y017060D03*
X024561Y017060D03*
X024061Y017060D03*
X023561Y017060D03*
D25*
X027299Y009678D03*
X027299Y009087D03*
X027299Y008497D03*
X027299Y007906D03*
D26*
X029779Y008792D03*
D27*
X029011Y010859D03*
X027909Y010859D03*
X028047Y006764D03*
X029149Y006764D03*
D28*
X016826Y007138D03*
X016570Y007138D03*
X016314Y007138D03*
X016059Y007138D03*
X015803Y007138D03*
X015547Y007138D03*
X015291Y007138D03*
X015291Y008083D03*
X015547Y008083D03*
X015803Y008083D03*
X016059Y008083D03*
X016314Y008083D03*
X016570Y008083D03*
X016826Y008083D03*
X016826Y010288D03*
X016570Y010288D03*
X016314Y010288D03*
X016059Y010288D03*
X015803Y010288D03*
X015547Y010288D03*
X015291Y010288D03*
X015291Y004934D03*
X015547Y004934D03*
X015803Y004934D03*
X016059Y004934D03*
X016314Y004934D03*
X016570Y004934D03*
X016826Y004934D03*
X016826Y003989D03*
X016570Y003989D03*
X016314Y003989D03*
X016059Y003989D03*
X015803Y003989D03*
X015547Y003989D03*
X015291Y003989D03*
X015291Y001784D03*
X015547Y001784D03*
X015803Y001784D03*
X016059Y001784D03*
X016314Y001784D03*
X016570Y001784D03*
X016826Y001784D03*
D29*
X022240Y008079D03*
X022240Y009079D03*
X022240Y010079D03*
X022240Y011079D03*
X026019Y011079D03*
X026019Y010079D03*
X026019Y009079D03*
X026019Y008079D03*
D30*
X019184Y011745D03*
X017264Y011745D03*
X017461Y015682D03*
X019381Y015682D03*
D31*
X018893Y014205D03*
X018893Y013221D03*
X015980Y013221D03*
X015980Y014205D03*
D32*
X016452Y014205D03*
X017043Y014500D03*
X017437Y014107D03*
X017437Y013713D03*
X018027Y013713D03*
X018027Y014107D03*
X017043Y015386D03*
X017043Y015682D03*
X017043Y015977D03*
X016846Y012926D03*
X016846Y012532D03*
X016846Y012040D03*
X016846Y011745D03*
X016846Y011449D03*
X016059Y009776D03*
X016059Y008595D03*
X014681Y008595D03*
X014779Y005445D03*
X014779Y003477D03*
X014779Y002296D03*
X016059Y003477D03*
X019208Y007453D03*
X020389Y007906D03*
X020389Y008398D03*
X020389Y008890D03*
X020370Y009382D03*
X020783Y009678D03*
X019838Y009815D03*
X019720Y010091D03*
X021669Y011154D03*
X022555Y012040D03*
X022850Y012040D03*
X022555Y012434D03*
X021964Y013221D03*
X021472Y012729D03*
X020488Y012729D03*
X020488Y013910D03*
X020389Y014894D03*
X020389Y015288D03*
X021177Y015583D03*
X022456Y015878D03*
X022358Y016272D03*
X022653Y016371D03*
X024326Y015977D03*
X024622Y015977D03*
X024326Y015386D03*
X025311Y013910D03*
X025311Y013516D03*
X025311Y013123D03*
X025311Y012729D03*
X026098Y012926D03*
X026492Y012926D03*
X026492Y013516D03*
X026177Y013516D03*
X025704Y013910D03*
X027574Y014993D03*
X028165Y015583D03*
X028559Y015288D03*
X029051Y015091D03*
X028185Y016410D03*
X027377Y016075D03*
X028165Y013123D03*
X026492Y011646D03*
X026295Y011351D03*
X026098Y011646D03*
X025901Y010662D03*
X026255Y010603D03*
X026984Y009874D03*
X027377Y009874D03*
X027574Y010563D03*
X027968Y010563D03*
X027968Y011154D03*
X027574Y011154D03*
X028755Y011154D03*
X029248Y011154D03*
X029248Y010563D03*
X028755Y010563D03*
X029602Y010209D03*
X029937Y009382D03*
X029937Y008831D03*
X029937Y008300D03*
X028165Y009874D03*
X025901Y008497D03*
X024720Y008004D03*
X024720Y007611D03*
X024326Y006311D03*
X024031Y005937D03*
X023460Y005918D03*
X024385Y005701D03*
X025114Y006154D03*
X025409Y006154D03*
X025704Y006430D03*
X024444Y004422D03*
X025114Y004205D03*
X025488Y004067D03*
X025704Y003162D03*
X025389Y003083D03*
X023342Y004737D03*
X022456Y003575D03*
X020685Y003477D03*
X020685Y003969D03*
X020685Y004461D03*
X020685Y004953D03*
X020685Y005445D03*
X020685Y005937D03*
X020685Y006528D03*
X020980Y006528D03*
X020389Y006922D03*
X020488Y007414D03*
X021728Y006410D03*
X022673Y006863D03*
X023342Y007611D03*
X023342Y008004D03*
X023637Y008693D03*
X023874Y009737D03*
X024129Y009973D03*
X024976Y011075D03*
X028657Y005937D03*
X028559Y005642D03*
X028342Y005839D03*
X028854Y005544D03*
X028952Y005839D03*
X029444Y005839D03*
X029248Y005249D03*
X029681Y003634D03*
X028263Y003241D03*
D33*
X028460Y003241D01*
X028618Y003556D01*
X028608Y003654D01*
X027830Y003595D02*
X027825Y003556D01*
X027801Y003654D01*
X027830Y003595D02*
X027801Y004520D01*
X027574Y005150D02*
X026295Y006430D01*
X025704Y006430D01*
X025507Y006823D02*
X024475Y006823D01*
X024475Y008140D01*
X024536Y008201D01*
X026098Y008201D01*
X026098Y007611D01*
X025803Y007315D01*
X025507Y007119D01*
X025507Y006823D01*
X025507Y006827D02*
X024475Y006827D01*
X024475Y006924D02*
X025507Y006924D01*
X025507Y007021D02*
X024475Y007021D01*
X024475Y007118D02*
X025507Y007118D01*
X025652Y007215D02*
X024475Y007215D01*
X024475Y007312D02*
X025797Y007312D01*
X025896Y007409D02*
X024475Y007409D01*
X024475Y007506D02*
X025993Y007506D01*
X026090Y007603D02*
X024475Y007603D01*
X024475Y007700D02*
X026098Y007700D01*
X026098Y007797D02*
X024475Y007797D01*
X024475Y007894D02*
X026098Y007894D01*
X026098Y007991D02*
X024475Y007991D01*
X024475Y008088D02*
X026098Y008088D01*
X026098Y008185D02*
X024519Y008185D01*
X024326Y008201D02*
X025212Y009087D01*
X026011Y009087D01*
X026019Y009079D01*
X026000Y009481D02*
X025015Y009481D01*
X024425Y008890D01*
X024031Y008890D02*
X025212Y010071D01*
X026011Y010071D01*
X026019Y010079D01*
X026255Y010603D02*
X027122Y010603D01*
X027515Y010209D01*
X029602Y010209D01*
X029444Y009461D02*
X030033Y009461D01*
X030033Y006427D01*
X029956Y006351D01*
X028893Y006351D01*
X028854Y006390D01*
X028854Y007099D01*
X029208Y007099D01*
X029405Y007296D01*
X029405Y009422D01*
X029444Y009461D01*
X029429Y009445D02*
X030033Y009445D01*
X030033Y009348D02*
X029405Y009348D01*
X029405Y009251D02*
X030033Y009251D01*
X030033Y009154D02*
X029405Y009154D01*
X029405Y009057D02*
X030033Y009057D01*
X030033Y008960D02*
X029405Y008960D01*
X029405Y008863D02*
X030033Y008863D01*
X030033Y008766D02*
X029405Y008766D01*
X029405Y008669D02*
X030033Y008669D01*
X030033Y008572D02*
X029405Y008572D01*
X029405Y008476D02*
X030033Y008476D01*
X030033Y008379D02*
X029405Y008379D01*
X029405Y008282D02*
X030033Y008282D01*
X030033Y008185D02*
X029405Y008185D01*
X029405Y008088D02*
X030033Y008088D01*
X030033Y007991D02*
X029405Y007991D01*
X029405Y007894D02*
X030033Y007894D01*
X030033Y007797D02*
X029405Y007797D01*
X029405Y007700D02*
X030033Y007700D01*
X030033Y007603D02*
X029405Y007603D01*
X029405Y007506D02*
X030033Y007506D01*
X030033Y007409D02*
X029405Y007409D01*
X029405Y007312D02*
X030033Y007312D01*
X030033Y007215D02*
X029324Y007215D01*
X029227Y007118D02*
X030033Y007118D01*
X030033Y007021D02*
X028854Y007021D01*
X028854Y006924D02*
X030033Y006924D01*
X030033Y006827D02*
X028854Y006827D01*
X028854Y006730D02*
X030033Y006730D01*
X030033Y006633D02*
X028854Y006633D01*
X028854Y006536D02*
X030033Y006536D01*
X030033Y006439D02*
X028854Y006439D01*
X028705Y006439D02*
X027712Y006439D01*
X027712Y006430D02*
X027712Y008634D01*
X027693Y008653D01*
X027693Y008734D01*
X027635Y008793D01*
X027554Y008793D01*
X027476Y008871D01*
X026938Y008871D01*
X026916Y008893D01*
X026916Y009343D01*
X028185Y009343D01*
X028814Y008713D01*
X028814Y007247D01*
X028792Y007247D01*
X028705Y007160D01*
X028705Y006329D01*
X028792Y006242D01*
X028832Y006202D01*
X028955Y006202D01*
X029323Y006202D01*
X029405Y006115D01*
X029379Y006047D01*
X029358Y006047D01*
X029236Y005925D01*
X029236Y005753D01*
X029259Y005730D01*
X029150Y005445D01*
X029039Y005335D01*
X029039Y005304D01*
X028342Y005524D01*
X028500Y006075D01*
X028224Y006351D01*
X027791Y006351D01*
X027712Y006430D01*
X027712Y006536D02*
X028705Y006536D01*
X028705Y006633D02*
X027712Y006633D01*
X027712Y006730D02*
X028705Y006730D01*
X028705Y006827D02*
X027712Y006827D01*
X027712Y006924D02*
X028705Y006924D01*
X028705Y007021D02*
X027712Y007021D01*
X027712Y007118D02*
X028705Y007118D01*
X028760Y007215D02*
X027712Y007215D01*
X027712Y007312D02*
X028814Y007312D01*
X028814Y007409D02*
X027712Y007409D01*
X027712Y007506D02*
X028814Y007506D01*
X028814Y007603D02*
X027712Y007603D01*
X027712Y007700D02*
X028814Y007700D01*
X028814Y007797D02*
X027712Y007797D01*
X027712Y007894D02*
X028814Y007894D01*
X028814Y007991D02*
X027712Y007991D01*
X027712Y008088D02*
X028814Y008088D01*
X028814Y008185D02*
X027712Y008185D01*
X027712Y008282D02*
X028814Y008282D01*
X028814Y008379D02*
X027712Y008379D01*
X027712Y008476D02*
X028814Y008476D01*
X028814Y008572D02*
X027712Y008572D01*
X027693Y008669D02*
X028814Y008669D01*
X028761Y008766D02*
X027661Y008766D01*
X027483Y008863D02*
X028664Y008863D01*
X028567Y008960D02*
X026916Y008960D01*
X026916Y009057D02*
X028470Y009057D01*
X028373Y009154D02*
X026916Y009154D01*
X026916Y009251D02*
X028276Y009251D01*
X026984Y009874D02*
X026767Y009658D01*
X026767Y008831D01*
X026885Y008713D01*
X026885Y008044D01*
X027023Y007906D01*
X027299Y007906D01*
X026728Y007563D02*
X026728Y008359D01*
X026610Y008497D01*
X025901Y008497D01*
X024326Y008201D02*
X024326Y006311D01*
X024031Y005937D02*
X024031Y008890D01*
X023637Y008693D02*
X023933Y009678D01*
X023874Y009737D01*
X023883Y008201D02*
X023883Y006647D01*
X023539Y006647D01*
X023539Y007020D01*
X023342Y007217D01*
X022555Y007217D01*
X022358Y007020D01*
X021571Y007020D01*
X021571Y007544D01*
X021570Y007544D01*
X021570Y008004D01*
X021767Y008201D01*
X023883Y008201D01*
X023883Y008185D02*
X021751Y008185D01*
X021654Y008088D02*
X023883Y008088D01*
X023883Y007991D02*
X021570Y007991D01*
X021570Y007894D02*
X023883Y007894D01*
X023883Y007797D02*
X021570Y007797D01*
X021570Y007700D02*
X023883Y007700D01*
X023883Y007603D02*
X021570Y007603D01*
X021571Y007506D02*
X023883Y007506D01*
X023883Y007409D02*
X021571Y007409D01*
X021571Y007312D02*
X023883Y007312D01*
X023883Y007215D02*
X023344Y007215D01*
X023441Y007118D02*
X023883Y007118D01*
X023883Y007021D02*
X023538Y007021D01*
X023539Y006924D02*
X023883Y006924D01*
X023883Y006827D02*
X023539Y006827D01*
X023539Y006730D02*
X023883Y006730D01*
X023677Y006331D02*
X023460Y005918D01*
X023007Y006331D02*
X023007Y006863D01*
X022673Y006863D01*
X022456Y007118D02*
X021571Y007118D01*
X021571Y007215D02*
X022553Y007215D01*
X022359Y007021D02*
X021571Y007021D01*
X021865Y007119D02*
X021866Y007145D01*
X021871Y007170D01*
X021879Y007195D01*
X021890Y007218D01*
X021904Y007240D01*
X021921Y007260D01*
X021941Y007277D01*
X021963Y007291D01*
X021986Y007302D01*
X022011Y007310D01*
X022036Y007315D01*
X022062Y007316D01*
X021964Y006420D02*
X021728Y006410D01*
X021177Y006420D02*
X020980Y006528D01*
X019858Y005937D02*
X019622Y005937D01*
X019326Y006430D01*
X019503Y006823D02*
X019563Y006882D01*
X019563Y006922D01*
X019503Y006823D02*
X017279Y006823D01*
X016964Y007138D01*
X016826Y007138D01*
X016826Y008083D02*
X017141Y008398D01*
X017988Y008398D01*
X018185Y008595D01*
X018381Y008595D01*
X018578Y008398D01*
X019563Y008398D01*
X019563Y008890D02*
X019307Y008890D01*
X019208Y008989D01*
X019208Y009776D01*
X018696Y010288D01*
X016826Y010288D01*
X015862Y010918D02*
X015547Y010603D01*
X015547Y010288D01*
X015291Y010288D01*
X015862Y010918D02*
X018539Y010918D01*
X019464Y009894D01*
X019563Y009796D01*
X019563Y009382D01*
X018263Y008359D02*
X018263Y007729D01*
X018381Y007611D01*
X019011Y007611D01*
X019326Y007926D01*
X019543Y007926D01*
X019563Y007906D01*
X019602Y007493D02*
X019563Y007453D01*
X019208Y007453D01*
X019602Y007493D02*
X019661Y007434D01*
X019661Y007414D01*
X019405Y005642D02*
X019464Y005583D01*
X019661Y005583D01*
X019858Y005445D01*
X019858Y004953D02*
X019307Y004953D01*
X019011Y005249D01*
X018539Y005249D01*
X018303Y005012D01*
X018303Y004855D01*
X018066Y005249D02*
X017279Y005249D01*
X016964Y004934D01*
X016826Y004934D01*
X017437Y004461D02*
X016964Y003989D01*
X016826Y003989D01*
X017437Y004461D02*
X019858Y004461D01*
X019858Y003969D02*
X019464Y003969D01*
X019346Y003871D01*
X019858Y003477D02*
X019858Y002394D01*
X019641Y002178D01*
X019208Y001607D02*
X020173Y001607D01*
X022003Y003437D01*
X022003Y003949D01*
X023342Y005288D01*
X024523Y005288D01*
X024917Y005682D01*
X025114Y006154D02*
X025271Y006213D01*
X025606Y003969D02*
X024129Y003969D01*
X024129Y003378D01*
X024818Y003378D01*
X024818Y003538D01*
X024876Y003596D01*
X025548Y003596D01*
X025606Y003538D01*
X025606Y003969D01*
X025606Y003918D02*
X024129Y003918D01*
X024129Y003821D02*
X025606Y003821D01*
X025606Y003724D02*
X024129Y003724D01*
X024129Y003627D02*
X025606Y003627D01*
X024818Y003530D02*
X024129Y003530D01*
X024129Y003433D02*
X024818Y003433D01*
X023145Y003241D02*
X023145Y002611D01*
X023066Y002532D01*
X023082Y002532D01*
X023090Y002524D01*
X027791Y003319D02*
X027825Y003556D01*
X028608Y004520D02*
X028608Y004806D01*
X028263Y005150D01*
X027574Y005150D01*
X028354Y005566D02*
X029196Y005566D01*
X029159Y005469D02*
X028515Y005469D01*
X028382Y005663D02*
X029233Y005663D01*
X029236Y005760D02*
X028410Y005760D01*
X028437Y005857D02*
X029236Y005857D01*
X029265Y005954D02*
X028465Y005954D01*
X028493Y006051D02*
X029381Y006051D01*
X029373Y006148D02*
X028427Y006148D01*
X028330Y006245D02*
X028789Y006245D01*
X028705Y006342D02*
X028233Y006342D01*
X028822Y005373D02*
X029077Y005373D01*
X029415Y004520D02*
X029415Y003654D01*
X029681Y003634D01*
X027968Y010563D02*
X027909Y010859D01*
X025803Y012630D02*
X025212Y012630D01*
X025212Y013418D01*
X025015Y013615D01*
X024523Y013615D01*
X025803Y013615D01*
X025803Y013712D02*
X024523Y013712D01*
X024523Y013809D02*
X025803Y013809D01*
X025803Y013906D02*
X025011Y013906D01*
X024917Y013811D02*
X025114Y014008D01*
X025803Y014008D01*
X025803Y012630D01*
X025803Y012645D02*
X025212Y012645D01*
X025212Y012742D02*
X025803Y012742D01*
X025803Y012839D02*
X025212Y012839D01*
X025212Y012936D02*
X025803Y012936D01*
X025803Y013033D02*
X025212Y013033D01*
X025212Y013130D02*
X025803Y013130D01*
X025803Y013227D02*
X025212Y013227D01*
X025212Y013324D02*
X025803Y013324D01*
X025803Y013421D02*
X025209Y013421D01*
X025112Y013518D02*
X025803Y013518D01*
X025527Y013713D02*
X025704Y013910D01*
X025803Y014003D02*
X025108Y014003D01*
X024917Y013811D02*
X024523Y013811D01*
X024523Y013615D01*
X024129Y013615D02*
X022751Y013615D01*
X022751Y013712D02*
X024129Y013712D01*
X024129Y013809D02*
X022751Y013809D01*
X022751Y013906D02*
X023445Y013906D01*
X023539Y013811D02*
X024129Y013811D01*
X024129Y013221D01*
X022751Y013221D01*
X022751Y014500D01*
X023342Y014500D01*
X023342Y014008D01*
X023539Y013811D01*
X023348Y014003D02*
X022751Y014003D01*
X022751Y014100D02*
X023342Y014100D01*
X023342Y014197D02*
X022751Y014197D01*
X022751Y014294D02*
X023342Y014294D01*
X023342Y014391D02*
X022751Y014391D01*
X022751Y014488D02*
X023342Y014488D01*
X022751Y013518D02*
X024129Y013518D01*
X024129Y013421D02*
X022751Y013421D01*
X022751Y013324D02*
X024129Y013324D01*
X024129Y013227D02*
X022751Y013227D01*
X021964Y013221D02*
X021866Y013319D01*
X021314Y013319D01*
X021314Y012729D02*
X021472Y012729D01*
X020586Y011941D02*
X021374Y011154D01*
X021374Y010859D01*
X021669Y010563D01*
X022063Y010563D01*
X022161Y010662D01*
X022165Y011154D02*
X022795Y011784D01*
X023283Y011784D01*
X023637Y012138D01*
X024031Y012138D01*
X025311Y013123D02*
X025527Y012926D01*
X024425Y015682D02*
X024326Y015977D01*
X022653Y016371D02*
X022555Y016469D01*
X022555Y017256D01*
X022751Y017453D01*
X027771Y017453D01*
X027968Y017256D01*
X027968Y016961D01*
X027822Y016815D01*
X027822Y016089D01*
X028570Y016089D02*
X028570Y016556D01*
X028165Y016961D01*
X028165Y017355D01*
X027870Y017650D01*
X022653Y017650D01*
X022358Y017355D01*
X022358Y016272D01*
X022456Y015878D02*
X022102Y015583D01*
X021433Y015583D02*
X021177Y015583D01*
X017461Y015682D02*
X017043Y015682D01*
X016846Y011745D02*
X017264Y011745D01*
X015291Y008083D02*
X014996Y008083D01*
X014996Y007217D02*
X015311Y007217D01*
X015311Y007158D01*
X015291Y007138D01*
X015291Y004934D02*
X014996Y004934D01*
X014996Y004146D02*
X015291Y003989D01*
X015291Y001784D02*
X014996Y001784D01*
X016826Y001784D02*
X017712Y001784D01*
X017909Y002020D01*
X018066Y005249D02*
X018303Y005485D01*
X018303Y005642D01*
D34*
X018303Y005642D03*
X018303Y004855D03*
X019346Y003871D03*
X020389Y002886D03*
X019641Y002178D03*
X019208Y001607D03*
X017909Y002020D03*
X014996Y001784D03*
X014996Y004146D03*
X014996Y004934D03*
X014681Y006626D03*
X014996Y007217D03*
X014996Y008083D03*
X014681Y009776D03*
X014484Y012138D03*
X014484Y013319D03*
X014484Y014500D03*
X014484Y015682D03*
X020586Y011941D03*
X022161Y010662D03*
X022948Y008595D03*
X024425Y008890D03*
X026000Y009481D03*
X024917Y005682D03*
X027791Y003319D03*
X021866Y007119D03*
X019405Y005642D03*
X019326Y006430D03*
X018263Y008359D03*
D35*
X014338Y002271D02*
X014338Y000772D01*
X020949Y000772D01*
X020796Y000925D01*
X020692Y001176D01*
X020692Y001447D01*
X020796Y001698D01*
X020987Y001889D01*
X021238Y001993D01*
X021509Y001993D01*
X021760Y001889D01*
X021951Y001698D01*
X022055Y001447D01*
X022055Y001176D01*
X021951Y000925D01*
X021798Y000772D01*
X028823Y000772D01*
X028670Y000925D01*
X028566Y001176D01*
X028566Y001447D01*
X028670Y001698D01*
X028861Y001889D01*
X029112Y001993D01*
X029383Y001993D01*
X029634Y001889D01*
X029825Y001698D01*
X029929Y001447D01*
X029929Y001176D01*
X029825Y000925D01*
X029672Y000772D01*
X029983Y000772D01*
X029983Y006153D01*
X029604Y006153D01*
X029619Y006121D01*
X029601Y006075D01*
X029601Y006047D01*
X029663Y005985D01*
X029702Y005890D01*
X029702Y005788D01*
X029663Y005693D01*
X029590Y005621D01*
X029496Y005582D01*
X029413Y005582D01*
X029373Y005475D01*
X029393Y005467D01*
X029466Y005394D01*
X029505Y005300D01*
X029505Y005197D01*
X029466Y005103D01*
X029393Y005030D01*
X029299Y004991D01*
X029196Y004991D01*
X029102Y005030D01*
X029035Y005098D01*
X029025Y005101D01*
X028392Y005301D01*
X028461Y005232D01*
X028729Y004964D01*
X028945Y004964D01*
X029011Y004897D01*
X029078Y004964D01*
X029752Y004964D01*
X029839Y004877D01*
X029839Y004163D01*
X029763Y004087D01*
X029839Y004011D01*
X029839Y003840D01*
X029899Y003780D01*
X029938Y003686D01*
X029938Y003583D01*
X029899Y003489D01*
X029839Y003429D01*
X029839Y003297D01*
X029752Y003210D01*
X029078Y003210D01*
X029011Y003277D01*
X028945Y003210D01*
X028666Y003210D01*
X028658Y003194D01*
X028658Y003159D01*
X028623Y003124D01*
X028600Y003079D01*
X028567Y003068D01*
X028542Y003043D01*
X028492Y003043D01*
X028445Y003027D01*
X028424Y003038D01*
X028409Y003022D01*
X028314Y002983D01*
X028212Y002983D01*
X028118Y003022D01*
X028045Y003095D01*
X028016Y003166D01*
X027942Y003093D01*
X027844Y003052D01*
X027738Y003052D01*
X027640Y003093D01*
X027564Y003168D01*
X027547Y003210D01*
X027464Y003210D01*
X027377Y003297D01*
X027377Y004011D01*
X027453Y004087D01*
X027377Y004163D01*
X027377Y004877D01*
X027464Y004964D01*
X027481Y004964D01*
X026213Y006232D01*
X025871Y006232D01*
X025850Y006211D01*
X025755Y006172D01*
X025666Y006172D01*
X025666Y006103D01*
X025627Y006008D01*
X025616Y005998D01*
X025616Y005935D01*
X025529Y005848D01*
X025128Y005848D01*
X025143Y005833D01*
X025184Y005735D01*
X025184Y005628D01*
X025143Y005530D01*
X025068Y005455D01*
X024970Y005414D01*
X024929Y005414D01*
X024605Y005090D01*
X024441Y005090D01*
X023424Y005090D01*
X023328Y004994D01*
X023393Y004994D01*
X023488Y004955D01*
X023560Y004882D01*
X023599Y004788D01*
X023599Y004685D01*
X023560Y004591D01*
X023488Y004519D01*
X023393Y004479D01*
X023291Y004479D01*
X023196Y004519D01*
X023124Y004591D01*
X023085Y004685D01*
X023085Y004751D01*
X022201Y003867D01*
X022201Y003632D01*
X022238Y003721D01*
X022310Y003793D01*
X022405Y003833D01*
X022439Y003833D01*
X022701Y004027D01*
X022701Y004227D01*
X022788Y004314D01*
X023502Y004314D01*
X023589Y004227D01*
X023589Y003593D01*
X023572Y003575D01*
X023589Y003558D01*
X023589Y002923D01*
X023502Y002836D01*
X023405Y002836D01*
X023466Y002775D01*
X023534Y002612D01*
X023534Y002436D01*
X023466Y002273D01*
X023341Y002148D01*
X023178Y002080D01*
X023002Y002080D01*
X022839Y002148D01*
X022714Y002273D01*
X022646Y002436D01*
X022646Y002612D01*
X022714Y002775D01*
X022782Y002843D01*
X022701Y002923D01*
X022701Y003486D01*
X022696Y003483D01*
X022674Y003429D01*
X022602Y003357D01*
X022507Y003318D01*
X022405Y003318D01*
X022310Y003357D01*
X022238Y003429D01*
X022201Y003519D01*
X022201Y003356D01*
X022085Y003240D01*
X020255Y001409D01*
X020091Y001409D01*
X019388Y001409D01*
X019359Y001380D01*
X019261Y001340D01*
X019155Y001340D01*
X019057Y001380D01*
X018982Y001455D01*
X018941Y001554D01*
X018941Y001660D01*
X018982Y001758D01*
X019057Y001833D01*
X019155Y001874D01*
X019261Y001874D01*
X019359Y001833D01*
X019388Y001804D01*
X020091Y001804D01*
X021806Y003519D01*
X021806Y003867D01*
X021806Y004031D01*
X023260Y005485D01*
X023424Y005485D01*
X024237Y005485D01*
X024167Y005555D01*
X024128Y005650D01*
X024128Y005699D01*
X024082Y005680D01*
X023980Y005680D01*
X023885Y005719D01*
X023813Y005792D01*
X023774Y005886D01*
X023774Y005966D01*
X023717Y005966D01*
X023717Y005867D01*
X023678Y005772D01*
X023606Y005700D01*
X023511Y005660D01*
X023409Y005660D01*
X023314Y005700D01*
X023242Y005772D01*
X023203Y005867D01*
X023203Y005966D01*
X022749Y005966D01*
X022662Y006053D01*
X022662Y006605D01*
X022622Y006605D01*
X022527Y006645D01*
X022455Y006717D01*
X022415Y006811D01*
X022415Y006823D01*
X022342Y006823D01*
X022408Y006757D01*
X022408Y006083D01*
X022321Y005996D01*
X021607Y005996D01*
X021570Y006033D01*
X021533Y005996D01*
X020939Y005996D01*
X020942Y005989D01*
X020942Y005886D01*
X020903Y005792D01*
X020872Y005761D01*
X020872Y005659D01*
X020872Y005621D01*
X020903Y005591D01*
X020942Y005497D01*
X020942Y005394D01*
X020903Y005300D01*
X020872Y005269D01*
X020872Y005231D01*
X020872Y005129D01*
X020903Y005099D01*
X020942Y005004D01*
X020942Y004902D01*
X020903Y004807D01*
X020872Y004777D01*
X020872Y004739D01*
X020872Y004637D01*
X020903Y004607D01*
X020942Y004512D01*
X020942Y004410D01*
X020903Y004315D01*
X020872Y004285D01*
X020872Y004247D01*
X020872Y004145D01*
X020903Y004115D01*
X020942Y004020D01*
X020942Y003918D01*
X020903Y003823D01*
X020872Y003793D01*
X020872Y003755D01*
X020872Y003653D01*
X020903Y003623D01*
X020942Y003528D01*
X020942Y003426D01*
X020903Y003331D01*
X020872Y003301D01*
X020872Y003199D01*
X020785Y003112D01*
X020269Y003112D01*
X020192Y003188D01*
X020116Y003112D01*
X020055Y003112D01*
X020055Y002476D01*
X020055Y002312D01*
X019908Y002165D01*
X019908Y002124D01*
X019868Y002026D01*
X019793Y001951D01*
X019694Y001910D01*
X019588Y001910D01*
X019490Y001951D01*
X019415Y002026D01*
X019374Y002124D01*
X019374Y002231D01*
X019415Y002329D01*
X019490Y002404D01*
X019588Y002445D01*
X019629Y002445D01*
X019660Y002476D01*
X019660Y003112D01*
X019599Y003112D01*
X019513Y003199D01*
X019513Y003659D01*
X019497Y003644D01*
X019399Y003603D01*
X019293Y003603D01*
X019195Y003644D01*
X019119Y003719D01*
X019108Y003746D01*
X019098Y003736D01*
X019042Y003696D01*
X018981Y003665D01*
X018931Y003648D01*
X019032Y003606D01*
X019141Y003498D01*
X019199Y003356D01*
X019199Y003203D01*
X019141Y003062D01*
X019032Y002954D01*
X018891Y002895D01*
X018738Y002895D01*
X018698Y002912D01*
X018672Y002886D01*
X018698Y002861D01*
X018738Y002877D01*
X018891Y002877D01*
X019032Y002819D01*
X019141Y002710D01*
X019199Y002569D01*
X019199Y002416D01*
X019141Y002275D01*
X019032Y002166D01*
X018891Y002108D01*
X018738Y002108D01*
X018597Y002166D01*
X018488Y002275D01*
X018430Y002416D01*
X018430Y002569D01*
X018446Y002609D01*
X018406Y002649D01*
X018182Y002649D01*
X018215Y002569D01*
X018215Y002416D01*
X018156Y002275D01*
X018094Y002213D01*
X018135Y002171D01*
X018176Y002073D01*
X018176Y001967D01*
X018135Y001869D01*
X018060Y001794D01*
X017962Y001753D01*
X017944Y001753D01*
X017910Y001712D01*
X017910Y001702D01*
X017858Y001651D01*
X017812Y001595D01*
X017801Y001594D01*
X017794Y001586D01*
X017721Y001586D01*
X017648Y001580D01*
X017641Y001586D01*
X017044Y001586D01*
X017044Y001407D01*
X016957Y001321D01*
X016701Y001321D01*
X016445Y001321D01*
X016286Y001321D01*
X016286Y001119D01*
X016153Y000986D01*
X015964Y000986D01*
X014980Y000986D01*
X014847Y001119D01*
X014453Y001513D01*
X014453Y001701D01*
X014453Y002062D01*
X014435Y002116D01*
X014453Y002153D01*
X014453Y002187D01*
X014422Y002187D01*
X014338Y002271D01*
X014338Y002087D02*
X014445Y002087D01*
X014453Y001892D02*
X014338Y001892D01*
X014338Y001696D02*
X014453Y001696D01*
X014465Y001501D02*
X014338Y001501D01*
X014338Y001306D02*
X014660Y001306D01*
X014856Y001110D02*
X014338Y001110D01*
X014338Y000915D02*
X020806Y000915D01*
X020719Y001110D02*
X016277Y001110D01*
X016286Y001306D02*
X020692Y001306D01*
X020586Y001213D02*
X020586Y001508D01*
X021275Y002197D01*
X022751Y002197D01*
X023145Y001804D01*
X023637Y001804D01*
X023637Y001705D01*
X023539Y001607D01*
X023539Y001311D01*
X023560Y001311D02*
X023409Y001311D01*
X023409Y001312D01*
X023560Y001312D01*
X023560Y001710D01*
X023521Y001710D01*
X023444Y001695D01*
X023372Y001665D01*
X023339Y001643D01*
X023322Y001660D01*
X022799Y001660D01*
X022712Y001573D01*
X022712Y001050D01*
X022799Y000963D01*
X023322Y000963D01*
X023339Y000980D01*
X023372Y000958D01*
X023444Y000928D01*
X023521Y000913D01*
X023560Y000913D01*
X023560Y001311D01*
X023560Y001312D01*
X023561Y001312D01*
X023561Y001710D01*
X023600Y001710D01*
X023677Y001695D01*
X023749Y001665D01*
X023814Y001621D01*
X023846Y001590D01*
X023863Y001607D01*
X023991Y001660D01*
X024130Y001660D01*
X024258Y001607D01*
X024311Y001554D01*
X024363Y001607D01*
X024456Y001645D01*
X024374Y001645D01*
X024279Y001684D01*
X024207Y001757D01*
X023872Y002091D01*
X023851Y002143D01*
X023839Y002148D01*
X023714Y002273D01*
X023646Y002436D01*
X023646Y002612D01*
X023714Y002775D01*
X023839Y002900D01*
X024002Y002968D01*
X024178Y002968D01*
X024341Y002900D01*
X024466Y002775D01*
X024534Y002612D01*
X024534Y002436D01*
X024466Y002273D01*
X024442Y002248D01*
X024531Y002159D01*
X024828Y002159D01*
X024714Y002273D01*
X024646Y002436D01*
X024646Y002612D01*
X024714Y002775D01*
X024815Y002877D01*
X024768Y002923D01*
X024768Y003181D01*
X024211Y003181D01*
X024048Y003181D01*
X023932Y003297D01*
X023932Y004051D01*
X024013Y004132D01*
X023986Y004160D01*
X023986Y004834D01*
X024073Y004921D01*
X024786Y004921D01*
X024873Y004834D01*
X024873Y004314D01*
X024880Y004314D01*
X024896Y004351D01*
X024968Y004423D01*
X025062Y004462D01*
X025165Y004462D01*
X025259Y004423D01*
X025332Y004351D01*
X025347Y004314D01*
X025411Y004314D01*
X025436Y004325D01*
X025539Y004325D01*
X025564Y004314D01*
X025569Y004314D01*
X025572Y004311D01*
X025633Y004286D01*
X025706Y004213D01*
X025721Y004177D01*
X025736Y004162D01*
X025736Y004141D01*
X025745Y004119D01*
X025745Y004109D01*
X025803Y004051D01*
X025803Y003460D01*
X025803Y003399D01*
X025850Y003380D01*
X025922Y003308D01*
X025962Y003213D01*
X025962Y003111D01*
X025922Y003016D01*
X025850Y002944D01*
X025755Y002905D01*
X025653Y002905D01*
X025642Y002909D01*
X025569Y002836D01*
X025466Y002836D01*
X025440Y002826D01*
X025416Y002826D01*
X025466Y002775D01*
X025534Y002612D01*
X025534Y002436D01*
X025466Y002273D01*
X025352Y002159D01*
X025828Y002159D01*
X025714Y002273D01*
X025646Y002436D01*
X025646Y002612D01*
X025714Y002775D01*
X025839Y002900D01*
X026002Y002968D01*
X026178Y002968D01*
X026341Y002900D01*
X026466Y002775D01*
X026534Y002612D01*
X026534Y002436D01*
X026466Y002273D01*
X026341Y002148D01*
X026307Y002134D01*
X026342Y002120D01*
X026735Y001726D01*
X026808Y001654D01*
X026838Y001581D01*
X026863Y001607D01*
X026991Y001660D01*
X027130Y001660D01*
X027258Y001607D01*
X027311Y001554D01*
X027363Y001607D01*
X027491Y001660D01*
X027630Y001660D01*
X027758Y001607D01*
X027856Y001509D01*
X027909Y001381D01*
X027909Y001242D01*
X027856Y001114D01*
X027758Y001016D01*
X027630Y000963D01*
X027491Y000963D01*
X027363Y001016D01*
X027311Y001069D01*
X027258Y001016D01*
X027130Y000963D01*
X026991Y000963D01*
X026863Y001016D01*
X026811Y001069D01*
X026758Y001016D01*
X026630Y000963D01*
X026491Y000963D01*
X026363Y001016D01*
X026311Y001069D01*
X026258Y001016D01*
X026130Y000963D01*
X025991Y000963D01*
X025863Y001016D01*
X025811Y001069D01*
X025758Y001016D01*
X025630Y000963D01*
X025491Y000963D01*
X025363Y001016D01*
X025311Y001069D01*
X025258Y001016D01*
X025130Y000963D01*
X024991Y000963D01*
X024863Y001016D01*
X024811Y001069D01*
X024758Y001016D01*
X024630Y000963D01*
X024491Y000963D01*
X024363Y001016D01*
X024311Y001069D01*
X024258Y001016D01*
X024130Y000963D01*
X023991Y000963D01*
X023863Y001016D01*
X023846Y001033D01*
X023814Y001002D01*
X023749Y000958D01*
X023677Y000928D01*
X023600Y000913D01*
X023561Y000913D01*
X023561Y001311D01*
X023560Y001311D01*
X023560Y001306D02*
X023561Y001306D01*
X023560Y001501D02*
X023561Y001501D01*
X023560Y001696D02*
X023561Y001696D01*
X023667Y001696D02*
X024267Y001696D01*
X024072Y001892D02*
X021753Y001892D01*
X021952Y001696D02*
X023454Y001696D01*
X023195Y002087D02*
X023876Y002087D01*
X023710Y002283D02*
X023470Y002283D01*
X023534Y002478D02*
X023646Y002478D01*
X023672Y002673D02*
X023508Y002673D01*
X023534Y002869D02*
X023807Y002869D01*
X023589Y003064D02*
X024768Y003064D01*
X024807Y002869D02*
X024373Y002869D01*
X024508Y002673D02*
X024672Y002673D01*
X024646Y002478D02*
X024534Y002478D01*
X024470Y002283D02*
X024710Y002283D01*
X025470Y002283D02*
X025710Y002283D01*
X025646Y002478D02*
X025534Y002478D01*
X025508Y002673D02*
X025672Y002673D01*
X025601Y002869D02*
X025807Y002869D01*
X025942Y003064D02*
X027709Y003064D01*
X027873Y003064D02*
X028076Y003064D01*
X028563Y003064D02*
X029983Y003064D01*
X029983Y002869D02*
X026373Y002869D01*
X026508Y002673D02*
X029983Y002673D01*
X029983Y002478D02*
X026534Y002478D01*
X026470Y002283D02*
X029983Y002283D01*
X029983Y002087D02*
X026374Y002087D01*
X026196Y001902D02*
X026196Y001882D01*
X026570Y001508D01*
X026765Y001696D02*
X028669Y001696D01*
X028588Y001501D02*
X027859Y001501D01*
X027909Y001306D02*
X028566Y001306D01*
X028593Y001110D02*
X027852Y001110D01*
X028680Y000915D02*
X023609Y000915D01*
X023561Y000915D02*
X023560Y000915D01*
X023512Y000915D02*
X021941Y000915D01*
X022028Y001110D02*
X022712Y001110D01*
X022712Y001306D02*
X022055Y001306D01*
X022033Y001501D02*
X022712Y001501D01*
X022985Y002087D02*
X020933Y002087D01*
X020994Y001892D02*
X020737Y001892D01*
X020795Y001696D02*
X020542Y001696D01*
X020714Y001501D02*
X020347Y001501D01*
X020586Y001213D02*
X020389Y001016D01*
X018913Y001016D01*
X018618Y001311D01*
X018618Y001705D01*
X018913Y002000D01*
X019011Y002000D01*
X019307Y002296D01*
X019307Y002000D01*
X019405Y001902D01*
X019996Y001902D01*
X019996Y002000D01*
X020586Y002591D01*
X020586Y002689D01*
X020389Y002886D01*
X020055Y002869D02*
X021155Y002869D01*
X020960Y002673D02*
X020055Y002673D01*
X020055Y002478D02*
X020765Y002478D01*
X020569Y002283D02*
X020026Y002283D01*
X019893Y002087D02*
X020374Y002087D01*
X020178Y001892D02*
X018145Y001892D01*
X018170Y002087D02*
X019389Y002087D01*
X019396Y002283D02*
X019144Y002283D01*
X019307Y002296D02*
X019405Y002394D01*
X019405Y002493D01*
X019307Y002591D01*
X019307Y003378D01*
X019011Y003674D01*
X018814Y003871D01*
X018814Y004067D01*
X018380Y004067D01*
X018380Y004033D01*
X018391Y003966D01*
X018412Y003901D01*
X018443Y003840D01*
X018483Y003784D01*
X018531Y003736D01*
X018587Y003696D01*
X018648Y003665D01*
X018698Y003648D01*
X018597Y003606D01*
X018488Y003498D01*
X018430Y003356D01*
X018430Y003203D01*
X018446Y003164D01*
X018406Y003123D01*
X018182Y003123D01*
X018215Y003203D01*
X018215Y003356D01*
X018156Y003498D01*
X018048Y003606D01*
X017907Y003665D01*
X017754Y003665D01*
X017612Y003606D01*
X017504Y003498D01*
X017488Y003458D01*
X016683Y003458D01*
X016616Y003525D01*
X016696Y003525D01*
X016957Y003525D01*
X017044Y003612D01*
X017044Y003791D01*
X017046Y003791D01*
X017162Y003907D01*
X017479Y004224D01*
X017446Y004144D01*
X017446Y003991D01*
X017504Y003849D01*
X017612Y003741D01*
X017754Y003683D01*
X017907Y003683D01*
X018048Y003741D01*
X018156Y003849D01*
X018215Y003991D01*
X018215Y004144D01*
X018165Y004263D01*
X018427Y004263D01*
X018412Y004234D01*
X018391Y004169D01*
X018380Y004102D01*
X018380Y004068D01*
X018814Y004068D01*
X018814Y004067D01*
X018815Y004067D01*
X018815Y003665D01*
X018814Y003665D01*
X018814Y004067D01*
X018814Y004041D02*
X018815Y004041D01*
X018814Y003871D02*
X018618Y003674D01*
X019011Y003674D01*
X018938Y003650D02*
X019188Y003650D01*
X019158Y003455D02*
X019513Y003455D01*
X019504Y003650D02*
X019513Y003650D01*
X019307Y003378D02*
X019405Y003280D01*
X019405Y002493D01*
X019199Y002478D02*
X019660Y002478D01*
X019660Y002673D02*
X019156Y002673D01*
X018911Y002869D02*
X019660Y002869D01*
X019660Y003064D02*
X019141Y003064D01*
X019199Y003260D02*
X019513Y003260D01*
X020055Y003064D02*
X021351Y003064D01*
X021546Y003260D02*
X020872Y003260D01*
X020942Y003455D02*
X021741Y003455D01*
X021806Y003650D02*
X020875Y003650D01*
X020912Y003846D02*
X021806Y003846D01*
X021816Y004041D02*
X020933Y004041D01*
X020872Y004237D02*
X022011Y004237D01*
X022207Y004432D02*
X020942Y004432D01*
X020882Y004627D02*
X022402Y004627D01*
X022597Y004823D02*
X020909Y004823D01*
X020936Y005018D02*
X022793Y005018D01*
X022988Y005214D02*
X020872Y005214D01*
X020942Y005409D02*
X023184Y005409D01*
X023231Y005800D02*
X020906Y005800D01*
X020889Y005604D02*
X024147Y005604D01*
X023810Y005800D02*
X023690Y005800D01*
X023352Y005018D02*
X027427Y005018D01*
X027377Y004823D02*
X024873Y004823D01*
X024873Y004627D02*
X027377Y004627D01*
X027377Y004432D02*
X025239Y004432D01*
X024989Y004432D02*
X024873Y004432D01*
X024728Y005214D02*
X027231Y005214D01*
X027036Y005409D02*
X024924Y005409D01*
X025174Y005604D02*
X026841Y005604D01*
X026645Y005800D02*
X025157Y005800D01*
X025616Y005995D02*
X026450Y005995D01*
X026254Y006191D02*
X025799Y006191D01*
X025682Y004237D02*
X027377Y004237D01*
X027407Y004041D02*
X025803Y004041D01*
X025803Y003846D02*
X027377Y003846D01*
X027377Y003650D02*
X025803Y003650D01*
X025803Y003455D02*
X027377Y003455D01*
X027414Y003260D02*
X025942Y003260D01*
X026570Y001892D02*
X028868Y001892D01*
X029627Y001892D02*
X029983Y001892D01*
X029983Y001696D02*
X029826Y001696D01*
X029907Y001501D02*
X029983Y001501D01*
X029983Y001306D02*
X029929Y001306D01*
X029902Y001110D02*
X029983Y001110D01*
X029983Y000915D02*
X029815Y000915D01*
X029801Y003260D02*
X029983Y003260D01*
X029983Y003455D02*
X029865Y003455D01*
X029938Y003650D02*
X029983Y003650D01*
X029983Y003846D02*
X029839Y003846D01*
X029808Y004041D02*
X029983Y004041D01*
X029983Y004237D02*
X029839Y004237D01*
X029839Y004432D02*
X029983Y004432D01*
X029983Y004627D02*
X029839Y004627D01*
X029839Y004823D02*
X029983Y004823D01*
X029983Y005018D02*
X029364Y005018D01*
X029131Y005018D02*
X028675Y005018D01*
X028669Y005214D02*
X028479Y005214D01*
X029451Y005409D02*
X029983Y005409D01*
X029983Y005604D02*
X029550Y005604D01*
X029702Y005800D02*
X029983Y005800D01*
X029983Y005995D02*
X029652Y005995D01*
X029505Y005214D02*
X029983Y005214D01*
X029029Y003260D02*
X028994Y003260D01*
X023969Y003260D02*
X023589Y003260D01*
X023589Y003455D02*
X023932Y003455D01*
X023932Y003650D02*
X023589Y003650D01*
X023589Y003846D02*
X023932Y003846D01*
X023932Y004041D02*
X023589Y004041D01*
X023580Y004237D02*
X023986Y004237D01*
X023986Y004432D02*
X022766Y004432D01*
X022711Y004237D02*
X022570Y004237D01*
X022701Y004041D02*
X022375Y004041D01*
X022457Y003846D02*
X022201Y003846D01*
X022201Y003650D02*
X022209Y003650D01*
X022201Y003455D02*
X022227Y003455D01*
X022105Y003260D02*
X022701Y003260D01*
X022685Y003455D02*
X022701Y003455D01*
X022701Y003064D02*
X021910Y003064D01*
X021714Y002869D02*
X022756Y002869D01*
X022672Y002673D02*
X021519Y002673D01*
X021324Y002478D02*
X022646Y002478D01*
X022710Y002283D02*
X021128Y002283D01*
X020685Y003477D02*
X020527Y003477D01*
X020527Y003969D02*
X020685Y003969D01*
X020685Y004461D02*
X020527Y004461D01*
X020527Y004953D02*
X020685Y004953D01*
X020685Y005445D02*
X020527Y005445D01*
X020527Y005937D02*
X020685Y005937D01*
X020939Y005995D02*
X022720Y005995D01*
X022662Y006191D02*
X022408Y006191D01*
X022408Y006386D02*
X022662Y006386D01*
X022662Y006581D02*
X022408Y006581D01*
X022388Y006777D02*
X022430Y006777D01*
X021177Y007227D02*
X021177Y008300D01*
X021472Y008595D01*
X022948Y008595D01*
X022259Y008989D02*
X022161Y009087D01*
X021964Y009284D01*
X021964Y009481D01*
X021767Y009678D01*
X021374Y009678D01*
X020881Y010170D01*
X020881Y010563D01*
X019700Y011745D01*
X019184Y011745D01*
X019184Y012930D01*
X018893Y013221D01*
X018929Y012836D02*
X018937Y012828D01*
X018937Y012318D01*
X018677Y012318D01*
X018591Y012231D01*
X018591Y011258D01*
X018677Y011171D01*
X019690Y011171D01*
X019777Y011258D01*
X019777Y011318D01*
X020635Y010461D01*
X020635Y010219D01*
X020635Y010121D01*
X020672Y010030D01*
X020767Y009935D01*
X020732Y009935D01*
X020637Y009896D01*
X020565Y009823D01*
X020526Y009729D01*
X020526Y009712D01*
X020490Y009747D01*
X020088Y009747D01*
X020095Y009764D01*
X020095Y009867D01*
X020056Y009961D01*
X019984Y010034D01*
X019976Y010037D01*
X019977Y010040D01*
X019977Y010142D01*
X019938Y010237D01*
X019866Y010309D01*
X019771Y010348D01*
X019669Y010348D01*
X019574Y010309D01*
X019502Y010237D01*
X019476Y010175D01*
X018736Y010994D01*
X018736Y011000D01*
X018682Y011054D01*
X018631Y011111D01*
X018625Y011111D01*
X018621Y011115D01*
X018544Y011115D01*
X018467Y011119D01*
X018463Y011115D01*
X015944Y011115D01*
X015780Y011115D01*
X015465Y010800D01*
X015416Y010751D01*
X015160Y010751D01*
X015074Y010664D01*
X015074Y009911D01*
X015160Y009824D01*
X015416Y009824D01*
X015625Y009824D01*
X015625Y009751D01*
X015625Y009604D01*
X016043Y009185D01*
X015625Y008767D01*
X015625Y008620D01*
X015625Y008546D01*
X015421Y008546D01*
X015160Y008546D01*
X015074Y008460D01*
X015074Y008340D01*
X015049Y008350D01*
X014942Y008350D01*
X014844Y008310D01*
X014769Y008234D01*
X014728Y008136D01*
X014728Y008030D01*
X014769Y007932D01*
X014844Y007857D01*
X014890Y007838D01*
X014882Y007838D01*
X014586Y007543D01*
X014453Y007410D01*
X014453Y006776D01*
X014437Y006735D01*
X014422Y006735D01*
X014338Y006652D01*
X014338Y008570D01*
X014422Y008486D01*
X014447Y008486D01*
X014462Y008449D01*
X014535Y008377D01*
X014629Y008338D01*
X014732Y008338D01*
X014826Y008377D01*
X014899Y008449D01*
X014914Y008486D01*
X014939Y008486D01*
X015026Y008573D01*
X015026Y009129D01*
X014969Y009186D01*
X015026Y009242D01*
X015026Y009798D01*
X014939Y009885D01*
X014925Y009885D01*
X014907Y009927D01*
X014832Y010003D01*
X014734Y010043D01*
X014627Y010043D01*
X014529Y010003D01*
X014454Y009927D01*
X014437Y009885D01*
X014422Y009885D01*
X014338Y009801D01*
X014338Y017599D01*
X020949Y017599D01*
X020796Y017446D01*
X020692Y017195D01*
X020692Y016924D01*
X020796Y016673D01*
X020987Y016482D01*
X021238Y016378D01*
X021509Y016378D01*
X021760Y016482D01*
X021951Y016673D01*
X022055Y016924D01*
X022055Y017195D01*
X021951Y017446D01*
X021798Y017599D01*
X022322Y017599D01*
X022276Y017552D01*
X022160Y017437D01*
X022160Y016438D01*
X022140Y016418D01*
X022100Y016323D01*
X022100Y016221D01*
X022140Y016126D01*
X022212Y016054D01*
X022252Y016038D01*
X022238Y016024D01*
X022199Y015930D01*
X022199Y015928D01*
X021824Y015928D01*
X021767Y015872D01*
X021711Y015928D01*
X021155Y015928D01*
X021068Y015841D01*
X021068Y015816D01*
X021031Y015801D01*
X020959Y015729D01*
X020919Y015634D01*
X020919Y015532D01*
X020959Y015437D01*
X021031Y015365D01*
X021068Y015350D01*
X021068Y015325D01*
X021155Y015238D01*
X021711Y015238D01*
X021767Y015295D01*
X021824Y015238D01*
X022380Y015238D01*
X022467Y015325D01*
X022467Y015621D01*
X022507Y015621D01*
X022583Y015653D01*
X022583Y015404D01*
X022670Y015317D01*
X023344Y015317D01*
X023431Y015404D01*
X023431Y016078D01*
X023344Y016165D01*
X023254Y016165D01*
X023254Y016711D01*
X023322Y016711D01*
X023372Y016761D01*
X023491Y016711D01*
X023630Y016711D01*
X023758Y016764D01*
X023811Y016817D01*
X023863Y016764D01*
X023991Y016711D01*
X024130Y016711D01*
X024258Y016764D01*
X024311Y016817D01*
X024363Y016764D01*
X024491Y016711D01*
X024630Y016711D01*
X024758Y016764D01*
X024811Y016817D01*
X024863Y016764D01*
X024991Y016711D01*
X025130Y016711D01*
X025258Y016764D01*
X025311Y016817D01*
X025363Y016764D01*
X025491Y016711D01*
X025630Y016711D01*
X025758Y016764D01*
X025811Y016817D01*
X025863Y016764D01*
X025991Y016711D01*
X026130Y016711D01*
X026258Y016764D01*
X026311Y016817D01*
X026363Y016764D01*
X026491Y016711D01*
X026630Y016711D01*
X026758Y016764D01*
X026811Y016817D01*
X026863Y016764D01*
X026991Y016711D01*
X027130Y016711D01*
X027258Y016764D01*
X027311Y016817D01*
X027363Y016764D01*
X027491Y016711D01*
X027625Y016711D01*
X027625Y016426D01*
X027556Y016358D01*
X027556Y016261D01*
X027523Y016293D01*
X027429Y016333D01*
X027326Y016333D01*
X027232Y016293D01*
X027159Y016221D01*
X027159Y016220D01*
X027136Y016197D01*
X026828Y016197D01*
X026740Y016234D01*
X025755Y016234D01*
X025653Y016234D01*
X025559Y016194D01*
X025529Y016165D01*
X025446Y016165D01*
X025359Y016078D01*
X025359Y015348D01*
X025065Y015348D01*
X025065Y016078D01*
X024978Y016165D01*
X024798Y016165D01*
X024767Y016195D01*
X024673Y016234D01*
X024570Y016234D01*
X024476Y016195D01*
X024474Y016193D01*
X024472Y016195D01*
X024377Y016234D01*
X024275Y016234D01*
X024181Y016195D01*
X024150Y016165D01*
X023871Y016165D01*
X023784Y016078D01*
X023784Y015285D01*
X023871Y015199D01*
X024130Y015199D01*
X023974Y015043D01*
X023714Y015043D01*
X023627Y014956D01*
X023627Y014439D01*
X023656Y014409D01*
X023656Y014334D01*
X023655Y014334D01*
X023568Y014247D01*
X023568Y014062D01*
X023540Y014090D01*
X023540Y014582D01*
X023424Y014698D01*
X023260Y014698D01*
X022670Y014698D01*
X022554Y014582D01*
X022554Y014419D01*
X022554Y013842D01*
X022533Y013842D01*
X022446Y013755D01*
X022446Y013002D01*
X022533Y012915D01*
X023364Y012915D01*
X023451Y013002D01*
X023451Y013023D01*
X023663Y013023D01*
X023646Y013007D01*
X023646Y012887D01*
X023586Y012887D01*
X023492Y012848D01*
X023374Y012730D01*
X023364Y012739D01*
X022533Y012739D01*
X022470Y012677D01*
X022409Y012652D01*
X022336Y012579D01*
X022297Y012485D01*
X022297Y012382D01*
X022298Y012381D01*
X022298Y012093D01*
X022297Y012091D01*
X022297Y011989D01*
X022336Y011894D01*
X022409Y011822D01*
X022503Y011783D01*
X022514Y011783D01*
X022142Y011411D01*
X021722Y011411D01*
X021720Y011411D01*
X021618Y011411D01*
X021523Y011372D01*
X021479Y011328D01*
X021455Y011352D01*
X020853Y011954D01*
X020853Y011995D01*
X020813Y012093D01*
X020737Y012168D01*
X020639Y012209D01*
X020533Y012209D01*
X020435Y012168D01*
X020360Y012093D01*
X020319Y011995D01*
X020319Y011967D01*
X020144Y012142D01*
X020144Y013152D01*
X020144Y013250D01*
X020106Y013341D01*
X019477Y013971D01*
X019477Y014440D01*
X019590Y014553D01*
X019628Y014644D01*
X019628Y014742D01*
X019628Y015108D01*
X019887Y015108D01*
X019974Y015195D01*
X019974Y016168D01*
X019887Y016255D01*
X018874Y016255D01*
X018787Y016168D01*
X018787Y015195D01*
X018874Y015108D01*
X019134Y015108D01*
X019134Y014795D01*
X018929Y014590D01*
X018397Y014590D01*
X018310Y014503D01*
X018310Y013907D01*
X018397Y013821D01*
X018929Y013821D01*
X019144Y013606D01*
X018397Y013606D01*
X018310Y013519D01*
X018310Y012923D01*
X018397Y012836D01*
X018929Y012836D01*
X018931Y012834D02*
X017086Y012834D01*
X017103Y012874D02*
X017103Y012977D01*
X017064Y013071D01*
X016992Y013144D01*
X016897Y013183D01*
X016862Y013183D01*
X017055Y013376D01*
X017093Y013467D01*
X017093Y013565D01*
X017093Y014201D01*
X017163Y014272D01*
X017189Y014282D01*
X017261Y014355D01*
X017300Y014449D01*
X017300Y014552D01*
X017261Y014646D01*
X017189Y014719D01*
X017094Y014758D01*
X016992Y014758D01*
X016897Y014719D01*
X016825Y014646D01*
X016814Y014621D01*
X016706Y014513D01*
X016637Y014443D01*
X016619Y014402D01*
X016598Y014423D01*
X016563Y014438D01*
X016563Y014503D01*
X016476Y014590D01*
X015483Y014590D01*
X015396Y014503D01*
X015396Y013907D01*
X015483Y013821D01*
X016476Y013821D01*
X016563Y013907D01*
X016563Y013973D01*
X016598Y013987D01*
X016599Y013988D01*
X016599Y013618D01*
X016531Y013551D01*
X016476Y013606D01*
X015483Y013606D01*
X015396Y013519D01*
X015396Y012923D01*
X015483Y012836D01*
X016476Y012836D01*
X016563Y012923D01*
X016563Y012974D01*
X016589Y012974D01*
X016589Y012874D01*
X016628Y012780D01*
X016679Y012729D01*
X016628Y012678D01*
X016589Y012583D01*
X016589Y012481D01*
X016628Y012386D01*
X016700Y012314D01*
X016738Y012298D01*
X016671Y012231D01*
X016671Y012228D01*
X016628Y012186D01*
X016589Y012091D01*
X016589Y011989D01*
X016628Y011894D01*
X016630Y011892D01*
X016628Y011890D01*
X016589Y011796D01*
X016589Y011693D01*
X016628Y011599D01*
X016630Y011597D01*
X016628Y011595D01*
X016589Y011500D01*
X016589Y011398D01*
X016628Y011304D01*
X016671Y011261D01*
X016671Y011258D01*
X016757Y011171D01*
X017770Y011171D01*
X017857Y011258D01*
X017857Y012231D01*
X017770Y012318D01*
X016996Y012318D01*
X017064Y012386D01*
X017103Y012481D01*
X017103Y012583D01*
X017064Y012678D01*
X017013Y012729D01*
X017064Y012780D01*
X017103Y012874D01*
X017082Y013029D02*
X018310Y013029D01*
X018310Y013225D02*
X016904Y013225D01*
X017073Y013420D02*
X018310Y013420D01*
X018173Y013495D02*
X018245Y013567D01*
X018284Y013662D01*
X018284Y013764D01*
X018245Y013859D01*
X018194Y013910D01*
X018245Y013961D01*
X018284Y014056D01*
X018284Y014158D01*
X018245Y014253D01*
X018173Y014325D01*
X018078Y014364D01*
X017976Y014364D01*
X017881Y014325D01*
X017809Y014253D01*
X017770Y014158D01*
X017770Y014056D01*
X017809Y013961D01*
X017860Y013910D01*
X017809Y013859D01*
X017770Y013764D01*
X017770Y013662D01*
X017809Y013567D01*
X017881Y013495D01*
X017976Y013456D01*
X018078Y013456D01*
X018173Y013495D01*
X018265Y013615D02*
X019134Y013615D01*
X018938Y013811D02*
X018265Y013811D01*
X018264Y014006D02*
X018310Y014006D01*
X018310Y014202D02*
X018266Y014202D01*
X018310Y014397D02*
X017278Y014397D01*
X017291Y014325D02*
X017218Y014253D01*
X017179Y014158D01*
X017179Y014056D01*
X017218Y013961D01*
X017269Y013910D01*
X017218Y013859D01*
X017179Y013764D01*
X017179Y013662D01*
X017218Y013567D01*
X017291Y013495D01*
X017385Y013456D01*
X017488Y013456D01*
X017582Y013495D01*
X017655Y013567D01*
X017694Y013662D01*
X017694Y013764D01*
X017655Y013859D01*
X017604Y013910D01*
X017655Y013961D01*
X017694Y014056D01*
X017694Y014158D01*
X017655Y014253D01*
X017582Y014325D01*
X017488Y014364D01*
X017385Y014364D01*
X017291Y014325D01*
X017197Y014202D02*
X017093Y014202D01*
X017093Y014006D02*
X017200Y014006D01*
X017199Y013811D02*
X017093Y013811D01*
X017093Y013615D02*
X017198Y013615D01*
X017675Y013615D02*
X017789Y013615D01*
X017789Y013811D02*
X017675Y013811D01*
X017673Y014006D02*
X017790Y014006D01*
X017788Y014202D02*
X017676Y014202D01*
X017283Y014592D02*
X018931Y014592D01*
X019127Y014788D02*
X014338Y014788D01*
X014338Y014983D02*
X019134Y014983D01*
X019381Y014693D02*
X018893Y014205D01*
X019897Y013201D01*
X019897Y012040D01*
X021275Y010662D01*
X021275Y010268D01*
X021464Y010079D01*
X022240Y010079D01*
X022232Y009087D02*
X022161Y009087D01*
X022232Y009087D02*
X022240Y009079D01*
X020655Y009903D02*
X020080Y009903D01*
X019977Y010098D02*
X020644Y010098D01*
X020635Y010294D02*
X019881Y010294D01*
X019559Y010294D02*
X019369Y010294D01*
X019193Y010489D02*
X020607Y010489D01*
X020411Y010685D02*
X019016Y010685D01*
X018839Y010880D02*
X020216Y010880D01*
X020020Y011075D02*
X018663Y011075D01*
X018591Y011271D02*
X017857Y011271D01*
X017857Y011466D02*
X018591Y011466D01*
X018591Y011662D02*
X017857Y011662D01*
X017857Y011857D02*
X018591Y011857D01*
X018591Y012052D02*
X017857Y012052D01*
X017841Y012248D02*
X018607Y012248D01*
X018937Y012443D02*
X017088Y012443D01*
X017080Y012639D02*
X018937Y012639D01*
X019832Y013615D02*
X020318Y013615D01*
X020300Y013597D02*
X020376Y013673D01*
X020367Y013681D01*
X020342Y013692D01*
X020270Y013764D01*
X020230Y013859D01*
X020230Y013961D01*
X020270Y014056D01*
X020342Y014128D01*
X020436Y014167D01*
X020539Y014167D01*
X020633Y014128D01*
X020706Y014056D01*
X020716Y014030D01*
X020785Y013962D01*
X020854Y013892D01*
X020892Y013802D01*
X020892Y013684D01*
X020904Y013684D01*
X020980Y013608D01*
X021056Y013684D01*
X021573Y013684D01*
X021660Y013597D01*
X021660Y013517D01*
X021784Y013517D01*
X021948Y013517D01*
X021986Y013478D01*
X022015Y013478D01*
X022110Y013439D01*
X022182Y013367D01*
X022221Y013272D01*
X022221Y013170D01*
X022182Y013075D01*
X022110Y013003D01*
X022015Y012964D01*
X021913Y012964D01*
X021818Y013003D01*
X021746Y013075D01*
X021727Y013122D01*
X021660Y013122D01*
X021660Y013041D01*
X021642Y013024D01*
X021660Y013007D01*
X021660Y012905D01*
X021690Y012875D01*
X021729Y012780D01*
X021729Y012678D01*
X021690Y012583D01*
X021660Y012553D01*
X021660Y012451D01*
X021573Y012364D01*
X021056Y012364D01*
X020980Y012440D01*
X020904Y012364D01*
X020387Y012364D01*
X020300Y012451D01*
X020300Y012553D01*
X020270Y012583D01*
X020230Y012678D01*
X020230Y012780D01*
X020270Y012875D01*
X020300Y012905D01*
X020300Y013007D01*
X020317Y013024D01*
X020300Y013041D01*
X020300Y013597D01*
X020300Y013420D02*
X020027Y013420D01*
X020144Y013225D02*
X020300Y013225D01*
X020312Y013029D02*
X020144Y013029D01*
X020144Y012834D02*
X020253Y012834D01*
X020247Y012639D02*
X020144Y012639D01*
X020144Y012443D02*
X020308Y012443D01*
X020144Y012248D02*
X022298Y012248D01*
X022297Y012443D02*
X021652Y012443D01*
X021713Y012639D02*
X022396Y012639D01*
X022446Y013029D02*
X022136Y013029D01*
X022221Y013225D02*
X022446Y013225D01*
X022446Y013420D02*
X022129Y013420D01*
X022446Y013615D02*
X021642Y013615D01*
X021648Y013029D02*
X021792Y013029D01*
X021707Y012834D02*
X023478Y012834D01*
X024661Y012729D02*
X024700Y012729D01*
X024740Y012689D01*
X024740Y013339D01*
X024740Y012689D02*
X024740Y012217D01*
X024661Y012138D01*
X025482Y012116D02*
X025482Y011916D01*
X024976Y011075D01*
X022393Y011662D02*
X021145Y011662D01*
X020950Y011857D02*
X022374Y011857D01*
X022297Y012052D02*
X020829Y012052D01*
X020343Y012052D02*
X020234Y012052D01*
X020488Y012729D02*
X020645Y012729D01*
X020645Y013319D02*
X020645Y013752D01*
X020488Y013910D01*
X020249Y014006D02*
X019477Y014006D01*
X019477Y014202D02*
X022554Y014202D01*
X022554Y014397D02*
X019477Y014397D01*
X019606Y014592D02*
X022564Y014592D01*
X022554Y014006D02*
X020740Y014006D01*
X020888Y013811D02*
X022502Y013811D01*
X023540Y014202D02*
X023568Y014202D01*
X023540Y014397D02*
X023656Y014397D01*
X023627Y014592D02*
X023530Y014592D01*
X023627Y014788D02*
X020624Y014788D01*
X020607Y014748D02*
X020647Y014843D01*
X020647Y014945D01*
X020607Y015040D01*
X020556Y015091D01*
X020607Y015142D01*
X020647Y015237D01*
X020647Y015339D01*
X020607Y015434D01*
X020535Y015506D01*
X020440Y015545D01*
X020338Y015545D01*
X020244Y015506D01*
X020171Y015434D01*
X020132Y015339D01*
X020132Y015237D01*
X020171Y015142D01*
X020222Y015091D01*
X020171Y015040D01*
X020132Y014945D01*
X020132Y014843D01*
X020171Y014748D01*
X020244Y014676D01*
X020338Y014637D01*
X020440Y014637D01*
X020535Y014676D01*
X020607Y014748D01*
X020631Y014983D02*
X023654Y014983D01*
X023784Y015374D02*
X023402Y015374D01*
X023431Y015569D02*
X023784Y015569D01*
X023784Y015765D02*
X023431Y015765D01*
X023431Y015960D02*
X023784Y015960D01*
X023862Y016156D02*
X023353Y016156D01*
X023254Y016351D02*
X027556Y016351D01*
X027625Y016546D02*
X023254Y016546D01*
X023353Y016742D02*
X023417Y016742D01*
X023704Y016742D02*
X023917Y016742D01*
X024204Y016742D02*
X024417Y016742D01*
X024704Y016742D02*
X024917Y016742D01*
X025204Y016742D02*
X025417Y016742D01*
X025704Y016742D02*
X025917Y016742D01*
X026204Y016742D02*
X026417Y016742D01*
X026704Y016742D02*
X026917Y016742D01*
X027204Y016742D02*
X027417Y016742D01*
X025437Y016156D02*
X024987Y016156D01*
X025065Y015960D02*
X025359Y015960D01*
X025359Y015765D02*
X025065Y015765D01*
X025065Y015569D02*
X025359Y015569D01*
X025359Y015374D02*
X025065Y015374D01*
X024661Y014697D02*
X024661Y014166D01*
X024740Y014087D01*
X024110Y015179D02*
X020623Y015179D01*
X020632Y015374D02*
X021022Y015374D01*
X020919Y015569D02*
X019974Y015569D01*
X019974Y015374D02*
X020146Y015374D01*
X020156Y015179D02*
X019958Y015179D01*
X020148Y014983D02*
X019628Y014983D01*
X019628Y014788D02*
X020155Y014788D01*
X019381Y014693D02*
X019381Y015682D01*
X019974Y015765D02*
X020994Y015765D01*
X020923Y016546D02*
X014338Y016546D01*
X014338Y016351D02*
X022112Y016351D01*
X022128Y016156D02*
X019974Y016156D01*
X019974Y015960D02*
X022212Y015960D01*
X022467Y015569D02*
X022583Y015569D01*
X022613Y015374D02*
X022467Y015374D01*
X023007Y015741D02*
X023007Y017006D01*
X023061Y017060D01*
X022247Y017523D02*
X021873Y017523D01*
X022000Y017328D02*
X022160Y017328D01*
X022160Y017133D02*
X022055Y017133D01*
X022055Y016937D02*
X022160Y016937D01*
X022160Y016742D02*
X021980Y016742D01*
X021824Y016546D02*
X022160Y016546D01*
X020767Y016742D02*
X014338Y016742D01*
X014338Y016937D02*
X020692Y016937D01*
X020692Y017133D02*
X014338Y017133D01*
X014338Y017328D02*
X020747Y017328D01*
X020874Y017523D02*
X014338Y017523D01*
X014338Y016156D02*
X016858Y016156D01*
X016867Y016165D02*
X016825Y016123D01*
X016786Y016028D01*
X016786Y015926D01*
X016825Y015831D01*
X016827Y015829D01*
X016825Y015827D01*
X016786Y015733D01*
X016786Y015630D01*
X016825Y015536D01*
X016827Y015534D01*
X016825Y015532D01*
X016786Y015437D01*
X016786Y015335D01*
X016825Y015241D01*
X016867Y015198D01*
X016867Y015195D01*
X016954Y015108D01*
X017967Y015108D01*
X018054Y015195D01*
X018054Y016168D01*
X017967Y016255D01*
X016954Y016255D01*
X016867Y016168D01*
X016867Y016165D01*
X016786Y015960D02*
X014338Y015960D01*
X014338Y015765D02*
X016799Y015765D01*
X016811Y015569D02*
X014338Y015569D01*
X014338Y015374D02*
X016786Y015374D01*
X016884Y015179D02*
X014338Y015179D01*
X014338Y014592D02*
X016786Y014592D01*
X017043Y014500D02*
X016846Y014304D01*
X016846Y013516D01*
X016551Y013221D01*
X015980Y013221D01*
X015396Y013225D02*
X014338Y013225D01*
X014338Y013420D02*
X015396Y013420D01*
X015396Y013029D02*
X014338Y013029D01*
X014338Y012834D02*
X016605Y012834D01*
X016612Y012639D02*
X014338Y012639D01*
X014338Y012443D02*
X016604Y012443D01*
X016687Y012248D02*
X014338Y012248D01*
X014338Y012052D02*
X016589Y012052D01*
X016614Y011857D02*
X014338Y011857D01*
X014338Y011662D02*
X016602Y011662D01*
X016589Y011466D02*
X014338Y011466D01*
X014338Y011271D02*
X016661Y011271D01*
X015740Y011075D02*
X014338Y011075D01*
X014338Y010880D02*
X015544Y010880D01*
X015094Y010685D02*
X014338Y010685D01*
X014338Y010489D02*
X015074Y010489D01*
X015074Y010294D02*
X014338Y010294D01*
X014338Y010098D02*
X015074Y010098D01*
X015082Y009903D02*
X014917Y009903D01*
X015026Y009708D02*
X015625Y009708D01*
X015716Y009512D02*
X015026Y009512D01*
X015026Y009317D02*
X015912Y009317D01*
X015979Y009121D02*
X015026Y009121D01*
X015026Y008926D02*
X015784Y008926D01*
X015625Y008731D02*
X015026Y008731D01*
X014988Y008535D02*
X015149Y008535D01*
X014917Y008340D02*
X014737Y008340D01*
X014624Y008340D02*
X014338Y008340D01*
X014338Y008535D02*
X014373Y008535D01*
X014338Y008144D02*
X014732Y008144D01*
X014762Y007949D02*
X014338Y007949D01*
X014338Y007754D02*
X014798Y007754D01*
X014602Y007558D02*
X014338Y007558D01*
X014338Y007363D02*
X014453Y007363D01*
X014453Y007167D02*
X014338Y007167D01*
X014338Y006972D02*
X014453Y006972D01*
X014453Y006777D02*
X014338Y006777D01*
X014681Y006626D02*
X014681Y006371D01*
X016059Y003989D02*
X016059Y003477D01*
X017044Y003650D02*
X017719Y003650D01*
X017941Y003650D02*
X018691Y003650D01*
X018814Y003846D02*
X018815Y003846D01*
X018440Y003846D02*
X018153Y003846D01*
X018215Y004041D02*
X018380Y004041D01*
X018413Y004237D02*
X018176Y004237D01*
X017508Y003846D02*
X017101Y003846D01*
X017296Y004041D02*
X017446Y004041D01*
X018174Y003455D02*
X018471Y003455D01*
X018430Y003260D02*
X018215Y003260D01*
X018690Y002869D02*
X018718Y002869D01*
X018430Y002478D02*
X018215Y002478D01*
X018160Y002283D02*
X018485Y002283D01*
X018956Y001696D02*
X017904Y001696D01*
X017044Y001501D02*
X018963Y001501D01*
X014779Y002296D02*
X014681Y002552D01*
X014681Y003221D02*
X014779Y003477D01*
X020232Y006922D02*
X020389Y006922D01*
X020330Y007414D02*
X020488Y007414D01*
X020389Y007906D02*
X020232Y007906D01*
X020232Y008398D02*
X020389Y008398D01*
X020291Y008398D01*
X020232Y008890D02*
X020389Y008890D01*
X020370Y009382D02*
X020232Y009382D01*
X019825Y011271D02*
X019777Y011271D01*
X021341Y011466D02*
X022198Y011466D01*
X020987Y013615D02*
X020972Y013615D01*
X020250Y013811D02*
X019637Y013811D01*
X018804Y015179D02*
X018038Y015179D01*
X018054Y015374D02*
X018787Y015374D01*
X018787Y015569D02*
X018054Y015569D01*
X018054Y015765D02*
X018787Y015765D01*
X018787Y015960D02*
X018054Y015960D01*
X018054Y016156D02*
X018787Y016156D01*
X016452Y014205D02*
X015980Y014205D01*
X015396Y014202D02*
X014338Y014202D01*
X014338Y014397D02*
X015396Y014397D01*
X015396Y014006D02*
X014338Y014006D01*
X014338Y013811D02*
X016599Y013811D01*
X016596Y013615D02*
X014338Y013615D01*
X014338Y009903D02*
X014444Y009903D01*
X022961Y004627D02*
X023109Y004627D01*
X023575Y004627D02*
X023986Y004627D01*
X023986Y004823D02*
X023585Y004823D01*
X023560Y001110D02*
X023561Y001110D01*
D36*
X023090Y002524D03*
X024090Y002524D03*
X025090Y002524D03*
X026090Y002524D03*
D37*
X026196Y001902D02*
X026590Y001508D01*
X026590Y001341D01*
X026561Y001311D01*
X026196Y001902D02*
X024425Y001902D01*
X024090Y002237D01*
X024090Y002524D01*
X023145Y002579D02*
X023145Y003241D01*
X027299Y009678D02*
X027023Y009874D01*
X026984Y009874D01*
X027377Y009874D01*
X027377Y009835D01*
X027299Y009678D01*
X026590Y010957D02*
X025507Y010957D01*
X025507Y011351D01*
X025819Y011663D01*
X025823Y011663D01*
X025915Y011755D01*
X025915Y011759D01*
X026000Y011843D01*
X026000Y012335D01*
X026590Y012335D01*
X026590Y010957D01*
X026590Y011063D02*
X025507Y011063D01*
X025507Y011278D02*
X026590Y011278D01*
X026590Y011493D02*
X025650Y011493D01*
X025868Y011708D02*
X026590Y011708D01*
X026590Y011923D02*
X026000Y011923D01*
X026000Y012138D02*
X026590Y012138D01*
X026885Y012138D02*
X028460Y012138D01*
X028460Y011923D02*
X026885Y011923D01*
X026885Y011708D02*
X028460Y011708D01*
X028460Y011548D02*
X026885Y011548D01*
X026885Y012434D01*
X026689Y012630D01*
X026098Y012630D01*
X026098Y013910D01*
X026590Y013910D01*
X026688Y013812D01*
X026688Y013333D01*
X026689Y013332D01*
X026689Y013123D01*
X026885Y012926D01*
X027984Y012926D01*
X028014Y012896D01*
X028112Y012855D01*
X028218Y012855D01*
X028316Y012896D01*
X028346Y012926D01*
X028460Y012926D01*
X028460Y011548D01*
X028460Y012353D02*
X026885Y012353D01*
X026750Y012569D02*
X028460Y012569D01*
X028460Y012784D02*
X026098Y012784D01*
X026098Y012999D02*
X026812Y012999D01*
X026689Y013214D02*
X026098Y013214D01*
X026098Y013429D02*
X026688Y013429D01*
X026688Y013644D02*
X026098Y013644D01*
X026177Y013516D02*
X026275Y013693D01*
X026275Y013713D01*
X026098Y013859D02*
X026641Y013859D01*
X026984Y013859D02*
X027771Y013859D01*
X027771Y014074D02*
X026918Y014074D01*
X026984Y014008D02*
X026787Y014205D01*
X026196Y014205D01*
X025704Y014697D01*
X025704Y015977D01*
X026626Y015977D01*
X026626Y015471D01*
X026639Y015458D01*
X026626Y015445D01*
X026626Y014802D01*
X026719Y014709D01*
X026874Y014709D01*
X026885Y014697D01*
X027603Y014697D01*
X027639Y014661D01*
X027709Y014661D01*
X027771Y014599D01*
X027771Y013516D01*
X026984Y013516D01*
X026984Y014008D01*
X026689Y014402D02*
X026000Y015091D01*
X024385Y015091D01*
X023992Y014697D01*
X023913Y014619D01*
X023913Y014087D01*
X023992Y012729D02*
X023893Y012630D01*
X023637Y012630D01*
X023244Y012237D01*
X023047Y012237D01*
X023007Y012276D01*
X022948Y012276D01*
X022791Y012434D01*
X022555Y012434D01*
X022555Y012040D01*
X022850Y012040D02*
X022850Y012178D01*
X022948Y012276D01*
X022165Y011154D02*
X021669Y011154D01*
X022165Y011154D02*
X022240Y011079D01*
X025897Y014504D02*
X027771Y014504D01*
X027771Y014289D02*
X026112Y014289D01*
X025704Y014719D02*
X026709Y014719D01*
X026626Y014934D02*
X025704Y014934D01*
X025704Y015149D02*
X026626Y015149D01*
X026626Y015365D02*
X025704Y015365D01*
X025704Y015580D02*
X026626Y015580D01*
X026626Y015795D02*
X025704Y015795D01*
X026000Y015682D02*
X026000Y015091D01*
X026689Y014402D02*
X028106Y014402D01*
X028460Y014048D01*
X027771Y013644D02*
X026984Y013644D01*
X027574Y014993D02*
X027608Y015026D01*
X027822Y015026D01*
X028196Y015026D02*
X028196Y015552D01*
X028389Y015552D01*
X028196Y015552D02*
X028165Y015583D01*
X027771Y015583D01*
X027311Y015123D01*
X027080Y015123D01*
X027080Y015793D02*
X027266Y015793D01*
X027279Y015780D01*
X027279Y015977D01*
X027377Y016075D01*
X028196Y016089D02*
X028196Y016398D01*
X028185Y016410D01*
X028559Y015288D02*
X028559Y015015D01*
X028570Y015026D01*
X029641Y015780D02*
X029779Y015642D01*
X029779Y015288D01*
X029740Y008831D02*
X029937Y008831D01*
X029779Y008792D02*
X029740Y008831D01*
X016059Y008595D02*
X016059Y008083D01*
X016059Y009776D02*
X016059Y010288D01*
D38*
X016570Y010288D02*
X016826Y010288D01*
X016826Y008083D02*
X016570Y008083D01*
X016570Y007138D02*
X016826Y007138D01*
X015547Y007158D02*
X015547Y007138D01*
X015547Y007158D02*
X015311Y007158D01*
X015291Y008083D02*
X015547Y008083D01*
X014681Y008595D02*
X014681Y008851D01*
X014681Y009520D02*
X014681Y009776D01*
X015291Y004934D02*
X015547Y004934D01*
X015547Y003989D02*
X015291Y003989D01*
X016570Y003989D02*
X016826Y003989D01*
X016826Y004934D02*
X016570Y004934D01*
X016570Y001784D02*
X016826Y001784D01*
X015547Y001784D02*
X015291Y001784D01*
X025212Y003871D02*
X025507Y003871D01*
X025507Y004067D01*
X025488Y004067D01*
X025212Y004067D01*
X025212Y003871D01*
X028389Y015552D02*
X028421Y015583D01*
X028598Y015583D01*
X028795Y015780D01*
X029641Y015780D01*
D39*
X029110Y015327D02*
X029110Y015288D01*
X029110Y015327D02*
X029051Y015091D01*
X026393Y013910D02*
X026295Y013910D01*
X026196Y013811D01*
X026196Y013713D01*
X026393Y013910D01*
X027870Y011941D02*
X029248Y011941D01*
X029248Y010563D01*
X028755Y010563D01*
X028755Y011252D01*
X028559Y011449D01*
X027870Y011449D01*
X027870Y011941D01*
X027870Y011914D02*
X029248Y011914D01*
X029248Y011758D02*
X027870Y011758D01*
X027870Y011602D02*
X029248Y011602D01*
X029248Y011446D02*
X028562Y011446D01*
X028718Y011290D02*
X029248Y011290D01*
X029248Y011134D02*
X028755Y011134D01*
X028755Y010978D02*
X029248Y010978D01*
X029248Y010822D02*
X028755Y010822D01*
X028755Y010666D02*
X029248Y010666D01*
X026728Y007563D02*
X026426Y007261D01*
X026426Y007162D01*
X027801Y003654D02*
X027791Y003319D01*
X023893Y012040D02*
X023834Y012040D01*
X023933Y012138D01*
X024031Y012138D01*
X023933Y012237D01*
X023834Y012237D01*
X023834Y012040D01*
X023893Y012040D02*
X023992Y012138D01*
X016059Y007512D02*
X016059Y007138D01*
X016059Y007512D02*
X015960Y007611D01*
X014976Y007611D01*
X014681Y007315D01*
X014681Y006626D01*
X014681Y005701D02*
X014779Y005445D01*
X014681Y005445D01*
X014681Y004756D01*
X014976Y004461D01*
X015960Y004461D01*
X016059Y004560D01*
X016059Y004934D01*
X014779Y002296D02*
X014681Y002099D01*
X014681Y001607D01*
X015074Y001213D01*
X016059Y001213D01*
X016059Y001784D01*
D40*
X022456Y003575D02*
X022909Y003910D01*
X023145Y003910D01*
X024429Y004437D02*
X024444Y004422D01*
X024429Y004437D02*
X024429Y004497D01*
X025212Y003241D02*
X025232Y003241D01*
X025389Y003083D01*
D41*
X018814Y003280D02*
X018480Y002945D01*
X016236Y002945D01*
X015803Y003378D01*
X015803Y003989D01*
X016314Y003575D02*
X016610Y003280D01*
X017830Y003280D01*
X017830Y002493D02*
X016649Y002493D01*
X016314Y002158D01*
X015803Y002197D02*
X015803Y001784D01*
X015803Y002197D02*
X016433Y002827D01*
X018480Y002827D01*
X018814Y002493D01*
X016314Y004934D02*
X016314Y005308D01*
X016649Y005642D01*
X017830Y005642D01*
X018480Y005977D02*
X016433Y005977D01*
X015803Y005347D01*
X015803Y004934D01*
X016433Y006095D02*
X015803Y006725D01*
X015803Y007138D01*
X016314Y007138D02*
X016314Y006764D01*
X016649Y006430D01*
X017830Y006430D01*
X018480Y006095D02*
X016433Y006095D01*
X016314Y008083D02*
X016314Y008457D01*
X016649Y008792D01*
X017830Y008792D01*
X018480Y009126D02*
X016236Y009126D01*
X015803Y008693D01*
X015803Y008083D01*
X016236Y009245D02*
X015803Y009678D01*
X015803Y010288D01*
X016314Y010288D02*
X016314Y009914D01*
X016649Y009579D01*
X017830Y009579D01*
X018480Y009245D02*
X016236Y009245D01*
X018480Y009245D02*
X018814Y009579D01*
X018480Y009126D02*
X018814Y008792D01*
X018814Y006430D02*
X018480Y006095D01*
X018480Y005977D02*
X018814Y005642D01*
D42*
X016314Y003989D02*
X016314Y003575D01*
X016314Y002158D02*
X016314Y001784D01*
M02*
