G75*
G70*
%OFA0B0*%
%FSLAX24Y24*%
%IPPOS*%
%LPD*%
%AMOC8*
5,1,8,0,0,1.08239X$1,22.5*
%
%ADD10C,0.0946*%
%ADD11R,0.0513X0.0474*%
%ADD12R,0.0316X0.0493*%
%ADD13R,0.0671X0.0592*%
%ADD14R,0.0592X0.0671*%
%ADD15R,0.0671X0.0631*%
%ADD16R,0.0631X0.0671*%
%ADD17R,0.0631X0.0631*%
%ADD18R,0.0474X0.0513*%
%ADD19C,0.0552*%
%ADD20R,0.0474X0.0277*%
%ADD21R,0.0789X0.0710*%
%ADD22R,0.3308X0.1379*%
%ADD23R,0.1064X0.0749*%
%ADD24R,0.0480X0.0480*%
%ADD25C,0.0480*%
%ADD26R,0.0671X0.0474*%
%ADD27R,0.0671X0.1379*%
%ADD28R,0.0710X0.0789*%
%ADD29R,0.0218X0.0710*%
%ADD30R,0.0970X0.0930*%
%ADD31R,0.0950X0.0552*%
%ADD32R,0.0671X0.0297*%
%ADD33R,0.0407X0.0328*%
%ADD34R,0.0434X0.0356*%
%ADD35R,0.0356X0.0434*%
%ADD36R,0.0552X0.0552*%
%ADD37R,0.0328X0.0407*%
%ADD38C,0.0671*%
D10*
X007787Y001311D03*
X015661Y001311D03*
X015661Y017060D03*
X007787Y017060D03*
D11*
X007846Y015583D03*
X008516Y015583D03*
X010406Y014697D03*
X011075Y014697D03*
X012170Y007162D03*
X012840Y007162D03*
D12*
X014236Y015026D03*
X014610Y015026D03*
X014984Y015026D03*
X014984Y016089D03*
X014610Y016089D03*
X014236Y016089D03*
D13*
X013494Y015793D03*
X013494Y015123D03*
X011626Y003910D03*
X011626Y003241D03*
X009559Y003241D03*
X009559Y003910D03*
D14*
X011941Y012926D03*
X012689Y012926D03*
X012689Y013713D03*
X011941Y013713D03*
X015524Y015288D03*
X016193Y015288D03*
D15*
X008378Y007227D03*
X008378Y006420D03*
X007591Y006420D03*
X007591Y007227D03*
X010843Y004497D03*
X010843Y003690D03*
D16*
X014215Y003654D03*
X014215Y004520D03*
X015022Y004520D03*
X015829Y004520D03*
X015829Y003654D03*
X015022Y003654D03*
X012703Y012116D03*
X011895Y012116D03*
D17*
X009421Y014245D03*
X009421Y015741D03*
D18*
X000996Y001863D03*
X000996Y002532D03*
X001094Y005701D03*
X001094Y006371D03*
X001094Y008851D03*
X001094Y009520D03*
X005976Y009382D03*
X005976Y008890D03*
X005976Y008398D03*
X005976Y007906D03*
X006075Y007414D03*
X005976Y006922D03*
X006646Y006922D03*
X006744Y007414D03*
X006646Y007906D03*
X006646Y008398D03*
X006646Y008890D03*
X006646Y009382D03*
X006941Y005937D03*
X006941Y005445D03*
X006941Y004953D03*
X006941Y004461D03*
X006941Y003969D03*
X006941Y003477D03*
X006272Y003477D03*
X006272Y003969D03*
X006272Y004461D03*
X006272Y004953D03*
X006272Y005445D03*
X006272Y005937D03*
X009421Y006331D03*
X009421Y006863D03*
X010091Y006863D03*
X010091Y006331D03*
X011685Y008989D03*
X011665Y009619D03*
X011665Y010288D03*
X012354Y008989D03*
X011075Y012138D03*
X011075Y012729D03*
X010406Y012729D03*
X010406Y012138D03*
X008516Y012729D03*
X007846Y012729D03*
X007846Y013713D03*
X008516Y013713D03*
X012689Y004461D03*
X012689Y003910D03*
X013358Y003910D03*
X013358Y004461D03*
D19*
X005228Y004067D03*
X005228Y003280D03*
X005228Y002493D03*
X004244Y002493D03*
X004244Y003280D03*
X004244Y004067D03*
X004244Y004855D03*
X004244Y005642D03*
X004244Y006430D03*
X004244Y007217D03*
X004244Y008004D03*
X004244Y008792D03*
X004244Y009579D03*
X005228Y009579D03*
X005228Y008792D03*
X005228Y008004D03*
X005228Y007217D03*
X005228Y006430D03*
X005228Y005642D03*
X005228Y004855D03*
X002472Y013123D03*
X002472Y013910D03*
X002472Y014697D03*
X001685Y014697D03*
X001685Y013910D03*
D20*
X010327Y014087D03*
X010327Y013713D03*
X010327Y013339D03*
X011154Y013339D03*
X011154Y013713D03*
X011154Y014087D03*
D21*
X009362Y013378D03*
X009362Y012276D03*
D22*
X014874Y012197D03*
X014874Y014048D03*
D23*
X012413Y015682D03*
X010839Y015682D03*
D24*
X009474Y017060D03*
X009474Y001311D03*
D25*
X009974Y001311D03*
X010474Y001311D03*
X010974Y001311D03*
X011474Y001311D03*
X011974Y001311D03*
X012474Y001311D03*
X012974Y001311D03*
X013474Y001311D03*
X013974Y001311D03*
X013974Y017060D03*
X013474Y017060D03*
X012974Y017060D03*
X012474Y017060D03*
X011974Y017060D03*
X011474Y017060D03*
X010974Y017060D03*
X010474Y017060D03*
X009974Y017060D03*
D26*
X013713Y009678D03*
X013713Y009087D03*
X013713Y008497D03*
X013713Y007906D03*
D27*
X016193Y008792D03*
D28*
X015563Y006764D03*
X014461Y006764D03*
X014323Y010859D03*
X015425Y010859D03*
D29*
X003240Y011075D03*
X002984Y011075D03*
X002728Y011075D03*
X002472Y011075D03*
X002217Y011075D03*
X001961Y011075D03*
X001705Y011075D03*
X001705Y008871D03*
X001961Y008871D03*
X002217Y008871D03*
X002472Y008871D03*
X002728Y008871D03*
X002984Y008871D03*
X003240Y008871D03*
X003240Y007138D03*
X002984Y007138D03*
X002728Y007138D03*
X002472Y007138D03*
X002217Y007138D03*
X001961Y007138D03*
X001705Y007138D03*
X001705Y004934D03*
X001961Y004934D03*
X002217Y004934D03*
X002472Y004934D03*
X002728Y004934D03*
X002984Y004934D03*
X003240Y004934D03*
X003240Y003300D03*
X002984Y003300D03*
X002728Y003300D03*
X002472Y003300D03*
X002217Y003300D03*
X001961Y003300D03*
X001705Y003300D03*
X001705Y001095D03*
X001961Y001095D03*
X002217Y001095D03*
X002472Y001095D03*
X002728Y001095D03*
X002984Y001095D03*
X003240Y001095D03*
D30*
X004465Y012532D03*
X006385Y012532D03*
X006582Y016469D03*
X004662Y016469D03*
D31*
X003772Y014993D03*
X003772Y014008D03*
X006685Y014008D03*
X006685Y014993D03*
D32*
X008890Y010723D03*
X008890Y010223D03*
X008890Y009723D03*
X008890Y009223D03*
X011016Y009223D03*
X011016Y009723D03*
X011016Y010223D03*
X011016Y010723D03*
D33*
X012807Y008739D03*
X012807Y007861D03*
D34*
X004835Y001469D03*
X004835Y000957D03*
X004343Y000957D03*
X004343Y001469D03*
X004244Y010800D03*
X004244Y011311D03*
X003752Y011311D03*
X003752Y010800D03*
D35*
X003319Y008201D03*
X003319Y007709D03*
X002807Y007709D03*
X002807Y008201D03*
X002236Y008201D03*
X002236Y007709D03*
X001724Y007709D03*
X001724Y008201D03*
X001724Y004363D03*
X001724Y003871D03*
X002236Y003871D03*
X002236Y004363D03*
X002709Y004363D03*
X002709Y003871D03*
X003220Y003871D03*
X003220Y004363D03*
D36*
X001685Y013123D03*
D37*
X012585Y005091D03*
X013463Y005091D03*
X013463Y003280D03*
X012585Y003280D03*
D38*
X012504Y002524D03*
X011504Y002524D03*
X010504Y002524D03*
X009504Y002524D03*
M02*
