G75*
G70*
%OFA0B0*%
%FSLAX24Y24*%
%IPPOS*%
%LPD*%
%AMOC8*
5,1,8,0,0,1.08239X$1,22.5*
%
%ADD10R,0.0433X0.0394*%
%ADD11R,0.0236X0.0413*%
%ADD12R,0.0591X0.0512*%
%ADD13R,0.0512X0.0591*%
%ADD14R,0.0591X0.0551*%
%ADD15R,0.0551X0.0591*%
%ADD16R,0.0551X0.0551*%
%ADD17R,0.0394X0.0433*%
%ADD18C,0.0472*%
%ADD19R,0.0394X0.0197*%
%ADD20R,0.0709X0.0630*%
%ADD21R,0.3228X0.1299*%
%ADD22R,0.0984X0.0669*%
%ADD23R,0.0400X0.0400*%
%ADD24C,0.0400*%
%ADD25R,0.0591X0.0394*%
%ADD26R,0.0591X0.1299*%
%ADD27R,0.0630X0.0709*%
%ADD28R,0.0138X0.0630*%
%ADD29R,0.0890X0.0850*%
%ADD30R,0.0870X0.0472*%
%ADD31R,0.0591X0.0217*%
%ADD32R,0.0327X0.0248*%
%ADD33R,0.0354X0.0276*%
%ADD34R,0.0276X0.0354*%
%ADD35C,0.0218*%
%ADD36C,0.0098*%
%ADD37C,0.0237*%
%ADD38C,0.0197*%
%ADD39C,0.0591*%
%ADD40C,0.0217*%
%ADD41C,0.0160*%
%ADD42C,0.0157*%
%ADD43C,0.0138*%
%ADD44C,0.0059*%
%ADD45C,0.0079*%
%ADD46C,0.0180*%
D10*
X012180Y007162D03*
X012850Y007162D03*
X011085Y014697D03*
X010416Y014697D03*
X008526Y015583D03*
X007857Y015583D03*
D11*
X014246Y016089D03*
X014620Y016089D03*
X014994Y016089D03*
X014994Y015026D03*
X014620Y015026D03*
X014246Y015026D03*
D12*
X013504Y015123D03*
X013504Y015793D03*
X011636Y003910D03*
X011636Y003241D03*
X009569Y003241D03*
X009569Y003910D03*
D13*
X011951Y012926D03*
X012699Y012926D03*
X012699Y013713D03*
X011951Y013713D03*
X015534Y015288D03*
X016203Y015288D03*
D14*
X008388Y007227D03*
X008388Y006420D03*
X007601Y006420D03*
X007601Y007227D03*
X010853Y004497D03*
X010853Y003690D03*
D15*
X014225Y003654D03*
X014225Y004520D03*
X015032Y004520D03*
X015839Y004520D03*
X015839Y003654D03*
X015032Y003654D03*
X012713Y012116D03*
X011906Y012116D03*
D16*
X009431Y014245D03*
X009431Y015741D03*
D17*
X007738Y013319D03*
X007738Y012729D03*
X007069Y012729D03*
X007069Y013319D03*
X010416Y012729D03*
X010416Y012138D03*
X011085Y012138D03*
X011085Y012729D03*
X011675Y010288D03*
X011675Y009619D03*
X011695Y008989D03*
X012364Y008989D03*
X010101Y006863D03*
X010101Y006331D03*
X009431Y006331D03*
X009431Y006863D03*
X006951Y005937D03*
X006951Y005445D03*
X006951Y004953D03*
X006951Y004461D03*
X006951Y003969D03*
X006951Y003477D03*
X006282Y003477D03*
X006282Y003969D03*
X006282Y004461D03*
X006282Y004953D03*
X006282Y005445D03*
X006282Y005937D03*
X005986Y006922D03*
X006085Y007414D03*
X005986Y007906D03*
X005986Y008398D03*
X005986Y008890D03*
X005986Y009382D03*
X006656Y009382D03*
X006656Y008890D03*
X006656Y008398D03*
X006656Y007906D03*
X006754Y007414D03*
X006656Y006922D03*
X001105Y006371D03*
X001105Y005701D03*
X001105Y008851D03*
X001105Y009520D03*
X001006Y002532D03*
X001006Y001863D03*
D18*
X004254Y002493D03*
X004254Y003280D03*
X004254Y004067D03*
X004254Y004855D03*
X004254Y005642D03*
X004254Y006430D03*
X004254Y007217D03*
X004254Y008004D03*
X004254Y008792D03*
X004254Y009579D03*
X005238Y009579D03*
X005238Y008792D03*
X005238Y008004D03*
X005238Y007217D03*
X005238Y006430D03*
X005238Y005642D03*
X005238Y004855D03*
X005238Y004067D03*
X005238Y003280D03*
X005238Y002493D03*
D19*
X010337Y013339D03*
X010337Y013713D03*
X010337Y014087D03*
X011164Y014087D03*
X011164Y013713D03*
X011164Y013339D03*
D20*
X009372Y013378D03*
X009372Y012276D03*
D21*
X014884Y012197D03*
X014884Y014048D03*
D22*
X012423Y015682D03*
X010849Y015682D03*
D23*
X009484Y017060D03*
X009484Y001311D03*
D24*
X009984Y001311D03*
X010484Y001311D03*
X010984Y001311D03*
X011484Y001311D03*
X011984Y001311D03*
X012484Y001311D03*
X012984Y001311D03*
X013484Y001311D03*
X013984Y001311D03*
X013984Y017060D03*
X013484Y017060D03*
X012984Y017060D03*
X012484Y017060D03*
X011984Y017060D03*
X011484Y017060D03*
X010984Y017060D03*
X010484Y017060D03*
X009984Y017060D03*
D25*
X013723Y009678D03*
X013723Y009087D03*
X013723Y008497D03*
X013723Y007906D03*
D26*
X016203Y008792D03*
D27*
X015573Y006764D03*
X014471Y006764D03*
X014333Y010859D03*
X015435Y010859D03*
D28*
X003250Y011075D03*
X002994Y011075D03*
X002738Y011075D03*
X002483Y011075D03*
X002227Y011075D03*
X001971Y011075D03*
X001715Y011075D03*
X001715Y008871D03*
X001971Y008871D03*
X002227Y008871D03*
X002483Y008871D03*
X002738Y008871D03*
X002994Y008871D03*
X003250Y008871D03*
X003250Y007138D03*
X002994Y007138D03*
X002738Y007138D03*
X002483Y007138D03*
X002227Y007138D03*
X001971Y007138D03*
X001715Y007138D03*
X001715Y004934D03*
X001971Y004934D03*
X002227Y004934D03*
X002483Y004934D03*
X002738Y004934D03*
X002994Y004934D03*
X003250Y004934D03*
X003250Y003300D03*
X002994Y003300D03*
X002738Y003300D03*
X002483Y003300D03*
X002227Y003300D03*
X001971Y003300D03*
X001715Y003300D03*
X001715Y001095D03*
X001971Y001095D03*
X002227Y001095D03*
X002483Y001095D03*
X002738Y001095D03*
X002994Y001095D03*
X003250Y001095D03*
D29*
X003688Y012532D03*
X005608Y012532D03*
X005805Y016469D03*
X003885Y016469D03*
D30*
X002404Y014993D03*
X002404Y014008D03*
X005317Y014008D03*
X005317Y014993D03*
D31*
X008900Y010723D03*
X008900Y010223D03*
X008900Y009723D03*
X008900Y009223D03*
X011026Y009223D03*
X011026Y009723D03*
X011026Y010223D03*
X011026Y010723D03*
D32*
X012817Y008739D03*
X012817Y007861D03*
D33*
X004845Y001469D03*
X004845Y000957D03*
X004353Y000957D03*
X004353Y001469D03*
X004254Y010800D03*
X004254Y011311D03*
X003762Y011311D03*
X003762Y010800D03*
D34*
X003329Y008201D03*
X003329Y007709D03*
X002817Y007709D03*
X002817Y008201D03*
X002246Y008201D03*
X002246Y007709D03*
X001734Y007709D03*
X001734Y008201D03*
X001734Y004363D03*
X001734Y003871D03*
X002246Y003871D03*
X002246Y004363D03*
X002719Y004363D03*
X002719Y003871D03*
X003231Y003871D03*
X003231Y004363D03*
D35*
X002483Y003477D03*
X001400Y004560D03*
X001203Y005445D03*
X002483Y005445D03*
X002483Y006626D03*
X003664Y008004D03*
X002483Y008595D03*
X001105Y008595D03*
X002483Y010308D03*
X003368Y012237D03*
X003368Y012532D03*
X003073Y012532D03*
X003368Y012827D03*
X003073Y013024D03*
X003860Y013713D03*
X003860Y014107D03*
X003467Y014500D03*
X003467Y015386D03*
X003467Y015682D03*
X003467Y015977D03*
X002483Y014599D03*
X004451Y014107D03*
X004451Y013713D03*
X006813Y014894D03*
X006813Y015288D03*
X007601Y015583D03*
X008782Y016272D03*
X009077Y016371D03*
X008880Y015878D03*
X010750Y015977D03*
X011046Y015977D03*
X010750Y015386D03*
X011734Y013910D03*
X011734Y013516D03*
X011734Y013123D03*
X011734Y012729D03*
X012522Y012926D03*
X012916Y012926D03*
X012916Y013516D03*
X012601Y013516D03*
X012128Y013910D03*
X013801Y016075D03*
X014609Y016410D03*
X014589Y015583D03*
X014983Y015288D03*
X015475Y015091D03*
X013998Y014993D03*
X014589Y013123D03*
X014392Y011154D03*
X013998Y011154D03*
X013998Y010563D03*
X014392Y010563D03*
X014589Y009874D03*
X013801Y009874D03*
X013408Y009874D03*
X012679Y010603D03*
X012325Y010662D03*
X012719Y011351D03*
X012522Y011646D03*
X012916Y011646D03*
X011400Y011075D03*
X010553Y009973D03*
X010297Y009638D03*
X010061Y008693D03*
X010160Y008004D03*
X009766Y008004D03*
X009766Y007611D03*
X009097Y006863D03*
X008447Y007119D03*
X007994Y006823D03*
X008152Y006410D03*
X007404Y006528D03*
X007109Y006528D03*
X006813Y006922D03*
X006912Y007414D03*
X006813Y007906D03*
X006813Y008398D03*
X006813Y008890D03*
X006794Y009382D03*
X007207Y009678D03*
X006262Y009815D03*
X006144Y010091D03*
X004648Y010760D03*
X006912Y012729D03*
X007896Y012729D03*
X008388Y013221D03*
X008979Y012434D03*
X008979Y012040D03*
X009274Y012040D03*
X008959Y011626D03*
X008979Y011056D03*
X007758Y011626D03*
X006912Y013910D03*
X011144Y008004D03*
X011144Y007611D03*
X012325Y008201D03*
X012227Y009481D03*
X012128Y006430D03*
X011833Y006154D03*
X010809Y005701D03*
X010455Y005937D03*
X009884Y005918D03*
X009766Y004737D03*
X008880Y003575D03*
X007109Y003477D03*
X007109Y003969D03*
X007109Y004461D03*
X007109Y004953D03*
X007109Y005445D03*
X007109Y005937D03*
X005632Y007453D03*
X001203Y003477D03*
X002483Y001508D03*
X001105Y001016D03*
X000908Y001213D03*
X010868Y004422D03*
X011538Y004205D03*
X011912Y004067D03*
X012128Y003162D03*
X011813Y003083D03*
X014687Y003241D03*
X015514Y004146D03*
X016144Y005249D03*
X016183Y005997D03*
X015534Y005760D03*
X015435Y005504D03*
X015238Y005859D03*
X014845Y005642D03*
X016360Y008300D03*
X016360Y008831D03*
X016360Y009382D03*
X016026Y010209D03*
X015671Y010563D03*
X015179Y010563D03*
X015179Y011154D03*
X015671Y011154D03*
D36*
X001105Y001115D02*
X001006Y001115D01*
X001105Y001115D02*
X001105Y001016D01*
X001420Y001390D02*
X001420Y001784D01*
X001420Y001390D02*
X001715Y001095D01*
X003250Y001095D02*
X003270Y001115D01*
X003270Y001410D01*
X003368Y001508D01*
X003467Y001508D01*
X003979Y002020D01*
X004333Y002020D01*
X004648Y002099D02*
X004254Y002493D01*
X004648Y002099D02*
X004648Y001764D01*
X004353Y001469D01*
X004353Y000957D02*
X003624Y000957D01*
X004845Y001469D02*
X004845Y002197D01*
X005140Y002493D01*
X005238Y002493D01*
X005632Y001607D02*
X006597Y001607D01*
X008427Y003437D01*
X008427Y003949D01*
X009766Y005288D01*
X010947Y005288D01*
X011341Y005682D01*
X012128Y006430D02*
X012719Y006430D01*
X013998Y005150D01*
X014687Y005150D01*
X015032Y004806D01*
X015032Y004520D01*
X015514Y004146D02*
X015839Y004146D01*
X015839Y003654D01*
X015839Y004146D02*
X015839Y004520D01*
X015514Y005288D02*
X014766Y005524D01*
X014923Y006075D01*
X014648Y006351D01*
X014215Y006351D01*
X014136Y006430D01*
X014136Y008634D01*
X014117Y008653D01*
X014117Y008734D01*
X014059Y008793D01*
X013978Y008793D01*
X013900Y008871D01*
X013362Y008871D01*
X013340Y008893D01*
X013340Y009343D01*
X014609Y009343D01*
X015238Y008713D01*
X015238Y007247D01*
X015216Y007247D01*
X015129Y007160D01*
X015129Y006329D01*
X015216Y006242D01*
X015256Y006202D01*
X015379Y006202D01*
X015747Y006202D01*
X015829Y006115D01*
X015514Y005288D01*
X015546Y005373D02*
X015246Y005373D01*
X014939Y005469D02*
X015583Y005469D01*
X015620Y005566D02*
X014778Y005566D01*
X014806Y005663D02*
X015657Y005663D01*
X015694Y005760D02*
X014833Y005760D01*
X014861Y005857D02*
X015731Y005857D01*
X015768Y005954D02*
X014889Y005954D01*
X014917Y006051D02*
X015805Y006051D01*
X015797Y006148D02*
X014850Y006148D01*
X014754Y006245D02*
X015213Y006245D01*
X015129Y006342D02*
X014657Y006342D01*
X015129Y006439D02*
X014136Y006439D01*
X014136Y006536D02*
X015129Y006536D01*
X015129Y006633D02*
X014136Y006633D01*
X014136Y006730D02*
X015129Y006730D01*
X015129Y006827D02*
X014136Y006827D01*
X014136Y006924D02*
X015129Y006924D01*
X015129Y007021D02*
X014136Y007021D01*
X014136Y007118D02*
X015129Y007118D01*
X015184Y007215D02*
X014136Y007215D01*
X014136Y007312D02*
X015238Y007312D01*
X015238Y007409D02*
X014136Y007409D01*
X014136Y007506D02*
X015238Y007506D01*
X015238Y007603D02*
X014136Y007603D01*
X014136Y007700D02*
X015238Y007700D01*
X015238Y007797D02*
X014136Y007797D01*
X014136Y007894D02*
X015238Y007894D01*
X015238Y007991D02*
X014136Y007991D01*
X014136Y008088D02*
X015238Y008088D01*
X015238Y008185D02*
X014136Y008185D01*
X014136Y008282D02*
X015238Y008282D01*
X015238Y008379D02*
X014136Y008379D01*
X014136Y008476D02*
X015238Y008476D01*
X015238Y008572D02*
X014136Y008572D01*
X014117Y008669D02*
X015238Y008669D01*
X015185Y008766D02*
X014085Y008766D01*
X013907Y008863D02*
X015088Y008863D01*
X014991Y008960D02*
X013340Y008960D01*
X013340Y009057D02*
X014894Y009057D01*
X014797Y009154D02*
X013340Y009154D01*
X013340Y009251D02*
X014700Y009251D01*
X013939Y010209D02*
X016026Y010209D01*
X015868Y009461D02*
X016457Y009461D01*
X016457Y006427D01*
X016380Y006351D01*
X015317Y006351D01*
X015278Y006390D01*
X015278Y007099D01*
X015632Y007099D01*
X015829Y007296D01*
X015829Y009422D01*
X015868Y009461D01*
X015852Y009445D02*
X016457Y009445D01*
X016457Y009348D02*
X015829Y009348D01*
X015829Y009251D02*
X016457Y009251D01*
X016457Y009154D02*
X015829Y009154D01*
X015829Y009057D02*
X016457Y009057D01*
X016457Y008960D02*
X015829Y008960D01*
X015829Y008863D02*
X016457Y008863D01*
X016457Y008766D02*
X015829Y008766D01*
X015829Y008669D02*
X016457Y008669D01*
X016457Y008572D02*
X015829Y008572D01*
X015829Y008476D02*
X016457Y008476D01*
X016457Y008379D02*
X015829Y008379D01*
X015829Y008282D02*
X016457Y008282D01*
X016457Y008185D02*
X015829Y008185D01*
X015829Y008088D02*
X016457Y008088D01*
X016457Y007991D02*
X015829Y007991D01*
X015829Y007894D02*
X016457Y007894D01*
X016457Y007797D02*
X015829Y007797D01*
X015829Y007700D02*
X016457Y007700D01*
X016457Y007603D02*
X015829Y007603D01*
X015829Y007506D02*
X016457Y007506D01*
X016457Y007409D02*
X015829Y007409D01*
X015829Y007312D02*
X016457Y007312D01*
X016457Y007215D02*
X015748Y007215D01*
X015651Y007118D02*
X016457Y007118D01*
X016457Y007021D02*
X015278Y007021D01*
X015278Y006924D02*
X016457Y006924D01*
X016457Y006827D02*
X015278Y006827D01*
X015278Y006730D02*
X016457Y006730D01*
X016457Y006633D02*
X015278Y006633D01*
X015278Y006536D02*
X016457Y006536D01*
X016457Y006439D02*
X015278Y006439D01*
X013723Y007906D02*
X013447Y007906D01*
X013309Y008044D01*
X013309Y008713D01*
X013191Y008831D01*
X013191Y009658D01*
X013408Y009874D01*
X013939Y010209D02*
X013546Y010603D01*
X012679Y010603D01*
X012227Y009481D02*
X012030Y009284D01*
X012030Y008693D01*
X011833Y008497D01*
X011636Y008497D01*
X011341Y008300D02*
X011439Y008201D01*
X011833Y008201D01*
X012370Y008739D01*
X012614Y008739D01*
X012719Y008739D01*
X012817Y008739D01*
X012614Y008739D02*
X012364Y008989D01*
X011695Y008989D02*
X011260Y008989D01*
X011026Y009223D01*
X010553Y009284D02*
X010553Y009678D01*
X010258Y009973D01*
X010258Y010268D01*
X010713Y010723D01*
X011026Y010723D01*
X009843Y010723D01*
X009175Y011390D01*
X007994Y011390D01*
X007758Y011626D01*
X007797Y011154D02*
X007797Y010859D01*
X007994Y010662D01*
X008093Y010662D01*
X008191Y010760D01*
X007797Y011154D02*
X007010Y011941D01*
X007738Y012729D02*
X007896Y012729D01*
X007738Y013319D02*
X008290Y013319D01*
X008388Y013221D01*
X009175Y013227D02*
X010553Y013227D01*
X010553Y013221D02*
X010553Y013811D01*
X009963Y013811D01*
X009766Y014008D01*
X009766Y014500D01*
X009175Y014500D01*
X009175Y013221D01*
X010553Y013221D01*
X010553Y013324D02*
X009175Y013324D01*
X009175Y013421D02*
X010553Y013421D01*
X010553Y013518D02*
X009175Y013518D01*
X009175Y013615D02*
X010553Y013615D01*
X010553Y013712D02*
X009175Y013712D01*
X009175Y013809D02*
X010553Y013809D01*
X010947Y013811D02*
X010947Y013615D01*
X012227Y013615D01*
X012227Y013712D02*
X010947Y013712D01*
X010947Y013809D02*
X012227Y013809D01*
X012227Y013906D02*
X011435Y013906D01*
X011341Y013811D02*
X010947Y013811D01*
X010947Y013615D02*
X011439Y013615D01*
X011636Y013418D01*
X011636Y012630D01*
X012227Y012630D01*
X012227Y014008D01*
X011538Y014008D01*
X011341Y013811D01*
X011532Y014003D02*
X012227Y014003D01*
X012128Y013910D02*
X011951Y013713D01*
X012227Y013518D02*
X011536Y013518D01*
X011633Y013421D02*
X012227Y013421D01*
X012227Y013324D02*
X011636Y013324D01*
X011636Y013227D02*
X012227Y013227D01*
X012227Y013130D02*
X011636Y013130D01*
X011636Y013033D02*
X012227Y013033D01*
X012227Y012936D02*
X011636Y012936D01*
X011636Y012839D02*
X012227Y012839D01*
X012227Y012742D02*
X011636Y012742D01*
X011636Y012645D02*
X012227Y012645D01*
X011951Y012926D02*
X011734Y013123D01*
X010455Y012138D02*
X010061Y012138D01*
X009707Y011784D01*
X009116Y011784D01*
X008959Y011626D01*
X010297Y009638D02*
X010258Y009579D01*
X010061Y008693D01*
X010258Y008398D02*
X010357Y008497D01*
X010357Y009087D01*
X010553Y009284D01*
X010258Y008398D02*
X010258Y008103D01*
X010160Y008004D01*
X010368Y008003D02*
X010368Y007918D01*
X010246Y007796D01*
X010073Y007796D01*
X009952Y007918D01*
X009952Y008091D01*
X010062Y008201D01*
X008191Y008201D01*
X007994Y008004D01*
X007994Y007544D01*
X007995Y007544D01*
X007995Y007031D01*
X008081Y007031D01*
X008092Y007020D01*
X008782Y007020D01*
X008979Y007217D01*
X009766Y007217D01*
X009963Y007020D01*
X009963Y006647D01*
X010339Y006647D01*
X010358Y006628D01*
X010405Y006675D01*
X010405Y008040D01*
X010368Y008003D01*
X010368Y007991D02*
X010405Y007991D01*
X010405Y007894D02*
X010343Y007894D01*
X010405Y007797D02*
X010246Y007797D01*
X010073Y007797D02*
X007994Y007797D01*
X007994Y007894D02*
X009976Y007894D01*
X009952Y007991D02*
X007994Y007991D01*
X008078Y008088D02*
X009952Y008088D01*
X010046Y008185D02*
X008175Y008185D01*
X007994Y007700D02*
X010405Y007700D01*
X010405Y007603D02*
X007994Y007603D01*
X007995Y007506D02*
X010405Y007506D01*
X010405Y007409D02*
X007995Y007409D01*
X007995Y007312D02*
X010405Y007312D01*
X010405Y007215D02*
X009768Y007215D01*
X009865Y007118D02*
X010405Y007118D01*
X010405Y007021D02*
X009962Y007021D01*
X009963Y006924D02*
X010405Y006924D01*
X010405Y006827D02*
X009963Y006827D01*
X009963Y006730D02*
X010405Y006730D01*
X010363Y006633D02*
X010352Y006633D01*
X010101Y006331D02*
X009884Y005918D01*
X009431Y006331D02*
X009431Y006863D01*
X009097Y006863D01*
X008880Y007118D02*
X007995Y007118D01*
X007995Y007215D02*
X008976Y007215D01*
X008783Y007021D02*
X008091Y007021D01*
X008447Y007118D02*
X008436Y007138D01*
X008428Y007158D01*
X008423Y007180D01*
X008422Y007203D01*
X008425Y007225D01*
X008431Y007247D01*
X008440Y007267D01*
X008453Y007285D01*
X008469Y007301D01*
X008487Y007315D01*
X008388Y006420D02*
X008152Y006410D01*
X007601Y006420D02*
X007404Y006528D01*
X006282Y005937D02*
X006046Y005937D01*
X005750Y006430D01*
X005927Y006823D02*
X005986Y006882D01*
X005986Y006922D01*
X005927Y006823D02*
X003703Y006823D01*
X003388Y007138D01*
X003250Y007138D01*
X003329Y007709D02*
X003329Y008201D01*
X003526Y008004D01*
X003664Y008004D01*
X003723Y008398D02*
X004412Y008398D01*
X004609Y008595D01*
X004805Y008595D01*
X005002Y008398D01*
X005986Y008398D01*
X005967Y007926D02*
X005750Y007926D01*
X005435Y007611D01*
X004805Y007611D01*
X004687Y007729D01*
X004687Y008359D01*
X003723Y008398D02*
X003250Y008871D01*
X003565Y010465D02*
X003250Y010780D01*
X003250Y011075D01*
X003801Y010760D02*
X004648Y010760D01*
X004963Y010918D02*
X004648Y011233D01*
X004648Y011449D01*
X004254Y011843D01*
X002286Y011843D01*
X001971Y011528D01*
X001971Y011075D01*
X001715Y011075D01*
X001971Y011075D02*
X001971Y010603D01*
X001715Y008871D02*
X001420Y008575D01*
X001420Y008083D01*
X001734Y008201D02*
X001734Y007709D01*
X001203Y007709D01*
X001105Y007808D01*
X001105Y008595D01*
X001420Y007217D02*
X001734Y007217D01*
X001734Y007158D01*
X001715Y007138D01*
X001715Y004934D02*
X001420Y004934D01*
X001400Y004560D02*
X001538Y004560D01*
X001734Y004363D01*
X001734Y003871D01*
X001420Y004146D02*
X001420Y003595D01*
X001715Y003300D01*
X003250Y003300D02*
X003290Y003300D01*
X003565Y003575D01*
X003565Y003969D01*
X004057Y004461D01*
X006282Y004461D01*
X006282Y004953D02*
X005731Y004953D01*
X005435Y005249D01*
X004963Y005249D01*
X004727Y005012D01*
X004727Y004855D01*
X004490Y005249D02*
X003703Y005249D01*
X003388Y004934D01*
X003250Y004934D01*
X003723Y004855D02*
X003231Y004363D01*
X003231Y003871D01*
X003723Y004855D02*
X004254Y004855D01*
X004490Y005249D02*
X004727Y005485D01*
X004727Y005642D01*
X005829Y005642D02*
X005888Y005583D01*
X006085Y005583D01*
X006282Y005445D01*
X006282Y003969D02*
X005888Y003969D01*
X005770Y003871D01*
X006282Y003477D02*
X006282Y002394D01*
X006065Y002178D01*
X009490Y002532D02*
X009506Y002532D01*
X009514Y002524D01*
X009490Y002532D02*
X009569Y002611D01*
X009569Y003241D01*
X010553Y003378D02*
X010553Y003969D01*
X012030Y003969D01*
X012030Y003538D01*
X011972Y003596D01*
X011300Y003596D01*
X011242Y003538D01*
X011242Y003378D01*
X010553Y003378D01*
X010553Y003433D02*
X011242Y003433D01*
X011242Y003530D02*
X010553Y003530D01*
X010553Y003627D02*
X012030Y003627D01*
X012030Y003724D02*
X010553Y003724D01*
X010553Y003821D02*
X012030Y003821D01*
X012030Y003918D02*
X010553Y003918D01*
X010455Y005937D02*
X010553Y006036D01*
X010553Y008201D01*
X010652Y008300D01*
X011341Y008300D01*
X011279Y008151D02*
X011291Y008140D01*
X011378Y008053D01*
X011771Y008053D01*
X011894Y008053D01*
X012043Y008201D01*
X012117Y008201D01*
X012117Y008115D01*
X012239Y007993D01*
X012411Y007993D01*
X012471Y008053D01*
X012522Y008053D01*
X012522Y007611D01*
X012227Y007315D01*
X011931Y007119D01*
X011931Y006823D01*
X010702Y006823D01*
X010702Y008140D01*
X010713Y008151D01*
X011279Y008151D01*
X011343Y008088D02*
X010702Y008088D01*
X010702Y007991D02*
X012522Y007991D01*
X012522Y007894D02*
X010702Y007894D01*
X010702Y007797D02*
X012522Y007797D01*
X012522Y007700D02*
X010702Y007700D01*
X010702Y007603D02*
X012514Y007603D01*
X012417Y007506D02*
X010702Y007506D01*
X010702Y007409D02*
X012320Y007409D01*
X012221Y007312D02*
X010702Y007312D01*
X010702Y007215D02*
X012076Y007215D01*
X011931Y007118D02*
X010702Y007118D01*
X010702Y007021D02*
X011931Y007021D01*
X011931Y006924D02*
X010702Y006924D01*
X010702Y006827D02*
X011931Y006827D01*
X011929Y008088D02*
X012144Y008088D01*
X012117Y008185D02*
X012026Y008185D01*
X012325Y008201D02*
X013034Y008201D01*
X013152Y008063D01*
X013152Y007563D01*
X014225Y004520D02*
X014254Y003595D01*
X014249Y003556D01*
X014225Y003654D01*
X014249Y003556D02*
X014215Y003319D01*
X014687Y003241D02*
X014884Y003241D01*
X015042Y003556D01*
X015032Y003654D01*
X014392Y010563D02*
X014333Y010859D01*
X011107Y010723D02*
X011026Y010723D01*
X009869Y013906D02*
X009175Y013906D01*
X009175Y014003D02*
X009772Y014003D01*
X009766Y014100D02*
X009175Y014100D01*
X009175Y014197D02*
X009766Y014197D01*
X009766Y014294D02*
X009175Y014294D01*
X009175Y014391D02*
X009766Y014391D01*
X009766Y014488D02*
X009175Y014488D01*
X008526Y015583D02*
X008880Y015878D01*
X008782Y016272D02*
X008782Y017355D01*
X009077Y017650D01*
X014294Y017650D01*
X014589Y017355D01*
X014589Y016961D01*
X015002Y016548D01*
X015002Y016036D01*
X014994Y016044D01*
X014994Y016089D01*
X014246Y016089D02*
X014246Y016815D01*
X014392Y016961D01*
X014392Y017256D01*
X014195Y017453D01*
X009175Y017453D01*
X008979Y017256D01*
X008979Y016469D01*
X009077Y016371D01*
X007857Y015583D02*
X007601Y015583D01*
X010750Y015977D02*
X010849Y015682D01*
X004963Y010918D02*
X005888Y009894D01*
X005986Y009796D01*
X005986Y009382D01*
X005986Y008890D02*
X005731Y008890D01*
X005632Y008989D01*
X005632Y009776D01*
X004943Y010465D01*
X003565Y010465D01*
X003688Y012532D02*
X003368Y012532D01*
X003467Y015682D02*
X003885Y016469D01*
X005967Y007926D02*
X005986Y007906D01*
X006026Y007493D02*
X005986Y007453D01*
X005632Y007453D01*
X006026Y007493D02*
X006085Y007434D01*
X006085Y007414D01*
D37*
X005750Y006430D03*
X005829Y005642D03*
X004727Y005642D03*
X004727Y004855D03*
X005770Y003871D03*
X006813Y002886D03*
X006065Y002178D03*
X005632Y001607D03*
X004333Y002020D03*
X001420Y001784D03*
X001420Y004146D03*
X001420Y004934D03*
X001105Y006626D03*
X001420Y007217D03*
X001420Y008083D03*
X001105Y010308D03*
X000908Y012138D03*
X000908Y013319D03*
X000908Y014500D03*
X000908Y015682D03*
X007010Y011941D03*
X008191Y010760D03*
X009372Y008595D03*
X011636Y008497D03*
X011341Y005682D03*
X014215Y003319D03*
X004687Y008359D03*
D38*
X003273Y009659D02*
X002556Y009659D01*
X002409Y009659D01*
X002153Y009403D01*
X002084Y009334D01*
X001845Y009334D01*
X001584Y009334D01*
X001497Y009247D01*
X001497Y008991D01*
X001468Y008920D01*
X001468Y008903D01*
X001450Y008885D01*
X001450Y009129D01*
X001393Y009186D01*
X001450Y009242D01*
X001450Y009798D01*
X001363Y009885D01*
X001333Y009885D01*
X001333Y010161D01*
X001372Y010254D01*
X001372Y010361D01*
X001331Y010459D01*
X001256Y010534D01*
X001158Y010575D01*
X001051Y010575D01*
X000953Y010534D01*
X000878Y010459D01*
X000837Y010361D01*
X000837Y010254D01*
X000876Y010161D01*
X000876Y009885D01*
X000846Y009885D01*
X000762Y009801D01*
X000762Y017599D01*
X007373Y017599D01*
X007220Y017446D01*
X007116Y017195D01*
X007116Y016924D01*
X007220Y016673D01*
X007411Y016482D01*
X007662Y016378D01*
X007933Y016378D01*
X008184Y016482D01*
X008375Y016673D01*
X008479Y016924D01*
X008479Y017195D01*
X008375Y017446D01*
X008222Y017599D01*
X008746Y017599D01*
X008700Y017552D01*
X008584Y017437D01*
X008584Y016438D01*
X008564Y016418D01*
X008524Y016323D01*
X008524Y016221D01*
X008564Y016126D01*
X008636Y016054D01*
X008675Y016038D01*
X008662Y016024D01*
X008623Y015930D01*
X008623Y015928D01*
X008248Y015928D01*
X008191Y015872D01*
X008135Y015928D01*
X007579Y015928D01*
X007492Y015841D01*
X007492Y015816D01*
X007455Y015801D01*
X007382Y015729D01*
X007343Y015634D01*
X007343Y015532D01*
X007382Y015437D01*
X007455Y015365D01*
X007492Y015350D01*
X007492Y015325D01*
X007579Y015238D01*
X008135Y015238D01*
X008191Y015295D01*
X008248Y015238D01*
X008804Y015238D01*
X008891Y015325D01*
X008891Y015621D01*
X008931Y015621D01*
X009007Y015653D01*
X009007Y015404D01*
X009094Y015317D01*
X009768Y015317D01*
X009855Y015404D01*
X009855Y016078D01*
X009768Y016165D01*
X009678Y016165D01*
X009678Y016711D01*
X009746Y016711D01*
X009795Y016761D01*
X009915Y016711D01*
X010054Y016711D01*
X010182Y016764D01*
X010234Y016817D01*
X010287Y016764D01*
X010415Y016711D01*
X010554Y016711D01*
X010682Y016764D01*
X010734Y016817D01*
X010787Y016764D01*
X010915Y016711D01*
X011054Y016711D01*
X011182Y016764D01*
X011234Y016817D01*
X011287Y016764D01*
X011415Y016711D01*
X011554Y016711D01*
X011682Y016764D01*
X011734Y016817D01*
X011787Y016764D01*
X011915Y016711D01*
X012054Y016711D01*
X012182Y016764D01*
X012234Y016817D01*
X012287Y016764D01*
X012415Y016711D01*
X012554Y016711D01*
X012682Y016764D01*
X012734Y016817D01*
X012787Y016764D01*
X012915Y016711D01*
X013054Y016711D01*
X013182Y016764D01*
X013234Y016817D01*
X013287Y016764D01*
X013415Y016711D01*
X013554Y016711D01*
X013682Y016764D01*
X013734Y016817D01*
X013787Y016764D01*
X013915Y016711D01*
X014049Y016711D01*
X014049Y016426D01*
X013980Y016358D01*
X013980Y016261D01*
X013947Y016293D01*
X013853Y016333D01*
X013750Y016333D01*
X013656Y016293D01*
X013583Y016221D01*
X013583Y016220D01*
X013560Y016197D01*
X013252Y016197D01*
X013164Y016234D01*
X012077Y016234D01*
X011983Y016194D01*
X011953Y016165D01*
X011870Y016165D01*
X011783Y016078D01*
X011783Y015348D01*
X011489Y015348D01*
X011489Y016078D01*
X011402Y016165D01*
X011222Y016165D01*
X011191Y016195D01*
X011097Y016234D01*
X010994Y016234D01*
X010900Y016195D01*
X010898Y016193D01*
X010896Y016195D01*
X010801Y016234D01*
X010699Y016234D01*
X010604Y016195D01*
X010574Y016165D01*
X010295Y016165D01*
X010208Y016078D01*
X010208Y015285D01*
X010295Y015199D01*
X010554Y015199D01*
X010398Y015043D01*
X010138Y015043D01*
X010051Y014956D01*
X010051Y014439D01*
X010080Y014409D01*
X010080Y014334D01*
X010079Y014334D01*
X009992Y014247D01*
X009992Y014062D01*
X009964Y014090D01*
X009964Y014582D01*
X009848Y014698D01*
X009684Y014698D01*
X009094Y014698D01*
X008978Y014582D01*
X008978Y014419D01*
X008978Y013842D01*
X008956Y013842D01*
X008870Y013755D01*
X008870Y013002D01*
X008956Y012915D01*
X009788Y012915D01*
X009875Y013002D01*
X009875Y013023D01*
X010087Y013023D01*
X010070Y013007D01*
X010070Y012887D01*
X010010Y012887D01*
X009916Y012848D01*
X009798Y012730D01*
X009788Y012739D01*
X008956Y012739D01*
X008894Y012677D01*
X008833Y012652D01*
X008760Y012579D01*
X008721Y012485D01*
X008721Y012382D01*
X008722Y012381D01*
X008722Y012093D01*
X008721Y012091D01*
X008721Y011989D01*
X008760Y011894D01*
X008812Y011843D01*
X008741Y011772D01*
X008702Y011678D01*
X008702Y011588D01*
X008076Y011588D01*
X008015Y011649D01*
X008015Y011678D01*
X007976Y011772D01*
X007904Y011845D01*
X007809Y011884D01*
X007707Y011884D01*
X007612Y011845D01*
X007540Y011772D01*
X007516Y011715D01*
X007277Y011954D01*
X007277Y011995D01*
X007237Y012093D01*
X007161Y012168D01*
X007063Y012209D01*
X006957Y012209D01*
X006859Y012168D01*
X006784Y012093D01*
X006743Y011995D01*
X006743Y011967D01*
X006568Y012142D01*
X006568Y014150D01*
X006572Y014163D01*
X006568Y014199D01*
X006568Y014235D01*
X006563Y014247D01*
X006561Y014261D01*
X006544Y014292D01*
X006530Y014325D01*
X006521Y014335D01*
X006514Y014347D01*
X006486Y014370D01*
X006461Y014395D01*
X006448Y014400D01*
X005901Y014840D01*
X005901Y015142D01*
X005931Y015167D01*
X005945Y015172D01*
X005970Y015198D01*
X005997Y015219D01*
X006004Y015232D01*
X006014Y015242D01*
X006028Y015275D01*
X006045Y015305D01*
X006046Y015319D01*
X006052Y015333D01*
X006052Y015368D01*
X006055Y015403D01*
X006052Y015417D01*
X006052Y015896D01*
X006311Y015896D01*
X006398Y015982D01*
X006398Y016955D01*
X006311Y017042D01*
X005298Y017042D01*
X005211Y016955D01*
X005211Y015982D01*
X005298Y015896D01*
X005558Y015896D01*
X005558Y015501D01*
X005403Y015377D01*
X004821Y015377D01*
X004734Y015290D01*
X004734Y014695D01*
X004821Y014608D01*
X005402Y014608D01*
X005669Y014393D01*
X004821Y014393D01*
X004734Y014306D01*
X004734Y013711D01*
X004821Y013624D01*
X005165Y013624D01*
X005305Y013105D01*
X005101Y013105D01*
X005014Y013018D01*
X005014Y012045D01*
X005101Y011959D01*
X005689Y011959D01*
X005905Y011629D01*
X005915Y011605D01*
X005932Y011588D01*
X005945Y011568D01*
X005966Y011554D01*
X007937Y009583D01*
X008006Y009514D01*
X008097Y009476D01*
X008533Y009476D01*
X008536Y009473D01*
X008456Y009393D01*
X008456Y009053D01*
X008543Y008966D01*
X009257Y008966D01*
X009344Y009053D01*
X009344Y009393D01*
X009263Y009473D01*
X009344Y009553D01*
X009344Y009893D01*
X009263Y009973D01*
X009344Y010053D01*
X009344Y010393D01*
X009263Y010473D01*
X009344Y010553D01*
X009344Y010893D01*
X009257Y010980D01*
X009226Y010980D01*
X009236Y011004D01*
X009236Y011050D01*
X009761Y010525D01*
X009925Y010525D01*
X010236Y010525D01*
X010060Y010350D01*
X010060Y010186D01*
X010060Y009891D01*
X010123Y009828D01*
X010079Y009784D01*
X010040Y009689D01*
X010040Y009587D01*
X010051Y009560D01*
X009905Y008901D01*
X009843Y008839D01*
X009804Y008745D01*
X009804Y008642D01*
X009843Y008548D01*
X009915Y008475D01*
X010010Y008436D01*
X010060Y008436D01*
X010060Y008399D01*
X009554Y008399D01*
X009599Y008444D01*
X009639Y008542D01*
X009639Y008648D01*
X009599Y008746D01*
X009524Y008821D01*
X009425Y008862D01*
X009319Y008862D01*
X009270Y008842D01*
X007847Y008842D01*
X007756Y008804D01*
X007687Y008735D01*
X007391Y008439D01*
X007354Y008349D01*
X007354Y008251D01*
X007354Y007651D01*
X007244Y007651D01*
X007157Y007564D01*
X007157Y007494D01*
X007130Y007560D01*
X007099Y007590D01*
X007099Y007692D01*
X007031Y007760D01*
X007031Y007760D01*
X007071Y007855D01*
X007071Y007957D01*
X007031Y008052D01*
X007001Y008082D01*
X007001Y008120D01*
X007001Y008222D01*
X007031Y008252D01*
X007071Y008347D01*
X007071Y008449D01*
X007031Y008544D01*
X007001Y008574D01*
X007001Y008676D01*
X007001Y008714D01*
X007031Y008744D01*
X007071Y008839D01*
X007071Y008941D01*
X007031Y009036D01*
X007001Y009066D01*
X007001Y009104D01*
X007001Y009226D01*
X007012Y009237D01*
X007051Y009331D01*
X007051Y009434D01*
X007025Y009496D01*
X007061Y009459D01*
X007156Y009420D01*
X007258Y009420D01*
X007353Y009459D01*
X007425Y009532D01*
X007464Y009626D01*
X007464Y009729D01*
X007425Y009823D01*
X007353Y009896D01*
X007258Y009935D01*
X007156Y009935D01*
X007061Y009896D01*
X006989Y009823D01*
X006950Y009729D01*
X006950Y009712D01*
X006914Y009747D01*
X006512Y009747D01*
X006519Y009764D01*
X006519Y009867D01*
X006480Y009961D01*
X006408Y010034D01*
X006400Y010037D01*
X006401Y010040D01*
X006401Y010142D01*
X006362Y010237D01*
X006290Y010309D01*
X006195Y010348D01*
X006093Y010348D01*
X005998Y010309D01*
X005926Y010237D01*
X005900Y010175D01*
X005160Y010994D01*
X005160Y011000D01*
X005106Y011054D01*
X005055Y011111D01*
X005049Y011111D01*
X004845Y011315D01*
X004845Y011367D01*
X004845Y011531D01*
X004452Y011925D01*
X004336Y012041D01*
X004276Y012041D01*
X004281Y012045D01*
X004281Y013018D01*
X004194Y013105D01*
X003318Y013105D01*
X003291Y013170D01*
X003219Y013242D01*
X003124Y013281D01*
X003022Y013281D01*
X002927Y013242D01*
X002855Y013170D01*
X002816Y013075D01*
X002816Y012973D01*
X002855Y012878D01*
X002927Y012806D01*
X002995Y012778D01*
X002927Y012750D01*
X002855Y012678D01*
X002816Y012583D01*
X002816Y012481D01*
X002855Y012386D01*
X002927Y012314D01*
X003022Y012275D01*
X003094Y012275D01*
X003094Y012045D01*
X003099Y012041D01*
X002368Y012041D01*
X002204Y012041D01*
X001889Y011726D01*
X001773Y011610D01*
X001773Y011539D01*
X001584Y011539D01*
X001497Y011452D01*
X001497Y010699D01*
X001584Y010612D01*
X001773Y010612D01*
X001773Y010521D01*
X001889Y010405D01*
X002049Y010405D01*
X002049Y010175D01*
X002153Y010071D01*
X002330Y009893D01*
X002477Y009893D01*
X003039Y009893D01*
X003273Y009659D01*
X003225Y009708D02*
X001450Y009708D01*
X001450Y009512D02*
X002262Y009512D01*
X002320Y009903D02*
X001333Y009903D01*
X001333Y010098D02*
X002125Y010098D01*
X002049Y010294D02*
X001372Y010294D01*
X001301Y010489D02*
X001805Y010489D01*
X001512Y010685D02*
X000762Y010685D01*
X000762Y010880D02*
X001497Y010880D01*
X001497Y011075D02*
X000762Y011075D01*
X000762Y011271D02*
X001497Y011271D01*
X001512Y011466D02*
X000762Y011466D01*
X000762Y011662D02*
X001825Y011662D01*
X002020Y011857D02*
X000762Y011857D01*
X000762Y012052D02*
X003094Y012052D01*
X003094Y012248D02*
X000762Y012248D01*
X000762Y012443D02*
X002831Y012443D01*
X002839Y012639D02*
X000762Y012639D01*
X000762Y012834D02*
X002899Y012834D01*
X002816Y013029D02*
X000762Y013029D01*
X000762Y013225D02*
X002910Y013225D01*
X003236Y013225D02*
X005273Y013225D01*
X005220Y013420D02*
X000762Y013420D01*
X000762Y013615D02*
X003622Y013615D01*
X003603Y013662D02*
X003642Y013567D01*
X003715Y013495D01*
X003809Y013456D01*
X003912Y013456D01*
X004006Y013495D01*
X004079Y013567D01*
X004118Y013662D01*
X004118Y013764D01*
X004079Y013859D01*
X004027Y013910D01*
X004079Y013961D01*
X004118Y014056D01*
X004118Y014158D01*
X004079Y014253D01*
X004006Y014325D01*
X003912Y014364D01*
X003809Y014364D01*
X003715Y014325D01*
X003642Y014253D01*
X003603Y014158D01*
X003603Y014056D01*
X003642Y013961D01*
X003693Y013910D01*
X003642Y013859D01*
X003603Y013764D01*
X003603Y013662D01*
X003622Y013811D02*
X003126Y013811D01*
X003114Y013799D02*
X003184Y013869D01*
X003587Y014272D01*
X003613Y014282D01*
X003685Y014355D01*
X003724Y014449D01*
X003724Y014552D01*
X003685Y014646D01*
X003613Y014719D01*
X003518Y014758D01*
X003416Y014758D01*
X003321Y014719D01*
X003249Y014646D01*
X003238Y014621D01*
X002955Y014338D01*
X002900Y014393D01*
X002640Y014393D01*
X002701Y014453D01*
X002740Y014548D01*
X002740Y014608D01*
X002900Y014608D01*
X002987Y014695D01*
X002987Y015290D01*
X002900Y015377D01*
X001907Y015377D01*
X001820Y015290D01*
X001820Y014695D01*
X001907Y014608D01*
X002225Y014608D01*
X002225Y014548D01*
X002264Y014453D01*
X002325Y014393D01*
X001907Y014393D01*
X001820Y014306D01*
X001820Y013711D01*
X001907Y013624D01*
X002900Y013624D01*
X002987Y013711D01*
X002987Y013761D01*
X003024Y013761D01*
X003114Y013799D01*
X002975Y014008D02*
X002404Y014008D01*
X002320Y014397D02*
X000762Y014397D01*
X000762Y014202D02*
X001820Y014202D01*
X001820Y014006D02*
X000762Y014006D01*
X000762Y013811D02*
X001820Y013811D01*
X002225Y014592D02*
X000762Y014592D01*
X000762Y014788D02*
X001820Y014788D01*
X001820Y014983D02*
X000762Y014983D01*
X000762Y015179D02*
X001820Y015179D01*
X001904Y015374D02*
X000762Y015374D01*
X000762Y015569D02*
X003235Y015569D01*
X003249Y015536D02*
X003209Y015630D01*
X003209Y015733D01*
X003249Y015827D01*
X003251Y015829D01*
X003249Y015831D01*
X003209Y015926D01*
X003209Y016028D01*
X003249Y016123D01*
X003291Y016165D01*
X003291Y016955D01*
X003378Y017042D01*
X004391Y017042D01*
X004478Y016955D01*
X004478Y015982D01*
X004391Y015896D01*
X003804Y015896D01*
X003721Y015740D01*
X003724Y015733D01*
X003724Y015630D01*
X003685Y015536D01*
X003683Y015534D01*
X003685Y015532D01*
X003724Y015437D01*
X003724Y015335D01*
X003685Y015241D01*
X003613Y015168D01*
X003518Y015129D01*
X003416Y015129D01*
X003321Y015168D01*
X003249Y015241D01*
X003209Y015335D01*
X003209Y015437D01*
X003249Y015532D01*
X003251Y015534D01*
X003249Y015536D01*
X003209Y015374D02*
X002903Y015374D01*
X002987Y015179D02*
X003311Y015179D01*
X003623Y015179D02*
X004734Y015179D01*
X004734Y014983D02*
X002987Y014983D01*
X002987Y014788D02*
X004734Y014788D01*
X004597Y014325D02*
X004502Y014364D01*
X004400Y014364D01*
X004305Y014325D01*
X004233Y014253D01*
X004194Y014158D01*
X004194Y014056D01*
X004233Y013961D01*
X004284Y013910D01*
X004233Y013859D01*
X004194Y013764D01*
X004194Y013662D01*
X004233Y013567D01*
X004305Y013495D01*
X004400Y013456D01*
X004502Y013456D01*
X004597Y013495D01*
X004669Y013567D01*
X004708Y013662D01*
X004708Y013764D01*
X004669Y013859D01*
X004618Y013910D01*
X004669Y013961D01*
X004708Y014056D01*
X004708Y014158D01*
X004669Y014253D01*
X004597Y014325D01*
X004690Y014202D02*
X004734Y014202D01*
X004734Y014006D02*
X004688Y014006D01*
X004689Y013811D02*
X004734Y013811D01*
X004689Y013615D02*
X005167Y013615D01*
X005317Y014008D02*
X005608Y012930D01*
X005608Y012532D01*
X006124Y011745D01*
X008146Y009723D01*
X008900Y009723D01*
X009344Y009708D02*
X010048Y009708D01*
X010060Y009903D02*
X009333Y009903D01*
X009344Y010098D02*
X010060Y010098D01*
X010060Y010294D02*
X009344Y010294D01*
X009279Y010489D02*
X010200Y010489D01*
X009602Y010685D02*
X009344Y010685D01*
X009344Y010880D02*
X009406Y010880D01*
X008979Y010802D02*
X008979Y011056D01*
X008979Y010802D02*
X008900Y010723D01*
X008900Y010223D02*
X008138Y010223D01*
X006321Y012040D01*
X006321Y014186D01*
X005317Y014993D01*
X005805Y015382D01*
X005805Y016469D01*
X005211Y016546D02*
X004478Y016546D01*
X004478Y016351D02*
X005211Y016351D01*
X005211Y016156D02*
X004478Y016156D01*
X004456Y015960D02*
X005234Y015960D01*
X005558Y015765D02*
X003735Y015765D01*
X003699Y015569D02*
X005558Y015569D01*
X005951Y015179D02*
X006580Y015179D01*
X006595Y015142D02*
X006646Y015091D01*
X006595Y015040D01*
X006556Y014945D01*
X006556Y014843D01*
X006595Y014748D01*
X006667Y014676D01*
X006762Y014637D01*
X006864Y014637D01*
X006959Y014676D01*
X007031Y014748D01*
X007071Y014843D01*
X007071Y014945D01*
X007031Y015040D01*
X006980Y015091D01*
X007031Y015142D01*
X007071Y015237D01*
X007071Y015339D01*
X007031Y015434D01*
X006959Y015506D01*
X006864Y015545D01*
X006762Y015545D01*
X006667Y015506D01*
X006595Y015434D01*
X006556Y015339D01*
X006556Y015237D01*
X006595Y015142D01*
X006572Y014983D02*
X005901Y014983D01*
X005966Y014788D02*
X006579Y014788D01*
X006455Y014397D02*
X008978Y014397D01*
X008978Y014202D02*
X006568Y014202D01*
X006694Y014056D02*
X006654Y013961D01*
X006654Y013859D01*
X006694Y013764D01*
X006766Y013692D01*
X006791Y013681D01*
X006799Y013673D01*
X006724Y013597D01*
X006724Y013041D01*
X006741Y013024D01*
X006724Y013007D01*
X006724Y012905D01*
X006694Y012875D01*
X006654Y012780D01*
X006654Y012678D01*
X006694Y012583D01*
X006724Y012553D01*
X006724Y012451D01*
X006811Y012364D01*
X007327Y012364D01*
X007404Y012440D01*
X007480Y012364D01*
X007997Y012364D01*
X008084Y012451D01*
X008084Y012553D01*
X008114Y012583D01*
X008153Y012678D01*
X008153Y012780D01*
X008114Y012875D01*
X008084Y012905D01*
X008084Y013007D01*
X008066Y013024D01*
X008084Y013041D01*
X008084Y013122D01*
X008151Y013122D01*
X008170Y013075D01*
X008242Y013003D01*
X008337Y012964D01*
X008439Y012964D01*
X008534Y013003D01*
X008606Y013075D01*
X008645Y013170D01*
X008645Y013272D01*
X008606Y013367D01*
X008534Y013439D01*
X008439Y013478D01*
X008410Y013478D01*
X008371Y013517D01*
X008208Y013517D01*
X008084Y013517D01*
X008084Y013597D01*
X007997Y013684D01*
X007480Y013684D01*
X007404Y013608D01*
X007327Y013684D01*
X007316Y013684D01*
X007316Y013802D01*
X007278Y013892D01*
X007209Y013962D01*
X007140Y014030D01*
X007130Y014056D01*
X007057Y014128D01*
X006963Y014167D01*
X006860Y014167D01*
X006766Y014128D01*
X006694Y014056D01*
X006673Y014006D02*
X006568Y014006D01*
X006568Y013811D02*
X006674Y013811D01*
X006742Y013615D02*
X006568Y013615D01*
X006568Y013420D02*
X006724Y013420D01*
X006724Y013225D02*
X006568Y013225D01*
X006568Y013029D02*
X006736Y013029D01*
X006677Y012834D02*
X006568Y012834D01*
X006568Y012639D02*
X006671Y012639D01*
X006732Y012443D02*
X006568Y012443D01*
X006568Y012248D02*
X008722Y012248D01*
X008721Y012443D02*
X008076Y012443D01*
X008137Y012639D02*
X008820Y012639D01*
X008870Y013029D02*
X008560Y013029D01*
X008645Y013225D02*
X008870Y013225D01*
X008870Y013420D02*
X008553Y013420D01*
X008870Y013615D02*
X008066Y013615D01*
X008072Y013029D02*
X008216Y013029D01*
X008131Y012834D02*
X009902Y012834D01*
X011085Y012729D02*
X011124Y012729D01*
X011164Y012689D01*
X011164Y013339D01*
X011164Y012689D02*
X011164Y012217D01*
X011085Y012138D01*
X011906Y012116D02*
X011906Y011916D01*
X011400Y011075D01*
X012049Y010662D02*
X011675Y010288D01*
X011610Y010223D01*
X011026Y010223D01*
X011026Y009723D02*
X011571Y009723D01*
X011675Y009619D01*
X011931Y009874D01*
X013506Y009874D01*
X012325Y010662D02*
X012049Y010662D01*
X010041Y009512D02*
X009303Y009512D01*
X009344Y009317D02*
X009997Y009317D01*
X009954Y009121D02*
X009344Y009121D01*
X009605Y008731D02*
X009804Y008731D01*
X009855Y008535D02*
X009637Y008535D01*
X009372Y008595D02*
X007896Y008595D01*
X007601Y008300D01*
X007601Y007227D01*
X007157Y007558D02*
X007130Y007558D01*
X007038Y007754D02*
X007354Y007754D01*
X007354Y007949D02*
X007071Y007949D01*
X007001Y008144D02*
X007354Y008144D01*
X007354Y008340D02*
X007068Y008340D01*
X007035Y008535D02*
X007487Y008535D01*
X007682Y008731D02*
X007018Y008731D01*
X007071Y008926D02*
X009911Y008926D01*
X008456Y009121D02*
X007001Y009121D01*
X007045Y009317D02*
X008456Y009317D01*
X008009Y009512D02*
X007405Y009512D01*
X007464Y009708D02*
X007812Y009708D01*
X007617Y009903D02*
X007335Y009903D01*
X007421Y010098D02*
X006401Y010098D01*
X006305Y010294D02*
X007226Y010294D01*
X007031Y010489D02*
X005617Y010489D01*
X005793Y010294D02*
X005983Y010294D01*
X006504Y009903D02*
X007079Y009903D01*
X006794Y009382D02*
X006656Y009382D01*
X006656Y008890D02*
X006813Y008890D01*
X006813Y008398D02*
X006656Y008398D01*
X006715Y008398D02*
X006813Y008398D01*
X006813Y007906D02*
X006656Y007906D01*
X006754Y007414D02*
X006912Y007414D01*
X006813Y006922D02*
X006656Y006922D01*
X006951Y005937D02*
X007109Y005937D01*
X007296Y005761D02*
X007327Y005792D01*
X007366Y005886D01*
X007366Y005989D01*
X007363Y005996D01*
X007957Y005996D01*
X007994Y006033D01*
X008031Y005996D01*
X008745Y005996D01*
X008832Y006083D01*
X008832Y006757D01*
X008766Y006823D01*
X008839Y006823D01*
X008839Y006811D01*
X008879Y006717D01*
X008951Y006645D01*
X009045Y006605D01*
X009086Y006605D01*
X009086Y006053D01*
X009173Y005966D01*
X009627Y005966D01*
X009627Y005867D01*
X009666Y005772D01*
X009738Y005700D01*
X009833Y005660D01*
X009935Y005660D01*
X010030Y005700D01*
X010102Y005772D01*
X010141Y005867D01*
X010141Y005966D01*
X010198Y005966D01*
X010198Y005886D01*
X010237Y005792D01*
X010309Y005719D01*
X010404Y005680D01*
X010506Y005680D01*
X010552Y005699D01*
X010552Y005650D01*
X010591Y005555D01*
X010661Y005485D01*
X009684Y005485D01*
X009568Y005370D01*
X008230Y004031D01*
X008230Y003867D01*
X008230Y003519D01*
X006515Y001804D01*
X005812Y001804D01*
X005783Y001833D01*
X005685Y001874D01*
X005579Y001874D01*
X005481Y001833D01*
X005406Y001758D01*
X005365Y001660D01*
X005365Y001554D01*
X005406Y001455D01*
X005481Y001380D01*
X005579Y001340D01*
X005685Y001340D01*
X005783Y001380D01*
X005812Y001409D01*
X006515Y001409D01*
X006679Y001409D01*
X008509Y003240D01*
X008625Y003356D01*
X008625Y003519D01*
X008662Y003429D01*
X008734Y003357D01*
X008829Y003318D01*
X008931Y003318D01*
X009026Y003357D01*
X009098Y003429D01*
X009120Y003483D01*
X009125Y003486D01*
X009125Y002923D01*
X009206Y002843D01*
X009138Y002775D01*
X009070Y002612D01*
X009070Y002436D01*
X009138Y002273D01*
X009263Y002148D01*
X009426Y002080D01*
X009602Y002080D01*
X009765Y002148D01*
X009890Y002273D01*
X009958Y002436D01*
X009958Y002612D01*
X009890Y002775D01*
X009829Y002836D01*
X009926Y002836D01*
X010013Y002923D01*
X010013Y003558D01*
X009996Y003575D01*
X010013Y003593D01*
X010013Y004227D01*
X009926Y004314D01*
X009212Y004314D01*
X009125Y004227D01*
X009125Y004027D01*
X008863Y003833D01*
X008829Y003833D01*
X008734Y003793D01*
X008662Y003721D01*
X008625Y003632D01*
X008625Y003867D01*
X009509Y004751D01*
X009509Y004685D01*
X009548Y004591D01*
X009620Y004519D01*
X009715Y004479D01*
X009817Y004479D01*
X009912Y004519D01*
X009984Y004591D01*
X010023Y004685D01*
X010023Y004788D01*
X009984Y004882D01*
X009912Y004955D01*
X009817Y004994D01*
X009752Y004994D01*
X009848Y005090D01*
X010865Y005090D01*
X011029Y005090D01*
X011353Y005414D01*
X011394Y005414D01*
X011492Y005455D01*
X011567Y005530D01*
X011608Y005628D01*
X011608Y005735D01*
X011567Y005833D01*
X011492Y005908D01*
X011394Y005949D01*
X011288Y005949D01*
X011189Y005908D01*
X011114Y005833D01*
X011074Y005735D01*
X011074Y005694D01*
X011067Y005687D01*
X011067Y005752D01*
X011027Y005847D01*
X010955Y005919D01*
X010860Y005959D01*
X010758Y005959D01*
X010751Y005956D01*
X010751Y006626D01*
X011960Y006626D01*
X011910Y006575D01*
X011871Y006481D01*
X011871Y006411D01*
X011782Y006411D01*
X011687Y006372D01*
X011615Y006300D01*
X011576Y006205D01*
X011576Y006103D01*
X011615Y006008D01*
X011687Y005936D01*
X011782Y005897D01*
X011884Y005897D01*
X011979Y005936D01*
X012051Y006008D01*
X012090Y006103D01*
X012090Y006172D01*
X012179Y006172D01*
X012274Y006211D01*
X012294Y006232D01*
X012637Y006232D01*
X013905Y004964D01*
X013888Y004964D01*
X013801Y004877D01*
X013801Y004163D01*
X013877Y004087D01*
X013801Y004011D01*
X013801Y003297D01*
X013888Y003210D01*
X013971Y003210D01*
X013988Y003168D01*
X014063Y003093D01*
X014162Y003052D01*
X014268Y003052D01*
X014366Y003093D01*
X014440Y003166D01*
X014469Y003095D01*
X014541Y003022D01*
X014636Y002983D01*
X014738Y002983D01*
X014833Y003022D01*
X014848Y003038D01*
X014869Y003027D01*
X014916Y003043D01*
X014966Y003043D01*
X014991Y003068D01*
X015024Y003079D01*
X015046Y003124D01*
X015082Y003159D01*
X015082Y003194D01*
X015090Y003210D01*
X015369Y003210D01*
X015435Y003277D01*
X015502Y003210D01*
X016176Y003210D01*
X016263Y003297D01*
X016263Y004011D01*
X016186Y004087D01*
X016263Y004163D01*
X016263Y004877D01*
X016176Y004964D01*
X015502Y004964D01*
X015435Y004897D01*
X015369Y004964D01*
X015153Y004964D01*
X014885Y005232D01*
X014816Y005301D01*
X015449Y005101D01*
X015520Y005074D01*
X015526Y005077D01*
X015533Y005075D01*
X015600Y005110D01*
X015670Y005141D01*
X015672Y005147D01*
X015678Y005150D01*
X015701Y005223D01*
X015952Y005883D01*
X015965Y005851D01*
X016038Y005778D01*
X016132Y005739D01*
X016234Y005739D01*
X016329Y005778D01*
X016401Y005851D01*
X016407Y005865D01*
X016407Y000772D01*
X016096Y000772D01*
X016249Y000925D01*
X016353Y001176D01*
X016353Y001447D01*
X016249Y001698D01*
X016058Y001889D01*
X015807Y001993D01*
X015536Y001993D01*
X015285Y001889D01*
X015094Y001698D01*
X014990Y001447D01*
X014990Y001176D01*
X015094Y000925D01*
X015247Y000772D01*
X008222Y000772D01*
X008375Y000925D01*
X008479Y001176D01*
X008479Y001447D01*
X008375Y001698D01*
X008184Y001889D01*
X007933Y001993D01*
X007662Y001993D01*
X007411Y001889D01*
X007220Y001698D01*
X007116Y001447D01*
X007116Y001176D01*
X007220Y000925D01*
X007373Y000772D01*
X005170Y000772D01*
X005170Y001156D01*
X005114Y001213D01*
X005170Y001270D01*
X005170Y001668D01*
X005083Y001755D01*
X005042Y001755D01*
X005042Y002115D01*
X005072Y002145D01*
X005162Y002108D01*
X005315Y002108D01*
X005456Y002166D01*
X005564Y002275D01*
X005623Y002416D01*
X005623Y002569D01*
X005564Y002710D01*
X005456Y002819D01*
X005315Y002877D01*
X005162Y002877D01*
X005122Y002861D01*
X005096Y002886D01*
X005122Y002912D01*
X005162Y002895D01*
X005315Y002895D01*
X005456Y002954D01*
X005564Y003062D01*
X005623Y003203D01*
X005623Y003356D01*
X005564Y003498D01*
X005456Y003606D01*
X005355Y003648D01*
X005405Y003665D01*
X005466Y003696D01*
X005522Y003736D01*
X005532Y003746D01*
X005543Y003719D01*
X005619Y003644D01*
X005717Y003603D01*
X005823Y003603D01*
X005921Y003644D01*
X005936Y003659D01*
X005936Y003199D01*
X006023Y003112D01*
X006084Y003112D01*
X006084Y002476D01*
X006053Y002445D01*
X006012Y002445D01*
X005914Y002404D01*
X005839Y002329D01*
X005798Y002231D01*
X005798Y002124D01*
X005839Y002026D01*
X005914Y001951D01*
X006012Y001910D01*
X006118Y001910D01*
X006216Y001951D01*
X006292Y002026D01*
X006332Y002124D01*
X006332Y002165D01*
X006479Y002312D01*
X006479Y002476D01*
X006479Y003112D01*
X006540Y003112D01*
X006616Y003188D01*
X006693Y003112D01*
X007209Y003112D01*
X007296Y003199D01*
X007296Y003301D01*
X007327Y003331D01*
X007366Y003426D01*
X007366Y003528D01*
X007327Y003623D01*
X007296Y003653D01*
X007296Y003755D01*
X007296Y003793D01*
X007327Y003823D01*
X007366Y003918D01*
X007366Y004020D01*
X007327Y004115D01*
X007296Y004145D01*
X007296Y004247D01*
X007296Y004285D01*
X007327Y004315D01*
X007366Y004410D01*
X007366Y004512D01*
X007327Y004607D01*
X007296Y004637D01*
X007296Y004675D01*
X007296Y004777D01*
X007327Y004807D01*
X007366Y004902D01*
X007366Y005004D01*
X007327Y005099D01*
X007296Y005129D01*
X007296Y005231D01*
X007296Y005269D01*
X007327Y005300D01*
X007366Y005394D01*
X007366Y005497D01*
X007327Y005591D01*
X007296Y005621D01*
X007296Y005659D01*
X007296Y005761D01*
X007330Y005800D02*
X009654Y005800D01*
X009608Y005409D02*
X007366Y005409D01*
X007313Y005604D02*
X010571Y005604D01*
X010233Y005800D02*
X010114Y005800D01*
X010751Y005995D02*
X011628Y005995D01*
X011581Y005800D02*
X013069Y005800D01*
X012874Y005995D02*
X012038Y005995D01*
X012223Y006191D02*
X012678Y006191D01*
X013264Y005604D02*
X011598Y005604D01*
X011348Y005409D02*
X013460Y005409D01*
X013655Y005214D02*
X011152Y005214D01*
X011210Y004921D02*
X010497Y004921D01*
X010410Y004834D01*
X010410Y004160D01*
X010437Y004132D01*
X010356Y004051D01*
X010356Y003297D01*
X010471Y003181D01*
X010635Y003181D01*
X011192Y003181D01*
X011192Y002923D01*
X011239Y002877D01*
X011138Y002775D01*
X011070Y002612D01*
X011070Y002436D01*
X011138Y002273D01*
X011252Y002159D01*
X010955Y002159D01*
X010866Y002248D01*
X010890Y002273D01*
X010958Y002436D01*
X010958Y002612D01*
X010890Y002775D01*
X010765Y002900D01*
X010602Y002968D01*
X010426Y002968D01*
X010263Y002900D01*
X010138Y002775D01*
X010070Y002612D01*
X010070Y002436D01*
X010138Y002273D01*
X010263Y002148D01*
X010275Y002143D01*
X010296Y002091D01*
X010631Y001757D01*
X010703Y001684D01*
X010798Y001645D01*
X010880Y001645D01*
X010787Y001607D01*
X010734Y001554D01*
X010682Y001607D01*
X010554Y001660D01*
X010415Y001660D01*
X010287Y001607D01*
X010270Y001590D01*
X010238Y001621D01*
X010173Y001665D01*
X010101Y001695D01*
X010024Y001710D01*
X009985Y001710D01*
X009985Y001312D01*
X009984Y001312D01*
X009984Y001710D01*
X009945Y001710D01*
X009868Y001695D01*
X009796Y001665D01*
X009763Y001643D01*
X009746Y001660D01*
X009223Y001660D01*
X009136Y001573D01*
X009136Y001050D01*
X009223Y000963D01*
X009746Y000963D01*
X009763Y000980D01*
X009796Y000958D01*
X009868Y000928D01*
X009945Y000913D01*
X009984Y000913D01*
X009984Y001311D01*
X009985Y001311D01*
X009985Y000913D01*
X010024Y000913D01*
X010101Y000928D01*
X010173Y000958D01*
X010238Y001002D01*
X010270Y001033D01*
X010287Y001016D01*
X010415Y000963D01*
X010554Y000963D01*
X010682Y001016D01*
X010734Y001069D01*
X010787Y001016D01*
X010915Y000963D01*
X011054Y000963D01*
X011182Y001016D01*
X011234Y001069D01*
X011287Y001016D01*
X011415Y000963D01*
X011554Y000963D01*
X011682Y001016D01*
X011734Y001069D01*
X011787Y001016D01*
X011915Y000963D01*
X012054Y000963D01*
X012182Y001016D01*
X012234Y001069D01*
X012287Y001016D01*
X012415Y000963D01*
X012554Y000963D01*
X012682Y001016D01*
X012734Y001069D01*
X012787Y001016D01*
X012915Y000963D01*
X013054Y000963D01*
X013182Y001016D01*
X013234Y001069D01*
X013287Y001016D01*
X013415Y000963D01*
X013554Y000963D01*
X013682Y001016D01*
X013734Y001069D01*
X013787Y001016D01*
X013915Y000963D01*
X014054Y000963D01*
X014182Y001016D01*
X014280Y001114D01*
X014333Y001242D01*
X014333Y001381D01*
X014280Y001509D01*
X014182Y001607D01*
X014054Y001660D01*
X013915Y001660D01*
X013787Y001607D01*
X013734Y001554D01*
X013682Y001607D01*
X013554Y001660D01*
X013415Y001660D01*
X013287Y001607D01*
X013262Y001581D01*
X013232Y001654D01*
X013159Y001726D01*
X012766Y002120D01*
X012731Y002134D01*
X012765Y002148D01*
X012890Y002273D01*
X012958Y002436D01*
X012958Y002612D01*
X012890Y002775D01*
X012765Y002900D01*
X012602Y002968D01*
X012426Y002968D01*
X012263Y002900D01*
X012138Y002775D01*
X012070Y002612D01*
X012070Y002436D01*
X012138Y002273D01*
X012252Y002159D01*
X011776Y002159D01*
X011890Y002273D01*
X011958Y002436D01*
X011958Y002612D01*
X011890Y002775D01*
X011840Y002826D01*
X011864Y002826D01*
X011890Y002836D01*
X011993Y002836D01*
X012066Y002909D01*
X012077Y002905D01*
X012179Y002905D01*
X012274Y002944D01*
X012346Y003016D01*
X012385Y003111D01*
X012385Y003213D01*
X012346Y003308D01*
X012274Y003380D01*
X012227Y003399D01*
X012227Y003460D01*
X012227Y004051D01*
X012169Y004109D01*
X012169Y004119D01*
X012160Y004141D01*
X012160Y004162D01*
X012145Y004177D01*
X012130Y004213D01*
X012057Y004286D01*
X011996Y004311D01*
X011993Y004314D01*
X011988Y004314D01*
X011963Y004325D01*
X011860Y004325D01*
X011835Y004314D01*
X011771Y004314D01*
X011756Y004351D01*
X011683Y004423D01*
X011589Y004462D01*
X011486Y004462D01*
X011392Y004423D01*
X011319Y004351D01*
X011304Y004314D01*
X011297Y004314D01*
X011297Y004834D01*
X011210Y004921D01*
X011297Y004823D02*
X013801Y004823D01*
X013801Y004627D02*
X011297Y004627D01*
X011297Y004432D02*
X011413Y004432D01*
X011662Y004432D02*
X013801Y004432D01*
X013801Y004237D02*
X012106Y004237D01*
X012227Y004041D02*
X013831Y004041D01*
X013801Y003846D02*
X012227Y003846D01*
X012227Y003650D02*
X013801Y003650D01*
X013801Y003455D02*
X012227Y003455D01*
X012366Y003260D02*
X013838Y003260D01*
X014133Y003064D02*
X012366Y003064D01*
X012231Y002869D02*
X012025Y002869D01*
X012096Y002673D02*
X011932Y002673D01*
X011958Y002478D02*
X012070Y002478D01*
X012134Y002283D02*
X011894Y002283D01*
X012620Y001902D02*
X012620Y001882D01*
X012994Y001508D01*
X013189Y001696D02*
X015093Y001696D01*
X015012Y001501D02*
X014283Y001501D01*
X014333Y001306D02*
X014990Y001306D01*
X015017Y001110D02*
X014276Y001110D01*
X015104Y000915D02*
X010033Y000915D01*
X009985Y000915D02*
X009984Y000915D01*
X009936Y000915D02*
X008365Y000915D01*
X008452Y001110D02*
X009136Y001110D01*
X009136Y001306D02*
X008479Y001306D01*
X008457Y001501D02*
X009136Y001501D01*
X009409Y002087D02*
X007357Y002087D01*
X007418Y001892D02*
X007161Y001892D01*
X007219Y001696D02*
X006966Y001696D01*
X007010Y001508D02*
X007699Y002197D01*
X009175Y002197D01*
X009569Y001804D01*
X010061Y001804D01*
X010061Y001705D01*
X009963Y001607D01*
X009963Y001311D01*
X009984Y001311D02*
X009833Y001311D01*
X009833Y001312D01*
X009984Y001312D01*
X009984Y001311D01*
X009984Y001306D02*
X009985Y001306D01*
X009984Y001501D02*
X009985Y001501D01*
X009984Y001696D02*
X009985Y001696D01*
X010091Y001696D02*
X010691Y001696D01*
X010496Y001892D02*
X008177Y001892D01*
X008376Y001696D02*
X009878Y001696D01*
X009619Y002087D02*
X010300Y002087D01*
X010134Y002283D02*
X009894Y002283D01*
X009958Y002478D02*
X010070Y002478D01*
X010096Y002673D02*
X009932Y002673D01*
X009958Y002869D02*
X010231Y002869D01*
X010013Y003064D02*
X011192Y003064D01*
X011231Y002869D02*
X010797Y002869D01*
X010932Y002673D02*
X011096Y002673D01*
X011070Y002478D02*
X010958Y002478D01*
X010894Y002283D02*
X011134Y002283D01*
X010393Y003260D02*
X010013Y003260D01*
X010013Y003455D02*
X010356Y003455D01*
X010356Y003650D02*
X010013Y003650D01*
X010013Y003846D02*
X010356Y003846D01*
X010356Y004041D02*
X010013Y004041D01*
X010004Y004237D02*
X010410Y004237D01*
X010410Y004432D02*
X009190Y004432D01*
X009135Y004237D02*
X008994Y004237D01*
X009125Y004041D02*
X008799Y004041D01*
X008881Y003846D02*
X008625Y003846D01*
X008625Y003650D02*
X008633Y003650D01*
X008625Y003455D02*
X008651Y003455D01*
X008529Y003260D02*
X009125Y003260D01*
X009109Y003455D02*
X009125Y003455D01*
X009125Y003064D02*
X008334Y003064D01*
X008138Y002869D02*
X009180Y002869D01*
X009096Y002673D02*
X007943Y002673D01*
X007747Y002478D02*
X009070Y002478D01*
X009134Y002283D02*
X007552Y002283D01*
X007188Y002478D02*
X006479Y002478D01*
X006479Y002673D02*
X007384Y002673D01*
X007579Y002869D02*
X006479Y002869D01*
X006479Y003064D02*
X007775Y003064D01*
X007970Y003260D02*
X007296Y003260D01*
X007366Y003455D02*
X008165Y003455D01*
X008230Y003650D02*
X007299Y003650D01*
X007336Y003846D02*
X008230Y003846D01*
X008240Y004041D02*
X007357Y004041D01*
X007296Y004237D02*
X008435Y004237D01*
X008631Y004432D02*
X007366Y004432D01*
X007306Y004627D02*
X008826Y004627D01*
X009021Y004823D02*
X007333Y004823D01*
X007360Y005018D02*
X009217Y005018D01*
X009412Y005214D02*
X007296Y005214D01*
X007109Y005445D02*
X006951Y005445D01*
X006951Y004953D02*
X007109Y004953D01*
X007109Y004461D02*
X006951Y004461D01*
X006951Y003969D02*
X007109Y003969D01*
X007109Y003477D02*
X006951Y003477D01*
X006813Y002886D02*
X007010Y002689D01*
X007010Y002591D01*
X006420Y002000D01*
X006420Y001902D01*
X005829Y001902D01*
X005731Y002000D01*
X005731Y002296D01*
X005435Y002000D01*
X005337Y002000D01*
X005317Y001705D01*
X005317Y001351D01*
X005534Y001056D01*
X006813Y001016D01*
X007010Y001213D01*
X007010Y001508D01*
X007138Y001501D02*
X006770Y001501D01*
X007116Y001306D02*
X005170Y001306D01*
X005170Y001501D02*
X005387Y001501D01*
X005380Y001696D02*
X005142Y001696D01*
X005042Y001892D02*
X006602Y001892D01*
X006798Y002087D02*
X006317Y002087D01*
X006450Y002283D02*
X006993Y002283D01*
X006084Y002478D02*
X005623Y002478D01*
X005731Y002591D02*
X005829Y002493D01*
X005829Y002394D01*
X005731Y002296D01*
X005820Y002283D02*
X005568Y002283D01*
X005813Y002087D02*
X005042Y002087D01*
X005580Y002673D02*
X006084Y002673D01*
X006084Y002869D02*
X005335Y002869D01*
X005142Y002869D02*
X005114Y002869D01*
X004830Y003123D02*
X004606Y003123D01*
X004639Y003203D01*
X004639Y003356D01*
X004580Y003498D01*
X004472Y003606D01*
X004331Y003665D01*
X004178Y003665D01*
X004036Y003606D01*
X003928Y003498D01*
X003912Y003458D01*
X003885Y003458D01*
X003468Y003040D01*
X003468Y003194D01*
X003479Y003205D01*
X003479Y003209D01*
X003487Y003218D01*
X003763Y003493D01*
X003763Y003657D01*
X003763Y003887D01*
X003870Y003994D01*
X003870Y003991D01*
X003928Y003849D01*
X004036Y003741D01*
X004178Y003683D01*
X004331Y003683D01*
X004472Y003741D01*
X004580Y003849D01*
X004639Y003991D01*
X004639Y004144D01*
X004589Y004263D01*
X004851Y004263D01*
X004836Y004234D01*
X004814Y004169D01*
X004804Y004102D01*
X004804Y004068D01*
X005238Y004068D01*
X005238Y004067D01*
X004804Y004067D01*
X004804Y004033D01*
X004814Y003966D01*
X004836Y003901D01*
X004867Y003840D01*
X004907Y003784D01*
X004955Y003736D01*
X005011Y003696D01*
X005072Y003665D01*
X005122Y003648D01*
X005021Y003606D01*
X004912Y003498D01*
X004854Y003356D01*
X004854Y003203D01*
X004870Y003164D01*
X004830Y003123D01*
X004854Y003260D02*
X004639Y003260D01*
X004598Y003455D02*
X004895Y003455D01*
X005042Y003674D02*
X005435Y003674D01*
X005731Y003378D01*
X005731Y002591D01*
X005829Y002493D02*
X005829Y003280D01*
X005731Y003378D01*
X005623Y003260D02*
X005936Y003260D01*
X005936Y003455D02*
X005582Y003455D01*
X005612Y003650D02*
X005361Y003650D01*
X005435Y003674D02*
X005238Y003871D01*
X005238Y004067D01*
X005239Y004067D01*
X005239Y003665D01*
X005238Y003665D01*
X005238Y004067D01*
X005238Y004041D02*
X005239Y004041D01*
X005238Y003871D02*
X005042Y003674D01*
X005115Y003650D02*
X004365Y003650D01*
X004143Y003650D02*
X003763Y003650D01*
X003763Y003846D02*
X003932Y003846D01*
X003882Y003455D02*
X003724Y003455D01*
X003687Y003260D02*
X003529Y003260D01*
X003491Y003064D02*
X003468Y003064D01*
X002483Y003300D02*
X002483Y003477D01*
X001203Y003477D02*
X001006Y003280D01*
X001006Y002532D01*
X001006Y001863D02*
X001006Y001115D01*
X002483Y001095D02*
X002483Y001508D01*
X004353Y000957D02*
X004845Y000957D01*
X005170Y000915D02*
X007230Y000915D01*
X007143Y001110D02*
X005170Y001110D01*
X005565Y003064D02*
X006084Y003064D01*
X005936Y003650D02*
X005928Y003650D01*
X005239Y003846D02*
X005238Y003846D01*
X004864Y003846D02*
X004577Y003846D01*
X004639Y004041D02*
X004804Y004041D01*
X004837Y004237D02*
X004600Y004237D01*
X002483Y006626D02*
X002483Y007138D01*
X001105Y006626D02*
X001105Y006371D01*
X001715Y008871D02*
X001971Y008871D01*
X001471Y008926D02*
X001450Y008926D01*
X001450Y009121D02*
X001497Y009121D01*
X001450Y009317D02*
X001567Y009317D01*
X000876Y009903D02*
X000762Y009903D01*
X000762Y010098D02*
X000876Y010098D01*
X000837Y010294D02*
X000762Y010294D01*
X000762Y010489D02*
X000908Y010489D01*
X002483Y010308D02*
X002483Y011075D01*
X004281Y012052D02*
X005014Y012052D01*
X005014Y012248D02*
X004281Y012248D01*
X004281Y012443D02*
X005014Y012443D01*
X005014Y012639D02*
X004281Y012639D01*
X004281Y012834D02*
X005014Y012834D01*
X005025Y013029D02*
X004270Y013029D01*
X004213Y013615D02*
X004099Y013615D01*
X004098Y013811D02*
X004213Y013811D01*
X004214Y014006D02*
X004097Y014006D01*
X004100Y014202D02*
X004212Y014202D01*
X003702Y014397D02*
X005664Y014397D01*
X005421Y014592D02*
X003707Y014592D01*
X003467Y014500D02*
X002975Y014008D01*
X003322Y014006D02*
X003624Y014006D01*
X003621Y014202D02*
X003517Y014202D01*
X003210Y014592D02*
X002740Y014592D01*
X002645Y014397D02*
X003014Y014397D01*
X003724Y015374D02*
X004817Y015374D01*
X004478Y016742D02*
X005211Y016742D01*
X005211Y016937D02*
X004478Y016937D01*
X003291Y016937D02*
X000762Y016937D01*
X000762Y016742D02*
X003291Y016742D01*
X003291Y016546D02*
X000762Y016546D01*
X000762Y016351D02*
X003291Y016351D01*
X003282Y016156D02*
X000762Y016156D01*
X000762Y015960D02*
X003209Y015960D01*
X003223Y015765D02*
X000762Y015765D01*
X000762Y017133D02*
X007116Y017133D01*
X007116Y016937D02*
X006398Y016937D01*
X006398Y016742D02*
X007191Y016742D01*
X007347Y016546D02*
X006398Y016546D01*
X006398Y016351D02*
X008536Y016351D01*
X008551Y016156D02*
X006398Y016156D01*
X006376Y015960D02*
X008636Y015960D01*
X008891Y015569D02*
X009007Y015569D01*
X009037Y015374D02*
X008891Y015374D01*
X009431Y015741D02*
X009431Y017006D01*
X009484Y017060D01*
X009777Y016742D02*
X009841Y016742D01*
X009678Y016546D02*
X014049Y016546D01*
X013980Y016351D02*
X009678Y016351D01*
X009777Y016156D02*
X010286Y016156D01*
X010208Y015960D02*
X009855Y015960D01*
X009855Y015765D02*
X010208Y015765D01*
X010208Y015569D02*
X009855Y015569D01*
X009826Y015374D02*
X010208Y015374D01*
X010534Y015179D02*
X007046Y015179D01*
X007056Y015374D02*
X007446Y015374D01*
X007343Y015569D02*
X006052Y015569D01*
X006052Y015374D02*
X006570Y015374D01*
X007055Y014983D02*
X010078Y014983D01*
X010051Y014788D02*
X007048Y014788D01*
X007164Y014006D02*
X008978Y014006D01*
X008926Y013811D02*
X007312Y013811D01*
X007396Y013615D02*
X007411Y013615D01*
X007069Y013752D02*
X006912Y013910D01*
X007069Y013752D02*
X007069Y013319D01*
X007069Y012729D02*
X006912Y012729D01*
X006767Y012052D02*
X006658Y012052D01*
X006054Y011466D02*
X004845Y011466D01*
X004889Y011271D02*
X006249Y011271D01*
X006444Y011075D02*
X005087Y011075D01*
X005263Y010880D02*
X006640Y010880D01*
X006835Y010685D02*
X005440Y010685D01*
X005884Y011662D02*
X004715Y011662D01*
X004520Y011857D02*
X005755Y011857D01*
X007253Y012052D02*
X008721Y012052D01*
X008798Y011857D02*
X007874Y011857D01*
X007642Y011857D02*
X007374Y011857D01*
X008015Y011662D02*
X008702Y011662D01*
X009964Y014202D02*
X009992Y014202D01*
X009964Y014397D02*
X010080Y014397D01*
X010051Y014592D02*
X009953Y014592D01*
X008988Y014592D02*
X006209Y014592D01*
X006052Y015765D02*
X007418Y015765D01*
X008248Y016546D02*
X008584Y016546D01*
X008584Y016742D02*
X008403Y016742D01*
X008479Y016937D02*
X008584Y016937D01*
X008584Y017133D02*
X008479Y017133D01*
X008424Y017328D02*
X008584Y017328D01*
X008671Y017523D02*
X008297Y017523D01*
X007298Y017523D02*
X000762Y017523D01*
X000762Y017328D02*
X007171Y017328D01*
X010128Y016742D02*
X010341Y016742D01*
X010628Y016742D02*
X010841Y016742D01*
X011128Y016742D02*
X011341Y016742D01*
X011628Y016742D02*
X011841Y016742D01*
X012128Y016742D02*
X012341Y016742D01*
X012628Y016742D02*
X012841Y016742D01*
X013128Y016742D02*
X013341Y016742D01*
X013628Y016742D02*
X013841Y016742D01*
X011861Y016156D02*
X011411Y016156D01*
X011489Y015960D02*
X011783Y015960D01*
X011783Y015765D02*
X011489Y015765D01*
X011489Y015569D02*
X011783Y015569D01*
X011783Y015374D02*
X011489Y015374D01*
X011085Y014697D02*
X011085Y014166D01*
X011164Y014087D01*
X012817Y007861D02*
X012666Y007709D01*
X012030Y007709D01*
X011916Y006581D02*
X010751Y006581D01*
X010751Y006386D02*
X011720Y006386D01*
X011576Y006191D02*
X010751Y006191D01*
X011047Y005800D02*
X011101Y005800D01*
X010410Y004823D02*
X010009Y004823D01*
X009999Y004627D02*
X010410Y004627D01*
X009776Y005018D02*
X013851Y005018D01*
X014903Y005214D02*
X015093Y005214D01*
X015099Y005018D02*
X016028Y005018D01*
X015998Y005030D02*
X016093Y004991D01*
X016195Y004991D01*
X016290Y005030D01*
X016362Y005103D01*
X016401Y005197D01*
X016401Y005300D01*
X016362Y005394D01*
X016290Y005467D01*
X016195Y005506D01*
X016093Y005506D01*
X015998Y005467D01*
X015926Y005394D01*
X015887Y005300D01*
X015887Y005197D01*
X015926Y005103D01*
X015998Y005030D01*
X015887Y005214D02*
X015698Y005214D01*
X015772Y005409D02*
X015940Y005409D01*
X015846Y005604D02*
X016407Y005604D01*
X016407Y005409D02*
X016347Y005409D01*
X016401Y005214D02*
X016407Y005214D01*
X016407Y005018D02*
X016260Y005018D01*
X016263Y004823D02*
X016407Y004823D01*
X016407Y004627D02*
X016263Y004627D01*
X016263Y004432D02*
X016407Y004432D01*
X016407Y004237D02*
X016263Y004237D01*
X016232Y004041D02*
X016407Y004041D01*
X016407Y003846D02*
X016263Y003846D01*
X016263Y003650D02*
X016407Y003650D01*
X016407Y003455D02*
X016263Y003455D01*
X016225Y003260D02*
X016407Y003260D01*
X016407Y003064D02*
X014987Y003064D01*
X014500Y003064D02*
X014297Y003064D01*
X015292Y001892D02*
X012994Y001892D01*
X012798Y002087D02*
X016407Y002087D01*
X016407Y001892D02*
X016051Y001892D01*
X016250Y001696D02*
X016407Y001696D01*
X016407Y001501D02*
X016331Y001501D01*
X016353Y001306D02*
X016407Y001306D01*
X016407Y001110D02*
X016326Y001110D01*
X016407Y000915D02*
X016239Y000915D01*
X016407Y002283D02*
X012894Y002283D01*
X012958Y002478D02*
X016407Y002478D01*
X016407Y002673D02*
X012932Y002673D01*
X012797Y002869D02*
X016407Y002869D01*
X015452Y003260D02*
X015418Y003260D01*
X015920Y005800D02*
X016016Y005800D01*
X016350Y005800D02*
X016407Y005800D01*
X009985Y001110D02*
X009984Y001110D01*
X009533Y004627D02*
X009385Y004627D01*
X009144Y005995D02*
X007363Y005995D01*
X008832Y006191D02*
X009086Y006191D01*
X009086Y006386D02*
X008832Y006386D01*
X008832Y006581D02*
X009086Y006581D01*
X008854Y006777D02*
X008812Y006777D01*
D39*
X009514Y002524D03*
X010514Y002524D03*
X011514Y002524D03*
X012514Y002524D03*
D40*
X012620Y001902D02*
X013014Y001508D01*
X013014Y001341D01*
X012984Y001311D01*
X012620Y001902D02*
X010849Y001902D01*
X010514Y002237D01*
X010514Y002524D01*
X009569Y002579D02*
X009569Y003241D01*
X013723Y009678D02*
X013447Y009874D01*
X013408Y009874D01*
X013506Y009874D01*
X013801Y009874D01*
X013801Y009835D01*
X013723Y009678D01*
X013014Y010957D02*
X011931Y010957D01*
X011931Y011351D01*
X012243Y011663D01*
X012247Y011663D01*
X012339Y011755D01*
X012339Y011759D01*
X012423Y011843D01*
X012423Y012335D01*
X013014Y012335D01*
X013014Y010957D01*
X013014Y011063D02*
X011931Y011063D01*
X011931Y011278D02*
X013014Y011278D01*
X013014Y011493D02*
X012074Y011493D01*
X012292Y011708D02*
X013014Y011708D01*
X013014Y011923D02*
X012423Y011923D01*
X012423Y012138D02*
X013014Y012138D01*
X013309Y012138D02*
X014884Y012138D01*
X014884Y011923D02*
X013309Y011923D01*
X013309Y011708D02*
X014884Y011708D01*
X014884Y011548D02*
X013309Y011548D01*
X013309Y012434D01*
X013112Y012630D01*
X012522Y012630D01*
X012522Y013910D01*
X013014Y013910D01*
X013112Y013812D01*
X013112Y013333D01*
X013112Y013332D01*
X013112Y013123D01*
X013309Y012926D01*
X014408Y012926D01*
X014437Y012896D01*
X014536Y012855D01*
X014642Y012855D01*
X014740Y012896D01*
X014770Y012926D01*
X014884Y012926D01*
X014884Y011548D01*
X014884Y012353D02*
X013309Y012353D01*
X013174Y012569D02*
X014884Y012569D01*
X014884Y012784D02*
X012522Y012784D01*
X012522Y012999D02*
X013236Y012999D01*
X013112Y013214D02*
X012522Y013214D01*
X012522Y013429D02*
X013112Y013429D01*
X013112Y013644D02*
X012522Y013644D01*
X012601Y013516D02*
X012699Y013693D01*
X012699Y013713D01*
X012522Y013859D02*
X013065Y013859D01*
X013408Y013859D02*
X014195Y013859D01*
X014195Y014074D02*
X013342Y014074D01*
X013408Y014008D02*
X013211Y014205D01*
X012620Y014205D01*
X012128Y014697D01*
X012128Y015977D01*
X013050Y015977D01*
X013050Y015471D01*
X013063Y015458D01*
X013050Y015445D01*
X013050Y014802D01*
X013143Y014709D01*
X013297Y014709D01*
X013309Y014697D01*
X014027Y014697D01*
X014063Y014661D01*
X014132Y014661D01*
X014195Y014599D01*
X014195Y013516D01*
X013408Y013516D01*
X013408Y014008D01*
X013408Y013644D02*
X014195Y013644D01*
X014195Y014289D02*
X012536Y014289D01*
X012321Y014504D02*
X014195Y014504D01*
X014530Y014402D02*
X013112Y014402D01*
X012423Y015091D01*
X010809Y015091D01*
X010416Y014697D01*
X010337Y014619D01*
X010337Y014087D01*
X010416Y012729D02*
X010317Y012630D01*
X010061Y012630D01*
X009668Y012237D01*
X009471Y012237D01*
X009431Y012276D01*
X009372Y012276D01*
X009215Y012434D01*
X008979Y012434D01*
X008979Y012040D01*
X009274Y012040D02*
X009274Y012178D01*
X009372Y012276D01*
X012128Y014719D02*
X013133Y014719D01*
X013050Y014934D02*
X012128Y014934D01*
X012128Y015149D02*
X013050Y015149D01*
X013050Y015365D02*
X012128Y015365D01*
X012128Y015580D02*
X013050Y015580D01*
X013050Y015795D02*
X012128Y015795D01*
X012423Y015682D02*
X012423Y015091D01*
X013504Y015123D02*
X013735Y015123D01*
X014195Y015583D01*
X014589Y015583D01*
X014620Y015552D01*
X014813Y015552D01*
X014620Y015552D02*
X014620Y015026D01*
X014983Y015015D02*
X014983Y015288D01*
X014994Y015026D02*
X014983Y015015D01*
X014530Y014402D02*
X014884Y014048D01*
X014246Y015026D02*
X014032Y015026D01*
X013998Y014993D01*
X013703Y015780D02*
X013690Y015793D01*
X013504Y015793D01*
X013703Y015780D02*
X013703Y015977D01*
X013801Y016075D01*
X014620Y016089D02*
X014620Y016398D01*
X014609Y016410D01*
X016065Y015780D02*
X016203Y015642D01*
X016203Y015288D01*
X016164Y008831D02*
X016360Y008831D01*
X016203Y008792D02*
X016164Y008831D01*
X002483Y008871D02*
X002483Y008595D01*
X002483Y005445D02*
X002483Y004934D01*
X002483Y014599D02*
X002483Y014993D01*
X002404Y014993D01*
D41*
X002994Y011075D02*
X003250Y011075D01*
X003250Y008871D02*
X002994Y008871D01*
X001971Y007158D02*
X001734Y007158D01*
X001971Y007158D02*
X001971Y007138D01*
X002994Y007138D02*
X003250Y007138D01*
X003250Y004934D02*
X002994Y004934D01*
X001971Y004934D02*
X001715Y004934D01*
X001715Y003300D02*
X001971Y003300D01*
X002994Y003300D02*
X003250Y003300D01*
X003250Y001095D02*
X002994Y001095D01*
X001971Y001095D02*
X001715Y001095D01*
X001105Y008595D02*
X001105Y008851D01*
X001105Y009520D02*
X001105Y010308D01*
X011636Y004067D02*
X011636Y003871D01*
X011931Y003871D01*
X011931Y004067D01*
X011912Y004067D01*
X011636Y004067D01*
X014813Y015552D02*
X014845Y015583D01*
X015022Y015583D01*
X015219Y015780D01*
X016065Y015780D01*
D42*
X015534Y015327D02*
X015534Y015288D01*
X015534Y015327D02*
X015475Y015091D01*
X012817Y013910D02*
X012719Y013910D01*
X012620Y013811D01*
X012620Y013713D01*
X012817Y013910D01*
X014294Y011941D02*
X015671Y011941D01*
X015671Y010563D01*
X015179Y010563D01*
X015179Y011252D01*
X014983Y011449D01*
X014294Y011449D01*
X014294Y011941D01*
X014294Y011914D02*
X015671Y011914D01*
X015671Y011758D02*
X014294Y011758D01*
X014294Y011602D02*
X015671Y011602D01*
X015671Y011446D02*
X014986Y011446D01*
X015142Y011290D02*
X015671Y011290D01*
X015671Y011134D02*
X015179Y011134D01*
X015179Y010978D02*
X015671Y010978D01*
X015671Y010822D02*
X015179Y010822D01*
X015179Y010666D02*
X015671Y010666D01*
X013152Y007563D02*
X012850Y007261D01*
X012850Y007162D01*
X014225Y003654D02*
X014215Y003319D01*
X010317Y012040D02*
X010258Y012040D01*
X010357Y012138D01*
X010455Y012138D01*
X010357Y012237D01*
X010258Y012237D01*
X010258Y012040D01*
X010317Y012040D02*
X010416Y012138D01*
X001105Y005701D02*
X001203Y005445D01*
X001105Y005445D01*
D43*
X008880Y003575D02*
X009333Y003910D01*
X009569Y003910D01*
X010853Y004437D02*
X010868Y004422D01*
X010853Y004437D02*
X010853Y004497D01*
X011636Y003241D02*
X011656Y003241D01*
X011813Y003083D01*
D44*
X005238Y003280D02*
X004904Y002945D01*
X003841Y002945D01*
X003290Y002394D01*
X002778Y002394D01*
X002227Y002945D01*
X002227Y003300D01*
X002227Y003851D01*
X002246Y003871D01*
X002246Y004363D02*
X002227Y004382D01*
X002227Y004934D01*
X002227Y005583D01*
X002620Y005977D01*
X004904Y005977D01*
X005238Y005642D01*
X004904Y006095D02*
X002620Y006095D01*
X002227Y006489D01*
X002227Y007138D01*
X002227Y007689D01*
X002246Y007709D01*
X002246Y008201D02*
X002227Y008221D01*
X002227Y008871D01*
X002227Y009225D01*
X002483Y009481D01*
X003467Y009481D01*
X003821Y009126D01*
X004904Y009126D01*
X005238Y008792D01*
X004904Y009245D02*
X003939Y009245D01*
X003112Y010071D01*
X002404Y010071D01*
X002227Y010249D01*
X002227Y011075D01*
X002227Y011489D01*
X002384Y011646D01*
X003920Y011646D01*
X004254Y011311D01*
X004254Y010800D02*
X003762Y010800D01*
X003801Y010760D01*
X003762Y011311D02*
X003762Y011410D01*
X003664Y011508D01*
X002837Y011508D01*
X002738Y011410D01*
X002738Y011075D01*
X002738Y010701D01*
X003171Y010268D01*
X003565Y010268D01*
X004254Y009579D01*
X004904Y009245D02*
X005238Y009579D01*
X004254Y008792D02*
X003959Y008792D01*
X003408Y009343D01*
X002837Y009343D01*
X002738Y009245D01*
X002738Y008871D01*
X002738Y008280D01*
X002817Y008201D01*
X002817Y007709D02*
X002738Y007630D01*
X002738Y007138D01*
X002738Y006764D01*
X003073Y006430D01*
X004254Y006430D01*
X004904Y006095D02*
X005238Y006430D01*
X004254Y005642D02*
X003073Y005642D01*
X002738Y005308D01*
X002738Y004934D01*
X002738Y004382D01*
X002719Y004363D01*
X002719Y003871D02*
X002738Y003851D01*
X002738Y003300D01*
X002738Y002926D01*
X002975Y002689D01*
X003368Y002689D01*
X003959Y003280D01*
X004254Y003280D01*
X003939Y002827D02*
X002916Y001804D01*
X002483Y001804D01*
X002227Y001548D01*
X002227Y001095D01*
X002738Y001095D02*
X002738Y001469D01*
X002975Y001705D01*
X003467Y001705D01*
X004254Y002493D01*
X003939Y002827D02*
X004904Y002827D01*
X005238Y002493D01*
D45*
X002738Y003300D02*
X002738Y003575D01*
D46*
X003624Y000957D03*
M02*
