%
M48
M72
T01C0.0100
T02C0.0138
T03C0.0157
T04C0.0256
T05C0.0315
T06C0.0394
T07C0.0866
%
T01
X3614Y957
T02
X898Y1213
X1094Y1016
X2472Y1508
X2472Y3477
X1390Y4560
X1193Y5445
X2472Y5445
X2472Y6626
X3654Y8004
X2472Y8595
X1094Y8595
X2472Y10308
X3358Y12237
X3358Y12532
X3063Y12532
X3358Y12827
X3063Y13024
X4638Y13713
X4638Y14107
X4835Y14500
X5228Y14028
X5228Y13713
X6154Y15682
X7098Y15682
X7591Y15583
X8772Y16272
X9067Y16371
X8870Y15878
X7689Y13910
X7295Y13339
X8378Y13221
X8969Y12434
X8969Y12040
X9264Y12040
X8949Y11626
X8969Y11056
X8220Y11941
X7748Y11626
X7197Y9678
X6783Y9382
X6803Y8890
X6803Y8398
X6803Y7906
X6902Y7414
X6803Y6922
X7098Y6528
X7394Y6528
X7098Y5937
X7098Y5445
X7098Y4953
X7098Y4461
X7098Y3969
X7098Y3477
X8870Y3575
X9756Y4737
X10858Y4422
X11528Y4205
X11902Y4067
X12118Y3162
X11803Y3083
X10799Y5701
X10445Y5937
X9874Y5918
X9087Y6863
X8437Y7119
X7984Y6823
X8142Y6410
X9756Y7611
X9756Y8004
X10150Y8004
X10051Y8693
X10287Y9638
X10543Y9973
X11390Y11075
X12315Y10662
X12669Y10603
X12709Y11351
X12512Y11646
X12906Y11646
X13988Y11154
X14382Y11154
X14382Y10563
X13988Y10563
X13791Y9874
X13398Y9874
X12217Y9481
X12315Y8201
X11134Y8004
X11134Y7611
X12118Y6430
X11823Y6154
X14835Y5642
X15228Y5859
X15524Y5760
X15425Y5504
X16134Y5249
X16173Y5997
X15504Y4146
X14677Y3241
X16350Y8300
X16350Y8831
X16350Y9382
X16016Y10209
X15661Y10563
X15169Y10563
X15169Y11154
X15661Y11154
X14579Y9874
X12906Y12926
X12512Y12926
X12591Y13516
X12906Y13516
X12118Y13910
X11724Y13910
X11724Y13516
X11724Y13123
X11724Y12729
X10740Y15386
X10740Y15977
X11035Y15977
X13791Y16075
X14598Y16410
X14579Y15583
X14972Y15288
X15465Y15091
X13988Y14993
X14579Y13123
X6252Y9815
X6134Y10091
X4638Y10760
X5622Y7453
X1193Y3477
X4323Y16174
X4638Y16469
X4323Y16764
T03
X898Y15682
X898Y14500
X898Y13319
X898Y12138
X1094Y10308
X1409Y8083
X1409Y7217
X1094Y6626
X1409Y4934
X1409Y4146
X1409Y1784
X4323Y2020
X5602Y1607
X6055Y2178
X6803Y2886
X5760Y3871
X4717Y4855
X4717Y5642
X5819Y5642
X5740Y6430
X4677Y8359
X7374Y11508
X8181Y10760
X9362Y8595
X11626Y8497
X11331Y5682
X13024Y5091
X14205Y3319
T04
X13974Y1311
X13474Y1311
X12974Y1311
X12474Y1311
X11974Y1311
X11474Y1311
X10974Y1311
X10474Y1311
X9974Y1311
X9474Y1311
X9474Y17060
X9974Y17060
X10474Y17060
X10974Y17060
X11474Y17060
X11974Y17060
X12474Y17060
X12974Y17060
X13474Y17060
X13974Y17060
T05
X5228Y9579
X5228Y8792
X5228Y8004
X5228Y7217
X5228Y6430
X5228Y5642
X5228Y4855
X5228Y4067
X5228Y3280
X5228Y2493
X4244Y2493
X4244Y3280
X4244Y4067
X4244Y4855
X4244Y5642
X4244Y6430
X4244Y7217
X4244Y8004
X4244Y8792
X4244Y9579
X2472Y13123
X2472Y13910
X2472Y14697
X1685Y14697
X1685Y13910
X1685Y13123
T06
X9504Y2524
X10504Y2524
X11504Y2524
X12504Y2524
T07
X15661Y1311
X7787Y1311
X7787Y17060
X15661Y17060
M30
