%
M48
M72
T01C0.0100
T02C0.0138
T03C0.0157
T04C0.0256
T05C0.0315
T06C0.0394
T07C0.0866
%
T01
X3624Y957
T02
X908Y1213
X1105Y1016
X2483Y1508
X2483Y3477
X1400Y4560
X1203Y5445
X2483Y5445
X2483Y6626
X3664Y8004
X2483Y8595
X1105Y8595
X2483Y10308
X3368Y12237
X3368Y12532
X3073Y12532
X3368Y12827
X3073Y13024
X3860Y13713
X3860Y14107
X3467Y14500
X3467Y15386
X3467Y15682
X3467Y15977
X2483Y14599
X4451Y14107
X4451Y13713
X6813Y14894
X6813Y15288
X7601Y15583
X8782Y16272
X9077Y16371
X8880Y15878
X10750Y15977
X11046Y15977
X10750Y15386
X11734Y13910
X11734Y13516
X11734Y13123
X11734Y12729
X12522Y12926
X12916Y12926
X12916Y13516
X12601Y13516
X12128Y13910
X13801Y16075
X14609Y16410
X14589Y15583
X14983Y15288
X15475Y15091
X13998Y14993
X14589Y13123
X14392Y11154
X13998Y11154
X13998Y10563
X14392Y10563
X14589Y9874
X13801Y9874
X13408Y9874
X12679Y10603
X12325Y10662
X12719Y11351
X12522Y11646
X12916Y11646
X11400Y11075
X10553Y9973
X10297Y9638
X10061Y8693
X10160Y8004
X9766Y8004
X9766Y7611
X9097Y6863
X8447Y7119
X7994Y6823
X8152Y6410
X7404Y6528
X7109Y6528
X6813Y6922
X6912Y7414
X6813Y7906
X6813Y8398
X6813Y8890
X6794Y9382
X7207Y9678
X6262Y9815
X6144Y10091
X4648Y10760
X6912Y12729
X7896Y12729
X8388Y13221
X8979Y12434
X8979Y12040
X9274Y12040
X8959Y11626
X8979Y11056
X7758Y11626
X6912Y13910
X11144Y8004
X11144Y7611
X12325Y8201
X12227Y9481
X12128Y6430
X11833Y6154
X10809Y5701
X10455Y5937
X9884Y5918
X9766Y4737
X8880Y3575
X7109Y3477
X7109Y3969
X7109Y4461
X7109Y4953
X7109Y5445
X7109Y5937
X5632Y7453
X1203Y3477
X10868Y4422
X11538Y4205
X11912Y4067
X12128Y3162
X11813Y3083
X14687Y3241
X15514Y4146
X16144Y5249
X16183Y5997
X15534Y5760
X15435Y5504
X15238Y5859
X14845Y5642
X16360Y8300
X16360Y8831
X16360Y9382
X16026Y10209
X15671Y10563
X15179Y10563
X15179Y11154
X15671Y11154
T03
X11636Y8497
X9372Y8595
X8191Y10760
X7010Y11941
X4687Y8359
X5750Y6430
X5829Y5642
X4727Y5642
X4727Y4855
X5770Y3871
X6813Y2886
X6065Y2178
X5632Y1607
X4333Y2020
X1420Y1784
X1420Y4146
X1420Y4934
X1105Y6626
X1420Y7217
X1420Y8083
X1105Y10308
X908Y12138
X908Y13319
X908Y14500
X908Y15682
X11341Y5682
X14215Y3319
T04
X13984Y1311
X13484Y1311
X12984Y1311
X12484Y1311
X11984Y1311
X11484Y1311
X10984Y1311
X10484Y1311
X9984Y1311
X9484Y1311
X9484Y17060
X9984Y17060
X10484Y17060
X10984Y17060
X11484Y17060
X11984Y17060
X12484Y17060
X12984Y17060
X13484Y17060
X13984Y17060
T05
X5238Y9579
X5238Y8792
X5238Y8004
X5238Y7217
X5238Y6430
X5238Y5642
X5238Y4855
X5238Y4067
X5238Y3280
X5238Y2493
X4254Y2493
X4254Y3280
X4254Y4067
X4254Y4855
X4254Y5642
X4254Y6430
X4254Y7217
X4254Y8004
X4254Y8792
X4254Y9579
T06
X9514Y2524
X10514Y2524
X11514Y2524
X12514Y2524
T07
X15671Y1311
X7797Y1311
X7797Y17060
X15671Y17060
M30
