%
M48
M72
T01C0.0138
T02C0.0157
T03C0.0256
T04C0.0315
T05C0.0394
T06C0.0866
%
T01
X14681Y8595
X16059Y8595
X16059Y9776
X16846Y11449
X16846Y11745
X16846Y12040
X16846Y12532
X16846Y12926
X17437Y13713
X17437Y14107
X17043Y14500
X16452Y14205
X17043Y15386
X17043Y15682
X17043Y15977
X18027Y14107
X18027Y13713
X20488Y13910
X20389Y14894
X20389Y15288
X21177Y15583
X22456Y15878
X22358Y16272
X22653Y16371
X24326Y15977
X24622Y15977
X24326Y15386
X25311Y13910
X25311Y13516
X25311Y13123
X25311Y12729
X26098Y12926
X26492Y12926
X26492Y13516
X26177Y13516
X25704Y13910
X27574Y14993
X28165Y15583
X28559Y15288
X29051Y15091
X28185Y16410
X27377Y16075
X28165Y13123
X26492Y11646
X26295Y11351
X26098Y11646
X25901Y10662
X26255Y10603
X26984Y9874
X27377Y9874
X27574Y10563
X27968Y10563
X27968Y11154
X27574Y11154
X28755Y11154
X29248Y11154
X29248Y10563
X28755Y10563
X29602Y10209
X29937Y9382
X29937Y8831
X29937Y8300
X28165Y9874
X25901Y8497
X24720Y8004
X24720Y7611
X24326Y6311
X24031Y5937
X23460Y5918
X24385Y5701
X25114Y6154
X25409Y6154
X25704Y6430
X24444Y4422
X25114Y4205
X25488Y4067
X25704Y3162
X25389Y3083
X23342Y4737
X22456Y3575
X20685Y3477
X20685Y3969
X20685Y4461
X20685Y4953
X20685Y5445
X20685Y5937
X20685Y6528
X20980Y6528
X20389Y6922
X20488Y7414
X20389Y7906
X20389Y8398
X20389Y8890
X20370Y9382
X20783Y9678
X19838Y9815
X19720Y10091
X21669Y11154
X22555Y12040
X22850Y12040
X22555Y12434
X21964Y13221
X21472Y12729
X20488Y12729
X23874Y9737
X24129Y9973
X24976Y11075
X23637Y8693
X23342Y8004
X23342Y7611
X22673Y6863
X21728Y6410
X19208Y7453
X16059Y3477
X14779Y3477
X14779Y2296
X14779Y5445
X28342Y5839
X28559Y5642
X28854Y5544
X28952Y5839
X28657Y5937
X29444Y5839
X29248Y5249
X29681Y3634
X28263Y3241
T02
X14681Y6626
X14996Y7217
X14996Y8083
X14681Y9776
X14484Y12138
X14484Y13319
X14484Y14500
X14484Y15682
X20586Y11941
X22161Y10662
X22948Y8595
X24425Y8890
X26000Y9481
X24917Y5682
X27791Y3319
X21866Y7119
X19405Y5642
X19326Y6430
X18303Y5642
X18303Y4855
X19346Y3871
X20389Y2886
X19641Y2178
X19208Y1607
X17909Y2020
X14996Y1784
X14996Y4146
X14996Y4934
X18263Y8359
T03
X23061Y1311
X23561Y1311
X24061Y1311
X24561Y1311
X25061Y1311
X25561Y1311
X26061Y1311
X26561Y1311
X27061Y1311
X27561Y1311
X27561Y17060
X27061Y17060
X26561Y17060
X26061Y17060
X25561Y17060
X25061Y17060
X24561Y17060
X24061Y17060
X23561Y17060
X23061Y17060
T04
X18814Y9579
X18814Y8792
X18814Y8004
X18814Y7217
X18814Y6430
X18814Y5642
X18814Y4855
X18814Y4067
X18814Y3280
X18814Y2493
X17830Y2493
X17830Y3280
X17830Y4067
X17830Y4855
X17830Y5642
X17830Y6430
X17830Y7217
X17830Y8004
X17830Y8792
X17830Y9579
T05
X23090Y2524
X24090Y2524
X25090Y2524
X26090Y2524
T06
X29248Y1311
X21374Y1311
X21374Y17060
X29248Y17060
M30
