G75*
G70*
%OFA0B0*%
%FSLAX24Y24*%
%IPPOS*%
%LPD*%
%AMOC8*
5,1,8,0,0,1.08239X$1,22.5*
%
%ADD10C,0.0000*%
%ADD11C,0.0472*%
%ADD12C,0.0384*%
%ADD13C,0.0218*%
%ADD14C,0.0237*%
%ADD15C,0.0098*%
%ADD16C,0.0079*%
%ADD17C,0.0591*%
%ADD18C,0.0197*%
%ADD19C,0.0157*%
%ADD20C,0.0180*%
D10*
X000504Y000524D02*
X000504Y017847D01*
X016646Y017847D01*
X016646Y000524D01*
X000504Y000524D01*
X007354Y001311D02*
X007356Y001352D01*
X007362Y001393D01*
X007372Y001433D01*
X007385Y001472D01*
X007402Y001509D01*
X007423Y001545D01*
X007447Y001579D01*
X007474Y001610D01*
X007503Y001638D01*
X007536Y001664D01*
X007570Y001686D01*
X007607Y001705D01*
X007645Y001720D01*
X007685Y001732D01*
X007725Y001740D01*
X007766Y001744D01*
X007808Y001744D01*
X007849Y001740D01*
X007889Y001732D01*
X007929Y001720D01*
X007967Y001705D01*
X008003Y001686D01*
X008038Y001664D01*
X008071Y001638D01*
X008100Y001610D01*
X008127Y001579D01*
X008151Y001545D01*
X008172Y001509D01*
X008189Y001472D01*
X008202Y001433D01*
X008212Y001393D01*
X008218Y001352D01*
X008220Y001311D01*
X008218Y001270D01*
X008212Y001229D01*
X008202Y001189D01*
X008189Y001150D01*
X008172Y001113D01*
X008151Y001077D01*
X008127Y001043D01*
X008100Y001012D01*
X008071Y000984D01*
X008038Y000958D01*
X008004Y000936D01*
X007967Y000917D01*
X007929Y000902D01*
X007889Y000890D01*
X007849Y000882D01*
X007808Y000878D01*
X007766Y000878D01*
X007725Y000882D01*
X007685Y000890D01*
X007645Y000902D01*
X007607Y000917D01*
X007571Y000936D01*
X007536Y000958D01*
X007503Y000984D01*
X007474Y001012D01*
X007447Y001043D01*
X007423Y001077D01*
X007402Y001113D01*
X007385Y001150D01*
X007372Y001189D01*
X007362Y001229D01*
X007356Y001270D01*
X007354Y001311D01*
X015228Y001311D02*
X015230Y001352D01*
X015236Y001393D01*
X015246Y001433D01*
X015259Y001472D01*
X015276Y001509D01*
X015297Y001545D01*
X015321Y001579D01*
X015348Y001610D01*
X015377Y001638D01*
X015410Y001664D01*
X015444Y001686D01*
X015481Y001705D01*
X015519Y001720D01*
X015559Y001732D01*
X015599Y001740D01*
X015640Y001744D01*
X015682Y001744D01*
X015723Y001740D01*
X015763Y001732D01*
X015803Y001720D01*
X015841Y001705D01*
X015877Y001686D01*
X015912Y001664D01*
X015945Y001638D01*
X015974Y001610D01*
X016001Y001579D01*
X016025Y001545D01*
X016046Y001509D01*
X016063Y001472D01*
X016076Y001433D01*
X016086Y001393D01*
X016092Y001352D01*
X016094Y001311D01*
X016092Y001270D01*
X016086Y001229D01*
X016076Y001189D01*
X016063Y001150D01*
X016046Y001113D01*
X016025Y001077D01*
X016001Y001043D01*
X015974Y001012D01*
X015945Y000984D01*
X015912Y000958D01*
X015878Y000936D01*
X015841Y000917D01*
X015803Y000902D01*
X015763Y000890D01*
X015723Y000882D01*
X015682Y000878D01*
X015640Y000878D01*
X015599Y000882D01*
X015559Y000890D01*
X015519Y000902D01*
X015481Y000917D01*
X015445Y000936D01*
X015410Y000958D01*
X015377Y000984D01*
X015348Y001012D01*
X015321Y001043D01*
X015297Y001077D01*
X015276Y001113D01*
X015259Y001150D01*
X015246Y001189D01*
X015236Y001229D01*
X015230Y001270D01*
X015228Y001311D01*
X015228Y017060D02*
X015230Y017101D01*
X015236Y017142D01*
X015246Y017182D01*
X015259Y017221D01*
X015276Y017258D01*
X015297Y017294D01*
X015321Y017328D01*
X015348Y017359D01*
X015377Y017387D01*
X015410Y017413D01*
X015444Y017435D01*
X015481Y017454D01*
X015519Y017469D01*
X015559Y017481D01*
X015599Y017489D01*
X015640Y017493D01*
X015682Y017493D01*
X015723Y017489D01*
X015763Y017481D01*
X015803Y017469D01*
X015841Y017454D01*
X015877Y017435D01*
X015912Y017413D01*
X015945Y017387D01*
X015974Y017359D01*
X016001Y017328D01*
X016025Y017294D01*
X016046Y017258D01*
X016063Y017221D01*
X016076Y017182D01*
X016086Y017142D01*
X016092Y017101D01*
X016094Y017060D01*
X016092Y017019D01*
X016086Y016978D01*
X016076Y016938D01*
X016063Y016899D01*
X016046Y016862D01*
X016025Y016826D01*
X016001Y016792D01*
X015974Y016761D01*
X015945Y016733D01*
X015912Y016707D01*
X015878Y016685D01*
X015841Y016666D01*
X015803Y016651D01*
X015763Y016639D01*
X015723Y016631D01*
X015682Y016627D01*
X015640Y016627D01*
X015599Y016631D01*
X015559Y016639D01*
X015519Y016651D01*
X015481Y016666D01*
X015445Y016685D01*
X015410Y016707D01*
X015377Y016733D01*
X015348Y016761D01*
X015321Y016792D01*
X015297Y016826D01*
X015276Y016862D01*
X015259Y016899D01*
X015246Y016938D01*
X015236Y016978D01*
X015230Y017019D01*
X015228Y017060D01*
X007354Y017060D02*
X007356Y017101D01*
X007362Y017142D01*
X007372Y017182D01*
X007385Y017221D01*
X007402Y017258D01*
X007423Y017294D01*
X007447Y017328D01*
X007474Y017359D01*
X007503Y017387D01*
X007536Y017413D01*
X007570Y017435D01*
X007607Y017454D01*
X007645Y017469D01*
X007685Y017481D01*
X007725Y017489D01*
X007766Y017493D01*
X007808Y017493D01*
X007849Y017489D01*
X007889Y017481D01*
X007929Y017469D01*
X007967Y017454D01*
X008003Y017435D01*
X008038Y017413D01*
X008071Y017387D01*
X008100Y017359D01*
X008127Y017328D01*
X008151Y017294D01*
X008172Y017258D01*
X008189Y017221D01*
X008202Y017182D01*
X008212Y017142D01*
X008218Y017101D01*
X008220Y017060D01*
X008218Y017019D01*
X008212Y016978D01*
X008202Y016938D01*
X008189Y016899D01*
X008172Y016862D01*
X008151Y016826D01*
X008127Y016792D01*
X008100Y016761D01*
X008071Y016733D01*
X008038Y016707D01*
X008004Y016685D01*
X007967Y016666D01*
X007929Y016651D01*
X007889Y016639D01*
X007849Y016631D01*
X007808Y016627D01*
X007766Y016627D01*
X007725Y016631D01*
X007685Y016639D01*
X007645Y016651D01*
X007607Y016666D01*
X007571Y016685D01*
X007536Y016707D01*
X007503Y016733D01*
X007474Y016761D01*
X007447Y016792D01*
X007423Y016826D01*
X007402Y016862D01*
X007385Y016899D01*
X007372Y016938D01*
X007362Y016978D01*
X007356Y017019D01*
X007354Y017060D01*
D11*
X002472Y014697D03*
X002472Y013910D03*
X001685Y013910D03*
X001685Y014697D03*
X001685Y013123D03*
X002472Y013123D03*
X004244Y009579D03*
X004244Y008792D03*
X004244Y008004D03*
X004244Y007217D03*
X004244Y006430D03*
X004244Y005642D03*
X004244Y004855D03*
X004244Y004067D03*
X004244Y003280D03*
X004244Y002493D03*
X005228Y002493D03*
X005228Y003280D03*
X005228Y004067D03*
X005228Y004855D03*
X005228Y005642D03*
X005228Y006430D03*
X005228Y007217D03*
X005228Y008004D03*
X005228Y008792D03*
X005228Y009579D03*
D12*
X009474Y017060D03*
X009974Y017060D03*
X010474Y017060D03*
X010974Y017060D03*
X011474Y017060D03*
X011974Y017060D03*
X012474Y017060D03*
X012974Y017060D03*
X013474Y017060D03*
X013974Y017060D03*
X013974Y001311D03*
X013474Y001311D03*
X012974Y001311D03*
X012474Y001311D03*
X011974Y001311D03*
X011474Y001311D03*
X010974Y001311D03*
X010474Y001311D03*
X009974Y001311D03*
X009474Y001311D03*
D13*
X008870Y003575D03*
X009756Y004737D03*
X010858Y004422D03*
X011528Y004205D03*
X011902Y004067D03*
X012118Y003162D03*
X011803Y003083D03*
X010799Y005701D03*
X010445Y005937D03*
X009874Y005918D03*
X009087Y006863D03*
X008437Y007119D03*
X007984Y006823D03*
X008142Y006410D03*
X007394Y006528D03*
X007098Y006528D03*
X006803Y006922D03*
X006902Y007414D03*
X006803Y007906D03*
X006803Y008398D03*
X006803Y008890D03*
X006783Y009382D03*
X007197Y009678D03*
X006252Y009815D03*
X006134Y010091D03*
X004638Y010760D03*
X003358Y012237D03*
X003358Y012532D03*
X003063Y012532D03*
X003358Y012827D03*
X003063Y013024D03*
X004638Y013713D03*
X004638Y014107D03*
X004835Y014500D03*
X005228Y014028D03*
X005228Y013713D03*
X006154Y015682D03*
X007098Y015682D03*
X007591Y015583D03*
X008772Y016272D03*
X009067Y016371D03*
X008870Y015878D03*
X007689Y013910D03*
X007295Y013339D03*
X008378Y013221D03*
X008969Y012434D03*
X008969Y012040D03*
X009264Y012040D03*
X008949Y011626D03*
X008969Y011056D03*
X008220Y011941D03*
X007748Y011626D03*
X010051Y008693D03*
X010150Y008004D03*
X009756Y008004D03*
X009756Y007611D03*
X011134Y007611D03*
X011134Y008004D03*
X012315Y008201D03*
X012217Y009481D03*
X012315Y010662D03*
X012669Y010603D03*
X012709Y011351D03*
X012512Y011646D03*
X012906Y011646D03*
X013988Y011154D03*
X014382Y011154D03*
X014382Y010563D03*
X013988Y010563D03*
X013791Y009874D03*
X013398Y009874D03*
X014579Y009874D03*
X015169Y010563D03*
X015661Y010563D03*
X016016Y010209D03*
X016350Y009382D03*
X016350Y008831D03*
X016350Y008300D03*
X016173Y005997D03*
X015524Y005760D03*
X015425Y005504D03*
X015228Y005859D03*
X014835Y005642D03*
X015504Y004146D03*
X014677Y003241D03*
X016134Y005249D03*
X012118Y006430D03*
X011823Y006154D03*
X010287Y009638D03*
X010543Y009973D03*
X011390Y011075D03*
X011724Y012729D03*
X011724Y013123D03*
X011724Y013516D03*
X011724Y013910D03*
X012118Y013910D03*
X012591Y013516D03*
X012906Y013516D03*
X012906Y012926D03*
X012512Y012926D03*
X013988Y014993D03*
X014579Y015583D03*
X014972Y015288D03*
X015465Y015091D03*
X014598Y016410D03*
X013791Y016075D03*
X014579Y013123D03*
X015169Y011154D03*
X015661Y011154D03*
X011035Y015977D03*
X010740Y015977D03*
X010740Y015386D03*
X004638Y016469D03*
X004323Y016764D03*
X004323Y016174D03*
X002472Y010308D03*
X002472Y008595D03*
X003654Y008004D03*
X002472Y006626D03*
X002472Y005445D03*
X001390Y004560D03*
X001193Y005445D03*
X001193Y003477D03*
X002472Y003477D03*
X002472Y001508D03*
X001094Y001016D03*
X000898Y001213D03*
X005622Y007453D03*
X007098Y005937D03*
X007098Y005445D03*
X007098Y004953D03*
X007098Y004461D03*
X007098Y003969D03*
X007098Y003477D03*
X001094Y008595D03*
D14*
X001409Y008083D03*
X001409Y007217D03*
X001094Y006626D03*
X001409Y004934D03*
X001409Y004146D03*
X001409Y001784D03*
X004323Y002020D03*
X005602Y001607D03*
X006055Y002178D03*
X006803Y002886D03*
X005760Y003871D03*
X004717Y004855D03*
X004717Y005642D03*
X005819Y005642D03*
X005740Y006430D03*
X004677Y008359D03*
X007374Y011508D03*
X008181Y010760D03*
X009362Y008595D03*
X011626Y008497D03*
X011331Y005682D03*
X013024Y005091D03*
X014205Y003319D03*
X001094Y010308D03*
X000898Y012138D03*
X000898Y013319D03*
X000898Y014500D03*
X000898Y015682D03*
D15*
X000703Y015651D02*
X001094Y015651D01*
X001094Y015554D02*
X000703Y015554D01*
X000703Y015457D02*
X001094Y015457D01*
X001094Y015360D02*
X000703Y015360D01*
X000703Y015263D02*
X001094Y015263D01*
X001094Y015166D02*
X000703Y015166D01*
X000703Y015069D02*
X001094Y015069D01*
X001094Y014972D02*
X000703Y014972D01*
X000703Y014875D02*
X001094Y014875D01*
X001094Y014778D02*
X000703Y014778D01*
X000703Y014681D02*
X001094Y014681D01*
X001094Y014585D02*
X000703Y014585D01*
X000703Y014488D02*
X001094Y014488D01*
X001094Y014391D02*
X000703Y014391D01*
X000703Y014294D02*
X001094Y014294D01*
X001094Y014197D02*
X000703Y014197D01*
X000703Y014100D02*
X001094Y014100D01*
X001094Y014003D02*
X000703Y014003D01*
X000703Y013906D02*
X001094Y013906D01*
X001094Y013809D02*
X000703Y013809D01*
X000703Y013712D02*
X001094Y013712D01*
X001094Y013615D02*
X000703Y013615D01*
X000703Y013518D02*
X001094Y013518D01*
X001094Y013421D02*
X000703Y013421D01*
X000703Y013324D02*
X001094Y013324D01*
X001094Y013227D02*
X000703Y013227D01*
X000703Y013130D02*
X001094Y013130D01*
X001094Y013033D02*
X000703Y013033D01*
X000703Y012936D02*
X001094Y012936D01*
X001094Y012839D02*
X000703Y012839D01*
X000703Y012742D02*
X001094Y012742D01*
X001094Y012645D02*
X000703Y012645D01*
X000703Y012548D02*
X001094Y012548D01*
X001094Y012451D02*
X000703Y012451D01*
X000703Y012354D02*
X001094Y012354D01*
X001094Y012257D02*
X000703Y012257D01*
X000703Y012160D02*
X001094Y012160D01*
X001094Y012063D02*
X000703Y012063D01*
X000703Y011966D02*
X001094Y011966D01*
X001094Y011869D02*
X000703Y011869D01*
X000703Y011772D02*
X001094Y011772D01*
X001094Y011675D02*
X000703Y011675D01*
X000703Y011579D02*
X001094Y011579D01*
X001094Y011482D02*
X000703Y011482D01*
X000703Y011385D02*
X001094Y011385D01*
X001094Y011288D02*
X000703Y011288D01*
X000703Y011191D02*
X001094Y011191D01*
X001094Y011094D02*
X000703Y011094D01*
X000703Y010997D02*
X001094Y010997D01*
X001094Y010900D02*
X000703Y010900D01*
X000703Y010803D02*
X001094Y010803D01*
X001094Y010706D02*
X000703Y010706D01*
X000703Y010609D02*
X001094Y010609D01*
X001094Y010525D02*
X001004Y010525D01*
X000877Y010398D01*
X000877Y010217D01*
X000939Y010155D01*
X001094Y009720D01*
X001094Y008803D01*
X001008Y008803D01*
X000886Y008681D01*
X000886Y008509D01*
X001004Y008391D01*
X000897Y008283D01*
X000897Y006737D01*
X000877Y006717D01*
X000877Y006536D01*
X000703Y006536D01*
X000703Y006439D02*
X000974Y006439D01*
X001004Y006409D02*
X001094Y006409D01*
X001094Y005641D01*
X000985Y005532D01*
X000985Y005359D01*
X001094Y005249D01*
X001094Y003673D01*
X000985Y003563D01*
X000985Y003391D01*
X001094Y003281D01*
X001094Y002493D01*
X003062Y002493D01*
X003062Y002485D01*
X003062Y002411D01*
X003068Y002405D01*
X003069Y002396D01*
X003126Y002347D01*
X003178Y002295D01*
X003187Y002295D01*
X004504Y001166D01*
X004556Y001114D01*
X004565Y001114D01*
X004571Y001108D01*
X004646Y001114D01*
X005905Y001114D01*
X005975Y001106D01*
X005986Y001114D01*
X005999Y001114D01*
X006049Y001163D01*
X007364Y002197D01*
X008591Y002197D01*
X008968Y001820D01*
X009083Y001704D01*
X009556Y001704D01*
X009720Y001704D01*
X010094Y002078D01*
X010209Y002194D01*
X010209Y002261D01*
X010280Y002190D01*
X010425Y002130D01*
X010582Y002130D01*
X010727Y002190D01*
X010838Y002301D01*
X010898Y002446D01*
X010898Y002493D01*
X010937Y002493D01*
X011853Y001576D01*
X011809Y001558D01*
X011728Y001476D01*
X011724Y001469D01*
X011721Y001476D01*
X011639Y001558D01*
X011532Y001603D01*
X011416Y001603D01*
X011309Y001558D01*
X011228Y001476D01*
X011224Y001469D01*
X011221Y001476D01*
X011139Y001558D01*
X011032Y001603D01*
X010916Y001603D01*
X010809Y001558D01*
X010728Y001476D01*
X010724Y001469D01*
X010721Y001476D01*
X010639Y001558D01*
X010532Y001603D01*
X010416Y001603D01*
X010309Y001558D01*
X010256Y001504D01*
X010239Y001529D01*
X010192Y001576D01*
X010136Y001614D01*
X010074Y001639D01*
X010008Y001653D01*
X009989Y001653D01*
X009989Y001326D01*
X009960Y001326D01*
X009960Y001653D01*
X009941Y001653D01*
X009875Y001639D01*
X009813Y001614D01*
X009757Y001576D01*
X009709Y001529D01*
X009693Y001504D01*
X009639Y001558D01*
X009532Y001603D01*
X009416Y001603D01*
X009309Y001558D01*
X009228Y001476D01*
X009183Y001369D01*
X009183Y001254D01*
X009228Y001147D01*
X009309Y001065D01*
X009416Y001020D01*
X009532Y001020D01*
X009639Y001065D01*
X009693Y001119D01*
X009709Y001094D01*
X009757Y001046D01*
X009813Y001009D01*
X009875Y000983D01*
X009941Y000970D01*
X009960Y000970D01*
X009960Y001296D01*
X009989Y001296D01*
X009989Y000970D01*
X010008Y000970D01*
X010074Y000983D01*
X010136Y001009D01*
X010192Y001046D01*
X010239Y001094D01*
X010256Y001119D01*
X010309Y001065D01*
X010416Y001020D01*
X010532Y001020D01*
X010639Y001065D01*
X010721Y001147D01*
X010724Y001154D01*
X010728Y001147D01*
X010809Y001065D01*
X010916Y001020D01*
X011032Y001020D01*
X011139Y001065D01*
X011221Y001147D01*
X011224Y001154D01*
X011228Y001147D01*
X011309Y001065D01*
X011416Y001020D01*
X011532Y001020D01*
X011639Y001065D01*
X011721Y001147D01*
X011724Y001154D01*
X011728Y001147D01*
X011809Y001065D01*
X011916Y001020D01*
X012032Y001020D01*
X012139Y001065D01*
X012221Y001147D01*
X012224Y001154D01*
X012228Y001147D01*
X012309Y001065D01*
X012416Y001020D01*
X012532Y001020D01*
X012639Y001065D01*
X012689Y001115D01*
X012709Y001115D01*
X012734Y001140D01*
X012809Y001065D01*
X012916Y001020D01*
X013032Y001020D01*
X013139Y001065D01*
X013221Y001147D01*
X013224Y001154D01*
X013228Y001147D01*
X013309Y001065D01*
X013416Y001020D01*
X013532Y001020D01*
X013639Y001065D01*
X013721Y001147D01*
X013724Y001154D01*
X013728Y001147D01*
X013809Y001065D01*
X013916Y001020D01*
X014032Y001020D01*
X014139Y001065D01*
X014221Y001147D01*
X014266Y001254D01*
X014266Y001369D01*
X014221Y001476D01*
X014139Y001558D01*
X014032Y001603D01*
X013916Y001603D01*
X013809Y001558D01*
X013728Y001476D01*
X013724Y001469D01*
X013721Y001476D01*
X013639Y001558D01*
X013532Y001603D01*
X013416Y001603D01*
X013309Y001558D01*
X013228Y001476D01*
X013224Y001469D01*
X013221Y001476D01*
X013182Y001516D01*
X013182Y001588D01*
X014087Y002493D01*
X016446Y002493D01*
X016446Y000723D01*
X015893Y000723D01*
X016020Y000775D01*
X016197Y000953D01*
X016294Y001186D01*
X016294Y001437D01*
X016197Y001670D01*
X016020Y001847D01*
X015787Y001944D01*
X015536Y001944D01*
X015303Y001847D01*
X015125Y001670D01*
X015029Y001437D01*
X015029Y001186D01*
X015125Y000953D01*
X015303Y000775D01*
X015429Y000723D01*
X008019Y000723D01*
X008146Y000775D01*
X008323Y000953D01*
X008420Y001186D01*
X008420Y001437D01*
X008323Y001670D01*
X008146Y001847D01*
X007913Y001944D01*
X007662Y001944D01*
X007429Y001847D01*
X007251Y001670D01*
X007155Y001437D01*
X007155Y001186D01*
X007251Y000953D01*
X007429Y000775D01*
X007555Y000723D01*
X000703Y000723D01*
X000703Y001113D01*
X000811Y001005D01*
X000886Y001005D01*
X000886Y000930D01*
X001008Y000808D01*
X001181Y000808D01*
X001303Y000930D01*
X001303Y001102D01*
X001181Y001224D01*
X001106Y001224D01*
X001106Y001299D01*
X000984Y001421D01*
X000811Y001421D01*
X000703Y001313D01*
X000703Y016863D01*
X001094Y016863D01*
X001094Y010525D01*
X000991Y010512D02*
X000703Y010512D01*
X000703Y010415D02*
X000894Y010415D01*
X000877Y010318D02*
X000703Y010318D01*
X000703Y010221D02*
X000877Y010221D01*
X000950Y010124D02*
X000703Y010124D01*
X000703Y010027D02*
X000985Y010027D01*
X001019Y009930D02*
X000703Y009930D01*
X000703Y009833D02*
X001054Y009833D01*
X001089Y009736D02*
X000703Y009736D01*
X000703Y009639D02*
X001094Y009639D01*
X001094Y009542D02*
X000703Y009542D01*
X000703Y009445D02*
X001094Y009445D01*
X001094Y009348D02*
X000703Y009348D01*
X000703Y009251D02*
X001094Y009251D01*
X001094Y009154D02*
X000703Y009154D01*
X000703Y009057D02*
X001094Y009057D01*
X001094Y008960D02*
X000703Y008960D01*
X000703Y008863D02*
X001094Y008863D01*
X000972Y008766D02*
X000703Y008766D01*
X000703Y008669D02*
X000886Y008669D01*
X000886Y008572D02*
X000703Y008572D01*
X000703Y008476D02*
X000920Y008476D01*
X000992Y008379D02*
X000703Y008379D01*
X000703Y008282D02*
X000897Y008282D01*
X000897Y008185D02*
X000703Y008185D01*
X000703Y008088D02*
X000897Y008088D01*
X000897Y007991D02*
X000703Y007991D01*
X000703Y007894D02*
X000897Y007894D01*
X000897Y007797D02*
X000703Y007797D01*
X000703Y007700D02*
X000897Y007700D01*
X000897Y007603D02*
X000703Y007603D01*
X000703Y007506D02*
X000897Y007506D01*
X000897Y007409D02*
X000703Y007409D01*
X000703Y007312D02*
X000897Y007312D01*
X000897Y007215D02*
X000703Y007215D01*
X000703Y007118D02*
X000897Y007118D01*
X000897Y007021D02*
X000703Y007021D01*
X000703Y006924D02*
X000897Y006924D01*
X000897Y006827D02*
X000703Y006827D01*
X000703Y006730D02*
X000890Y006730D01*
X000877Y006633D02*
X000703Y006633D01*
X000877Y006536D02*
X001004Y006409D01*
X001094Y006342D02*
X000703Y006342D01*
X000703Y006245D02*
X001094Y006245D01*
X001094Y006148D02*
X000703Y006148D01*
X000703Y006051D02*
X001094Y006051D01*
X001094Y005954D02*
X000703Y005954D01*
X000703Y005857D02*
X001094Y005857D01*
X001094Y005760D02*
X000703Y005760D01*
X000703Y005663D02*
X001094Y005663D01*
X001020Y005566D02*
X000703Y005566D01*
X000703Y005469D02*
X000985Y005469D01*
X000985Y005373D02*
X000703Y005373D01*
X000703Y005276D02*
X001068Y005276D01*
X001094Y005179D02*
X000703Y005179D01*
X000703Y005082D02*
X001094Y005082D01*
X001094Y004985D02*
X000703Y004985D01*
X000703Y004888D02*
X001094Y004888D01*
X001094Y004791D02*
X000703Y004791D01*
X000703Y004694D02*
X001094Y004694D01*
X001094Y004597D02*
X000703Y004597D01*
X000703Y004500D02*
X001094Y004500D01*
X001094Y004403D02*
X000703Y004403D01*
X000703Y004306D02*
X001094Y004306D01*
X001094Y004209D02*
X000703Y004209D01*
X000703Y004112D02*
X001094Y004112D01*
X001094Y004015D02*
X000703Y004015D01*
X000703Y003918D02*
X001094Y003918D01*
X001094Y003821D02*
X000703Y003821D01*
X000703Y003724D02*
X001094Y003724D01*
X001049Y003627D02*
X000703Y003627D01*
X000703Y003530D02*
X000985Y003530D01*
X000985Y003433D02*
X000703Y003433D01*
X000703Y003336D02*
X001039Y003336D01*
X001094Y003239D02*
X000703Y003239D01*
X000703Y003142D02*
X001094Y003142D01*
X001094Y003045D02*
X000703Y003045D01*
X000703Y002948D02*
X001094Y002948D01*
X001094Y002851D02*
X000703Y002851D01*
X000703Y002754D02*
X001094Y002754D01*
X001094Y002657D02*
X000703Y002657D01*
X000703Y002560D02*
X001094Y002560D01*
X000703Y002463D02*
X003062Y002463D01*
X003103Y002366D02*
X000703Y002366D01*
X000703Y002270D02*
X003216Y002270D01*
X003329Y002173D02*
X000703Y002173D01*
X000703Y002076D02*
X003443Y002076D01*
X003556Y001979D02*
X001523Y001979D01*
X001500Y002002D02*
X001319Y002002D01*
X001191Y001874D01*
X001191Y001694D01*
X001319Y001566D01*
X001500Y001566D01*
X001627Y001694D01*
X001627Y001874D01*
X001500Y002002D01*
X001620Y001882D02*
X003669Y001882D01*
X003782Y001785D02*
X001627Y001785D01*
X001621Y001688D02*
X002358Y001688D01*
X002386Y001716D02*
X002264Y001595D01*
X002264Y001422D01*
X002386Y001300D01*
X002559Y001300D01*
X002681Y001422D01*
X002681Y001595D01*
X002559Y001716D01*
X002386Y001716D01*
X002264Y001591D02*
X001524Y001591D01*
X001294Y001591D02*
X000703Y001591D01*
X000703Y001688D02*
X001197Y001688D01*
X001191Y001785D02*
X000703Y001785D01*
X000703Y001882D02*
X001199Y001882D01*
X001296Y001979D02*
X000703Y001979D01*
X000703Y001494D02*
X002264Y001494D01*
X002290Y001397D02*
X001008Y001397D01*
X001105Y001300D02*
X004348Y001300D01*
X004461Y001203D02*
X001202Y001203D01*
X001299Y001106D02*
X003495Y001106D01*
X003536Y001146D02*
X003425Y001036D01*
X003425Y000879D01*
X003536Y000768D01*
X003693Y000768D01*
X003803Y000879D01*
X003803Y001036D01*
X003693Y001146D01*
X003536Y001146D01*
X003425Y001009D02*
X001303Y001009D01*
X001285Y000912D02*
X003425Y000912D01*
X003489Y000815D02*
X001188Y000815D01*
X001001Y000815D02*
X000703Y000815D01*
X000703Y000912D02*
X000904Y000912D01*
X000807Y001009D02*
X000703Y001009D01*
X000703Y001106D02*
X000710Y001106D01*
X000703Y001397D02*
X000787Y001397D01*
X002587Y001688D02*
X003895Y001688D01*
X004008Y001591D02*
X002681Y001591D01*
X002681Y001494D02*
X004121Y001494D01*
X004235Y001397D02*
X002655Y001397D01*
X003733Y001106D02*
X005972Y001106D01*
X005976Y001106D02*
X007188Y001106D01*
X007155Y001203D02*
X006099Y001203D01*
X006222Y001300D02*
X007155Y001300D01*
X007155Y001397D02*
X006346Y001397D01*
X006469Y001494D02*
X007179Y001494D01*
X007219Y001591D02*
X006593Y001591D01*
X006716Y001688D02*
X007269Y001688D01*
X007366Y001785D02*
X006839Y001785D01*
X006963Y001882D02*
X007512Y001882D01*
X007333Y002173D02*
X008615Y002173D01*
X008712Y002076D02*
X007210Y002076D01*
X007086Y001979D02*
X008809Y001979D01*
X008906Y001882D02*
X008063Y001882D01*
X008208Y001785D02*
X009003Y001785D01*
X009245Y001494D02*
X008396Y001494D01*
X008420Y001397D02*
X009195Y001397D01*
X009183Y001300D02*
X008420Y001300D01*
X008420Y001203D02*
X009204Y001203D01*
X009268Y001106D02*
X008387Y001106D01*
X008346Y001009D02*
X009813Y001009D01*
X009960Y001009D02*
X009989Y001009D01*
X009989Y001106D02*
X009960Y001106D01*
X009960Y001203D02*
X009989Y001203D01*
X009989Y001397D02*
X009960Y001397D01*
X009960Y001494D02*
X009989Y001494D01*
X009989Y001591D02*
X009960Y001591D01*
X009778Y001591D02*
X009561Y001591D01*
X009388Y001591D02*
X008356Y001591D01*
X008305Y001688D02*
X011742Y001688D01*
X011645Y001785D02*
X009800Y001785D01*
X009897Y001882D02*
X011548Y001882D01*
X011451Y001979D02*
X009994Y001979D01*
X010091Y002076D02*
X011354Y002076D01*
X011257Y002173D02*
X010686Y002173D01*
X010807Y002270D02*
X011160Y002270D01*
X011063Y002366D02*
X010866Y002366D01*
X010898Y002463D02*
X010966Y002463D01*
X010322Y002173D02*
X010188Y002173D01*
X010051Y002493D02*
X010051Y002689D01*
X010150Y003083D01*
X010051Y002689D02*
X009972Y002689D01*
X009953Y002689D02*
X009953Y002493D01*
X010051Y002493D01*
X010012Y002591D02*
X010014Y002613D01*
X010019Y002634D01*
X010027Y002654D01*
X010038Y002673D01*
X010051Y002690D01*
X009504Y002524D02*
X009504Y004024D01*
X009264Y004264D01*
X009264Y005308D01*
X009874Y005918D01*
X008221Y006902D02*
X008208Y006920D01*
X008193Y006935D01*
X008175Y006948D01*
X008156Y006957D01*
X008135Y006963D01*
X008113Y006965D01*
X008092Y006964D01*
X008071Y006958D01*
X008051Y006950D01*
X008033Y006938D01*
X008017Y006923D01*
X008004Y006906D01*
X007994Y006887D01*
X007987Y006867D01*
X007984Y006845D01*
X007985Y006824D01*
X006999Y008004D02*
X006889Y008114D01*
X006717Y008114D01*
X006595Y007992D01*
X006595Y007820D01*
X006705Y007710D01*
X006213Y007217D01*
X006213Y007020D01*
X005917Y006725D01*
X005392Y006725D01*
X005295Y006765D01*
X005188Y006765D01*
X005031Y006922D01*
X005031Y007611D01*
X005327Y007611D01*
X005720Y008004D01*
X005720Y008595D01*
X006575Y009450D01*
X006575Y009296D01*
X006697Y009174D01*
X006870Y009174D01*
X006992Y009296D01*
X006992Y009469D01*
X006870Y009590D01*
X006716Y009590D01*
X007963Y010838D01*
X007963Y010670D01*
X008091Y010542D01*
X008271Y010542D01*
X008399Y010670D01*
X008399Y010851D01*
X008271Y010978D01*
X008091Y010978D01*
X007984Y010872D01*
X007984Y011351D01*
X008476Y011351D01*
X008957Y011832D01*
X009055Y011832D01*
X009066Y011843D01*
X009166Y011843D01*
X009178Y011832D01*
X009350Y011832D01*
X009361Y011843D01*
X009953Y011843D01*
X010051Y011745D01*
X010051Y011056D01*
X006999Y008004D01*
X006916Y008088D02*
X007083Y008088D01*
X007180Y008185D02*
X005720Y008185D01*
X005720Y008282D02*
X006625Y008282D01*
X006595Y008312D02*
X006717Y008190D01*
X006889Y008190D01*
X007011Y008312D01*
X007011Y008484D01*
X006889Y008606D01*
X006717Y008606D01*
X006595Y008484D01*
X006595Y008312D01*
X006595Y008379D02*
X005720Y008379D01*
X005720Y008476D02*
X006595Y008476D01*
X006683Y008572D02*
X005720Y008572D01*
X005795Y008669D02*
X007665Y008669D01*
X007568Y008572D02*
X006923Y008572D01*
X006889Y008682D02*
X007011Y008804D01*
X007011Y008976D01*
X006889Y009098D01*
X006717Y009098D01*
X006595Y008976D01*
X006595Y008804D01*
X006717Y008682D01*
X006889Y008682D01*
X006974Y008766D02*
X007762Y008766D01*
X007859Y008863D02*
X007011Y008863D01*
X007011Y008960D02*
X007956Y008960D01*
X008053Y009057D02*
X006930Y009057D01*
X006947Y009251D02*
X008247Y009251D01*
X008150Y009154D02*
X006280Y009154D01*
X006183Y009057D02*
X006676Y009057D01*
X006595Y008960D02*
X006086Y008960D01*
X005989Y008863D02*
X006595Y008863D01*
X006633Y008766D02*
X005892Y008766D01*
X006377Y009251D02*
X006620Y009251D01*
X006575Y009348D02*
X006474Y009348D01*
X006571Y009445D02*
X006575Y009445D01*
X006765Y009639D02*
X006989Y009639D01*
X006989Y009591D02*
X007111Y009470D01*
X007283Y009470D01*
X007405Y009591D01*
X007405Y009764D01*
X007283Y009886D01*
X007111Y009886D01*
X006989Y009764D01*
X006989Y009591D01*
X007038Y009542D02*
X006918Y009542D01*
X006992Y009445D02*
X008441Y009445D01*
X008344Y009348D02*
X006992Y009348D01*
X006989Y009736D02*
X006862Y009736D01*
X006959Y009833D02*
X007058Y009833D01*
X007056Y009930D02*
X008926Y009930D01*
X009023Y010027D02*
X007153Y010027D01*
X007249Y010124D02*
X009120Y010124D01*
X009217Y010221D02*
X007346Y010221D01*
X007443Y010318D02*
X009314Y010318D01*
X009410Y010415D02*
X007540Y010415D01*
X007637Y010512D02*
X009507Y010512D01*
X009604Y010609D02*
X008338Y010609D01*
X008399Y010706D02*
X009701Y010706D01*
X009798Y010803D02*
X008399Y010803D01*
X008350Y010900D02*
X008830Y010900D01*
X008882Y010847D02*
X008760Y010969D01*
X008760Y011142D01*
X008882Y011264D01*
X009055Y011264D01*
X009177Y011142D01*
X009177Y010969D01*
X009055Y010847D01*
X008882Y010847D01*
X008760Y010997D02*
X007984Y010997D01*
X007984Y011094D02*
X008760Y011094D01*
X008809Y011191D02*
X007984Y011191D01*
X007984Y011288D02*
X010051Y011288D01*
X010051Y011385D02*
X008510Y011385D01*
X008607Y011482D02*
X010051Y011482D01*
X010051Y011579D02*
X008704Y011579D01*
X008801Y011675D02*
X010051Y011675D01*
X010023Y011772D02*
X008898Y011772D01*
X009128Y011191D02*
X010051Y011191D01*
X010051Y011094D02*
X009177Y011094D01*
X009177Y010997D02*
X009992Y010997D01*
X009895Y010900D02*
X009107Y010900D01*
X008829Y009833D02*
X007336Y009833D01*
X007405Y009736D02*
X008732Y009736D01*
X008635Y009639D02*
X007405Y009639D01*
X007356Y009542D02*
X008538Y009542D01*
X008024Y010609D02*
X007734Y010609D01*
X007831Y010706D02*
X007963Y010706D01*
X007963Y010803D02*
X007928Y010803D01*
X007984Y010900D02*
X008012Y010900D01*
X007471Y008476D02*
X007011Y008476D01*
X007011Y008379D02*
X007374Y008379D01*
X007277Y008282D02*
X006981Y008282D01*
X006691Y008088D02*
X005720Y008088D01*
X005707Y007991D02*
X006595Y007991D01*
X006595Y007894D02*
X005610Y007894D01*
X005513Y007797D02*
X006618Y007797D01*
X006695Y007700D02*
X005416Y007700D01*
X005477Y007603D02*
X005031Y007603D01*
X005031Y007506D02*
X005414Y007506D01*
X005414Y007539D02*
X005414Y007367D01*
X005536Y007245D01*
X005708Y007245D01*
X005830Y007367D01*
X005830Y007539D01*
X005708Y007661D01*
X005536Y007661D01*
X005414Y007539D01*
X005414Y007409D02*
X005031Y007409D01*
X005031Y007312D02*
X005469Y007312D01*
X005775Y007312D02*
X006307Y007312D01*
X006213Y007215D02*
X005031Y007215D01*
X005031Y007118D02*
X006213Y007118D01*
X006213Y007021D02*
X005031Y007021D01*
X005031Y006924D02*
X006116Y006924D01*
X006019Y006827D02*
X005126Y006827D01*
X005379Y006730D02*
X005923Y006730D01*
X005830Y007409D02*
X006404Y007409D01*
X006501Y007506D02*
X005830Y007506D01*
X005767Y007603D02*
X006598Y007603D01*
X005780Y004855D02*
X005228Y004855D01*
X002472Y003871D02*
X002472Y003477D01*
X002472Y003871D02*
X002079Y004264D01*
X002079Y004953D01*
X001488Y005544D01*
X001488Y005642D01*
X001390Y005741D01*
X001390Y006528D01*
X001291Y006626D01*
X001094Y006626D01*
X003803Y001009D02*
X007228Y001009D01*
X007293Y000912D02*
X003803Y000912D01*
X003740Y000815D02*
X007390Y000815D01*
X008185Y000815D02*
X015264Y000815D01*
X015167Y000912D02*
X008282Y000912D01*
X009680Y001106D02*
X009701Y001106D01*
X010135Y001009D02*
X015102Y001009D01*
X015062Y001106D02*
X014181Y001106D01*
X014244Y001203D02*
X015029Y001203D01*
X015029Y001300D02*
X014266Y001300D01*
X014254Y001397D02*
X015029Y001397D01*
X015053Y001494D02*
X014204Y001494D01*
X014061Y001591D02*
X015093Y001591D01*
X015143Y001688D02*
X013282Y001688D01*
X013379Y001785D02*
X015240Y001785D01*
X015386Y001882D02*
X013476Y001882D01*
X013573Y001979D02*
X016446Y001979D01*
X016446Y002076D02*
X013670Y002076D01*
X013767Y002173D02*
X016446Y002173D01*
X016446Y002270D02*
X013864Y002270D01*
X013961Y002366D02*
X016446Y002366D01*
X016446Y002463D02*
X014057Y002463D01*
X013888Y001591D02*
X013561Y001591D01*
X013704Y001494D02*
X013745Y001494D01*
X013388Y001591D02*
X013185Y001591D01*
X013204Y001494D02*
X013245Y001494D01*
X013268Y001106D02*
X013181Y001106D01*
X012768Y001106D02*
X012680Y001106D01*
X012268Y001106D02*
X012181Y001106D01*
X011768Y001106D02*
X011681Y001106D01*
X011704Y001494D02*
X011745Y001494D01*
X011839Y001591D02*
X011561Y001591D01*
X011388Y001591D02*
X011061Y001591D01*
X011204Y001494D02*
X011245Y001494D01*
X010888Y001591D02*
X010561Y001591D01*
X010704Y001494D02*
X010745Y001494D01*
X010388Y001591D02*
X010170Y001591D01*
X010247Y001106D02*
X010268Y001106D01*
X010681Y001106D02*
X010768Y001106D01*
X011181Y001106D02*
X011268Y001106D01*
X009504Y002524D02*
X009496Y002532D01*
X013681Y001106D02*
X013768Y001106D01*
X015937Y001882D02*
X016446Y001882D01*
X016446Y001785D02*
X016082Y001785D01*
X016179Y001688D02*
X016446Y001688D01*
X016446Y001591D02*
X016230Y001591D01*
X016270Y001494D02*
X016446Y001494D01*
X016446Y001397D02*
X016294Y001397D01*
X016294Y001300D02*
X016446Y001300D01*
X016446Y001203D02*
X016294Y001203D01*
X016261Y001106D02*
X016446Y001106D01*
X016446Y001009D02*
X016220Y001009D01*
X016156Y000912D02*
X016446Y000912D01*
X016446Y000815D02*
X016059Y000815D01*
X001094Y015748D02*
X000703Y015748D01*
X000703Y015845D02*
X001094Y015845D01*
X001094Y015942D02*
X000703Y015942D01*
X000703Y016039D02*
X001094Y016039D01*
X001094Y016136D02*
X000703Y016136D01*
X000703Y016233D02*
X001094Y016233D01*
X001094Y016330D02*
X000703Y016330D01*
X000703Y016427D02*
X001094Y016427D01*
X001094Y016524D02*
X000703Y016524D01*
X000703Y016621D02*
X001094Y016621D01*
X001094Y016718D02*
X000703Y016718D01*
X000703Y016815D02*
X001094Y016815D01*
D16*
X001685Y015485D02*
X004835Y015485D01*
X007494Y016507D01*
X007664Y016437D01*
X007911Y016437D01*
X008140Y016532D01*
X008315Y016707D01*
X008372Y016845D01*
X009154Y017146D01*
X009143Y017092D01*
X009143Y017084D01*
X009450Y017084D01*
X009450Y017035D01*
X009499Y017035D01*
X009499Y016728D01*
X009507Y016728D01*
X009571Y016741D01*
X009631Y016766D01*
X009686Y016802D01*
X009732Y016848D01*
X009754Y016882D01*
X009815Y016821D01*
X009918Y016778D01*
X009953Y016778D01*
X009953Y015878D01*
X009559Y015485D01*
X007787Y015485D01*
X005425Y013123D01*
X005425Y012532D01*
X004638Y011745D01*
X003654Y011745D01*
X003063Y011154D01*
X003063Y006390D01*
X003929Y005111D01*
X004042Y005113D01*
X003968Y005039D01*
X003919Y004920D01*
X003919Y004790D01*
X003968Y004670D01*
X004060Y004579D01*
X004179Y004529D01*
X004309Y004529D01*
X004429Y004579D01*
X004520Y004670D01*
X004545Y004732D01*
X004630Y004647D01*
X004803Y004647D01*
X004877Y004721D01*
X004896Y004677D01*
X004937Y004615D01*
X004989Y004563D01*
X005050Y004522D01*
X005119Y004494D01*
X005189Y004480D01*
X005189Y004815D01*
X005268Y004815D01*
X005268Y004480D01*
X005338Y004494D01*
X005406Y004522D01*
X005468Y004563D01*
X005520Y004615D01*
X005561Y004677D01*
X005589Y004745D01*
X005603Y004815D01*
X005268Y004815D01*
X005268Y004894D01*
X005603Y004894D01*
X005589Y004964D01*
X005561Y005033D01*
X005520Y005094D01*
X005474Y005140D01*
X006016Y005150D01*
X006016Y004264D01*
X005478Y004278D01*
X005413Y004343D01*
X005293Y004393D01*
X005164Y004393D01*
X005044Y004343D01*
X004991Y004290D01*
X004468Y004303D01*
X004429Y004343D01*
X004309Y004393D01*
X004179Y004393D01*
X004060Y004343D01*
X004031Y004314D01*
X002906Y004343D01*
X001724Y005603D01*
X001711Y006439D01*
X002380Y006439D01*
X002390Y006428D01*
X002555Y006428D01*
X002671Y006544D01*
X002671Y006709D01*
X002555Y006825D01*
X002390Y006825D01*
X002380Y006814D01*
X001705Y006814D01*
X001685Y008004D01*
X001685Y012797D01*
X001750Y012797D01*
X001869Y012846D01*
X001961Y012938D01*
X002011Y013058D01*
X002011Y013187D01*
X001961Y013307D01*
X001869Y013399D01*
X001750Y013448D01*
X001685Y013448D01*
X001685Y013584D01*
X001750Y013584D01*
X001869Y013634D01*
X001961Y013725D01*
X002011Y013845D01*
X002011Y013975D01*
X001961Y014094D01*
X001869Y014186D01*
X001750Y014235D01*
X001685Y014235D01*
X001685Y014658D01*
X001724Y014658D01*
X001724Y014322D01*
X001795Y014336D01*
X001863Y014364D01*
X001924Y014406D01*
X001977Y014458D01*
X002018Y014519D01*
X002046Y014588D01*
X002060Y014658D01*
X001725Y014658D01*
X001725Y014737D01*
X002060Y014737D01*
X002046Y014807D01*
X002018Y014875D01*
X001977Y014937D01*
X001924Y014989D01*
X001863Y015030D01*
X001795Y015058D01*
X001724Y015072D01*
X001724Y014737D01*
X001685Y014737D01*
X001685Y015485D01*
X001685Y015440D02*
X007453Y015440D01*
X007508Y015385D02*
X007673Y015385D01*
X007789Y015501D01*
X007789Y015665D01*
X007673Y015781D01*
X007508Y015781D01*
X007392Y015665D01*
X007392Y015501D01*
X007508Y015385D01*
X007588Y015285D02*
X001685Y015285D01*
X001685Y015208D02*
X007511Y015208D01*
X007433Y015131D02*
X001685Y015131D01*
X001685Y015053D02*
X001724Y015053D01*
X001724Y014976D02*
X001685Y014976D01*
X001685Y014899D02*
X001724Y014899D01*
X001724Y014822D02*
X001685Y014822D01*
X001685Y014744D02*
X001724Y014744D01*
X001725Y014667D02*
X002147Y014667D01*
X002147Y014633D02*
X002196Y014513D01*
X002288Y014421D01*
X002408Y014372D01*
X002537Y014372D01*
X002657Y014421D01*
X002748Y014513D01*
X002798Y014633D01*
X002798Y014762D01*
X002748Y014882D01*
X002657Y014973D01*
X002537Y015023D01*
X002408Y015023D01*
X002288Y014973D01*
X002196Y014882D01*
X002147Y014762D01*
X002147Y014633D01*
X002165Y014590D02*
X002046Y014590D01*
X002013Y014512D02*
X002197Y014512D01*
X002274Y014435D02*
X001954Y014435D01*
X001847Y014358D02*
X004697Y014358D01*
X004720Y014305D02*
X004556Y014305D01*
X004440Y014189D01*
X004440Y014025D01*
X004554Y013910D01*
X004440Y013795D01*
X004440Y013631D01*
X004556Y013515D01*
X004720Y013515D01*
X004836Y013631D01*
X004836Y013795D01*
X004721Y013910D01*
X004836Y014025D01*
X004836Y014189D01*
X004720Y014305D01*
X004752Y014302D02*
X004917Y014302D01*
X005033Y014418D01*
X005033Y014583D01*
X004917Y014699D01*
X004752Y014699D01*
X004636Y014583D01*
X004636Y014418D01*
X004752Y014302D01*
X004744Y014281D02*
X006583Y014281D01*
X006661Y014358D02*
X004972Y014358D01*
X005033Y014435D02*
X006738Y014435D01*
X006815Y014512D02*
X005033Y014512D01*
X005026Y014590D02*
X006892Y014590D01*
X006970Y014667D02*
X004949Y014667D01*
X004721Y014667D02*
X002798Y014667D01*
X002798Y014744D02*
X007047Y014744D01*
X007124Y014822D02*
X002773Y014822D01*
X002731Y014899D02*
X007201Y014899D01*
X007279Y014976D02*
X002650Y014976D01*
X002780Y014590D02*
X004643Y014590D01*
X004636Y014512D02*
X002748Y014512D01*
X002671Y014435D02*
X004636Y014435D01*
X004531Y014281D02*
X001685Y014281D01*
X001685Y014358D02*
X001724Y014358D01*
X001724Y014435D02*
X001685Y014435D01*
X001685Y014512D02*
X001724Y014512D01*
X001724Y014590D02*
X001685Y014590D01*
X002059Y014744D02*
X002147Y014744D01*
X002171Y014822D02*
X002040Y014822D01*
X002002Y014899D02*
X002214Y014899D01*
X002295Y014976D02*
X001937Y014976D01*
X001807Y015053D02*
X007356Y015053D01*
X007665Y015363D02*
X001685Y015363D01*
X001828Y014203D02*
X002330Y014203D01*
X002288Y014186D02*
X002408Y014235D01*
X002537Y014235D01*
X002657Y014186D01*
X002748Y014094D01*
X002798Y013975D01*
X002798Y013845D01*
X002748Y013725D01*
X002657Y013634D01*
X002537Y013584D01*
X002408Y013584D01*
X002288Y013634D01*
X002196Y013725D01*
X002147Y013845D01*
X002147Y013975D01*
X002196Y014094D01*
X002288Y014186D01*
X002228Y014126D02*
X001929Y014126D01*
X001980Y014049D02*
X002178Y014049D01*
X002147Y013971D02*
X002011Y013971D01*
X002011Y013894D02*
X002147Y013894D01*
X002159Y013817D02*
X001999Y013817D01*
X001967Y013740D02*
X002191Y013740D01*
X002260Y013662D02*
X001898Y013662D01*
X001751Y013585D02*
X002406Y013585D01*
X002539Y013585D02*
X004485Y013585D01*
X004440Y013662D02*
X002685Y013662D01*
X002754Y013740D02*
X004440Y013740D01*
X004461Y013817D02*
X002786Y013817D01*
X002798Y013894D02*
X004538Y013894D01*
X004493Y013971D02*
X002798Y013971D01*
X002767Y014049D02*
X004440Y014049D01*
X004440Y014126D02*
X002717Y014126D01*
X002615Y014203D02*
X004454Y014203D01*
X004737Y013894D02*
X005082Y013894D01*
X005105Y013871D02*
X005030Y013795D01*
X005030Y013631D01*
X005146Y013515D01*
X005310Y013515D01*
X005427Y013631D01*
X005427Y013795D01*
X005351Y013871D01*
X005427Y013946D01*
X005427Y014110D01*
X005310Y014226D01*
X005146Y014226D01*
X005030Y014110D01*
X005030Y013946D01*
X005105Y013871D01*
X005052Y013817D02*
X004814Y013817D01*
X004836Y013740D02*
X005030Y013740D01*
X005030Y013662D02*
X004836Y013662D01*
X004790Y013585D02*
X005076Y013585D01*
X005381Y013585D02*
X005888Y013585D01*
X005965Y013662D02*
X005427Y013662D01*
X005427Y013740D02*
X006042Y013740D01*
X006120Y013817D02*
X005405Y013817D01*
X005375Y013894D02*
X006197Y013894D01*
X006274Y013971D02*
X005427Y013971D01*
X005427Y014049D02*
X006351Y014049D01*
X006429Y014126D02*
X005411Y014126D01*
X005333Y014203D02*
X006506Y014203D01*
X005810Y013508D02*
X001685Y013508D01*
X001792Y013430D02*
X002365Y013430D01*
X002408Y013448D02*
X002288Y013399D01*
X002196Y013307D01*
X002147Y013187D01*
X002147Y013058D01*
X002196Y012938D01*
X002288Y012846D01*
X002408Y012797D01*
X002537Y012797D01*
X002657Y012846D01*
X002748Y012938D01*
X002798Y013058D01*
X002798Y013187D01*
X002748Y013307D01*
X002657Y013399D01*
X002537Y013448D01*
X002408Y013448D01*
X002580Y013430D02*
X005733Y013430D01*
X005656Y013353D02*
X002702Y013353D01*
X002761Y013276D02*
X005579Y013276D01*
X005501Y013199D02*
X002793Y013199D01*
X002798Y013121D02*
X005425Y013121D01*
X005425Y013044D02*
X002792Y013044D01*
X002760Y012967D02*
X003217Y012967D01*
X003160Y012909D02*
X003276Y013025D01*
X003440Y013025D01*
X003556Y012909D01*
X003556Y012745D01*
X003491Y012680D01*
X003556Y012614D01*
X003556Y012450D01*
X003491Y012384D01*
X003556Y012319D01*
X003556Y012155D01*
X003440Y012038D01*
X003276Y012038D01*
X003160Y012155D01*
X003160Y012319D01*
X003226Y012384D01*
X003160Y012450D01*
X003160Y012614D01*
X003226Y012680D01*
X003160Y012745D01*
X003160Y012909D01*
X003160Y012889D02*
X002700Y012889D01*
X002574Y012812D02*
X003160Y012812D01*
X003170Y012735D02*
X001685Y012735D01*
X001685Y012658D02*
X003204Y012658D01*
X003160Y012580D02*
X001685Y012580D01*
X001685Y012503D02*
X003160Y012503D01*
X003184Y012426D02*
X001685Y012426D01*
X001685Y012348D02*
X003190Y012348D01*
X003160Y012271D02*
X001685Y012271D01*
X001685Y012194D02*
X003160Y012194D01*
X003198Y012117D02*
X001685Y012117D01*
X001685Y012039D02*
X003275Y012039D01*
X003441Y012039D02*
X004933Y012039D01*
X005010Y012117D02*
X003519Y012117D01*
X003556Y012194D02*
X005087Y012194D01*
X005164Y012271D02*
X003556Y012271D01*
X003527Y012348D02*
X005242Y012348D01*
X005319Y012426D02*
X003532Y012426D01*
X003556Y012503D02*
X005396Y012503D01*
X005425Y012580D02*
X003556Y012580D01*
X003513Y012658D02*
X005425Y012658D01*
X005425Y012735D02*
X003546Y012735D01*
X003556Y012812D02*
X005425Y012812D01*
X005425Y012889D02*
X003556Y012889D01*
X003499Y012967D02*
X005425Y012967D01*
X005030Y013971D02*
X004783Y013971D01*
X004836Y014049D02*
X005030Y014049D01*
X005046Y014126D02*
X004836Y014126D01*
X004822Y014203D02*
X005123Y014203D01*
X004919Y015517D02*
X006038Y015517D01*
X006071Y015483D02*
X006236Y015483D01*
X006352Y015599D01*
X006352Y015764D01*
X006236Y015880D01*
X006071Y015880D01*
X005955Y015764D01*
X005955Y015599D01*
X006071Y015483D01*
X005960Y015594D02*
X005120Y015594D01*
X005321Y015672D02*
X005955Y015672D01*
X005955Y015749D02*
X005522Y015749D01*
X005723Y015826D02*
X006018Y015826D01*
X005923Y015904D02*
X008672Y015904D01*
X008672Y015961D02*
X008672Y015796D01*
X008788Y015680D01*
X008952Y015680D01*
X009068Y015796D01*
X009068Y015961D01*
X008952Y016077D01*
X008857Y016077D01*
X008969Y016189D01*
X008985Y016172D01*
X009149Y016172D01*
X009265Y016288D01*
X009265Y016453D01*
X009149Y016569D01*
X008985Y016569D01*
X008870Y016454D01*
X008854Y016470D01*
X008689Y016470D01*
X008573Y016354D01*
X008573Y016190D01*
X008689Y016074D01*
X008785Y016074D01*
X008672Y015961D01*
X008692Y015981D02*
X006124Y015981D01*
X006325Y016058D02*
X008769Y016058D01*
X008628Y016135D02*
X006526Y016135D01*
X006289Y015826D02*
X006963Y015826D01*
X007016Y015880D02*
X006900Y015764D01*
X006900Y015599D01*
X007016Y015483D01*
X007181Y015483D01*
X007297Y015599D01*
X007297Y015764D01*
X007181Y015880D01*
X007016Y015880D01*
X006900Y015749D02*
X006352Y015749D01*
X006352Y015672D02*
X006900Y015672D01*
X006905Y015594D02*
X006347Y015594D01*
X006269Y015517D02*
X006982Y015517D01*
X007214Y015517D02*
X007392Y015517D01*
X007392Y015594D02*
X007292Y015594D01*
X007297Y015672D02*
X007399Y015672D01*
X007476Y015749D02*
X007297Y015749D01*
X007234Y015826D02*
X008672Y015826D01*
X008719Y015749D02*
X007705Y015749D01*
X007782Y015672D02*
X009746Y015672D01*
X009823Y015749D02*
X009021Y015749D01*
X009068Y015826D02*
X009901Y015826D01*
X009953Y015904D02*
X009068Y015904D01*
X009048Y015981D02*
X009953Y015981D01*
X009953Y016058D02*
X008971Y016058D01*
X008915Y016135D02*
X009953Y016135D01*
X009953Y016213D02*
X009189Y016213D01*
X009265Y016290D02*
X009953Y016290D01*
X009953Y016367D02*
X009265Y016367D01*
X009265Y016444D02*
X009953Y016444D01*
X009953Y016522D02*
X009196Y016522D01*
X009317Y016766D02*
X009378Y016741D01*
X009442Y016728D01*
X009450Y016728D01*
X009450Y017035D01*
X009143Y017035D01*
X009143Y017027D01*
X009156Y016963D01*
X009181Y016903D01*
X009217Y016848D01*
X009263Y016802D01*
X009317Y016766D01*
X009347Y016754D02*
X008334Y016754D01*
X008366Y016831D02*
X009234Y016831D01*
X009178Y016908D02*
X008536Y016908D01*
X008737Y016985D02*
X009151Y016985D01*
X009138Y017140D02*
X009153Y017140D01*
X008938Y017063D02*
X009450Y017063D01*
X009450Y016985D02*
X009499Y016985D01*
X009499Y016908D02*
X009450Y016908D01*
X009450Y016831D02*
X009499Y016831D01*
X009499Y016754D02*
X009450Y016754D01*
X009602Y016754D02*
X009953Y016754D01*
X009953Y016676D02*
X008284Y016676D01*
X008207Y016599D02*
X009953Y016599D01*
X009805Y016831D02*
X009714Y016831D01*
X008938Y016522D02*
X008116Y016522D01*
X007929Y016444D02*
X008664Y016444D01*
X008586Y016367D02*
X007129Y016367D01*
X006928Y016290D02*
X008573Y016290D01*
X008573Y016213D02*
X006727Y016213D01*
X007330Y016444D02*
X007646Y016444D01*
X007789Y015594D02*
X009669Y015594D01*
X009591Y015517D02*
X007789Y015517D01*
X007742Y015440D02*
X007728Y015440D01*
X004855Y011962D02*
X001685Y011962D01*
X001685Y011885D02*
X004778Y011885D01*
X004701Y011807D02*
X001685Y011807D01*
X001685Y011730D02*
X003639Y011730D01*
X003562Y011653D02*
X001685Y011653D01*
X001685Y011576D02*
X003485Y011576D01*
X003407Y011498D02*
X001685Y011498D01*
X001685Y011421D02*
X003330Y011421D01*
X003253Y011344D02*
X001685Y011344D01*
X001685Y011266D02*
X003175Y011266D01*
X003098Y011189D02*
X001685Y011189D01*
X001685Y011112D02*
X003063Y011112D01*
X003063Y011035D02*
X001685Y011035D01*
X001685Y010957D02*
X003063Y010957D01*
X003063Y010880D02*
X001685Y010880D01*
X001685Y010803D02*
X003063Y010803D01*
X003063Y010726D02*
X001685Y010726D01*
X001685Y010648D02*
X003063Y010648D01*
X003063Y010571D02*
X001685Y010571D01*
X001685Y010494D02*
X002378Y010494D01*
X002390Y010506D02*
X002274Y010390D01*
X002274Y010225D01*
X002390Y010109D01*
X002555Y010109D01*
X002671Y010225D01*
X002671Y010390D01*
X002555Y010506D01*
X002390Y010506D01*
X002301Y010416D02*
X001685Y010416D01*
X001685Y010339D02*
X002274Y010339D01*
X002274Y010262D02*
X001685Y010262D01*
X001685Y010185D02*
X002315Y010185D01*
X002630Y010185D02*
X003063Y010185D01*
X003063Y010262D02*
X002671Y010262D01*
X002671Y010339D02*
X003063Y010339D01*
X003063Y010416D02*
X002644Y010416D01*
X002567Y010494D02*
X003063Y010494D01*
X003063Y010107D02*
X001685Y010107D01*
X001685Y010030D02*
X003063Y010030D01*
X003063Y009953D02*
X001685Y009953D01*
X001685Y009875D02*
X003063Y009875D01*
X003063Y009798D02*
X001685Y009798D01*
X001685Y009721D02*
X003063Y009721D01*
X003063Y009644D02*
X001685Y009644D01*
X001685Y009566D02*
X003063Y009566D01*
X003063Y009489D02*
X001685Y009489D01*
X001685Y009412D02*
X003063Y009412D01*
X003063Y009334D02*
X001685Y009334D01*
X001685Y009257D02*
X003063Y009257D01*
X003063Y009180D02*
X001685Y009180D01*
X001685Y009103D02*
X003063Y009103D01*
X003063Y009025D02*
X001685Y009025D01*
X001685Y008948D02*
X003063Y008948D01*
X003063Y008871D02*
X001685Y008871D01*
X001685Y008793D02*
X003063Y008793D01*
X003063Y008716D02*
X002632Y008716D01*
X002671Y008677D02*
X002555Y008793D01*
X002390Y008793D01*
X002274Y008677D01*
X002274Y008513D01*
X002390Y008397D01*
X002555Y008397D01*
X002671Y008513D01*
X002671Y008677D01*
X002671Y008639D02*
X003063Y008639D01*
X003063Y008562D02*
X002671Y008562D01*
X002642Y008484D02*
X003063Y008484D01*
X003063Y008407D02*
X002565Y008407D01*
X002380Y008407D02*
X001685Y008407D01*
X001685Y008484D02*
X002303Y008484D01*
X002274Y008562D02*
X001685Y008562D01*
X001685Y008639D02*
X002274Y008639D01*
X002313Y008716D02*
X001685Y008716D01*
X001685Y008330D02*
X003063Y008330D01*
X003063Y008252D02*
X001685Y008252D01*
X001685Y008175D02*
X003063Y008175D01*
X003063Y008098D02*
X001685Y008098D01*
X001685Y008021D02*
X003063Y008021D01*
X003063Y007943D02*
X001686Y007943D01*
X001687Y007866D02*
X003063Y007866D01*
X003063Y007789D02*
X001689Y007789D01*
X001690Y007711D02*
X003063Y007711D01*
X003063Y007634D02*
X001691Y007634D01*
X001692Y007557D02*
X003063Y007557D01*
X003063Y007480D02*
X001694Y007480D01*
X001695Y007402D02*
X003063Y007402D01*
X003063Y007325D02*
X001696Y007325D01*
X001697Y007248D02*
X003063Y007248D01*
X003063Y007170D02*
X001699Y007170D01*
X001700Y007093D02*
X003063Y007093D01*
X003063Y007016D02*
X001701Y007016D01*
X001703Y006939D02*
X003063Y006939D01*
X003063Y006861D02*
X001704Y006861D01*
X001711Y006398D02*
X003063Y006398D01*
X003063Y006475D02*
X002601Y006475D01*
X002671Y006552D02*
X003063Y006552D01*
X003063Y006629D02*
X002671Y006629D01*
X002671Y006707D02*
X003063Y006707D01*
X003063Y006784D02*
X002595Y006784D01*
X003110Y006320D02*
X001713Y006320D01*
X001714Y006243D02*
X003163Y006243D01*
X003215Y006166D02*
X001715Y006166D01*
X001716Y006089D02*
X003267Y006089D01*
X003320Y006011D02*
X001718Y006011D01*
X001719Y005934D02*
X003372Y005934D01*
X003424Y005857D02*
X001720Y005857D01*
X001722Y005779D02*
X003476Y005779D01*
X003529Y005702D02*
X001723Y005702D01*
X001724Y005625D02*
X002371Y005625D01*
X002390Y005644D02*
X002274Y005527D01*
X002274Y005363D01*
X002390Y005247D01*
X002555Y005247D01*
X002671Y005363D01*
X002671Y005527D01*
X002555Y005644D01*
X002390Y005644D01*
X002294Y005548D02*
X001776Y005548D01*
X001849Y005470D02*
X002274Y005470D01*
X002274Y005393D02*
X001921Y005393D01*
X001994Y005316D02*
X002322Y005316D01*
X002139Y005161D02*
X003895Y005161D01*
X003843Y005238D02*
X002066Y005238D01*
X002211Y005084D02*
X004013Y005084D01*
X003955Y005007D02*
X002283Y005007D01*
X002356Y004929D02*
X003923Y004929D01*
X003919Y004852D02*
X002428Y004852D01*
X002501Y004775D02*
X003925Y004775D01*
X003957Y004697D02*
X002573Y004697D01*
X002646Y004620D02*
X004018Y004620D01*
X004146Y004543D02*
X002718Y004543D01*
X002791Y004466D02*
X006016Y004466D01*
X006016Y004543D02*
X005437Y004543D01*
X005523Y004620D02*
X006016Y004620D01*
X006016Y004697D02*
X005570Y004697D01*
X005595Y004775D02*
X006016Y004775D01*
X006016Y004852D02*
X005268Y004852D01*
X005268Y004775D02*
X005189Y004775D01*
X005189Y004697D02*
X005268Y004697D01*
X005268Y004620D02*
X005189Y004620D01*
X005189Y004543D02*
X005268Y004543D01*
X005304Y004388D02*
X006016Y004388D01*
X006016Y004311D02*
X005445Y004311D01*
X005152Y004388D02*
X004320Y004388D01*
X004168Y004388D02*
X002863Y004388D01*
X002623Y005316D02*
X003790Y005316D01*
X003738Y005393D02*
X002671Y005393D01*
X002671Y005470D02*
X003686Y005470D01*
X003633Y005548D02*
X002651Y005548D01*
X002573Y005625D02*
X003581Y005625D01*
X004342Y004543D02*
X005019Y004543D01*
X004933Y004620D02*
X004470Y004620D01*
X004531Y004697D02*
X004580Y004697D01*
X004853Y004697D02*
X004887Y004697D01*
X005011Y004311D02*
X004461Y004311D01*
X005596Y004929D02*
X006016Y004929D01*
X006016Y005007D02*
X005572Y005007D01*
X005527Y005084D02*
X006016Y005084D01*
X002371Y012812D02*
X001787Y012812D01*
X001912Y012889D02*
X002245Y012889D01*
X002185Y012967D02*
X001973Y012967D01*
X002005Y013044D02*
X002153Y013044D01*
X002147Y013121D02*
X002011Y013121D01*
X002006Y013199D02*
X002152Y013199D01*
X002184Y013276D02*
X001974Y013276D01*
X001915Y013353D02*
X002243Y013353D01*
D17*
X009504Y002524D03*
X010504Y002524D03*
X011504Y002524D03*
X012504Y002524D03*
D18*
X012221Y002869D02*
X011953Y002869D01*
X011949Y002865D02*
X012011Y002928D01*
X012067Y002905D01*
X012169Y002905D01*
X012264Y002944D01*
X012336Y003016D01*
X012375Y003111D01*
X012375Y003213D01*
X012336Y003308D01*
X012264Y003380D01*
X012169Y003419D01*
X012067Y003419D01*
X011972Y003380D01*
X011910Y003317D01*
X011854Y003340D01*
X011752Y003340D01*
X011657Y003301D01*
X011585Y003229D01*
X011546Y003134D01*
X011546Y003032D01*
X011585Y002937D01*
X011657Y002865D01*
X011752Y002826D01*
X011854Y002826D01*
X011949Y002865D01*
X012128Y002775D02*
X012060Y002612D01*
X012060Y002436D01*
X012128Y002273D01*
X012253Y002148D01*
X012416Y002080D01*
X012592Y002080D01*
X012755Y002148D01*
X012880Y002273D01*
X012948Y002436D01*
X012948Y002612D01*
X012880Y002775D01*
X012755Y002900D01*
X012592Y002968D01*
X012416Y002968D01*
X012253Y002900D01*
X012128Y002775D01*
X012086Y002673D02*
X011036Y002673D01*
X011019Y002690D02*
X010915Y002690D01*
X010880Y002775D01*
X010755Y002900D01*
X010592Y002968D01*
X010416Y002968D01*
X010253Y002900D01*
X010128Y002775D01*
X010092Y002690D01*
X009915Y002690D01*
X009880Y002775D01*
X009755Y002900D01*
X009702Y002922D01*
X009702Y004106D01*
X009586Y004222D01*
X009461Y004346D01*
X009461Y005226D01*
X009896Y005660D01*
X009925Y005660D01*
X010020Y005700D01*
X010092Y005772D01*
X010131Y005867D01*
X010131Y005969D01*
X010092Y006064D01*
X010020Y006136D01*
X009925Y006175D01*
X009823Y006175D01*
X009728Y006136D01*
X009656Y006064D01*
X009617Y005969D01*
X009617Y005940D01*
X009182Y005505D01*
X009066Y005389D01*
X009066Y004346D01*
X009066Y004182D01*
X009306Y003942D01*
X009306Y002922D01*
X009278Y002911D01*
X009109Y002992D01*
X009104Y002997D01*
X009065Y003013D01*
X009027Y003032D01*
X009020Y003032D01*
X009014Y003035D01*
X008971Y003035D01*
X008929Y003037D01*
X008923Y003035D01*
X007410Y003035D01*
X007377Y003039D01*
X007361Y003035D01*
X007345Y003035D01*
X007314Y003022D01*
X007283Y003014D01*
X007269Y003004D01*
X007254Y002997D01*
X007231Y002974D01*
X007070Y002851D01*
X007070Y002939D01*
X007030Y003038D01*
X006954Y003113D01*
X006856Y003153D01*
X006750Y003153D01*
X006652Y003113D01*
X006577Y003038D01*
X006536Y002939D01*
X006536Y002833D01*
X006577Y002735D01*
X006621Y002690D01*
X005563Y002690D01*
X005554Y002710D01*
X005446Y002819D01*
X005305Y002877D01*
X005152Y002877D01*
X005010Y002819D01*
X004983Y002791D01*
X004983Y002981D01*
X005010Y002954D01*
X005152Y002895D01*
X005305Y002895D01*
X005446Y002954D01*
X005554Y003062D01*
X005613Y003203D01*
X005613Y003356D01*
X005554Y003498D01*
X005446Y003606D01*
X005305Y003665D01*
X005152Y003665D01*
X005010Y003606D01*
X004983Y003579D01*
X004983Y003769D01*
X005010Y003741D01*
X005152Y003683D01*
X005305Y003683D01*
X005446Y003741D01*
X005501Y003796D01*
X005533Y003719D01*
X005609Y003644D01*
X005707Y003603D01*
X005813Y003603D01*
X005911Y003644D01*
X005986Y003719D01*
X006027Y003817D01*
X006027Y003924D01*
X005986Y004022D01*
X005929Y004079D01*
X005936Y004078D01*
X005938Y004076D01*
X006014Y004076D01*
X006089Y004075D01*
X006091Y004076D01*
X006094Y004076D01*
X006147Y004130D01*
X006201Y004182D01*
X006201Y004184D01*
X006204Y004186D01*
X006204Y004263D01*
X006205Y004337D01*
X006204Y004339D01*
X006204Y005074D01*
X006205Y005076D01*
X006204Y005152D01*
X006204Y005228D01*
X006202Y005229D01*
X006202Y005231D01*
X006147Y005284D01*
X006094Y005338D01*
X006091Y005338D01*
X006090Y005339D01*
X006015Y005338D01*
X005938Y005338D01*
X005936Y005336D01*
X005457Y005327D01*
X005554Y005424D01*
X005587Y005503D01*
X005592Y005491D01*
X005668Y005416D01*
X005766Y005375D01*
X005872Y005375D01*
X005970Y005416D01*
X006045Y005491D01*
X006086Y005589D01*
X006086Y005695D01*
X006045Y005794D01*
X005970Y005869D01*
X005872Y005909D01*
X005766Y005909D01*
X005668Y005869D01*
X005592Y005794D01*
X005587Y005781D01*
X005554Y005860D01*
X005446Y005968D01*
X005305Y006027D01*
X005152Y006027D01*
X005010Y005968D01*
X004902Y005860D01*
X004895Y005842D01*
X004868Y005869D01*
X004770Y005909D01*
X004663Y005909D01*
X004565Y005869D01*
X004563Y005867D01*
X004462Y005968D01*
X004321Y006027D01*
X004168Y006027D01*
X004026Y005968D01*
X003918Y005860D01*
X003859Y005719D01*
X003859Y005566D01*
X003878Y005522D01*
X003251Y006448D01*
X003251Y011076D01*
X003731Y011557D01*
X004560Y011557D01*
X004716Y011557D01*
X005503Y012344D01*
X005613Y012454D01*
X005613Y013045D01*
X007865Y015297D01*
X009481Y015297D01*
X009637Y015297D01*
X010031Y015691D01*
X010141Y015801D01*
X010141Y016760D01*
X010167Y016771D01*
X010224Y016828D01*
X010282Y016771D01*
X010407Y016719D01*
X010542Y016719D01*
X010667Y016771D01*
X010724Y016828D01*
X010782Y016771D01*
X010907Y016719D01*
X011042Y016719D01*
X011167Y016771D01*
X011224Y016828D01*
X011282Y016771D01*
X011407Y016719D01*
X011542Y016719D01*
X011667Y016771D01*
X011724Y016828D01*
X011782Y016771D01*
X011907Y016719D01*
X012042Y016719D01*
X012167Y016771D01*
X012224Y016828D01*
X012282Y016771D01*
X012407Y016719D01*
X012542Y016719D01*
X012667Y016771D01*
X012724Y016828D01*
X012782Y016771D01*
X012907Y016719D01*
X013042Y016719D01*
X013167Y016771D01*
X013224Y016828D01*
X013282Y016771D01*
X013407Y016719D01*
X013542Y016719D01*
X013667Y016771D01*
X013724Y016828D01*
X013782Y016771D01*
X013907Y016719D01*
X014042Y016719D01*
X014167Y016771D01*
X014263Y016867D01*
X014315Y016992D01*
X014315Y017127D01*
X014263Y017252D01*
X014167Y017348D01*
X014042Y017400D01*
X013907Y017400D01*
X013782Y017348D01*
X013724Y017291D01*
X013667Y017348D01*
X013542Y017400D01*
X013407Y017400D01*
X013282Y017348D01*
X013224Y017291D01*
X013167Y017348D01*
X013042Y017400D01*
X012907Y017400D01*
X012782Y017348D01*
X012724Y017291D01*
X012667Y017348D01*
X012542Y017400D01*
X012407Y017400D01*
X012282Y017348D01*
X012224Y017291D01*
X012167Y017348D01*
X012042Y017400D01*
X011907Y017400D01*
X011782Y017348D01*
X011724Y017291D01*
X011667Y017348D01*
X011542Y017400D01*
X011407Y017400D01*
X011282Y017348D01*
X011224Y017291D01*
X011167Y017348D01*
X011042Y017400D01*
X010907Y017400D01*
X010782Y017348D01*
X010724Y017291D01*
X010667Y017348D01*
X010542Y017400D01*
X010407Y017400D01*
X010282Y017348D01*
X010224Y017291D01*
X010167Y017348D01*
X010141Y017359D01*
X010141Y017413D01*
X010156Y017448D01*
X010141Y017488D01*
X010141Y017531D01*
X010114Y017558D01*
X010100Y017593D01*
X010088Y017599D01*
X015237Y017599D01*
X015084Y017446D01*
X014980Y017195D01*
X014980Y016924D01*
X015084Y016673D01*
X015275Y016482D01*
X015526Y016378D01*
X015797Y016378D01*
X016047Y016482D01*
X016239Y016673D01*
X016343Y016924D01*
X016343Y017195D01*
X016239Y017446D01*
X016086Y017599D01*
X016397Y017599D01*
X016397Y009640D01*
X016299Y009640D01*
X016205Y009600D01*
X016132Y009528D01*
X016093Y009434D01*
X016093Y009331D01*
X016132Y009237D01*
X016205Y009164D01*
X016299Y009125D01*
X016397Y009125D01*
X016397Y009088D01*
X016299Y009088D01*
X016205Y009049D01*
X016132Y008977D01*
X016093Y008882D01*
X016093Y008780D01*
X016132Y008685D01*
X016205Y008613D01*
X016299Y008574D01*
X016397Y008574D01*
X016397Y008557D01*
X016299Y008557D01*
X016205Y008518D01*
X016132Y008445D01*
X016093Y008351D01*
X016093Y008248D01*
X016132Y008154D01*
X016205Y008082D01*
X016299Y008042D01*
X016397Y008042D01*
X016397Y006128D01*
X016391Y006142D01*
X016319Y006215D01*
X016224Y006254D01*
X016122Y006254D01*
X016027Y006215D01*
X015955Y006142D01*
X015916Y006048D01*
X015916Y005945D01*
X015955Y005851D01*
X016027Y005778D01*
X016122Y005739D01*
X016224Y005739D01*
X016319Y005778D01*
X016391Y005851D01*
X016397Y005865D01*
X016397Y002690D01*
X015776Y002690D01*
X014005Y002690D01*
X013889Y002574D01*
X013664Y002350D01*
X013664Y007115D01*
X013716Y007167D01*
X014431Y007167D01*
X014529Y007167D01*
X014620Y007205D01*
X015014Y007598D01*
X015083Y007668D01*
X015121Y007758D01*
X015121Y010306D01*
X015220Y010306D01*
X015315Y010345D01*
X015387Y010418D01*
X015415Y010485D01*
X015443Y010418D01*
X015516Y010345D01*
X015610Y010306D01*
X015713Y010306D01*
X015791Y010339D01*
X015758Y010260D01*
X015758Y010158D01*
X015798Y010063D01*
X015870Y009991D01*
X015965Y009952D01*
X016067Y009952D01*
X016161Y009991D01*
X016234Y010063D01*
X016273Y010158D01*
X016273Y010260D01*
X016234Y010355D01*
X016161Y010427D01*
X016067Y010466D01*
X015965Y010466D01*
X015886Y010434D01*
X015919Y010512D01*
X015919Y010615D01*
X015880Y010709D01*
X015807Y010782D01*
X015713Y010821D01*
X015610Y010821D01*
X015516Y010782D01*
X015443Y010709D01*
X015415Y010642D01*
X015387Y010709D01*
X015315Y010782D01*
X015220Y010821D01*
X015121Y010821D01*
X015121Y010897D01*
X015220Y010897D01*
X015315Y010936D01*
X015387Y011008D01*
X015415Y011076D01*
X015443Y011008D01*
X015516Y010936D01*
X015610Y010897D01*
X015713Y010897D01*
X015807Y010936D01*
X015880Y011008D01*
X015919Y011103D01*
X015919Y011205D01*
X015880Y011300D01*
X015807Y011372D01*
X015713Y011411D01*
X015610Y011411D01*
X015516Y011372D01*
X015443Y011300D01*
X015415Y011232D01*
X015387Y011300D01*
X015315Y011372D01*
X015220Y011411D01*
X015121Y011411D01*
X015121Y012483D01*
X015121Y012581D01*
X015083Y012672D01*
X014788Y012967D01*
X014797Y012977D01*
X014836Y013071D01*
X014836Y013174D01*
X014797Y013268D01*
X014724Y013341D01*
X014630Y013380D01*
X014528Y013380D01*
X014433Y013341D01*
X014424Y013331D01*
X013902Y013853D01*
X013833Y013922D01*
X013742Y013960D01*
X012936Y013960D01*
X012936Y014004D01*
X012803Y014137D01*
X012615Y014137D01*
X012481Y014004D01*
X012481Y013960D01*
X012375Y013960D01*
X012375Y013961D01*
X012336Y014056D01*
X012264Y014128D01*
X012169Y014167D01*
X012067Y014167D01*
X011972Y014128D01*
X011921Y014077D01*
X011870Y014128D01*
X011776Y014167D01*
X011673Y014167D01*
X011579Y014128D01*
X011506Y014056D01*
X011467Y013961D01*
X011467Y013960D01*
X011380Y013960D01*
X011282Y013960D01*
X011191Y013922D01*
X009468Y012199D01*
X009410Y012258D01*
X009315Y012297D01*
X009213Y012297D01*
X009184Y012285D01*
X009187Y012288D01*
X009226Y012382D01*
X009226Y012485D01*
X009187Y012579D01*
X009114Y012652D01*
X009020Y012691D01*
X008917Y012691D01*
X008823Y012652D01*
X008750Y012579D01*
X008711Y012485D01*
X008711Y012382D01*
X008750Y012288D01*
X008801Y012237D01*
X008750Y012186D01*
X008711Y012091D01*
X008711Y011989D01*
X008747Y011901D01*
X008394Y011548D01*
X008066Y011548D01*
X007994Y011548D01*
X008005Y011575D01*
X008005Y011678D01*
X007966Y011772D01*
X007894Y011845D01*
X007799Y011884D01*
X007697Y011884D01*
X007602Y011845D01*
X007530Y011772D01*
X007516Y011739D01*
X007427Y011775D01*
X007321Y011775D01*
X007223Y011735D01*
X007148Y011660D01*
X007107Y011561D01*
X007107Y011455D01*
X007148Y011357D01*
X007223Y011282D01*
X007321Y011241D01*
X007427Y011241D01*
X007525Y011282D01*
X007600Y011357D01*
X007619Y011401D01*
X007697Y011369D01*
X007787Y011369D01*
X007787Y010941D01*
X005639Y008793D01*
X005613Y008767D01*
X005613Y008868D01*
X005554Y009010D01*
X005446Y009118D01*
X005305Y009176D01*
X005152Y009176D01*
X005010Y009118D01*
X004902Y009010D01*
X004844Y008868D01*
X004844Y008715D01*
X004902Y008574D01*
X005010Y008466D01*
X005112Y008424D01*
X005061Y008407D01*
X005001Y008376D01*
X004945Y008336D01*
X004944Y008335D01*
X004944Y008412D01*
X004904Y008510D01*
X004828Y008585D01*
X004730Y008626D01*
X004624Y008626D01*
X004585Y008610D01*
X004629Y008715D01*
X004629Y008868D01*
X004570Y009010D01*
X004462Y009118D01*
X004321Y009176D01*
X004168Y009176D01*
X004026Y009118D01*
X003918Y009010D01*
X003859Y008868D01*
X003859Y008715D01*
X003918Y008574D01*
X004026Y008466D01*
X004168Y008407D01*
X004321Y008407D01*
X004426Y008451D01*
X004410Y008412D01*
X004410Y008352D01*
X004321Y008389D01*
X004168Y008389D01*
X004026Y008330D01*
X003918Y008222D01*
X003880Y008130D01*
X003872Y008150D01*
X003799Y008223D01*
X003705Y008262D01*
X003602Y008262D01*
X003508Y008223D01*
X003435Y008150D01*
X003396Y008056D01*
X003396Y007953D01*
X003435Y007859D01*
X003508Y007786D01*
X003602Y007747D01*
X003705Y007747D01*
X003799Y007786D01*
X003872Y007859D01*
X003880Y007879D01*
X003918Y007786D01*
X004026Y007678D01*
X004168Y007620D01*
X004321Y007620D01*
X004462Y007678D01*
X004570Y007786D01*
X004629Y007928D01*
X004629Y008081D01*
X004624Y008092D01*
X004730Y008092D01*
X004810Y008125D01*
X004804Y008106D01*
X004794Y008039D01*
X004794Y008005D01*
X005228Y008005D01*
X005228Y008004D01*
X004794Y008004D01*
X004794Y007970D01*
X004804Y007903D01*
X004826Y007838D01*
X004857Y007777D01*
X004882Y007741D01*
X004834Y007693D01*
X004834Y007004D01*
X004834Y006840D01*
X004964Y006709D01*
X004902Y006647D01*
X004844Y006506D01*
X004844Y006353D01*
X004902Y006212D01*
X005010Y006104D01*
X005152Y006045D01*
X005305Y006045D01*
X005446Y006104D01*
X005554Y006212D01*
X005562Y006230D01*
X005589Y006203D01*
X005687Y006162D01*
X005793Y006162D01*
X005891Y006203D01*
X005967Y006278D01*
X006007Y006376D01*
X006007Y006483D01*
X005989Y006527D01*
X005999Y006527D01*
X006294Y006823D01*
X006410Y006938D01*
X006410Y007135D01*
X006644Y007369D01*
X006644Y007363D01*
X006638Y007363D01*
X006644Y007363D02*
X006683Y007268D01*
X006756Y007196D01*
X006796Y007179D01*
X006752Y007179D01*
X006657Y007140D01*
X006585Y007067D01*
X006546Y006973D01*
X006546Y006871D01*
X006585Y006776D01*
X006657Y006704D01*
X006752Y006664D01*
X006854Y006664D01*
X006883Y006676D01*
X006880Y006674D01*
X006841Y006579D01*
X006841Y006477D01*
X006880Y006382D01*
X006953Y006310D01*
X007047Y006271D01*
X007150Y006271D01*
X007244Y006310D01*
X007246Y006312D01*
X007248Y006310D01*
X007342Y006271D01*
X007445Y006271D01*
X007539Y006310D01*
X007612Y006382D01*
X007651Y006477D01*
X007651Y006579D01*
X007612Y006674D01*
X007539Y006746D01*
X007445Y006785D01*
X007342Y006785D01*
X007248Y006746D01*
X007246Y006744D01*
X007244Y006746D01*
X007150Y006785D01*
X007047Y006785D01*
X007019Y006774D01*
X007021Y006776D01*
X007060Y006871D01*
X007060Y006973D01*
X007021Y007067D01*
X006949Y007140D01*
X006909Y007157D01*
X006953Y007157D01*
X007047Y007196D01*
X007120Y007268D01*
X007159Y007363D01*
X008354Y007363D01*
X008386Y007376D02*
X008291Y007337D01*
X008219Y007264D01*
X008180Y007170D01*
X008180Y007067D01*
X008219Y006973D01*
X008291Y006900D01*
X008386Y006861D01*
X008488Y006861D01*
X008583Y006900D01*
X008655Y006973D01*
X008694Y007067D01*
X008694Y007170D01*
X008655Y007264D01*
X008583Y007337D01*
X008488Y007376D01*
X008386Y007376D01*
X008520Y007363D02*
X009682Y007363D01*
X009705Y007353D02*
X009610Y007393D01*
X009538Y007465D01*
X009499Y007559D01*
X009499Y007662D01*
X009538Y007756D01*
X009589Y007808D01*
X009538Y007859D01*
X009499Y007953D01*
X009499Y008056D01*
X009538Y008150D01*
X009610Y008223D01*
X009705Y008262D01*
X009807Y008262D01*
X009902Y008223D01*
X009953Y008171D01*
X010004Y008223D01*
X010098Y008262D01*
X010201Y008262D01*
X010295Y008223D01*
X010368Y008150D01*
X010407Y008056D01*
X010407Y007953D01*
X010368Y007859D01*
X010295Y007786D01*
X010201Y007747D01*
X010098Y007747D01*
X010004Y007786D01*
X009953Y007837D01*
X009923Y007808D01*
X009974Y007756D01*
X010013Y007662D01*
X010013Y007559D01*
X009974Y007465D01*
X009902Y007393D01*
X009807Y007353D01*
X009705Y007353D01*
X009830Y007363D02*
X011060Y007363D01*
X011083Y007353D02*
X010988Y007393D01*
X010916Y007465D01*
X010877Y007559D01*
X010877Y007662D01*
X010916Y007756D01*
X010967Y007808D01*
X010916Y007859D01*
X010877Y007953D01*
X010877Y008056D01*
X010916Y008150D01*
X010988Y008223D01*
X011083Y008262D01*
X011185Y008262D01*
X011280Y008223D01*
X011352Y008150D01*
X011391Y008056D01*
X011391Y007953D01*
X011352Y007859D01*
X011301Y007808D01*
X011352Y007756D01*
X011391Y007662D01*
X011391Y007559D01*
X011352Y007465D01*
X011280Y007393D01*
X011185Y007353D01*
X011083Y007353D01*
X011208Y007363D02*
X013198Y007363D01*
X013207Y007354D02*
X012961Y007600D01*
X012959Y007601D01*
X012927Y007634D01*
X012893Y007668D01*
X012892Y007670D01*
X012890Y007672D01*
X012874Y007715D01*
X012856Y007758D01*
X012856Y007761D01*
X012855Y007763D01*
X012856Y007811D01*
X012856Y007857D01*
X012856Y007859D01*
X012907Y010504D01*
X012887Y010457D01*
X012815Y010385D01*
X012720Y010346D01*
X012618Y010346D01*
X012524Y010385D01*
X012463Y010446D01*
X012461Y010444D01*
X012366Y010405D01*
X012264Y010405D01*
X012169Y010444D01*
X012097Y010516D01*
X012058Y010611D01*
X012058Y010713D01*
X012097Y010808D01*
X012169Y010880D01*
X011558Y010880D01*
X011536Y010857D02*
X011608Y010929D01*
X011647Y011024D01*
X011647Y011126D01*
X011608Y011221D01*
X011536Y011293D01*
X011458Y011326D01*
X011667Y011535D01*
X011737Y011605D01*
X011757Y011653D01*
X011780Y011656D01*
X012929Y011687D01*
X012910Y010693D01*
X012887Y010749D01*
X012815Y010821D01*
X012720Y010860D01*
X012618Y010860D01*
X012524Y010821D01*
X012522Y010819D01*
X012461Y010880D01*
X012914Y010880D01*
X012918Y011075D02*
X011647Y011075D01*
X011558Y011271D02*
X012921Y011271D01*
X012925Y011466D02*
X011598Y011466D01*
X011445Y011662D02*
X009082Y011662D01*
X009165Y011745D02*
X008969Y011548D01*
X008969Y011313D01*
X009020Y011313D01*
X009114Y011274D01*
X009187Y011201D01*
X009226Y011107D01*
X009226Y011004D01*
X009187Y010910D01*
X009114Y010837D01*
X009020Y010798D01*
X008969Y010798D01*
X008969Y010760D01*
X009165Y010563D01*
X010346Y010563D01*
X011528Y011745D01*
X011528Y012335D01*
X011764Y011902D01*
X013181Y011941D01*
X013102Y007808D01*
X013496Y007414D01*
X014480Y007414D01*
X014874Y007808D01*
X014874Y012532D01*
X014541Y012865D01*
X014528Y012865D01*
X014433Y012904D01*
X014361Y012977D01*
X014321Y013071D01*
X014321Y013085D01*
X013693Y013713D01*
X012285Y013713D01*
X012264Y013692D01*
X012169Y013653D01*
X012067Y013653D01*
X011972Y013692D01*
X011951Y013713D01*
X011891Y013713D01*
X011943Y013662D01*
X011982Y013567D01*
X011982Y013465D01*
X011943Y013370D01*
X011891Y013319D01*
X011943Y013268D01*
X011982Y013174D01*
X011982Y013071D01*
X011943Y012977D01*
X011891Y012926D01*
X011943Y012875D01*
X011982Y012780D01*
X011982Y012678D01*
X011943Y012583D01*
X011870Y012511D01*
X011776Y012471D01*
X011673Y012471D01*
X011579Y012511D01*
X011506Y012583D01*
X011467Y012678D01*
X011467Y012780D01*
X011506Y012875D01*
X011557Y012926D01*
X011506Y012977D01*
X011467Y013071D01*
X011467Y013174D01*
X011506Y013268D01*
X011557Y013319D01*
X011506Y013370D01*
X011467Y013465D01*
X011467Y013567D01*
X011506Y013662D01*
X011557Y013713D01*
X011331Y013713D01*
X009362Y011745D01*
X009165Y011745D01*
X008969Y011466D02*
X011249Y011466D01*
X011054Y011271D02*
X009117Y011271D01*
X009226Y011075D02*
X010858Y011075D01*
X011012Y010880D02*
X011221Y010880D01*
X011244Y010857D02*
X011339Y010818D01*
X011441Y010818D01*
X011536Y010857D01*
X011244Y010857D02*
X011172Y010929D01*
X011139Y011007D01*
X010486Y010354D01*
X010396Y010317D01*
X010297Y010317D01*
X009592Y010317D01*
X006946Y007671D01*
X006953Y007671D01*
X007047Y007632D01*
X007120Y007560D01*
X007159Y007465D01*
X007159Y007363D01*
X007120Y007558D02*
X009499Y007558D01*
X009537Y007754D02*
X007029Y007754D01*
X007224Y007949D02*
X009500Y007949D01*
X009535Y008144D02*
X007419Y008144D01*
X007615Y008340D02*
X011405Y008340D01*
X011399Y008345D02*
X011475Y008270D01*
X011573Y008229D01*
X011679Y008229D01*
X011777Y008270D01*
X011852Y008345D01*
X011893Y008443D01*
X011893Y008550D01*
X011852Y008648D01*
X011777Y008723D01*
X011679Y008764D01*
X011573Y008764D01*
X011475Y008723D01*
X011399Y008648D01*
X011359Y008550D01*
X011359Y008443D01*
X011399Y008345D01*
X011359Y008535D02*
X010257Y008535D01*
X010269Y008548D02*
X010308Y008642D01*
X010308Y008745D01*
X010269Y008839D01*
X010197Y008911D01*
X010102Y008951D01*
X010000Y008951D01*
X009905Y008911D01*
X009833Y008839D01*
X009794Y008745D01*
X009794Y008642D01*
X009833Y008548D01*
X009905Y008475D01*
X010000Y008436D01*
X010102Y008436D01*
X010197Y008475D01*
X010269Y008548D01*
X010308Y008731D02*
X011493Y008731D01*
X011759Y008731D02*
X012873Y008731D01*
X012877Y008926D02*
X010162Y008926D01*
X009940Y008926D02*
X008201Y008926D01*
X008006Y008731D02*
X009794Y008731D01*
X009845Y008535D02*
X007810Y008535D01*
X008396Y009121D02*
X012881Y009121D01*
X012884Y009317D02*
X012416Y009317D01*
X012435Y009335D02*
X012474Y009430D01*
X012474Y009532D01*
X012435Y009627D01*
X012362Y009699D01*
X012268Y009738D01*
X012165Y009738D01*
X012071Y009699D01*
X011998Y009627D01*
X011959Y009532D01*
X011959Y009430D01*
X011998Y009335D01*
X012071Y009263D01*
X012165Y009223D01*
X012268Y009223D01*
X012362Y009263D01*
X012435Y009335D01*
X012474Y009512D02*
X012888Y009512D01*
X012892Y009708D02*
X012341Y009708D01*
X012092Y009708D02*
X010537Y009708D01*
X010534Y009716D02*
X010594Y009716D01*
X010689Y009755D01*
X010761Y009827D01*
X010801Y009922D01*
X010801Y010024D01*
X010761Y010119D01*
X010689Y010191D01*
X010594Y010230D01*
X010492Y010230D01*
X010398Y010191D01*
X010325Y010119D01*
X010286Y010024D01*
X010286Y009922D01*
X010297Y009896D01*
X010236Y009896D01*
X010142Y009856D01*
X010069Y009784D01*
X010030Y009689D01*
X010030Y009587D01*
X010069Y009492D01*
X010142Y009420D01*
X010236Y009381D01*
X010339Y009381D01*
X010433Y009420D01*
X010506Y009492D01*
X010545Y009587D01*
X010545Y009689D01*
X010534Y009716D01*
X010514Y009512D02*
X011959Y009512D01*
X012017Y009317D02*
X008592Y009317D01*
X008787Y009512D02*
X010061Y009512D01*
X010038Y009708D02*
X008983Y009708D01*
X009178Y009903D02*
X010294Y009903D01*
X010317Y010098D02*
X009373Y010098D01*
X009569Y010294D02*
X012903Y010294D01*
X012901Y010489D02*
X012907Y010489D01*
X013153Y010489D02*
X013740Y010489D01*
X013731Y010512D02*
X013770Y010418D01*
X013842Y010345D01*
X013937Y010306D01*
X014039Y010306D01*
X014134Y010345D01*
X014185Y010396D01*
X014236Y010345D01*
X014331Y010306D01*
X014433Y010306D01*
X014528Y010345D01*
X014600Y010418D01*
X014639Y010512D01*
X014639Y010615D01*
X014600Y010709D01*
X014528Y010782D01*
X014433Y010821D01*
X014331Y010821D01*
X014236Y010782D01*
X014185Y010730D01*
X014134Y010782D01*
X014039Y010821D01*
X013937Y010821D01*
X013842Y010782D01*
X013770Y010709D01*
X013731Y010615D01*
X013731Y010512D01*
X013760Y010685D02*
X013157Y010685D01*
X013161Y010880D02*
X014874Y010880D01*
X014874Y011075D02*
X014628Y011075D01*
X014639Y011103D02*
X014639Y011205D01*
X014600Y011300D01*
X014528Y011372D01*
X014433Y011411D01*
X014331Y011411D01*
X014236Y011372D01*
X014185Y011321D01*
X014134Y011372D01*
X014039Y011411D01*
X013937Y011411D01*
X013842Y011372D01*
X013770Y011300D01*
X013731Y011205D01*
X013731Y011103D01*
X013770Y011008D01*
X013842Y010936D01*
X013937Y010897D01*
X014039Y010897D01*
X014134Y010936D01*
X014185Y010987D01*
X014236Y010936D01*
X014331Y010897D01*
X014433Y010897D01*
X014528Y010936D01*
X014600Y011008D01*
X014639Y011103D01*
X014612Y011271D02*
X014874Y011271D01*
X014874Y011466D02*
X013172Y011466D01*
X013168Y011271D02*
X013758Y011271D01*
X013742Y011075D02*
X013165Y011075D01*
X013176Y011662D02*
X014874Y011662D01*
X014874Y011857D02*
X013179Y011857D01*
X012929Y011662D02*
X011995Y011662D01*
X011682Y012052D02*
X014874Y012052D01*
X014874Y012248D02*
X011575Y012248D01*
X011528Y012248D02*
X009865Y012248D01*
X009712Y012443D02*
X009226Y012443D01*
X009127Y012639D02*
X009907Y012639D01*
X010061Y012443D02*
X014874Y012443D01*
X014767Y012639D02*
X011965Y012639D01*
X011959Y012834D02*
X014572Y012834D01*
X014339Y013029D02*
X011964Y013029D01*
X011961Y013225D02*
X014181Y013225D01*
X014335Y013420D02*
X016397Y013420D01*
X016397Y013225D02*
X014815Y013225D01*
X014819Y013029D02*
X016397Y013029D01*
X016397Y012834D02*
X014921Y012834D01*
X015097Y012639D02*
X016397Y012639D01*
X016397Y012443D02*
X015121Y012443D01*
X015121Y012248D02*
X016397Y012248D01*
X016397Y012052D02*
X015121Y012052D01*
X015121Y011857D02*
X016397Y011857D01*
X016397Y011662D02*
X015121Y011662D01*
X015121Y011466D02*
X016397Y011466D01*
X016397Y011271D02*
X015892Y011271D01*
X015907Y011075D02*
X016397Y011075D01*
X016397Y010880D02*
X015121Y010880D01*
X014874Y010685D02*
X014610Y010685D01*
X014630Y010489D02*
X014874Y010489D01*
X014874Y010294D02*
X013150Y010294D01*
X013146Y010098D02*
X014447Y010098D01*
X014433Y010093D02*
X014361Y010020D01*
X014321Y009926D01*
X014321Y009823D01*
X014361Y009729D01*
X014433Y009656D01*
X014528Y009617D01*
X014630Y009617D01*
X014724Y009656D01*
X014797Y009729D01*
X014836Y009823D01*
X014836Y009926D01*
X014797Y010020D01*
X014724Y010093D01*
X014630Y010132D01*
X014528Y010132D01*
X014433Y010093D01*
X014321Y009903D02*
X013142Y009903D01*
X013139Y009708D02*
X014382Y009708D01*
X014776Y009708D02*
X014874Y009708D01*
X014874Y009903D02*
X014836Y009903D01*
X014874Y010098D02*
X014711Y010098D01*
X015121Y010098D02*
X015783Y010098D01*
X015772Y010294D02*
X015121Y010294D01*
X015121Y009903D02*
X016397Y009903D01*
X016397Y010098D02*
X016248Y010098D01*
X016259Y010294D02*
X016397Y010294D01*
X016397Y010489D02*
X015909Y010489D01*
X015890Y010685D02*
X016397Y010685D01*
X016397Y009708D02*
X015121Y009708D01*
X015121Y009512D02*
X016126Y009512D01*
X016099Y009317D02*
X015121Y009317D01*
X015121Y009121D02*
X016397Y009121D01*
X016111Y008926D02*
X015121Y008926D01*
X015121Y008731D02*
X016114Y008731D01*
X016247Y008535D02*
X015121Y008535D01*
X015121Y008340D02*
X016093Y008340D01*
X016142Y008144D02*
X015121Y008144D01*
X015121Y007949D02*
X016397Y007949D01*
X016397Y007754D02*
X015119Y007754D01*
X014974Y007558D02*
X016397Y007558D01*
X016397Y007363D02*
X014778Y007363D01*
X014625Y007558D02*
X013352Y007558D01*
X013207Y007354D02*
X013170Y007266D01*
X013170Y007168D01*
X013170Y005319D01*
X013077Y005358D01*
X012970Y005358D01*
X012872Y005317D01*
X012797Y005242D01*
X012756Y005144D01*
X012756Y005038D01*
X012797Y004940D01*
X012872Y004865D01*
X012970Y004824D01*
X013077Y004824D01*
X013170Y004863D01*
X013170Y002241D01*
X012775Y001845D01*
X012737Y001754D01*
X012737Y001656D01*
X012737Y001600D01*
X012723Y001615D01*
X012659Y001657D01*
X012588Y001687D01*
X012513Y001702D01*
X012475Y001702D01*
X012475Y001312D01*
X012474Y001312D01*
X012474Y001702D01*
X012436Y001702D01*
X012361Y001687D01*
X012289Y001657D01*
X012226Y001615D01*
X012189Y001578D01*
X012167Y001600D01*
X012068Y001641D01*
X011019Y002690D01*
X010787Y002869D02*
X011654Y002869D01*
X011546Y003064D02*
X009702Y003064D01*
X009702Y003260D02*
X011616Y003260D01*
X012356Y003260D02*
X013170Y003260D01*
X013170Y003455D02*
X009702Y003455D01*
X009702Y003650D02*
X013170Y003650D01*
X013170Y003846D02*
X009702Y003846D01*
X009702Y004041D02*
X013170Y004041D01*
X013170Y004237D02*
X011037Y004237D01*
X011004Y004204D02*
X011076Y004276D01*
X011116Y004371D01*
X011116Y004473D01*
X011076Y004567D01*
X011004Y004640D01*
X010909Y004679D01*
X010807Y004679D01*
X010712Y004640D01*
X010640Y004567D01*
X010601Y004473D01*
X010601Y004371D01*
X010640Y004276D01*
X010712Y004204D01*
X010807Y004164D01*
X010909Y004164D01*
X011004Y004204D01*
X011116Y004432D02*
X013170Y004432D01*
X013170Y004627D02*
X011016Y004627D01*
X010700Y004627D02*
X009989Y004627D01*
X009974Y004591D02*
X010013Y004685D01*
X010013Y004788D01*
X009974Y004882D01*
X009902Y004955D01*
X009807Y004994D01*
X009705Y004994D01*
X009610Y004955D01*
X009538Y004882D01*
X009499Y004788D01*
X009499Y004685D01*
X009538Y004591D01*
X009610Y004519D01*
X009705Y004479D01*
X009807Y004479D01*
X009902Y004519D01*
X009974Y004591D01*
X009999Y004823D02*
X013170Y004823D01*
X012765Y005018D02*
X009461Y005018D01*
X009461Y004823D02*
X009513Y004823D01*
X009523Y004627D02*
X009461Y004627D01*
X009461Y004432D02*
X010601Y004432D01*
X010679Y004237D02*
X009571Y004237D01*
X009207Y004041D02*
X007347Y004041D01*
X007356Y004020D02*
X007317Y004115D01*
X007244Y004187D01*
X007177Y004215D01*
X007244Y004243D01*
X007317Y004315D01*
X007356Y004410D01*
X007356Y004512D01*
X007317Y004607D01*
X007244Y004679D01*
X007177Y004707D01*
X007244Y004735D01*
X007317Y004807D01*
X007356Y004902D01*
X007356Y005004D01*
X007317Y005099D01*
X007244Y005171D01*
X007177Y005199D01*
X007244Y005227D01*
X007317Y005300D01*
X007356Y005394D01*
X007356Y005497D01*
X007317Y005591D01*
X007244Y005663D01*
X007177Y005691D01*
X007244Y005719D01*
X007317Y005792D01*
X007356Y005886D01*
X007356Y005989D01*
X007317Y006083D01*
X007244Y006156D01*
X007150Y006195D01*
X007047Y006195D01*
X006953Y006156D01*
X006880Y006083D01*
X006841Y005989D01*
X006841Y005886D01*
X006880Y005792D01*
X006953Y005719D01*
X007020Y005691D01*
X006953Y005663D01*
X006880Y005591D01*
X006841Y005497D01*
X006841Y005394D01*
X006880Y005300D01*
X006953Y005227D01*
X007020Y005199D01*
X006953Y005171D01*
X006880Y005099D01*
X006841Y005004D01*
X006841Y004902D01*
X006880Y004807D01*
X006953Y004735D01*
X007020Y004707D01*
X006953Y004679D01*
X006880Y004607D01*
X006841Y004512D01*
X006841Y004410D01*
X006880Y004315D01*
X006953Y004243D01*
X007020Y004215D01*
X006953Y004187D01*
X006880Y004115D01*
X006841Y004020D01*
X006841Y003918D01*
X006880Y003823D01*
X006953Y003751D01*
X007020Y003723D01*
X006953Y003695D01*
X006880Y003623D01*
X006841Y003528D01*
X006841Y003426D01*
X006880Y003331D01*
X006953Y003259D01*
X007047Y003220D01*
X007150Y003220D01*
X007244Y003259D01*
X007317Y003331D01*
X007356Y003426D01*
X007356Y003528D01*
X007317Y003623D01*
X007244Y003695D01*
X007177Y003723D01*
X007244Y003751D01*
X007317Y003823D01*
X007356Y003918D01*
X007356Y004020D01*
X007326Y003846D02*
X009306Y003846D01*
X009306Y003650D02*
X009117Y003650D01*
X009127Y003626D02*
X009088Y003721D01*
X009016Y003793D01*
X008921Y003833D01*
X008819Y003833D01*
X008724Y003793D01*
X008652Y003721D01*
X008613Y003626D01*
X008613Y003524D01*
X008652Y003429D01*
X008724Y003357D01*
X008819Y003318D01*
X008921Y003318D01*
X009016Y003357D01*
X009088Y003429D01*
X009127Y003524D01*
X009127Y003626D01*
X009099Y003455D02*
X009306Y003455D01*
X009306Y003260D02*
X007245Y003260D01*
X007356Y003455D02*
X008641Y003455D01*
X008623Y003650D02*
X007289Y003650D01*
X006908Y003650D02*
X005917Y003650D01*
X006027Y003846D02*
X006871Y003846D01*
X006850Y004041D02*
X005967Y004041D01*
X006204Y004237D02*
X006968Y004237D01*
X006841Y004432D02*
X006204Y004432D01*
X006204Y004627D02*
X006901Y004627D01*
X006874Y004823D02*
X006204Y004823D01*
X006204Y005018D02*
X006847Y005018D01*
X006986Y005214D02*
X006204Y005214D01*
X005954Y005409D02*
X006841Y005409D01*
X006894Y005604D02*
X006086Y005604D01*
X006039Y005800D02*
X006877Y005800D01*
X006844Y005995D02*
X005381Y005995D01*
X005533Y006191D02*
X005619Y006191D01*
X005861Y006191D02*
X007037Y006191D01*
X007160Y006191D02*
X007999Y006191D01*
X007996Y006192D02*
X008091Y006153D01*
X008193Y006153D01*
X008287Y006192D01*
X008360Y006264D01*
X008399Y006359D01*
X008399Y006461D01*
X008360Y006556D01*
X008287Y006628D01*
X008193Y006667D01*
X008091Y006667D01*
X007996Y006628D01*
X007924Y006556D01*
X007884Y006461D01*
X007884Y006359D01*
X007924Y006264D01*
X007996Y006192D01*
X007884Y006386D02*
X007613Y006386D01*
X007650Y006581D02*
X007949Y006581D01*
X008220Y006972D02*
X007060Y006972D01*
X007026Y006777D02*
X007022Y006777D01*
X007170Y006777D02*
X007322Y006777D01*
X007466Y006777D02*
X008844Y006777D01*
X008829Y006811D02*
X008868Y006717D01*
X008941Y006645D01*
X009035Y006605D01*
X009138Y006605D01*
X009232Y006645D01*
X009305Y006717D01*
X009344Y006811D01*
X009344Y006914D01*
X009305Y007008D01*
X009232Y007081D01*
X009138Y007120D01*
X009035Y007120D01*
X008941Y007081D01*
X008868Y007008D01*
X008829Y006914D01*
X008829Y006811D01*
X008853Y006972D02*
X008654Y006972D01*
X008694Y007167D02*
X013170Y007167D01*
X013170Y006972D02*
X009320Y006972D01*
X009329Y006777D02*
X013170Y006777D01*
X013170Y006581D02*
X012330Y006581D01*
X012336Y006575D02*
X012264Y006648D01*
X012169Y006687D01*
X012067Y006687D01*
X011972Y006648D01*
X011900Y006575D01*
X011861Y006481D01*
X011861Y006378D01*
X011900Y006284D01*
X011972Y006211D01*
X012067Y006172D01*
X012169Y006172D01*
X012264Y006211D01*
X012336Y006284D01*
X012375Y006378D01*
X012375Y006481D01*
X012336Y006575D01*
X012375Y006386D02*
X013170Y006386D01*
X013170Y006191D02*
X012213Y006191D01*
X012023Y006191D02*
X010506Y006191D01*
X010496Y006195D02*
X010394Y006195D01*
X010299Y006156D01*
X010227Y006083D01*
X010188Y005989D01*
X010188Y005886D01*
X010227Y005792D01*
X010299Y005719D01*
X010394Y005680D01*
X010496Y005680D01*
X010542Y005699D01*
X010542Y005650D01*
X010581Y005555D01*
X010653Y005483D01*
X010748Y005444D01*
X010850Y005444D01*
X010945Y005483D01*
X011017Y005555D01*
X011056Y005650D01*
X011056Y005752D01*
X011017Y005847D01*
X010945Y005919D01*
X010850Y005959D01*
X010748Y005959D01*
X010702Y005940D01*
X010702Y005989D01*
X010663Y006083D01*
X010591Y006156D01*
X010496Y006195D01*
X010383Y006191D02*
X008284Y006191D01*
X008399Y006386D02*
X011861Y006386D01*
X011906Y006581D02*
X008334Y006581D01*
X008180Y007167D02*
X006979Y007167D01*
X006724Y007167D02*
X006443Y007167D01*
X006410Y006972D02*
X006546Y006972D01*
X006585Y006777D02*
X006249Y006777D01*
X006053Y006581D02*
X006842Y006581D01*
X006803Y006626D02*
X006508Y006331D01*
X006213Y006036D01*
X004835Y006036D01*
X004736Y006134D01*
X004736Y007808D01*
X004933Y008004D01*
X005228Y008004D01*
X004951Y008340D02*
X004944Y008340D01*
X004941Y008535D02*
X004878Y008535D01*
X004844Y008731D02*
X004629Y008731D01*
X004605Y008926D02*
X004868Y008926D01*
X005019Y009121D02*
X004453Y009121D01*
X004462Y009253D02*
X004570Y009361D01*
X004629Y009503D01*
X004629Y009656D01*
X004570Y009797D01*
X004462Y009905D01*
X004321Y009964D01*
X004168Y009964D01*
X004026Y009905D01*
X003918Y009797D01*
X003859Y009656D01*
X003859Y009503D01*
X003918Y009361D01*
X004026Y009253D01*
X004168Y009195D01*
X004321Y009195D01*
X004462Y009253D01*
X004526Y009317D02*
X004947Y009317D01*
X004902Y009361D02*
X005010Y009253D01*
X005152Y009195D01*
X005305Y009195D01*
X005446Y009253D01*
X005554Y009361D01*
X005613Y009503D01*
X005613Y009656D01*
X005554Y009797D01*
X005446Y009905D01*
X005305Y009964D01*
X005152Y009964D01*
X005010Y009905D01*
X004902Y009797D01*
X004844Y009656D01*
X004844Y009503D01*
X004902Y009361D01*
X004844Y009512D02*
X004629Y009512D01*
X004607Y009708D02*
X004865Y009708D01*
X005008Y009903D02*
X004464Y009903D01*
X004587Y010503D02*
X004689Y010503D01*
X004784Y010542D01*
X004856Y010615D01*
X004895Y010709D01*
X004895Y010811D01*
X004856Y010906D01*
X004784Y010978D01*
X004689Y011018D01*
X004587Y011018D01*
X004492Y010978D01*
X004420Y010906D01*
X004380Y010811D01*
X004380Y010709D01*
X004420Y010615D01*
X004492Y010542D01*
X004587Y010503D01*
X004391Y010685D02*
X003251Y010685D01*
X003251Y010880D02*
X004409Y010880D01*
X004867Y010880D02*
X007726Y010880D01*
X007787Y011075D02*
X003251Y011075D01*
X003445Y011271D02*
X007249Y011271D01*
X007107Y011466D02*
X003641Y011466D01*
X003251Y010489D02*
X007335Y010489D01*
X007140Y010294D02*
X006295Y010294D01*
X006280Y010309D02*
X006352Y010237D01*
X006391Y010142D01*
X006391Y010040D01*
X006390Y010037D01*
X006398Y010034D01*
X006470Y009961D01*
X006509Y009867D01*
X006509Y009764D01*
X006470Y009670D01*
X006398Y009597D01*
X006303Y009558D01*
X006201Y009558D01*
X006106Y009597D01*
X006034Y009670D01*
X005995Y009764D01*
X005995Y009867D01*
X005996Y009870D01*
X005988Y009873D01*
X005916Y009945D01*
X005877Y010040D01*
X005877Y010142D01*
X005916Y010237D01*
X005988Y010309D01*
X006083Y010348D01*
X006185Y010348D01*
X006280Y010309D01*
X006391Y010098D02*
X006944Y010098D01*
X006749Y009903D02*
X006494Y009903D01*
X006486Y009708D02*
X006554Y009708D01*
X006358Y009512D02*
X005613Y009512D01*
X005591Y009708D02*
X006018Y009708D01*
X005958Y009903D02*
X005449Y009903D01*
X005877Y010098D02*
X003251Y010098D01*
X003251Y009903D02*
X004024Y009903D01*
X003881Y009708D02*
X003251Y009708D01*
X003251Y009512D02*
X003859Y009512D01*
X003962Y009317D02*
X003251Y009317D01*
X003251Y009121D02*
X004035Y009121D01*
X003883Y008926D02*
X003251Y008926D01*
X003251Y008731D02*
X003859Y008731D01*
X003957Y008535D02*
X003251Y008535D01*
X003251Y008340D02*
X004049Y008340D01*
X003886Y008144D02*
X003874Y008144D01*
X003951Y007754D02*
X003721Y007754D01*
X003586Y007754D02*
X003251Y007754D01*
X003251Y007949D02*
X003398Y007949D01*
X003433Y008144D02*
X003251Y008144D01*
X003251Y007558D02*
X004063Y007558D01*
X004026Y007543D02*
X003918Y007435D01*
X003859Y007294D01*
X003859Y007140D01*
X003918Y006999D01*
X004026Y006891D01*
X004168Y006832D01*
X004321Y006832D01*
X004462Y006891D01*
X004570Y006999D01*
X004629Y007140D01*
X004629Y007294D01*
X004570Y007435D01*
X004462Y007543D01*
X004321Y007602D01*
X004168Y007602D01*
X004026Y007543D01*
X003888Y007363D02*
X003251Y007363D01*
X003251Y007167D02*
X003859Y007167D01*
X003945Y006972D02*
X003251Y006972D01*
X003251Y006777D02*
X004077Y006777D01*
X004026Y006756D02*
X004168Y006814D01*
X004321Y006814D01*
X004462Y006756D01*
X004570Y006647D01*
X004629Y006506D01*
X004629Y006353D01*
X004570Y006212D01*
X004462Y006104D01*
X004321Y006045D01*
X004168Y006045D01*
X004026Y006104D01*
X003918Y006212D01*
X003859Y006353D01*
X003859Y006506D01*
X003918Y006647D01*
X004026Y006756D01*
X003891Y006581D02*
X003251Y006581D01*
X003293Y006386D02*
X003859Y006386D01*
X003939Y006191D02*
X003425Y006191D01*
X003557Y005995D02*
X004091Y005995D01*
X003893Y005800D02*
X003689Y005800D01*
X003822Y005604D02*
X003859Y005604D01*
X004397Y005995D02*
X005075Y005995D01*
X004923Y006191D02*
X004549Y006191D01*
X004629Y006386D02*
X004844Y006386D01*
X004875Y006581D02*
X004598Y006581D01*
X004411Y006777D02*
X004897Y006777D01*
X004834Y006972D02*
X004543Y006972D01*
X004629Y007167D02*
X004834Y007167D01*
X004834Y007363D02*
X004600Y007363D01*
X004425Y007558D02*
X004834Y007558D01*
X004873Y007754D02*
X004537Y007754D01*
X004629Y007949D02*
X004797Y007949D01*
X005589Y008926D02*
X005772Y008926D01*
X005967Y009121D02*
X005438Y009121D01*
X005510Y009317D02*
X006163Y009317D01*
X005973Y010294D02*
X003251Y010294D01*
X004885Y010685D02*
X007531Y010685D01*
X007499Y011271D02*
X007787Y011271D01*
X008005Y011662D02*
X008508Y011662D01*
X008439Y011796D02*
X008478Y011890D01*
X008478Y011993D01*
X008439Y012087D01*
X008366Y012160D01*
X008272Y012199D01*
X008169Y012199D01*
X008075Y012160D01*
X008002Y012087D01*
X007963Y011993D01*
X007963Y011890D01*
X008002Y011796D01*
X008075Y011723D01*
X008169Y011684D01*
X008272Y011684D01*
X008366Y011723D01*
X008439Y011796D01*
X008464Y011857D02*
X008703Y011857D01*
X008711Y012052D02*
X008453Y012052D01*
X008790Y012248D02*
X005406Y012248D01*
X005211Y012052D02*
X007988Y012052D01*
X007977Y011857D02*
X007864Y011857D01*
X007632Y011857D02*
X005016Y011857D01*
X004820Y011662D02*
X007149Y011662D01*
X008232Y013003D02*
X008327Y012964D01*
X008429Y012964D01*
X008524Y013003D01*
X008596Y013075D01*
X008635Y013170D01*
X008635Y013272D01*
X008596Y013367D01*
X008524Y013439D01*
X008429Y013478D01*
X008327Y013478D01*
X008232Y013439D01*
X008160Y013367D01*
X008121Y013272D01*
X008121Y013170D01*
X008160Y013075D01*
X008232Y013003D01*
X008206Y013029D02*
X005613Y013029D01*
X005613Y012834D02*
X010102Y012834D01*
X010256Y012639D02*
X011483Y012639D01*
X011489Y012834D02*
X010452Y012834D01*
X010298Y013029D02*
X008550Y013029D01*
X008635Y013225D02*
X010493Y013225D01*
X010647Y013029D02*
X011484Y013029D01*
X011488Y013225D02*
X010842Y013225D01*
X010689Y013420D02*
X008543Y013420D01*
X008213Y013420D02*
X007540Y013420D01*
X007553Y013390D02*
X007513Y013485D01*
X007441Y013557D01*
X007346Y013596D01*
X007244Y013596D01*
X007149Y013557D01*
X007077Y013485D01*
X007038Y013390D01*
X007038Y013288D01*
X007077Y013193D01*
X007149Y013121D01*
X007244Y013082D01*
X007346Y013082D01*
X007441Y013121D01*
X007513Y013193D01*
X007553Y013288D01*
X007553Y013390D01*
X007526Y013225D02*
X008121Y013225D01*
X007835Y013692D02*
X007740Y013653D01*
X007638Y013653D01*
X007543Y013692D01*
X007471Y013764D01*
X007432Y013859D01*
X007432Y013961D01*
X007471Y014056D01*
X007543Y014128D01*
X007638Y014167D01*
X007740Y014167D01*
X007835Y014128D01*
X007907Y014056D01*
X007946Y013961D01*
X007946Y013859D01*
X007907Y013764D01*
X007835Y013692D01*
X007926Y013811D02*
X011079Y013811D01*
X011233Y013615D02*
X011487Y013615D01*
X011486Y013420D02*
X011038Y013420D01*
X010884Y013615D02*
X006184Y013615D01*
X006379Y013811D02*
X007451Y013811D01*
X007450Y014006D02*
X006574Y014006D01*
X006770Y014202D02*
X016397Y014202D01*
X016397Y014397D02*
X006965Y014397D01*
X007161Y014592D02*
X016397Y014592D01*
X016397Y014788D02*
X014147Y014788D01*
X014134Y014774D02*
X014206Y014847D01*
X014245Y014941D01*
X014245Y015044D01*
X014206Y015138D01*
X014134Y015211D01*
X014039Y015250D01*
X013937Y015250D01*
X013842Y015211D01*
X013770Y015138D01*
X013731Y015044D01*
X013731Y014941D01*
X013770Y014847D01*
X013842Y014774D01*
X013937Y014735D01*
X014039Y014735D01*
X014134Y014774D01*
X014245Y014983D02*
X015231Y014983D01*
X015246Y014945D02*
X015319Y014873D01*
X015413Y014834D01*
X015516Y014834D01*
X015610Y014873D01*
X015683Y014945D01*
X015722Y015040D01*
X015722Y015142D01*
X015683Y015237D01*
X015610Y015309D01*
X015516Y015348D01*
X015413Y015348D01*
X015319Y015309D01*
X015246Y015237D01*
X015207Y015142D01*
X015207Y015040D01*
X015246Y014945D01*
X015118Y015070D02*
X015191Y015142D01*
X015230Y015237D01*
X015230Y015339D01*
X015191Y015434D01*
X015118Y015506D01*
X015024Y015545D01*
X014921Y015545D01*
X014827Y015506D01*
X014754Y015434D01*
X014715Y015339D01*
X014715Y015237D01*
X014754Y015142D01*
X014827Y015070D01*
X014921Y015031D01*
X015024Y015031D01*
X015118Y015070D01*
X015206Y015179D02*
X015222Y015179D01*
X015215Y015374D02*
X016397Y015374D01*
X016397Y015179D02*
X015707Y015179D01*
X015698Y014983D02*
X016397Y014983D01*
X016397Y015569D02*
X010921Y015569D01*
X010886Y015604D02*
X010791Y015644D01*
X010689Y015644D01*
X010594Y015604D01*
X010522Y015532D01*
X010483Y015437D01*
X010483Y015335D01*
X010522Y015241D01*
X010594Y015168D01*
X010689Y015129D01*
X010791Y015129D01*
X010886Y015168D01*
X010958Y015241D01*
X010997Y015335D01*
X010997Y015437D01*
X010958Y015532D01*
X010886Y015604D01*
X010791Y015720D02*
X010886Y015759D01*
X010888Y015761D01*
X010890Y015759D01*
X010984Y015720D01*
X011087Y015720D01*
X011181Y015759D01*
X011254Y015831D01*
X011293Y015926D01*
X011293Y016028D01*
X011254Y016123D01*
X011181Y016195D01*
X011087Y016234D01*
X010984Y016234D01*
X010890Y016195D01*
X010888Y016193D01*
X010886Y016195D01*
X010791Y016234D01*
X010689Y016234D01*
X010594Y016195D01*
X010522Y016123D01*
X010483Y016028D01*
X010483Y015926D01*
X010522Y015831D01*
X010594Y015759D01*
X010689Y015720D01*
X010791Y015720D01*
X010997Y015374D02*
X014730Y015374D01*
X014739Y015179D02*
X014166Y015179D01*
X013810Y015179D02*
X010896Y015179D01*
X010584Y015179D02*
X007747Y015179D01*
X007551Y014983D02*
X013731Y014983D01*
X013829Y014788D02*
X007356Y014788D01*
X007928Y014006D02*
X011486Y014006D01*
X011962Y013615D02*
X013790Y013615D01*
X013944Y013811D02*
X016397Y013811D01*
X016397Y014006D02*
X012934Y014006D01*
X012484Y014006D02*
X012357Y014006D01*
X011963Y013420D02*
X013986Y013420D01*
X014140Y013615D02*
X016397Y013615D01*
X016397Y015765D02*
X011187Y015765D01*
X011293Y015960D02*
X013560Y015960D01*
X013573Y015929D02*
X013646Y015857D01*
X013740Y015818D01*
X013843Y015818D01*
X013937Y015857D01*
X014009Y015929D01*
X014049Y016024D01*
X014049Y016126D01*
X014009Y016221D01*
X013937Y016293D01*
X013843Y016333D01*
X013740Y016333D01*
X013646Y016293D01*
X013573Y016221D01*
X013534Y016126D01*
X013534Y016024D01*
X013573Y015929D01*
X013546Y016156D02*
X011221Y016156D01*
X011097Y016742D02*
X011352Y016742D01*
X011597Y016742D02*
X011852Y016742D01*
X012097Y016742D02*
X012352Y016742D01*
X012597Y016742D02*
X012852Y016742D01*
X013097Y016742D02*
X013352Y016742D01*
X013597Y016742D02*
X013852Y016742D01*
X014097Y016742D02*
X015055Y016742D01*
X014980Y016937D02*
X014292Y016937D01*
X014313Y017133D02*
X014980Y017133D01*
X015035Y017328D02*
X014187Y017328D01*
X013762Y017328D02*
X013687Y017328D01*
X013262Y017328D02*
X013187Y017328D01*
X012762Y017328D02*
X012687Y017328D01*
X012262Y017328D02*
X012187Y017328D01*
X011762Y017328D02*
X011687Y017328D01*
X011262Y017328D02*
X011187Y017328D01*
X010762Y017328D02*
X010687Y017328D01*
X010262Y017328D02*
X010187Y017328D01*
X010141Y017523D02*
X015161Y017523D01*
X014744Y016628D02*
X014650Y016667D01*
X014547Y016667D01*
X014453Y016628D01*
X014380Y016556D01*
X014341Y016461D01*
X014341Y016359D01*
X014380Y016264D01*
X014453Y016192D01*
X014547Y016153D01*
X014650Y016153D01*
X014744Y016192D01*
X014817Y016264D01*
X014856Y016359D01*
X014856Y016461D01*
X014817Y016556D01*
X014744Y016628D01*
X014820Y016546D02*
X015211Y016546D01*
X014852Y016351D02*
X016397Y016351D01*
X016397Y016546D02*
X016112Y016546D01*
X016267Y016742D02*
X016397Y016742D01*
X016397Y016937D02*
X016343Y016937D01*
X016343Y017133D02*
X016397Y017133D01*
X016397Y017328D02*
X016288Y017328D01*
X016397Y017523D02*
X016161Y017523D01*
X016397Y016156D02*
X014657Y016156D01*
X014540Y016156D02*
X014037Y016156D01*
X014022Y015960D02*
X016397Y015960D01*
X014344Y016351D02*
X010141Y016351D01*
X010141Y016156D02*
X010555Y016156D01*
X010483Y015960D02*
X010141Y015960D01*
X010105Y015765D02*
X010588Y015765D01*
X010559Y015569D02*
X009909Y015569D01*
X009714Y015374D02*
X010483Y015374D01*
X010141Y016546D02*
X014376Y016546D01*
X010852Y016742D02*
X010597Y016742D01*
X010352Y016742D02*
X010141Y016742D01*
X007263Y016620D02*
X004800Y015672D01*
X001763Y015672D01*
X001607Y015672D01*
X001497Y015562D01*
X001497Y015036D01*
X001467Y015023D01*
X001359Y014915D01*
X001300Y014774D01*
X001300Y014621D01*
X001359Y014479D01*
X001467Y014371D01*
X001497Y014359D01*
X001497Y014248D01*
X001467Y014236D01*
X001359Y014128D01*
X001300Y013986D01*
X001300Y013833D01*
X001359Y013692D01*
X001467Y013584D01*
X001497Y013571D01*
X001497Y013461D01*
X001467Y013449D01*
X001359Y013340D01*
X001300Y013199D01*
X001300Y013046D01*
X001359Y012905D01*
X001467Y012796D01*
X001497Y012784D01*
X001497Y008336D01*
X001463Y008350D01*
X001356Y008350D01*
X001292Y008324D01*
X001292Y008429D01*
X001313Y008449D01*
X001352Y008544D01*
X001352Y008646D01*
X001313Y008741D01*
X001292Y008761D01*
X001292Y016945D01*
X001176Y017060D01*
X001013Y017060D01*
X000752Y017060D01*
X000752Y017599D01*
X007363Y017599D01*
X007210Y017446D01*
X007106Y017195D01*
X007106Y016924D01*
X007210Y016673D01*
X007263Y016620D01*
X007181Y016742D02*
X004580Y016742D01*
X004587Y016726D02*
X004580Y016724D01*
X004580Y016815D01*
X004541Y016910D01*
X004469Y016982D01*
X004374Y017022D01*
X004272Y017022D01*
X004177Y016982D01*
X004105Y016910D01*
X004066Y016815D01*
X004066Y016713D01*
X004105Y016618D01*
X004177Y016546D01*
X004272Y016507D01*
X004374Y016507D01*
X004380Y016510D01*
X004380Y016428D01*
X004374Y016431D01*
X004272Y016431D01*
X004177Y016392D01*
X004105Y016319D01*
X004066Y016225D01*
X004066Y016122D01*
X004105Y016028D01*
X004177Y015956D01*
X004272Y015916D01*
X004374Y015916D01*
X004469Y015956D01*
X004541Y016028D01*
X004580Y016122D01*
X004580Y016214D01*
X004587Y016212D01*
X004689Y016212D01*
X004784Y016251D01*
X004856Y016323D01*
X004895Y016418D01*
X004895Y016520D01*
X004856Y016615D01*
X004784Y016687D01*
X004689Y016726D01*
X004587Y016726D01*
X004514Y016937D02*
X007106Y016937D01*
X007106Y017133D02*
X000752Y017133D01*
X000752Y017328D02*
X007161Y017328D01*
X007287Y017523D02*
X000752Y017523D01*
X001292Y016937D02*
X004132Y016937D01*
X004066Y016742D02*
X001292Y016742D01*
X001292Y016546D02*
X004177Y016546D01*
X004136Y016351D02*
X001292Y016351D01*
X001292Y016156D02*
X004066Y016156D01*
X004172Y015960D02*
X001292Y015960D01*
X001292Y015765D02*
X005040Y015765D01*
X004867Y016351D02*
X006564Y016351D01*
X007072Y016546D02*
X004884Y016546D01*
X004580Y016156D02*
X006056Y016156D01*
X005548Y015960D02*
X004473Y015960D01*
X005988Y013420D02*
X007050Y013420D01*
X007064Y013225D02*
X005793Y013225D01*
X005613Y012639D02*
X008810Y012639D01*
X008711Y012443D02*
X005602Y012443D01*
X009044Y010685D02*
X010468Y010685D01*
X010621Y010489D02*
X012124Y010489D01*
X012058Y010685D02*
X010817Y010685D01*
X010663Y010880D02*
X009157Y010880D01*
X009475Y011857D02*
X011528Y011857D01*
X011528Y012052D02*
X009670Y012052D01*
X009516Y012248D02*
X009420Y012248D01*
X010770Y010098D02*
X012899Y010098D01*
X012895Y009903D02*
X010793Y009903D01*
X012169Y010880D02*
X012264Y010919D01*
X012366Y010919D01*
X012461Y010880D01*
X013135Y009512D02*
X014874Y009512D01*
X014874Y009317D02*
X013131Y009317D01*
X013127Y009121D02*
X014874Y009121D01*
X014874Y008926D02*
X013124Y008926D01*
X013120Y008731D02*
X014874Y008731D01*
X014874Y008535D02*
X013116Y008535D01*
X013112Y008340D02*
X014874Y008340D01*
X014874Y008144D02*
X013109Y008144D01*
X013105Y007949D02*
X014874Y007949D01*
X014820Y007754D02*
X013156Y007754D01*
X013003Y007558D02*
X011391Y007558D01*
X011353Y007754D02*
X012857Y007754D01*
X012858Y007949D02*
X012378Y007949D01*
X012366Y007944D02*
X012461Y007983D01*
X012533Y008055D01*
X012572Y008150D01*
X012572Y008252D01*
X012533Y008347D01*
X012461Y008419D01*
X012366Y008459D01*
X012264Y008459D01*
X012169Y008419D01*
X012097Y008347D01*
X012058Y008252D01*
X012058Y008150D01*
X012097Y008055D01*
X012169Y007983D01*
X012264Y007944D01*
X012366Y007944D01*
X012251Y007949D02*
X011389Y007949D01*
X011354Y008144D02*
X012060Y008144D01*
X012094Y008340D02*
X011847Y008340D01*
X011893Y008535D02*
X012869Y008535D01*
X012866Y008340D02*
X012536Y008340D01*
X012570Y008144D02*
X012862Y008144D01*
X013772Y007571D02*
X013417Y007217D01*
X013417Y002138D01*
X012984Y001705D01*
X012984Y001311D01*
X012974Y001311D01*
X012737Y001696D02*
X012540Y001696D01*
X012475Y001696D02*
X012474Y001696D01*
X012409Y001696D02*
X012013Y001696D01*
X011817Y001892D02*
X012822Y001892D01*
X013017Y002087D02*
X012609Y002087D01*
X012399Y002087D02*
X011622Y002087D01*
X011426Y002283D02*
X012124Y002283D01*
X012060Y002478D02*
X011231Y002478D01*
X010221Y002869D02*
X009787Y002869D01*
X010012Y002591D02*
X010012Y002276D01*
X009638Y001902D01*
X009165Y001902D01*
X008673Y002394D01*
X007295Y002394D01*
X005917Y001311D01*
X004638Y001311D01*
X003260Y002493D01*
X003260Y002886D01*
X003859Y003203D02*
X003918Y003062D01*
X004026Y002954D01*
X004168Y002895D01*
X004321Y002895D01*
X004462Y002954D01*
X004489Y002981D01*
X004489Y002791D01*
X004462Y002819D01*
X004321Y002877D01*
X004168Y002877D01*
X004026Y002819D01*
X003918Y002710D01*
X003910Y002690D01*
X001292Y002690D01*
X001292Y003906D01*
X001356Y003879D01*
X001463Y003879D01*
X001561Y003920D01*
X001636Y003995D01*
X001677Y004093D01*
X001677Y004199D01*
X001636Y004297D01*
X001564Y004370D01*
X001608Y004414D01*
X001647Y004508D01*
X001647Y004611D01*
X001608Y004705D01*
X001583Y004730D01*
X001636Y004782D01*
X001677Y004880D01*
X001677Y004987D01*
X001636Y005085D01*
X001561Y005160D01*
X001463Y005201D01*
X001356Y005201D01*
X001292Y005174D01*
X001292Y005208D01*
X001339Y005227D01*
X001411Y005300D01*
X001450Y005394D01*
X001450Y005497D01*
X001411Y005591D01*
X001339Y005663D01*
X001292Y005683D01*
X001292Y006976D01*
X001356Y006950D01*
X001463Y006950D01*
X001514Y006971D01*
X001537Y005604D01*
X001534Y005531D01*
X001538Y005527D01*
X001538Y005522D01*
X001590Y005471D01*
X002716Y004271D01*
X002716Y004270D01*
X002767Y004216D01*
X002822Y004158D01*
X002823Y004158D01*
X002823Y004157D01*
X002898Y004155D01*
X002977Y004153D01*
X002978Y004153D01*
X003859Y004131D01*
X003859Y003991D01*
X003918Y003849D01*
X004026Y003741D01*
X004168Y003683D01*
X004321Y003683D01*
X004462Y003741D01*
X004489Y003769D01*
X004489Y003579D01*
X004462Y003606D01*
X004321Y003665D01*
X004168Y003665D01*
X004026Y003606D01*
X003918Y003498D01*
X003859Y003356D01*
X003859Y003203D01*
X003859Y003260D02*
X001292Y003260D01*
X001292Y003455D02*
X003900Y003455D01*
X004133Y003650D02*
X001292Y003650D01*
X001292Y003846D02*
X003922Y003846D01*
X003859Y004041D02*
X001655Y004041D01*
X001661Y004237D02*
X002748Y004237D01*
X002565Y004432D02*
X001615Y004432D01*
X001640Y004627D02*
X002381Y004627D01*
X002198Y004823D02*
X001653Y004823D01*
X001664Y005018D02*
X002015Y005018D01*
X001832Y005214D02*
X001306Y005214D01*
X001450Y005409D02*
X001649Y005409D01*
X001537Y005604D02*
X001398Y005604D01*
X001292Y005800D02*
X001533Y005800D01*
X001530Y005995D02*
X001292Y005995D01*
X001292Y006191D02*
X001527Y006191D01*
X001524Y006386D02*
X001292Y006386D01*
X001292Y006581D02*
X001521Y006581D01*
X001517Y006777D02*
X001292Y006777D01*
X001292Y006972D02*
X001303Y006972D01*
X001094Y006626D02*
X002472Y006626D01*
X001094Y006626D02*
X001094Y008201D01*
X001390Y008497D01*
X001390Y009481D01*
X001094Y010308D01*
X001292Y010294D02*
X001497Y010294D01*
X001497Y010489D02*
X001292Y010489D01*
X001292Y010685D02*
X001497Y010685D01*
X001497Y010880D02*
X001292Y010880D01*
X001292Y011075D02*
X001497Y011075D01*
X001497Y011271D02*
X001292Y011271D01*
X001292Y011466D02*
X001497Y011466D01*
X001497Y011662D02*
X001292Y011662D01*
X001292Y011857D02*
X001497Y011857D01*
X001497Y012052D02*
X001292Y012052D01*
X001292Y012248D02*
X001497Y012248D01*
X001497Y012443D02*
X001292Y012443D01*
X001292Y012639D02*
X001497Y012639D01*
X001430Y012834D02*
X001292Y012834D01*
X001292Y013029D02*
X001307Y013029D01*
X001292Y013225D02*
X001311Y013225D01*
X001292Y013420D02*
X001439Y013420D01*
X001435Y013615D02*
X001292Y013615D01*
X001292Y013811D02*
X001310Y013811D01*
X001292Y014006D02*
X001309Y014006D01*
X001292Y014202D02*
X001433Y014202D01*
X001441Y014397D02*
X001292Y014397D01*
X001292Y014592D02*
X001312Y014592D01*
X001306Y014788D02*
X001292Y014788D01*
X001292Y014983D02*
X001427Y014983D01*
X001497Y015179D02*
X001292Y015179D01*
X001292Y015374D02*
X001497Y015374D01*
X001504Y015569D02*
X001292Y015569D01*
X001292Y010098D02*
X001497Y010098D01*
X001497Y009903D02*
X001292Y009903D01*
X001292Y009708D02*
X001497Y009708D01*
X001497Y009512D02*
X001292Y009512D01*
X001292Y009317D02*
X001497Y009317D01*
X001497Y009121D02*
X001292Y009121D01*
X001292Y008926D02*
X001497Y008926D01*
X001497Y008731D02*
X001317Y008731D01*
X001348Y008535D02*
X001497Y008535D01*
X001488Y008340D02*
X001497Y008340D01*
X001331Y008340D02*
X001292Y008340D01*
X004736Y004363D02*
X004736Y002197D01*
X004953Y002020D01*
X005661Y002020D01*
X005976Y001823D01*
X006134Y001823D01*
X007394Y002788D01*
X008965Y002788D01*
X009496Y002532D01*
X009306Y003064D02*
X007003Y003064D01*
X006952Y003260D02*
X005613Y003260D01*
X005572Y003455D02*
X006841Y003455D01*
X006603Y003064D02*
X005555Y003064D01*
X005325Y002869D02*
X006536Y002869D01*
X007070Y002869D02*
X007093Y002869D01*
X007229Y004237D02*
X009066Y004237D01*
X009066Y004432D02*
X007356Y004432D01*
X007296Y004627D02*
X009066Y004627D01*
X009066Y004823D02*
X007323Y004823D01*
X007350Y005018D02*
X009066Y005018D01*
X009066Y005214D02*
X007211Y005214D01*
X007356Y005409D02*
X009086Y005409D01*
X009281Y005604D02*
X007303Y005604D01*
X007320Y005800D02*
X009476Y005800D01*
X009628Y005995D02*
X007353Y005995D01*
X006879Y006386D02*
X006007Y006386D01*
X005599Y005800D02*
X005579Y005800D01*
X005539Y005409D02*
X005684Y005409D01*
X005602Y003650D02*
X005339Y003650D01*
X005118Y003650D02*
X004983Y003650D01*
X004489Y003650D02*
X004355Y003650D01*
X003917Y003064D02*
X001292Y003064D01*
X001292Y002869D02*
X004147Y002869D01*
X004341Y002869D02*
X004489Y002869D01*
X004983Y002869D02*
X005132Y002869D01*
X009461Y005214D02*
X012785Y005214D01*
X013170Y005409D02*
X009645Y005409D01*
X009840Y005604D02*
X010561Y005604D01*
X010223Y005800D02*
X010104Y005800D01*
X010120Y005995D02*
X010190Y005995D01*
X010700Y005995D02*
X013170Y005995D01*
X013170Y005800D02*
X011571Y005800D01*
X011557Y005833D02*
X011482Y005908D01*
X011384Y005949D01*
X011278Y005949D01*
X011179Y005908D01*
X011104Y005833D01*
X011064Y005735D01*
X011064Y005628D01*
X011104Y005530D01*
X011179Y005455D01*
X011278Y005414D01*
X011384Y005414D01*
X011482Y005455D01*
X011557Y005530D01*
X011598Y005628D01*
X011598Y005735D01*
X011557Y005833D01*
X011588Y005604D02*
X013170Y005604D01*
X013664Y005604D02*
X016397Y005604D01*
X016280Y005467D02*
X016185Y005506D01*
X016083Y005506D01*
X015988Y005467D01*
X015916Y005394D01*
X015877Y005300D01*
X015877Y005197D01*
X015916Y005103D01*
X015988Y005030D01*
X016083Y004991D01*
X016185Y004991D01*
X016280Y005030D01*
X016352Y005103D01*
X016391Y005197D01*
X016391Y005300D01*
X016352Y005394D01*
X016280Y005467D01*
X016337Y005409D02*
X016397Y005409D01*
X016391Y005214D02*
X016397Y005214D01*
X016397Y005018D02*
X016250Y005018D01*
X016018Y005018D02*
X013664Y005018D01*
X013664Y004823D02*
X016397Y004823D01*
X016397Y004627D02*
X013664Y004627D01*
X013664Y004432D02*
X016397Y004432D01*
X016397Y004237D02*
X015745Y004237D01*
X015761Y004197D02*
X015722Y004292D01*
X015650Y004364D01*
X015555Y004403D01*
X015453Y004403D01*
X015358Y004364D01*
X015286Y004292D01*
X015247Y004197D01*
X015247Y004095D01*
X015286Y004000D01*
X015358Y003928D01*
X015453Y003889D01*
X015555Y003889D01*
X015650Y003928D01*
X015722Y004000D01*
X015761Y004095D01*
X015761Y004197D01*
X015739Y004041D02*
X016397Y004041D01*
X016397Y003846D02*
X013664Y003846D01*
X013664Y004041D02*
X015269Y004041D01*
X015263Y004237D02*
X013664Y004237D01*
X013664Y003650D02*
X016397Y003650D01*
X016397Y003455D02*
X014827Y003455D01*
X014823Y003459D02*
X014728Y003498D01*
X014626Y003498D01*
X014531Y003459D01*
X014459Y003386D01*
X014420Y003292D01*
X014420Y003189D01*
X014459Y003095D01*
X014531Y003022D01*
X014626Y002983D01*
X014728Y002983D01*
X014823Y003022D01*
X014895Y003095D01*
X014934Y003189D01*
X014934Y003292D01*
X014895Y003386D01*
X014823Y003459D01*
X014934Y003260D02*
X016397Y003260D01*
X016397Y003064D02*
X014865Y003064D01*
X014490Y003064D02*
X013664Y003064D01*
X013664Y002869D02*
X016397Y002869D01*
X014528Y003455D02*
X013664Y003455D01*
X013664Y003260D02*
X014420Y003260D01*
X013988Y002673D02*
X013664Y002673D01*
X013664Y002478D02*
X013793Y002478D01*
X013170Y002478D02*
X012948Y002478D01*
X012922Y002673D02*
X013170Y002673D01*
X013170Y002869D02*
X012787Y002869D01*
X013170Y003064D02*
X012356Y003064D01*
X012884Y002283D02*
X013170Y002283D01*
X012474Y001501D02*
X012475Y001501D01*
X013664Y005214D02*
X015877Y005214D01*
X015930Y005409D02*
X013664Y005409D01*
X013664Y005800D02*
X016006Y005800D01*
X015916Y005995D02*
X013664Y005995D01*
X013664Y006191D02*
X016003Y006191D01*
X016343Y006191D02*
X016397Y006191D01*
X016397Y006386D02*
X013664Y006386D01*
X013664Y006581D02*
X016397Y006581D01*
X016397Y006777D02*
X013664Y006777D01*
X013664Y006972D02*
X016397Y006972D01*
X016397Y007167D02*
X014531Y007167D01*
X016340Y005800D02*
X016397Y005800D01*
X015433Y010685D02*
X015398Y010685D01*
X015415Y011075D02*
X015415Y011075D01*
X015399Y011271D02*
X015431Y011271D01*
X010913Y008144D02*
X010370Y008144D01*
X010405Y007949D02*
X010878Y007949D01*
X010915Y007754D02*
X010217Y007754D01*
X010082Y007754D02*
X009975Y007754D01*
X010013Y007558D02*
X010877Y007558D01*
X011037Y005800D02*
X011091Y005800D01*
X011074Y005604D02*
X011038Y005604D01*
X009362Y008595D02*
X009165Y008693D01*
D19*
X007787Y006922D02*
X007118Y006843D01*
X006803Y006626D01*
X006764Y006233D02*
X006606Y006233D01*
X006508Y006331D01*
X006764Y006233D02*
X006567Y006036D01*
X003929Y006036D01*
X003654Y006311D01*
X003654Y007453D01*
X003339Y007650D01*
X003339Y008162D01*
X003654Y008359D01*
X003654Y010091D01*
X004283Y010721D01*
X004323Y010878D01*
X004559Y011154D01*
X004717Y011154D01*
X006173Y012611D01*
X006173Y012847D01*
X006961Y013634D01*
X007866Y013634D01*
X008457Y014461D01*
X014008Y014461D01*
X016370Y012099D01*
X016370Y009934D01*
X015465Y009028D01*
X015465Y007453D01*
X014205Y006193D01*
X014205Y003319D01*
X010543Y012138D02*
X010642Y012237D01*
X012512Y012630D02*
X012512Y012926D01*
X012906Y012926D01*
X012512Y013319D01*
X012591Y013516D01*
X012906Y013516D01*
X012709Y013713D01*
X012709Y013910D01*
X012709Y012926D02*
X012512Y012926D01*
D20*
X003614Y000957D03*
M02*
