G75*
G70*
%OFA0B0*%
%FSLAX24Y24*%
%IPPOS*%
%LPD*%
%AMOC8*
5,1,8,0,0,1.08239X$1,22.5*
%
%ADD10C,0.0000*%
%ADD11C,0.0472*%
%ADD12C,0.0384*%
%ADD13C,0.0218*%
%ADD14C,0.0237*%
%ADD15C,0.0591*%
%ADD16C,0.0197*%
%ADD17C,0.0138*%
%ADD18C,0.0217*%
%ADD19C,0.0180*%
%ADD20C,0.0098*%
%ADD21C,0.0059*%
D10*
X000504Y000524D02*
X000504Y017847D01*
X016646Y017847D01*
X016646Y000524D01*
X000504Y000524D01*
X007354Y001311D02*
X007356Y001352D01*
X007362Y001393D01*
X007372Y001433D01*
X007385Y001472D01*
X007402Y001509D01*
X007423Y001545D01*
X007447Y001579D01*
X007474Y001610D01*
X007503Y001638D01*
X007536Y001664D01*
X007570Y001686D01*
X007607Y001705D01*
X007645Y001720D01*
X007685Y001732D01*
X007725Y001740D01*
X007766Y001744D01*
X007808Y001744D01*
X007849Y001740D01*
X007889Y001732D01*
X007929Y001720D01*
X007967Y001705D01*
X008003Y001686D01*
X008038Y001664D01*
X008071Y001638D01*
X008100Y001610D01*
X008127Y001579D01*
X008151Y001545D01*
X008172Y001509D01*
X008189Y001472D01*
X008202Y001433D01*
X008212Y001393D01*
X008218Y001352D01*
X008220Y001311D01*
X008218Y001270D01*
X008212Y001229D01*
X008202Y001189D01*
X008189Y001150D01*
X008172Y001113D01*
X008151Y001077D01*
X008127Y001043D01*
X008100Y001012D01*
X008071Y000984D01*
X008038Y000958D01*
X008004Y000936D01*
X007967Y000917D01*
X007929Y000902D01*
X007889Y000890D01*
X007849Y000882D01*
X007808Y000878D01*
X007766Y000878D01*
X007725Y000882D01*
X007685Y000890D01*
X007645Y000902D01*
X007607Y000917D01*
X007571Y000936D01*
X007536Y000958D01*
X007503Y000984D01*
X007474Y001012D01*
X007447Y001043D01*
X007423Y001077D01*
X007402Y001113D01*
X007385Y001150D01*
X007372Y001189D01*
X007362Y001229D01*
X007356Y001270D01*
X007354Y001311D01*
X015228Y001311D02*
X015230Y001352D01*
X015236Y001393D01*
X015246Y001433D01*
X015259Y001472D01*
X015276Y001509D01*
X015297Y001545D01*
X015321Y001579D01*
X015348Y001610D01*
X015377Y001638D01*
X015410Y001664D01*
X015444Y001686D01*
X015481Y001705D01*
X015519Y001720D01*
X015559Y001732D01*
X015599Y001740D01*
X015640Y001744D01*
X015682Y001744D01*
X015723Y001740D01*
X015763Y001732D01*
X015803Y001720D01*
X015841Y001705D01*
X015877Y001686D01*
X015912Y001664D01*
X015945Y001638D01*
X015974Y001610D01*
X016001Y001579D01*
X016025Y001545D01*
X016046Y001509D01*
X016063Y001472D01*
X016076Y001433D01*
X016086Y001393D01*
X016092Y001352D01*
X016094Y001311D01*
X016092Y001270D01*
X016086Y001229D01*
X016076Y001189D01*
X016063Y001150D01*
X016046Y001113D01*
X016025Y001077D01*
X016001Y001043D01*
X015974Y001012D01*
X015945Y000984D01*
X015912Y000958D01*
X015878Y000936D01*
X015841Y000917D01*
X015803Y000902D01*
X015763Y000890D01*
X015723Y000882D01*
X015682Y000878D01*
X015640Y000878D01*
X015599Y000882D01*
X015559Y000890D01*
X015519Y000902D01*
X015481Y000917D01*
X015445Y000936D01*
X015410Y000958D01*
X015377Y000984D01*
X015348Y001012D01*
X015321Y001043D01*
X015297Y001077D01*
X015276Y001113D01*
X015259Y001150D01*
X015246Y001189D01*
X015236Y001229D01*
X015230Y001270D01*
X015228Y001311D01*
X015228Y017060D02*
X015230Y017101D01*
X015236Y017142D01*
X015246Y017182D01*
X015259Y017221D01*
X015276Y017258D01*
X015297Y017294D01*
X015321Y017328D01*
X015348Y017359D01*
X015377Y017387D01*
X015410Y017413D01*
X015444Y017435D01*
X015481Y017454D01*
X015519Y017469D01*
X015559Y017481D01*
X015599Y017489D01*
X015640Y017493D01*
X015682Y017493D01*
X015723Y017489D01*
X015763Y017481D01*
X015803Y017469D01*
X015841Y017454D01*
X015877Y017435D01*
X015912Y017413D01*
X015945Y017387D01*
X015974Y017359D01*
X016001Y017328D01*
X016025Y017294D01*
X016046Y017258D01*
X016063Y017221D01*
X016076Y017182D01*
X016086Y017142D01*
X016092Y017101D01*
X016094Y017060D01*
X016092Y017019D01*
X016086Y016978D01*
X016076Y016938D01*
X016063Y016899D01*
X016046Y016862D01*
X016025Y016826D01*
X016001Y016792D01*
X015974Y016761D01*
X015945Y016733D01*
X015912Y016707D01*
X015878Y016685D01*
X015841Y016666D01*
X015803Y016651D01*
X015763Y016639D01*
X015723Y016631D01*
X015682Y016627D01*
X015640Y016627D01*
X015599Y016631D01*
X015559Y016639D01*
X015519Y016651D01*
X015481Y016666D01*
X015445Y016685D01*
X015410Y016707D01*
X015377Y016733D01*
X015348Y016761D01*
X015321Y016792D01*
X015297Y016826D01*
X015276Y016862D01*
X015259Y016899D01*
X015246Y016938D01*
X015236Y016978D01*
X015230Y017019D01*
X015228Y017060D01*
X007354Y017060D02*
X007356Y017101D01*
X007362Y017142D01*
X007372Y017182D01*
X007385Y017221D01*
X007402Y017258D01*
X007423Y017294D01*
X007447Y017328D01*
X007474Y017359D01*
X007503Y017387D01*
X007536Y017413D01*
X007570Y017435D01*
X007607Y017454D01*
X007645Y017469D01*
X007685Y017481D01*
X007725Y017489D01*
X007766Y017493D01*
X007808Y017493D01*
X007849Y017489D01*
X007889Y017481D01*
X007929Y017469D01*
X007967Y017454D01*
X008003Y017435D01*
X008038Y017413D01*
X008071Y017387D01*
X008100Y017359D01*
X008127Y017328D01*
X008151Y017294D01*
X008172Y017258D01*
X008189Y017221D01*
X008202Y017182D01*
X008212Y017142D01*
X008218Y017101D01*
X008220Y017060D01*
X008218Y017019D01*
X008212Y016978D01*
X008202Y016938D01*
X008189Y016899D01*
X008172Y016862D01*
X008151Y016826D01*
X008127Y016792D01*
X008100Y016761D01*
X008071Y016733D01*
X008038Y016707D01*
X008004Y016685D01*
X007967Y016666D01*
X007929Y016651D01*
X007889Y016639D01*
X007849Y016631D01*
X007808Y016627D01*
X007766Y016627D01*
X007725Y016631D01*
X007685Y016639D01*
X007645Y016651D01*
X007607Y016666D01*
X007571Y016685D01*
X007536Y016707D01*
X007503Y016733D01*
X007474Y016761D01*
X007447Y016792D01*
X007423Y016826D01*
X007402Y016862D01*
X007385Y016899D01*
X007372Y016938D01*
X007362Y016978D01*
X007356Y017019D01*
X007354Y017060D01*
D11*
X002472Y014697D03*
X002472Y013910D03*
X001685Y013910D03*
X001685Y014697D03*
X001685Y013123D03*
X002472Y013123D03*
X004244Y009579D03*
X004244Y008792D03*
X004244Y008004D03*
X004244Y007217D03*
X004244Y006430D03*
X004244Y005642D03*
X004244Y004855D03*
X004244Y004067D03*
X004244Y003280D03*
X004244Y002493D03*
X005228Y002493D03*
X005228Y003280D03*
X005228Y004067D03*
X005228Y004855D03*
X005228Y005642D03*
X005228Y006430D03*
X005228Y007217D03*
X005228Y008004D03*
X005228Y008792D03*
X005228Y009579D03*
D12*
X009474Y017060D03*
X009974Y017060D03*
X010474Y017060D03*
X010974Y017060D03*
X011474Y017060D03*
X011974Y017060D03*
X012474Y017060D03*
X012974Y017060D03*
X013474Y017060D03*
X013974Y017060D03*
X013974Y001311D03*
X013474Y001311D03*
X012974Y001311D03*
X012474Y001311D03*
X011974Y001311D03*
X011474Y001311D03*
X010974Y001311D03*
X010474Y001311D03*
X009974Y001311D03*
X009474Y001311D03*
D13*
X008870Y003575D03*
X009756Y004737D03*
X010858Y004422D03*
X011528Y004205D03*
X011902Y004067D03*
X012118Y003162D03*
X011803Y003083D03*
X010799Y005701D03*
X010445Y005937D03*
X009874Y005918D03*
X009087Y006863D03*
X008437Y007119D03*
X007984Y006823D03*
X008142Y006410D03*
X007394Y006528D03*
X007098Y006528D03*
X006803Y006922D03*
X006902Y007414D03*
X006803Y007906D03*
X006803Y008398D03*
X006803Y008890D03*
X006783Y009382D03*
X007197Y009678D03*
X006252Y009815D03*
X006134Y010091D03*
X004638Y010760D03*
X003358Y012237D03*
X003358Y012532D03*
X003063Y012532D03*
X003358Y012827D03*
X003063Y013024D03*
X004638Y013713D03*
X004638Y014107D03*
X004835Y014500D03*
X005228Y014028D03*
X005228Y013713D03*
X006154Y015682D03*
X007098Y015682D03*
X007591Y015583D03*
X008772Y016272D03*
X009067Y016371D03*
X008870Y015878D03*
X007689Y013910D03*
X007295Y013339D03*
X008378Y013221D03*
X008969Y012434D03*
X008969Y012040D03*
X009264Y012040D03*
X008949Y011626D03*
X008969Y011056D03*
X008220Y011941D03*
X007748Y011626D03*
X010051Y008693D03*
X010150Y008004D03*
X009756Y008004D03*
X009756Y007611D03*
X011134Y007611D03*
X011134Y008004D03*
X012315Y008201D03*
X012217Y009481D03*
X012315Y010662D03*
X012669Y010603D03*
X012709Y011351D03*
X012512Y011646D03*
X012906Y011646D03*
X013988Y011154D03*
X014382Y011154D03*
X014382Y010563D03*
X013988Y010563D03*
X013791Y009874D03*
X013398Y009874D03*
X014579Y009874D03*
X015169Y010563D03*
X015661Y010563D03*
X016016Y010209D03*
X016350Y009382D03*
X016350Y008831D03*
X016350Y008300D03*
X016173Y005997D03*
X015524Y005760D03*
X015425Y005504D03*
X015228Y005859D03*
X014835Y005642D03*
X015504Y004146D03*
X014677Y003241D03*
X016134Y005249D03*
X012118Y006430D03*
X011823Y006154D03*
X010287Y009638D03*
X010543Y009973D03*
X011390Y011075D03*
X011724Y012729D03*
X011724Y013123D03*
X011724Y013516D03*
X011724Y013910D03*
X012118Y013910D03*
X012591Y013516D03*
X012906Y013516D03*
X012906Y012926D03*
X012512Y012926D03*
X013988Y014993D03*
X014579Y015583D03*
X014972Y015288D03*
X015465Y015091D03*
X014598Y016410D03*
X013791Y016075D03*
X014579Y013123D03*
X015169Y011154D03*
X015661Y011154D03*
X011035Y015977D03*
X010740Y015977D03*
X010740Y015386D03*
X004638Y016469D03*
X004323Y016764D03*
X004323Y016174D03*
X002472Y010308D03*
X002472Y008595D03*
X003654Y008004D03*
X002472Y006626D03*
X002472Y005445D03*
X001390Y004560D03*
X001193Y005445D03*
X001193Y003477D03*
X002472Y003477D03*
X002472Y001508D03*
X001094Y001016D03*
X000898Y001213D03*
X005622Y007453D03*
X007098Y005937D03*
X007098Y005445D03*
X007098Y004953D03*
X007098Y004461D03*
X007098Y003969D03*
X007098Y003477D03*
X001094Y008595D03*
D14*
X001409Y008083D03*
X001409Y007217D03*
X001094Y006626D03*
X001409Y004934D03*
X001409Y004146D03*
X001409Y001784D03*
X004323Y002020D03*
X005602Y001607D03*
X006055Y002178D03*
X006803Y002886D03*
X005760Y003871D03*
X004717Y004855D03*
X004717Y005642D03*
X005819Y005642D03*
X005740Y006430D03*
X004677Y008359D03*
X007374Y011508D03*
X008181Y010760D03*
X009362Y008595D03*
X011626Y008497D03*
X011331Y005682D03*
X013024Y005091D03*
X014205Y003319D03*
X001094Y010308D03*
X000898Y012138D03*
X000898Y013319D03*
X000898Y014500D03*
X000898Y015682D03*
D15*
X009504Y002524D03*
X010504Y002524D03*
X011504Y002524D03*
X012504Y002524D03*
D16*
X012021Y002937D02*
X012060Y003032D01*
X012060Y003134D01*
X012021Y003229D01*
X011949Y003301D01*
X011854Y003340D01*
X011752Y003340D01*
X011657Y003301D01*
X011585Y003229D01*
X011546Y003134D01*
X011546Y003032D01*
X011572Y002968D01*
X011416Y002968D01*
X011253Y002900D01*
X011128Y002775D01*
X011060Y002612D01*
X011060Y002436D01*
X011128Y002273D01*
X011253Y002148D01*
X011416Y002080D01*
X011592Y002080D01*
X011755Y002148D01*
X011880Y002273D01*
X011948Y002436D01*
X011948Y002612D01*
X011880Y002775D01*
X011830Y002826D01*
X011854Y002826D01*
X011949Y002865D01*
X012021Y002937D01*
X011953Y002869D02*
X016397Y002869D01*
X016397Y003064D02*
X014865Y003064D01*
X014895Y003095D02*
X014934Y003189D01*
X014934Y003292D01*
X014895Y003386D01*
X014823Y003459D01*
X014728Y003498D01*
X014626Y003498D01*
X014531Y003459D01*
X014464Y003391D01*
X014431Y003471D01*
X014356Y003546D01*
X014258Y003586D01*
X014152Y003586D01*
X014053Y003546D01*
X013978Y003471D01*
X013938Y003373D01*
X013938Y003266D01*
X013978Y003168D01*
X014053Y003093D01*
X014152Y003052D01*
X014258Y003052D01*
X014356Y003093D01*
X014429Y003166D01*
X014459Y003095D01*
X014531Y003022D01*
X014626Y002983D01*
X014728Y002983D01*
X014823Y003022D01*
X014895Y003095D01*
X014934Y003260D02*
X016397Y003260D01*
X016397Y003455D02*
X014827Y003455D01*
X014528Y003455D02*
X014438Y003455D01*
X014490Y003064D02*
X014287Y003064D01*
X014123Y003064D02*
X012060Y003064D01*
X011991Y003260D02*
X013940Y003260D01*
X013972Y003455D02*
X009099Y003455D01*
X009088Y003429D02*
X009127Y003524D01*
X009127Y003626D01*
X009088Y003721D01*
X009016Y003793D01*
X008921Y003833D01*
X008819Y003833D01*
X008724Y003793D01*
X008652Y003721D01*
X008613Y003626D01*
X008613Y003524D01*
X008652Y003429D01*
X008724Y003357D01*
X008819Y003318D01*
X008921Y003318D01*
X009016Y003357D01*
X009088Y003429D01*
X009117Y003650D02*
X016397Y003650D01*
X016397Y003846D02*
X012039Y003846D01*
X012047Y003849D02*
X012120Y003922D01*
X012159Y004016D01*
X012159Y004119D01*
X012120Y004213D01*
X012047Y004286D01*
X011953Y004325D01*
X011850Y004325D01*
X011770Y004291D01*
X011746Y004351D01*
X011673Y004423D01*
X011579Y004462D01*
X011476Y004462D01*
X011382Y004423D01*
X011309Y004351D01*
X011270Y004256D01*
X011270Y004154D01*
X011309Y004059D01*
X011382Y003987D01*
X011476Y003948D01*
X011579Y003948D01*
X011659Y003981D01*
X011683Y003922D01*
X011756Y003849D01*
X011850Y003810D01*
X011953Y003810D01*
X012047Y003849D01*
X012159Y004041D02*
X016397Y004041D01*
X016397Y004237D02*
X012096Y004237D01*
X011764Y003846D02*
X007326Y003846D01*
X007317Y003823D02*
X007356Y003918D01*
X007356Y004020D01*
X007317Y004115D01*
X007244Y004187D01*
X007177Y004215D01*
X007244Y004243D01*
X007317Y004315D01*
X007356Y004410D01*
X007356Y004512D01*
X007317Y004607D01*
X007244Y004679D01*
X007177Y004707D01*
X007244Y004735D01*
X007317Y004807D01*
X007356Y004902D01*
X007356Y005004D01*
X007317Y005099D01*
X007244Y005171D01*
X007177Y005199D01*
X007244Y005227D01*
X007317Y005300D01*
X007356Y005394D01*
X007356Y005497D01*
X007317Y005591D01*
X007244Y005663D01*
X007177Y005691D01*
X007244Y005719D01*
X007317Y005792D01*
X007356Y005886D01*
X007356Y005989D01*
X007317Y006083D01*
X007244Y006156D01*
X007150Y006195D01*
X007047Y006195D01*
X006953Y006156D01*
X006880Y006083D01*
X006841Y005989D01*
X006841Y005886D01*
X006880Y005792D01*
X006953Y005719D01*
X007020Y005691D01*
X006953Y005663D01*
X006880Y005591D01*
X006841Y005497D01*
X006841Y005394D01*
X006880Y005300D01*
X006953Y005227D01*
X007020Y005199D01*
X006953Y005171D01*
X006880Y005099D01*
X006841Y005004D01*
X006841Y004902D01*
X006880Y004807D01*
X006953Y004735D01*
X007020Y004707D01*
X006953Y004679D01*
X006880Y004607D01*
X006841Y004512D01*
X006841Y004410D01*
X006880Y004315D01*
X006953Y004243D01*
X007020Y004215D01*
X006953Y004187D01*
X006880Y004115D01*
X006841Y004020D01*
X006841Y003918D01*
X006880Y003823D01*
X006953Y003751D01*
X007020Y003723D01*
X006953Y003695D01*
X006880Y003623D01*
X006841Y003528D01*
X006841Y003426D01*
X006880Y003331D01*
X006953Y003259D01*
X007047Y003220D01*
X007150Y003220D01*
X007244Y003259D01*
X007317Y003331D01*
X007356Y003426D01*
X007356Y003528D01*
X007317Y003623D01*
X007244Y003695D01*
X007177Y003723D01*
X007244Y003751D01*
X007317Y003823D01*
X007289Y003650D02*
X008623Y003650D01*
X008641Y003455D02*
X007356Y003455D01*
X007245Y003260D02*
X011616Y003260D01*
X011546Y003064D02*
X007003Y003064D01*
X007030Y003038D02*
X006954Y003113D01*
X006856Y003153D01*
X006750Y003153D01*
X006652Y003113D01*
X006577Y003038D01*
X006536Y002939D01*
X006536Y002833D01*
X006577Y002735D01*
X006652Y002660D01*
X006750Y002619D01*
X006856Y002619D01*
X006954Y002660D01*
X007030Y002735D01*
X007070Y002833D01*
X007070Y002939D01*
X007030Y003038D01*
X007070Y002869D02*
X009221Y002869D01*
X009253Y002900D02*
X009128Y002775D01*
X009060Y002612D01*
X009060Y002436D01*
X009128Y002273D01*
X009253Y002148D01*
X009416Y002080D01*
X009592Y002080D01*
X009755Y002148D01*
X009880Y002273D01*
X009948Y002436D01*
X009948Y002612D01*
X009880Y002775D01*
X009755Y002900D01*
X009592Y002968D01*
X009416Y002968D01*
X009253Y002900D01*
X009086Y002673D02*
X006968Y002673D01*
X006638Y002673D02*
X005570Y002673D01*
X005554Y002710D02*
X005446Y002819D01*
X005305Y002877D01*
X005152Y002877D01*
X005010Y002819D01*
X004902Y002710D01*
X004844Y002569D01*
X004844Y002416D01*
X004902Y002275D01*
X005010Y002166D01*
X005152Y002108D01*
X005305Y002108D01*
X005446Y002166D01*
X005554Y002275D01*
X005613Y002416D01*
X005613Y002569D01*
X005554Y002710D01*
X005613Y002478D02*
X009060Y002478D01*
X009124Y002283D02*
X006301Y002283D01*
X006282Y002329D02*
X006322Y002231D01*
X006322Y002124D01*
X006282Y002026D01*
X006206Y001951D01*
X006108Y001910D01*
X006002Y001910D01*
X005904Y001951D01*
X005829Y002026D01*
X005788Y002124D01*
X005788Y002231D01*
X005829Y002329D01*
X005904Y002404D01*
X006002Y002445D01*
X006108Y002445D01*
X006206Y002404D01*
X006282Y002329D01*
X006307Y002087D02*
X009399Y002087D01*
X009609Y002087D02*
X010399Y002087D01*
X010416Y002080D02*
X010592Y002080D01*
X010755Y002148D01*
X010880Y002273D01*
X010948Y002436D01*
X010948Y002612D01*
X010880Y002775D01*
X010755Y002900D01*
X010592Y002968D01*
X010416Y002968D01*
X010253Y002900D01*
X010128Y002775D01*
X010060Y002612D01*
X010060Y002436D01*
X010128Y002273D01*
X010253Y002148D01*
X010416Y002080D01*
X010124Y002283D02*
X009884Y002283D01*
X009948Y002478D02*
X010060Y002478D01*
X010086Y002673D02*
X009922Y002673D01*
X009787Y002869D02*
X010221Y002869D01*
X010787Y002869D02*
X011221Y002869D01*
X011086Y002673D02*
X010922Y002673D01*
X010948Y002478D02*
X011060Y002478D01*
X011124Y002283D02*
X010884Y002283D01*
X010609Y002087D02*
X011399Y002087D01*
X011609Y002087D02*
X016397Y002087D01*
X016397Y001892D02*
X016041Y001892D01*
X016047Y001889D02*
X015797Y001993D01*
X015526Y001993D01*
X015275Y001889D01*
X015084Y001698D01*
X014980Y001447D01*
X014980Y001176D01*
X015084Y000925D01*
X015237Y000772D01*
X008212Y000772D01*
X008365Y000925D01*
X008469Y001176D01*
X008469Y001447D01*
X008365Y001698D01*
X008173Y001889D01*
X007923Y001993D01*
X007652Y001993D01*
X007401Y001889D01*
X007210Y001698D01*
X007106Y001447D01*
X007106Y001176D01*
X007210Y000925D01*
X007363Y000772D01*
X000752Y000772D01*
X000752Y011909D01*
X000844Y011871D01*
X000951Y011871D01*
X001049Y011912D01*
X001124Y011987D01*
X001165Y012085D01*
X001165Y012191D01*
X001124Y012290D01*
X001049Y012365D01*
X000951Y012405D01*
X000844Y012405D01*
X000752Y012367D01*
X000752Y013090D01*
X000844Y013052D01*
X000951Y013052D01*
X001049Y013093D01*
X001124Y013168D01*
X001165Y013266D01*
X001165Y013373D01*
X001124Y013471D01*
X001049Y013546D01*
X000951Y013586D01*
X000844Y013586D01*
X000752Y013548D01*
X000752Y014271D01*
X000844Y014233D01*
X000951Y014233D01*
X001049Y014274D01*
X001124Y014349D01*
X001165Y014447D01*
X001165Y014554D01*
X001124Y014652D01*
X001049Y014727D01*
X000951Y014768D01*
X000844Y014768D01*
X000752Y014729D01*
X000752Y015453D01*
X000844Y015414D01*
X000951Y015414D01*
X001049Y015455D01*
X001124Y015530D01*
X001165Y015628D01*
X001165Y015735D01*
X001124Y015833D01*
X001049Y015908D01*
X000951Y015949D01*
X000844Y015949D01*
X000752Y015911D01*
X000752Y017599D01*
X007363Y017599D01*
X007210Y017446D01*
X007106Y017195D01*
X007106Y016924D01*
X007210Y016673D01*
X007401Y016482D01*
X007652Y016378D01*
X007923Y016378D01*
X008173Y016482D01*
X008365Y016673D01*
X008469Y016924D01*
X008469Y017195D01*
X008365Y017446D01*
X008212Y017599D01*
X015237Y017599D01*
X015084Y017446D01*
X014980Y017195D01*
X014980Y016924D01*
X015084Y016673D01*
X015275Y016482D01*
X015526Y016378D01*
X015797Y016378D01*
X016047Y016482D01*
X016239Y016673D01*
X016343Y016924D01*
X016343Y017195D01*
X016239Y017446D01*
X016086Y017599D01*
X016397Y017599D01*
X016397Y000772D01*
X016086Y000772D01*
X016239Y000925D01*
X016343Y001176D01*
X016343Y001447D01*
X016239Y001698D01*
X016047Y001889D01*
X016240Y001696D02*
X016397Y001696D01*
X016397Y001501D02*
X016321Y001501D01*
X016343Y001306D02*
X016397Y001306D01*
X016397Y001110D02*
X016316Y001110D01*
X016397Y000915D02*
X016229Y000915D01*
X015282Y001892D02*
X008167Y001892D01*
X008366Y001696D02*
X013409Y001696D01*
X013436Y001702D02*
X013361Y001687D01*
X013289Y001657D01*
X013226Y001615D01*
X013189Y001578D01*
X013167Y001600D01*
X013042Y001652D01*
X012907Y001652D01*
X012782Y001600D01*
X012724Y001543D01*
X012667Y001600D01*
X012542Y001652D01*
X012407Y001652D01*
X012282Y001600D01*
X012224Y001543D01*
X012167Y001600D01*
X012042Y001652D01*
X011907Y001652D01*
X011782Y001600D01*
X011724Y001543D01*
X011667Y001600D01*
X011542Y001652D01*
X011407Y001652D01*
X011282Y001600D01*
X011224Y001543D01*
X011167Y001600D01*
X011042Y001652D01*
X010907Y001652D01*
X010782Y001600D01*
X010724Y001543D01*
X010667Y001600D01*
X010542Y001652D01*
X010407Y001652D01*
X010282Y001600D01*
X010224Y001543D01*
X010167Y001600D01*
X010042Y001652D01*
X009907Y001652D01*
X009782Y001600D01*
X009724Y001543D01*
X009667Y001600D01*
X009542Y001652D01*
X009407Y001652D01*
X009282Y001600D01*
X009186Y001504D01*
X009134Y001379D01*
X009134Y001244D01*
X009186Y001119D01*
X009282Y001023D01*
X009407Y000971D01*
X009542Y000971D01*
X009667Y001023D01*
X009724Y001080D01*
X009782Y001023D01*
X009907Y000971D01*
X010042Y000971D01*
X010167Y001023D01*
X010224Y001080D01*
X010282Y001023D01*
X010407Y000971D01*
X010542Y000971D01*
X010667Y001023D01*
X010724Y001080D01*
X010782Y001023D01*
X010907Y000971D01*
X011042Y000971D01*
X011167Y001023D01*
X011224Y001080D01*
X011282Y001023D01*
X011407Y000971D01*
X011542Y000971D01*
X011667Y001023D01*
X011724Y001080D01*
X011782Y001023D01*
X011907Y000971D01*
X012042Y000971D01*
X012167Y001023D01*
X012224Y001080D01*
X012282Y001023D01*
X012407Y000971D01*
X012542Y000971D01*
X012667Y001023D01*
X012724Y001080D01*
X012782Y001023D01*
X012907Y000971D01*
X013042Y000971D01*
X013167Y001023D01*
X013189Y001045D01*
X013226Y001008D01*
X013289Y000966D01*
X013361Y000936D01*
X013436Y000921D01*
X013474Y000921D01*
X013474Y001311D01*
X013475Y001311D01*
X013475Y001312D01*
X013584Y001312D01*
X013974Y001312D01*
X013974Y001702D01*
X013936Y001702D01*
X013861Y001687D01*
X013789Y001657D01*
X013726Y001615D01*
X013724Y001614D01*
X013723Y001615D01*
X013659Y001657D01*
X013588Y001687D01*
X013513Y001702D01*
X013475Y001702D01*
X013475Y001312D01*
X013474Y001312D01*
X013474Y001702D01*
X013436Y001702D01*
X013474Y001696D02*
X013475Y001696D01*
X013540Y001696D02*
X013909Y001696D01*
X013974Y001696D02*
X013975Y001696D01*
X013975Y001702D02*
X014013Y001702D01*
X014088Y001687D01*
X014159Y001657D01*
X014223Y001615D01*
X014278Y001560D01*
X014320Y001496D01*
X014350Y001425D01*
X014365Y001350D01*
X014365Y001312D01*
X013975Y001312D01*
X013975Y001311D01*
X014365Y001311D01*
X014365Y001273D01*
X014350Y001198D01*
X014320Y001127D01*
X014278Y001063D01*
X014223Y001008D01*
X014159Y000966D01*
X014088Y000936D01*
X014013Y000921D01*
X013975Y000921D01*
X013975Y001311D01*
X013974Y001311D01*
X013974Y000921D01*
X013936Y000921D01*
X013861Y000936D01*
X013789Y000966D01*
X013726Y001008D01*
X013724Y001009D01*
X013723Y001008D01*
X013659Y000966D01*
X013588Y000936D01*
X013513Y000921D01*
X013475Y000921D01*
X013475Y001311D01*
X013584Y001311D01*
X013974Y001311D01*
X013974Y001312D01*
X013975Y001312D01*
X013975Y001702D01*
X014040Y001696D02*
X015083Y001696D01*
X015002Y001501D02*
X014317Y001501D01*
X014365Y001306D02*
X014980Y001306D01*
X015007Y001110D02*
X014309Y001110D01*
X013975Y001110D02*
X013974Y001110D01*
X013974Y001306D02*
X013975Y001306D01*
X013974Y001501D02*
X013975Y001501D01*
X013475Y001501D02*
X013474Y001501D01*
X013474Y001306D02*
X013475Y001306D01*
X013474Y001110D02*
X013475Y001110D01*
X015094Y000915D02*
X008355Y000915D01*
X008442Y001110D02*
X009194Y001110D01*
X009134Y001306D02*
X008469Y001306D01*
X008446Y001501D02*
X009185Y001501D01*
X007408Y001892D02*
X004559Y001892D01*
X004549Y001869D02*
X004590Y001967D01*
X004590Y002073D01*
X004549Y002171D01*
X004508Y002213D01*
X004570Y002275D01*
X004629Y002416D01*
X004629Y002569D01*
X004570Y002710D01*
X004462Y002819D01*
X004321Y002877D01*
X004168Y002877D01*
X004026Y002819D01*
X003918Y002710D01*
X003859Y002569D01*
X003859Y002416D01*
X003918Y002275D01*
X004026Y002166D01*
X004084Y002142D01*
X004056Y002073D01*
X004056Y001967D01*
X004096Y001869D01*
X004171Y001794D01*
X004270Y001753D01*
X004376Y001753D01*
X004474Y001794D01*
X004549Y001869D01*
X004584Y002087D02*
X005803Y002087D01*
X005809Y002283D02*
X005558Y002283D01*
X005549Y001874D02*
X005451Y001833D01*
X005376Y001758D01*
X005335Y001660D01*
X005335Y001554D01*
X005376Y001455D01*
X005451Y001380D01*
X005549Y001340D01*
X005656Y001340D01*
X005754Y001380D01*
X005829Y001455D01*
X005869Y001554D01*
X005869Y001660D01*
X005829Y001758D01*
X005754Y001833D01*
X005656Y001874D01*
X005549Y001874D01*
X005350Y001696D02*
X001662Y001696D01*
X001677Y001731D02*
X001636Y001633D01*
X001561Y001557D01*
X001463Y001517D01*
X001356Y001517D01*
X001258Y001557D01*
X001183Y001633D01*
X001142Y001731D01*
X001142Y001837D01*
X001183Y001935D01*
X001258Y002010D01*
X001356Y002051D01*
X001463Y002051D01*
X001561Y002010D01*
X001636Y001935D01*
X001677Y001837D01*
X001677Y001731D01*
X001654Y001892D02*
X004087Y001892D01*
X004061Y002087D02*
X000752Y002087D01*
X000752Y001892D02*
X001165Y001892D01*
X001156Y001696D02*
X000752Y001696D01*
X000752Y001501D02*
X005357Y001501D01*
X005848Y001501D02*
X007128Y001501D01*
X007106Y001306D02*
X000752Y001306D01*
X000752Y001110D02*
X007133Y001110D01*
X007220Y000915D02*
X000752Y000915D01*
X001094Y001016D02*
X001980Y001016D01*
X002472Y001508D01*
X003859Y002478D02*
X000752Y002478D01*
X000752Y002283D02*
X003915Y002283D01*
X003903Y002673D02*
X000752Y002673D01*
X000752Y002869D02*
X004147Y002869D01*
X004168Y002895D02*
X004321Y002895D01*
X004462Y002954D01*
X004570Y003062D01*
X004629Y003203D01*
X004629Y003356D01*
X004570Y003498D01*
X004462Y003606D01*
X004360Y003648D01*
X004411Y003665D01*
X004472Y003696D01*
X004527Y003736D01*
X004576Y003784D01*
X004616Y003840D01*
X004647Y003901D01*
X004668Y003966D01*
X004679Y004033D01*
X004679Y004067D01*
X004244Y004067D01*
X003809Y004067D01*
X003809Y004033D01*
X003820Y003966D01*
X003841Y003901D01*
X003872Y003840D01*
X003913Y003784D01*
X003961Y003736D01*
X004016Y003696D01*
X004077Y003665D01*
X004128Y003648D01*
X004026Y003606D01*
X003918Y003498D01*
X003859Y003356D01*
X003859Y003203D01*
X003918Y003062D01*
X004026Y002954D01*
X004168Y002895D01*
X004341Y002869D02*
X005132Y002869D01*
X005152Y002895D02*
X005305Y002895D01*
X005446Y002954D01*
X005554Y003062D01*
X005613Y003203D01*
X005613Y003356D01*
X005554Y003498D01*
X005446Y003606D01*
X005305Y003665D01*
X005152Y003665D01*
X005010Y003606D01*
X004902Y003498D01*
X004844Y003356D01*
X004844Y003203D01*
X004902Y003062D01*
X005010Y002954D01*
X005152Y002895D01*
X005325Y002869D02*
X006536Y002869D01*
X006603Y003064D02*
X005555Y003064D01*
X005613Y003260D02*
X006952Y003260D01*
X006841Y003455D02*
X005572Y003455D01*
X005609Y003644D02*
X005707Y003603D01*
X005813Y003603D01*
X005911Y003644D01*
X005986Y003719D01*
X006027Y003817D01*
X006027Y003924D01*
X005986Y004022D01*
X005911Y004097D01*
X005813Y004138D01*
X005707Y004138D01*
X005613Y004099D01*
X005613Y004144D01*
X005554Y004285D01*
X005446Y004393D01*
X005305Y004452D01*
X005152Y004452D01*
X005010Y004393D01*
X004902Y004285D01*
X004844Y004144D01*
X004844Y003991D01*
X004902Y003849D01*
X005010Y003741D01*
X005152Y003683D01*
X005305Y003683D01*
X005446Y003741D01*
X005501Y003796D01*
X005533Y003719D01*
X005609Y003644D01*
X005602Y003650D02*
X005339Y003650D01*
X005118Y003650D02*
X004367Y003650D01*
X004121Y003650D02*
X002663Y003650D01*
X002691Y003623D02*
X002618Y003695D01*
X002524Y003734D01*
X002421Y003734D01*
X002327Y003695D01*
X002254Y003623D01*
X002215Y003528D01*
X002215Y003426D01*
X002254Y003331D01*
X002327Y003259D01*
X002421Y003220D01*
X002524Y003220D01*
X002618Y003259D01*
X002691Y003331D01*
X002730Y003426D01*
X002730Y003528D01*
X002691Y003623D01*
X002730Y003455D02*
X003900Y003455D01*
X003859Y003260D02*
X002619Y003260D01*
X002326Y003260D02*
X001340Y003260D01*
X001339Y003259D02*
X001411Y003331D01*
X001450Y003426D01*
X001450Y003528D01*
X001411Y003623D01*
X001339Y003695D01*
X001244Y003734D01*
X001142Y003734D01*
X001047Y003695D01*
X000975Y003623D01*
X000936Y003528D01*
X000936Y003426D01*
X000975Y003331D01*
X001047Y003259D01*
X001142Y003220D01*
X001244Y003220D01*
X001339Y003259D01*
X001450Y003455D02*
X002215Y003455D01*
X002282Y003650D02*
X001383Y003650D01*
X001356Y003879D02*
X001463Y003879D01*
X001561Y003920D01*
X001636Y003995D01*
X001677Y004093D01*
X001677Y004199D01*
X001636Y004297D01*
X001561Y004373D01*
X001463Y004413D01*
X001356Y004413D01*
X001258Y004373D01*
X001183Y004297D01*
X001142Y004199D01*
X001142Y004093D01*
X001183Y003995D01*
X001258Y003920D01*
X001356Y003879D01*
X001164Y004041D02*
X000752Y004041D01*
X000752Y003846D02*
X003869Y003846D01*
X003809Y004041D02*
X001655Y004041D01*
X001661Y004237D02*
X003843Y004237D01*
X003841Y004234D02*
X003820Y004169D01*
X003809Y004102D01*
X003809Y004068D01*
X004244Y004068D01*
X004244Y004420D01*
X004244Y004854D01*
X004244Y004854D01*
X004244Y004420D01*
X004244Y004068D01*
X004244Y004068D01*
X004244Y004067D01*
X004244Y004068D01*
X004679Y004068D01*
X004679Y004102D01*
X004668Y004169D01*
X004647Y004234D01*
X004616Y004295D01*
X004576Y004351D01*
X004527Y004399D01*
X004472Y004439D01*
X004429Y004461D01*
X004472Y004483D01*
X004527Y004523D01*
X004576Y004572D01*
X004605Y004612D01*
X004663Y004588D01*
X004770Y004588D01*
X004868Y004628D01*
X004895Y004655D01*
X004902Y004637D01*
X005010Y004529D01*
X005152Y004470D01*
X005305Y004470D01*
X005446Y004529D01*
X005554Y004637D01*
X005613Y004778D01*
X005613Y004931D01*
X005554Y005073D01*
X005446Y005181D01*
X005305Y005239D01*
X005152Y005239D01*
X005010Y005181D01*
X004902Y005073D01*
X004895Y005054D01*
X004868Y005081D01*
X004770Y005122D01*
X004663Y005122D01*
X004605Y005098D01*
X004576Y005138D01*
X004527Y005186D01*
X004472Y005226D01*
X004411Y005258D01*
X004360Y005274D01*
X004462Y005316D01*
X004563Y005418D01*
X004565Y005416D01*
X004663Y005375D01*
X004770Y005375D01*
X004868Y005416D01*
X004895Y005443D01*
X004902Y005424D01*
X005010Y005316D01*
X005152Y005258D01*
X005305Y005258D01*
X005446Y005316D01*
X005554Y005424D01*
X005587Y005503D01*
X005592Y005491D01*
X005668Y005416D01*
X005766Y005375D01*
X005872Y005375D01*
X005970Y005416D01*
X006045Y005491D01*
X006086Y005589D01*
X006086Y005695D01*
X006045Y005794D01*
X005970Y005869D01*
X005872Y005909D01*
X005766Y005909D01*
X005668Y005869D01*
X005592Y005794D01*
X005587Y005781D01*
X005554Y005860D01*
X005446Y005968D01*
X005305Y006027D01*
X005152Y006027D01*
X005010Y005968D01*
X004902Y005860D01*
X004895Y005842D01*
X004868Y005869D01*
X004770Y005909D01*
X004663Y005909D01*
X004565Y005869D01*
X004563Y005867D01*
X004462Y005968D01*
X004321Y006027D01*
X004168Y006027D01*
X004026Y005968D01*
X003918Y005860D01*
X003859Y005719D01*
X003859Y005566D01*
X003918Y005424D01*
X004026Y005316D01*
X004128Y005274D01*
X004077Y005258D01*
X004016Y005226D01*
X003961Y005186D01*
X003913Y005138D01*
X003872Y005083D01*
X003841Y005022D01*
X003820Y004957D01*
X003809Y004889D01*
X003809Y004855D01*
X004244Y004855D01*
X004244Y004855D01*
X003809Y004855D01*
X003809Y004821D01*
X003820Y004753D01*
X003841Y004688D01*
X003872Y004627D01*
X000752Y004627D01*
X000752Y004432D02*
X004006Y004432D01*
X004016Y004439D02*
X003961Y004399D01*
X003913Y004351D01*
X003872Y004295D01*
X003841Y004234D01*
X004016Y004439D02*
X004059Y004461D01*
X004016Y004483D01*
X003961Y004523D01*
X003913Y004572D01*
X003872Y004627D01*
X003809Y004823D02*
X001653Y004823D01*
X001636Y004782D02*
X001677Y004880D01*
X001677Y004987D01*
X001642Y005071D01*
X002743Y005071D01*
X002847Y005175D01*
X002847Y005322D01*
X002847Y005716D01*
X002743Y005820D01*
X002596Y005820D01*
X001119Y005820D01*
X001015Y005716D01*
X001015Y005568D01*
X001119Y005464D01*
X002491Y005464D01*
X002491Y005426D01*
X001119Y005426D01*
X001015Y005322D01*
X001015Y005175D01*
X001119Y005071D01*
X001177Y005071D01*
X001142Y004987D01*
X001142Y004880D01*
X001183Y004782D01*
X001258Y004707D01*
X001356Y004666D01*
X001463Y004666D01*
X001561Y004707D01*
X001636Y004782D01*
X001664Y005018D02*
X003840Y005018D01*
X003998Y005214D02*
X002847Y005214D01*
X002847Y005409D02*
X003933Y005409D01*
X003859Y005604D02*
X002847Y005604D01*
X002763Y005800D02*
X003893Y005800D01*
X004091Y005995D02*
X000752Y005995D01*
X000752Y005800D02*
X001099Y005800D01*
X001015Y005604D02*
X000752Y005604D01*
X000752Y005409D02*
X001102Y005409D01*
X001015Y005214D02*
X000752Y005214D01*
X000752Y005018D02*
X001155Y005018D01*
X001166Y004823D02*
X000752Y004823D01*
X000752Y004237D02*
X001158Y004237D01*
X001003Y003650D02*
X000752Y003650D01*
X000752Y003455D02*
X000936Y003455D01*
X001046Y003260D02*
X000752Y003260D01*
X000752Y003064D02*
X003917Y003064D01*
X004571Y003064D02*
X004901Y003064D01*
X004844Y003260D02*
X004629Y003260D01*
X004588Y003455D02*
X004885Y003455D01*
X004906Y003846D02*
X004619Y003846D01*
X004679Y004041D02*
X004844Y004041D01*
X004882Y004237D02*
X004646Y004237D01*
X004482Y004432D02*
X005103Y004432D01*
X004912Y004627D02*
X004866Y004627D01*
X005089Y005214D02*
X004490Y005214D01*
X004555Y005409D02*
X004582Y005409D01*
X004851Y005409D02*
X004918Y005409D01*
X005367Y005214D02*
X006986Y005214D01*
X007211Y005214D02*
X016397Y005214D01*
X016397Y005409D02*
X015664Y005409D01*
X015682Y005453D02*
X015682Y005555D01*
X015742Y005615D01*
X015781Y005709D01*
X015781Y005811D01*
X015742Y005906D01*
X015669Y005978D01*
X015575Y006018D01*
X015472Y006018D01*
X015445Y006006D01*
X015374Y006077D01*
X015280Y006116D01*
X015177Y006116D01*
X015083Y006077D01*
X015010Y006004D01*
X014971Y005910D01*
X014971Y005864D01*
X014886Y005899D01*
X014783Y005899D01*
X014689Y005860D01*
X014616Y005788D01*
X014577Y005693D01*
X014577Y005591D01*
X014616Y005496D01*
X014689Y005424D01*
X014783Y005385D01*
X014886Y005385D01*
X014980Y005424D01*
X015053Y005496D01*
X015092Y005591D01*
X015092Y005637D01*
X015177Y005601D01*
X015187Y005601D01*
X015168Y005556D01*
X015168Y005453D01*
X015207Y005359D01*
X015279Y005286D01*
X015374Y005247D01*
X015476Y005247D01*
X015571Y005286D01*
X015643Y005359D01*
X015682Y005453D01*
X015732Y005604D02*
X016397Y005604D01*
X016397Y005800D02*
X015781Y005800D01*
X015629Y005995D02*
X016397Y005995D01*
X016397Y006191D02*
X012213Y006191D01*
X012169Y006172D02*
X012264Y006211D01*
X012336Y006284D01*
X012375Y006378D01*
X012375Y006481D01*
X012336Y006575D01*
X012264Y006648D01*
X012169Y006687D01*
X012067Y006687D01*
X011972Y006648D01*
X011900Y006575D01*
X011861Y006481D01*
X011861Y006411D01*
X011772Y006411D01*
X011677Y006372D01*
X011605Y006300D01*
X011566Y006205D01*
X011566Y006103D01*
X011605Y006008D01*
X011677Y005936D01*
X011772Y005897D01*
X011874Y005897D01*
X011969Y005936D01*
X012041Y006008D01*
X012080Y006103D01*
X012080Y006172D01*
X012169Y006172D01*
X012028Y005995D02*
X015006Y005995D01*
X015092Y005604D02*
X015170Y005604D01*
X015186Y005409D02*
X014944Y005409D01*
X014725Y005409D02*
X007356Y005409D01*
X007303Y005604D02*
X011074Y005604D01*
X011064Y005628D02*
X011104Y005530D01*
X011179Y005455D01*
X011278Y005414D01*
X011384Y005414D01*
X011482Y005455D01*
X011557Y005530D01*
X011598Y005628D01*
X011598Y005735D01*
X011557Y005833D01*
X011482Y005908D01*
X011384Y005949D01*
X011278Y005949D01*
X011179Y005908D01*
X011104Y005833D01*
X011064Y005735D01*
X011064Y005628D01*
X011091Y005800D02*
X010666Y005800D01*
X010663Y005792D02*
X010702Y005886D01*
X010702Y005989D01*
X010663Y006083D01*
X010591Y006156D01*
X010496Y006195D01*
X010394Y006195D01*
X010299Y006156D01*
X010227Y006083D01*
X010188Y005989D01*
X010188Y005886D01*
X010227Y005792D01*
X010299Y005719D01*
X010394Y005680D01*
X010496Y005680D01*
X010591Y005719D01*
X010663Y005792D01*
X010700Y005995D02*
X011618Y005995D01*
X011571Y005800D02*
X014628Y005800D01*
X014577Y005604D02*
X011588Y005604D01*
X011566Y006191D02*
X010506Y006191D01*
X010383Y006191D02*
X008284Y006191D01*
X008287Y006192D02*
X008360Y006264D01*
X008399Y006359D01*
X008399Y006461D01*
X008360Y006556D01*
X008287Y006628D01*
X008193Y006667D01*
X008192Y006667D01*
X008202Y006678D01*
X008242Y006772D01*
X008242Y006874D01*
X008202Y006969D01*
X008130Y007041D01*
X008035Y007081D01*
X007933Y007081D01*
X007838Y007041D01*
X007766Y006969D01*
X007727Y006874D01*
X007727Y006772D01*
X007766Y006678D01*
X007838Y006605D01*
X007933Y006566D01*
X007934Y006566D01*
X007924Y006556D01*
X007884Y006461D01*
X007884Y006359D01*
X007924Y006264D01*
X007996Y006192D01*
X008091Y006153D01*
X008193Y006153D01*
X008287Y006192D01*
X008399Y006386D02*
X011710Y006386D01*
X011906Y006581D02*
X008334Y006581D01*
X008242Y006777D02*
X008844Y006777D01*
X008829Y006811D02*
X008868Y006717D01*
X008941Y006645D01*
X009035Y006605D01*
X009138Y006605D01*
X009232Y006645D01*
X009305Y006717D01*
X009344Y006811D01*
X009344Y006914D01*
X009305Y007008D01*
X009232Y007081D01*
X009138Y007120D01*
X009035Y007120D01*
X008941Y007081D01*
X008868Y007008D01*
X008829Y006914D01*
X008829Y006811D01*
X008853Y006972D02*
X008199Y006972D01*
X007896Y006581D02*
X007650Y006581D01*
X007651Y006579D02*
X007612Y006674D01*
X007539Y006746D01*
X007445Y006785D01*
X007342Y006785D01*
X007248Y006746D01*
X007246Y006744D01*
X007244Y006746D01*
X007150Y006785D01*
X007047Y006785D01*
X007019Y006774D01*
X007021Y006776D01*
X007060Y006871D01*
X007060Y006973D01*
X007021Y007067D01*
X006949Y007140D01*
X006909Y007157D01*
X006953Y007157D01*
X007047Y007196D01*
X007120Y007268D01*
X007159Y007363D01*
X016397Y007363D01*
X016397Y007558D02*
X007120Y007558D01*
X007120Y007560D02*
X007047Y007632D01*
X006953Y007671D01*
X006909Y007671D01*
X006949Y007688D01*
X007021Y007760D01*
X007060Y007855D01*
X007060Y007957D01*
X007021Y008052D01*
X006949Y008124D01*
X006881Y008152D01*
X006949Y008180D01*
X007021Y008252D01*
X007060Y008347D01*
X007060Y008449D01*
X007021Y008544D01*
X006949Y008616D01*
X006881Y008644D01*
X006949Y008672D01*
X007021Y008744D01*
X007060Y008839D01*
X007060Y008941D01*
X007021Y009036D01*
X006949Y009108D01*
X006872Y009140D01*
X006929Y009164D01*
X007002Y009237D01*
X007041Y009331D01*
X007041Y009434D01*
X007002Y009528D01*
X006929Y009600D01*
X006835Y009640D01*
X006732Y009640D01*
X006638Y009600D01*
X006565Y009528D01*
X006526Y009434D01*
X006526Y009331D01*
X006565Y009237D01*
X006638Y009164D01*
X006715Y009132D01*
X006657Y009108D01*
X006585Y009036D01*
X006546Y008941D01*
X006546Y008839D01*
X006585Y008744D01*
X006657Y008672D01*
X006725Y008644D01*
X006657Y008616D01*
X006585Y008544D01*
X006546Y008449D01*
X006546Y008347D01*
X006585Y008252D01*
X006657Y008180D01*
X006725Y008152D01*
X006657Y008124D01*
X006585Y008052D01*
X006546Y007957D01*
X006546Y007855D01*
X006585Y007760D01*
X006657Y007688D01*
X006752Y007649D01*
X006796Y007649D01*
X006756Y007632D01*
X006683Y007560D01*
X006644Y007465D01*
X006644Y007363D01*
X005863Y007363D01*
X005879Y007402D02*
X005879Y007504D01*
X005840Y007599D01*
X005768Y007671D01*
X005673Y007711D01*
X005571Y007711D01*
X005476Y007671D01*
X005404Y007599D01*
X005390Y007566D01*
X005305Y007602D01*
X005152Y007602D01*
X005010Y007543D01*
X004902Y007435D01*
X004844Y007294D01*
X004844Y007140D01*
X004902Y006999D01*
X005010Y006891D01*
X005152Y006832D01*
X005305Y006832D01*
X005446Y006891D01*
X005554Y006999D01*
X005613Y007140D01*
X005613Y007196D01*
X005673Y007196D01*
X005768Y007235D01*
X005840Y007307D01*
X005879Y007402D01*
X005857Y007558D02*
X006683Y007558D01*
X006644Y007363D02*
X006683Y007268D01*
X006756Y007196D01*
X006796Y007179D01*
X006752Y007179D01*
X006657Y007140D01*
X006585Y007067D01*
X006546Y006973D01*
X006546Y006871D01*
X006585Y006776D01*
X006657Y006704D01*
X006752Y006664D01*
X006854Y006664D01*
X006883Y006676D01*
X006880Y006674D01*
X006841Y006579D01*
X006841Y006477D01*
X006880Y006382D01*
X006953Y006310D01*
X007047Y006271D01*
X007150Y006271D01*
X007244Y006310D01*
X007246Y006312D01*
X007248Y006310D01*
X007342Y006271D01*
X007445Y006271D01*
X007539Y006310D01*
X007612Y006382D01*
X007651Y006477D01*
X007651Y006579D01*
X007613Y006386D02*
X007884Y006386D01*
X007999Y006191D02*
X007160Y006191D01*
X007037Y006191D02*
X005861Y006191D01*
X005891Y006203D02*
X005967Y006278D01*
X006007Y006376D01*
X006007Y006483D01*
X005967Y006581D01*
X005891Y006656D01*
X005793Y006697D01*
X005687Y006697D01*
X005589Y006656D01*
X005562Y006629D01*
X005554Y006647D01*
X005446Y006756D01*
X005305Y006814D01*
X005152Y006814D01*
X005010Y006756D01*
X004902Y006647D01*
X004844Y006506D01*
X004844Y006353D01*
X004902Y006212D01*
X005010Y006104D01*
X005152Y006045D01*
X005305Y006045D01*
X005446Y006104D01*
X005554Y006212D01*
X005562Y006230D01*
X005589Y006203D01*
X005687Y006162D01*
X005793Y006162D01*
X005891Y006203D01*
X006007Y006386D02*
X006879Y006386D01*
X006842Y006581D02*
X005966Y006581D01*
X005619Y006191D02*
X005533Y006191D01*
X005381Y005995D02*
X006844Y005995D01*
X006877Y005800D02*
X006039Y005800D01*
X006086Y005604D02*
X006894Y005604D01*
X006841Y005409D02*
X005954Y005409D01*
X005684Y005409D02*
X005539Y005409D01*
X005577Y005018D02*
X006847Y005018D01*
X006874Y004823D02*
X005613Y004823D01*
X005545Y004627D02*
X006901Y004627D01*
X006841Y004432D02*
X005353Y004432D01*
X005575Y004237D02*
X006968Y004237D01*
X006850Y004041D02*
X005967Y004041D01*
X006027Y003846D02*
X006871Y003846D01*
X006908Y003650D02*
X005917Y003650D01*
X004887Y002673D02*
X004586Y002673D01*
X004629Y002478D02*
X004844Y002478D01*
X004899Y002283D02*
X004573Y002283D01*
X005854Y001696D02*
X007209Y001696D01*
X007347Y004041D02*
X011328Y004041D01*
X011270Y004237D02*
X011037Y004237D01*
X011004Y004204D02*
X011076Y004276D01*
X011116Y004371D01*
X011116Y004473D01*
X011076Y004567D01*
X011004Y004640D01*
X010909Y004679D01*
X010807Y004679D01*
X010712Y004640D01*
X010640Y004567D01*
X010601Y004473D01*
X010601Y004371D01*
X010640Y004276D01*
X010712Y004204D01*
X010807Y004164D01*
X010909Y004164D01*
X011004Y004204D01*
X011116Y004432D02*
X011403Y004432D01*
X011652Y004432D02*
X016397Y004432D01*
X016397Y004627D02*
X011016Y004627D01*
X010700Y004627D02*
X007296Y004627D01*
X007323Y004823D02*
X016397Y004823D01*
X016397Y005018D02*
X007350Y005018D01*
X007356Y004432D02*
X010601Y004432D01*
X010679Y004237D02*
X007229Y004237D01*
X007320Y005800D02*
X009644Y005800D01*
X009656Y005772D02*
X009728Y005700D01*
X009823Y005660D01*
X009925Y005660D01*
X010020Y005700D01*
X010092Y005772D01*
X010131Y005867D01*
X010131Y005969D01*
X010092Y006064D01*
X010020Y006136D01*
X009925Y006175D01*
X009823Y006175D01*
X009728Y006136D01*
X009656Y006064D01*
X009617Y005969D01*
X009617Y005867D01*
X009656Y005772D01*
X009628Y005995D02*
X007353Y005995D01*
X007322Y006777D02*
X007170Y006777D01*
X007026Y006777D02*
X007022Y006777D01*
X007060Y006972D02*
X007769Y006972D01*
X007727Y006777D02*
X007466Y006777D01*
X006979Y007167D02*
X016397Y007167D01*
X016397Y006972D02*
X009320Y006972D01*
X009329Y006777D02*
X016397Y006777D01*
X016397Y006581D02*
X012330Y006581D01*
X012375Y006386D02*
X016397Y006386D01*
X016397Y007754D02*
X010217Y007754D01*
X010201Y007747D02*
X010295Y007786D01*
X010368Y007859D01*
X010407Y007953D01*
X010407Y008056D01*
X010368Y008150D01*
X010295Y008223D01*
X010201Y008262D01*
X010098Y008262D01*
X010004Y008223D01*
X009931Y008150D01*
X009892Y008056D01*
X009892Y007953D01*
X009931Y007859D01*
X010004Y007786D01*
X010098Y007747D01*
X010201Y007747D01*
X010082Y007754D02*
X007015Y007754D01*
X007060Y007949D02*
X009894Y007949D01*
X009929Y008144D02*
X006900Y008144D01*
X007057Y008340D02*
X009280Y008340D01*
X009309Y008328D02*
X009415Y008328D01*
X009514Y008368D01*
X009589Y008444D01*
X009629Y008542D01*
X009629Y008648D01*
X009589Y008746D01*
X009514Y008821D01*
X009415Y008862D01*
X009309Y008862D01*
X009211Y008821D01*
X009136Y008746D01*
X009095Y008648D01*
X009095Y008542D01*
X009136Y008444D01*
X009211Y008368D01*
X009309Y008328D01*
X009444Y008340D02*
X011405Y008340D01*
X011399Y008345D02*
X011475Y008270D01*
X011573Y008229D01*
X011679Y008229D01*
X011777Y008270D01*
X011852Y008345D01*
X011893Y008443D01*
X011893Y008550D01*
X011852Y008648D01*
X011777Y008723D01*
X011679Y008764D01*
X011573Y008764D01*
X011475Y008723D01*
X011399Y008648D01*
X011359Y008550D01*
X011359Y008443D01*
X011399Y008345D01*
X011359Y008535D02*
X010257Y008535D01*
X010269Y008548D02*
X010308Y008642D01*
X010308Y008745D01*
X010269Y008839D01*
X010197Y008911D01*
X010102Y008951D01*
X010000Y008951D01*
X009905Y008911D01*
X009833Y008839D01*
X009794Y008745D01*
X009794Y008642D01*
X009833Y008548D01*
X009905Y008475D01*
X010000Y008436D01*
X010102Y008436D01*
X010197Y008475D01*
X010269Y008548D01*
X010308Y008731D02*
X011493Y008731D01*
X011759Y008731D02*
X016397Y008731D01*
X016397Y008926D02*
X010162Y008926D01*
X009940Y008926D02*
X007060Y008926D01*
X007007Y008731D02*
X009129Y008731D01*
X009098Y008535D02*
X007025Y008535D01*
X006581Y008535D02*
X005516Y008535D01*
X005554Y008574D02*
X005613Y008715D01*
X005613Y008868D01*
X005554Y009010D01*
X005446Y009118D01*
X005305Y009176D01*
X005152Y009176D01*
X005010Y009118D01*
X004902Y009010D01*
X004844Y008868D01*
X004844Y008715D01*
X004902Y008574D01*
X005010Y008466D01*
X005152Y008407D01*
X005305Y008407D01*
X005446Y008466D01*
X005554Y008574D01*
X005613Y008731D02*
X006599Y008731D01*
X006546Y008926D02*
X005589Y008926D01*
X005438Y009121D02*
X006689Y009121D01*
X006532Y009317D02*
X005510Y009317D01*
X005554Y009361D02*
X005613Y009503D01*
X005613Y009656D01*
X005554Y009797D01*
X005446Y009905D01*
X005305Y009964D01*
X005152Y009964D01*
X005010Y009905D01*
X004902Y009797D01*
X004844Y009656D01*
X004844Y009503D01*
X004902Y009361D01*
X005010Y009253D01*
X005152Y009195D01*
X005305Y009195D01*
X005446Y009253D01*
X005554Y009361D01*
X005613Y009512D02*
X006559Y009512D01*
X007008Y009512D02*
X010061Y009512D01*
X010069Y009492D02*
X010030Y009587D01*
X010030Y009689D01*
X010069Y009784D01*
X010142Y009856D01*
X010236Y009896D01*
X010339Y009896D01*
X010433Y009856D01*
X010506Y009784D01*
X010545Y009689D01*
X010545Y009587D01*
X010506Y009492D01*
X010433Y009420D01*
X010339Y009381D01*
X010236Y009381D01*
X010142Y009420D01*
X010069Y009492D01*
X010038Y009708D02*
X005591Y009708D01*
X005449Y009903D02*
X013140Y009903D01*
X013140Y009926D02*
X013140Y009823D01*
X013179Y009729D01*
X013252Y009656D01*
X013346Y009617D01*
X013449Y009617D01*
X013543Y009656D01*
X013594Y009707D01*
X013646Y009656D01*
X013740Y009617D01*
X013843Y009617D01*
X013937Y009656D01*
X014009Y009729D01*
X014049Y009823D01*
X014049Y009926D01*
X014009Y010020D01*
X013937Y010093D01*
X013843Y010132D01*
X013740Y010132D01*
X013646Y010093D01*
X013594Y010041D01*
X013543Y010093D01*
X013449Y010132D01*
X013346Y010132D01*
X013252Y010093D01*
X013179Y010020D01*
X013140Y009926D01*
X013266Y010098D02*
X002627Y010098D01*
X002618Y010089D02*
X002691Y010162D01*
X002730Y010256D01*
X002730Y010359D01*
X002691Y010453D01*
X002618Y010526D01*
X002524Y010565D01*
X002421Y010565D01*
X002327Y010526D01*
X002254Y010453D01*
X002215Y010359D01*
X002215Y010256D01*
X002254Y010162D01*
X002327Y010089D01*
X002421Y010050D01*
X002524Y010050D01*
X002618Y010089D01*
X002730Y010294D02*
X015772Y010294D01*
X015758Y010260D02*
X015758Y010158D01*
X015798Y010063D01*
X015870Y009991D01*
X015965Y009952D01*
X016067Y009952D01*
X016161Y009991D01*
X016234Y010063D01*
X016273Y010158D01*
X016273Y010260D01*
X016234Y010355D01*
X016161Y010427D01*
X016067Y010466D01*
X015965Y010466D01*
X015886Y010434D01*
X015919Y010512D01*
X015919Y010615D01*
X015880Y010709D01*
X015807Y010782D01*
X015713Y010821D01*
X015610Y010821D01*
X015516Y010782D01*
X015443Y010709D01*
X015415Y010642D01*
X015387Y010709D01*
X015315Y010782D01*
X015220Y010821D01*
X015118Y010821D01*
X015024Y010782D01*
X014951Y010709D01*
X014912Y010615D01*
X014912Y010512D01*
X014951Y010418D01*
X015024Y010345D01*
X015118Y010306D01*
X015220Y010306D01*
X015315Y010345D01*
X015387Y010418D01*
X015415Y010485D01*
X015443Y010418D01*
X015516Y010345D01*
X015610Y010306D01*
X015713Y010306D01*
X015791Y010339D01*
X015758Y010260D01*
X015783Y010098D02*
X013923Y010098D01*
X014049Y009903D02*
X016397Y009903D01*
X016397Y010098D02*
X016248Y010098D01*
X016259Y010294D02*
X016397Y010294D01*
X016397Y010489D02*
X015909Y010489D01*
X015890Y010685D02*
X016397Y010685D01*
X016397Y010880D02*
X011558Y010880D01*
X011536Y010857D02*
X011608Y010929D01*
X011647Y011024D01*
X011647Y011126D01*
X011608Y011221D01*
X011536Y011293D01*
X011441Y011333D01*
X011339Y011333D01*
X011244Y011293D01*
X011172Y011221D01*
X011132Y011126D01*
X011132Y011024D01*
X011172Y010929D01*
X011244Y010857D01*
X011339Y010818D01*
X011441Y010818D01*
X011536Y010857D01*
X011647Y011075D02*
X014923Y011075D01*
X014912Y011103D02*
X014951Y011008D01*
X015024Y010936D01*
X015118Y010897D01*
X015220Y010897D01*
X015315Y010936D01*
X015387Y011008D01*
X015415Y011076D01*
X015443Y011008D01*
X015516Y010936D01*
X015610Y010897D01*
X015713Y010897D01*
X015807Y010936D01*
X015880Y011008D01*
X015919Y011103D01*
X015919Y011205D01*
X015880Y011300D01*
X015807Y011372D01*
X015713Y011411D01*
X015610Y011411D01*
X015516Y011372D01*
X015443Y011300D01*
X015415Y011232D01*
X015387Y011300D01*
X015315Y011372D01*
X015220Y011411D01*
X015118Y011411D01*
X015024Y011372D01*
X014951Y011300D01*
X014912Y011205D01*
X014912Y011103D01*
X014939Y011271D02*
X012954Y011271D01*
X012966Y011300D02*
X012966Y011393D01*
X013051Y011428D01*
X013124Y011500D01*
X013163Y011595D01*
X013163Y011697D01*
X013124Y011792D01*
X013051Y011864D01*
X012957Y011903D01*
X012854Y011903D01*
X012760Y011864D01*
X012709Y011813D01*
X012658Y011864D01*
X012563Y011903D01*
X012461Y011903D01*
X012366Y011864D01*
X012294Y011792D01*
X012254Y011697D01*
X012254Y011595D01*
X012294Y011500D01*
X012366Y011428D01*
X012451Y011393D01*
X012451Y011300D01*
X012491Y011205D01*
X012563Y011133D01*
X012657Y011094D01*
X012760Y011094D01*
X012854Y011133D01*
X012927Y011205D01*
X012966Y011300D01*
X013089Y011466D02*
X016397Y011466D01*
X016397Y011271D02*
X015892Y011271D01*
X015907Y011075D02*
X016397Y011075D01*
X016397Y011662D02*
X013163Y011662D01*
X013059Y011857D02*
X016397Y011857D01*
X016397Y012052D02*
X008453Y012052D01*
X008439Y012087D02*
X008366Y012160D01*
X008272Y012199D01*
X008169Y012199D01*
X008075Y012160D01*
X008002Y012087D01*
X007963Y011993D01*
X007963Y011890D01*
X008002Y011796D01*
X008075Y011723D01*
X008169Y011684D01*
X008272Y011684D01*
X008366Y011723D01*
X008439Y011796D01*
X008478Y011890D01*
X008478Y011993D01*
X008439Y012087D01*
X008464Y011857D02*
X008833Y011857D01*
X008803Y011845D02*
X008898Y011884D01*
X009000Y011884D01*
X009095Y011845D01*
X009167Y011772D01*
X009206Y011678D01*
X009206Y011575D01*
X009167Y011481D01*
X009095Y011408D01*
X009000Y011369D01*
X008898Y011369D01*
X008803Y011408D01*
X008731Y011481D01*
X008691Y011575D01*
X008691Y011678D01*
X008731Y011772D01*
X008803Y011845D01*
X008691Y011662D02*
X008005Y011662D01*
X008005Y011678D02*
X007966Y011772D01*
X007894Y011845D01*
X007799Y011884D01*
X007697Y011884D01*
X007602Y011845D01*
X007530Y011772D01*
X007516Y011739D01*
X007427Y011775D01*
X007321Y011775D01*
X007223Y011735D01*
X007148Y011660D01*
X007107Y011561D01*
X007107Y011455D01*
X007148Y011357D01*
X007223Y011282D01*
X007321Y011241D01*
X007427Y011241D01*
X007525Y011282D01*
X007600Y011357D01*
X007619Y011401D01*
X007697Y011369D01*
X007799Y011369D01*
X007894Y011408D01*
X007966Y011481D01*
X008005Y011575D01*
X008005Y011678D01*
X007977Y011857D02*
X007864Y011857D01*
X007988Y012052D02*
X001151Y012052D01*
X001141Y012248D02*
X016397Y012248D01*
X016397Y012443D02*
X003305Y012443D01*
X003320Y012481D02*
X003320Y012583D01*
X003281Y012678D01*
X003209Y012750D01*
X003141Y012778D01*
X003209Y012806D01*
X003281Y012878D01*
X003320Y012973D01*
X003320Y013075D01*
X003281Y013170D01*
X003209Y013242D01*
X003114Y013281D01*
X003012Y013281D01*
X002917Y013242D01*
X002897Y013222D01*
X002896Y013224D01*
X002875Y013289D01*
X002844Y013350D01*
X002804Y013406D01*
X002756Y013454D01*
X002700Y013494D01*
X002639Y013525D01*
X002589Y013542D01*
X002690Y013584D01*
X002799Y013692D01*
X002857Y013833D01*
X002857Y013986D01*
X002799Y014128D01*
X002690Y014236D01*
X002549Y014295D01*
X002396Y014295D01*
X002255Y014236D01*
X002146Y014128D01*
X002104Y014026D01*
X002088Y014077D01*
X002057Y014138D01*
X002017Y014193D01*
X001968Y014241D01*
X001913Y014282D01*
X001852Y014313D01*
X001801Y014329D01*
X001903Y014371D01*
X002011Y014479D01*
X002070Y014621D01*
X002070Y014774D01*
X002011Y014915D01*
X001903Y015023D01*
X001762Y015082D01*
X001609Y015082D01*
X001467Y015023D01*
X001359Y014915D01*
X001300Y014774D01*
X001300Y014621D01*
X001359Y014479D01*
X001467Y014371D01*
X001569Y014329D01*
X001518Y014313D01*
X001457Y014282D01*
X001402Y014241D01*
X001354Y014193D01*
X001313Y014138D01*
X001282Y014077D01*
X001261Y014012D01*
X001250Y013944D01*
X001250Y013910D01*
X001685Y013910D01*
X001685Y013910D01*
X001250Y013910D01*
X001250Y013876D01*
X001261Y013808D01*
X001282Y013743D01*
X001313Y013682D01*
X001354Y013627D01*
X001402Y013578D01*
X001457Y013538D01*
X001518Y013507D01*
X001569Y013491D01*
X001467Y013449D01*
X001359Y013340D01*
X001300Y013199D01*
X001300Y013046D01*
X001359Y012905D01*
X001467Y012796D01*
X001609Y012738D01*
X001762Y012738D01*
X001903Y012796D01*
X002011Y012905D01*
X002053Y013006D01*
X002070Y012956D01*
X002101Y012895D01*
X002141Y012839D01*
X002189Y012791D01*
X002245Y012751D01*
X002306Y012720D01*
X002371Y012699D01*
X002438Y012688D01*
X002472Y012688D01*
X002472Y013122D01*
X002473Y013122D01*
X002473Y012688D01*
X002507Y012688D01*
X002574Y012699D01*
X002639Y012720D01*
X002700Y012751D01*
X002756Y012791D01*
X002804Y012839D01*
X002840Y012889D01*
X002845Y012878D01*
X002917Y012806D01*
X002985Y012778D01*
X002917Y012750D01*
X002845Y012678D01*
X002806Y012583D01*
X002806Y012481D01*
X002845Y012386D01*
X002917Y012314D01*
X003012Y012275D01*
X003114Y012275D01*
X003209Y012314D01*
X003281Y012386D01*
X003320Y012481D01*
X003297Y012639D02*
X016397Y012639D01*
X016397Y012834D02*
X013146Y012834D01*
X013163Y012874D02*
X013124Y012780D01*
X013051Y012708D01*
X012957Y012668D01*
X012854Y012668D01*
X012760Y012708D01*
X012709Y012759D01*
X012658Y012708D01*
X012563Y012668D01*
X012461Y012668D01*
X012366Y012708D01*
X012294Y012780D01*
X012254Y012874D01*
X012254Y012977D01*
X012294Y013071D01*
X012366Y013144D01*
X012461Y013183D01*
X012563Y013183D01*
X012658Y013144D01*
X012709Y013093D01*
X012760Y013144D01*
X012854Y013183D01*
X012957Y013183D01*
X013051Y013144D01*
X013124Y013071D01*
X013163Y012977D01*
X013163Y012874D01*
X013141Y013029D02*
X016397Y013029D01*
X016397Y013225D02*
X008635Y013225D01*
X008635Y013272D02*
X008635Y013170D01*
X008596Y013075D01*
X008524Y013003D01*
X008429Y012964D01*
X008327Y012964D01*
X008232Y013003D01*
X008160Y013075D01*
X008121Y013170D01*
X008121Y013272D01*
X008160Y013367D01*
X008232Y013439D01*
X008327Y013478D01*
X008429Y013478D01*
X008524Y013439D01*
X008596Y013367D01*
X008635Y013272D01*
X008543Y013420D02*
X012352Y013420D01*
X012333Y013465D02*
X012372Y013370D01*
X012445Y013298D01*
X012539Y013259D01*
X012642Y013259D01*
X012736Y013298D01*
X012748Y013310D01*
X012760Y013298D01*
X012854Y013259D01*
X012957Y013259D01*
X013051Y013298D01*
X013124Y013370D01*
X013163Y013465D01*
X013163Y013567D01*
X013124Y013662D01*
X013051Y013734D01*
X012957Y013774D01*
X012854Y013774D01*
X012760Y013734D01*
X012748Y013723D01*
X012736Y013734D01*
X012642Y013774D01*
X012539Y013774D01*
X012445Y013734D01*
X012372Y013662D01*
X012333Y013567D01*
X012333Y013465D01*
X012353Y013615D02*
X002722Y013615D01*
X002789Y013420D02*
X007050Y013420D01*
X007038Y013390D02*
X007038Y013288D01*
X007077Y013193D01*
X007149Y013121D01*
X007244Y013082D01*
X007346Y013082D01*
X007441Y013121D01*
X007513Y013193D01*
X007553Y013288D01*
X007553Y013390D01*
X007513Y013485D01*
X007441Y013557D01*
X007346Y013596D01*
X007244Y013596D01*
X007149Y013557D01*
X007077Y013485D01*
X007038Y013390D01*
X007064Y013225D02*
X003226Y013225D01*
X003320Y013029D02*
X008206Y013029D01*
X008121Y013225D02*
X007526Y013225D01*
X007540Y013420D02*
X008213Y013420D01*
X007907Y013764D02*
X007946Y013859D01*
X007946Y013961D01*
X007907Y014056D01*
X007835Y014128D01*
X007740Y014167D01*
X007638Y014167D01*
X007543Y014128D01*
X007471Y014056D01*
X007432Y013961D01*
X007432Y013859D01*
X007471Y013764D01*
X007543Y013692D01*
X007638Y013653D01*
X007740Y013653D01*
X007835Y013692D01*
X007907Y013764D01*
X007926Y013811D02*
X016397Y013811D01*
X016397Y014006D02*
X007928Y014006D01*
X007450Y014006D02*
X002849Y014006D01*
X002848Y013811D02*
X007451Y013811D01*
X008550Y013029D02*
X012276Y013029D01*
X012271Y012834D02*
X003237Y012834D01*
X002889Y012834D02*
X002798Y012834D01*
X002829Y012639D02*
X000752Y012639D01*
X000752Y012834D02*
X001430Y012834D01*
X001307Y013029D02*
X000752Y013029D01*
X001148Y013225D02*
X001311Y013225D01*
X001439Y013420D02*
X001145Y013420D01*
X001365Y013615D02*
X000752Y013615D01*
X000752Y013811D02*
X001261Y013811D01*
X001260Y014006D02*
X000752Y014006D01*
X000752Y014202D02*
X001362Y014202D01*
X001441Y014397D02*
X001144Y014397D01*
X001149Y014592D02*
X001312Y014592D01*
X001306Y014788D02*
X000752Y014788D01*
X000752Y014983D02*
X001427Y014983D01*
X001943Y014983D02*
X002214Y014983D01*
X002255Y015023D02*
X002146Y014915D01*
X002088Y014774D01*
X002088Y014621D01*
X002146Y014479D01*
X002255Y014371D01*
X002396Y014313D01*
X002549Y014313D01*
X002690Y014371D01*
X002799Y014479D01*
X002857Y014621D01*
X002857Y014774D01*
X002799Y014915D01*
X002690Y015023D01*
X002549Y015082D01*
X002396Y015082D01*
X002255Y015023D01*
X002094Y014788D02*
X002064Y014788D01*
X002058Y014592D02*
X002100Y014592D01*
X002229Y014397D02*
X001929Y014397D01*
X002008Y014202D02*
X002220Y014202D01*
X002725Y014202D02*
X016397Y014202D01*
X016397Y014397D02*
X005070Y014397D01*
X005053Y014355D02*
X005092Y014449D01*
X005092Y014552D01*
X005053Y014646D01*
X004980Y014719D01*
X004886Y014758D01*
X004783Y014758D01*
X004689Y014719D01*
X004616Y014646D01*
X004577Y014552D01*
X004577Y014449D01*
X004616Y014355D01*
X004689Y014282D01*
X004783Y014243D01*
X004886Y014243D01*
X004980Y014282D01*
X005053Y014355D01*
X005075Y014592D02*
X016397Y014592D01*
X016397Y014788D02*
X014147Y014788D01*
X014134Y014774D02*
X014206Y014847D01*
X014245Y014941D01*
X014245Y015044D01*
X014206Y015138D01*
X014134Y015211D01*
X014039Y015250D01*
X013937Y015250D01*
X013842Y015211D01*
X013770Y015138D01*
X013731Y015044D01*
X013731Y014941D01*
X013770Y014847D01*
X013842Y014774D01*
X013937Y014735D01*
X014039Y014735D01*
X014134Y014774D01*
X014245Y014983D02*
X015231Y014983D01*
X015246Y014945D02*
X015319Y014873D01*
X015413Y014834D01*
X015516Y014834D01*
X015610Y014873D01*
X015683Y014945D01*
X015722Y015040D01*
X015722Y015142D01*
X015683Y015237D01*
X015610Y015309D01*
X015516Y015348D01*
X015413Y015348D01*
X015319Y015309D01*
X015246Y015237D01*
X015207Y015142D01*
X015207Y015040D01*
X015246Y014945D01*
X015118Y015070D02*
X015191Y015142D01*
X015230Y015237D01*
X015230Y015339D01*
X015191Y015434D01*
X015118Y015506D01*
X015024Y015545D01*
X014921Y015545D01*
X014827Y015506D01*
X014824Y015504D01*
X014836Y015532D01*
X014836Y015634D01*
X014797Y015729D01*
X014724Y015801D01*
X014630Y015840D01*
X014528Y015840D01*
X014433Y015801D01*
X014361Y015729D01*
X014321Y015634D01*
X014321Y015532D01*
X014361Y015437D01*
X014433Y015365D01*
X014528Y015326D01*
X014630Y015326D01*
X014724Y015365D01*
X014727Y015367D01*
X014715Y015339D01*
X014715Y015237D01*
X014754Y015142D01*
X014827Y015070D01*
X014921Y015031D01*
X015024Y015031D01*
X015118Y015070D01*
X015206Y015179D02*
X015222Y015179D01*
X015215Y015374D02*
X016397Y015374D01*
X016397Y015179D02*
X015707Y015179D01*
X015698Y014983D02*
X016397Y014983D01*
X016397Y015569D02*
X014836Y015569D01*
X014761Y015765D02*
X016397Y015765D01*
X016397Y015960D02*
X014022Y015960D01*
X014009Y015929D02*
X014049Y016024D01*
X014049Y016126D01*
X014009Y016221D01*
X013937Y016293D01*
X013843Y016333D01*
X013740Y016333D01*
X013646Y016293D01*
X013573Y016221D01*
X013534Y016126D01*
X013534Y016024D01*
X013573Y015929D01*
X013646Y015857D01*
X013740Y015818D01*
X013843Y015818D01*
X013937Y015857D01*
X014009Y015929D01*
X014037Y016156D02*
X016397Y016156D01*
X016397Y016351D02*
X009324Y016351D01*
X009324Y016319D02*
X009324Y016422D01*
X009285Y016516D01*
X009213Y016589D01*
X009118Y016628D01*
X009016Y016628D01*
X008921Y016589D01*
X008850Y016518D01*
X008823Y016529D01*
X008720Y016529D01*
X008626Y016490D01*
X008554Y016418D01*
X008514Y016323D01*
X008514Y016221D01*
X008554Y016126D01*
X008626Y016054D01*
X008720Y016015D01*
X008823Y016015D01*
X008917Y016054D01*
X008988Y016125D01*
X009016Y016113D01*
X009118Y016113D01*
X009213Y016152D01*
X009285Y016225D01*
X009324Y016319D01*
X009216Y016156D02*
X013546Y016156D01*
X013560Y015960D02*
X000752Y015960D01*
X000752Y016156D02*
X008541Y016156D01*
X008526Y016351D02*
X000752Y016351D01*
X000752Y016546D02*
X007337Y016546D01*
X007181Y016742D02*
X000752Y016742D01*
X000752Y016937D02*
X007106Y016937D01*
X007106Y017133D02*
X000752Y017133D01*
X000752Y017328D02*
X007161Y017328D01*
X007287Y017523D02*
X000752Y017523D01*
X001152Y015765D02*
X007408Y015765D01*
X007372Y015729D02*
X007333Y015634D01*
X007333Y015532D01*
X007372Y015437D01*
X007445Y015365D01*
X007539Y015326D01*
X007642Y015326D01*
X007736Y015365D01*
X007809Y015437D01*
X007848Y015532D01*
X007848Y015634D01*
X007809Y015729D01*
X007736Y015801D01*
X007642Y015840D01*
X007539Y015840D01*
X007445Y015801D01*
X007372Y015729D01*
X007333Y015569D02*
X001140Y015569D01*
X000752Y015374D02*
X007436Y015374D01*
X007745Y015374D02*
X014424Y015374D01*
X014321Y015569D02*
X007848Y015569D01*
X007773Y015765D02*
X014396Y015765D01*
X014166Y015179D02*
X014739Y015179D01*
X013810Y015179D02*
X000752Y015179D01*
X002472Y013029D02*
X002473Y013029D01*
X002472Y012834D02*
X002473Y012834D01*
X002146Y012834D02*
X001940Y012834D01*
X002821Y012443D02*
X000752Y012443D01*
X000752Y011857D02*
X007632Y011857D01*
X007952Y011466D02*
X008745Y011466D01*
X009152Y011466D02*
X012328Y011466D01*
X012254Y011662D02*
X009206Y011662D01*
X009065Y011857D02*
X012359Y011857D01*
X012665Y011857D02*
X012752Y011857D01*
X012463Y011271D02*
X011558Y011271D01*
X011221Y011271D02*
X007499Y011271D01*
X007249Y011271D02*
X000752Y011271D01*
X000752Y011466D02*
X007107Y011466D01*
X007149Y011662D02*
X000752Y011662D01*
X000752Y011075D02*
X011132Y011075D01*
X011221Y010880D02*
X008421Y010880D01*
X008408Y010912D02*
X008332Y010987D01*
X008234Y011027D01*
X008128Y011027D01*
X008030Y010987D01*
X007955Y010912D01*
X007914Y010813D01*
X007914Y010707D01*
X007955Y010609D01*
X008030Y010534D01*
X008128Y010493D01*
X008234Y010493D01*
X008332Y010534D01*
X008408Y010609D01*
X008448Y010707D01*
X008448Y010813D01*
X008408Y010912D01*
X008439Y010685D02*
X012425Y010685D01*
X012412Y010654D02*
X012412Y010552D01*
X012451Y010457D01*
X012524Y010385D01*
X012618Y010346D01*
X012720Y010346D01*
X012815Y010385D01*
X012887Y010457D01*
X012927Y010552D01*
X012927Y010654D01*
X012887Y010749D01*
X012815Y010821D01*
X012720Y010860D01*
X012618Y010860D01*
X012524Y010821D01*
X012451Y010749D01*
X012412Y010654D01*
X012438Y010489D02*
X002655Y010489D01*
X002318Y010098D02*
X001263Y010098D01*
X001246Y010081D02*
X001321Y010156D01*
X001362Y010254D01*
X001362Y010361D01*
X001321Y010459D01*
X001246Y010534D01*
X001148Y010575D01*
X001041Y010575D01*
X000943Y010534D01*
X000868Y010459D01*
X000827Y010361D01*
X000827Y010254D01*
X000868Y010156D01*
X000943Y010081D01*
X001041Y010040D01*
X001148Y010040D01*
X001246Y010081D01*
X001362Y010294D02*
X002215Y010294D01*
X002290Y010489D02*
X001291Y010489D01*
X000898Y010489D02*
X000752Y010489D01*
X000752Y010294D02*
X000827Y010294D01*
X000752Y010098D02*
X000926Y010098D01*
X000752Y009903D02*
X004024Y009903D01*
X004026Y009905D02*
X003918Y009797D01*
X003859Y009656D01*
X003859Y009503D01*
X003918Y009361D01*
X004026Y009253D01*
X004168Y009195D01*
X004321Y009195D01*
X004462Y009253D01*
X004570Y009361D01*
X004629Y009503D01*
X004629Y009656D01*
X004570Y009797D01*
X004462Y009905D01*
X004321Y009964D01*
X004168Y009964D01*
X004026Y009905D01*
X003881Y009708D02*
X000752Y009708D01*
X000752Y009512D02*
X003859Y009512D01*
X003962Y009317D02*
X000752Y009317D01*
X000752Y009121D02*
X004035Y009121D01*
X004026Y009118D02*
X003918Y009010D01*
X003859Y008868D01*
X003859Y008715D01*
X003918Y008574D01*
X004026Y008466D01*
X004168Y008407D01*
X004321Y008407D01*
X004426Y008451D01*
X004410Y008412D01*
X004410Y008352D01*
X004321Y008389D01*
X004168Y008389D01*
X004026Y008330D01*
X003918Y008222D01*
X003859Y008081D01*
X003859Y007928D01*
X003918Y007786D01*
X004026Y007678D01*
X004168Y007620D01*
X004321Y007620D01*
X004462Y007678D01*
X004570Y007786D01*
X004629Y007928D01*
X004629Y008081D01*
X004624Y008092D01*
X004730Y008092D01*
X004828Y008132D01*
X004891Y008195D01*
X004844Y008081D01*
X004844Y007928D01*
X004902Y007786D01*
X005010Y007678D01*
X005152Y007620D01*
X005305Y007620D01*
X005446Y007678D01*
X005554Y007786D01*
X005613Y007928D01*
X005613Y008081D01*
X005554Y008222D01*
X005446Y008330D01*
X005305Y008389D01*
X005152Y008389D01*
X005010Y008330D01*
X004915Y008235D01*
X004944Y008306D01*
X004944Y008412D01*
X004904Y008510D01*
X004828Y008585D01*
X004730Y008626D01*
X004624Y008626D01*
X004585Y008610D01*
X004629Y008715D01*
X004629Y008868D01*
X004570Y009010D01*
X004462Y009118D01*
X004321Y009176D01*
X004168Y009176D01*
X004026Y009118D01*
X003883Y008926D02*
X000752Y008926D01*
X000752Y008731D02*
X003859Y008731D01*
X003957Y008535D02*
X000752Y008535D01*
X000752Y008340D02*
X001331Y008340D01*
X001356Y008350D02*
X001258Y008310D01*
X001183Y008234D01*
X001142Y008136D01*
X001142Y008030D01*
X001183Y007932D01*
X001258Y007857D01*
X001356Y007816D01*
X001463Y007816D01*
X001561Y007857D01*
X001636Y007932D01*
X001677Y008030D01*
X001677Y008136D01*
X001636Y008234D01*
X001561Y008310D01*
X001463Y008350D01*
X001356Y008350D01*
X001488Y008340D02*
X004049Y008340D01*
X003886Y008144D02*
X001673Y008144D01*
X001643Y007949D02*
X003859Y007949D01*
X003951Y007754D02*
X000752Y007754D01*
X000752Y007949D02*
X001176Y007949D01*
X001146Y008144D02*
X000752Y008144D01*
X000752Y007558D02*
X004063Y007558D01*
X004026Y007543D02*
X003918Y007435D01*
X003859Y007294D01*
X003859Y007140D01*
X003918Y006999D01*
X004026Y006891D01*
X004168Y006832D01*
X004321Y006832D01*
X004462Y006891D01*
X004570Y006999D01*
X004629Y007140D01*
X004629Y007294D01*
X004570Y007435D01*
X004462Y007543D01*
X004321Y007602D01*
X004168Y007602D01*
X004026Y007543D01*
X003888Y007363D02*
X001638Y007363D01*
X001636Y007368D02*
X001561Y007443D01*
X001463Y007484D01*
X001356Y007484D01*
X001258Y007443D01*
X001183Y007368D01*
X001142Y007270D01*
X001142Y007164D01*
X001183Y007066D01*
X001258Y006991D01*
X001356Y006950D01*
X001463Y006950D01*
X001561Y006991D01*
X001636Y007066D01*
X001677Y007164D01*
X001677Y007270D01*
X001636Y007368D01*
X001677Y007167D02*
X003859Y007167D01*
X003945Y006972D02*
X001516Y006972D01*
X001303Y006972D02*
X000752Y006972D01*
X000752Y006777D02*
X000868Y006777D01*
X000868Y006778D02*
X000827Y006680D01*
X000827Y006573D01*
X000868Y006475D01*
X000943Y006400D01*
X001041Y006359D01*
X001148Y006359D01*
X001246Y006400D01*
X001321Y006475D01*
X001362Y006573D01*
X001362Y006680D01*
X001321Y006778D01*
X001246Y006853D01*
X001148Y006894D01*
X001041Y006894D01*
X000943Y006853D01*
X000868Y006778D01*
X000827Y006581D02*
X000752Y006581D01*
X000752Y006386D02*
X000977Y006386D01*
X001212Y006386D02*
X002381Y006386D01*
X002421Y006369D02*
X002524Y006369D01*
X002618Y006408D01*
X002691Y006481D01*
X002730Y006575D01*
X002730Y006678D01*
X002691Y006772D01*
X002618Y006845D01*
X002524Y006884D01*
X002421Y006884D01*
X002327Y006845D01*
X002254Y006772D01*
X002215Y006678D01*
X002215Y006575D01*
X002254Y006481D01*
X002327Y006408D01*
X002421Y006369D01*
X002564Y006386D02*
X003859Y006386D01*
X003859Y006353D02*
X003918Y006212D01*
X004026Y006104D01*
X004168Y006045D01*
X004321Y006045D01*
X004462Y006104D01*
X004570Y006212D01*
X004629Y006353D01*
X004629Y006506D01*
X004570Y006647D01*
X004462Y006756D01*
X004321Y006814D01*
X004168Y006814D01*
X004026Y006756D01*
X003918Y006647D01*
X003859Y006506D01*
X003859Y006353D01*
X003939Y006191D02*
X000752Y006191D01*
X001362Y006581D02*
X002215Y006581D01*
X002259Y006777D02*
X001321Y006777D01*
X001142Y007167D02*
X000752Y007167D01*
X000752Y007363D02*
X001181Y007363D01*
X002686Y006777D02*
X004077Y006777D01*
X003891Y006581D02*
X002730Y006581D01*
X004411Y006777D02*
X005061Y006777D01*
X004929Y006972D02*
X004543Y006972D01*
X004629Y007167D02*
X004844Y007167D01*
X004872Y007363D02*
X004600Y007363D01*
X004425Y007558D02*
X005047Y007558D01*
X004935Y007754D02*
X004537Y007754D01*
X004629Y007949D02*
X004844Y007949D01*
X004841Y008144D02*
X004870Y008144D01*
X004944Y008340D02*
X005033Y008340D01*
X004941Y008535D02*
X004878Y008535D01*
X004844Y008731D02*
X004629Y008731D01*
X004605Y008926D02*
X004868Y008926D01*
X005019Y009121D02*
X004453Y009121D01*
X004526Y009317D02*
X004947Y009317D01*
X004844Y009512D02*
X004629Y009512D01*
X004607Y009708D02*
X004865Y009708D01*
X005008Y009903D02*
X004464Y009903D01*
X005424Y008340D02*
X006549Y008340D01*
X006707Y008144D02*
X005587Y008144D01*
X005613Y007949D02*
X006546Y007949D01*
X006592Y007754D02*
X005522Y007754D01*
X005613Y007167D02*
X006724Y007167D01*
X006546Y006972D02*
X005527Y006972D01*
X005395Y006777D02*
X006585Y006777D01*
X007159Y007363D02*
X007159Y007465D01*
X007120Y007560D01*
X006917Y009121D02*
X016397Y009121D01*
X016397Y009317D02*
X012416Y009317D01*
X012435Y009335D02*
X012474Y009430D01*
X012474Y009532D01*
X012435Y009627D01*
X012362Y009699D01*
X012268Y009738D01*
X012165Y009738D01*
X012071Y009699D01*
X011998Y009627D01*
X011959Y009532D01*
X011959Y009430D01*
X011998Y009335D01*
X012071Y009263D01*
X012165Y009223D01*
X012268Y009223D01*
X012362Y009263D01*
X012435Y009335D01*
X012474Y009512D02*
X016397Y009512D01*
X016397Y009708D02*
X013988Y009708D01*
X013660Y010098D02*
X013529Y010098D01*
X013201Y009708D02*
X012341Y009708D01*
X012092Y009708D02*
X010537Y009708D01*
X010514Y009512D02*
X011959Y009512D01*
X012017Y009317D02*
X007035Y009317D01*
X007923Y010685D02*
X000752Y010685D01*
X000752Y010880D02*
X007941Y010880D01*
X009595Y008731D02*
X009794Y008731D01*
X009845Y008535D02*
X009627Y008535D01*
X010370Y008144D02*
X012060Y008144D01*
X012058Y008150D02*
X012097Y008055D01*
X012169Y007983D01*
X012264Y007944D01*
X012366Y007944D01*
X012461Y007983D01*
X012533Y008055D01*
X012572Y008150D01*
X012572Y008252D01*
X012533Y008347D01*
X012461Y008419D01*
X012366Y008459D01*
X012264Y008459D01*
X012169Y008419D01*
X012097Y008347D01*
X012058Y008252D01*
X012058Y008150D01*
X012094Y008340D02*
X011847Y008340D01*
X011893Y008535D02*
X016397Y008535D01*
X016397Y008340D02*
X012536Y008340D01*
X012570Y008144D02*
X016397Y008144D01*
X016397Y007949D02*
X012378Y007949D01*
X012251Y007949D02*
X010405Y007949D01*
X010190Y005995D02*
X010120Y005995D01*
X010104Y005800D02*
X010223Y005800D01*
X011922Y002673D02*
X016397Y002673D01*
X016397Y002478D02*
X011948Y002478D01*
X011884Y002283D02*
X016397Y002283D01*
X014921Y010489D02*
X012901Y010489D01*
X012914Y010685D02*
X014941Y010685D01*
X015398Y010685D02*
X015433Y010685D01*
X015415Y011075D02*
X015415Y011075D01*
X015399Y011271D02*
X015431Y011271D01*
X016397Y013420D02*
X013144Y013420D01*
X013143Y013615D02*
X016397Y013615D01*
X013829Y014788D02*
X002851Y014788D01*
X002845Y014592D02*
X004594Y014592D01*
X004599Y014397D02*
X002716Y014397D01*
X002730Y014983D02*
X013731Y014983D01*
X013907Y016719D02*
X014042Y016719D01*
X014167Y016771D01*
X014263Y016867D01*
X014315Y016992D01*
X014315Y017127D01*
X014263Y017252D01*
X014167Y017348D01*
X014042Y017400D01*
X013907Y017400D01*
X013782Y017348D01*
X013724Y017291D01*
X013667Y017348D01*
X013542Y017400D01*
X013407Y017400D01*
X013282Y017348D01*
X013224Y017291D01*
X013167Y017348D01*
X013042Y017400D01*
X012907Y017400D01*
X012782Y017348D01*
X012724Y017291D01*
X012667Y017348D01*
X012542Y017400D01*
X012407Y017400D01*
X012282Y017348D01*
X012224Y017291D01*
X012167Y017348D01*
X012042Y017400D01*
X011907Y017400D01*
X011782Y017348D01*
X011724Y017291D01*
X011667Y017348D01*
X011542Y017400D01*
X011407Y017400D01*
X011282Y017348D01*
X011224Y017291D01*
X011167Y017348D01*
X011042Y017400D01*
X010907Y017400D01*
X010782Y017348D01*
X010724Y017291D01*
X010667Y017348D01*
X010542Y017400D01*
X010407Y017400D01*
X010282Y017348D01*
X010224Y017291D01*
X010167Y017348D01*
X010042Y017400D01*
X009907Y017400D01*
X009782Y017348D01*
X009724Y017291D01*
X009667Y017348D01*
X009542Y017400D01*
X009407Y017400D01*
X009282Y017348D01*
X009186Y017252D01*
X009134Y017127D01*
X009134Y016992D01*
X009186Y016867D01*
X009282Y016771D01*
X009407Y016719D01*
X009542Y016719D01*
X009667Y016771D01*
X009724Y016828D01*
X009782Y016771D01*
X009907Y016719D01*
X010042Y016719D01*
X010167Y016771D01*
X010224Y016828D01*
X010282Y016771D01*
X010407Y016719D01*
X010542Y016719D01*
X010667Y016771D01*
X010724Y016828D01*
X010782Y016771D01*
X010907Y016719D01*
X011042Y016719D01*
X011167Y016771D01*
X011224Y016828D01*
X011282Y016771D01*
X011407Y016719D01*
X011542Y016719D01*
X011667Y016771D01*
X011724Y016828D01*
X011782Y016771D01*
X011907Y016719D01*
X012042Y016719D01*
X012167Y016771D01*
X012224Y016828D01*
X012282Y016771D01*
X012407Y016719D01*
X012542Y016719D01*
X012667Y016771D01*
X012724Y016828D01*
X012782Y016771D01*
X012907Y016719D01*
X013042Y016719D01*
X013167Y016771D01*
X013224Y016828D01*
X013282Y016771D01*
X013407Y016719D01*
X013542Y016719D01*
X013667Y016771D01*
X013724Y016828D01*
X013782Y016771D01*
X013907Y016719D01*
X013852Y016742D02*
X013597Y016742D01*
X013352Y016742D02*
X013097Y016742D01*
X012852Y016742D02*
X012597Y016742D01*
X012352Y016742D02*
X012097Y016742D01*
X011852Y016742D02*
X011597Y016742D01*
X011352Y016742D02*
X011097Y016742D01*
X010852Y016742D02*
X010597Y016742D01*
X010352Y016742D02*
X010097Y016742D01*
X009852Y016742D02*
X009597Y016742D01*
X009352Y016742D02*
X008393Y016742D01*
X008469Y016937D02*
X009157Y016937D01*
X009136Y017133D02*
X008469Y017133D01*
X008414Y017328D02*
X009262Y017328D01*
X009687Y017328D02*
X009762Y017328D01*
X010187Y017328D02*
X010262Y017328D01*
X010687Y017328D02*
X010762Y017328D01*
X011187Y017328D02*
X011262Y017328D01*
X011687Y017328D02*
X011762Y017328D01*
X012187Y017328D02*
X012262Y017328D01*
X012687Y017328D02*
X012762Y017328D01*
X013187Y017328D02*
X013262Y017328D01*
X013687Y017328D02*
X013762Y017328D01*
X014187Y017328D02*
X015035Y017328D01*
X014980Y017133D02*
X014313Y017133D01*
X014292Y016937D02*
X014980Y016937D01*
X015055Y016742D02*
X014097Y016742D01*
X015161Y017523D02*
X008287Y017523D01*
X008238Y016546D02*
X008879Y016546D01*
X009255Y016546D02*
X015211Y016546D01*
X016112Y016546D02*
X016397Y016546D01*
X016397Y016742D02*
X016267Y016742D01*
X016343Y016937D02*
X016397Y016937D01*
X016397Y017133D02*
X016343Y017133D01*
X016288Y017328D02*
X016397Y017328D01*
X016397Y017523D02*
X016161Y017523D01*
X005599Y005800D02*
X005579Y005800D01*
X005075Y005995D02*
X004397Y005995D01*
X004549Y006191D02*
X004923Y006191D01*
X004844Y006386D02*
X004629Y006386D01*
X004598Y006581D02*
X004875Y006581D01*
X004244Y004823D02*
X004244Y004823D01*
X004244Y004627D02*
X004244Y004627D01*
X004244Y004432D02*
X004244Y004432D01*
X004244Y004237D02*
X004244Y004237D01*
X002900Y013225D02*
X002896Y013225D01*
D17*
X010799Y005701D02*
X010819Y005721D01*
X012118Y003162D02*
X012504Y002776D01*
X012504Y002524D01*
D18*
X002472Y005445D02*
X001193Y005445D01*
D19*
X003614Y000957D03*
D20*
X003555Y001016D01*
X001980Y001016D01*
D21*
X002669Y005249D02*
X001193Y005249D01*
X001193Y005642D02*
X002669Y005642D01*
X002669Y005249D01*
M02*
