G75*
G70*
%OFA0B0*%
%FSLAX24Y24*%
%IPPOS*%
%LPD*%
%AMOC8*
5,1,8,0,0,1.08239X$1,22.5*
%
%ADD10C,0.0946*%
%ADD11R,0.0198X0.0710*%
%ADD12R,0.0513X0.0474*%
%ADD13R,0.0631X0.0710*%
%ADD14R,0.0395X0.0395*%
%ADD15R,0.0370X0.1180*%
%ADD16C,0.0552*%
%ADD17R,0.0480X0.0480*%
%ADD18C,0.0480*%
%ADD19R,0.0379X0.0580*%
%ADD20R,0.1230X0.0580*%
%ADD21R,0.0730X0.1430*%
%ADD22C,0.0671*%
D10*
X021374Y001311D03*
X029248Y001311D03*
X029248Y017060D03*
X021374Y017060D03*
D11*
G36*
X022908Y011251D02*
X023098Y011200D01*
X022914Y010515D01*
X022724Y010566D01*
X022908Y011251D01*
G37*
G36*
X023098Y011200D02*
X023288Y011149D01*
X023104Y010464D01*
X022914Y010515D01*
X023098Y011200D01*
G37*
G36*
X023288Y011149D02*
X023478Y011098D01*
X023294Y010413D01*
X023104Y010464D01*
X023288Y011149D01*
G37*
G36*
X023478Y011098D02*
X023668Y011047D01*
X023484Y010362D01*
X023294Y010413D01*
X023478Y011098D01*
G37*
G36*
X023668Y011047D02*
X023858Y010996D01*
X023674Y010311D01*
X023484Y010362D01*
X023668Y011047D01*
G37*
G36*
X023858Y010996D02*
X024048Y010945D01*
X023864Y010260D01*
X023674Y010311D01*
X023858Y010996D01*
G37*
G36*
X024049Y010945D02*
X024239Y010894D01*
X024055Y010209D01*
X023865Y010260D01*
X024049Y010945D01*
G37*
G36*
X024239Y010894D02*
X024429Y010843D01*
X024245Y010158D01*
X024055Y010209D01*
X024239Y010894D01*
G37*
G36*
X024429Y010843D02*
X024619Y010792D01*
X024435Y010107D01*
X024245Y010158D01*
X024429Y010843D01*
G37*
G36*
X024619Y010792D02*
X024809Y010741D01*
X024625Y010056D01*
X024435Y010107D01*
X024619Y010792D01*
G37*
G36*
X024809Y010741D02*
X024999Y010690D01*
X024815Y010005D01*
X024625Y010056D01*
X024809Y010741D01*
G37*
G36*
X024999Y010690D02*
X025189Y010639D01*
X025005Y009954D01*
X024815Y010005D01*
X024999Y010690D01*
G37*
G36*
X025189Y010639D02*
X025379Y010588D01*
X025195Y009903D01*
X025005Y009954D01*
X025189Y010639D01*
G37*
G36*
X025380Y010588D02*
X025570Y010537D01*
X025386Y009852D01*
X025196Y009903D01*
X025380Y010588D01*
G37*
G36*
X025570Y010537D02*
X025760Y010486D01*
X025576Y009801D01*
X025386Y009852D01*
X025570Y010537D01*
G37*
G36*
X025760Y010486D02*
X025950Y010435D01*
X025766Y009750D01*
X025576Y009801D01*
X025760Y010486D01*
G37*
G36*
X025950Y010435D02*
X026140Y010384D01*
X025956Y009699D01*
X025766Y009750D01*
X025950Y010435D01*
G37*
G36*
X026140Y010384D02*
X026330Y010333D01*
X026146Y009648D01*
X025956Y009699D01*
X026140Y010384D01*
G37*
G36*
X026330Y010333D02*
X026520Y010282D01*
X026336Y009597D01*
X026146Y009648D01*
X026330Y010333D01*
G37*
G36*
X026520Y010282D02*
X026710Y010231D01*
X026526Y009546D01*
X026336Y009597D01*
X026520Y010282D01*
G37*
G36*
X027407Y009025D02*
X027356Y008835D01*
X026671Y009019D01*
X026722Y009209D01*
X027407Y009025D01*
G37*
G36*
X027356Y008835D02*
X027305Y008645D01*
X026620Y008829D01*
X026671Y009019D01*
X027356Y008835D01*
G37*
G36*
X027305Y008645D02*
X027254Y008455D01*
X026569Y008639D01*
X026620Y008829D01*
X027305Y008645D01*
G37*
G36*
X027254Y008455D02*
X027203Y008265D01*
X026518Y008449D01*
X026569Y008639D01*
X027254Y008455D01*
G37*
G36*
X027203Y008265D02*
X027152Y008075D01*
X026467Y008259D01*
X026518Y008449D01*
X027203Y008265D01*
G37*
G36*
X027152Y008075D02*
X027101Y007885D01*
X026416Y008069D01*
X026467Y008259D01*
X027152Y008075D01*
G37*
G36*
X027101Y007885D02*
X027050Y007695D01*
X026365Y007879D01*
X026416Y008069D01*
X027101Y007885D01*
G37*
G36*
X027050Y007694D02*
X026999Y007504D01*
X026314Y007688D01*
X026365Y007878D01*
X027050Y007694D01*
G37*
G36*
X026999Y007504D02*
X026948Y007314D01*
X026263Y007498D01*
X026314Y007688D01*
X026999Y007504D01*
G37*
G36*
X026948Y007314D02*
X026897Y007124D01*
X026212Y007308D01*
X026263Y007498D01*
X026948Y007314D01*
G37*
G36*
X026897Y007124D02*
X026846Y006934D01*
X026161Y007118D01*
X026212Y007308D01*
X026897Y007124D01*
G37*
G36*
X026846Y006934D02*
X026795Y006744D01*
X026110Y006928D01*
X026161Y007118D01*
X026846Y006934D01*
G37*
G36*
X026795Y006744D02*
X026744Y006554D01*
X026059Y006738D01*
X026110Y006928D01*
X026795Y006744D01*
G37*
G36*
X026744Y006554D02*
X026693Y006364D01*
X026008Y006548D01*
X026059Y006738D01*
X026744Y006554D01*
G37*
G36*
X026693Y006363D02*
X026642Y006173D01*
X025957Y006357D01*
X026008Y006547D01*
X026693Y006363D01*
G37*
G36*
X026642Y006173D02*
X026591Y005983D01*
X025906Y006167D01*
X025957Y006357D01*
X026642Y006173D01*
G37*
G36*
X026591Y005983D02*
X026540Y005793D01*
X025855Y005977D01*
X025906Y006167D01*
X026591Y005983D01*
G37*
G36*
X026540Y005793D02*
X026489Y005603D01*
X025804Y005787D01*
X025855Y005977D01*
X026540Y005793D01*
G37*
G36*
X026489Y005603D02*
X026438Y005413D01*
X025753Y005597D01*
X025804Y005787D01*
X026489Y005603D01*
G37*
G36*
X026438Y005413D02*
X026387Y005223D01*
X025702Y005407D01*
X025753Y005597D01*
X026438Y005413D01*
G37*
G36*
X025181Y004527D02*
X024991Y004578D01*
X025175Y005263D01*
X025365Y005212D01*
X025181Y004527D01*
G37*
G36*
X024991Y004578D02*
X024801Y004629D01*
X024985Y005314D01*
X025175Y005263D01*
X024991Y004578D01*
G37*
G36*
X024801Y004629D02*
X024611Y004680D01*
X024795Y005365D01*
X024985Y005314D01*
X024801Y004629D01*
G37*
G36*
X024611Y004680D02*
X024421Y004731D01*
X024605Y005416D01*
X024795Y005365D01*
X024611Y004680D01*
G37*
G36*
X024421Y004731D02*
X024231Y004782D01*
X024415Y005467D01*
X024605Y005416D01*
X024421Y004731D01*
G37*
G36*
X024231Y004781D02*
X024041Y004832D01*
X024225Y005517D01*
X024415Y005466D01*
X024231Y004781D01*
G37*
G36*
X024041Y004832D02*
X023851Y004883D01*
X024035Y005568D01*
X024225Y005517D01*
X024041Y004832D01*
G37*
G36*
X023850Y004883D02*
X023660Y004934D01*
X023844Y005619D01*
X024034Y005568D01*
X023850Y004883D01*
G37*
G36*
X023660Y004934D02*
X023470Y004985D01*
X023654Y005670D01*
X023844Y005619D01*
X023660Y004934D01*
G37*
G36*
X023470Y004985D02*
X023280Y005036D01*
X023464Y005721D01*
X023654Y005670D01*
X023470Y004985D01*
G37*
G36*
X023280Y005036D02*
X023090Y005087D01*
X023274Y005772D01*
X023464Y005721D01*
X023280Y005036D01*
G37*
G36*
X023090Y005087D02*
X022900Y005138D01*
X023084Y005823D01*
X023274Y005772D01*
X023090Y005087D01*
G37*
G36*
X022900Y005138D02*
X022710Y005189D01*
X022894Y005874D01*
X023084Y005823D01*
X022900Y005138D01*
G37*
G36*
X022710Y005189D02*
X022520Y005240D01*
X022704Y005925D01*
X022894Y005874D01*
X022710Y005189D01*
G37*
G36*
X022519Y005240D02*
X022329Y005291D01*
X022513Y005976D01*
X022703Y005925D01*
X022519Y005240D01*
G37*
G36*
X022329Y005291D02*
X022139Y005342D01*
X022323Y006027D01*
X022513Y005976D01*
X022329Y005291D01*
G37*
G36*
X022139Y005342D02*
X021949Y005393D01*
X022133Y006078D01*
X022323Y006027D01*
X022139Y005342D01*
G37*
G36*
X021949Y005393D02*
X021759Y005444D01*
X021943Y006129D01*
X022133Y006078D01*
X021949Y005393D01*
G37*
G36*
X021759Y005444D02*
X021569Y005495D01*
X021753Y006180D01*
X021943Y006129D01*
X021759Y005444D01*
G37*
G36*
X021569Y005495D02*
X021379Y005546D01*
X021563Y006231D01*
X021753Y006180D01*
X021569Y005495D01*
G37*
G36*
X020683Y006752D02*
X020734Y006942D01*
X021419Y006758D01*
X021368Y006568D01*
X020683Y006752D01*
G37*
G36*
X020734Y006942D02*
X020785Y007132D01*
X021470Y006948D01*
X021419Y006758D01*
X020734Y006942D01*
G37*
G36*
X020785Y007132D02*
X020836Y007322D01*
X021521Y007138D01*
X021470Y006948D01*
X020785Y007132D01*
G37*
G36*
X020836Y007322D02*
X020887Y007512D01*
X021572Y007328D01*
X021521Y007138D01*
X020836Y007322D01*
G37*
G36*
X020886Y007512D02*
X020937Y007702D01*
X021622Y007518D01*
X021571Y007328D01*
X020886Y007512D01*
G37*
G36*
X020937Y007702D02*
X020988Y007892D01*
X021673Y007708D01*
X021622Y007518D01*
X020937Y007702D01*
G37*
G36*
X020988Y007893D02*
X021039Y008083D01*
X021724Y007899D01*
X021673Y007709D01*
X020988Y007893D01*
G37*
G36*
X021039Y008083D02*
X021090Y008273D01*
X021775Y008089D01*
X021724Y007899D01*
X021039Y008083D01*
G37*
G36*
X021090Y008273D02*
X021141Y008463D01*
X021826Y008279D01*
X021775Y008089D01*
X021090Y008273D01*
G37*
G36*
X021141Y008463D02*
X021192Y008653D01*
X021877Y008469D01*
X021826Y008279D01*
X021141Y008463D01*
G37*
G36*
X021192Y008653D02*
X021243Y008843D01*
X021928Y008659D01*
X021877Y008469D01*
X021192Y008653D01*
G37*
G36*
X021243Y008843D02*
X021294Y009033D01*
X021979Y008849D01*
X021928Y008659D01*
X021243Y008843D01*
G37*
G36*
X021294Y009033D02*
X021345Y009223D01*
X022030Y009039D01*
X021979Y008849D01*
X021294Y009033D01*
G37*
G36*
X021345Y009224D02*
X021396Y009414D01*
X022081Y009230D01*
X022030Y009040D01*
X021345Y009224D01*
G37*
G36*
X021396Y009414D02*
X021447Y009604D01*
X022132Y009420D01*
X022081Y009230D01*
X021396Y009414D01*
G37*
G36*
X021447Y009604D02*
X021498Y009794D01*
X022183Y009610D01*
X022132Y009420D01*
X021447Y009604D01*
G37*
G36*
X021498Y009794D02*
X021549Y009984D01*
X022234Y009800D01*
X022183Y009610D01*
X021498Y009794D01*
G37*
G36*
X021549Y009984D02*
X021600Y010174D01*
X022285Y009990D01*
X022234Y009800D01*
X021549Y009984D01*
G37*
G36*
X021600Y010174D02*
X021651Y010364D01*
X022336Y010180D01*
X022285Y009990D01*
X021600Y010174D01*
G37*
G36*
X021651Y010364D02*
X021702Y010554D01*
X022387Y010370D01*
X022336Y010180D01*
X021651Y010364D01*
G37*
D12*
G36*
X020834Y009965D02*
X020967Y010458D01*
X021424Y010335D01*
X021291Y009842D01*
X020834Y009965D01*
G37*
G36*
X020661Y009318D02*
X020794Y009811D01*
X021251Y009688D01*
X021118Y009195D01*
X020661Y009318D01*
G37*
X020232Y009382D03*
X020232Y008890D03*
X020232Y008398D03*
X020232Y007906D03*
X020330Y007414D03*
X020232Y006922D03*
X020527Y006430D03*
X020527Y005937D03*
X020527Y005445D03*
X020527Y004953D03*
X020527Y004461D03*
X020527Y003969D03*
X020527Y003477D03*
X019858Y003477D03*
X019858Y003969D03*
X019858Y004461D03*
X019858Y004953D03*
X019858Y005445D03*
X019858Y005937D03*
X019858Y006430D03*
X019563Y006922D03*
X019661Y007414D03*
X019563Y007906D03*
X019563Y008398D03*
X019563Y008890D03*
X019563Y009382D03*
G36*
X023370Y004951D02*
X023863Y004818D01*
X023740Y004361D01*
X023247Y004494D01*
X023370Y004951D01*
G37*
G36*
X024016Y004778D02*
X024509Y004645D01*
X024386Y004188D01*
X023893Y004321D01*
X024016Y004778D01*
G37*
G36*
X025726Y010634D02*
X025233Y010767D01*
X025356Y011224D01*
X025849Y011091D01*
X025726Y010634D01*
G37*
G36*
X025859Y011137D02*
X025366Y011270D01*
X025489Y011727D01*
X025982Y011594D01*
X025859Y011137D01*
G37*
G36*
X025213Y011310D02*
X024720Y011443D01*
X024843Y011900D01*
X025336Y011767D01*
X025213Y011310D01*
G37*
G36*
X025080Y010807D02*
X024587Y010940D01*
X024710Y011397D01*
X025203Y011264D01*
X025080Y010807D01*
G37*
D13*
X027870Y009894D03*
X029641Y009894D03*
X029641Y013201D03*
X027870Y013201D03*
D14*
X027968Y014599D03*
X027968Y015189D03*
X029346Y015189D03*
X029346Y014599D03*
X025114Y003851D03*
X025114Y003260D03*
X023244Y003260D03*
X023244Y003851D03*
D15*
G36*
X026682Y004041D02*
X026777Y004397D01*
X027916Y004091D01*
X027821Y003735D01*
X026682Y004041D01*
G37*
G36*
X026812Y004524D02*
X026907Y004880D01*
X028046Y004574D01*
X027951Y004218D01*
X026812Y004524D01*
G37*
G36*
X026941Y005007D02*
X027036Y005363D01*
X028175Y005057D01*
X028080Y004701D01*
X026941Y005007D01*
G37*
G36*
X027070Y005490D02*
X027165Y005846D01*
X028304Y005540D01*
X028209Y005184D01*
X027070Y005490D01*
G37*
G36*
X027200Y005973D02*
X027295Y006329D01*
X028434Y006023D01*
X028339Y005667D01*
X027200Y005973D01*
G37*
G36*
X027329Y006456D02*
X027424Y006812D01*
X028563Y006506D01*
X028468Y006150D01*
X027329Y006456D01*
G37*
G36*
X027459Y006938D02*
X027554Y007294D01*
X028693Y006988D01*
X028598Y006632D01*
X027459Y006938D01*
G37*
G36*
X028616Y005075D02*
X028711Y005431D01*
X029850Y005125D01*
X029755Y004769D01*
X028616Y005075D01*
G37*
G36*
X028486Y004593D02*
X028581Y004949D01*
X029720Y004643D01*
X029625Y004287D01*
X028486Y004593D01*
G37*
G36*
X028357Y004110D02*
X028452Y004466D01*
X029591Y004160D01*
X029496Y003804D01*
X028357Y004110D01*
G37*
G36*
X028228Y003627D02*
X028323Y003983D01*
X029462Y003677D01*
X029367Y003321D01*
X028228Y003627D01*
G37*
G36*
X028875Y006041D02*
X028970Y006397D01*
X030109Y006091D01*
X030014Y005735D01*
X028875Y006041D01*
G37*
G36*
X029004Y006524D02*
X029099Y006880D01*
X030238Y006574D01*
X030143Y006218D01*
X029004Y006524D01*
G37*
D16*
X018814Y006430D03*
X018814Y005642D03*
X018814Y004855D03*
X018814Y004067D03*
X018814Y003280D03*
X018814Y002493D03*
X017830Y002493D03*
X017830Y003280D03*
X017830Y004067D03*
X017830Y004855D03*
X017830Y005642D03*
X017830Y006430D03*
X017830Y007217D03*
X017830Y008004D03*
X017830Y008792D03*
X017830Y009579D03*
X018814Y009579D03*
X018814Y008792D03*
X018814Y008004D03*
X018814Y007217D03*
D17*
X023061Y001311D03*
X023061Y017060D03*
D18*
X023561Y017060D03*
X024061Y017060D03*
X024561Y017060D03*
X025061Y017060D03*
X025561Y017060D03*
X026061Y017060D03*
X026561Y017060D03*
X027061Y017060D03*
X027561Y017060D03*
X027561Y001311D03*
X027061Y001311D03*
X026561Y001311D03*
X026061Y001311D03*
X025561Y001311D03*
X025061Y001311D03*
X024561Y001311D03*
X024061Y001311D03*
X023561Y001311D03*
D19*
X022017Y012410D03*
X021517Y012410D03*
X021517Y015410D03*
X022017Y015410D03*
D20*
X019838Y015091D03*
X019838Y013910D03*
X019838Y012729D03*
X018015Y012729D03*
X018015Y013910D03*
X018015Y015091D03*
D21*
X015862Y011200D03*
X015862Y016620D03*
D22*
X023090Y002524D03*
X024090Y002524D03*
X025090Y002524D03*
X026090Y002524D03*
M02*
