G75*
G70*
%OFA0B0*%
%FSLAX24Y24*%
%IPPOS*%
%LPD*%
%AMOC8*
5,1,8,0,0,1.08239X$1,22.5*
%
%ADD10C,0.0050*%
%ADD11C,0.0098*%
%ADD12C,0.0150*%
%ADD13C,0.0100*%
%ADD14C,0.0040*%
%ADD15C,0.0020*%
%ADD16R,0.0059X0.0118*%
%ADD17R,0.0118X0.0118*%
%ADD18C,0.0004*%
%ADD19C,0.0039*%
%ADD20C,0.0079*%
D10*
X009009Y010058D02*
X009011Y010085D01*
X009017Y010112D01*
X009026Y010138D01*
X009039Y010162D01*
X009055Y010185D01*
X009074Y010204D01*
X009096Y010221D01*
X009120Y010235D01*
X009145Y010245D01*
X009172Y010252D01*
X009199Y010255D01*
X009227Y010254D01*
X009254Y010249D01*
X009280Y010241D01*
X009304Y010229D01*
X009327Y010213D01*
X009348Y010195D01*
X009365Y010174D01*
X009380Y010150D01*
X009391Y010125D01*
X009399Y010099D01*
X009403Y010072D01*
X009403Y010044D01*
X009399Y010017D01*
X009391Y009991D01*
X009380Y009966D01*
X009365Y009942D01*
X009348Y009921D01*
X009327Y009903D01*
X009305Y009887D01*
X009280Y009875D01*
X009254Y009867D01*
X009227Y009862D01*
X009199Y009861D01*
X009172Y009864D01*
X009145Y009871D01*
X009120Y009881D01*
X009096Y009895D01*
X009074Y009912D01*
X009055Y009931D01*
X009039Y009954D01*
X009026Y009978D01*
X009017Y010004D01*
X009011Y010031D01*
X009009Y010058D01*
X013915Y013797D02*
X014144Y013797D01*
X014277Y013797D02*
X014507Y013797D01*
X014640Y013797D02*
X014812Y013797D01*
X014869Y013854D01*
X014869Y014084D01*
X014812Y014141D01*
X014640Y014141D01*
X014640Y013797D01*
X014392Y013969D02*
X014277Y013969D01*
X014277Y014141D02*
X014277Y013797D01*
X014277Y014141D02*
X014507Y014141D01*
X013915Y014141D02*
X013915Y013797D01*
X015312Y013854D02*
X015370Y013797D01*
X015484Y013797D01*
X015542Y013854D01*
X015675Y013797D02*
X015675Y014026D01*
X015790Y014141D01*
X015904Y014026D01*
X015904Y013797D01*
X016037Y013797D02*
X016037Y014141D01*
X016267Y013797D01*
X016267Y014141D01*
X015904Y013969D02*
X015675Y013969D01*
X015542Y014084D02*
X015484Y014141D01*
X015370Y014141D01*
X015312Y014084D01*
X015312Y013854D01*
X015306Y002980D02*
X015420Y002865D01*
X015420Y002636D01*
X015553Y002693D02*
X015553Y002922D01*
X015611Y002980D01*
X015725Y002980D01*
X015783Y002922D01*
X015783Y002808D02*
X015668Y002808D01*
X015783Y002808D02*
X015783Y002693D01*
X015725Y002636D01*
X015611Y002636D01*
X015553Y002693D01*
X015420Y002808D02*
X015191Y002808D01*
X015191Y002865D02*
X015306Y002980D01*
X015191Y002865D02*
X015191Y002636D01*
X014943Y002636D02*
X014943Y002980D01*
X014828Y002980D02*
X015058Y002980D01*
X014695Y002980D02*
X014581Y002980D01*
X014638Y002980D02*
X014638Y002693D01*
X014581Y002636D01*
X014523Y002636D01*
X014466Y002693D01*
D11*
X013791Y014894D02*
X013793Y014942D01*
X013799Y014990D01*
X013809Y015037D01*
X013822Y015083D01*
X013840Y015128D01*
X013860Y015172D01*
X013885Y015214D01*
X013913Y015253D01*
X013943Y015290D01*
X013977Y015324D01*
X014014Y015356D01*
X014052Y015385D01*
X014093Y015410D01*
X014136Y015432D01*
X014181Y015450D01*
X014227Y015464D01*
X014274Y015475D01*
X014322Y015482D01*
X014370Y015485D01*
X014418Y015484D01*
X014466Y015479D01*
X014514Y015470D01*
X014560Y015458D01*
X014605Y015441D01*
X014649Y015421D01*
X014691Y015398D01*
X014731Y015371D01*
X014769Y015341D01*
X014804Y015308D01*
X014836Y015272D01*
X014866Y015234D01*
X014892Y015193D01*
X014914Y015150D01*
X014934Y015106D01*
X014949Y015061D01*
X014961Y015014D01*
X014969Y014966D01*
X014973Y014918D01*
X014973Y014870D01*
X014969Y014822D01*
X014961Y014774D01*
X014949Y014727D01*
X014934Y014682D01*
X014914Y014638D01*
X014892Y014595D01*
X014866Y014554D01*
X014836Y014516D01*
X014804Y014480D01*
X014769Y014447D01*
X014731Y014417D01*
X014691Y014390D01*
X014649Y014367D01*
X014605Y014347D01*
X014560Y014330D01*
X014514Y014318D01*
X014466Y014309D01*
X014418Y014304D01*
X014370Y014303D01*
X014322Y014306D01*
X014274Y014313D01*
X014227Y014324D01*
X014181Y014338D01*
X014136Y014356D01*
X014093Y014378D01*
X014052Y014403D01*
X014014Y014432D01*
X013977Y014464D01*
X013943Y014498D01*
X013913Y014535D01*
X013885Y014574D01*
X013860Y014616D01*
X013840Y014660D01*
X013822Y014705D01*
X013809Y014751D01*
X013799Y014798D01*
X013793Y014846D01*
X013791Y014894D01*
X015169Y014894D02*
X015171Y014942D01*
X015177Y014990D01*
X015187Y015037D01*
X015200Y015083D01*
X015218Y015128D01*
X015238Y015172D01*
X015263Y015214D01*
X015291Y015253D01*
X015321Y015290D01*
X015355Y015324D01*
X015392Y015356D01*
X015430Y015385D01*
X015471Y015410D01*
X015514Y015432D01*
X015559Y015450D01*
X015605Y015464D01*
X015652Y015475D01*
X015700Y015482D01*
X015748Y015485D01*
X015796Y015484D01*
X015844Y015479D01*
X015892Y015470D01*
X015938Y015458D01*
X015983Y015441D01*
X016027Y015421D01*
X016069Y015398D01*
X016109Y015371D01*
X016147Y015341D01*
X016182Y015308D01*
X016214Y015272D01*
X016244Y015234D01*
X016270Y015193D01*
X016292Y015150D01*
X016312Y015106D01*
X016327Y015061D01*
X016339Y015014D01*
X016347Y014966D01*
X016351Y014918D01*
X016351Y014870D01*
X016347Y014822D01*
X016339Y014774D01*
X016327Y014727D01*
X016312Y014682D01*
X016292Y014638D01*
X016270Y014595D01*
X016244Y014554D01*
X016214Y014516D01*
X016182Y014480D01*
X016147Y014447D01*
X016109Y014417D01*
X016069Y014390D01*
X016027Y014367D01*
X015983Y014347D01*
X015938Y014330D01*
X015892Y014318D01*
X015844Y014309D01*
X015796Y014304D01*
X015748Y014303D01*
X015700Y014306D01*
X015652Y014313D01*
X015605Y014324D01*
X015559Y014338D01*
X015514Y014356D01*
X015471Y014378D01*
X015430Y014403D01*
X015392Y014432D01*
X015355Y014464D01*
X015321Y014498D01*
X015291Y014535D01*
X015263Y014574D01*
X015238Y014616D01*
X015218Y014660D01*
X015200Y014705D01*
X015187Y014751D01*
X015177Y014798D01*
X015171Y014846D01*
X015169Y014894D01*
D12*
X005409Y016741D02*
X005409Y017576D01*
X004852Y017576D02*
X005409Y016741D01*
X004852Y016741D02*
X004852Y017576D01*
X004502Y017297D02*
X004502Y016741D01*
X004502Y017158D02*
X003946Y017158D01*
X003946Y017297D02*
X004224Y017576D01*
X004502Y017297D01*
X003946Y017297D02*
X003946Y016741D01*
X003596Y016880D02*
X003457Y016741D01*
X003179Y016741D01*
X003040Y016880D01*
X003040Y017437D01*
X003179Y017576D01*
X003457Y017576D01*
X003596Y017437D01*
D13*
X001341Y000771D02*
X001440Y000673D01*
X001636Y000673D01*
X001734Y000771D01*
X001734Y000869D01*
X001636Y000967D01*
X001440Y000967D01*
X001341Y001065D01*
X001341Y001164D01*
X001440Y001262D01*
X001636Y001262D01*
X001734Y001164D01*
X001976Y001262D02*
X001976Y000673D01*
X002369Y000673D01*
X002610Y000673D02*
X002610Y001262D01*
X003003Y000673D01*
X003003Y001262D01*
X003244Y001164D02*
X003244Y001065D01*
X003343Y000967D01*
X003539Y000967D01*
X003637Y000869D01*
X003637Y000771D01*
X003539Y000673D01*
X003343Y000673D01*
X003244Y000771D01*
X003244Y001164D02*
X003343Y001262D01*
X003539Y001262D01*
X003637Y001164D01*
X003879Y001164D02*
X003879Y000771D01*
X003977Y000673D01*
X004174Y000673D01*
X004272Y000771D01*
X004272Y001164D01*
X004174Y001262D01*
X003977Y001262D01*
X003879Y001164D01*
X004513Y001262D02*
X004513Y000673D01*
X004513Y000869D02*
X004808Y000869D01*
X004906Y000967D01*
X004906Y001164D01*
X004808Y001262D01*
X004513Y001262D01*
X004710Y000869D02*
X004906Y000673D01*
X005148Y000771D02*
X005246Y000673D01*
X005442Y000673D01*
X005541Y000771D01*
X005541Y000869D01*
X005442Y000967D01*
X005246Y000967D01*
X005148Y001065D01*
X005148Y001164D01*
X005246Y001262D01*
X005442Y001262D01*
X005541Y001164D01*
X002369Y001262D02*
X001976Y001262D01*
X001976Y000967D02*
X002172Y000967D01*
D14*
X009185Y003362D02*
X009441Y003362D01*
X009441Y003277D02*
X009441Y003447D01*
X009441Y003548D02*
X009270Y003719D01*
X009228Y003719D01*
X009185Y003676D01*
X009185Y003591D01*
X009228Y003548D01*
X009185Y003362D02*
X009270Y003277D01*
X009313Y003175D02*
X009313Y003005D01*
X009228Y003090D02*
X009398Y003090D01*
X009441Y003548D02*
X009441Y003719D01*
X009355Y003820D02*
X009441Y003905D01*
X009355Y003991D01*
X009185Y003991D01*
X009185Y003820D02*
X009355Y003820D01*
X010366Y003719D02*
X010537Y003719D01*
X010622Y003634D01*
X010537Y003548D01*
X010366Y003548D01*
X010366Y003447D02*
X010366Y003277D01*
X010494Y003277D01*
X010451Y003362D01*
X010451Y003404D01*
X010494Y003447D01*
X010579Y003447D01*
X010622Y003404D01*
X010622Y003319D01*
X010579Y003277D01*
X010494Y003175D02*
X010494Y003005D01*
X010409Y003090D02*
X010579Y003090D01*
X011098Y003090D02*
X011268Y003090D01*
X011183Y003005D02*
X011183Y003175D01*
X011268Y003277D02*
X011311Y003319D01*
X011311Y003404D01*
X011268Y003447D01*
X011226Y003447D01*
X011183Y003404D01*
X011183Y003362D01*
X011183Y003404D02*
X011140Y003447D01*
X011098Y003447D01*
X011055Y003404D01*
X011055Y003319D01*
X011098Y003277D01*
X011055Y003548D02*
X011226Y003548D01*
X011311Y003634D01*
X011226Y003719D01*
X011055Y003719D01*
X011098Y003820D02*
X011055Y003863D01*
X011055Y003948D01*
X011098Y003991D01*
X011140Y003991D01*
X011183Y003948D01*
X011226Y003991D01*
X011268Y003991D01*
X011311Y003948D01*
X011311Y003863D01*
X011268Y003820D01*
X011183Y003905D02*
X011183Y003948D01*
X012335Y003775D02*
X012335Y003647D01*
X012590Y003647D01*
X012590Y003775D01*
X012548Y003817D01*
X012377Y003817D01*
X012335Y003775D01*
X012335Y003545D02*
X012590Y003545D01*
X012335Y003375D01*
X012590Y003375D01*
X012548Y003273D02*
X012463Y003273D01*
X012463Y003188D01*
X012377Y003103D02*
X012548Y003103D01*
X012590Y003146D01*
X012590Y003231D01*
X012548Y003273D01*
X012377Y003273D02*
X012335Y003231D01*
X012335Y003146D01*
X012377Y003103D01*
X009441Y012434D02*
X009205Y012434D01*
X009146Y012493D01*
X009146Y012611D01*
X009205Y012670D01*
X009264Y012796D02*
X009146Y012914D01*
X009264Y013032D01*
X009500Y013032D01*
X009500Y013159D02*
X009146Y013159D01*
X009500Y013395D01*
X009146Y013395D01*
X009323Y013032D02*
X009323Y012796D01*
X009264Y012796D02*
X009500Y012796D01*
X009441Y012670D02*
X009500Y012611D01*
X009500Y012493D01*
X009441Y012434D01*
X009146Y013884D02*
X009146Y014120D01*
X009146Y014002D02*
X009500Y014002D01*
X009500Y014246D02*
X009500Y014482D01*
X009500Y014609D02*
X009146Y014609D01*
X009146Y014786D01*
X009205Y014845D01*
X009323Y014845D01*
X009382Y014786D01*
X009382Y014609D01*
X009382Y014727D02*
X009500Y014845D01*
X009500Y014971D02*
X009146Y014971D01*
X009264Y015089D01*
X009146Y015207D01*
X009500Y015207D01*
X009146Y014482D02*
X009146Y014246D01*
X009500Y014246D01*
X009323Y014246D02*
X009323Y014364D01*
X008485Y015780D02*
X008485Y016134D01*
X008249Y016134D02*
X008485Y015780D01*
X008249Y015780D02*
X008249Y016134D01*
X008122Y016075D02*
X008122Y015839D01*
X008063Y015780D01*
X007945Y015780D01*
X007886Y015839D01*
X007886Y016075D01*
X007945Y016134D01*
X008063Y016134D01*
X008122Y016075D01*
D15*
X010869Y011933D02*
X010839Y011819D01*
X010860Y011783D01*
X010917Y011768D01*
X010953Y011789D01*
X011006Y011744D02*
X011151Y011827D01*
X011158Y011856D01*
X011137Y011892D01*
X011080Y011907D01*
X011044Y011886D01*
X010983Y011903D02*
X010962Y011939D01*
X010905Y011954D01*
X010869Y011933D01*
X011006Y011744D02*
X011120Y011714D01*
X011008Y011373D02*
X010894Y011403D01*
X010872Y011318D01*
X010936Y011331D01*
X010965Y011323D01*
X010986Y011287D01*
X010970Y011230D01*
X010934Y011209D01*
X010877Y011225D01*
X010856Y011261D01*
X010795Y011277D02*
X010759Y011256D01*
X010702Y011272D01*
X010681Y011308D01*
X010712Y011422D01*
X010748Y011442D01*
X010805Y011427D01*
X010826Y011391D01*
D16*
X014234Y014835D03*
X014530Y014835D03*
X015612Y014835D03*
X015907Y014835D03*
X011675Y003615D03*
X011380Y003615D03*
X009805Y003615D03*
X009510Y003615D03*
D17*
X009657Y003615D03*
X011528Y003615D03*
X014382Y014835D03*
X015760Y014835D03*
D18*
X012276Y014850D02*
X011724Y014850D01*
X011724Y014848D02*
X012276Y014848D01*
X012276Y014845D02*
X011724Y014845D01*
X011724Y014843D02*
X012276Y014843D01*
X012276Y014840D02*
X011724Y014840D01*
X011724Y014838D02*
X012276Y014838D01*
X012276Y014836D02*
X011724Y014836D01*
X011724Y014833D02*
X012276Y014833D01*
X012276Y014831D02*
X011724Y014831D01*
X011724Y014828D02*
X012276Y014828D01*
X012276Y014826D02*
X011724Y014826D01*
X011724Y014823D02*
X012276Y014823D01*
X012276Y014821D02*
X011724Y014821D01*
X011724Y014818D02*
X012276Y014818D01*
X012276Y014816D02*
X011724Y014816D01*
X011724Y014813D02*
X012276Y014813D01*
X012276Y014811D02*
X011724Y014811D01*
X011724Y014808D02*
X012276Y014808D01*
X012276Y014806D02*
X011724Y014806D01*
X011724Y014803D02*
X012276Y014803D01*
X012276Y014801D02*
X011724Y014801D01*
X011724Y014798D02*
X012276Y014798D01*
X012276Y014796D02*
X011724Y014796D01*
X011724Y014793D02*
X012276Y014793D01*
X012276Y014791D02*
X011724Y014791D01*
X011724Y014788D02*
X012276Y014788D01*
X012276Y014786D02*
X011724Y014786D01*
X011724Y014783D02*
X012276Y014783D01*
X012276Y014781D02*
X011724Y014781D01*
X011724Y014778D02*
X012276Y014778D01*
X012276Y014776D02*
X011724Y014776D01*
X011724Y014774D02*
X012276Y014774D01*
X012276Y014771D02*
X011724Y014771D01*
X011724Y014769D02*
X012276Y014769D01*
X012276Y014766D02*
X011724Y014766D01*
X011724Y014764D02*
X012276Y014764D01*
X012276Y014761D02*
X011724Y014761D01*
X011724Y014759D02*
X012276Y014759D01*
X012276Y014756D02*
X011724Y014756D01*
X011724Y014754D02*
X012276Y014754D01*
X012276Y014751D02*
X011724Y014751D01*
X011724Y014749D02*
X012276Y014749D01*
X012276Y014746D02*
X011724Y014746D01*
X011724Y014744D02*
X012276Y014744D01*
X012276Y014741D02*
X011724Y014741D01*
X011724Y014739D02*
X012276Y014739D01*
X012276Y014736D02*
X011724Y014736D01*
X011724Y014734D02*
X012276Y014734D01*
X012276Y014731D02*
X011724Y014731D01*
X011724Y014729D02*
X012276Y014729D01*
X012276Y014726D02*
X011724Y014726D01*
X011724Y014724D02*
X012276Y014724D01*
X012276Y014721D02*
X011724Y014721D01*
X011724Y014719D02*
X012276Y014719D01*
X012276Y014716D02*
X011724Y014716D01*
X011724Y014714D02*
X012276Y014714D01*
X012276Y014711D02*
X011724Y014711D01*
X011724Y014709D02*
X012276Y014709D01*
X012276Y014707D02*
X011724Y014707D01*
X011724Y014704D02*
X012276Y014704D01*
X012276Y014702D02*
X011724Y014702D01*
X011724Y014699D02*
X012276Y014699D01*
X012276Y014697D02*
X012276Y015189D01*
X011862Y015603D01*
X010839Y015603D01*
X010425Y015189D01*
X010425Y013516D01*
X010839Y013103D01*
X011862Y013103D01*
X012276Y013516D01*
X012276Y014067D01*
X012274Y014067D01*
X012276Y014067D02*
X012000Y013949D01*
X011724Y014067D01*
X011726Y014067D01*
X011724Y014067D02*
X011724Y013811D01*
X012276Y013811D01*
X012276Y013809D02*
X011722Y013809D01*
X011724Y013811D02*
X011606Y013693D01*
X011075Y013693D01*
X010976Y013792D01*
X010976Y014894D01*
X011075Y014993D01*
X011626Y014993D01*
X011724Y014894D01*
X011724Y014697D01*
X012000Y014579D01*
X012276Y014697D01*
X012274Y014697D02*
X011726Y014697D01*
X011732Y014694D02*
X012268Y014694D01*
X012262Y014692D02*
X011738Y014692D01*
X011743Y014689D02*
X012257Y014689D01*
X012251Y014687D02*
X011749Y014687D01*
X011755Y014684D02*
X012245Y014684D01*
X012239Y014682D02*
X011761Y014682D01*
X011767Y014679D02*
X012233Y014679D01*
X012228Y014677D02*
X011772Y014677D01*
X011778Y014674D02*
X012222Y014674D01*
X012216Y014672D02*
X011784Y014672D01*
X011790Y014669D02*
X012210Y014669D01*
X012204Y014667D02*
X011796Y014667D01*
X011801Y014664D02*
X012199Y014664D01*
X012193Y014662D02*
X011807Y014662D01*
X011813Y014659D02*
X012187Y014659D01*
X012181Y014657D02*
X011819Y014657D01*
X011824Y014654D02*
X012176Y014654D01*
X012170Y014652D02*
X011830Y014652D01*
X011836Y014649D02*
X012164Y014649D01*
X012158Y014647D02*
X011842Y014647D01*
X011848Y014645D02*
X012152Y014645D01*
X012147Y014642D02*
X011853Y014642D01*
X011859Y014640D02*
X012141Y014640D01*
X012135Y014637D02*
X011865Y014637D01*
X011871Y014635D02*
X012129Y014635D01*
X012123Y014632D02*
X011877Y014632D01*
X011882Y014630D02*
X012118Y014630D01*
X012112Y014627D02*
X011888Y014627D01*
X011894Y014625D02*
X012106Y014625D01*
X012100Y014622D02*
X011900Y014622D01*
X011905Y014620D02*
X012095Y014620D01*
X012089Y014617D02*
X011911Y014617D01*
X011917Y014615D02*
X012083Y014615D01*
X012077Y014612D02*
X011923Y014612D01*
X011929Y014610D02*
X012071Y014610D01*
X012066Y014607D02*
X011934Y014607D01*
X011940Y014605D02*
X012060Y014605D01*
X012054Y014602D02*
X011946Y014602D01*
X011952Y014600D02*
X012048Y014600D01*
X012042Y014597D02*
X011958Y014597D01*
X011963Y014595D02*
X012037Y014595D01*
X012031Y014592D02*
X011969Y014592D01*
X011975Y014590D02*
X012025Y014590D01*
X012019Y014587D02*
X011981Y014587D01*
X011986Y014585D02*
X012014Y014585D01*
X012008Y014583D02*
X011992Y014583D01*
X011998Y014580D02*
X012002Y014580D01*
X012276Y014853D02*
X011724Y014853D01*
X011724Y014855D02*
X012276Y014855D01*
X012276Y014858D02*
X011724Y014858D01*
X011724Y014860D02*
X012276Y014860D01*
X012276Y014863D02*
X011724Y014863D01*
X011724Y014865D02*
X012276Y014865D01*
X012276Y014868D02*
X011724Y014868D01*
X011724Y014870D02*
X012276Y014870D01*
X012276Y014873D02*
X011724Y014873D01*
X011724Y014875D02*
X012276Y014875D01*
X012276Y014878D02*
X011724Y014878D01*
X011724Y014880D02*
X012276Y014880D01*
X012276Y014883D02*
X011724Y014883D01*
X011724Y014885D02*
X012276Y014885D01*
X012276Y014888D02*
X011724Y014888D01*
X011724Y014890D02*
X012276Y014890D01*
X012276Y014893D02*
X011724Y014893D01*
X011724Y014895D02*
X012276Y014895D01*
X012276Y014898D02*
X011721Y014898D01*
X011719Y014900D02*
X012276Y014900D01*
X012276Y014902D02*
X011716Y014902D01*
X011714Y014905D02*
X012276Y014905D01*
X012276Y014907D02*
X011711Y014907D01*
X011709Y014910D02*
X012276Y014910D01*
X012276Y014912D02*
X011706Y014912D01*
X011704Y014915D02*
X012276Y014915D01*
X012276Y014917D02*
X011701Y014917D01*
X011699Y014920D02*
X012276Y014920D01*
X012276Y014922D02*
X011696Y014922D01*
X011694Y014925D02*
X012276Y014925D01*
X012276Y014927D02*
X011691Y014927D01*
X011689Y014930D02*
X012276Y014930D01*
X012276Y014932D02*
X011686Y014932D01*
X011684Y014935D02*
X012276Y014935D01*
X012276Y014937D02*
X011681Y014937D01*
X011679Y014940D02*
X012276Y014940D01*
X012276Y014942D02*
X011676Y014942D01*
X011674Y014945D02*
X012276Y014945D01*
X012276Y014947D02*
X011671Y014947D01*
X011669Y014950D02*
X012276Y014950D01*
X012276Y014952D02*
X011666Y014952D01*
X011664Y014955D02*
X012276Y014955D01*
X012276Y014957D02*
X011662Y014957D01*
X011659Y014960D02*
X012276Y014960D01*
X012276Y014962D02*
X011657Y014962D01*
X011654Y014964D02*
X012276Y014964D01*
X012276Y014967D02*
X011652Y014967D01*
X011649Y014969D02*
X012276Y014969D01*
X012276Y014972D02*
X011647Y014972D01*
X011644Y014974D02*
X012276Y014974D01*
X012276Y014977D02*
X011642Y014977D01*
X011639Y014979D02*
X012276Y014979D01*
X012276Y014982D02*
X011637Y014982D01*
X011634Y014984D02*
X012276Y014984D01*
X012276Y014987D02*
X011632Y014987D01*
X011629Y014989D02*
X012276Y014989D01*
X012276Y014992D02*
X011627Y014992D01*
X012012Y015453D02*
X010689Y015453D01*
X010691Y015456D02*
X012009Y015456D01*
X012007Y015458D02*
X010694Y015458D01*
X010696Y015461D02*
X012004Y015461D01*
X012002Y015463D02*
X010699Y015463D01*
X010701Y015466D02*
X012000Y015466D01*
X011997Y015468D02*
X010704Y015468D01*
X010706Y015470D02*
X011995Y015470D01*
X011992Y015473D02*
X010709Y015473D01*
X010711Y015475D02*
X011990Y015475D01*
X011987Y015478D02*
X010714Y015478D01*
X010716Y015480D02*
X011985Y015480D01*
X011982Y015483D02*
X010719Y015483D01*
X010721Y015485D02*
X011980Y015485D01*
X011977Y015488D02*
X010724Y015488D01*
X010726Y015490D02*
X011975Y015490D01*
X011972Y015493D02*
X010729Y015493D01*
X010731Y015495D02*
X011970Y015495D01*
X011967Y015498D02*
X010734Y015498D01*
X010736Y015500D02*
X011965Y015500D01*
X011962Y015503D02*
X010738Y015503D01*
X010741Y015505D02*
X011960Y015505D01*
X011957Y015508D02*
X010743Y015508D01*
X010746Y015510D02*
X011955Y015510D01*
X011952Y015513D02*
X010748Y015513D01*
X010751Y015515D02*
X011950Y015515D01*
X011947Y015518D02*
X010753Y015518D01*
X010756Y015520D02*
X011945Y015520D01*
X011942Y015523D02*
X010758Y015523D01*
X010761Y015525D02*
X011940Y015525D01*
X011938Y015528D02*
X010763Y015528D01*
X010766Y015530D02*
X011935Y015530D01*
X011933Y015532D02*
X010768Y015532D01*
X010771Y015535D02*
X011930Y015535D01*
X011928Y015537D02*
X010773Y015537D01*
X010776Y015540D02*
X011925Y015540D01*
X011923Y015542D02*
X010778Y015542D01*
X010781Y015545D02*
X011920Y015545D01*
X011918Y015547D02*
X010783Y015547D01*
X010786Y015550D02*
X011915Y015550D01*
X011913Y015552D02*
X010788Y015552D01*
X010791Y015555D02*
X011910Y015555D01*
X011908Y015557D02*
X010793Y015557D01*
X010796Y015560D02*
X011905Y015560D01*
X011903Y015562D02*
X010798Y015562D01*
X010800Y015565D02*
X011900Y015565D01*
X011898Y015567D02*
X010803Y015567D01*
X010805Y015570D02*
X011895Y015570D01*
X011893Y015572D02*
X010808Y015572D01*
X010810Y015575D02*
X011890Y015575D01*
X011888Y015577D02*
X010813Y015577D01*
X010815Y015580D02*
X011885Y015580D01*
X011883Y015582D02*
X010818Y015582D01*
X010820Y015585D02*
X011880Y015585D01*
X011878Y015587D02*
X010823Y015587D01*
X010825Y015590D02*
X011876Y015590D01*
X011873Y015592D02*
X010828Y015592D01*
X010830Y015594D02*
X011871Y015594D01*
X011868Y015597D02*
X010833Y015597D01*
X010835Y015599D02*
X011866Y015599D01*
X011863Y015602D02*
X010838Y015602D01*
X010686Y015451D02*
X012014Y015451D01*
X012017Y015448D02*
X010684Y015448D01*
X010681Y015446D02*
X012019Y015446D01*
X012022Y015443D02*
X010679Y015443D01*
X010676Y015441D02*
X012024Y015441D01*
X012027Y015438D02*
X010674Y015438D01*
X010671Y015436D02*
X012029Y015436D01*
X012032Y015433D02*
X010669Y015433D01*
X010667Y015431D02*
X012034Y015431D01*
X012037Y015428D02*
X010664Y015428D01*
X010662Y015426D02*
X012039Y015426D01*
X012042Y015423D02*
X010659Y015423D01*
X010657Y015421D02*
X012044Y015421D01*
X012047Y015418D02*
X010654Y015418D01*
X010652Y015416D02*
X012049Y015416D01*
X012052Y015413D02*
X010649Y015413D01*
X010647Y015411D02*
X012054Y015411D01*
X012057Y015408D02*
X010644Y015408D01*
X010642Y015406D02*
X012059Y015406D01*
X012062Y015404D02*
X010639Y015404D01*
X010637Y015401D02*
X012064Y015401D01*
X012066Y015399D02*
X010634Y015399D01*
X010632Y015396D02*
X012069Y015396D01*
X012071Y015394D02*
X010629Y015394D01*
X010627Y015391D02*
X012074Y015391D01*
X012076Y015389D02*
X010624Y015389D01*
X010622Y015386D02*
X012079Y015386D01*
X012081Y015384D02*
X010619Y015384D01*
X010617Y015381D02*
X012084Y015381D01*
X012086Y015379D02*
X010614Y015379D01*
X010612Y015376D02*
X012089Y015376D01*
X012091Y015374D02*
X010609Y015374D01*
X010607Y015371D02*
X012094Y015371D01*
X012096Y015369D02*
X010605Y015369D01*
X010602Y015366D02*
X012099Y015366D01*
X012101Y015364D02*
X010600Y015364D01*
X010597Y015361D02*
X012104Y015361D01*
X012106Y015359D02*
X010595Y015359D01*
X010592Y015356D02*
X012109Y015356D01*
X012111Y015354D02*
X010590Y015354D01*
X010587Y015351D02*
X012114Y015351D01*
X012116Y015349D02*
X010585Y015349D01*
X010582Y015346D02*
X012119Y015346D01*
X012121Y015344D02*
X010580Y015344D01*
X010577Y015341D02*
X012124Y015341D01*
X012126Y015339D02*
X010575Y015339D01*
X010572Y015337D02*
X012129Y015337D01*
X012131Y015334D02*
X010570Y015334D01*
X010567Y015332D02*
X012133Y015332D01*
X012136Y015329D02*
X010565Y015329D01*
X010562Y015327D02*
X012138Y015327D01*
X012141Y015324D02*
X010560Y015324D01*
X010557Y015322D02*
X012143Y015322D01*
X012146Y015319D02*
X010555Y015319D01*
X010552Y015317D02*
X012148Y015317D01*
X012151Y015314D02*
X010550Y015314D01*
X010547Y015312D02*
X012153Y015312D01*
X012156Y015309D02*
X010545Y015309D01*
X010543Y015307D02*
X012158Y015307D01*
X012161Y015304D02*
X010540Y015304D01*
X010538Y015302D02*
X012163Y015302D01*
X012166Y015299D02*
X010535Y015299D01*
X010533Y015297D02*
X012168Y015297D01*
X012171Y015294D02*
X010530Y015294D01*
X010528Y015292D02*
X012173Y015292D01*
X012176Y015289D02*
X010525Y015289D01*
X010523Y015287D02*
X012178Y015287D01*
X012181Y015284D02*
X010520Y015284D01*
X010518Y015282D02*
X012183Y015282D01*
X012186Y015279D02*
X010515Y015279D01*
X010513Y015277D02*
X012188Y015277D01*
X012191Y015275D02*
X010510Y015275D01*
X010508Y015272D02*
X012193Y015272D01*
X012195Y015270D02*
X010505Y015270D01*
X010503Y015267D02*
X012198Y015267D01*
X012200Y015265D02*
X010500Y015265D01*
X010498Y015262D02*
X012203Y015262D01*
X012205Y015260D02*
X010495Y015260D01*
X010493Y015257D02*
X012208Y015257D01*
X012210Y015255D02*
X010490Y015255D01*
X010488Y015252D02*
X012213Y015252D01*
X012215Y015250D02*
X010485Y015250D01*
X010483Y015247D02*
X012218Y015247D01*
X012220Y015245D02*
X010481Y015245D01*
X010478Y015242D02*
X012223Y015242D01*
X012225Y015240D02*
X010476Y015240D01*
X010473Y015237D02*
X012228Y015237D01*
X012230Y015235D02*
X010471Y015235D01*
X010468Y015232D02*
X012233Y015232D01*
X012235Y015230D02*
X010466Y015230D01*
X010463Y015227D02*
X012238Y015227D01*
X012240Y015225D02*
X010461Y015225D01*
X010458Y015222D02*
X012243Y015222D01*
X012245Y015220D02*
X010456Y015220D01*
X010453Y015217D02*
X012248Y015217D01*
X012250Y015215D02*
X010451Y015215D01*
X010448Y015213D02*
X012253Y015213D01*
X012255Y015210D02*
X010446Y015210D01*
X010443Y015208D02*
X012257Y015208D01*
X012260Y015205D02*
X010441Y015205D01*
X010438Y015203D02*
X012262Y015203D01*
X012265Y015200D02*
X010436Y015200D01*
X010433Y015198D02*
X012267Y015198D01*
X012270Y015195D02*
X010431Y015195D01*
X010428Y015193D02*
X012272Y015193D01*
X012275Y015190D02*
X010426Y015190D01*
X010425Y015188D02*
X012276Y015188D01*
X012276Y015185D02*
X010425Y015185D01*
X010425Y015183D02*
X012276Y015183D01*
X012276Y015180D02*
X010425Y015180D01*
X010425Y015178D02*
X012276Y015178D01*
X012276Y015175D02*
X010425Y015175D01*
X010425Y015173D02*
X012276Y015173D01*
X012276Y015170D02*
X010425Y015170D01*
X010425Y015168D02*
X012276Y015168D01*
X012276Y015165D02*
X010425Y015165D01*
X010425Y015163D02*
X012276Y015163D01*
X012276Y015160D02*
X010425Y015160D01*
X010425Y015158D02*
X012276Y015158D01*
X012276Y015155D02*
X010425Y015155D01*
X010425Y015153D02*
X012276Y015153D01*
X012276Y015151D02*
X010425Y015151D01*
X010425Y015148D02*
X012276Y015148D01*
X012276Y015146D02*
X010425Y015146D01*
X010425Y015143D02*
X012276Y015143D01*
X012276Y015141D02*
X010425Y015141D01*
X010425Y015138D02*
X012276Y015138D01*
X012276Y015136D02*
X010425Y015136D01*
X010425Y015133D02*
X012276Y015133D01*
X012276Y015131D02*
X010425Y015131D01*
X010425Y015128D02*
X012276Y015128D01*
X012276Y015126D02*
X010425Y015126D01*
X010425Y015123D02*
X012276Y015123D01*
X012276Y015121D02*
X010425Y015121D01*
X010425Y015118D02*
X012276Y015118D01*
X012276Y015116D02*
X010425Y015116D01*
X010425Y015113D02*
X012276Y015113D01*
X012276Y015111D02*
X010425Y015111D01*
X010425Y015108D02*
X012276Y015108D01*
X012276Y015106D02*
X010425Y015106D01*
X010425Y015103D02*
X012276Y015103D01*
X012276Y015101D02*
X010425Y015101D01*
X010425Y015098D02*
X012276Y015098D01*
X012276Y015096D02*
X010425Y015096D01*
X010425Y015093D02*
X012276Y015093D01*
X012276Y015091D02*
X010425Y015091D01*
X010425Y015089D02*
X012276Y015089D01*
X012276Y015086D02*
X010425Y015086D01*
X010425Y015084D02*
X012276Y015084D01*
X012276Y015081D02*
X010425Y015081D01*
X010425Y015079D02*
X012276Y015079D01*
X012276Y015076D02*
X010425Y015076D01*
X010425Y015074D02*
X012276Y015074D01*
X012276Y015071D02*
X010425Y015071D01*
X010425Y015069D02*
X012276Y015069D01*
X012276Y015066D02*
X010425Y015066D01*
X010425Y015064D02*
X012276Y015064D01*
X012276Y015061D02*
X010425Y015061D01*
X010425Y015059D02*
X012276Y015059D01*
X012276Y015056D02*
X010425Y015056D01*
X010425Y015054D02*
X012276Y015054D01*
X012276Y015051D02*
X010425Y015051D01*
X010425Y015049D02*
X012276Y015049D01*
X012276Y015046D02*
X010425Y015046D01*
X010425Y015044D02*
X012276Y015044D01*
X012276Y015041D02*
X010425Y015041D01*
X010425Y015039D02*
X012276Y015039D01*
X012276Y015036D02*
X010425Y015036D01*
X010425Y015034D02*
X012276Y015034D01*
X012276Y015031D02*
X010425Y015031D01*
X010425Y015029D02*
X012276Y015029D01*
X012276Y015026D02*
X010425Y015026D01*
X010425Y015024D02*
X012276Y015024D01*
X012276Y015022D02*
X010425Y015022D01*
X010425Y015019D02*
X012276Y015019D01*
X012276Y015017D02*
X010425Y015017D01*
X010425Y015014D02*
X012276Y015014D01*
X012276Y015012D02*
X010425Y015012D01*
X010425Y015009D02*
X012276Y015009D01*
X012276Y015007D02*
X010425Y015007D01*
X010425Y015004D02*
X012276Y015004D01*
X012276Y015002D02*
X010425Y015002D01*
X010425Y014999D02*
X012276Y014999D01*
X012276Y014997D02*
X010425Y014997D01*
X010425Y014994D02*
X012276Y014994D01*
X012268Y014064D02*
X012276Y014064D01*
X012276Y014062D02*
X012262Y014062D01*
X012256Y014059D02*
X012276Y014059D01*
X012276Y014057D02*
X012251Y014057D01*
X012245Y014054D02*
X012276Y014054D01*
X012276Y014052D02*
X012239Y014052D01*
X012233Y014049D02*
X012276Y014049D01*
X012276Y014047D02*
X012227Y014047D01*
X012222Y014044D02*
X012276Y014044D01*
X012276Y014042D02*
X012216Y014042D01*
X012210Y014039D02*
X012276Y014039D01*
X012276Y014037D02*
X012204Y014037D01*
X012199Y014034D02*
X012276Y014034D01*
X012276Y014032D02*
X012193Y014032D01*
X012187Y014029D02*
X012276Y014029D01*
X012276Y014027D02*
X012181Y014027D01*
X012175Y014024D02*
X012276Y014024D01*
X012276Y014022D02*
X012170Y014022D01*
X012164Y014019D02*
X012276Y014019D01*
X012276Y014017D02*
X012158Y014017D01*
X012152Y014015D02*
X012276Y014015D01*
X012276Y014012D02*
X012146Y014012D01*
X012141Y014010D02*
X012276Y014010D01*
X012276Y014007D02*
X012135Y014007D01*
X012129Y014005D02*
X012276Y014005D01*
X012276Y014002D02*
X012123Y014002D01*
X012118Y014000D02*
X012276Y014000D01*
X012276Y013997D02*
X012112Y013997D01*
X012106Y013995D02*
X012276Y013995D01*
X012276Y013992D02*
X012100Y013992D01*
X012094Y013990D02*
X012276Y013990D01*
X012276Y013987D02*
X012089Y013987D01*
X012083Y013985D02*
X012276Y013985D01*
X012276Y013982D02*
X012077Y013982D01*
X012071Y013980D02*
X012276Y013980D01*
X012276Y013977D02*
X012065Y013977D01*
X012060Y013975D02*
X012276Y013975D01*
X012276Y013972D02*
X012054Y013972D01*
X012048Y013970D02*
X012276Y013970D01*
X012276Y013967D02*
X012042Y013967D01*
X012036Y013965D02*
X012276Y013965D01*
X012276Y013962D02*
X012031Y013962D01*
X012025Y013960D02*
X012276Y013960D01*
X012276Y013957D02*
X012019Y013957D01*
X012013Y013955D02*
X012276Y013955D01*
X012276Y013953D02*
X012008Y013953D01*
X012002Y013950D02*
X012276Y013950D01*
X012276Y013948D02*
X011724Y013948D01*
X011724Y013950D02*
X011998Y013950D01*
X011992Y013953D02*
X011724Y013953D01*
X011724Y013955D02*
X011987Y013955D01*
X011981Y013957D02*
X011724Y013957D01*
X011724Y013960D02*
X011975Y013960D01*
X011969Y013962D02*
X011724Y013962D01*
X011724Y013965D02*
X011964Y013965D01*
X011958Y013967D02*
X011724Y013967D01*
X011724Y013970D02*
X011952Y013970D01*
X011946Y013972D02*
X011724Y013972D01*
X011724Y013975D02*
X011940Y013975D01*
X011935Y013977D02*
X011724Y013977D01*
X011724Y013980D02*
X011929Y013980D01*
X011923Y013982D02*
X011724Y013982D01*
X011724Y013985D02*
X011917Y013985D01*
X011911Y013987D02*
X011724Y013987D01*
X011724Y013990D02*
X011906Y013990D01*
X011900Y013992D02*
X011724Y013992D01*
X011724Y013995D02*
X011894Y013995D01*
X011888Y013997D02*
X011724Y013997D01*
X011724Y014000D02*
X011883Y014000D01*
X011877Y014002D02*
X011724Y014002D01*
X011724Y014005D02*
X011871Y014005D01*
X011865Y014007D02*
X011724Y014007D01*
X011724Y014010D02*
X011859Y014010D01*
X011854Y014012D02*
X011724Y014012D01*
X011724Y014015D02*
X011848Y014015D01*
X011842Y014017D02*
X011724Y014017D01*
X011724Y014019D02*
X011836Y014019D01*
X011830Y014022D02*
X011724Y014022D01*
X011724Y014024D02*
X011825Y014024D01*
X011819Y014027D02*
X011724Y014027D01*
X011724Y014029D02*
X011813Y014029D01*
X011807Y014032D02*
X011724Y014032D01*
X011724Y014034D02*
X011801Y014034D01*
X011796Y014037D02*
X011724Y014037D01*
X011724Y014039D02*
X011790Y014039D01*
X011784Y014042D02*
X011724Y014042D01*
X011724Y014044D02*
X011778Y014044D01*
X011773Y014047D02*
X011724Y014047D01*
X011724Y014049D02*
X011767Y014049D01*
X011761Y014052D02*
X011724Y014052D01*
X011724Y014054D02*
X011755Y014054D01*
X011749Y014057D02*
X011724Y014057D01*
X011724Y014059D02*
X011744Y014059D01*
X011738Y014062D02*
X011724Y014062D01*
X011724Y014064D02*
X011732Y014064D01*
X011724Y013945D02*
X012276Y013945D01*
X012276Y013943D02*
X011724Y013943D01*
X011724Y013940D02*
X012276Y013940D01*
X012276Y013938D02*
X011724Y013938D01*
X011724Y013935D02*
X012276Y013935D01*
X012276Y013933D02*
X011724Y013933D01*
X011724Y013930D02*
X012276Y013930D01*
X012276Y013928D02*
X011724Y013928D01*
X011724Y013925D02*
X012276Y013925D01*
X012276Y013923D02*
X011724Y013923D01*
X011724Y013920D02*
X012276Y013920D01*
X012276Y013918D02*
X011724Y013918D01*
X011724Y013915D02*
X012276Y013915D01*
X012276Y013913D02*
X011724Y013913D01*
X011724Y013910D02*
X012276Y013910D01*
X012276Y013908D02*
X011724Y013908D01*
X011724Y013905D02*
X012276Y013905D01*
X012276Y013903D02*
X011724Y013903D01*
X011724Y013900D02*
X012276Y013900D01*
X012276Y013898D02*
X011724Y013898D01*
X011724Y013895D02*
X012276Y013895D01*
X012276Y013893D02*
X011724Y013893D01*
X011724Y013891D02*
X012276Y013891D01*
X012276Y013888D02*
X011724Y013888D01*
X011724Y013886D02*
X012276Y013886D01*
X012276Y013883D02*
X011724Y013883D01*
X011724Y013881D02*
X012276Y013881D01*
X012276Y013878D02*
X011724Y013878D01*
X011724Y013876D02*
X012276Y013876D01*
X012276Y013873D02*
X011724Y013873D01*
X011724Y013871D02*
X012276Y013871D01*
X012276Y013868D02*
X011724Y013868D01*
X011724Y013866D02*
X012276Y013866D01*
X012276Y013863D02*
X011724Y013863D01*
X011724Y013861D02*
X012276Y013861D01*
X012276Y013858D02*
X011724Y013858D01*
X011724Y013856D02*
X012276Y013856D01*
X012276Y013853D02*
X011724Y013853D01*
X011724Y013851D02*
X012276Y013851D01*
X012276Y013848D02*
X011724Y013848D01*
X011724Y013846D02*
X012276Y013846D01*
X012276Y013843D02*
X011724Y013843D01*
X011724Y013841D02*
X012276Y013841D01*
X012276Y013838D02*
X011724Y013838D01*
X011724Y013836D02*
X012276Y013836D01*
X012276Y013833D02*
X011724Y013833D01*
X011724Y013831D02*
X012276Y013831D01*
X012276Y013829D02*
X011724Y013829D01*
X011724Y013826D02*
X012276Y013826D01*
X012276Y013824D02*
X011724Y013824D01*
X011724Y013821D02*
X012276Y013821D01*
X012276Y013819D02*
X011724Y013819D01*
X011724Y013816D02*
X012276Y013816D01*
X012276Y013814D02*
X011724Y013814D01*
X011719Y013806D02*
X012276Y013806D01*
X012276Y013804D02*
X011717Y013804D01*
X011714Y013801D02*
X012276Y013801D01*
X012276Y013799D02*
X011712Y013799D01*
X011709Y013796D02*
X012276Y013796D01*
X012276Y013794D02*
X011707Y013794D01*
X011704Y013791D02*
X012276Y013791D01*
X012276Y013789D02*
X011702Y013789D01*
X011699Y013786D02*
X012276Y013786D01*
X012276Y013784D02*
X011697Y013784D01*
X011694Y013781D02*
X012276Y013781D01*
X012276Y013779D02*
X011692Y013779D01*
X011689Y013776D02*
X012276Y013776D01*
X012276Y013774D02*
X011687Y013774D01*
X011684Y013771D02*
X012276Y013771D01*
X012276Y013769D02*
X011682Y013769D01*
X011679Y013766D02*
X012276Y013766D01*
X012276Y013764D02*
X011677Y013764D01*
X011674Y013762D02*
X012276Y013762D01*
X012276Y013759D02*
X011672Y013759D01*
X011669Y013757D02*
X012276Y013757D01*
X012276Y013754D02*
X011667Y013754D01*
X011665Y013752D02*
X012276Y013752D01*
X012276Y013749D02*
X011662Y013749D01*
X011660Y013747D02*
X012276Y013747D01*
X012276Y013744D02*
X011657Y013744D01*
X011655Y013742D02*
X012276Y013742D01*
X012276Y013739D02*
X011652Y013739D01*
X011650Y013737D02*
X012276Y013737D01*
X012276Y013734D02*
X011647Y013734D01*
X011645Y013732D02*
X012276Y013732D01*
X012276Y013729D02*
X011642Y013729D01*
X011640Y013727D02*
X012276Y013727D01*
X012276Y013724D02*
X011637Y013724D01*
X011635Y013722D02*
X012276Y013722D01*
X012276Y013719D02*
X011632Y013719D01*
X011630Y013717D02*
X012276Y013717D01*
X012276Y013714D02*
X011627Y013714D01*
X011625Y013712D02*
X012276Y013712D01*
X012276Y013709D02*
X011622Y013709D01*
X011620Y013707D02*
X012276Y013707D01*
X012276Y013704D02*
X011617Y013704D01*
X011615Y013702D02*
X012276Y013702D01*
X012276Y013700D02*
X011612Y013700D01*
X011610Y013697D02*
X012276Y013697D01*
X012276Y013695D02*
X011607Y013695D01*
X012010Y013251D02*
X010691Y013251D01*
X010688Y013253D02*
X012012Y013253D01*
X012015Y013256D02*
X010686Y013256D01*
X010683Y013258D02*
X012017Y013258D01*
X012020Y013261D02*
X010681Y013261D01*
X010678Y013263D02*
X012022Y013263D01*
X012025Y013265D02*
X010676Y013265D01*
X010673Y013268D02*
X012027Y013268D01*
X012030Y013270D02*
X010671Y013270D01*
X010669Y013273D02*
X012032Y013273D01*
X012035Y013275D02*
X010666Y013275D01*
X010664Y013278D02*
X012037Y013278D01*
X012040Y013280D02*
X010661Y013280D01*
X010659Y013283D02*
X012042Y013283D01*
X012045Y013285D02*
X010656Y013285D01*
X010654Y013288D02*
X012047Y013288D01*
X012050Y013290D02*
X010651Y013290D01*
X010649Y013293D02*
X012052Y013293D01*
X012055Y013295D02*
X010646Y013295D01*
X010644Y013298D02*
X012057Y013298D01*
X012060Y013300D02*
X010641Y013300D01*
X010639Y013303D02*
X012062Y013303D01*
X012065Y013305D02*
X010636Y013305D01*
X010634Y013308D02*
X012067Y013308D01*
X012069Y013310D02*
X010631Y013310D01*
X010629Y013313D02*
X012072Y013313D01*
X012074Y013315D02*
X010626Y013315D01*
X010624Y013318D02*
X012077Y013318D01*
X012079Y013320D02*
X010621Y013320D01*
X010619Y013323D02*
X012082Y013323D01*
X012084Y013325D02*
X010616Y013325D01*
X010614Y013327D02*
X012087Y013327D01*
X012089Y013330D02*
X010611Y013330D01*
X010609Y013332D02*
X012092Y013332D01*
X012094Y013335D02*
X010606Y013335D01*
X010604Y013337D02*
X012097Y013337D01*
X012099Y013340D02*
X010602Y013340D01*
X010599Y013342D02*
X012102Y013342D01*
X012104Y013345D02*
X010597Y013345D01*
X010594Y013347D02*
X012107Y013347D01*
X012109Y013350D02*
X010592Y013350D01*
X010589Y013352D02*
X012112Y013352D01*
X012114Y013355D02*
X010587Y013355D01*
X010584Y013357D02*
X012117Y013357D01*
X012119Y013360D02*
X010582Y013360D01*
X010579Y013362D02*
X012122Y013362D01*
X012124Y013365D02*
X010577Y013365D01*
X010574Y013367D02*
X012127Y013367D01*
X012129Y013370D02*
X010572Y013370D01*
X010569Y013372D02*
X012131Y013372D01*
X012134Y013375D02*
X010567Y013375D01*
X010564Y013377D02*
X012136Y013377D01*
X012139Y013380D02*
X010562Y013380D01*
X010559Y013382D02*
X012141Y013382D01*
X012144Y013385D02*
X010557Y013385D01*
X010554Y013387D02*
X012146Y013387D01*
X012149Y013389D02*
X010552Y013389D01*
X010549Y013392D02*
X012151Y013392D01*
X012154Y013394D02*
X010547Y013394D01*
X010544Y013397D02*
X012156Y013397D01*
X012159Y013399D02*
X010542Y013399D01*
X010540Y013402D02*
X012161Y013402D01*
X012164Y013404D02*
X010537Y013404D01*
X010535Y013407D02*
X012166Y013407D01*
X012169Y013409D02*
X010532Y013409D01*
X010530Y013412D02*
X012171Y013412D01*
X012174Y013414D02*
X010527Y013414D01*
X010525Y013417D02*
X012176Y013417D01*
X012179Y013419D02*
X010522Y013419D01*
X010520Y013422D02*
X012181Y013422D01*
X012184Y013424D02*
X010517Y013424D01*
X010515Y013427D02*
X012186Y013427D01*
X012189Y013429D02*
X010512Y013429D01*
X010510Y013432D02*
X012191Y013432D01*
X012194Y013434D02*
X010507Y013434D01*
X010505Y013437D02*
X012196Y013437D01*
X012198Y013439D02*
X010502Y013439D01*
X010500Y013442D02*
X012201Y013442D01*
X012203Y013444D02*
X010497Y013444D01*
X010495Y013447D02*
X012206Y013447D01*
X012208Y013449D02*
X010492Y013449D01*
X010490Y013451D02*
X012211Y013451D01*
X012213Y013454D02*
X010487Y013454D01*
X010485Y013456D02*
X012216Y013456D01*
X012218Y013459D02*
X010482Y013459D01*
X010480Y013461D02*
X012221Y013461D01*
X012223Y013464D02*
X010478Y013464D01*
X010475Y013466D02*
X012226Y013466D01*
X012228Y013469D02*
X010473Y013469D01*
X010470Y013471D02*
X012231Y013471D01*
X012233Y013474D02*
X010468Y013474D01*
X010465Y013476D02*
X012236Y013476D01*
X012238Y013479D02*
X010463Y013479D01*
X010460Y013481D02*
X012241Y013481D01*
X012243Y013484D02*
X010458Y013484D01*
X010455Y013486D02*
X012246Y013486D01*
X012248Y013489D02*
X010453Y013489D01*
X010450Y013491D02*
X012251Y013491D01*
X012253Y013494D02*
X010448Y013494D01*
X010445Y013496D02*
X012256Y013496D01*
X012258Y013499D02*
X010443Y013499D01*
X010440Y013501D02*
X012260Y013501D01*
X012263Y013504D02*
X010438Y013504D01*
X010435Y013506D02*
X012265Y013506D01*
X012268Y013509D02*
X010433Y013509D01*
X010430Y013511D02*
X012270Y013511D01*
X012273Y013514D02*
X010428Y013514D01*
X010425Y013516D02*
X012275Y013516D01*
X012276Y013518D02*
X010425Y013518D01*
X010425Y013521D02*
X012276Y013521D01*
X012276Y013523D02*
X010425Y013523D01*
X010425Y013526D02*
X012276Y013526D01*
X012276Y013528D02*
X010425Y013528D01*
X010425Y013531D02*
X012276Y013531D01*
X012276Y013533D02*
X010425Y013533D01*
X010425Y013536D02*
X012276Y013536D01*
X012276Y013538D02*
X010425Y013538D01*
X010425Y013541D02*
X012276Y013541D01*
X012276Y013543D02*
X010425Y013543D01*
X010425Y013546D02*
X012276Y013546D01*
X012276Y013548D02*
X010425Y013548D01*
X010425Y013551D02*
X012276Y013551D01*
X012276Y013553D02*
X010425Y013553D01*
X010425Y013556D02*
X012276Y013556D01*
X012276Y013558D02*
X010425Y013558D01*
X010425Y013561D02*
X012276Y013561D01*
X012276Y013563D02*
X010425Y013563D01*
X010425Y013566D02*
X012276Y013566D01*
X012276Y013568D02*
X010425Y013568D01*
X010425Y013571D02*
X012276Y013571D01*
X012276Y013573D02*
X010425Y013573D01*
X010425Y013576D02*
X012276Y013576D01*
X012276Y013578D02*
X010425Y013578D01*
X010425Y013580D02*
X012276Y013580D01*
X012276Y013583D02*
X010425Y013583D01*
X010425Y013585D02*
X012276Y013585D01*
X012276Y013588D02*
X010425Y013588D01*
X010425Y013590D02*
X012276Y013590D01*
X012276Y013593D02*
X010425Y013593D01*
X010425Y013595D02*
X012276Y013595D01*
X012276Y013598D02*
X010425Y013598D01*
X010425Y013600D02*
X012276Y013600D01*
X012276Y013603D02*
X010425Y013603D01*
X010425Y013605D02*
X012276Y013605D01*
X012276Y013608D02*
X010425Y013608D01*
X010425Y013610D02*
X012276Y013610D01*
X012276Y013613D02*
X010425Y013613D01*
X010425Y013615D02*
X012276Y013615D01*
X012276Y013618D02*
X010425Y013618D01*
X010425Y013620D02*
X012276Y013620D01*
X012276Y013623D02*
X010425Y013623D01*
X010425Y013625D02*
X012276Y013625D01*
X012276Y013628D02*
X010425Y013628D01*
X010425Y013630D02*
X012276Y013630D01*
X012276Y013633D02*
X010425Y013633D01*
X010425Y013635D02*
X012276Y013635D01*
X012276Y013638D02*
X010425Y013638D01*
X010425Y013640D02*
X012276Y013640D01*
X012276Y013642D02*
X010425Y013642D01*
X010425Y013645D02*
X012276Y013645D01*
X012276Y013647D02*
X010425Y013647D01*
X010425Y013650D02*
X012276Y013650D01*
X012276Y013652D02*
X010425Y013652D01*
X010425Y013655D02*
X012276Y013655D01*
X012276Y013657D02*
X010425Y013657D01*
X010425Y013660D02*
X012276Y013660D01*
X012276Y013662D02*
X010425Y013662D01*
X010425Y013665D02*
X012276Y013665D01*
X012276Y013667D02*
X010425Y013667D01*
X010425Y013670D02*
X012276Y013670D01*
X012276Y013672D02*
X010425Y013672D01*
X010425Y013675D02*
X012276Y013675D01*
X012276Y013677D02*
X010425Y013677D01*
X010425Y013680D02*
X012276Y013680D01*
X012276Y013682D02*
X010425Y013682D01*
X010425Y013685D02*
X012276Y013685D01*
X012276Y013687D02*
X010425Y013687D01*
X010425Y013690D02*
X012276Y013690D01*
X012276Y013692D02*
X010425Y013692D01*
X010425Y013695D02*
X011074Y013695D01*
X011071Y013697D02*
X010425Y013697D01*
X010425Y013700D02*
X011069Y013700D01*
X011066Y013702D02*
X010425Y013702D01*
X010425Y013704D02*
X011064Y013704D01*
X011061Y013707D02*
X010425Y013707D01*
X010425Y013709D02*
X011059Y013709D01*
X011056Y013712D02*
X010425Y013712D01*
X010425Y013714D02*
X011054Y013714D01*
X011051Y013717D02*
X010425Y013717D01*
X010425Y013719D02*
X011049Y013719D01*
X011046Y013722D02*
X010425Y013722D01*
X010425Y013724D02*
X011044Y013724D01*
X011041Y013727D02*
X010425Y013727D01*
X010425Y013729D02*
X011039Y013729D01*
X011036Y013732D02*
X010425Y013732D01*
X010425Y013734D02*
X011034Y013734D01*
X011031Y013737D02*
X010425Y013737D01*
X010425Y013739D02*
X011029Y013739D01*
X011026Y013742D02*
X010425Y013742D01*
X010425Y013744D02*
X011024Y013744D01*
X011022Y013747D02*
X010425Y013747D01*
X010425Y013749D02*
X011019Y013749D01*
X011017Y013752D02*
X010425Y013752D01*
X010425Y013754D02*
X011014Y013754D01*
X011012Y013757D02*
X010425Y013757D01*
X010425Y013759D02*
X011009Y013759D01*
X011007Y013762D02*
X010425Y013762D01*
X010425Y013764D02*
X011004Y013764D01*
X011002Y013766D02*
X010425Y013766D01*
X010425Y013769D02*
X010999Y013769D01*
X010997Y013771D02*
X010425Y013771D01*
X010425Y013774D02*
X010994Y013774D01*
X010992Y013776D02*
X010425Y013776D01*
X010425Y013779D02*
X010989Y013779D01*
X010987Y013781D02*
X010425Y013781D01*
X010425Y013784D02*
X010984Y013784D01*
X010982Y013786D02*
X010425Y013786D01*
X010425Y013789D02*
X010979Y013789D01*
X010977Y013791D02*
X010425Y013791D01*
X010425Y013794D02*
X010976Y013794D01*
X010976Y013796D02*
X010425Y013796D01*
X010425Y013799D02*
X010976Y013799D01*
X010976Y013801D02*
X010425Y013801D01*
X010425Y013804D02*
X010976Y013804D01*
X010976Y013806D02*
X010425Y013806D01*
X010425Y013809D02*
X010976Y013809D01*
X010976Y013811D02*
X010425Y013811D01*
X010425Y013814D02*
X010976Y013814D01*
X010976Y013816D02*
X010425Y013816D01*
X010425Y013819D02*
X010976Y013819D01*
X010976Y013821D02*
X010425Y013821D01*
X010425Y013824D02*
X010976Y013824D01*
X010976Y013826D02*
X010425Y013826D01*
X010425Y013829D02*
X010976Y013829D01*
X010976Y013831D02*
X010425Y013831D01*
X010425Y013833D02*
X010976Y013833D01*
X010976Y013836D02*
X010425Y013836D01*
X010425Y013838D02*
X010976Y013838D01*
X010976Y013841D02*
X010425Y013841D01*
X010425Y013843D02*
X010976Y013843D01*
X010976Y013846D02*
X010425Y013846D01*
X010425Y013848D02*
X010976Y013848D01*
X010976Y013851D02*
X010425Y013851D01*
X010425Y013853D02*
X010976Y013853D01*
X010976Y013856D02*
X010425Y013856D01*
X010425Y013858D02*
X010976Y013858D01*
X010976Y013861D02*
X010425Y013861D01*
X010425Y013863D02*
X010976Y013863D01*
X010976Y013866D02*
X010425Y013866D01*
X010425Y013868D02*
X010976Y013868D01*
X010976Y013871D02*
X010425Y013871D01*
X010425Y013873D02*
X010976Y013873D01*
X010976Y013876D02*
X010425Y013876D01*
X010425Y013878D02*
X010976Y013878D01*
X010976Y013881D02*
X010425Y013881D01*
X010425Y013883D02*
X010976Y013883D01*
X010976Y013886D02*
X010425Y013886D01*
X010425Y013888D02*
X010976Y013888D01*
X010976Y013891D02*
X010425Y013891D01*
X010425Y013893D02*
X010976Y013893D01*
X010976Y013895D02*
X010425Y013895D01*
X010425Y013898D02*
X010976Y013898D01*
X010976Y013900D02*
X010425Y013900D01*
X010425Y013903D02*
X010976Y013903D01*
X010976Y013905D02*
X010425Y013905D01*
X010425Y013908D02*
X010976Y013908D01*
X010976Y013910D02*
X010425Y013910D01*
X010425Y013913D02*
X010976Y013913D01*
X010976Y013915D02*
X010425Y013915D01*
X010425Y013918D02*
X010976Y013918D01*
X010976Y013920D02*
X010425Y013920D01*
X010425Y013923D02*
X010976Y013923D01*
X010976Y013925D02*
X010425Y013925D01*
X010425Y013928D02*
X010976Y013928D01*
X010976Y013930D02*
X010425Y013930D01*
X010425Y013933D02*
X010976Y013933D01*
X010976Y013935D02*
X010425Y013935D01*
X010425Y013938D02*
X010976Y013938D01*
X010976Y013940D02*
X010425Y013940D01*
X010425Y013943D02*
X010976Y013943D01*
X010976Y013945D02*
X010425Y013945D01*
X010425Y013948D02*
X010976Y013948D01*
X010976Y013950D02*
X010425Y013950D01*
X010425Y013953D02*
X010976Y013953D01*
X010976Y013955D02*
X010425Y013955D01*
X010425Y013957D02*
X010976Y013957D01*
X010976Y013960D02*
X010425Y013960D01*
X010425Y013962D02*
X010976Y013962D01*
X010976Y013965D02*
X010425Y013965D01*
X010425Y013967D02*
X010976Y013967D01*
X010976Y013970D02*
X010425Y013970D01*
X010425Y013972D02*
X010976Y013972D01*
X010976Y013975D02*
X010425Y013975D01*
X010425Y013977D02*
X010976Y013977D01*
X010976Y013980D02*
X010425Y013980D01*
X010425Y013982D02*
X010976Y013982D01*
X010976Y013985D02*
X010425Y013985D01*
X010425Y013987D02*
X010976Y013987D01*
X010976Y013990D02*
X010425Y013990D01*
X010425Y013992D02*
X010976Y013992D01*
X010976Y013995D02*
X010425Y013995D01*
X010425Y013997D02*
X010976Y013997D01*
X010976Y014000D02*
X010425Y014000D01*
X010425Y014002D02*
X010976Y014002D01*
X010976Y014005D02*
X010425Y014005D01*
X010425Y014007D02*
X010976Y014007D01*
X010976Y014010D02*
X010425Y014010D01*
X010425Y014012D02*
X010976Y014012D01*
X010976Y014015D02*
X010425Y014015D01*
X010425Y014017D02*
X010976Y014017D01*
X010976Y014019D02*
X010425Y014019D01*
X010425Y014022D02*
X010976Y014022D01*
X010976Y014024D02*
X010425Y014024D01*
X010425Y014027D02*
X010976Y014027D01*
X010976Y014029D02*
X010425Y014029D01*
X010425Y014032D02*
X010976Y014032D01*
X010976Y014034D02*
X010425Y014034D01*
X010425Y014037D02*
X010976Y014037D01*
X010976Y014039D02*
X010425Y014039D01*
X010425Y014042D02*
X010976Y014042D01*
X010976Y014044D02*
X010425Y014044D01*
X010425Y014047D02*
X010976Y014047D01*
X010976Y014049D02*
X010425Y014049D01*
X010425Y014052D02*
X010976Y014052D01*
X010976Y014054D02*
X010425Y014054D01*
X010425Y014057D02*
X010976Y014057D01*
X010976Y014059D02*
X010425Y014059D01*
X010425Y014062D02*
X010976Y014062D01*
X010976Y014064D02*
X010425Y014064D01*
X010425Y014067D02*
X010976Y014067D01*
X010976Y014069D02*
X010425Y014069D01*
X010425Y014072D02*
X010976Y014072D01*
X010976Y014074D02*
X010425Y014074D01*
X010425Y014077D02*
X010976Y014077D01*
X010976Y014079D02*
X010425Y014079D01*
X010425Y014081D02*
X010976Y014081D01*
X010976Y014084D02*
X010425Y014084D01*
X010425Y014086D02*
X010976Y014086D01*
X010976Y014089D02*
X010425Y014089D01*
X010425Y014091D02*
X010976Y014091D01*
X010976Y014094D02*
X010425Y014094D01*
X010425Y014096D02*
X010976Y014096D01*
X010976Y014099D02*
X010425Y014099D01*
X010425Y014101D02*
X010976Y014101D01*
X010976Y014104D02*
X010425Y014104D01*
X010425Y014106D02*
X010976Y014106D01*
X010976Y014109D02*
X010425Y014109D01*
X010425Y014111D02*
X010976Y014111D01*
X010976Y014114D02*
X010425Y014114D01*
X010425Y014116D02*
X010976Y014116D01*
X010976Y014119D02*
X010425Y014119D01*
X010425Y014121D02*
X010976Y014121D01*
X010976Y014124D02*
X010425Y014124D01*
X010425Y014126D02*
X010976Y014126D01*
X010976Y014129D02*
X010425Y014129D01*
X010425Y014131D02*
X010976Y014131D01*
X010976Y014134D02*
X010425Y014134D01*
X010425Y014136D02*
X010976Y014136D01*
X010976Y014139D02*
X010425Y014139D01*
X010425Y014141D02*
X010976Y014141D01*
X010976Y014144D02*
X010425Y014144D01*
X010425Y014146D02*
X010976Y014146D01*
X010976Y014148D02*
X010425Y014148D01*
X010425Y014151D02*
X010976Y014151D01*
X010976Y014153D02*
X010425Y014153D01*
X010425Y014156D02*
X010976Y014156D01*
X010976Y014158D02*
X010425Y014158D01*
X010425Y014161D02*
X010976Y014161D01*
X010976Y014163D02*
X010425Y014163D01*
X010425Y014166D02*
X010976Y014166D01*
X010976Y014168D02*
X010425Y014168D01*
X010425Y014171D02*
X010976Y014171D01*
X010976Y014173D02*
X010425Y014173D01*
X010425Y014176D02*
X010976Y014176D01*
X010976Y014178D02*
X010425Y014178D01*
X010425Y014181D02*
X010976Y014181D01*
X010976Y014183D02*
X010425Y014183D01*
X010425Y014186D02*
X010976Y014186D01*
X010976Y014188D02*
X010425Y014188D01*
X010425Y014191D02*
X010976Y014191D01*
X010976Y014193D02*
X010425Y014193D01*
X010425Y014196D02*
X010976Y014196D01*
X010976Y014198D02*
X010425Y014198D01*
X010425Y014201D02*
X010976Y014201D01*
X010976Y014203D02*
X010425Y014203D01*
X010425Y014206D02*
X010976Y014206D01*
X010976Y014208D02*
X010425Y014208D01*
X010425Y014210D02*
X010976Y014210D01*
X010976Y014213D02*
X010425Y014213D01*
X010425Y014215D02*
X010976Y014215D01*
X010976Y014218D02*
X010425Y014218D01*
X010425Y014220D02*
X010976Y014220D01*
X010976Y014223D02*
X010425Y014223D01*
X010425Y014225D02*
X010976Y014225D01*
X010976Y014228D02*
X010425Y014228D01*
X010425Y014230D02*
X010976Y014230D01*
X010976Y014233D02*
X010425Y014233D01*
X010425Y014235D02*
X010976Y014235D01*
X010976Y014238D02*
X010425Y014238D01*
X010425Y014240D02*
X010976Y014240D01*
X010976Y014243D02*
X010425Y014243D01*
X010425Y014245D02*
X010976Y014245D01*
X010976Y014248D02*
X010425Y014248D01*
X010425Y014250D02*
X010976Y014250D01*
X010976Y014253D02*
X010425Y014253D01*
X010425Y014255D02*
X010976Y014255D01*
X010976Y014258D02*
X010425Y014258D01*
X010425Y014260D02*
X010976Y014260D01*
X010976Y014263D02*
X010425Y014263D01*
X010425Y014265D02*
X010976Y014265D01*
X010976Y014268D02*
X010425Y014268D01*
X010425Y014270D02*
X010976Y014270D01*
X010976Y014272D02*
X010425Y014272D01*
X010425Y014275D02*
X010976Y014275D01*
X010976Y014277D02*
X010425Y014277D01*
X010425Y014280D02*
X010976Y014280D01*
X010976Y014282D02*
X010425Y014282D01*
X010425Y014285D02*
X010976Y014285D01*
X010976Y014287D02*
X010425Y014287D01*
X010425Y014290D02*
X010976Y014290D01*
X010976Y014292D02*
X010425Y014292D01*
X010425Y014295D02*
X010976Y014295D01*
X010976Y014297D02*
X010425Y014297D01*
X010425Y014300D02*
X010976Y014300D01*
X010976Y014302D02*
X010425Y014302D01*
X010425Y014305D02*
X010976Y014305D01*
X010976Y014307D02*
X010425Y014307D01*
X010425Y014310D02*
X010976Y014310D01*
X010976Y014312D02*
X010425Y014312D01*
X010425Y014315D02*
X010976Y014315D01*
X010976Y014317D02*
X010425Y014317D01*
X010425Y014320D02*
X010976Y014320D01*
X010976Y014322D02*
X010425Y014322D01*
X010425Y014325D02*
X010976Y014325D01*
X010976Y014327D02*
X010425Y014327D01*
X010425Y014330D02*
X010976Y014330D01*
X010976Y014332D02*
X010425Y014332D01*
X010425Y014334D02*
X010976Y014334D01*
X010976Y014337D02*
X010425Y014337D01*
X010425Y014339D02*
X010976Y014339D01*
X010976Y014342D02*
X010425Y014342D01*
X010425Y014344D02*
X010976Y014344D01*
X010976Y014347D02*
X010425Y014347D01*
X010425Y014349D02*
X010976Y014349D01*
X010976Y014352D02*
X010425Y014352D01*
X010425Y014354D02*
X010976Y014354D01*
X010976Y014357D02*
X010425Y014357D01*
X010425Y014359D02*
X010976Y014359D01*
X010976Y014362D02*
X010425Y014362D01*
X010425Y014364D02*
X010976Y014364D01*
X010976Y014367D02*
X010425Y014367D01*
X010425Y014369D02*
X010976Y014369D01*
X010976Y014372D02*
X010425Y014372D01*
X010425Y014374D02*
X010976Y014374D01*
X010976Y014377D02*
X010425Y014377D01*
X010425Y014379D02*
X010976Y014379D01*
X010976Y014382D02*
X010425Y014382D01*
X010425Y014384D02*
X010976Y014384D01*
X010976Y014387D02*
X010425Y014387D01*
X010425Y014389D02*
X010976Y014389D01*
X010976Y014392D02*
X010425Y014392D01*
X010425Y014394D02*
X010976Y014394D01*
X010976Y014396D02*
X010425Y014396D01*
X010425Y014399D02*
X010976Y014399D01*
X010976Y014401D02*
X010425Y014401D01*
X010425Y014404D02*
X010976Y014404D01*
X010976Y014406D02*
X010425Y014406D01*
X010425Y014409D02*
X010976Y014409D01*
X010976Y014411D02*
X010425Y014411D01*
X010425Y014414D02*
X010976Y014414D01*
X010976Y014416D02*
X010425Y014416D01*
X010425Y014419D02*
X010976Y014419D01*
X010976Y014421D02*
X010425Y014421D01*
X010425Y014424D02*
X010976Y014424D01*
X010976Y014426D02*
X010425Y014426D01*
X010425Y014429D02*
X010976Y014429D01*
X010976Y014431D02*
X010425Y014431D01*
X010425Y014434D02*
X010976Y014434D01*
X010976Y014436D02*
X010425Y014436D01*
X010425Y014439D02*
X010976Y014439D01*
X010976Y014441D02*
X010425Y014441D01*
X010425Y014444D02*
X010976Y014444D01*
X010976Y014446D02*
X010425Y014446D01*
X010425Y014449D02*
X010976Y014449D01*
X010976Y014451D02*
X010425Y014451D01*
X010425Y014454D02*
X010976Y014454D01*
X010976Y014456D02*
X010425Y014456D01*
X010425Y014459D02*
X010976Y014459D01*
X010976Y014461D02*
X010425Y014461D01*
X010425Y014463D02*
X010976Y014463D01*
X010976Y014466D02*
X010425Y014466D01*
X010425Y014468D02*
X010976Y014468D01*
X010976Y014471D02*
X010425Y014471D01*
X010425Y014473D02*
X010976Y014473D01*
X010976Y014476D02*
X010425Y014476D01*
X010425Y014478D02*
X010976Y014478D01*
X010976Y014481D02*
X010425Y014481D01*
X010425Y014483D02*
X010976Y014483D01*
X010976Y014486D02*
X010425Y014486D01*
X010425Y014488D02*
X010976Y014488D01*
X010976Y014491D02*
X010425Y014491D01*
X010425Y014493D02*
X010976Y014493D01*
X010976Y014496D02*
X010425Y014496D01*
X010425Y014498D02*
X010976Y014498D01*
X010976Y014501D02*
X010425Y014501D01*
X010425Y014503D02*
X010976Y014503D01*
X010976Y014506D02*
X010425Y014506D01*
X010425Y014508D02*
X010976Y014508D01*
X010976Y014511D02*
X010425Y014511D01*
X010425Y014513D02*
X010976Y014513D01*
X010976Y014516D02*
X010425Y014516D01*
X010425Y014518D02*
X010976Y014518D01*
X010976Y014521D02*
X010425Y014521D01*
X010425Y014523D02*
X010976Y014523D01*
X010976Y014525D02*
X010425Y014525D01*
X010425Y014528D02*
X010976Y014528D01*
X010976Y014530D02*
X010425Y014530D01*
X010425Y014533D02*
X010976Y014533D01*
X010976Y014535D02*
X010425Y014535D01*
X010425Y014538D02*
X010976Y014538D01*
X010976Y014540D02*
X010425Y014540D01*
X010425Y014543D02*
X010976Y014543D01*
X010976Y014545D02*
X010425Y014545D01*
X010425Y014548D02*
X010976Y014548D01*
X010976Y014550D02*
X010425Y014550D01*
X010425Y014553D02*
X010976Y014553D01*
X010976Y014555D02*
X010425Y014555D01*
X010425Y014558D02*
X010976Y014558D01*
X010976Y014560D02*
X010425Y014560D01*
X010425Y014563D02*
X010976Y014563D01*
X010976Y014565D02*
X010425Y014565D01*
X010425Y014568D02*
X010976Y014568D01*
X010976Y014570D02*
X010425Y014570D01*
X010425Y014573D02*
X010976Y014573D01*
X010976Y014575D02*
X010425Y014575D01*
X010425Y014578D02*
X010976Y014578D01*
X010976Y014580D02*
X010425Y014580D01*
X010425Y014583D02*
X010976Y014583D01*
X010976Y014585D02*
X010425Y014585D01*
X010425Y014587D02*
X010976Y014587D01*
X010976Y014590D02*
X010425Y014590D01*
X010425Y014592D02*
X010976Y014592D01*
X010976Y014595D02*
X010425Y014595D01*
X010425Y014597D02*
X010976Y014597D01*
X010976Y014600D02*
X010425Y014600D01*
X010425Y014602D02*
X010976Y014602D01*
X010976Y014605D02*
X010425Y014605D01*
X010425Y014607D02*
X010976Y014607D01*
X010976Y014610D02*
X010425Y014610D01*
X010425Y014612D02*
X010976Y014612D01*
X010976Y014615D02*
X010425Y014615D01*
X010425Y014617D02*
X010976Y014617D01*
X010976Y014620D02*
X010425Y014620D01*
X010425Y014622D02*
X010976Y014622D01*
X010976Y014625D02*
X010425Y014625D01*
X010425Y014627D02*
X010976Y014627D01*
X010976Y014630D02*
X010425Y014630D01*
X010425Y014632D02*
X010976Y014632D01*
X010976Y014635D02*
X010425Y014635D01*
X010425Y014637D02*
X010976Y014637D01*
X010976Y014640D02*
X010425Y014640D01*
X010425Y014642D02*
X010976Y014642D01*
X010976Y014645D02*
X010425Y014645D01*
X010425Y014647D02*
X010976Y014647D01*
X010976Y014649D02*
X010425Y014649D01*
X010425Y014652D02*
X010976Y014652D01*
X010976Y014654D02*
X010425Y014654D01*
X010425Y014657D02*
X010976Y014657D01*
X010976Y014659D02*
X010425Y014659D01*
X010425Y014662D02*
X010976Y014662D01*
X010976Y014664D02*
X010425Y014664D01*
X010425Y014667D02*
X010976Y014667D01*
X010976Y014669D02*
X010425Y014669D01*
X010425Y014672D02*
X010976Y014672D01*
X010976Y014674D02*
X010425Y014674D01*
X010425Y014677D02*
X010976Y014677D01*
X010976Y014679D02*
X010425Y014679D01*
X010425Y014682D02*
X010976Y014682D01*
X010976Y014684D02*
X010425Y014684D01*
X010425Y014687D02*
X010976Y014687D01*
X010976Y014689D02*
X010425Y014689D01*
X010425Y014692D02*
X010976Y014692D01*
X010976Y014694D02*
X010425Y014694D01*
X010425Y014697D02*
X010976Y014697D01*
X010976Y014699D02*
X010425Y014699D01*
X010425Y014702D02*
X010976Y014702D01*
X010976Y014704D02*
X010425Y014704D01*
X010425Y014707D02*
X010976Y014707D01*
X010976Y014709D02*
X010425Y014709D01*
X010425Y014711D02*
X010976Y014711D01*
X010976Y014714D02*
X010425Y014714D01*
X010425Y014716D02*
X010976Y014716D01*
X010976Y014719D02*
X010425Y014719D01*
X010425Y014721D02*
X010976Y014721D01*
X010976Y014724D02*
X010425Y014724D01*
X010425Y014726D02*
X010976Y014726D01*
X010976Y014729D02*
X010425Y014729D01*
X010425Y014731D02*
X010976Y014731D01*
X010976Y014734D02*
X010425Y014734D01*
X010425Y014736D02*
X010976Y014736D01*
X010976Y014739D02*
X010425Y014739D01*
X010425Y014741D02*
X010976Y014741D01*
X010976Y014744D02*
X010425Y014744D01*
X010425Y014746D02*
X010976Y014746D01*
X010976Y014749D02*
X010425Y014749D01*
X010425Y014751D02*
X010976Y014751D01*
X010976Y014754D02*
X010425Y014754D01*
X010425Y014756D02*
X010976Y014756D01*
X010976Y014759D02*
X010425Y014759D01*
X010425Y014761D02*
X010976Y014761D01*
X010976Y014764D02*
X010425Y014764D01*
X010425Y014766D02*
X010976Y014766D01*
X010976Y014769D02*
X010425Y014769D01*
X010425Y014771D02*
X010976Y014771D01*
X010976Y014774D02*
X010425Y014774D01*
X010425Y014776D02*
X010976Y014776D01*
X010976Y014778D02*
X010425Y014778D01*
X010425Y014781D02*
X010976Y014781D01*
X010976Y014783D02*
X010425Y014783D01*
X010425Y014786D02*
X010976Y014786D01*
X010976Y014788D02*
X010425Y014788D01*
X010425Y014791D02*
X010976Y014791D01*
X010976Y014793D02*
X010425Y014793D01*
X010425Y014796D02*
X010976Y014796D01*
X010976Y014798D02*
X010425Y014798D01*
X010425Y014801D02*
X010976Y014801D01*
X010976Y014803D02*
X010425Y014803D01*
X010425Y014806D02*
X010976Y014806D01*
X010976Y014808D02*
X010425Y014808D01*
X010425Y014811D02*
X010976Y014811D01*
X010976Y014813D02*
X010425Y014813D01*
X010425Y014816D02*
X010976Y014816D01*
X010976Y014818D02*
X010425Y014818D01*
X010425Y014821D02*
X010976Y014821D01*
X010976Y014823D02*
X010425Y014823D01*
X010425Y014826D02*
X010976Y014826D01*
X010976Y014828D02*
X010425Y014828D01*
X010425Y014831D02*
X010976Y014831D01*
X010976Y014833D02*
X010425Y014833D01*
X010425Y014836D02*
X010976Y014836D01*
X010976Y014838D02*
X010425Y014838D01*
X010425Y014840D02*
X010976Y014840D01*
X010976Y014843D02*
X010425Y014843D01*
X010425Y014845D02*
X010976Y014845D01*
X010976Y014848D02*
X010425Y014848D01*
X010425Y014850D02*
X010976Y014850D01*
X010976Y014853D02*
X010425Y014853D01*
X010425Y014855D02*
X010976Y014855D01*
X010976Y014858D02*
X010425Y014858D01*
X010425Y014860D02*
X010976Y014860D01*
X010976Y014863D02*
X010425Y014863D01*
X010425Y014865D02*
X010976Y014865D01*
X010976Y014868D02*
X010425Y014868D01*
X010425Y014870D02*
X010976Y014870D01*
X010976Y014873D02*
X010425Y014873D01*
X010425Y014875D02*
X010976Y014875D01*
X010976Y014878D02*
X010425Y014878D01*
X010425Y014880D02*
X010976Y014880D01*
X010976Y014883D02*
X010425Y014883D01*
X010425Y014885D02*
X010976Y014885D01*
X010976Y014888D02*
X010425Y014888D01*
X010425Y014890D02*
X010976Y014890D01*
X010976Y014893D02*
X010425Y014893D01*
X010425Y014895D02*
X010977Y014895D01*
X010980Y014898D02*
X010425Y014898D01*
X010425Y014900D02*
X010982Y014900D01*
X010985Y014902D02*
X010425Y014902D01*
X010425Y014905D02*
X010987Y014905D01*
X010990Y014907D02*
X010425Y014907D01*
X010425Y014910D02*
X010992Y014910D01*
X010995Y014912D02*
X010425Y014912D01*
X010425Y014915D02*
X010997Y014915D01*
X011000Y014917D02*
X010425Y014917D01*
X010425Y014920D02*
X011002Y014920D01*
X011005Y014922D02*
X010425Y014922D01*
X010425Y014925D02*
X011007Y014925D01*
X011009Y014927D02*
X010425Y014927D01*
X010425Y014930D02*
X011012Y014930D01*
X011014Y014932D02*
X010425Y014932D01*
X010425Y014935D02*
X011017Y014935D01*
X011019Y014937D02*
X010425Y014937D01*
X010425Y014940D02*
X011022Y014940D01*
X011024Y014942D02*
X010425Y014942D01*
X010425Y014945D02*
X011027Y014945D01*
X011029Y014947D02*
X010425Y014947D01*
X010425Y014950D02*
X011032Y014950D01*
X011034Y014952D02*
X010425Y014952D01*
X010425Y014955D02*
X011037Y014955D01*
X011039Y014957D02*
X010425Y014957D01*
X010425Y014960D02*
X011042Y014960D01*
X011044Y014962D02*
X010425Y014962D01*
X010425Y014964D02*
X011047Y014964D01*
X011049Y014967D02*
X010425Y014967D01*
X010425Y014969D02*
X011052Y014969D01*
X011054Y014972D02*
X010425Y014972D01*
X010425Y014974D02*
X011057Y014974D01*
X011059Y014977D02*
X010425Y014977D01*
X010425Y014979D02*
X011062Y014979D01*
X011064Y014982D02*
X010425Y014982D01*
X010425Y014984D02*
X011067Y014984D01*
X011069Y014987D02*
X010425Y014987D01*
X010425Y014989D02*
X011071Y014989D01*
X011074Y014992D02*
X010425Y014992D01*
X010693Y013248D02*
X012007Y013248D01*
X012005Y013246D02*
X010696Y013246D01*
X010698Y013243D02*
X012003Y013243D01*
X012000Y013241D02*
X010701Y013241D01*
X010703Y013238D02*
X011998Y013238D01*
X011995Y013236D02*
X010706Y013236D01*
X010708Y013233D02*
X011993Y013233D01*
X011990Y013231D02*
X010711Y013231D01*
X010713Y013228D02*
X011988Y013228D01*
X011985Y013226D02*
X010716Y013226D01*
X010718Y013223D02*
X011983Y013223D01*
X011980Y013221D02*
X010721Y013221D01*
X010723Y013218D02*
X011978Y013218D01*
X011975Y013216D02*
X010726Y013216D01*
X010728Y013213D02*
X011973Y013213D01*
X011970Y013211D02*
X010731Y013211D01*
X010733Y013208D02*
X011968Y013208D01*
X011965Y013206D02*
X010735Y013206D01*
X010738Y013203D02*
X011963Y013203D01*
X011960Y013201D02*
X010740Y013201D01*
X010743Y013199D02*
X011958Y013199D01*
X011955Y013196D02*
X010745Y013196D01*
X010748Y013194D02*
X011953Y013194D01*
X011950Y013191D02*
X010750Y013191D01*
X010753Y013189D02*
X011948Y013189D01*
X011945Y013186D02*
X010755Y013186D01*
X010758Y013184D02*
X011943Y013184D01*
X011941Y013181D02*
X010760Y013181D01*
X010763Y013179D02*
X011938Y013179D01*
X011936Y013176D02*
X010765Y013176D01*
X010768Y013174D02*
X011933Y013174D01*
X011931Y013171D02*
X010770Y013171D01*
X010773Y013169D02*
X011928Y013169D01*
X011926Y013166D02*
X010775Y013166D01*
X010778Y013164D02*
X011923Y013164D01*
X011921Y013161D02*
X010780Y013161D01*
X010783Y013159D02*
X011918Y013159D01*
X011916Y013156D02*
X010785Y013156D01*
X010788Y013154D02*
X011913Y013154D01*
X011911Y013151D02*
X010790Y013151D01*
X010793Y013149D02*
X011908Y013149D01*
X011906Y013146D02*
X010795Y013146D01*
X010797Y013144D02*
X011903Y013144D01*
X011901Y013141D02*
X010800Y013141D01*
X010802Y013139D02*
X011898Y013139D01*
X011896Y013136D02*
X010805Y013136D01*
X010807Y013134D02*
X011893Y013134D01*
X011891Y013132D02*
X010810Y013132D01*
X010812Y013129D02*
X011888Y013129D01*
X011886Y013127D02*
X010815Y013127D01*
X010817Y013124D02*
X011883Y013124D01*
X011881Y013122D02*
X010820Y013122D01*
X010822Y013119D02*
X011879Y013119D01*
X011876Y013117D02*
X010825Y013117D01*
X010827Y013114D02*
X011874Y013114D01*
X011871Y013112D02*
X010830Y013112D01*
X010832Y013109D02*
X011869Y013109D01*
X011866Y013107D02*
X010835Y013107D01*
X010837Y013104D02*
X011864Y013104D01*
D19*
X007039Y011548D02*
X006882Y011804D01*
X006724Y011548D01*
X007039Y011548D01*
X007034Y011557D02*
X006730Y011557D01*
X006753Y011595D02*
X007010Y011595D01*
X006987Y011633D02*
X006777Y011633D01*
X006800Y011671D02*
X006964Y011671D01*
X006940Y011709D02*
X006823Y011709D01*
X006847Y011746D02*
X006917Y011746D01*
X006894Y011784D02*
X006870Y011784D01*
X005228Y011469D02*
X005071Y011725D01*
X004913Y011469D01*
X005228Y011469D01*
X005221Y011481D02*
X004921Y011481D01*
X004944Y011519D02*
X005198Y011519D01*
X005174Y011557D02*
X004968Y011557D01*
X004991Y011595D02*
X005151Y011595D01*
X005128Y011633D02*
X005014Y011633D01*
X005037Y011671D02*
X005104Y011671D01*
X005081Y011709D02*
X005061Y011709D01*
D20*
X004894Y011745D02*
X005248Y011745D01*
X006705Y011823D02*
X007059Y011823D01*
M02*
