G75*
G70*
%OFA0B0*%
%FSLAX24Y24*%
%IPPOS*%
%LPD*%
%AMOC8*
5,1,8,0,0,1.08239X$1,22.5*
%
%ADD10C,0.0946*%
%ADD11R,0.0198X0.0710*%
%ADD12R,0.0513X0.0474*%
%ADD13R,0.0631X0.0710*%
%ADD14R,0.0395X0.0395*%
%ADD15R,0.1180X0.0370*%
%ADD16C,0.0552*%
%ADD17R,0.0480X0.0480*%
%ADD18C,0.0480*%
%ADD19R,0.0379X0.0580*%
%ADD20R,0.1230X0.0580*%
%ADD21R,0.0730X0.1430*%
%ADD22R,0.0552X0.0552*%
%ADD23R,0.0407X0.0328*%
%ADD24C,0.0671*%
D10*
X007787Y001311D03*
X015661Y001311D03*
X015661Y017060D03*
X007787Y017060D03*
D11*
G36*
X009322Y011251D02*
X009512Y011200D01*
X009328Y010515D01*
X009138Y010566D01*
X009322Y011251D01*
G37*
G36*
X009512Y011200D02*
X009702Y011149D01*
X009518Y010464D01*
X009328Y010515D01*
X009512Y011200D01*
G37*
G36*
X009702Y011149D02*
X009892Y011098D01*
X009708Y010413D01*
X009518Y010464D01*
X009702Y011149D01*
G37*
G36*
X009892Y011098D02*
X010082Y011047D01*
X009898Y010362D01*
X009708Y010413D01*
X009892Y011098D01*
G37*
G36*
X010082Y011047D02*
X010272Y010996D01*
X010088Y010311D01*
X009898Y010362D01*
X010082Y011047D01*
G37*
G36*
X010272Y010996D02*
X010462Y010945D01*
X010278Y010260D01*
X010088Y010311D01*
X010272Y010996D01*
G37*
G36*
X010462Y010945D02*
X010652Y010894D01*
X010468Y010209D01*
X010278Y010260D01*
X010462Y010945D01*
G37*
G36*
X010653Y010894D02*
X010843Y010843D01*
X010659Y010158D01*
X010469Y010209D01*
X010653Y010894D01*
G37*
G36*
X010843Y010843D02*
X011033Y010792D01*
X010849Y010107D01*
X010659Y010158D01*
X010843Y010843D01*
G37*
G36*
X011033Y010792D02*
X011223Y010741D01*
X011039Y010056D01*
X010849Y010107D01*
X011033Y010792D01*
G37*
G36*
X011223Y010741D02*
X011413Y010690D01*
X011229Y010005D01*
X011039Y010056D01*
X011223Y010741D01*
G37*
G36*
X011413Y010690D02*
X011603Y010639D01*
X011419Y009954D01*
X011229Y010005D01*
X011413Y010690D01*
G37*
G36*
X011603Y010639D02*
X011793Y010588D01*
X011609Y009903D01*
X011419Y009954D01*
X011603Y010639D01*
G37*
G36*
X011793Y010588D02*
X011983Y010537D01*
X011799Y009852D01*
X011609Y009903D01*
X011793Y010588D01*
G37*
G36*
X011984Y010537D02*
X012174Y010486D01*
X011990Y009801D01*
X011800Y009852D01*
X011984Y010537D01*
G37*
G36*
X012174Y010486D02*
X012364Y010435D01*
X012180Y009750D01*
X011990Y009801D01*
X012174Y010486D01*
G37*
G36*
X012364Y010435D02*
X012554Y010384D01*
X012370Y009699D01*
X012180Y009750D01*
X012364Y010435D01*
G37*
G36*
X012554Y010384D02*
X012744Y010333D01*
X012560Y009648D01*
X012370Y009699D01*
X012554Y010384D01*
G37*
G36*
X012744Y010333D02*
X012934Y010282D01*
X012750Y009597D01*
X012560Y009648D01*
X012744Y010333D01*
G37*
G36*
X012934Y010282D02*
X013124Y010231D01*
X012940Y009546D01*
X012750Y009597D01*
X012934Y010282D01*
G37*
G36*
X013820Y009025D02*
X013769Y008835D01*
X013084Y009019D01*
X013135Y009209D01*
X013820Y009025D01*
G37*
G36*
X013769Y008835D02*
X013718Y008645D01*
X013033Y008829D01*
X013084Y009019D01*
X013769Y008835D01*
G37*
G36*
X013718Y008645D02*
X013667Y008455D01*
X012982Y008639D01*
X013033Y008829D01*
X013718Y008645D01*
G37*
G36*
X013667Y008455D02*
X013616Y008265D01*
X012931Y008449D01*
X012982Y008639D01*
X013667Y008455D01*
G37*
G36*
X013617Y008265D02*
X013566Y008075D01*
X012881Y008259D01*
X012932Y008449D01*
X013617Y008265D01*
G37*
G36*
X013566Y008075D02*
X013515Y007885D01*
X012830Y008069D01*
X012881Y008259D01*
X013566Y008075D01*
G37*
G36*
X013515Y007885D02*
X013464Y007695D01*
X012779Y007879D01*
X012830Y008069D01*
X013515Y007885D01*
G37*
G36*
X013464Y007694D02*
X013413Y007504D01*
X012728Y007688D01*
X012779Y007878D01*
X013464Y007694D01*
G37*
G36*
X013413Y007504D02*
X013362Y007314D01*
X012677Y007498D01*
X012728Y007688D01*
X013413Y007504D01*
G37*
G36*
X013362Y007314D02*
X013311Y007124D01*
X012626Y007308D01*
X012677Y007498D01*
X013362Y007314D01*
G37*
G36*
X013311Y007124D02*
X013260Y006934D01*
X012575Y007118D01*
X012626Y007308D01*
X013311Y007124D01*
G37*
G36*
X013260Y006934D02*
X013209Y006744D01*
X012524Y006928D01*
X012575Y007118D01*
X013260Y006934D01*
G37*
G36*
X013209Y006744D02*
X013158Y006554D01*
X012473Y006738D01*
X012524Y006928D01*
X013209Y006744D01*
G37*
G36*
X013158Y006554D02*
X013107Y006364D01*
X012422Y006548D01*
X012473Y006738D01*
X013158Y006554D01*
G37*
G36*
X013107Y006363D02*
X013056Y006173D01*
X012371Y006357D01*
X012422Y006547D01*
X013107Y006363D01*
G37*
G36*
X013056Y006173D02*
X013005Y005983D01*
X012320Y006167D01*
X012371Y006357D01*
X013056Y006173D01*
G37*
G36*
X013005Y005983D02*
X012954Y005793D01*
X012269Y005977D01*
X012320Y006167D01*
X013005Y005983D01*
G37*
G36*
X012954Y005793D02*
X012903Y005603D01*
X012218Y005787D01*
X012269Y005977D01*
X012954Y005793D01*
G37*
G36*
X012903Y005603D02*
X012852Y005413D01*
X012167Y005597D01*
X012218Y005787D01*
X012903Y005603D01*
G37*
G36*
X012852Y005413D02*
X012801Y005223D01*
X012116Y005407D01*
X012167Y005597D01*
X012852Y005413D01*
G37*
G36*
X011595Y004527D02*
X011405Y004578D01*
X011589Y005263D01*
X011779Y005212D01*
X011595Y004527D01*
G37*
G36*
X011405Y004578D02*
X011215Y004629D01*
X011399Y005314D01*
X011589Y005263D01*
X011405Y004578D01*
G37*
G36*
X011215Y004629D02*
X011025Y004680D01*
X011209Y005365D01*
X011399Y005314D01*
X011215Y004629D01*
G37*
G36*
X011025Y004680D02*
X010835Y004731D01*
X011019Y005416D01*
X011209Y005365D01*
X011025Y004680D01*
G37*
G36*
X010835Y004731D02*
X010645Y004782D01*
X010829Y005467D01*
X011019Y005416D01*
X010835Y004731D01*
G37*
G36*
X010645Y004781D02*
X010455Y004832D01*
X010639Y005517D01*
X010829Y005466D01*
X010645Y004781D01*
G37*
G36*
X010454Y004832D02*
X010264Y004883D01*
X010448Y005568D01*
X010638Y005517D01*
X010454Y004832D01*
G37*
G36*
X010264Y004883D02*
X010074Y004934D01*
X010258Y005619D01*
X010448Y005568D01*
X010264Y004883D01*
G37*
G36*
X010074Y004934D02*
X009884Y004985D01*
X010068Y005670D01*
X010258Y005619D01*
X010074Y004934D01*
G37*
G36*
X009884Y004985D02*
X009694Y005036D01*
X009878Y005721D01*
X010068Y005670D01*
X009884Y004985D01*
G37*
G36*
X009694Y005036D02*
X009504Y005087D01*
X009688Y005772D01*
X009878Y005721D01*
X009694Y005036D01*
G37*
G36*
X009504Y005087D02*
X009314Y005138D01*
X009498Y005823D01*
X009688Y005772D01*
X009504Y005087D01*
G37*
G36*
X009314Y005138D02*
X009124Y005189D01*
X009308Y005874D01*
X009498Y005823D01*
X009314Y005138D01*
G37*
G36*
X009123Y005189D02*
X008933Y005240D01*
X009117Y005925D01*
X009307Y005874D01*
X009123Y005189D01*
G37*
G36*
X008933Y005240D02*
X008743Y005291D01*
X008927Y005976D01*
X009117Y005925D01*
X008933Y005240D01*
G37*
G36*
X008743Y005291D02*
X008553Y005342D01*
X008737Y006027D01*
X008927Y005976D01*
X008743Y005291D01*
G37*
G36*
X008553Y005342D02*
X008363Y005393D01*
X008547Y006078D01*
X008737Y006027D01*
X008553Y005342D01*
G37*
G36*
X008363Y005393D02*
X008173Y005444D01*
X008357Y006129D01*
X008547Y006078D01*
X008363Y005393D01*
G37*
G36*
X008173Y005444D02*
X007983Y005495D01*
X008167Y006180D01*
X008357Y006129D01*
X008173Y005444D01*
G37*
G36*
X007983Y005495D02*
X007793Y005546D01*
X007977Y006231D01*
X008167Y006180D01*
X007983Y005495D01*
G37*
G36*
X007097Y006752D02*
X007148Y006942D01*
X007833Y006758D01*
X007782Y006568D01*
X007097Y006752D01*
G37*
G36*
X007148Y006942D02*
X007199Y007132D01*
X007884Y006948D01*
X007833Y006758D01*
X007148Y006942D01*
G37*
G36*
X007198Y007132D02*
X007249Y007322D01*
X007934Y007138D01*
X007883Y006948D01*
X007198Y007132D01*
G37*
G36*
X007249Y007322D02*
X007300Y007512D01*
X007985Y007328D01*
X007934Y007138D01*
X007249Y007322D01*
G37*
G36*
X007300Y007512D02*
X007351Y007702D01*
X008036Y007518D01*
X007985Y007328D01*
X007300Y007512D01*
G37*
G36*
X007351Y007702D02*
X007402Y007892D01*
X008087Y007708D01*
X008036Y007518D01*
X007351Y007702D01*
G37*
G36*
X007402Y007893D02*
X007453Y008083D01*
X008138Y007899D01*
X008087Y007709D01*
X007402Y007893D01*
G37*
G36*
X007453Y008083D02*
X007504Y008273D01*
X008189Y008089D01*
X008138Y007899D01*
X007453Y008083D01*
G37*
G36*
X007504Y008273D02*
X007555Y008463D01*
X008240Y008279D01*
X008189Y008089D01*
X007504Y008273D01*
G37*
G36*
X007555Y008463D02*
X007606Y008653D01*
X008291Y008469D01*
X008240Y008279D01*
X007555Y008463D01*
G37*
G36*
X007606Y008653D02*
X007657Y008843D01*
X008342Y008659D01*
X008291Y008469D01*
X007606Y008653D01*
G37*
G36*
X007657Y008843D02*
X007708Y009033D01*
X008393Y008849D01*
X008342Y008659D01*
X007657Y008843D01*
G37*
G36*
X007708Y009033D02*
X007759Y009223D01*
X008444Y009039D01*
X008393Y008849D01*
X007708Y009033D01*
G37*
G36*
X007759Y009224D02*
X007810Y009414D01*
X008495Y009230D01*
X008444Y009040D01*
X007759Y009224D01*
G37*
G36*
X007810Y009414D02*
X007861Y009604D01*
X008546Y009420D01*
X008495Y009230D01*
X007810Y009414D01*
G37*
G36*
X007861Y009604D02*
X007912Y009794D01*
X008597Y009610D01*
X008546Y009420D01*
X007861Y009604D01*
G37*
G36*
X007912Y009794D02*
X007963Y009984D01*
X008648Y009800D01*
X008597Y009610D01*
X007912Y009794D01*
G37*
G36*
X007963Y009984D02*
X008014Y010174D01*
X008699Y009990D01*
X008648Y009800D01*
X007963Y009984D01*
G37*
G36*
X008014Y010174D02*
X008065Y010364D01*
X008750Y010180D01*
X008699Y009990D01*
X008014Y010174D01*
G37*
G36*
X008065Y010364D02*
X008116Y010554D01*
X008801Y010370D01*
X008750Y010180D01*
X008065Y010364D01*
G37*
D12*
G36*
X007248Y009965D02*
X007381Y010458D01*
X007838Y010335D01*
X007705Y009842D01*
X007248Y009965D01*
G37*
G36*
X007075Y009318D02*
X007208Y009811D01*
X007665Y009688D01*
X007532Y009195D01*
X007075Y009318D01*
G37*
X006646Y009382D03*
X006646Y008890D03*
X006646Y008398D03*
X006646Y007906D03*
X006744Y007414D03*
X006646Y006922D03*
X006941Y006430D03*
X006941Y005937D03*
X006941Y005445D03*
X006941Y004953D03*
X006941Y004461D03*
X006941Y003969D03*
X006941Y003477D03*
X006272Y003477D03*
X006272Y003969D03*
X006272Y004461D03*
X006272Y004953D03*
X006272Y005445D03*
X006272Y005937D03*
X006272Y006430D03*
X005976Y006922D03*
X006075Y007414D03*
X005976Y007906D03*
X005976Y008398D03*
X005976Y008890D03*
X005976Y009382D03*
X005701Y011292D03*
X006252Y011292D03*
X006252Y011961D03*
X005701Y011961D03*
G36*
X011494Y010807D02*
X011001Y010940D01*
X011124Y011397D01*
X011617Y011264D01*
X011494Y010807D01*
G37*
G36*
X012140Y010634D02*
X011647Y010767D01*
X011770Y011224D01*
X012263Y011091D01*
X012140Y010634D01*
G37*
G36*
X012273Y011137D02*
X011780Y011270D01*
X011903Y011727D01*
X012396Y011594D01*
X012273Y011137D01*
G37*
G36*
X011627Y011310D02*
X011134Y011443D01*
X011257Y011900D01*
X011750Y011767D01*
X011627Y011310D01*
G37*
G36*
X009784Y004951D02*
X010277Y004818D01*
X010154Y004361D01*
X009661Y004494D01*
X009784Y004951D01*
G37*
G36*
X010430Y004778D02*
X010923Y004645D01*
X010800Y004188D01*
X010307Y004321D01*
X010430Y004778D01*
G37*
D13*
X014283Y009894D03*
X016055Y009894D03*
X016055Y013201D03*
X014283Y013201D03*
D14*
X014382Y014599D03*
X014382Y015189D03*
X015760Y015189D03*
X015760Y014599D03*
X011528Y003851D03*
X011528Y003260D03*
X009657Y003260D03*
X009657Y003851D03*
D15*
X014350Y003650D03*
X014350Y004150D03*
X014350Y004650D03*
X014350Y005150D03*
X014350Y005650D03*
X014350Y006150D03*
X014350Y006650D03*
X015950Y006650D03*
X015950Y006150D03*
X015950Y005150D03*
X015950Y004650D03*
X015950Y004150D03*
X015950Y003650D03*
D16*
X004244Y002493D03*
X004244Y003280D03*
X004244Y004067D03*
X004244Y004855D03*
X004244Y005642D03*
X004244Y006430D03*
X004244Y007217D03*
X004244Y008004D03*
X004244Y008792D03*
X004244Y009579D03*
X005228Y009579D03*
X005228Y008792D03*
X005228Y008004D03*
X005228Y007217D03*
X005228Y006430D03*
X005228Y005642D03*
X005228Y004855D03*
X005228Y004067D03*
X005228Y003280D03*
X005228Y002493D03*
X002472Y013123D03*
X002472Y013910D03*
X002472Y014697D03*
X001685Y014697D03*
X001685Y013910D03*
D17*
X009474Y017060D03*
X009474Y001311D03*
D18*
X009974Y001311D03*
X010474Y001311D03*
X010974Y001311D03*
X011474Y001311D03*
X011974Y001311D03*
X012474Y001311D03*
X012974Y001311D03*
X013474Y001311D03*
X013974Y001311D03*
X013974Y017060D03*
X013474Y017060D03*
X012974Y017060D03*
X012474Y017060D03*
X011974Y017060D03*
X011474Y017060D03*
X010974Y017060D03*
X010474Y017060D03*
X009974Y017060D03*
D19*
X008431Y015410D03*
X007931Y015410D03*
X007931Y012410D03*
X008431Y012410D03*
D20*
X006252Y012729D03*
X006252Y013910D03*
X006252Y015091D03*
X004429Y015091D03*
X004429Y013910D03*
X004429Y012729D03*
D21*
X002276Y011200D03*
X002276Y016620D03*
D22*
X001685Y013123D03*
D23*
X005071Y011987D03*
X005071Y011109D03*
X006882Y011187D03*
X006882Y012065D03*
D24*
X009504Y002524D03*
X010504Y002524D03*
X011504Y002524D03*
X012504Y002524D03*
M02*
