G75*
G70*
%OFA0B0*%
%FSLAX24Y24*%
%IPPOS*%
%LPD*%
%AMOC8*
5,1,8,0,0,1.08239X$1,22.5*
%
%ADD10C,0.0050*%
%ADD11C,0.0098*%
%ADD12C,0.0150*%
%ADD13C,0.0100*%
%ADD14C,0.0040*%
%ADD15R,0.0059X0.0118*%
%ADD16R,0.0118X0.0118*%
%ADD17C,0.0004*%
D10*
X022595Y010058D02*
X022597Y010085D01*
X022603Y010112D01*
X022612Y010138D01*
X022625Y010162D01*
X022641Y010185D01*
X022660Y010204D01*
X022682Y010221D01*
X022706Y010235D01*
X022731Y010245D01*
X022758Y010252D01*
X022785Y010255D01*
X022813Y010254D01*
X022840Y010249D01*
X022866Y010241D01*
X022890Y010229D01*
X022913Y010213D01*
X022934Y010195D01*
X022951Y010174D01*
X022966Y010150D01*
X022977Y010125D01*
X022985Y010099D01*
X022989Y010072D01*
X022989Y010044D01*
X022985Y010017D01*
X022977Y009991D01*
X022966Y009966D01*
X022951Y009942D01*
X022934Y009921D01*
X022913Y009903D01*
X022891Y009887D01*
X022866Y009875D01*
X022840Y009867D01*
X022813Y009862D01*
X022785Y009861D01*
X022758Y009864D01*
X022731Y009871D01*
X022706Y009881D01*
X022682Y009895D01*
X022660Y009912D01*
X022641Y009931D01*
X022625Y009954D01*
X022612Y009978D01*
X022603Y010004D01*
X022597Y010031D01*
X022595Y010058D01*
X027796Y013992D02*
X027796Y014107D01*
X027853Y014164D01*
X028083Y013935D01*
X028140Y013992D01*
X028140Y014107D01*
X028083Y014164D01*
X027853Y014164D01*
X027796Y013992D02*
X027853Y013935D01*
X028083Y013935D01*
X029213Y014109D02*
X029557Y014109D01*
X029557Y014223D02*
X029557Y013994D01*
X029328Y013994D02*
X029213Y014109D01*
X027313Y003246D02*
X027423Y003216D01*
X027368Y003231D02*
X027294Y002954D01*
X027224Y002914D01*
X027168Y002929D01*
X027128Y002999D01*
X027552Y003182D02*
X027773Y003122D01*
X027663Y003152D02*
X027574Y002820D01*
X027813Y002756D02*
X027872Y002977D01*
X028013Y003058D01*
X028094Y002918D01*
X028034Y002696D01*
X028178Y002717D02*
X028237Y002939D01*
X028308Y002979D01*
X028418Y002950D01*
X028459Y002879D01*
X028429Y002769D02*
X028318Y002798D01*
X028429Y002769D02*
X028399Y002658D01*
X028329Y002617D01*
X028219Y002647D01*
X028178Y002717D01*
X028079Y002862D02*
X027858Y002922D01*
D11*
X027377Y014894D02*
X027379Y014942D01*
X027385Y014990D01*
X027395Y015037D01*
X027408Y015083D01*
X027426Y015128D01*
X027446Y015172D01*
X027471Y015214D01*
X027499Y015253D01*
X027529Y015290D01*
X027563Y015324D01*
X027600Y015356D01*
X027638Y015385D01*
X027679Y015410D01*
X027722Y015432D01*
X027767Y015450D01*
X027813Y015464D01*
X027860Y015475D01*
X027908Y015482D01*
X027956Y015485D01*
X028004Y015484D01*
X028052Y015479D01*
X028100Y015470D01*
X028146Y015458D01*
X028191Y015441D01*
X028235Y015421D01*
X028277Y015398D01*
X028317Y015371D01*
X028355Y015341D01*
X028390Y015308D01*
X028422Y015272D01*
X028452Y015234D01*
X028478Y015193D01*
X028500Y015150D01*
X028520Y015106D01*
X028535Y015061D01*
X028547Y015014D01*
X028555Y014966D01*
X028559Y014918D01*
X028559Y014870D01*
X028555Y014822D01*
X028547Y014774D01*
X028535Y014727D01*
X028520Y014682D01*
X028500Y014638D01*
X028478Y014595D01*
X028452Y014554D01*
X028422Y014516D01*
X028390Y014480D01*
X028355Y014447D01*
X028317Y014417D01*
X028277Y014390D01*
X028235Y014367D01*
X028191Y014347D01*
X028146Y014330D01*
X028100Y014318D01*
X028052Y014309D01*
X028004Y014304D01*
X027956Y014303D01*
X027908Y014306D01*
X027860Y014313D01*
X027813Y014324D01*
X027767Y014338D01*
X027722Y014356D01*
X027679Y014378D01*
X027638Y014403D01*
X027600Y014432D01*
X027563Y014464D01*
X027529Y014498D01*
X027499Y014535D01*
X027471Y014574D01*
X027446Y014616D01*
X027426Y014660D01*
X027408Y014705D01*
X027395Y014751D01*
X027385Y014798D01*
X027379Y014846D01*
X027377Y014894D01*
X028755Y014894D02*
X028757Y014942D01*
X028763Y014990D01*
X028773Y015037D01*
X028786Y015083D01*
X028804Y015128D01*
X028824Y015172D01*
X028849Y015214D01*
X028877Y015253D01*
X028907Y015290D01*
X028941Y015324D01*
X028978Y015356D01*
X029016Y015385D01*
X029057Y015410D01*
X029100Y015432D01*
X029145Y015450D01*
X029191Y015464D01*
X029238Y015475D01*
X029286Y015482D01*
X029334Y015485D01*
X029382Y015484D01*
X029430Y015479D01*
X029478Y015470D01*
X029524Y015458D01*
X029569Y015441D01*
X029613Y015421D01*
X029655Y015398D01*
X029695Y015371D01*
X029733Y015341D01*
X029768Y015308D01*
X029800Y015272D01*
X029830Y015234D01*
X029856Y015193D01*
X029878Y015150D01*
X029898Y015106D01*
X029913Y015061D01*
X029925Y015014D01*
X029933Y014966D01*
X029937Y014918D01*
X029937Y014870D01*
X029933Y014822D01*
X029925Y014774D01*
X029913Y014727D01*
X029898Y014682D01*
X029878Y014638D01*
X029856Y014595D01*
X029830Y014554D01*
X029800Y014516D01*
X029768Y014480D01*
X029733Y014447D01*
X029695Y014417D01*
X029655Y014390D01*
X029613Y014367D01*
X029569Y014347D01*
X029524Y014330D01*
X029478Y014318D01*
X029430Y014309D01*
X029382Y014304D01*
X029334Y014303D01*
X029286Y014306D01*
X029238Y014313D01*
X029191Y014324D01*
X029145Y014338D01*
X029100Y014356D01*
X029057Y014378D01*
X029016Y014403D01*
X028978Y014432D01*
X028941Y014464D01*
X028907Y014498D01*
X028877Y014535D01*
X028849Y014574D01*
X028824Y014616D01*
X028804Y014660D01*
X028786Y014705D01*
X028773Y014751D01*
X028763Y014798D01*
X028757Y014846D01*
X028755Y014894D01*
D12*
X018995Y016741D02*
X018995Y017576D01*
X018438Y017576D02*
X018995Y016741D01*
X018438Y016741D02*
X018438Y017576D01*
X018089Y017297D02*
X018089Y016741D01*
X017532Y016741D02*
X017532Y017297D01*
X017810Y017576D01*
X018089Y017297D01*
X018089Y017158D02*
X017532Y017158D01*
X017182Y016880D02*
X017043Y016741D01*
X016765Y016741D01*
X016626Y016880D01*
X016626Y017437D01*
X016765Y017576D01*
X017043Y017576D01*
X017182Y017437D01*
D13*
X014927Y000771D02*
X015026Y000673D01*
X015222Y000673D01*
X015320Y000771D01*
X015320Y000869D01*
X015222Y000967D01*
X015026Y000967D01*
X014927Y001065D01*
X014927Y001164D01*
X015026Y001262D01*
X015222Y001262D01*
X015320Y001164D01*
X015562Y001262D02*
X015562Y000673D01*
X015955Y000673D01*
X016196Y000673D02*
X016196Y001262D01*
X016589Y000673D01*
X016589Y001262D01*
X016831Y001164D02*
X016831Y001065D01*
X016929Y000967D01*
X017125Y000967D01*
X017224Y000869D01*
X017224Y000771D01*
X017125Y000673D01*
X016929Y000673D01*
X016831Y000771D01*
X016831Y001164D02*
X016929Y001262D01*
X017125Y001262D01*
X017224Y001164D01*
X017465Y001164D02*
X017465Y000771D01*
X017563Y000673D01*
X017760Y000673D01*
X017858Y000771D01*
X017858Y001164D01*
X017760Y001262D01*
X017563Y001262D01*
X017465Y001164D01*
X018099Y001262D02*
X018099Y000673D01*
X018099Y000869D02*
X018394Y000869D01*
X018492Y000967D01*
X018492Y001164D01*
X018394Y001262D01*
X018099Y001262D01*
X018296Y000869D02*
X018492Y000673D01*
X018734Y000771D02*
X018832Y000673D01*
X019028Y000673D01*
X019127Y000771D01*
X019127Y000869D01*
X019028Y000967D01*
X018832Y000967D01*
X018734Y001065D01*
X018734Y001164D01*
X018832Y001262D01*
X019028Y001262D01*
X019127Y001164D01*
X015955Y001262D02*
X015562Y001262D01*
X015562Y000967D02*
X015758Y000967D01*
D14*
X022814Y003090D02*
X022984Y003090D01*
X022899Y003005D02*
X022899Y003175D01*
X022856Y003277D02*
X022771Y003362D01*
X023027Y003362D01*
X023027Y003277D02*
X023027Y003447D01*
X023027Y003548D02*
X022856Y003719D01*
X022814Y003719D01*
X022771Y003676D01*
X022771Y003591D01*
X022814Y003548D01*
X023027Y003548D02*
X023027Y003719D01*
X022942Y003820D02*
X022771Y003820D01*
X022771Y003991D02*
X022942Y003991D01*
X023027Y003905D01*
X022942Y003820D01*
X023952Y003719D02*
X024123Y003719D01*
X024208Y003634D01*
X024123Y003548D01*
X023952Y003548D01*
X023952Y003447D02*
X023952Y003277D01*
X024080Y003277D01*
X024038Y003362D01*
X024038Y003404D01*
X024080Y003447D01*
X024165Y003447D01*
X024208Y003404D01*
X024208Y003319D01*
X024165Y003277D01*
X024080Y003175D02*
X024080Y003005D01*
X023995Y003090D02*
X024165Y003090D01*
X024684Y003090D02*
X024854Y003090D01*
X024769Y003005D02*
X024769Y003175D01*
X024684Y003277D02*
X024641Y003319D01*
X024641Y003404D01*
X024684Y003447D01*
X024727Y003447D01*
X024769Y003404D01*
X024812Y003447D01*
X024854Y003447D01*
X024897Y003404D01*
X024897Y003319D01*
X024854Y003277D01*
X024769Y003362D02*
X024769Y003404D01*
X024812Y003548D02*
X024641Y003548D01*
X024812Y003548D02*
X024897Y003634D01*
X024812Y003719D01*
X024641Y003719D01*
X024684Y003820D02*
X024641Y003863D01*
X024641Y003948D01*
X024684Y003991D01*
X024727Y003991D01*
X024769Y003948D01*
X024812Y003991D01*
X024854Y003991D01*
X024897Y003948D01*
X024897Y003863D01*
X024854Y003820D01*
X024769Y003905D02*
X024769Y003948D01*
X025921Y003775D02*
X025921Y003647D01*
X026176Y003647D01*
X026176Y003775D01*
X026134Y003817D01*
X025964Y003817D01*
X025921Y003775D01*
X025921Y003545D02*
X026176Y003545D01*
X025921Y003375D01*
X026176Y003375D01*
X026134Y003273D02*
X026049Y003273D01*
X026049Y003188D01*
X026134Y003103D02*
X026176Y003146D01*
X026176Y003231D01*
X026134Y003273D01*
X026134Y003103D02*
X025964Y003103D01*
X025921Y003146D01*
X025921Y003231D01*
X025964Y003273D01*
X023027Y012434D02*
X022791Y012434D01*
X022732Y012493D01*
X022732Y012611D01*
X022791Y012670D01*
X022850Y012796D02*
X022732Y012914D01*
X022850Y013032D01*
X023086Y013032D01*
X023086Y013159D02*
X022732Y013159D01*
X023086Y013395D01*
X022732Y013395D01*
X022732Y013884D02*
X022732Y014120D01*
X022732Y014002D02*
X023086Y014002D01*
X023086Y014246D02*
X023086Y014482D01*
X023086Y014609D02*
X022732Y014609D01*
X022732Y014786D01*
X022791Y014845D01*
X022909Y014845D01*
X022968Y014786D01*
X022968Y014609D01*
X022968Y014727D02*
X023086Y014845D01*
X023086Y014971D02*
X022732Y014971D01*
X022850Y015089D01*
X022732Y015207D01*
X023086Y015207D01*
X022732Y014482D02*
X022732Y014246D01*
X023086Y014246D01*
X022909Y014246D02*
X022909Y014364D01*
X022071Y015780D02*
X022071Y016134D01*
X021835Y016134D02*
X021835Y015780D01*
X021708Y015839D02*
X021649Y015780D01*
X021531Y015780D01*
X021472Y015839D01*
X021472Y016075D01*
X021531Y016134D01*
X021649Y016134D01*
X021708Y016075D01*
X021708Y015839D01*
X021835Y016134D02*
X022071Y015780D01*
X022909Y013032D02*
X022909Y012796D01*
X022850Y012796D02*
X023086Y012796D01*
X023027Y012670D02*
X023086Y012611D01*
X023086Y012493D01*
X023027Y012434D01*
D15*
X027820Y014835D03*
X028116Y014835D03*
X029198Y014835D03*
X029494Y014835D03*
X025261Y003615D03*
X024966Y003615D03*
X023391Y003615D03*
X023096Y003615D03*
D16*
X023244Y003615D03*
X025114Y003615D03*
X027968Y014835D03*
X029346Y014835D03*
D17*
X025862Y014850D02*
X025311Y014850D01*
X025311Y014848D02*
X025862Y014848D01*
X025862Y014845D02*
X025311Y014845D01*
X025311Y014843D02*
X025862Y014843D01*
X025862Y014840D02*
X025311Y014840D01*
X025311Y014838D02*
X025862Y014838D01*
X025862Y014836D02*
X025311Y014836D01*
X025311Y014833D02*
X025862Y014833D01*
X025862Y014831D02*
X025311Y014831D01*
X025311Y014828D02*
X025862Y014828D01*
X025862Y014826D02*
X025311Y014826D01*
X025311Y014823D02*
X025862Y014823D01*
X025862Y014821D02*
X025311Y014821D01*
X025311Y014818D02*
X025862Y014818D01*
X025862Y014816D02*
X025311Y014816D01*
X025311Y014813D02*
X025862Y014813D01*
X025862Y014811D02*
X025311Y014811D01*
X025311Y014808D02*
X025862Y014808D01*
X025862Y014806D02*
X025311Y014806D01*
X025311Y014803D02*
X025862Y014803D01*
X025862Y014801D02*
X025311Y014801D01*
X025311Y014798D02*
X025862Y014798D01*
X025862Y014796D02*
X025311Y014796D01*
X025311Y014793D02*
X025862Y014793D01*
X025862Y014791D02*
X025311Y014791D01*
X025311Y014788D02*
X025862Y014788D01*
X025862Y014786D02*
X025311Y014786D01*
X025311Y014783D02*
X025862Y014783D01*
X025862Y014781D02*
X025311Y014781D01*
X025311Y014778D02*
X025862Y014778D01*
X025862Y014776D02*
X025311Y014776D01*
X025311Y014774D02*
X025862Y014774D01*
X025862Y014771D02*
X025311Y014771D01*
X025311Y014769D02*
X025862Y014769D01*
X025862Y014766D02*
X025311Y014766D01*
X025311Y014764D02*
X025862Y014764D01*
X025862Y014761D02*
X025311Y014761D01*
X025311Y014759D02*
X025862Y014759D01*
X025862Y014756D02*
X025311Y014756D01*
X025311Y014754D02*
X025862Y014754D01*
X025862Y014751D02*
X025311Y014751D01*
X025311Y014749D02*
X025862Y014749D01*
X025862Y014746D02*
X025311Y014746D01*
X025311Y014744D02*
X025862Y014744D01*
X025862Y014741D02*
X025311Y014741D01*
X025311Y014739D02*
X025862Y014739D01*
X025862Y014736D02*
X025311Y014736D01*
X025311Y014734D02*
X025862Y014734D01*
X025862Y014731D02*
X025311Y014731D01*
X025311Y014729D02*
X025862Y014729D01*
X025862Y014726D02*
X025311Y014726D01*
X025311Y014724D02*
X025862Y014724D01*
X025862Y014721D02*
X025311Y014721D01*
X025311Y014719D02*
X025862Y014719D01*
X025862Y014716D02*
X025311Y014716D01*
X025311Y014714D02*
X025862Y014714D01*
X025862Y014711D02*
X025311Y014711D01*
X025311Y014709D02*
X025862Y014709D01*
X025862Y014707D02*
X025311Y014707D01*
X025311Y014704D02*
X025862Y014704D01*
X025862Y014702D02*
X025311Y014702D01*
X025311Y014699D02*
X025862Y014699D01*
X025862Y014697D02*
X025862Y015189D01*
X025448Y015603D01*
X024425Y015603D01*
X024011Y015189D01*
X024011Y013516D01*
X024425Y013103D01*
X025448Y013103D01*
X025862Y013516D01*
X025862Y014067D01*
X025860Y014067D01*
X025862Y014067D02*
X025586Y013949D01*
X025311Y014067D01*
X025312Y014067D01*
X025311Y014067D02*
X025311Y013811D01*
X025192Y013693D01*
X024661Y013693D01*
X024563Y013792D01*
X024563Y014894D01*
X024661Y014993D01*
X025212Y014993D01*
X025311Y014894D01*
X025311Y014697D01*
X025586Y014579D01*
X025862Y014697D01*
X025860Y014697D02*
X025312Y014697D01*
X025318Y014694D02*
X025854Y014694D01*
X025849Y014692D02*
X025324Y014692D01*
X025330Y014689D02*
X025843Y014689D01*
X025837Y014687D02*
X025335Y014687D01*
X025341Y014684D02*
X025831Y014684D01*
X025825Y014682D02*
X025347Y014682D01*
X025353Y014679D02*
X025820Y014679D01*
X025814Y014677D02*
X025359Y014677D01*
X025364Y014674D02*
X025808Y014674D01*
X025802Y014672D02*
X025370Y014672D01*
X025376Y014669D02*
X025796Y014669D01*
X025791Y014667D02*
X025382Y014667D01*
X025387Y014664D02*
X025785Y014664D01*
X025779Y014662D02*
X025393Y014662D01*
X025399Y014659D02*
X025773Y014659D01*
X025767Y014657D02*
X025405Y014657D01*
X025411Y014654D02*
X025762Y014654D01*
X025756Y014652D02*
X025416Y014652D01*
X025422Y014649D02*
X025750Y014649D01*
X025744Y014647D02*
X025428Y014647D01*
X025434Y014645D02*
X025739Y014645D01*
X025733Y014642D02*
X025440Y014642D01*
X025445Y014640D02*
X025727Y014640D01*
X025721Y014637D02*
X025451Y014637D01*
X025457Y014635D02*
X025715Y014635D01*
X025710Y014632D02*
X025463Y014632D01*
X025468Y014630D02*
X025704Y014630D01*
X025698Y014627D02*
X025474Y014627D01*
X025480Y014625D02*
X025692Y014625D01*
X025686Y014622D02*
X025486Y014622D01*
X025492Y014620D02*
X025681Y014620D01*
X025675Y014617D02*
X025497Y014617D01*
X025503Y014615D02*
X025669Y014615D01*
X025663Y014612D02*
X025509Y014612D01*
X025515Y014610D02*
X025658Y014610D01*
X025652Y014607D02*
X025521Y014607D01*
X025526Y014605D02*
X025646Y014605D01*
X025640Y014602D02*
X025532Y014602D01*
X025538Y014600D02*
X025634Y014600D01*
X025629Y014597D02*
X025544Y014597D01*
X025549Y014595D02*
X025623Y014595D01*
X025617Y014592D02*
X025555Y014592D01*
X025561Y014590D02*
X025611Y014590D01*
X025605Y014587D02*
X025567Y014587D01*
X025573Y014585D02*
X025600Y014585D01*
X025594Y014583D02*
X025578Y014583D01*
X025584Y014580D02*
X025588Y014580D01*
X025862Y014853D02*
X025311Y014853D01*
X025311Y014855D02*
X025862Y014855D01*
X025862Y014858D02*
X025311Y014858D01*
X025311Y014860D02*
X025862Y014860D01*
X025862Y014863D02*
X025311Y014863D01*
X025311Y014865D02*
X025862Y014865D01*
X025862Y014868D02*
X025311Y014868D01*
X025311Y014870D02*
X025862Y014870D01*
X025862Y014873D02*
X025311Y014873D01*
X025311Y014875D02*
X025862Y014875D01*
X025862Y014878D02*
X025311Y014878D01*
X025311Y014880D02*
X025862Y014880D01*
X025862Y014883D02*
X025311Y014883D01*
X025311Y014885D02*
X025862Y014885D01*
X025862Y014888D02*
X025311Y014888D01*
X025311Y014890D02*
X025862Y014890D01*
X025862Y014893D02*
X025311Y014893D01*
X025310Y014895D02*
X025862Y014895D01*
X025862Y014898D02*
X025307Y014898D01*
X025305Y014900D02*
X025862Y014900D01*
X025862Y014902D02*
X025302Y014902D01*
X025300Y014905D02*
X025862Y014905D01*
X025862Y014907D02*
X025297Y014907D01*
X025295Y014910D02*
X025862Y014910D01*
X025862Y014912D02*
X025292Y014912D01*
X025290Y014915D02*
X025862Y014915D01*
X025862Y014917D02*
X025287Y014917D01*
X025285Y014920D02*
X025862Y014920D01*
X025862Y014922D02*
X025282Y014922D01*
X025280Y014925D02*
X025862Y014925D01*
X025862Y014927D02*
X025277Y014927D01*
X025275Y014930D02*
X025862Y014930D01*
X025862Y014932D02*
X025272Y014932D01*
X025270Y014935D02*
X025862Y014935D01*
X025862Y014937D02*
X025268Y014937D01*
X025265Y014940D02*
X025862Y014940D01*
X025862Y014942D02*
X025263Y014942D01*
X025260Y014945D02*
X025862Y014945D01*
X025862Y014947D02*
X025258Y014947D01*
X025255Y014950D02*
X025862Y014950D01*
X025862Y014952D02*
X025253Y014952D01*
X025250Y014955D02*
X025862Y014955D01*
X025862Y014957D02*
X025248Y014957D01*
X025245Y014960D02*
X025862Y014960D01*
X025862Y014962D02*
X025243Y014962D01*
X025240Y014964D02*
X025862Y014964D01*
X025862Y014967D02*
X025238Y014967D01*
X025235Y014969D02*
X025862Y014969D01*
X025862Y014972D02*
X025233Y014972D01*
X025230Y014974D02*
X025862Y014974D01*
X025862Y014977D02*
X025228Y014977D01*
X025225Y014979D02*
X025862Y014979D01*
X025862Y014982D02*
X025223Y014982D01*
X025220Y014984D02*
X025862Y014984D01*
X025862Y014987D02*
X025218Y014987D01*
X025215Y014989D02*
X025862Y014989D01*
X025862Y014992D02*
X025213Y014992D01*
X025625Y015426D02*
X024248Y015426D01*
X024250Y015428D02*
X025623Y015428D01*
X025620Y015431D02*
X024253Y015431D01*
X024255Y015433D02*
X025618Y015433D01*
X025615Y015436D02*
X024258Y015436D01*
X024260Y015438D02*
X025613Y015438D01*
X025610Y015441D02*
X024263Y015441D01*
X024265Y015443D02*
X025608Y015443D01*
X025606Y015446D02*
X024268Y015446D01*
X024270Y015448D02*
X025603Y015448D01*
X025601Y015451D02*
X024273Y015451D01*
X024275Y015453D02*
X025598Y015453D01*
X025596Y015456D02*
X024277Y015456D01*
X024280Y015458D02*
X025593Y015458D01*
X025591Y015461D02*
X024282Y015461D01*
X024285Y015463D02*
X025588Y015463D01*
X025586Y015466D02*
X024287Y015466D01*
X024290Y015468D02*
X025583Y015468D01*
X025581Y015470D02*
X024292Y015470D01*
X024295Y015473D02*
X025578Y015473D01*
X025576Y015475D02*
X024297Y015475D01*
X024300Y015478D02*
X025573Y015478D01*
X025571Y015480D02*
X024302Y015480D01*
X024305Y015483D02*
X025568Y015483D01*
X025566Y015485D02*
X024307Y015485D01*
X024310Y015488D02*
X025563Y015488D01*
X025561Y015490D02*
X024312Y015490D01*
X024315Y015493D02*
X025558Y015493D01*
X025556Y015495D02*
X024317Y015495D01*
X024320Y015498D02*
X025553Y015498D01*
X025551Y015500D02*
X024322Y015500D01*
X024325Y015503D02*
X025548Y015503D01*
X025546Y015505D02*
X024327Y015505D01*
X024330Y015508D02*
X025544Y015508D01*
X025541Y015510D02*
X024332Y015510D01*
X024335Y015513D02*
X025539Y015513D01*
X025536Y015515D02*
X024337Y015515D01*
X024339Y015518D02*
X025534Y015518D01*
X025531Y015520D02*
X024342Y015520D01*
X024344Y015523D02*
X025529Y015523D01*
X025526Y015525D02*
X024347Y015525D01*
X024349Y015528D02*
X025524Y015528D01*
X025521Y015530D02*
X024352Y015530D01*
X024354Y015532D02*
X025519Y015532D01*
X025516Y015535D02*
X024357Y015535D01*
X024359Y015537D02*
X025514Y015537D01*
X025511Y015540D02*
X024362Y015540D01*
X024364Y015542D02*
X025509Y015542D01*
X025506Y015545D02*
X024367Y015545D01*
X024369Y015547D02*
X025504Y015547D01*
X025501Y015550D02*
X024372Y015550D01*
X024374Y015552D02*
X025499Y015552D01*
X025496Y015555D02*
X024377Y015555D01*
X024379Y015557D02*
X025494Y015557D01*
X025491Y015560D02*
X024382Y015560D01*
X024384Y015562D02*
X025489Y015562D01*
X025486Y015565D02*
X024387Y015565D01*
X024389Y015567D02*
X025484Y015567D01*
X025481Y015570D02*
X024392Y015570D01*
X024394Y015572D02*
X025479Y015572D01*
X025477Y015575D02*
X024397Y015575D01*
X024399Y015577D02*
X025474Y015577D01*
X025472Y015580D02*
X024401Y015580D01*
X024404Y015582D02*
X025469Y015582D01*
X025467Y015585D02*
X024406Y015585D01*
X024409Y015587D02*
X025464Y015587D01*
X025462Y015590D02*
X024411Y015590D01*
X024414Y015592D02*
X025459Y015592D01*
X025457Y015594D02*
X024416Y015594D01*
X024419Y015597D02*
X025454Y015597D01*
X025452Y015599D02*
X024421Y015599D01*
X024424Y015602D02*
X025449Y015602D01*
X025628Y015423D02*
X024245Y015423D01*
X024243Y015421D02*
X025630Y015421D01*
X025633Y015418D02*
X024240Y015418D01*
X024238Y015416D02*
X025635Y015416D01*
X025638Y015413D02*
X024235Y015413D01*
X024233Y015411D02*
X025640Y015411D01*
X025643Y015408D02*
X024230Y015408D01*
X024228Y015406D02*
X025645Y015406D01*
X025648Y015404D02*
X024225Y015404D01*
X024223Y015401D02*
X025650Y015401D01*
X025653Y015399D02*
X024220Y015399D01*
X024218Y015396D02*
X025655Y015396D01*
X025658Y015394D02*
X024215Y015394D01*
X024213Y015391D02*
X025660Y015391D01*
X025663Y015389D02*
X024211Y015389D01*
X024208Y015386D02*
X025665Y015386D01*
X025668Y015384D02*
X024206Y015384D01*
X024203Y015381D02*
X025670Y015381D01*
X025672Y015379D02*
X024201Y015379D01*
X024198Y015376D02*
X025675Y015376D01*
X025677Y015374D02*
X024196Y015374D01*
X024193Y015371D02*
X025680Y015371D01*
X025682Y015369D02*
X024191Y015369D01*
X024188Y015366D02*
X025685Y015366D01*
X025687Y015364D02*
X024186Y015364D01*
X024183Y015361D02*
X025690Y015361D01*
X025692Y015359D02*
X024181Y015359D01*
X024178Y015356D02*
X025695Y015356D01*
X025697Y015354D02*
X024176Y015354D01*
X024173Y015351D02*
X025700Y015351D01*
X025702Y015349D02*
X024171Y015349D01*
X024168Y015346D02*
X025705Y015346D01*
X025707Y015344D02*
X024166Y015344D01*
X024163Y015341D02*
X025710Y015341D01*
X025712Y015339D02*
X024161Y015339D01*
X024158Y015337D02*
X025715Y015337D01*
X025717Y015334D02*
X024156Y015334D01*
X024153Y015332D02*
X025720Y015332D01*
X025722Y015329D02*
X024151Y015329D01*
X024149Y015327D02*
X025725Y015327D01*
X025727Y015324D02*
X024146Y015324D01*
X024144Y015322D02*
X025730Y015322D01*
X025732Y015319D02*
X024141Y015319D01*
X024139Y015317D02*
X025734Y015317D01*
X025737Y015314D02*
X024136Y015314D01*
X024134Y015312D02*
X025739Y015312D01*
X025742Y015309D02*
X024131Y015309D01*
X024129Y015307D02*
X025744Y015307D01*
X025747Y015304D02*
X024126Y015304D01*
X024124Y015302D02*
X025749Y015302D01*
X025752Y015299D02*
X024121Y015299D01*
X024119Y015297D02*
X025754Y015297D01*
X025757Y015294D02*
X024116Y015294D01*
X024114Y015292D02*
X025759Y015292D01*
X025762Y015289D02*
X024111Y015289D01*
X024109Y015287D02*
X025764Y015287D01*
X025767Y015284D02*
X024106Y015284D01*
X024104Y015282D02*
X025769Y015282D01*
X025772Y015279D02*
X024101Y015279D01*
X024099Y015277D02*
X025774Y015277D01*
X025777Y015275D02*
X024096Y015275D01*
X024094Y015272D02*
X025779Y015272D01*
X025782Y015270D02*
X024091Y015270D01*
X024089Y015267D02*
X025784Y015267D01*
X025787Y015265D02*
X024086Y015265D01*
X024084Y015262D02*
X025789Y015262D01*
X025792Y015260D02*
X024082Y015260D01*
X024079Y015257D02*
X025794Y015257D01*
X025796Y015255D02*
X024077Y015255D01*
X024074Y015252D02*
X025799Y015252D01*
X025801Y015250D02*
X024072Y015250D01*
X024069Y015247D02*
X025804Y015247D01*
X025806Y015245D02*
X024067Y015245D01*
X024064Y015242D02*
X025809Y015242D01*
X025811Y015240D02*
X024062Y015240D01*
X024059Y015237D02*
X025814Y015237D01*
X025816Y015235D02*
X024057Y015235D01*
X024054Y015232D02*
X025819Y015232D01*
X025821Y015230D02*
X024052Y015230D01*
X024049Y015227D02*
X025824Y015227D01*
X025826Y015225D02*
X024047Y015225D01*
X024044Y015222D02*
X025829Y015222D01*
X025831Y015220D02*
X024042Y015220D01*
X024039Y015217D02*
X025834Y015217D01*
X025836Y015215D02*
X024037Y015215D01*
X024034Y015213D02*
X025839Y015213D01*
X025841Y015210D02*
X024032Y015210D01*
X024029Y015208D02*
X025844Y015208D01*
X025846Y015205D02*
X024027Y015205D01*
X024024Y015203D02*
X025849Y015203D01*
X025851Y015200D02*
X024022Y015200D01*
X024020Y015198D02*
X025854Y015198D01*
X025856Y015195D02*
X024017Y015195D01*
X024015Y015193D02*
X025859Y015193D01*
X025861Y015190D02*
X024012Y015190D01*
X024011Y015188D02*
X025862Y015188D01*
X025862Y015185D02*
X024011Y015185D01*
X024011Y015183D02*
X025862Y015183D01*
X025862Y015180D02*
X024011Y015180D01*
X024011Y015178D02*
X025862Y015178D01*
X025862Y015175D02*
X024011Y015175D01*
X024011Y015173D02*
X025862Y015173D01*
X025862Y015170D02*
X024011Y015170D01*
X024011Y015168D02*
X025862Y015168D01*
X025862Y015165D02*
X024011Y015165D01*
X024011Y015163D02*
X025862Y015163D01*
X025862Y015160D02*
X024011Y015160D01*
X024011Y015158D02*
X025862Y015158D01*
X025862Y015155D02*
X024011Y015155D01*
X024011Y015153D02*
X025862Y015153D01*
X025862Y015151D02*
X024011Y015151D01*
X024011Y015148D02*
X025862Y015148D01*
X025862Y015146D02*
X024011Y015146D01*
X024011Y015143D02*
X025862Y015143D01*
X025862Y015141D02*
X024011Y015141D01*
X024011Y015138D02*
X025862Y015138D01*
X025862Y015136D02*
X024011Y015136D01*
X024011Y015133D02*
X025862Y015133D01*
X025862Y015131D02*
X024011Y015131D01*
X024011Y015128D02*
X025862Y015128D01*
X025862Y015126D02*
X024011Y015126D01*
X024011Y015123D02*
X025862Y015123D01*
X025862Y015121D02*
X024011Y015121D01*
X024011Y015118D02*
X025862Y015118D01*
X025862Y015116D02*
X024011Y015116D01*
X024011Y015113D02*
X025862Y015113D01*
X025862Y015111D02*
X024011Y015111D01*
X024011Y015108D02*
X025862Y015108D01*
X025862Y015106D02*
X024011Y015106D01*
X024011Y015103D02*
X025862Y015103D01*
X025862Y015101D02*
X024011Y015101D01*
X024011Y015098D02*
X025862Y015098D01*
X025862Y015096D02*
X024011Y015096D01*
X024011Y015093D02*
X025862Y015093D01*
X025862Y015091D02*
X024011Y015091D01*
X024011Y015089D02*
X025862Y015089D01*
X025862Y015086D02*
X024011Y015086D01*
X024011Y015084D02*
X025862Y015084D01*
X025862Y015081D02*
X024011Y015081D01*
X024011Y015079D02*
X025862Y015079D01*
X025862Y015076D02*
X024011Y015076D01*
X024011Y015074D02*
X025862Y015074D01*
X025862Y015071D02*
X024011Y015071D01*
X024011Y015069D02*
X025862Y015069D01*
X025862Y015066D02*
X024011Y015066D01*
X024011Y015064D02*
X025862Y015064D01*
X025862Y015061D02*
X024011Y015061D01*
X024011Y015059D02*
X025862Y015059D01*
X025862Y015056D02*
X024011Y015056D01*
X024011Y015054D02*
X025862Y015054D01*
X025862Y015051D02*
X024011Y015051D01*
X024011Y015049D02*
X025862Y015049D01*
X025862Y015046D02*
X024011Y015046D01*
X024011Y015044D02*
X025862Y015044D01*
X025862Y015041D02*
X024011Y015041D01*
X024011Y015039D02*
X025862Y015039D01*
X025862Y015036D02*
X024011Y015036D01*
X024011Y015034D02*
X025862Y015034D01*
X025862Y015031D02*
X024011Y015031D01*
X024011Y015029D02*
X025862Y015029D01*
X025862Y015026D02*
X024011Y015026D01*
X024011Y015024D02*
X025862Y015024D01*
X025862Y015022D02*
X024011Y015022D01*
X024011Y015019D02*
X025862Y015019D01*
X025862Y015017D02*
X024011Y015017D01*
X024011Y015014D02*
X025862Y015014D01*
X025862Y015012D02*
X024011Y015012D01*
X024011Y015009D02*
X025862Y015009D01*
X025862Y015007D02*
X024011Y015007D01*
X024011Y015004D02*
X025862Y015004D01*
X025862Y015002D02*
X024011Y015002D01*
X024011Y014999D02*
X025862Y014999D01*
X025862Y014997D02*
X024011Y014997D01*
X024011Y014994D02*
X025862Y014994D01*
X025854Y014064D02*
X025862Y014064D01*
X025862Y014062D02*
X025848Y014062D01*
X025843Y014059D02*
X025862Y014059D01*
X025862Y014057D02*
X025837Y014057D01*
X025831Y014054D02*
X025862Y014054D01*
X025862Y014052D02*
X025825Y014052D01*
X025819Y014049D02*
X025862Y014049D01*
X025862Y014047D02*
X025814Y014047D01*
X025808Y014044D02*
X025862Y014044D01*
X025862Y014042D02*
X025802Y014042D01*
X025796Y014039D02*
X025862Y014039D01*
X025862Y014037D02*
X025790Y014037D01*
X025785Y014034D02*
X025862Y014034D01*
X025862Y014032D02*
X025779Y014032D01*
X025773Y014029D02*
X025862Y014029D01*
X025862Y014027D02*
X025767Y014027D01*
X025762Y014024D02*
X025862Y014024D01*
X025862Y014022D02*
X025756Y014022D01*
X025750Y014019D02*
X025862Y014019D01*
X025862Y014017D02*
X025744Y014017D01*
X025738Y014015D02*
X025862Y014015D01*
X025862Y014012D02*
X025733Y014012D01*
X025727Y014010D02*
X025862Y014010D01*
X025862Y014007D02*
X025721Y014007D01*
X025715Y014005D02*
X025862Y014005D01*
X025862Y014002D02*
X025709Y014002D01*
X025704Y014000D02*
X025862Y014000D01*
X025862Y013997D02*
X025698Y013997D01*
X025692Y013995D02*
X025862Y013995D01*
X025862Y013992D02*
X025686Y013992D01*
X025681Y013990D02*
X025862Y013990D01*
X025862Y013987D02*
X025675Y013987D01*
X025669Y013985D02*
X025862Y013985D01*
X025862Y013982D02*
X025663Y013982D01*
X025657Y013980D02*
X025862Y013980D01*
X025862Y013977D02*
X025652Y013977D01*
X025646Y013975D02*
X025862Y013975D01*
X025862Y013972D02*
X025640Y013972D01*
X025634Y013970D02*
X025862Y013970D01*
X025862Y013967D02*
X025628Y013967D01*
X025623Y013965D02*
X025862Y013965D01*
X025862Y013962D02*
X025617Y013962D01*
X025611Y013960D02*
X025862Y013960D01*
X025862Y013957D02*
X025605Y013957D01*
X025599Y013955D02*
X025862Y013955D01*
X025862Y013953D02*
X025594Y013953D01*
X025588Y013950D02*
X025862Y013950D01*
X025862Y013948D02*
X025311Y013948D01*
X025311Y013950D02*
X025584Y013950D01*
X025579Y013953D02*
X025311Y013953D01*
X025311Y013955D02*
X025573Y013955D01*
X025567Y013957D02*
X025311Y013957D01*
X025311Y013960D02*
X025561Y013960D01*
X025555Y013962D02*
X025311Y013962D01*
X025311Y013965D02*
X025550Y013965D01*
X025544Y013967D02*
X025311Y013967D01*
X025311Y013970D02*
X025538Y013970D01*
X025532Y013972D02*
X025311Y013972D01*
X025311Y013975D02*
X025527Y013975D01*
X025521Y013977D02*
X025311Y013977D01*
X025311Y013980D02*
X025515Y013980D01*
X025509Y013982D02*
X025311Y013982D01*
X025311Y013985D02*
X025503Y013985D01*
X025498Y013987D02*
X025311Y013987D01*
X025311Y013990D02*
X025492Y013990D01*
X025486Y013992D02*
X025311Y013992D01*
X025311Y013995D02*
X025480Y013995D01*
X025474Y013997D02*
X025311Y013997D01*
X025311Y014000D02*
X025469Y014000D01*
X025463Y014002D02*
X025311Y014002D01*
X025311Y014005D02*
X025457Y014005D01*
X025451Y014007D02*
X025311Y014007D01*
X025311Y014010D02*
X025446Y014010D01*
X025440Y014012D02*
X025311Y014012D01*
X025311Y014015D02*
X025434Y014015D01*
X025428Y014017D02*
X025311Y014017D01*
X025311Y014019D02*
X025422Y014019D01*
X025417Y014022D02*
X025311Y014022D01*
X025311Y014024D02*
X025411Y014024D01*
X025405Y014027D02*
X025311Y014027D01*
X025311Y014029D02*
X025399Y014029D01*
X025393Y014032D02*
X025311Y014032D01*
X025311Y014034D02*
X025388Y014034D01*
X025382Y014037D02*
X025311Y014037D01*
X025311Y014039D02*
X025376Y014039D01*
X025370Y014042D02*
X025311Y014042D01*
X025311Y014044D02*
X025364Y014044D01*
X025359Y014047D02*
X025311Y014047D01*
X025311Y014049D02*
X025353Y014049D01*
X025347Y014052D02*
X025311Y014052D01*
X025311Y014054D02*
X025341Y014054D01*
X025336Y014057D02*
X025311Y014057D01*
X025311Y014059D02*
X025330Y014059D01*
X025324Y014062D02*
X025311Y014062D01*
X025311Y014064D02*
X025318Y014064D01*
X025311Y013945D02*
X025862Y013945D01*
X025862Y013943D02*
X025311Y013943D01*
X025311Y013940D02*
X025862Y013940D01*
X025862Y013938D02*
X025311Y013938D01*
X025311Y013935D02*
X025862Y013935D01*
X025862Y013933D02*
X025311Y013933D01*
X025311Y013930D02*
X025862Y013930D01*
X025862Y013928D02*
X025311Y013928D01*
X025311Y013925D02*
X025862Y013925D01*
X025862Y013923D02*
X025311Y013923D01*
X025311Y013920D02*
X025862Y013920D01*
X025862Y013918D02*
X025311Y013918D01*
X025311Y013915D02*
X025862Y013915D01*
X025862Y013913D02*
X025311Y013913D01*
X025311Y013910D02*
X025862Y013910D01*
X025862Y013908D02*
X025311Y013908D01*
X025311Y013905D02*
X025862Y013905D01*
X025862Y013903D02*
X025311Y013903D01*
X025311Y013900D02*
X025862Y013900D01*
X025862Y013898D02*
X025311Y013898D01*
X025311Y013895D02*
X025862Y013895D01*
X025862Y013893D02*
X025311Y013893D01*
X025311Y013891D02*
X025862Y013891D01*
X025862Y013888D02*
X025311Y013888D01*
X025311Y013886D02*
X025862Y013886D01*
X025862Y013883D02*
X025311Y013883D01*
X025311Y013881D02*
X025862Y013881D01*
X025862Y013878D02*
X025311Y013878D01*
X025311Y013876D02*
X025862Y013876D01*
X025862Y013873D02*
X025311Y013873D01*
X025311Y013871D02*
X025862Y013871D01*
X025862Y013868D02*
X025311Y013868D01*
X025311Y013866D02*
X025862Y013866D01*
X025862Y013863D02*
X025311Y013863D01*
X025311Y013861D02*
X025862Y013861D01*
X025862Y013858D02*
X025311Y013858D01*
X025311Y013856D02*
X025862Y013856D01*
X025862Y013853D02*
X025311Y013853D01*
X025311Y013851D02*
X025862Y013851D01*
X025862Y013848D02*
X025311Y013848D01*
X025311Y013846D02*
X025862Y013846D01*
X025862Y013843D02*
X025311Y013843D01*
X025311Y013841D02*
X025862Y013841D01*
X025862Y013838D02*
X025311Y013838D01*
X025311Y013836D02*
X025862Y013836D01*
X025862Y013833D02*
X025311Y013833D01*
X025311Y013831D02*
X025862Y013831D01*
X025862Y013829D02*
X025311Y013829D01*
X025311Y013826D02*
X025862Y013826D01*
X025862Y013824D02*
X025311Y013824D01*
X025311Y013821D02*
X025862Y013821D01*
X025862Y013819D02*
X025311Y013819D01*
X025311Y013816D02*
X025862Y013816D01*
X025862Y013814D02*
X025311Y013814D01*
X025310Y013811D02*
X025862Y013811D01*
X025862Y013809D02*
X025308Y013809D01*
X025305Y013806D02*
X025862Y013806D01*
X025862Y013804D02*
X025303Y013804D01*
X025300Y013801D02*
X025862Y013801D01*
X025862Y013799D02*
X025298Y013799D01*
X025295Y013796D02*
X025862Y013796D01*
X025862Y013794D02*
X025293Y013794D01*
X025290Y013791D02*
X025862Y013791D01*
X025862Y013789D02*
X025288Y013789D01*
X025285Y013786D02*
X025862Y013786D01*
X025862Y013784D02*
X025283Y013784D01*
X025280Y013781D02*
X025862Y013781D01*
X025862Y013779D02*
X025278Y013779D01*
X025275Y013776D02*
X025862Y013776D01*
X025862Y013774D02*
X025273Y013774D01*
X025271Y013771D02*
X025862Y013771D01*
X025862Y013769D02*
X025268Y013769D01*
X025266Y013766D02*
X025862Y013766D01*
X025862Y013764D02*
X025263Y013764D01*
X025261Y013762D02*
X025862Y013762D01*
X025862Y013759D02*
X025258Y013759D01*
X025256Y013757D02*
X025862Y013757D01*
X025862Y013754D02*
X025253Y013754D01*
X025251Y013752D02*
X025862Y013752D01*
X025862Y013749D02*
X025248Y013749D01*
X025246Y013747D02*
X025862Y013747D01*
X025862Y013744D02*
X025243Y013744D01*
X025241Y013742D02*
X025862Y013742D01*
X025862Y013739D02*
X025238Y013739D01*
X025236Y013737D02*
X025862Y013737D01*
X025862Y013734D02*
X025233Y013734D01*
X025231Y013732D02*
X025862Y013732D01*
X025862Y013729D02*
X025228Y013729D01*
X025226Y013727D02*
X025862Y013727D01*
X025862Y013724D02*
X025223Y013724D01*
X025221Y013722D02*
X025862Y013722D01*
X025862Y013719D02*
X025218Y013719D01*
X025216Y013717D02*
X025862Y013717D01*
X025862Y013714D02*
X025213Y013714D01*
X025211Y013712D02*
X025862Y013712D01*
X025862Y013709D02*
X025209Y013709D01*
X025206Y013707D02*
X025862Y013707D01*
X025862Y013704D02*
X025204Y013704D01*
X025201Y013702D02*
X025862Y013702D01*
X025862Y013700D02*
X025199Y013700D01*
X025196Y013697D02*
X025862Y013697D01*
X025862Y013695D02*
X025194Y013695D01*
X024660Y013695D02*
X024011Y013695D01*
X024011Y013697D02*
X024657Y013697D01*
X024655Y013700D02*
X024011Y013700D01*
X024011Y013702D02*
X024652Y013702D01*
X024650Y013704D02*
X024011Y013704D01*
X024011Y013707D02*
X024647Y013707D01*
X024645Y013709D02*
X024011Y013709D01*
X024011Y013712D02*
X024642Y013712D01*
X024640Y013714D02*
X024011Y013714D01*
X024011Y013717D02*
X024637Y013717D01*
X024635Y013719D02*
X024011Y013719D01*
X024011Y013722D02*
X024632Y013722D01*
X024630Y013724D02*
X024011Y013724D01*
X024011Y013727D02*
X024628Y013727D01*
X024625Y013729D02*
X024011Y013729D01*
X024011Y013732D02*
X024623Y013732D01*
X024620Y013734D02*
X024011Y013734D01*
X024011Y013737D02*
X024618Y013737D01*
X024615Y013739D02*
X024011Y013739D01*
X024011Y013742D02*
X024613Y013742D01*
X024610Y013744D02*
X024011Y013744D01*
X024011Y013747D02*
X024608Y013747D01*
X024605Y013749D02*
X024011Y013749D01*
X024011Y013752D02*
X024603Y013752D01*
X024600Y013754D02*
X024011Y013754D01*
X024011Y013757D02*
X024598Y013757D01*
X024595Y013759D02*
X024011Y013759D01*
X024011Y013762D02*
X024593Y013762D01*
X024590Y013764D02*
X024011Y013764D01*
X024011Y013766D02*
X024588Y013766D01*
X024585Y013769D02*
X024011Y013769D01*
X024011Y013771D02*
X024583Y013771D01*
X024580Y013774D02*
X024011Y013774D01*
X024011Y013776D02*
X024578Y013776D01*
X024575Y013779D02*
X024011Y013779D01*
X024011Y013781D02*
X024573Y013781D01*
X024570Y013784D02*
X024011Y013784D01*
X024011Y013786D02*
X024568Y013786D01*
X024566Y013789D02*
X024011Y013789D01*
X024011Y013791D02*
X024563Y013791D01*
X024563Y013794D02*
X024011Y013794D01*
X024011Y013796D02*
X024563Y013796D01*
X024563Y013799D02*
X024011Y013799D01*
X024011Y013801D02*
X024563Y013801D01*
X024563Y013804D02*
X024011Y013804D01*
X024011Y013806D02*
X024563Y013806D01*
X024563Y013809D02*
X024011Y013809D01*
X024011Y013811D02*
X024563Y013811D01*
X024563Y013814D02*
X024011Y013814D01*
X024011Y013816D02*
X024563Y013816D01*
X024563Y013819D02*
X024011Y013819D01*
X024011Y013821D02*
X024563Y013821D01*
X024563Y013824D02*
X024011Y013824D01*
X024011Y013826D02*
X024563Y013826D01*
X024563Y013829D02*
X024011Y013829D01*
X024011Y013831D02*
X024563Y013831D01*
X024563Y013833D02*
X024011Y013833D01*
X024011Y013836D02*
X024563Y013836D01*
X024563Y013838D02*
X024011Y013838D01*
X024011Y013841D02*
X024563Y013841D01*
X024563Y013843D02*
X024011Y013843D01*
X024011Y013846D02*
X024563Y013846D01*
X024563Y013848D02*
X024011Y013848D01*
X024011Y013851D02*
X024563Y013851D01*
X024563Y013853D02*
X024011Y013853D01*
X024011Y013856D02*
X024563Y013856D01*
X024563Y013858D02*
X024011Y013858D01*
X024011Y013861D02*
X024563Y013861D01*
X024563Y013863D02*
X024011Y013863D01*
X024011Y013866D02*
X024563Y013866D01*
X024563Y013868D02*
X024011Y013868D01*
X024011Y013871D02*
X024563Y013871D01*
X024563Y013873D02*
X024011Y013873D01*
X024011Y013876D02*
X024563Y013876D01*
X024563Y013878D02*
X024011Y013878D01*
X024011Y013881D02*
X024563Y013881D01*
X024563Y013883D02*
X024011Y013883D01*
X024011Y013886D02*
X024563Y013886D01*
X024563Y013888D02*
X024011Y013888D01*
X024011Y013891D02*
X024563Y013891D01*
X024563Y013893D02*
X024011Y013893D01*
X024011Y013895D02*
X024563Y013895D01*
X024563Y013898D02*
X024011Y013898D01*
X024011Y013900D02*
X024563Y013900D01*
X024563Y013903D02*
X024011Y013903D01*
X024011Y013905D02*
X024563Y013905D01*
X024563Y013908D02*
X024011Y013908D01*
X024011Y013910D02*
X024563Y013910D01*
X024563Y013913D02*
X024011Y013913D01*
X024011Y013915D02*
X024563Y013915D01*
X024563Y013918D02*
X024011Y013918D01*
X024011Y013920D02*
X024563Y013920D01*
X024563Y013923D02*
X024011Y013923D01*
X024011Y013925D02*
X024563Y013925D01*
X024563Y013928D02*
X024011Y013928D01*
X024011Y013930D02*
X024563Y013930D01*
X024563Y013933D02*
X024011Y013933D01*
X024011Y013935D02*
X024563Y013935D01*
X024563Y013938D02*
X024011Y013938D01*
X024011Y013940D02*
X024563Y013940D01*
X024563Y013943D02*
X024011Y013943D01*
X024011Y013945D02*
X024563Y013945D01*
X024563Y013948D02*
X024011Y013948D01*
X024011Y013950D02*
X024563Y013950D01*
X024563Y013953D02*
X024011Y013953D01*
X024011Y013955D02*
X024563Y013955D01*
X024563Y013957D02*
X024011Y013957D01*
X024011Y013960D02*
X024563Y013960D01*
X024563Y013962D02*
X024011Y013962D01*
X024011Y013965D02*
X024563Y013965D01*
X024563Y013967D02*
X024011Y013967D01*
X024011Y013970D02*
X024563Y013970D01*
X024563Y013972D02*
X024011Y013972D01*
X024011Y013975D02*
X024563Y013975D01*
X024563Y013977D02*
X024011Y013977D01*
X024011Y013980D02*
X024563Y013980D01*
X024563Y013982D02*
X024011Y013982D01*
X024011Y013985D02*
X024563Y013985D01*
X024563Y013987D02*
X024011Y013987D01*
X024011Y013990D02*
X024563Y013990D01*
X024563Y013992D02*
X024011Y013992D01*
X024011Y013995D02*
X024563Y013995D01*
X024563Y013997D02*
X024011Y013997D01*
X024011Y014000D02*
X024563Y014000D01*
X024563Y014002D02*
X024011Y014002D01*
X024011Y014005D02*
X024563Y014005D01*
X024563Y014007D02*
X024011Y014007D01*
X024011Y014010D02*
X024563Y014010D01*
X024563Y014012D02*
X024011Y014012D01*
X024011Y014015D02*
X024563Y014015D01*
X024563Y014017D02*
X024011Y014017D01*
X024011Y014019D02*
X024563Y014019D01*
X024563Y014022D02*
X024011Y014022D01*
X024011Y014024D02*
X024563Y014024D01*
X024563Y014027D02*
X024011Y014027D01*
X024011Y014029D02*
X024563Y014029D01*
X024563Y014032D02*
X024011Y014032D01*
X024011Y014034D02*
X024563Y014034D01*
X024563Y014037D02*
X024011Y014037D01*
X024011Y014039D02*
X024563Y014039D01*
X024563Y014042D02*
X024011Y014042D01*
X024011Y014044D02*
X024563Y014044D01*
X024563Y014047D02*
X024011Y014047D01*
X024011Y014049D02*
X024563Y014049D01*
X024563Y014052D02*
X024011Y014052D01*
X024011Y014054D02*
X024563Y014054D01*
X024563Y014057D02*
X024011Y014057D01*
X024011Y014059D02*
X024563Y014059D01*
X024563Y014062D02*
X024011Y014062D01*
X024011Y014064D02*
X024563Y014064D01*
X024563Y014067D02*
X024011Y014067D01*
X024011Y014069D02*
X024563Y014069D01*
X024563Y014072D02*
X024011Y014072D01*
X024011Y014074D02*
X024563Y014074D01*
X024563Y014077D02*
X024011Y014077D01*
X024011Y014079D02*
X024563Y014079D01*
X024563Y014081D02*
X024011Y014081D01*
X024011Y014084D02*
X024563Y014084D01*
X024563Y014086D02*
X024011Y014086D01*
X024011Y014089D02*
X024563Y014089D01*
X024563Y014091D02*
X024011Y014091D01*
X024011Y014094D02*
X024563Y014094D01*
X024563Y014096D02*
X024011Y014096D01*
X024011Y014099D02*
X024563Y014099D01*
X024563Y014101D02*
X024011Y014101D01*
X024011Y014104D02*
X024563Y014104D01*
X024563Y014106D02*
X024011Y014106D01*
X024011Y014109D02*
X024563Y014109D01*
X024563Y014111D02*
X024011Y014111D01*
X024011Y014114D02*
X024563Y014114D01*
X024563Y014116D02*
X024011Y014116D01*
X024011Y014119D02*
X024563Y014119D01*
X024563Y014121D02*
X024011Y014121D01*
X024011Y014124D02*
X024563Y014124D01*
X024563Y014126D02*
X024011Y014126D01*
X024011Y014129D02*
X024563Y014129D01*
X024563Y014131D02*
X024011Y014131D01*
X024011Y014134D02*
X024563Y014134D01*
X024563Y014136D02*
X024011Y014136D01*
X024011Y014139D02*
X024563Y014139D01*
X024563Y014141D02*
X024011Y014141D01*
X024011Y014144D02*
X024563Y014144D01*
X024563Y014146D02*
X024011Y014146D01*
X024011Y014148D02*
X024563Y014148D01*
X024563Y014151D02*
X024011Y014151D01*
X024011Y014153D02*
X024563Y014153D01*
X024563Y014156D02*
X024011Y014156D01*
X024011Y014158D02*
X024563Y014158D01*
X024563Y014161D02*
X024011Y014161D01*
X024011Y014163D02*
X024563Y014163D01*
X024563Y014166D02*
X024011Y014166D01*
X024011Y014168D02*
X024563Y014168D01*
X024563Y014171D02*
X024011Y014171D01*
X024011Y014173D02*
X024563Y014173D01*
X024563Y014176D02*
X024011Y014176D01*
X024011Y014178D02*
X024563Y014178D01*
X024563Y014181D02*
X024011Y014181D01*
X024011Y014183D02*
X024563Y014183D01*
X024563Y014186D02*
X024011Y014186D01*
X024011Y014188D02*
X024563Y014188D01*
X024563Y014191D02*
X024011Y014191D01*
X024011Y014193D02*
X024563Y014193D01*
X024563Y014196D02*
X024011Y014196D01*
X024011Y014198D02*
X024563Y014198D01*
X024563Y014201D02*
X024011Y014201D01*
X024011Y014203D02*
X024563Y014203D01*
X024563Y014206D02*
X024011Y014206D01*
X024011Y014208D02*
X024563Y014208D01*
X024563Y014210D02*
X024011Y014210D01*
X024011Y014213D02*
X024563Y014213D01*
X024563Y014215D02*
X024011Y014215D01*
X024011Y014218D02*
X024563Y014218D01*
X024563Y014220D02*
X024011Y014220D01*
X024011Y014223D02*
X024563Y014223D01*
X024563Y014225D02*
X024011Y014225D01*
X024011Y014228D02*
X024563Y014228D01*
X024563Y014230D02*
X024011Y014230D01*
X024011Y014233D02*
X024563Y014233D01*
X024563Y014235D02*
X024011Y014235D01*
X024011Y014238D02*
X024563Y014238D01*
X024563Y014240D02*
X024011Y014240D01*
X024011Y014243D02*
X024563Y014243D01*
X024563Y014245D02*
X024011Y014245D01*
X024011Y014248D02*
X024563Y014248D01*
X024563Y014250D02*
X024011Y014250D01*
X024011Y014253D02*
X024563Y014253D01*
X024563Y014255D02*
X024011Y014255D01*
X024011Y014258D02*
X024563Y014258D01*
X024563Y014260D02*
X024011Y014260D01*
X024011Y014263D02*
X024563Y014263D01*
X024563Y014265D02*
X024011Y014265D01*
X024011Y014268D02*
X024563Y014268D01*
X024563Y014270D02*
X024011Y014270D01*
X024011Y014272D02*
X024563Y014272D01*
X024563Y014275D02*
X024011Y014275D01*
X024011Y014277D02*
X024563Y014277D01*
X024563Y014280D02*
X024011Y014280D01*
X024011Y014282D02*
X024563Y014282D01*
X024563Y014285D02*
X024011Y014285D01*
X024011Y014287D02*
X024563Y014287D01*
X024563Y014290D02*
X024011Y014290D01*
X024011Y014292D02*
X024563Y014292D01*
X024563Y014295D02*
X024011Y014295D01*
X024011Y014297D02*
X024563Y014297D01*
X024563Y014300D02*
X024011Y014300D01*
X024011Y014302D02*
X024563Y014302D01*
X024563Y014305D02*
X024011Y014305D01*
X024011Y014307D02*
X024563Y014307D01*
X024563Y014310D02*
X024011Y014310D01*
X024011Y014312D02*
X024563Y014312D01*
X024563Y014315D02*
X024011Y014315D01*
X024011Y014317D02*
X024563Y014317D01*
X024563Y014320D02*
X024011Y014320D01*
X024011Y014322D02*
X024563Y014322D01*
X024563Y014325D02*
X024011Y014325D01*
X024011Y014327D02*
X024563Y014327D01*
X024563Y014330D02*
X024011Y014330D01*
X024011Y014332D02*
X024563Y014332D01*
X024563Y014334D02*
X024011Y014334D01*
X024011Y014337D02*
X024563Y014337D01*
X024563Y014339D02*
X024011Y014339D01*
X024011Y014342D02*
X024563Y014342D01*
X024563Y014344D02*
X024011Y014344D01*
X024011Y014347D02*
X024563Y014347D01*
X024563Y014349D02*
X024011Y014349D01*
X024011Y014352D02*
X024563Y014352D01*
X024563Y014354D02*
X024011Y014354D01*
X024011Y014357D02*
X024563Y014357D01*
X024563Y014359D02*
X024011Y014359D01*
X024011Y014362D02*
X024563Y014362D01*
X024563Y014364D02*
X024011Y014364D01*
X024011Y014367D02*
X024563Y014367D01*
X024563Y014369D02*
X024011Y014369D01*
X024011Y014372D02*
X024563Y014372D01*
X024563Y014374D02*
X024011Y014374D01*
X024011Y014377D02*
X024563Y014377D01*
X024563Y014379D02*
X024011Y014379D01*
X024011Y014382D02*
X024563Y014382D01*
X024563Y014384D02*
X024011Y014384D01*
X024011Y014387D02*
X024563Y014387D01*
X024563Y014389D02*
X024011Y014389D01*
X024011Y014392D02*
X024563Y014392D01*
X024563Y014394D02*
X024011Y014394D01*
X024011Y014396D02*
X024563Y014396D01*
X024563Y014399D02*
X024011Y014399D01*
X024011Y014401D02*
X024563Y014401D01*
X024563Y014404D02*
X024011Y014404D01*
X024011Y014406D02*
X024563Y014406D01*
X024563Y014409D02*
X024011Y014409D01*
X024011Y014411D02*
X024563Y014411D01*
X024563Y014414D02*
X024011Y014414D01*
X024011Y014416D02*
X024563Y014416D01*
X024563Y014419D02*
X024011Y014419D01*
X024011Y014421D02*
X024563Y014421D01*
X024563Y014424D02*
X024011Y014424D01*
X024011Y014426D02*
X024563Y014426D01*
X024563Y014429D02*
X024011Y014429D01*
X024011Y014431D02*
X024563Y014431D01*
X024563Y014434D02*
X024011Y014434D01*
X024011Y014436D02*
X024563Y014436D01*
X024563Y014439D02*
X024011Y014439D01*
X024011Y014441D02*
X024563Y014441D01*
X024563Y014444D02*
X024011Y014444D01*
X024011Y014446D02*
X024563Y014446D01*
X024563Y014449D02*
X024011Y014449D01*
X024011Y014451D02*
X024563Y014451D01*
X024563Y014454D02*
X024011Y014454D01*
X024011Y014456D02*
X024563Y014456D01*
X024563Y014459D02*
X024011Y014459D01*
X024011Y014461D02*
X024563Y014461D01*
X024563Y014463D02*
X024011Y014463D01*
X024011Y014466D02*
X024563Y014466D01*
X024563Y014468D02*
X024011Y014468D01*
X024011Y014471D02*
X024563Y014471D01*
X024563Y014473D02*
X024011Y014473D01*
X024011Y014476D02*
X024563Y014476D01*
X024563Y014478D02*
X024011Y014478D01*
X024011Y014481D02*
X024563Y014481D01*
X024563Y014483D02*
X024011Y014483D01*
X024011Y014486D02*
X024563Y014486D01*
X024563Y014488D02*
X024011Y014488D01*
X024011Y014491D02*
X024563Y014491D01*
X024563Y014493D02*
X024011Y014493D01*
X024011Y014496D02*
X024563Y014496D01*
X024563Y014498D02*
X024011Y014498D01*
X024011Y014501D02*
X024563Y014501D01*
X024563Y014503D02*
X024011Y014503D01*
X024011Y014506D02*
X024563Y014506D01*
X024563Y014508D02*
X024011Y014508D01*
X024011Y014511D02*
X024563Y014511D01*
X024563Y014513D02*
X024011Y014513D01*
X024011Y014516D02*
X024563Y014516D01*
X024563Y014518D02*
X024011Y014518D01*
X024011Y014521D02*
X024563Y014521D01*
X024563Y014523D02*
X024011Y014523D01*
X024011Y014525D02*
X024563Y014525D01*
X024563Y014528D02*
X024011Y014528D01*
X024011Y014530D02*
X024563Y014530D01*
X024563Y014533D02*
X024011Y014533D01*
X024011Y014535D02*
X024563Y014535D01*
X024563Y014538D02*
X024011Y014538D01*
X024011Y014540D02*
X024563Y014540D01*
X024563Y014543D02*
X024011Y014543D01*
X024011Y014545D02*
X024563Y014545D01*
X024563Y014548D02*
X024011Y014548D01*
X024011Y014550D02*
X024563Y014550D01*
X024563Y014553D02*
X024011Y014553D01*
X024011Y014555D02*
X024563Y014555D01*
X024563Y014558D02*
X024011Y014558D01*
X024011Y014560D02*
X024563Y014560D01*
X024563Y014563D02*
X024011Y014563D01*
X024011Y014565D02*
X024563Y014565D01*
X024563Y014568D02*
X024011Y014568D01*
X024011Y014570D02*
X024563Y014570D01*
X024563Y014573D02*
X024011Y014573D01*
X024011Y014575D02*
X024563Y014575D01*
X024563Y014578D02*
X024011Y014578D01*
X024011Y014580D02*
X024563Y014580D01*
X024563Y014583D02*
X024011Y014583D01*
X024011Y014585D02*
X024563Y014585D01*
X024563Y014587D02*
X024011Y014587D01*
X024011Y014590D02*
X024563Y014590D01*
X024563Y014592D02*
X024011Y014592D01*
X024011Y014595D02*
X024563Y014595D01*
X024563Y014597D02*
X024011Y014597D01*
X024011Y014600D02*
X024563Y014600D01*
X024563Y014602D02*
X024011Y014602D01*
X024011Y014605D02*
X024563Y014605D01*
X024563Y014607D02*
X024011Y014607D01*
X024011Y014610D02*
X024563Y014610D01*
X024563Y014612D02*
X024011Y014612D01*
X024011Y014615D02*
X024563Y014615D01*
X024563Y014617D02*
X024011Y014617D01*
X024011Y014620D02*
X024563Y014620D01*
X024563Y014622D02*
X024011Y014622D01*
X024011Y014625D02*
X024563Y014625D01*
X024563Y014627D02*
X024011Y014627D01*
X024011Y014630D02*
X024563Y014630D01*
X024563Y014632D02*
X024011Y014632D01*
X024011Y014635D02*
X024563Y014635D01*
X024563Y014637D02*
X024011Y014637D01*
X024011Y014640D02*
X024563Y014640D01*
X024563Y014642D02*
X024011Y014642D01*
X024011Y014645D02*
X024563Y014645D01*
X024563Y014647D02*
X024011Y014647D01*
X024011Y014649D02*
X024563Y014649D01*
X024563Y014652D02*
X024011Y014652D01*
X024011Y014654D02*
X024563Y014654D01*
X024563Y014657D02*
X024011Y014657D01*
X024011Y014659D02*
X024563Y014659D01*
X024563Y014662D02*
X024011Y014662D01*
X024011Y014664D02*
X024563Y014664D01*
X024563Y014667D02*
X024011Y014667D01*
X024011Y014669D02*
X024563Y014669D01*
X024563Y014672D02*
X024011Y014672D01*
X024011Y014674D02*
X024563Y014674D01*
X024563Y014677D02*
X024011Y014677D01*
X024011Y014679D02*
X024563Y014679D01*
X024563Y014682D02*
X024011Y014682D01*
X024011Y014684D02*
X024563Y014684D01*
X024563Y014687D02*
X024011Y014687D01*
X024011Y014689D02*
X024563Y014689D01*
X024563Y014692D02*
X024011Y014692D01*
X024011Y014694D02*
X024563Y014694D01*
X024563Y014697D02*
X024011Y014697D01*
X024011Y014699D02*
X024563Y014699D01*
X024563Y014702D02*
X024011Y014702D01*
X024011Y014704D02*
X024563Y014704D01*
X024563Y014707D02*
X024011Y014707D01*
X024011Y014709D02*
X024563Y014709D01*
X024563Y014711D02*
X024011Y014711D01*
X024011Y014714D02*
X024563Y014714D01*
X024563Y014716D02*
X024011Y014716D01*
X024011Y014719D02*
X024563Y014719D01*
X024563Y014721D02*
X024011Y014721D01*
X024011Y014724D02*
X024563Y014724D01*
X024563Y014726D02*
X024011Y014726D01*
X024011Y014729D02*
X024563Y014729D01*
X024563Y014731D02*
X024011Y014731D01*
X024011Y014734D02*
X024563Y014734D01*
X024563Y014736D02*
X024011Y014736D01*
X024011Y014739D02*
X024563Y014739D01*
X024563Y014741D02*
X024011Y014741D01*
X024011Y014744D02*
X024563Y014744D01*
X024563Y014746D02*
X024011Y014746D01*
X024011Y014749D02*
X024563Y014749D01*
X024563Y014751D02*
X024011Y014751D01*
X024011Y014754D02*
X024563Y014754D01*
X024563Y014756D02*
X024011Y014756D01*
X024011Y014759D02*
X024563Y014759D01*
X024563Y014761D02*
X024011Y014761D01*
X024011Y014764D02*
X024563Y014764D01*
X024563Y014766D02*
X024011Y014766D01*
X024011Y014769D02*
X024563Y014769D01*
X024563Y014771D02*
X024011Y014771D01*
X024011Y014774D02*
X024563Y014774D01*
X024563Y014776D02*
X024011Y014776D01*
X024011Y014778D02*
X024563Y014778D01*
X024563Y014781D02*
X024011Y014781D01*
X024011Y014783D02*
X024563Y014783D01*
X024563Y014786D02*
X024011Y014786D01*
X024011Y014788D02*
X024563Y014788D01*
X024563Y014791D02*
X024011Y014791D01*
X024011Y014793D02*
X024563Y014793D01*
X024563Y014796D02*
X024011Y014796D01*
X024011Y014798D02*
X024563Y014798D01*
X024563Y014801D02*
X024011Y014801D01*
X024011Y014803D02*
X024563Y014803D01*
X024563Y014806D02*
X024011Y014806D01*
X024011Y014808D02*
X024563Y014808D01*
X024563Y014811D02*
X024011Y014811D01*
X024011Y014813D02*
X024563Y014813D01*
X024563Y014816D02*
X024011Y014816D01*
X024011Y014818D02*
X024563Y014818D01*
X024563Y014821D02*
X024011Y014821D01*
X024011Y014823D02*
X024563Y014823D01*
X024563Y014826D02*
X024011Y014826D01*
X024011Y014828D02*
X024563Y014828D01*
X024563Y014831D02*
X024011Y014831D01*
X024011Y014833D02*
X024563Y014833D01*
X024563Y014836D02*
X024011Y014836D01*
X024011Y014838D02*
X024563Y014838D01*
X024563Y014840D02*
X024011Y014840D01*
X024011Y014843D02*
X024563Y014843D01*
X024563Y014845D02*
X024011Y014845D01*
X024011Y014848D02*
X024563Y014848D01*
X024563Y014850D02*
X024011Y014850D01*
X024011Y014853D02*
X024563Y014853D01*
X024563Y014855D02*
X024011Y014855D01*
X024011Y014858D02*
X024563Y014858D01*
X024563Y014860D02*
X024011Y014860D01*
X024011Y014863D02*
X024563Y014863D01*
X024563Y014865D02*
X024011Y014865D01*
X024011Y014868D02*
X024563Y014868D01*
X024563Y014870D02*
X024011Y014870D01*
X024011Y014873D02*
X024563Y014873D01*
X024563Y014875D02*
X024011Y014875D01*
X024011Y014878D02*
X024563Y014878D01*
X024563Y014880D02*
X024011Y014880D01*
X024011Y014883D02*
X024563Y014883D01*
X024563Y014885D02*
X024011Y014885D01*
X024011Y014888D02*
X024563Y014888D01*
X024563Y014890D02*
X024011Y014890D01*
X024011Y014893D02*
X024563Y014893D01*
X024563Y014895D02*
X024011Y014895D01*
X024011Y014898D02*
X024566Y014898D01*
X024568Y014900D02*
X024011Y014900D01*
X024011Y014902D02*
X024571Y014902D01*
X024573Y014905D02*
X024011Y014905D01*
X024011Y014907D02*
X024576Y014907D01*
X024578Y014910D02*
X024011Y014910D01*
X024011Y014912D02*
X024581Y014912D01*
X024583Y014915D02*
X024011Y014915D01*
X024011Y014917D02*
X024586Y014917D01*
X024588Y014920D02*
X024011Y014920D01*
X024011Y014922D02*
X024591Y014922D01*
X024593Y014925D02*
X024011Y014925D01*
X024011Y014927D02*
X024596Y014927D01*
X024598Y014930D02*
X024011Y014930D01*
X024011Y014932D02*
X024601Y014932D01*
X024603Y014935D02*
X024011Y014935D01*
X024011Y014937D02*
X024606Y014937D01*
X024608Y014940D02*
X024011Y014940D01*
X024011Y014942D02*
X024611Y014942D01*
X024613Y014945D02*
X024011Y014945D01*
X024011Y014947D02*
X024615Y014947D01*
X024618Y014950D02*
X024011Y014950D01*
X024011Y014952D02*
X024620Y014952D01*
X024623Y014955D02*
X024011Y014955D01*
X024011Y014957D02*
X024625Y014957D01*
X024628Y014960D02*
X024011Y014960D01*
X024011Y014962D02*
X024630Y014962D01*
X024633Y014964D02*
X024011Y014964D01*
X024011Y014967D02*
X024635Y014967D01*
X024638Y014969D02*
X024011Y014969D01*
X024011Y014972D02*
X024640Y014972D01*
X024643Y014974D02*
X024011Y014974D01*
X024011Y014977D02*
X024645Y014977D01*
X024648Y014979D02*
X024011Y014979D01*
X024011Y014982D02*
X024650Y014982D01*
X024653Y014984D02*
X024011Y014984D01*
X024011Y014987D02*
X024655Y014987D01*
X024658Y014989D02*
X024011Y014989D01*
X024011Y014992D02*
X024660Y014992D01*
X024011Y013692D02*
X025862Y013692D01*
X025862Y013690D02*
X024011Y013690D01*
X024011Y013687D02*
X025862Y013687D01*
X025862Y013685D02*
X024011Y013685D01*
X024011Y013682D02*
X025862Y013682D01*
X025862Y013680D02*
X024011Y013680D01*
X024011Y013677D02*
X025862Y013677D01*
X025862Y013675D02*
X024011Y013675D01*
X024011Y013672D02*
X025862Y013672D01*
X025862Y013670D02*
X024011Y013670D01*
X024011Y013667D02*
X025862Y013667D01*
X025862Y013665D02*
X024011Y013665D01*
X024011Y013662D02*
X025862Y013662D01*
X025862Y013660D02*
X024011Y013660D01*
X024011Y013657D02*
X025862Y013657D01*
X025862Y013655D02*
X024011Y013655D01*
X024011Y013652D02*
X025862Y013652D01*
X025862Y013650D02*
X024011Y013650D01*
X024011Y013647D02*
X025862Y013647D01*
X025862Y013645D02*
X024011Y013645D01*
X024011Y013642D02*
X025862Y013642D01*
X025862Y013640D02*
X024011Y013640D01*
X024011Y013638D02*
X025862Y013638D01*
X025862Y013635D02*
X024011Y013635D01*
X024011Y013633D02*
X025862Y013633D01*
X025862Y013630D02*
X024011Y013630D01*
X024011Y013628D02*
X025862Y013628D01*
X025862Y013625D02*
X024011Y013625D01*
X024011Y013623D02*
X025862Y013623D01*
X025862Y013620D02*
X024011Y013620D01*
X024011Y013618D02*
X025862Y013618D01*
X025862Y013615D02*
X024011Y013615D01*
X024011Y013613D02*
X025862Y013613D01*
X025862Y013610D02*
X024011Y013610D01*
X024011Y013608D02*
X025862Y013608D01*
X025862Y013605D02*
X024011Y013605D01*
X024011Y013603D02*
X025862Y013603D01*
X025862Y013600D02*
X024011Y013600D01*
X024011Y013598D02*
X025862Y013598D01*
X025862Y013595D02*
X024011Y013595D01*
X024011Y013593D02*
X025862Y013593D01*
X025862Y013590D02*
X024011Y013590D01*
X024011Y013588D02*
X025862Y013588D01*
X025862Y013585D02*
X024011Y013585D01*
X024011Y013583D02*
X025862Y013583D01*
X025862Y013580D02*
X024011Y013580D01*
X024011Y013578D02*
X025862Y013578D01*
X025862Y013576D02*
X024011Y013576D01*
X024011Y013573D02*
X025862Y013573D01*
X025862Y013571D02*
X024011Y013571D01*
X024011Y013568D02*
X025862Y013568D01*
X025862Y013566D02*
X024011Y013566D01*
X024011Y013563D02*
X025862Y013563D01*
X025862Y013561D02*
X024011Y013561D01*
X024011Y013558D02*
X025862Y013558D01*
X025862Y013556D02*
X024011Y013556D01*
X024011Y013553D02*
X025862Y013553D01*
X025862Y013551D02*
X024011Y013551D01*
X024011Y013548D02*
X025862Y013548D01*
X025862Y013546D02*
X024011Y013546D01*
X024011Y013543D02*
X025862Y013543D01*
X025862Y013541D02*
X024011Y013541D01*
X024011Y013538D02*
X025862Y013538D01*
X025862Y013536D02*
X024011Y013536D01*
X024011Y013533D02*
X025862Y013533D01*
X025862Y013531D02*
X024011Y013531D01*
X024011Y013528D02*
X025862Y013528D01*
X025862Y013526D02*
X024011Y013526D01*
X024011Y013523D02*
X025862Y013523D01*
X025862Y013521D02*
X024011Y013521D01*
X024011Y013518D02*
X025862Y013518D01*
X025861Y013516D02*
X024012Y013516D01*
X024014Y013514D02*
X025859Y013514D01*
X025857Y013511D02*
X024017Y013511D01*
X024019Y013509D02*
X025854Y013509D01*
X025852Y013506D02*
X024021Y013506D01*
X024024Y013504D02*
X025849Y013504D01*
X025847Y013501D02*
X024026Y013501D01*
X024029Y013499D02*
X025844Y013499D01*
X025842Y013496D02*
X024031Y013496D01*
X024034Y013494D02*
X025839Y013494D01*
X025837Y013491D02*
X024036Y013491D01*
X024039Y013489D02*
X025834Y013489D01*
X025832Y013486D02*
X024041Y013486D01*
X024044Y013484D02*
X025829Y013484D01*
X025827Y013481D02*
X024046Y013481D01*
X024049Y013479D02*
X025824Y013479D01*
X025822Y013476D02*
X024051Y013476D01*
X024054Y013474D02*
X025819Y013474D01*
X025817Y013471D02*
X024056Y013471D01*
X024059Y013469D02*
X025814Y013469D01*
X025812Y013466D02*
X024061Y013466D01*
X024064Y013464D02*
X025809Y013464D01*
X025807Y013461D02*
X024066Y013461D01*
X024069Y013459D02*
X025804Y013459D01*
X025802Y013456D02*
X024071Y013456D01*
X024074Y013454D02*
X025799Y013454D01*
X025797Y013451D02*
X024076Y013451D01*
X024079Y013449D02*
X025795Y013449D01*
X025792Y013447D02*
X024081Y013447D01*
X024084Y013444D02*
X025790Y013444D01*
X025787Y013442D02*
X024086Y013442D01*
X024088Y013439D02*
X025785Y013439D01*
X025782Y013437D02*
X024091Y013437D01*
X024093Y013434D02*
X025780Y013434D01*
X025777Y013432D02*
X024096Y013432D01*
X024098Y013429D02*
X025775Y013429D01*
X025772Y013427D02*
X024101Y013427D01*
X024103Y013424D02*
X025770Y013424D01*
X025767Y013422D02*
X024106Y013422D01*
X024108Y013419D02*
X025765Y013419D01*
X025762Y013417D02*
X024111Y013417D01*
X024113Y013414D02*
X025760Y013414D01*
X025757Y013412D02*
X024116Y013412D01*
X024118Y013409D02*
X025755Y013409D01*
X025752Y013407D02*
X024121Y013407D01*
X024123Y013404D02*
X025750Y013404D01*
X025747Y013402D02*
X024126Y013402D01*
X024128Y013399D02*
X025745Y013399D01*
X025742Y013397D02*
X024131Y013397D01*
X024133Y013394D02*
X025740Y013394D01*
X025737Y013392D02*
X024136Y013392D01*
X024138Y013389D02*
X025735Y013389D01*
X025733Y013387D02*
X024141Y013387D01*
X024143Y013385D02*
X025730Y013385D01*
X025728Y013382D02*
X024146Y013382D01*
X024148Y013380D02*
X025725Y013380D01*
X025723Y013377D02*
X024150Y013377D01*
X024153Y013375D02*
X025720Y013375D01*
X025718Y013372D02*
X024155Y013372D01*
X024158Y013370D02*
X025715Y013370D01*
X025713Y013367D02*
X024160Y013367D01*
X024163Y013365D02*
X025710Y013365D01*
X025708Y013362D02*
X024165Y013362D01*
X024168Y013360D02*
X025705Y013360D01*
X025703Y013357D02*
X024170Y013357D01*
X024173Y013355D02*
X025700Y013355D01*
X025698Y013352D02*
X024175Y013352D01*
X024178Y013350D02*
X025695Y013350D01*
X025693Y013347D02*
X024180Y013347D01*
X024183Y013345D02*
X025690Y013345D01*
X025688Y013342D02*
X024185Y013342D01*
X024188Y013340D02*
X025685Y013340D01*
X025683Y013337D02*
X024190Y013337D01*
X024193Y013335D02*
X025680Y013335D01*
X025678Y013332D02*
X024195Y013332D01*
X024198Y013330D02*
X025675Y013330D01*
X025673Y013327D02*
X024200Y013327D01*
X024203Y013325D02*
X025671Y013325D01*
X025668Y013323D02*
X024205Y013323D01*
X024208Y013320D02*
X025666Y013320D01*
X025663Y013318D02*
X024210Y013318D01*
X024212Y013315D02*
X025661Y013315D01*
X025658Y013313D02*
X024215Y013313D01*
X024217Y013310D02*
X025656Y013310D01*
X025653Y013308D02*
X024220Y013308D01*
X024222Y013305D02*
X025651Y013305D01*
X025648Y013303D02*
X024225Y013303D01*
X024227Y013300D02*
X025646Y013300D01*
X025643Y013298D02*
X024230Y013298D01*
X024232Y013295D02*
X025641Y013295D01*
X025638Y013293D02*
X024235Y013293D01*
X024237Y013290D02*
X025636Y013290D01*
X025633Y013288D02*
X024240Y013288D01*
X024242Y013285D02*
X025631Y013285D01*
X025628Y013283D02*
X024245Y013283D01*
X024247Y013280D02*
X025626Y013280D01*
X025623Y013278D02*
X024250Y013278D01*
X024252Y013275D02*
X025621Y013275D01*
X025618Y013273D02*
X024255Y013273D01*
X024257Y013270D02*
X025616Y013270D01*
X025613Y013268D02*
X024260Y013268D01*
X024262Y013265D02*
X025611Y013265D01*
X025609Y013263D02*
X024265Y013263D01*
X024267Y013261D02*
X025606Y013261D01*
X025604Y013258D02*
X024270Y013258D01*
X024272Y013256D02*
X025601Y013256D01*
X025599Y013253D02*
X024274Y013253D01*
X024277Y013251D02*
X025596Y013251D01*
X025594Y013248D02*
X024279Y013248D01*
X024282Y013246D02*
X025591Y013246D01*
X025589Y013243D02*
X024284Y013243D01*
X024287Y013241D02*
X025586Y013241D01*
X025584Y013238D02*
X024289Y013238D01*
X024292Y013236D02*
X025581Y013236D01*
X025579Y013233D02*
X024294Y013233D01*
X024297Y013231D02*
X025576Y013231D01*
X025574Y013228D02*
X024299Y013228D01*
X024302Y013226D02*
X025571Y013226D01*
X025569Y013223D02*
X024304Y013223D01*
X024307Y013221D02*
X025566Y013221D01*
X025564Y013218D02*
X024309Y013218D01*
X024312Y013216D02*
X025561Y013216D01*
X025559Y013213D02*
X024314Y013213D01*
X024317Y013211D02*
X025556Y013211D01*
X025554Y013208D02*
X024319Y013208D01*
X024322Y013206D02*
X025551Y013206D01*
X025549Y013203D02*
X024324Y013203D01*
X024327Y013201D02*
X025546Y013201D01*
X025544Y013199D02*
X024329Y013199D01*
X024332Y013196D02*
X025542Y013196D01*
X025539Y013194D02*
X024334Y013194D01*
X024336Y013191D02*
X025537Y013191D01*
X025534Y013189D02*
X024339Y013189D01*
X024341Y013186D02*
X025532Y013186D01*
X025529Y013184D02*
X024344Y013184D01*
X024346Y013181D02*
X025527Y013181D01*
X025524Y013179D02*
X024349Y013179D01*
X024351Y013176D02*
X025522Y013176D01*
X025519Y013174D02*
X024354Y013174D01*
X024356Y013171D02*
X025517Y013171D01*
X025514Y013169D02*
X024359Y013169D01*
X024361Y013166D02*
X025512Y013166D01*
X025509Y013164D02*
X024364Y013164D01*
X024366Y013161D02*
X025507Y013161D01*
X025504Y013159D02*
X024369Y013159D01*
X024371Y013156D02*
X025502Y013156D01*
X025499Y013154D02*
X024374Y013154D01*
X024376Y013151D02*
X025497Y013151D01*
X025494Y013149D02*
X024379Y013149D01*
X024381Y013146D02*
X025492Y013146D01*
X025489Y013144D02*
X024384Y013144D01*
X024386Y013141D02*
X025487Y013141D01*
X025484Y013139D02*
X024389Y013139D01*
X024391Y013136D02*
X025482Y013136D01*
X025480Y013134D02*
X024394Y013134D01*
X024396Y013132D02*
X025477Y013132D01*
X025475Y013129D02*
X024399Y013129D01*
X024401Y013127D02*
X025472Y013127D01*
X025470Y013124D02*
X024403Y013124D01*
X024406Y013122D02*
X025467Y013122D01*
X025465Y013119D02*
X024408Y013119D01*
X024411Y013117D02*
X025462Y013117D01*
X025460Y013114D02*
X024413Y013114D01*
X024416Y013112D02*
X025457Y013112D01*
X025455Y013109D02*
X024418Y013109D01*
X024421Y013107D02*
X025452Y013107D01*
X025450Y013104D02*
X024423Y013104D01*
M02*
