G75*
G70*
%OFA0B0*%
%FSLAX24Y24*%
%IPPOS*%
%LPD*%
%AMOC8*
5,1,8,0,0,1.08239X$1,22.5*
%
%ADD10C,0.0000*%
%ADD11R,0.0118X0.0630*%
%ADD12R,0.0433X0.0394*%
%ADD13R,0.0551X0.0630*%
%ADD14R,0.0315X0.0315*%
%ADD15R,0.0290X0.1100*%
%ADD16C,0.0472*%
%ADD17R,0.0400X0.0400*%
%ADD18C,0.0400*%
%ADD19R,0.0299X0.0500*%
%ADD20R,0.1150X0.0500*%
%ADD21R,0.0650X0.1350*%
%ADD22C,0.0098*%
%ADD23C,0.0218*%
%ADD24C,0.0157*%
%ADD25C,0.0237*%
%ADD26C,0.0197*%
%ADD27C,0.0079*%
%ADD28C,0.0591*%
%ADD29C,0.0217*%
%ADD30C,0.0138*%
D10*
X014090Y000524D02*
X014090Y017847D01*
X030232Y017847D01*
X030232Y000524D01*
X014090Y000524D01*
X020941Y001311D02*
X020943Y001352D01*
X020949Y001393D01*
X020959Y001433D01*
X020972Y001472D01*
X020989Y001509D01*
X021010Y001545D01*
X021034Y001579D01*
X021061Y001610D01*
X021090Y001638D01*
X021123Y001664D01*
X021157Y001686D01*
X021194Y001705D01*
X021232Y001720D01*
X021272Y001732D01*
X021312Y001740D01*
X021353Y001744D01*
X021395Y001744D01*
X021436Y001740D01*
X021476Y001732D01*
X021516Y001720D01*
X021554Y001705D01*
X021590Y001686D01*
X021625Y001664D01*
X021658Y001638D01*
X021687Y001610D01*
X021714Y001579D01*
X021738Y001545D01*
X021759Y001509D01*
X021776Y001472D01*
X021789Y001433D01*
X021799Y001393D01*
X021805Y001352D01*
X021807Y001311D01*
X021805Y001270D01*
X021799Y001229D01*
X021789Y001189D01*
X021776Y001150D01*
X021759Y001113D01*
X021738Y001077D01*
X021714Y001043D01*
X021687Y001012D01*
X021658Y000984D01*
X021625Y000958D01*
X021591Y000936D01*
X021554Y000917D01*
X021516Y000902D01*
X021476Y000890D01*
X021436Y000882D01*
X021395Y000878D01*
X021353Y000878D01*
X021312Y000882D01*
X021272Y000890D01*
X021232Y000902D01*
X021194Y000917D01*
X021158Y000936D01*
X021123Y000958D01*
X021090Y000984D01*
X021061Y001012D01*
X021034Y001043D01*
X021010Y001077D01*
X020989Y001113D01*
X020972Y001150D01*
X020959Y001189D01*
X020949Y001229D01*
X020943Y001270D01*
X020941Y001311D01*
X028815Y001311D02*
X028817Y001352D01*
X028823Y001393D01*
X028833Y001433D01*
X028846Y001472D01*
X028863Y001509D01*
X028884Y001545D01*
X028908Y001579D01*
X028935Y001610D01*
X028964Y001638D01*
X028997Y001664D01*
X029031Y001686D01*
X029068Y001705D01*
X029106Y001720D01*
X029146Y001732D01*
X029186Y001740D01*
X029227Y001744D01*
X029269Y001744D01*
X029310Y001740D01*
X029350Y001732D01*
X029390Y001720D01*
X029428Y001705D01*
X029464Y001686D01*
X029499Y001664D01*
X029532Y001638D01*
X029561Y001610D01*
X029588Y001579D01*
X029612Y001545D01*
X029633Y001509D01*
X029650Y001472D01*
X029663Y001433D01*
X029673Y001393D01*
X029679Y001352D01*
X029681Y001311D01*
X029679Y001270D01*
X029673Y001229D01*
X029663Y001189D01*
X029650Y001150D01*
X029633Y001113D01*
X029612Y001077D01*
X029588Y001043D01*
X029561Y001012D01*
X029532Y000984D01*
X029499Y000958D01*
X029465Y000936D01*
X029428Y000917D01*
X029390Y000902D01*
X029350Y000890D01*
X029310Y000882D01*
X029269Y000878D01*
X029227Y000878D01*
X029186Y000882D01*
X029146Y000890D01*
X029106Y000902D01*
X029068Y000917D01*
X029032Y000936D01*
X028997Y000958D01*
X028964Y000984D01*
X028935Y001012D01*
X028908Y001043D01*
X028884Y001077D01*
X028863Y001113D01*
X028846Y001150D01*
X028833Y001189D01*
X028823Y001229D01*
X028817Y001270D01*
X028815Y001311D01*
X028815Y017060D02*
X028817Y017101D01*
X028823Y017142D01*
X028833Y017182D01*
X028846Y017221D01*
X028863Y017258D01*
X028884Y017294D01*
X028908Y017328D01*
X028935Y017359D01*
X028964Y017387D01*
X028997Y017413D01*
X029031Y017435D01*
X029068Y017454D01*
X029106Y017469D01*
X029146Y017481D01*
X029186Y017489D01*
X029227Y017493D01*
X029269Y017493D01*
X029310Y017489D01*
X029350Y017481D01*
X029390Y017469D01*
X029428Y017454D01*
X029464Y017435D01*
X029499Y017413D01*
X029532Y017387D01*
X029561Y017359D01*
X029588Y017328D01*
X029612Y017294D01*
X029633Y017258D01*
X029650Y017221D01*
X029663Y017182D01*
X029673Y017142D01*
X029679Y017101D01*
X029681Y017060D01*
X029679Y017019D01*
X029673Y016978D01*
X029663Y016938D01*
X029650Y016899D01*
X029633Y016862D01*
X029612Y016826D01*
X029588Y016792D01*
X029561Y016761D01*
X029532Y016733D01*
X029499Y016707D01*
X029465Y016685D01*
X029428Y016666D01*
X029390Y016651D01*
X029350Y016639D01*
X029310Y016631D01*
X029269Y016627D01*
X029227Y016627D01*
X029186Y016631D01*
X029146Y016639D01*
X029106Y016651D01*
X029068Y016666D01*
X029032Y016685D01*
X028997Y016707D01*
X028964Y016733D01*
X028935Y016761D01*
X028908Y016792D01*
X028884Y016826D01*
X028863Y016862D01*
X028846Y016899D01*
X028833Y016938D01*
X028823Y016978D01*
X028817Y017019D01*
X028815Y017060D01*
X020941Y017060D02*
X020943Y017101D01*
X020949Y017142D01*
X020959Y017182D01*
X020972Y017221D01*
X020989Y017258D01*
X021010Y017294D01*
X021034Y017328D01*
X021061Y017359D01*
X021090Y017387D01*
X021123Y017413D01*
X021157Y017435D01*
X021194Y017454D01*
X021232Y017469D01*
X021272Y017481D01*
X021312Y017489D01*
X021353Y017493D01*
X021395Y017493D01*
X021436Y017489D01*
X021476Y017481D01*
X021516Y017469D01*
X021554Y017454D01*
X021590Y017435D01*
X021625Y017413D01*
X021658Y017387D01*
X021687Y017359D01*
X021714Y017328D01*
X021738Y017294D01*
X021759Y017258D01*
X021776Y017221D01*
X021789Y017182D01*
X021799Y017142D01*
X021805Y017101D01*
X021807Y017060D01*
X021805Y017019D01*
X021799Y016978D01*
X021789Y016938D01*
X021776Y016899D01*
X021759Y016862D01*
X021738Y016826D01*
X021714Y016792D01*
X021687Y016761D01*
X021658Y016733D01*
X021625Y016707D01*
X021591Y016685D01*
X021554Y016666D01*
X021516Y016651D01*
X021476Y016639D01*
X021436Y016631D01*
X021395Y016627D01*
X021353Y016627D01*
X021312Y016631D01*
X021272Y016639D01*
X021232Y016651D01*
X021194Y016666D01*
X021158Y016685D01*
X021123Y016707D01*
X021090Y016733D01*
X021061Y016761D01*
X021034Y016792D01*
X021010Y016826D01*
X020989Y016862D01*
X020972Y016899D01*
X020959Y016938D01*
X020949Y016978D01*
X020943Y017019D01*
X020941Y017060D01*
D11*
G36*
X022935Y011202D02*
X023049Y011171D01*
X022887Y010564D01*
X022773Y010595D01*
X022935Y011202D01*
G37*
G36*
X023125Y011151D02*
X023239Y011120D01*
X023077Y010513D01*
X022963Y010544D01*
X023125Y011151D01*
G37*
G36*
X023315Y011100D02*
X023429Y011069D01*
X023267Y010462D01*
X023153Y010493D01*
X023315Y011100D01*
G37*
G36*
X023505Y011049D02*
X023619Y011018D01*
X023457Y010411D01*
X023343Y010442D01*
X023505Y011049D01*
G37*
G36*
X023695Y010998D02*
X023809Y010967D01*
X023647Y010360D01*
X023533Y010391D01*
X023695Y010998D01*
G37*
G36*
X023885Y010947D02*
X023999Y010916D01*
X023837Y010309D01*
X023723Y010340D01*
X023885Y010947D01*
G37*
G36*
X024076Y010896D02*
X024190Y010865D01*
X024028Y010258D01*
X023914Y010289D01*
X024076Y010896D01*
G37*
G36*
X024266Y010845D02*
X024380Y010814D01*
X024218Y010207D01*
X024104Y010238D01*
X024266Y010845D01*
G37*
G36*
X024456Y010794D02*
X024570Y010763D01*
X024408Y010156D01*
X024294Y010187D01*
X024456Y010794D01*
G37*
G36*
X024646Y010743D02*
X024760Y010712D01*
X024598Y010105D01*
X024484Y010136D01*
X024646Y010743D01*
G37*
G36*
X024836Y010692D02*
X024950Y010661D01*
X024788Y010054D01*
X024674Y010085D01*
X024836Y010692D01*
G37*
G36*
X025026Y010641D02*
X025140Y010610D01*
X024978Y010003D01*
X024864Y010034D01*
X025026Y010641D01*
G37*
G36*
X025216Y010590D02*
X025330Y010559D01*
X025168Y009952D01*
X025054Y009983D01*
X025216Y010590D01*
G37*
G36*
X025407Y010539D02*
X025521Y010508D01*
X025359Y009901D01*
X025245Y009932D01*
X025407Y010539D01*
G37*
G36*
X025597Y010488D02*
X025711Y010457D01*
X025549Y009850D01*
X025435Y009881D01*
X025597Y010488D01*
G37*
G36*
X025787Y010437D02*
X025901Y010406D01*
X025739Y009799D01*
X025625Y009830D01*
X025787Y010437D01*
G37*
G36*
X025977Y010386D02*
X026091Y010355D01*
X025929Y009748D01*
X025815Y009779D01*
X025977Y010386D01*
G37*
G36*
X026167Y010335D02*
X026281Y010304D01*
X026119Y009697D01*
X026005Y009728D01*
X026167Y010335D01*
G37*
G36*
X026357Y010284D02*
X026471Y010253D01*
X026309Y009646D01*
X026195Y009677D01*
X026357Y010284D01*
G37*
G36*
X026547Y010233D02*
X026661Y010202D01*
X026499Y009595D01*
X026385Y009626D01*
X026547Y010233D01*
G37*
G36*
X027358Y008998D02*
X027327Y008884D01*
X026720Y009046D01*
X026751Y009160D01*
X027358Y008998D01*
G37*
G36*
X027307Y008808D02*
X027276Y008694D01*
X026669Y008856D01*
X026700Y008970D01*
X027307Y008808D01*
G37*
G36*
X027256Y008618D02*
X027225Y008504D01*
X026618Y008666D01*
X026649Y008780D01*
X027256Y008618D01*
G37*
G36*
X027205Y008428D02*
X027174Y008314D01*
X026567Y008476D01*
X026598Y008590D01*
X027205Y008428D01*
G37*
G36*
X027154Y008238D02*
X027123Y008124D01*
X026516Y008286D01*
X026547Y008400D01*
X027154Y008238D01*
G37*
G36*
X027103Y008048D02*
X027072Y007934D01*
X026465Y008096D01*
X026496Y008210D01*
X027103Y008048D01*
G37*
G36*
X027052Y007858D02*
X027021Y007744D01*
X026414Y007906D01*
X026445Y008020D01*
X027052Y007858D01*
G37*
G36*
X027001Y007667D02*
X026970Y007553D01*
X026363Y007715D01*
X026394Y007829D01*
X027001Y007667D01*
G37*
G36*
X026950Y007477D02*
X026919Y007363D01*
X026312Y007525D01*
X026343Y007639D01*
X026950Y007477D01*
G37*
G36*
X026899Y007287D02*
X026868Y007173D01*
X026261Y007335D01*
X026292Y007449D01*
X026899Y007287D01*
G37*
G36*
X026848Y007097D02*
X026817Y006983D01*
X026210Y007145D01*
X026241Y007259D01*
X026848Y007097D01*
G37*
G36*
X026797Y006907D02*
X026766Y006793D01*
X026159Y006955D01*
X026190Y007069D01*
X026797Y006907D01*
G37*
G36*
X026746Y006717D02*
X026715Y006603D01*
X026108Y006765D01*
X026139Y006879D01*
X026746Y006717D01*
G37*
G36*
X026695Y006527D02*
X026664Y006413D01*
X026057Y006575D01*
X026088Y006689D01*
X026695Y006527D01*
G37*
G36*
X026644Y006336D02*
X026613Y006222D01*
X026006Y006384D01*
X026037Y006498D01*
X026644Y006336D01*
G37*
G36*
X026593Y006146D02*
X026562Y006032D01*
X025955Y006194D01*
X025986Y006308D01*
X026593Y006146D01*
G37*
G36*
X026542Y005956D02*
X026511Y005842D01*
X025904Y006004D01*
X025935Y006118D01*
X026542Y005956D01*
G37*
G36*
X026491Y005766D02*
X026460Y005652D01*
X025853Y005814D01*
X025884Y005928D01*
X026491Y005766D01*
G37*
G36*
X026440Y005576D02*
X026409Y005462D01*
X025802Y005624D01*
X025833Y005738D01*
X026440Y005576D01*
G37*
G36*
X026389Y005386D02*
X026358Y005272D01*
X025751Y005434D01*
X025782Y005548D01*
X026389Y005386D01*
G37*
G36*
X025154Y004576D02*
X025040Y004607D01*
X025202Y005214D01*
X025316Y005183D01*
X025154Y004576D01*
G37*
G36*
X024964Y004627D02*
X024850Y004658D01*
X025012Y005265D01*
X025126Y005234D01*
X024964Y004627D01*
G37*
G36*
X024774Y004678D02*
X024660Y004709D01*
X024822Y005316D01*
X024936Y005285D01*
X024774Y004678D01*
G37*
G36*
X024584Y004729D02*
X024470Y004760D01*
X024632Y005367D01*
X024746Y005336D01*
X024584Y004729D01*
G37*
G36*
X024394Y004780D02*
X024280Y004811D01*
X024442Y005418D01*
X024556Y005387D01*
X024394Y004780D01*
G37*
G36*
X024204Y004830D02*
X024090Y004861D01*
X024252Y005468D01*
X024366Y005437D01*
X024204Y004830D01*
G37*
G36*
X024014Y004881D02*
X023900Y004912D01*
X024062Y005519D01*
X024176Y005488D01*
X024014Y004881D01*
G37*
G36*
X023823Y004932D02*
X023709Y004963D01*
X023871Y005570D01*
X023985Y005539D01*
X023823Y004932D01*
G37*
G36*
X023633Y004983D02*
X023519Y005014D01*
X023681Y005621D01*
X023795Y005590D01*
X023633Y004983D01*
G37*
G36*
X023443Y005034D02*
X023329Y005065D01*
X023491Y005672D01*
X023605Y005641D01*
X023443Y005034D01*
G37*
G36*
X023253Y005085D02*
X023139Y005116D01*
X023301Y005723D01*
X023415Y005692D01*
X023253Y005085D01*
G37*
G36*
X023063Y005136D02*
X022949Y005167D01*
X023111Y005774D01*
X023225Y005743D01*
X023063Y005136D01*
G37*
G36*
X022873Y005187D02*
X022759Y005218D01*
X022921Y005825D01*
X023035Y005794D01*
X022873Y005187D01*
G37*
G36*
X022683Y005238D02*
X022569Y005269D01*
X022731Y005876D01*
X022845Y005845D01*
X022683Y005238D01*
G37*
G36*
X022492Y005289D02*
X022378Y005320D01*
X022540Y005927D01*
X022654Y005896D01*
X022492Y005289D01*
G37*
G36*
X022302Y005340D02*
X022188Y005371D01*
X022350Y005978D01*
X022464Y005947D01*
X022302Y005340D01*
G37*
G36*
X022112Y005391D02*
X021998Y005422D01*
X022160Y006029D01*
X022274Y005998D01*
X022112Y005391D01*
G37*
G36*
X021922Y005442D02*
X021808Y005473D01*
X021970Y006080D01*
X022084Y006049D01*
X021922Y005442D01*
G37*
G36*
X021732Y005493D02*
X021618Y005524D01*
X021780Y006131D01*
X021894Y006100D01*
X021732Y005493D01*
G37*
G36*
X021542Y005544D02*
X021428Y005575D01*
X021590Y006182D01*
X021704Y006151D01*
X021542Y005544D01*
G37*
G36*
X020732Y006779D02*
X020763Y006893D01*
X021370Y006731D01*
X021339Y006617D01*
X020732Y006779D01*
G37*
G36*
X020783Y006969D02*
X020814Y007083D01*
X021421Y006921D01*
X021390Y006807D01*
X020783Y006969D01*
G37*
G36*
X020834Y007159D02*
X020865Y007273D01*
X021472Y007111D01*
X021441Y006997D01*
X020834Y007159D01*
G37*
G36*
X020885Y007349D02*
X020916Y007463D01*
X021523Y007301D01*
X021492Y007187D01*
X020885Y007349D01*
G37*
G36*
X020935Y007539D02*
X020966Y007653D01*
X021573Y007491D01*
X021542Y007377D01*
X020935Y007539D01*
G37*
G36*
X020986Y007729D02*
X021017Y007843D01*
X021624Y007681D01*
X021593Y007567D01*
X020986Y007729D01*
G37*
G36*
X021037Y007920D02*
X021068Y008034D01*
X021675Y007872D01*
X021644Y007758D01*
X021037Y007920D01*
G37*
G36*
X021088Y008110D02*
X021119Y008224D01*
X021726Y008062D01*
X021695Y007948D01*
X021088Y008110D01*
G37*
G36*
X021139Y008300D02*
X021170Y008414D01*
X021777Y008252D01*
X021746Y008138D01*
X021139Y008300D01*
G37*
G36*
X021190Y008490D02*
X021221Y008604D01*
X021828Y008442D01*
X021797Y008328D01*
X021190Y008490D01*
G37*
G36*
X021241Y008680D02*
X021272Y008794D01*
X021879Y008632D01*
X021848Y008518D01*
X021241Y008680D01*
G37*
G36*
X021292Y008870D02*
X021323Y008984D01*
X021930Y008822D01*
X021899Y008708D01*
X021292Y008870D01*
G37*
G36*
X021343Y009060D02*
X021374Y009174D01*
X021981Y009012D01*
X021950Y008898D01*
X021343Y009060D01*
G37*
G36*
X021394Y009251D02*
X021425Y009365D01*
X022032Y009203D01*
X022001Y009089D01*
X021394Y009251D01*
G37*
G36*
X021445Y009441D02*
X021476Y009555D01*
X022083Y009393D01*
X022052Y009279D01*
X021445Y009441D01*
G37*
G36*
X021496Y009631D02*
X021527Y009745D01*
X022134Y009583D01*
X022103Y009469D01*
X021496Y009631D01*
G37*
G36*
X021547Y009821D02*
X021578Y009935D01*
X022185Y009773D01*
X022154Y009659D01*
X021547Y009821D01*
G37*
G36*
X021598Y010011D02*
X021629Y010125D01*
X022236Y009963D01*
X022205Y009849D01*
X021598Y010011D01*
G37*
G36*
X021649Y010201D02*
X021680Y010315D01*
X022287Y010153D01*
X022256Y010039D01*
X021649Y010201D01*
G37*
G36*
X021700Y010391D02*
X021731Y010505D01*
X022338Y010343D01*
X022307Y010229D01*
X021700Y010391D01*
G37*
D12*
G36*
X020883Y009993D02*
X020995Y010409D01*
X021375Y010307D01*
X021263Y009891D01*
X020883Y009993D01*
G37*
G36*
X020710Y009346D02*
X020822Y009762D01*
X021202Y009660D01*
X021090Y009244D01*
X020710Y009346D01*
G37*
X020232Y009382D03*
X020232Y008890D03*
X020232Y008398D03*
X020232Y007906D03*
X020330Y007414D03*
X020232Y006922D03*
X020527Y006430D03*
X020527Y005937D03*
X020527Y005445D03*
X020527Y004953D03*
X020527Y004461D03*
X020527Y003969D03*
X020527Y003477D03*
X019858Y003477D03*
X019858Y003969D03*
X019858Y004461D03*
X019858Y004953D03*
X019858Y005445D03*
X019858Y005937D03*
X019858Y006430D03*
X019563Y006922D03*
X019661Y007414D03*
X019563Y007906D03*
X019563Y008398D03*
X019563Y008890D03*
X019563Y009382D03*
G36*
X023398Y004902D02*
X023814Y004790D01*
X023712Y004410D01*
X023296Y004522D01*
X023398Y004902D01*
G37*
G36*
X024044Y004729D02*
X024460Y004617D01*
X024358Y004237D01*
X023942Y004349D01*
X024044Y004729D01*
G37*
G36*
X025698Y010683D02*
X025282Y010795D01*
X025384Y011175D01*
X025800Y011063D01*
X025698Y010683D01*
G37*
G36*
X025831Y011186D02*
X025415Y011298D01*
X025517Y011678D01*
X025933Y011566D01*
X025831Y011186D01*
G37*
G36*
X025185Y011359D02*
X024769Y011471D01*
X024871Y011851D01*
X025287Y011739D01*
X025185Y011359D01*
G37*
G36*
X025052Y010856D02*
X024636Y010968D01*
X024738Y011348D01*
X025154Y011236D01*
X025052Y010856D01*
G37*
D13*
X027870Y009894D03*
X029641Y009894D03*
X029641Y013201D03*
X027870Y013201D03*
D14*
X027968Y014599D03*
X027968Y015189D03*
X029346Y015189D03*
X029346Y014599D03*
X025114Y003851D03*
X025114Y003260D03*
X023244Y003260D03*
X023244Y003851D03*
D15*
G36*
X026731Y004068D02*
X026806Y004348D01*
X027867Y004064D01*
X027792Y003784D01*
X026731Y004068D01*
G37*
G36*
X026861Y004551D02*
X026936Y004831D01*
X027997Y004547D01*
X027922Y004267D01*
X026861Y004551D01*
G37*
G36*
X026990Y005034D02*
X027065Y005314D01*
X028126Y005030D01*
X028051Y004750D01*
X026990Y005034D01*
G37*
G36*
X027119Y005517D02*
X027194Y005797D01*
X028255Y005513D01*
X028180Y005233D01*
X027119Y005517D01*
G37*
G36*
X027249Y006000D02*
X027324Y006280D01*
X028385Y005996D01*
X028310Y005716D01*
X027249Y006000D01*
G37*
G36*
X027378Y006483D02*
X027453Y006763D01*
X028514Y006479D01*
X028439Y006199D01*
X027378Y006483D01*
G37*
G36*
X027508Y006965D02*
X027583Y007245D01*
X028644Y006961D01*
X028569Y006681D01*
X027508Y006965D01*
G37*
G36*
X029053Y006551D02*
X029128Y006831D01*
X030189Y006547D01*
X030114Y006267D01*
X029053Y006551D01*
G37*
G36*
X028924Y006068D02*
X028999Y006348D01*
X030060Y006064D01*
X029985Y005784D01*
X028924Y006068D01*
G37*
G36*
X028665Y005102D02*
X028740Y005382D01*
X029801Y005098D01*
X029726Y004818D01*
X028665Y005102D01*
G37*
G36*
X028535Y004620D02*
X028610Y004900D01*
X029671Y004616D01*
X029596Y004336D01*
X028535Y004620D01*
G37*
G36*
X028406Y004137D02*
X028481Y004417D01*
X029542Y004133D01*
X029467Y003853D01*
X028406Y004137D01*
G37*
G36*
X028277Y003654D02*
X028352Y003934D01*
X029413Y003650D01*
X029338Y003370D01*
X028277Y003654D01*
G37*
D16*
X018814Y003280D03*
X018814Y002493D03*
X017830Y002493D03*
X017830Y003280D03*
X017830Y004067D03*
X017830Y004855D03*
X017830Y005642D03*
X017830Y006430D03*
X017830Y007217D03*
X017830Y008004D03*
X017830Y008792D03*
X017830Y009579D03*
X018814Y009579D03*
X018814Y008792D03*
X018814Y008004D03*
X018814Y007217D03*
X018814Y006430D03*
X018814Y005642D03*
X018814Y004855D03*
X018814Y004067D03*
D17*
X023061Y001311D03*
X023061Y017060D03*
D18*
X023561Y017060D03*
X024061Y017060D03*
X024561Y017060D03*
X025061Y017060D03*
X025561Y017060D03*
X026061Y017060D03*
X026561Y017060D03*
X027061Y017060D03*
X027561Y017060D03*
X027561Y001311D03*
X027061Y001311D03*
X026561Y001311D03*
X026061Y001311D03*
X025561Y001311D03*
X025061Y001311D03*
X024561Y001311D03*
X024061Y001311D03*
X023561Y001311D03*
D19*
X022017Y012410D03*
X021517Y012410D03*
X021517Y015410D03*
X022017Y015410D03*
D20*
X019838Y015091D03*
X019838Y013910D03*
X019838Y012729D03*
X018015Y012729D03*
X018015Y013910D03*
X018015Y015091D03*
D21*
X015862Y016620D03*
X015862Y011200D03*
D22*
X027869Y008398D02*
X028076Y006963D01*
X027555Y006567D02*
X027527Y006573D01*
X027501Y006583D01*
X027477Y006596D01*
X027454Y006612D01*
X027433Y006631D01*
X027416Y006653D01*
X027401Y006676D01*
X027390Y006702D01*
X027382Y006729D01*
X027378Y006756D01*
X027377Y006784D01*
X027817Y005998D02*
X028342Y005839D01*
X028263Y005327D02*
X028381Y005091D01*
X028027Y003674D01*
X028263Y003241D01*
X028974Y004135D02*
X029103Y004618D01*
X029233Y005100D01*
X029248Y005249D01*
X029233Y005100D02*
X029492Y006066D01*
X029621Y006549D02*
X029592Y006557D01*
X029566Y006569D01*
X029540Y006584D01*
X029517Y006601D01*
X029496Y006622D01*
X029478Y006645D01*
X029464Y006670D01*
X029452Y006697D01*
X029444Y006725D01*
X026984Y006824D02*
X026953Y006650D01*
X026929Y006476D01*
X026914Y006300D01*
X026906Y006124D01*
X026906Y005948D01*
X026914Y005772D01*
X026929Y005596D01*
X026953Y005422D01*
X026984Y005248D01*
X026984Y005249D02*
X026992Y005218D01*
X027003Y005189D01*
X027018Y005161D01*
X027035Y005134D01*
X027056Y005110D01*
X027079Y005089D01*
X027105Y005070D01*
X027132Y005054D01*
X027161Y005042D01*
X027192Y005033D01*
X027223Y005027D01*
X027254Y005025D01*
X027286Y005027D01*
X027317Y005032D01*
X027348Y005040D01*
X027377Y005052D01*
X027378Y005051D02*
X027400Y005060D01*
X027423Y005066D01*
X027447Y005068D01*
X027471Y005067D01*
X027494Y005063D01*
X027517Y005055D01*
X027538Y005045D01*
X027558Y005031D01*
X027558Y005032D02*
X027429Y004549D01*
X027476Y005544D02*
X027506Y005550D01*
X027537Y005552D01*
X027569Y005551D01*
X027600Y005547D01*
X027630Y005539D01*
X027659Y005529D01*
X027687Y005515D01*
X028263Y005327D01*
X027476Y005543D02*
X027445Y005538D01*
X027413Y005536D01*
X027382Y005538D01*
X027350Y005543D01*
X027320Y005552D01*
X027291Y005565D01*
X027263Y005581D01*
X027237Y005599D01*
X027214Y005621D01*
X027193Y005645D01*
X027175Y005671D01*
X027161Y005699D01*
X027149Y005729D01*
X027141Y005760D01*
X029445Y006725D02*
X029404Y006890D01*
X029354Y007053D01*
X029297Y007213D01*
X029233Y007371D01*
X029160Y007525D01*
X029081Y007675D01*
X028994Y007822D01*
X028900Y007964D01*
X028800Y008101D01*
X028693Y008234D01*
X028580Y008361D01*
X028461Y008482D01*
X028336Y008598D01*
X028206Y008707D01*
X028070Y008810D01*
X027930Y008907D01*
X027785Y008996D01*
X027637Y009079D01*
X027484Y009154D01*
X027328Y009222D01*
X027169Y009282D01*
X027007Y009334D01*
X026843Y009379D01*
X026677Y009416D01*
X026509Y009444D01*
X026340Y009465D01*
X026170Y009477D01*
X026000Y009481D01*
X025803Y009284D02*
X026393Y008693D01*
X026393Y008280D01*
X026413Y008182D01*
X026531Y008142D01*
X026784Y008072D01*
X026733Y007882D02*
X026433Y007965D01*
X026039Y008103D01*
X025901Y008497D01*
X027436Y008122D02*
X027431Y008054D01*
X027422Y007987D01*
X027410Y007920D01*
X027395Y007853D01*
X027377Y007788D01*
X027279Y008182D02*
X027282Y008204D01*
X027283Y008227D01*
X027280Y008250D01*
X027274Y008273D01*
X027265Y008294D01*
X027253Y008314D01*
X027239Y008331D01*
X027222Y008347D01*
X027203Y008360D01*
X027182Y008371D01*
X027161Y008378D01*
X026886Y008452D01*
X026937Y008642D02*
X027240Y008556D01*
X027299Y008753D02*
X027335Y008741D01*
X027370Y008727D01*
X027403Y008709D01*
X027435Y008688D01*
X027464Y008664D01*
X027491Y008637D01*
X027515Y008608D01*
X027537Y008577D01*
X027555Y008544D01*
X027570Y008509D01*
X027582Y008473D01*
X027590Y008436D01*
X027594Y008398D01*
X027869Y008398D02*
X027860Y008447D01*
X027847Y008495D01*
X027830Y008542D01*
X027810Y008588D01*
X027787Y008632D01*
X027760Y008674D01*
X027731Y008714D01*
X027698Y008752D01*
X027663Y008788D01*
X027625Y008820D01*
X027585Y008850D01*
X027543Y008876D01*
X027498Y008900D01*
X027453Y008920D01*
X027406Y008936D01*
X027357Y008949D01*
X027358Y008949D02*
X027039Y009022D01*
X026988Y008832D02*
X027299Y008752D01*
X027240Y008556D02*
X027271Y008545D01*
X027300Y008530D01*
X027327Y008512D01*
X027352Y008492D01*
X027375Y008468D01*
X027394Y008442D01*
X027410Y008413D01*
X027423Y008383D01*
X027432Y008352D01*
X027437Y008319D01*
X026682Y007691D02*
X025507Y008004D01*
X024720Y008004D01*
X027516Y007630D02*
X027540Y007724D01*
X027560Y007819D01*
X027576Y007915D01*
X027588Y008011D01*
X027596Y008108D01*
X027600Y008204D01*
X027599Y008301D01*
X027595Y008398D01*
X027377Y007788D02*
X027363Y007745D01*
X027352Y007701D01*
X027343Y007656D01*
X027337Y007611D01*
X027437Y008123D02*
X027441Y008172D01*
X027442Y008221D01*
X027441Y008270D01*
X027437Y008319D01*
X027870Y009894D02*
X028165Y009874D01*
X029602Y009934D02*
X029641Y009894D01*
X029641Y013201D01*
X028263Y013123D02*
X028165Y013123D01*
X028263Y013123D02*
X027870Y013201D01*
X027082Y016016D02*
X027085Y016078D01*
X027092Y016139D01*
X027102Y016200D01*
X027117Y016260D01*
X027135Y016319D01*
X027157Y016377D01*
X027182Y016433D01*
X027211Y016488D01*
X027243Y016541D01*
X027278Y016591D01*
X027316Y016640D01*
X027358Y016686D01*
X027358Y016685D02*
X027394Y016725D01*
X027427Y016767D01*
X027458Y016812D01*
X027485Y016858D01*
X027509Y016906D01*
X027530Y016956D01*
X027547Y017007D01*
X027561Y017059D01*
X027061Y017060D02*
X027022Y016955D01*
X026988Y016848D01*
X026958Y016741D01*
X026934Y016631D01*
X026914Y016521D01*
X026900Y016410D01*
X026890Y016299D01*
X026885Y016187D01*
X026886Y016076D01*
X023933Y014599D02*
X023539Y011843D01*
X023834Y011252D02*
X023671Y010679D01*
X023481Y010730D02*
X023578Y011075D01*
X023381Y011056D02*
X023291Y010781D01*
X024052Y010577D02*
X024041Y010522D01*
X024028Y010467D01*
X024012Y010413D01*
X023993Y010360D01*
X023972Y010308D01*
X024110Y010032D02*
X024129Y009973D01*
X024326Y009973D01*
X024523Y010071D01*
X024622Y010424D01*
X024482Y010512D02*
X024402Y010512D01*
X024432Y010475D02*
X024523Y010780D01*
X024405Y011134D01*
X024582Y011626D01*
X024937Y011666D01*
X024987Y011579D02*
X024421Y011579D01*
X024449Y011675D02*
X025153Y011675D01*
X025165Y011772D02*
X024476Y011772D01*
X024503Y011869D02*
X024797Y011869D01*
X024523Y011941D02*
X025269Y011745D01*
X025268Y011743D01*
X024799Y011469D01*
X024789Y011437D01*
X024722Y011455D01*
X024651Y011414D01*
X024528Y010954D01*
X024569Y010883D01*
X024624Y010868D01*
X024616Y010841D01*
X024561Y010809D01*
X024413Y010256D01*
X024338Y010275D01*
X024487Y010829D01*
X024446Y010900D01*
X024560Y010900D01*
X024560Y010803D02*
X024480Y010803D01*
X024454Y010706D02*
X024534Y010706D01*
X024508Y010609D02*
X024428Y010609D01*
X024456Y010415D02*
X024376Y010415D01*
X024350Y010318D02*
X024430Y010318D01*
X024242Y010526D02*
X024110Y010032D01*
X023874Y009835D02*
X023874Y009737D01*
X023736Y009284D02*
X025803Y009284D01*
X023874Y009835D02*
X023876Y009896D01*
X023880Y009956D01*
X023888Y010017D01*
X023899Y010076D01*
X023913Y010135D01*
X023930Y010194D01*
X023950Y010251D01*
X023972Y010307D01*
X023861Y010628D02*
X023952Y010977D01*
X021176Y013202D02*
X021279Y013340D01*
X021388Y013473D01*
X021503Y013601D01*
X021625Y013723D01*
X021752Y013840D01*
X021885Y013950D01*
X022515Y014264D02*
X021492Y013241D01*
X021964Y013221D02*
X022017Y013168D01*
X022017Y012410D01*
X021176Y012020D02*
X021159Y012088D01*
X021145Y012156D01*
X021136Y012225D01*
X021130Y012294D01*
X021128Y012364D01*
X021130Y012433D01*
X021136Y012503D01*
X021146Y012572D01*
X021159Y012640D01*
X021177Y012707D01*
X021198Y012773D01*
X021223Y012838D01*
X021251Y012902D01*
X021283Y012964D01*
X021318Y013024D01*
X021357Y013082D01*
X021399Y013137D01*
X021443Y013190D01*
X021491Y013241D01*
X021472Y012729D02*
X021517Y012684D01*
X021517Y012410D01*
X020941Y012059D02*
X020927Y012133D01*
X020918Y012207D01*
X020912Y012282D01*
X020910Y012357D01*
X020912Y012432D01*
X020918Y012507D01*
X020927Y012581D01*
X020940Y012655D01*
X020957Y012728D01*
X020978Y012800D01*
X021003Y012870D01*
X021031Y012940D01*
X021062Y013008D01*
X021097Y013074D01*
X021135Y013139D01*
X021177Y013201D01*
X020586Y011941D02*
X019602Y010957D01*
X019110Y010957D01*
X018303Y010150D01*
X018303Y008693D01*
X018519Y008477D01*
X018519Y008241D01*
X018283Y008004D01*
X017830Y008004D01*
X017948Y007650D02*
X015429Y007650D01*
X014996Y007217D01*
X015763Y007217D02*
X017830Y007217D01*
X018145Y007453D02*
X017948Y007650D01*
X018145Y007453D02*
X018460Y007453D01*
X018657Y007650D01*
X019011Y007650D01*
X019208Y007453D01*
X019513Y007955D02*
X019513Y008052D01*
X019513Y008349D01*
X019612Y008349D01*
X019612Y008052D01*
X019612Y007955D01*
X019513Y007955D01*
X019513Y007991D02*
X019612Y007991D01*
X019612Y008088D02*
X019513Y008088D01*
X019513Y008185D02*
X019612Y008185D01*
X019612Y008282D02*
X019513Y008282D01*
X019513Y008447D02*
X019513Y008744D01*
X019513Y008841D01*
X019612Y008841D01*
X019612Y008744D01*
X019612Y008447D01*
X019513Y008447D01*
X019513Y008476D02*
X019612Y008476D01*
X019612Y008572D02*
X019513Y008572D01*
X019513Y008669D02*
X019612Y008669D01*
X019612Y008766D02*
X019513Y008766D01*
X019513Y008940D02*
X019513Y009036D01*
X019513Y009333D01*
X019612Y009333D01*
X019612Y009036D01*
X019612Y008940D01*
X019513Y008940D01*
X019513Y008960D02*
X019612Y008960D01*
X019612Y009057D02*
X019513Y009057D01*
X019513Y009154D02*
X019612Y009154D01*
X019612Y009251D02*
X019513Y009251D01*
X019513Y009432D02*
X019513Y009728D01*
X019326Y009728D01*
X019295Y009720D01*
X019267Y010288D01*
X019759Y010288D01*
X019937Y009953D01*
X019932Y009637D01*
X019921Y009625D01*
X019918Y009637D01*
X019898Y009671D01*
X019871Y009699D01*
X019837Y009718D01*
X019799Y009728D01*
X019612Y009728D01*
X019612Y009432D01*
X019513Y009432D01*
X019513Y009445D02*
X019612Y009445D01*
X019612Y009542D02*
X019513Y009542D01*
X019513Y009639D02*
X019612Y009639D01*
X019917Y009639D02*
X019932Y009639D01*
X019934Y009736D02*
X019294Y009736D01*
X019289Y009833D02*
X019935Y009833D01*
X019936Y009930D02*
X019285Y009930D01*
X019280Y010027D02*
X019897Y010027D01*
X019846Y010124D02*
X019275Y010124D01*
X019271Y010221D02*
X019795Y010221D01*
X020783Y009678D02*
X020803Y009422D01*
X020980Y009245D02*
X021662Y009036D01*
X021713Y009227D02*
X021334Y009323D01*
X021295Y009343D01*
X021369Y009787D01*
X021374Y009815D01*
X020389Y008300D02*
X020458Y008249D01*
X020529Y008201D01*
X020603Y008157D01*
X020678Y008116D01*
X020755Y008078D01*
X020834Y008045D01*
X020914Y008014D01*
X020995Y007988D01*
X021078Y007965D01*
X021356Y007896D01*
X021407Y008086D02*
X021137Y008162D01*
X021458Y008276D02*
X022496Y008004D01*
X022673Y007768D01*
X022673Y006863D01*
X022044Y006489D02*
X022012Y006547D01*
X021984Y006607D01*
X021958Y006668D01*
X021936Y006730D01*
X021916Y006793D01*
X021900Y006857D01*
X021887Y006922D01*
X021877Y006987D01*
X021870Y007053D01*
X021867Y007119D01*
X021649Y007394D02*
X021254Y007515D01*
X021204Y007325D02*
X020881Y007414D01*
X020881Y007217D02*
X021153Y007135D01*
X020881Y007217D02*
X020857Y007222D01*
X020832Y007224D01*
X020807Y007222D01*
X020783Y007217D01*
X020764Y007209D01*
X020746Y007199D01*
X020730Y007187D01*
X020715Y007172D01*
X020703Y007156D01*
X020693Y007138D01*
X020685Y007119D01*
X020684Y007118D02*
X020673Y007088D01*
X020659Y007060D01*
X020641Y007033D01*
X020621Y007008D01*
X020597Y006986D01*
X020572Y006967D01*
X020544Y006951D01*
X020515Y006938D01*
X020484Y006928D01*
X020453Y006922D01*
X020421Y006920D01*
X020389Y006921D01*
X020291Y006626D02*
X020489Y006626D01*
X020490Y006626D01*
X020586Y006626D01*
X020783Y006823D01*
X021472Y006626D01*
X021472Y006233D01*
X020785Y006233D01*
X020785Y006234D01*
X020341Y006234D01*
X020341Y006491D01*
X020291Y006541D01*
X020291Y006626D01*
X020296Y006536D02*
X021472Y006536D01*
X021472Y006439D02*
X020341Y006439D01*
X020341Y006342D02*
X021472Y006342D01*
X021472Y006245D02*
X020341Y006245D01*
X020593Y006633D02*
X021449Y006633D01*
X021866Y004461D02*
X021770Y004433D01*
X021672Y004409D01*
X021573Y004389D01*
X021474Y004374D01*
X021374Y004362D01*
X021373Y004854D02*
X021326Y004884D01*
X021277Y004910D01*
X021227Y004933D01*
X021175Y004952D01*
X021122Y004967D01*
X021067Y004979D01*
X021013Y004986D01*
X020957Y004990D01*
X020902Y004991D01*
X020847Y004987D01*
X020792Y004979D01*
X020738Y004968D01*
X020684Y004953D01*
X020527Y004953D02*
X020488Y004855D01*
X020684Y005445D02*
X020741Y005440D01*
X020797Y005432D01*
X020852Y005419D01*
X020906Y005403D01*
X020959Y005383D01*
X021011Y005359D01*
X021060Y005332D01*
X021108Y005302D01*
X021154Y005268D01*
X021197Y005232D01*
X021237Y005192D01*
X021275Y005150D01*
X021374Y004855D02*
X021408Y004834D01*
X021444Y004816D01*
X021482Y004801D01*
X021520Y004790D01*
X021560Y004783D01*
X021600Y004779D01*
X021640Y004779D01*
X021680Y004783D01*
X021720Y004790D01*
X021758Y004801D01*
X021796Y004816D01*
X021832Y004834D01*
X021866Y004855D01*
X022023Y005347D02*
X022136Y005710D01*
X021946Y005761D02*
X021866Y005445D01*
X023184Y005052D02*
X023163Y004980D01*
X023139Y004910D01*
X023111Y004841D01*
X023079Y004774D01*
X023044Y004708D01*
X023006Y004644D01*
X022964Y004583D01*
X022919Y004523D01*
X022872Y004466D01*
X022821Y004412D01*
X022767Y004360D01*
X022711Y004311D01*
X022653Y004265D01*
X022988Y005091D02*
X023087Y005455D01*
X023277Y005404D02*
X023185Y005052D01*
X023657Y005302D02*
X023795Y005819D01*
X023736Y005878D01*
X023736Y005937D01*
X023795Y006095D01*
X024326Y006311D01*
X024031Y005937D02*
X023847Y005251D01*
X024038Y005200D02*
X023913Y004697D01*
X024267Y004540D02*
X024418Y005099D01*
X024608Y005048D02*
X024759Y005563D01*
X024877Y005682D01*
X024917Y005682D01*
X024385Y005701D02*
X024228Y005149D01*
X024988Y004946D02*
X024897Y004540D01*
X025271Y004579D02*
X025178Y004895D01*
X025271Y004579D02*
X025282Y004546D01*
X025297Y004514D01*
X025314Y004483D01*
X025334Y004454D01*
X025356Y004427D01*
X025381Y004402D01*
X025408Y004380D01*
X025437Y004360D01*
X025468Y004342D01*
X025468Y004343D02*
X025522Y004314D01*
X025575Y004281D01*
X025625Y004245D01*
X025673Y004207D01*
X025719Y004165D01*
X025762Y004121D01*
X025803Y004074D01*
X025840Y004025D01*
X025875Y003974D01*
X025907Y003921D01*
X025935Y003866D01*
X025960Y003809D01*
X025982Y003751D01*
X026000Y003692D01*
X026014Y003632D01*
X026025Y003571D01*
X026032Y003510D01*
X026036Y003448D01*
X026035Y003386D01*
X026032Y003324D01*
X026024Y003263D01*
X026013Y003202D01*
X025998Y003142D01*
X025980Y003083D01*
X025981Y003083D02*
X025967Y003049D01*
X025950Y003016D01*
X025930Y002985D01*
X025907Y002957D01*
X025881Y002930D01*
X025853Y002907D01*
X025823Y002886D01*
X025822Y002887D02*
X025787Y002863D01*
X025753Y002835D01*
X025723Y002806D01*
X025694Y002773D01*
X025669Y002738D01*
X025647Y002701D01*
X025628Y002663D01*
X025612Y002623D01*
X025600Y002581D01*
X025592Y002539D01*
X025587Y002497D01*
X025586Y002454D01*
X024700Y002768D02*
X024679Y002716D01*
X024661Y002663D01*
X024646Y002609D01*
X024634Y002554D01*
X024627Y002498D01*
X024622Y002442D01*
X024621Y002386D01*
X024624Y002330D01*
X024630Y002274D01*
X024639Y002219D01*
X024652Y002164D01*
X024669Y002110D01*
X024688Y002058D01*
X024711Y002006D01*
X024738Y001957D01*
X024767Y001909D01*
X024799Y001863D01*
X025625Y001626D02*
X025627Y001580D01*
X025625Y001533D01*
X025619Y001487D01*
X025610Y001442D01*
X025597Y001397D01*
X025580Y001353D01*
X025560Y001311D01*
X023834Y001824D02*
X023800Y001875D01*
X023770Y001927D01*
X023742Y001982D01*
X023718Y002038D01*
X023697Y002095D01*
X023678Y002153D01*
X023664Y002212D01*
X023652Y002272D01*
X023644Y002332D01*
X023639Y002393D01*
X023637Y002454D01*
X024701Y002768D02*
X024720Y002815D01*
X024735Y002863D01*
X024747Y002912D01*
X024755Y002962D01*
X024759Y003013D01*
X024760Y003063D01*
X022555Y002099D02*
X022499Y002179D01*
X022446Y002261D01*
X022398Y002346D01*
X022354Y002433D01*
X022314Y002522D01*
X022279Y002612D01*
X022248Y002705D01*
X022222Y002799D01*
X022200Y002894D01*
X022184Y002989D01*
X022171Y003086D01*
X022164Y003183D01*
X022161Y003280D01*
X021964Y004166D02*
X021892Y004152D01*
X021820Y004134D01*
X021749Y004113D01*
X021679Y004089D01*
X021611Y004061D01*
X021544Y004030D01*
X021479Y003996D01*
X021415Y003959D01*
X021353Y003918D01*
X021294Y003875D01*
X021236Y003828D01*
X021181Y003779D01*
X021128Y003728D01*
X021078Y003673D01*
X020684Y004461D02*
X020735Y004495D01*
X020787Y004525D01*
X020841Y004552D01*
X020897Y004576D01*
X020954Y004596D01*
X021012Y004612D01*
X021071Y004624D01*
X021131Y004633D01*
X021192Y004638D01*
X021252Y004639D01*
X021313Y004636D01*
X021373Y004629D01*
X021432Y004619D01*
X021078Y003674D02*
X021047Y003641D01*
X021014Y003611D01*
X020978Y003583D01*
X020940Y003558D01*
X020901Y003537D01*
X020860Y003518D01*
X020817Y003503D01*
X020774Y003491D01*
X020729Y003482D01*
X020685Y003477D01*
X020685Y003969D02*
X020720Y004015D01*
X020759Y004059D01*
X020800Y004101D01*
X020843Y004140D01*
X020889Y004177D01*
X020937Y004210D01*
X020987Y004241D01*
X021038Y004268D01*
X021091Y004292D01*
X021146Y004313D01*
X021202Y004331D01*
X021258Y004345D01*
X021316Y004356D01*
X021374Y004363D01*
X021433Y004619D02*
X021481Y004610D01*
X021530Y004605D01*
X021579Y004603D01*
X021628Y004604D01*
X021676Y004609D01*
X021725Y004616D01*
X021773Y004627D01*
X021820Y004641D01*
X021865Y004658D01*
X021964Y004166D02*
X022032Y004180D01*
X022099Y004196D01*
X022165Y004217D01*
X022230Y004241D01*
X022294Y004269D01*
X022356Y004300D01*
X022416Y004334D01*
X022475Y004372D01*
X022531Y004412D01*
X022585Y004456D01*
X022636Y004502D01*
X022685Y004552D01*
X022731Y004604D01*
X022775Y004658D01*
X022815Y004714D01*
X022852Y004773D01*
X022886Y004833D01*
X022916Y004896D01*
X022943Y004960D01*
X022967Y005025D01*
X022987Y005091D01*
X022614Y005229D02*
X022707Y005557D01*
X022516Y005608D02*
X022437Y005308D01*
X022240Y005367D02*
X022326Y005659D01*
X021846Y006114D02*
X021853Y006132D01*
X021863Y006149D01*
X021875Y006164D01*
X021890Y006176D01*
X021907Y006186D01*
X021925Y006193D01*
X021846Y006115D02*
X021756Y005812D01*
X021452Y005308D02*
X021406Y005336D01*
X021361Y005367D01*
X021319Y005401D01*
X021279Y005437D01*
X021242Y005477D01*
X021208Y005519D01*
X021177Y005564D01*
X021865Y004855D02*
X021913Y004889D01*
X021958Y004927D01*
X022001Y004967D01*
X022041Y005010D01*
X022079Y005055D01*
X022114Y005102D01*
X022145Y005152D01*
X022174Y005203D01*
X022199Y005256D01*
X022221Y005311D01*
X022239Y005366D01*
X022024Y005347D02*
X022014Y005309D01*
X022000Y005271D01*
X021983Y005235D01*
X021963Y005201D01*
X021940Y005168D01*
X021914Y005138D01*
X021885Y005111D01*
X021854Y005086D01*
X021820Y005064D01*
X021785Y005046D01*
X021748Y005030D01*
X021710Y005018D01*
X021671Y005010D01*
X021632Y005005D01*
X021592Y005004D01*
X021552Y005007D01*
X021513Y005013D01*
X021474Y005023D01*
X021437Y005036D01*
X021400Y005053D01*
X021366Y005073D01*
X021333Y005096D01*
X021303Y005122D01*
X021275Y005150D01*
X021865Y004461D02*
X021927Y004482D01*
X021988Y004507D01*
X022048Y004536D01*
X022105Y004567D01*
X022161Y004603D01*
X022214Y004641D01*
X022265Y004682D01*
X022313Y004727D01*
X022359Y004774D01*
X022402Y004823D01*
X022442Y004876D01*
X022479Y004930D01*
X022513Y004986D01*
X022543Y005045D01*
X022570Y005105D01*
X022594Y005166D01*
X022613Y005229D01*
X021865Y005445D02*
X021851Y005416D01*
X021833Y005388D01*
X021813Y005362D01*
X021789Y005339D01*
X021763Y005319D01*
X021735Y005301D01*
X021706Y005287D01*
X021674Y005277D01*
X021642Y005270D01*
X021609Y005267D01*
X021576Y005268D01*
X021544Y005272D01*
X021512Y005280D01*
X021481Y005292D01*
X021452Y005307D01*
X021865Y004658D02*
X021920Y004682D01*
X021973Y004709D01*
X022024Y004740D01*
X022073Y004774D01*
X022120Y004811D01*
X022165Y004851D01*
X022207Y004893D01*
X022247Y004938D01*
X022283Y004985D01*
X022317Y005035D01*
X022347Y005086D01*
X022375Y005139D01*
X022399Y005194D01*
X022419Y005250D01*
X022436Y005307D01*
X021566Y005863D02*
X021728Y006410D01*
X021925Y006193D02*
X021951Y006203D01*
X021976Y006217D01*
X021999Y006233D01*
X022019Y006253D01*
X022036Y006275D01*
X022050Y006300D01*
X022060Y006326D01*
X022067Y006353D01*
X022070Y006381D01*
X022069Y006409D01*
X022064Y006437D01*
X022055Y006464D01*
X022043Y006489D01*
X021109Y006730D02*
X020690Y006730D01*
X020882Y007414D02*
X020833Y007426D01*
X020784Y007434D01*
X020735Y007439D01*
X020685Y007441D01*
X020635Y007439D01*
X020586Y007434D01*
X020537Y007426D01*
X020488Y007414D01*
X020291Y007414D02*
X020251Y007473D01*
X020232Y007906D02*
X020291Y007906D01*
X020782Y008496D02*
X020765Y008541D01*
X020744Y008584D01*
X020720Y008626D01*
X020694Y008665D01*
X020664Y008703D01*
X020631Y008738D01*
X020596Y008771D01*
X020558Y008801D01*
X020519Y008827D01*
X020477Y008851D01*
X020434Y008872D01*
X020389Y008889D01*
X020862Y008890D02*
X020848Y008936D01*
X020831Y008982D01*
X020811Y009026D01*
X020788Y009069D01*
X020761Y009110D01*
X020732Y009149D01*
X020700Y009186D01*
X020666Y009220D01*
X020629Y009252D01*
X020590Y009281D01*
X020549Y009308D01*
X020506Y009331D01*
X020462Y009351D01*
X020416Y009368D01*
X020370Y009382D01*
X020330Y008398D02*
X020232Y008398D01*
X020389Y008398D02*
X020379Y008388D01*
X020371Y008376D01*
X020367Y008363D01*
X020365Y008349D01*
X020367Y008335D01*
X020371Y008322D01*
X020379Y008310D01*
X020389Y008300D01*
X020862Y007827D02*
X021305Y007705D01*
X021509Y008466D02*
X021236Y008536D01*
X021137Y008162D02*
X021097Y008175D01*
X021058Y008191D01*
X021021Y008210D01*
X020985Y008233D01*
X020951Y008258D01*
X020919Y008286D01*
X020889Y008316D01*
X020862Y008348D01*
X020838Y008383D01*
X020817Y008419D01*
X020798Y008457D01*
X020783Y008497D01*
X020861Y008890D02*
X020874Y008850D01*
X020890Y008812D01*
X020910Y008775D01*
X020932Y008740D01*
X020957Y008707D01*
X020985Y008676D01*
X021015Y008647D01*
X021048Y008621D01*
X021082Y008598D01*
X021118Y008578D01*
X021156Y008560D01*
X021195Y008546D01*
X021235Y008536D01*
X021560Y008656D02*
X021925Y008556D01*
X021975Y008544D01*
X022026Y008536D01*
X022077Y008532D01*
X022129Y008531D01*
X022181Y008535D01*
X022232Y008542D01*
X022282Y008553D01*
X022331Y008568D01*
X022380Y008586D01*
X022426Y008608D01*
X022471Y008633D01*
X022514Y008662D01*
X022555Y008694D01*
X027339Y007611D02*
X027317Y007472D01*
X027291Y007335D01*
X027260Y007198D01*
X025704Y006430D02*
X025632Y006432D01*
X025560Y006438D01*
X025488Y006447D01*
X025417Y006460D01*
X025347Y006477D01*
X025278Y006497D01*
X025210Y006522D01*
X025144Y006549D01*
X025078Y006580D01*
X025015Y006615D01*
X024953Y006652D01*
X024894Y006693D01*
X024837Y006737D01*
X024782Y006784D01*
X024730Y006834D01*
X024680Y006886D01*
X024633Y006941D01*
X024589Y006998D01*
X024548Y007057D01*
X024511Y007119D01*
X024476Y007182D01*
X024445Y007248D01*
X024418Y007314D01*
X024393Y007382D01*
X024373Y007451D01*
X024356Y007521D01*
X024343Y007592D01*
X024334Y007664D01*
X024328Y007736D01*
X024326Y007808D01*
X024424Y008890D02*
X024353Y008925D01*
X024280Y008958D01*
X024206Y008987D01*
X024130Y009012D01*
X024053Y009034D01*
X023976Y009052D01*
X023897Y009066D01*
X023818Y009077D01*
X023738Y009084D01*
X023659Y009087D01*
X023579Y009086D01*
X023499Y009081D01*
X023420Y009073D01*
X023341Y009061D01*
X023263Y009045D01*
X023185Y009026D01*
X023109Y009002D01*
X023034Y008976D01*
X022960Y008945D01*
X022888Y008911D01*
X022817Y008874D01*
X022748Y008833D01*
X022682Y008790D01*
X022617Y008743D01*
X022555Y008693D01*
X023637Y008694D02*
X023695Y008677D01*
X023752Y008656D01*
X023807Y008632D01*
X023861Y008604D01*
X023912Y008573D01*
X023962Y008538D01*
X024009Y008500D01*
X024053Y008459D01*
X024095Y008416D01*
X024133Y008369D01*
X024169Y008320D01*
X024201Y008269D01*
X024230Y008216D01*
X024255Y008161D01*
X024277Y008105D01*
X024294Y008047D01*
X024308Y007988D01*
X024318Y007928D01*
X024324Y007868D01*
X024326Y007808D01*
X023736Y009284D02*
X022555Y010465D01*
X022456Y010465D01*
X022259Y010662D01*
X022161Y010662D01*
X022019Y010367D02*
X021728Y010445D01*
X021452Y010405D02*
X021419Y010422D01*
X021387Y010442D01*
X021357Y010465D01*
X021330Y010490D01*
X021305Y010518D01*
X021282Y010548D01*
X021263Y010579D01*
X021246Y010613D01*
X021233Y010648D01*
X021223Y010684D01*
X021216Y010721D01*
X021452Y010406D02*
X021473Y010395D01*
X021491Y010380D01*
X021507Y010364D01*
X021521Y010344D01*
X021531Y010323D01*
X021538Y010301D01*
X021542Y010278D01*
X021541Y010255D01*
X021538Y010232D01*
X021531Y010209D01*
X021472Y010052D02*
X021473Y010028D01*
X021477Y010004D01*
X021485Y009981D01*
X021496Y009959D01*
X021509Y009939D01*
X021525Y009921D01*
X021544Y009905D01*
X021564Y009892D01*
X021586Y009882D01*
X021609Y009875D01*
X021610Y009874D02*
X021866Y009797D01*
X021472Y010052D02*
X021483Y010093D01*
X021496Y010133D01*
X021513Y010172D01*
X021531Y010209D01*
X020803Y009422D02*
X020835Y009383D01*
X020868Y009346D01*
X020904Y009310D01*
X020941Y009277D01*
X020980Y009245D01*
X021728Y010445D02*
X021687Y010458D01*
X021648Y010475D01*
X021610Y010494D01*
X021575Y010518D01*
X021541Y010544D01*
X021510Y010573D01*
X021481Y010605D01*
X021456Y010639D01*
X021433Y010675D01*
X021414Y010713D01*
X021399Y010753D01*
X021387Y010794D01*
X021378Y010836D01*
X021374Y010878D01*
X023382Y011055D02*
X023428Y011209D01*
X023467Y011365D01*
X023499Y011523D01*
X023523Y011683D01*
X023539Y011843D01*
X022988Y011213D02*
X022911Y010883D01*
X024248Y010957D02*
X024523Y011941D01*
X024394Y011482D02*
X024820Y011482D01*
X024643Y011385D02*
X024367Y011385D01*
X024340Y011288D02*
X024617Y011288D01*
X024592Y011191D02*
X024313Y011191D01*
X024286Y011094D02*
X024566Y011094D01*
X024540Y010997D02*
X024259Y010997D01*
X024248Y010957D02*
X024248Y010953D01*
X024256Y010951D01*
X024256Y010951D01*
X024446Y010900D01*
X026255Y010603D02*
X026249Y010533D01*
X026241Y010464D01*
X026230Y010395D01*
X026215Y010327D01*
X026216Y010327D02*
X026143Y010016D01*
X026333Y009965D02*
X026433Y010308D01*
X026629Y010249D02*
X026523Y009914D01*
X025002Y010322D02*
X025311Y011351D01*
X025015Y011115D02*
X024921Y011049D01*
X024976Y010977D01*
X024812Y010373D01*
X024921Y011049D02*
X024895Y011102D01*
X022017Y015410D02*
X021517Y015410D01*
X021177Y015583D01*
X022515Y014265D02*
X022579Y014332D01*
X022640Y014402D01*
X022698Y014475D01*
X022751Y014551D01*
X022801Y014630D01*
X022848Y014710D01*
X022890Y014793D01*
X022928Y014878D01*
X022963Y014964D01*
X022993Y015052D01*
X023018Y015141D01*
X023040Y015232D01*
X023057Y015323D01*
X023070Y015415D01*
X023078Y015508D01*
X023082Y015600D01*
X023081Y015693D01*
X023076Y015786D01*
X023066Y015879D01*
X023066Y015878D02*
X023059Y015923D01*
X023048Y015967D01*
X023034Y016010D01*
X023016Y016052D01*
X022996Y016092D01*
X022972Y016131D01*
X022946Y016167D01*
X022917Y016202D01*
X022885Y016234D01*
X022851Y016264D01*
X022815Y016291D01*
X022777Y016316D01*
X022737Y016337D01*
X022696Y016355D01*
X022653Y016370D01*
X022436Y016194D02*
X022419Y016197D01*
X022404Y016204D01*
X022389Y016213D01*
X022377Y016225D01*
X022368Y016240D01*
X022361Y016255D01*
X022358Y016272D01*
X022436Y016193D02*
X022474Y016187D01*
X022512Y016178D01*
X022548Y016165D01*
X022583Y016150D01*
X022616Y016131D01*
X022648Y016109D01*
X022678Y016084D01*
X022705Y016057D01*
X022730Y016028D01*
X022752Y015996D01*
X022780Y015948D01*
X022805Y015899D01*
X022826Y015848D01*
X022845Y015795D01*
X022859Y015741D01*
X022871Y015687D01*
X022878Y015632D01*
X022882Y015576D01*
X022883Y015521D01*
X022879Y015465D01*
X022872Y015410D01*
X022862Y015355D01*
X022848Y015302D01*
X022830Y015249D01*
X020389Y014894D02*
X019838Y015091D01*
X021885Y013949D02*
X021989Y014036D01*
X022090Y014127D01*
X022186Y014222D01*
X022278Y014322D01*
X022365Y014426D01*
X022447Y014534D01*
X022524Y014645D01*
X022596Y014760D01*
X022663Y014878D01*
X022724Y014999D01*
X022780Y015122D01*
X022830Y015248D01*
X018027Y014107D02*
X018015Y013910D01*
X027082Y013339D02*
X027079Y012891D01*
X027055Y012444D01*
X027011Y011998D01*
X026946Y011554D01*
X026860Y011114D01*
X026755Y010679D01*
X026629Y010249D01*
X029602Y010209D02*
X029602Y009934D01*
X027515Y007630D02*
X027472Y007464D01*
X027437Y007296D01*
X027410Y007126D01*
X027390Y006955D01*
X027377Y006784D01*
X027554Y006567D02*
X027686Y006544D01*
X027817Y006515D01*
X027946Y006481D01*
X024897Y004540D02*
X024846Y004286D01*
X024807Y004030D01*
X024779Y003772D01*
X022653Y004265D02*
X022600Y004223D01*
X022550Y004179D01*
X022502Y004132D01*
X022457Y004082D01*
X022415Y004030D01*
X022375Y003976D01*
X022339Y003919D01*
X022305Y003861D01*
X022275Y003801D01*
X022249Y003739D01*
X022225Y003676D01*
X022206Y003612D01*
X022189Y003547D01*
X022177Y003481D01*
X022168Y003414D01*
X022163Y003348D01*
X022161Y003280D01*
X019907Y003526D02*
X019809Y003526D01*
X019809Y003823D01*
X019809Y003920D01*
X019907Y003920D01*
X019907Y003823D01*
X019907Y003526D01*
X019907Y003530D02*
X019809Y003530D01*
X019809Y003627D02*
X019907Y003627D01*
X019907Y003724D02*
X019809Y003724D01*
X019809Y003821D02*
X019907Y003821D01*
X019907Y003918D02*
X019809Y003918D01*
X019809Y004018D02*
X019809Y004315D01*
X019809Y004412D01*
X019907Y004412D01*
X019907Y004315D01*
X019907Y004018D01*
X019809Y004018D01*
X019809Y004112D02*
X019907Y004112D01*
X019907Y004209D02*
X019809Y004209D01*
X019809Y004306D02*
X019907Y004306D01*
X019907Y004403D02*
X019809Y004403D01*
X019809Y004510D02*
X019809Y004807D01*
X019809Y004904D01*
X019907Y004904D01*
X019907Y004807D01*
X019907Y004510D01*
X019809Y004510D01*
X019809Y004597D02*
X019907Y004597D01*
X019907Y004694D02*
X019809Y004694D01*
X019809Y004791D02*
X019907Y004791D01*
X019907Y004888D02*
X019809Y004888D01*
X019809Y005003D02*
X019809Y005099D01*
X019809Y005396D01*
X019907Y005396D01*
X019907Y005099D01*
X019907Y005003D01*
X019809Y005003D01*
X019809Y005082D02*
X019907Y005082D01*
X019907Y005179D02*
X019809Y005179D01*
X019809Y005276D02*
X019907Y005276D01*
X019907Y005373D02*
X019809Y005373D01*
X019809Y005495D02*
X019809Y005791D01*
X019809Y005888D01*
X019907Y005888D01*
X019907Y005791D01*
X019907Y005495D01*
X019809Y005495D01*
X019809Y005566D02*
X019907Y005566D01*
X019907Y005663D02*
X019809Y005663D01*
X019809Y005760D02*
X019907Y005760D01*
X019907Y005857D02*
X019809Y005857D01*
X019809Y005987D02*
X019809Y006084D01*
X019809Y006380D01*
X019907Y006380D01*
X019907Y006084D01*
X019907Y005987D01*
X019809Y005987D01*
X019809Y006051D02*
X019907Y006051D01*
X019907Y006148D02*
X019809Y006148D01*
X019809Y006245D02*
X019907Y006245D01*
X019907Y006342D02*
X019809Y006342D01*
X019809Y006479D02*
X019809Y006578D01*
X019837Y006586D01*
X019871Y006605D01*
X019898Y006633D01*
X019907Y006633D01*
X019898Y006633D02*
X019907Y006648D01*
X019907Y006479D01*
X019809Y006479D01*
X019809Y006536D02*
X019907Y006536D01*
X019612Y006773D02*
X019612Y006872D01*
X019513Y006872D01*
X019513Y006715D01*
X019518Y006711D01*
X019522Y006718D01*
X019550Y006746D01*
X019584Y006765D01*
X019612Y006773D01*
X019612Y006827D02*
X019513Y006827D01*
X019513Y006730D02*
X019534Y006730D01*
X019326Y006430D02*
X019307Y006233D01*
X019011Y006036D01*
X018539Y006036D01*
X018303Y005800D01*
X018303Y005642D01*
X019011Y005249D02*
X019405Y005642D01*
X019011Y005249D02*
X015311Y005249D01*
X014996Y004934D01*
X015468Y004461D02*
X014996Y004146D01*
X015468Y004461D02*
X017988Y004461D01*
X018303Y004776D01*
X018303Y004855D01*
X019307Y003871D02*
X019346Y003871D01*
X019307Y003871D02*
X019110Y003674D01*
X018618Y003674D01*
X018303Y003359D01*
X018303Y002256D01*
X018066Y002020D01*
X017909Y002020D01*
X018893Y001784D02*
X014996Y001784D01*
X014484Y001508D02*
X014484Y005937D01*
X015763Y007217D01*
X014996Y008083D02*
X015311Y008300D01*
X017535Y008300D01*
X017633Y008398D01*
X018224Y008398D01*
X018263Y008359D01*
X021216Y010721D02*
X021181Y010938D01*
X021137Y011154D01*
X021374Y010879D02*
X021354Y011110D01*
X021325Y011340D01*
X021285Y011569D01*
X021236Y011796D01*
X021177Y012021D01*
X026432Y010307D02*
X026560Y010783D01*
X026666Y011264D01*
X026752Y011750D01*
X026818Y012238D01*
X026862Y012729D01*
X026885Y013221D01*
X027083Y013339D02*
X027083Y016017D01*
X020940Y012060D02*
X021137Y011154D01*
X020390Y007906D02*
X020485Y007898D01*
X020581Y007887D01*
X020675Y007871D01*
X020769Y007851D01*
X020862Y007828D01*
X020685Y005938D02*
X020789Y005872D01*
X020891Y005801D01*
X020990Y005726D01*
X021085Y005647D01*
X021177Y005564D01*
X019641Y002178D02*
X019366Y001902D01*
X019011Y001902D01*
X018893Y001784D01*
X019208Y001607D02*
X015566Y001607D01*
X015074Y001115D01*
X014877Y001115D01*
X014484Y001508D01*
X022555Y002099D02*
X022736Y001844D01*
X022904Y001581D01*
X023061Y001311D01*
X023834Y001824D02*
X023873Y001765D01*
X023909Y001704D01*
X023942Y001642D01*
X023972Y001579D01*
X023999Y001514D01*
X024023Y001447D01*
X024043Y001380D01*
X024061Y001312D01*
X024799Y001863D02*
X024843Y001800D01*
X024885Y001736D01*
X024922Y001669D01*
X024957Y001600D01*
X024988Y001530D01*
X025016Y001459D01*
X025040Y001386D01*
X025061Y001312D01*
X024759Y003063D02*
X024756Y003299D01*
X024763Y003536D01*
X024778Y003772D01*
X023913Y004697D02*
X023814Y004255D01*
X023737Y003808D01*
X023682Y003358D01*
X023649Y002906D01*
X023637Y002453D01*
X027141Y005761D02*
X027137Y006050D01*
X027147Y006339D01*
X027171Y006627D01*
X027208Y006913D01*
X027259Y007198D01*
X023952Y010977D02*
X024204Y011855D01*
X024498Y012720D01*
X024835Y013570D01*
X025212Y014402D01*
X025213Y014402D02*
X025406Y014827D01*
X025579Y015260D01*
X025731Y015701D01*
X025862Y016148D01*
X025972Y016602D01*
X026061Y017060D01*
X025586Y002453D02*
X025599Y002040D01*
X025625Y001627D01*
X023834Y011252D02*
X024190Y012439D01*
X024582Y013614D01*
X027279Y008181D02*
X026984Y006823D01*
X023578Y011075D02*
X024326Y013615D01*
X023933Y014599D02*
X024007Y015212D01*
X024052Y015827D01*
X024071Y016443D01*
X024061Y017060D01*
X025061Y017059D02*
X024935Y016186D01*
X024770Y015320D01*
X024567Y014462D01*
X024326Y013614D01*
X022988Y011213D02*
X023189Y012174D01*
X023349Y013142D01*
X023466Y014117D01*
X023540Y015096D01*
X023572Y016077D01*
X023560Y017059D01*
X025560Y017060D02*
X025280Y015899D01*
X024954Y014750D01*
X024582Y013615D01*
X025310Y011351D02*
X025703Y012759D01*
X026043Y014181D01*
X026328Y015615D01*
X026560Y017059D01*
X026886Y016075D02*
X026904Y014648D01*
X026886Y013221D01*
D23*
X026492Y013516D03*
X026177Y013516D03*
X025704Y013910D03*
X025311Y013910D03*
X025311Y013516D03*
X025311Y013123D03*
X025311Y012729D03*
X026098Y012926D03*
X026492Y012926D03*
X026492Y011646D03*
X026295Y011351D03*
X026098Y011646D03*
X025901Y010662D03*
X026255Y010603D03*
X026984Y009874D03*
X027377Y009874D03*
X027574Y010563D03*
X027968Y010563D03*
X027968Y011154D03*
X027574Y011154D03*
X028755Y011154D03*
X029248Y011154D03*
X029248Y010563D03*
X028755Y010563D03*
X029602Y010209D03*
X029937Y009382D03*
X029937Y008831D03*
X029937Y008300D03*
X028165Y009874D03*
X025901Y008497D03*
X024720Y008004D03*
X024720Y007611D03*
X024326Y006311D03*
X024031Y005937D03*
X023460Y005918D03*
X024385Y005701D03*
X025114Y006154D03*
X025409Y006154D03*
X025704Y006430D03*
X024444Y004422D03*
X025114Y004205D03*
X025488Y004067D03*
X025704Y003162D03*
X025389Y003083D03*
X023342Y004737D03*
X022456Y003575D03*
X020685Y003477D03*
X020685Y003969D03*
X020685Y004461D03*
X020685Y004953D03*
X020685Y005445D03*
X020685Y005937D03*
X020685Y006528D03*
X020980Y006528D03*
X020389Y006922D03*
X020488Y007414D03*
X020389Y007906D03*
X020389Y008398D03*
X020389Y008890D03*
X020370Y009382D03*
X020783Y009678D03*
X019838Y009815D03*
X019720Y010091D03*
X021669Y011154D03*
X022555Y012040D03*
X022850Y012040D03*
X022555Y012434D03*
X021964Y013221D03*
X021472Y012729D03*
X020488Y012729D03*
X020488Y013910D03*
X020389Y014894D03*
X020389Y015288D03*
X021177Y015583D03*
X022456Y015878D03*
X022358Y016272D03*
X022653Y016371D03*
X024326Y015977D03*
X024622Y015977D03*
X024326Y015386D03*
X027377Y016075D03*
X028185Y016410D03*
X028165Y015583D03*
X028559Y015288D03*
X029051Y015091D03*
X027574Y014993D03*
X028165Y013123D03*
X024976Y011075D03*
X024129Y009973D03*
X023874Y009737D03*
X023637Y008693D03*
X023342Y008004D03*
X023342Y007611D03*
X022673Y006863D03*
X021728Y006410D03*
X019208Y007453D03*
X016059Y008595D03*
X016059Y009776D03*
X014681Y008595D03*
X016846Y011449D03*
X016846Y011745D03*
X016846Y012040D03*
X016846Y012532D03*
X016846Y012926D03*
X017437Y013713D03*
X017437Y014107D03*
X017043Y014500D03*
X016452Y014205D03*
X017043Y015386D03*
X017043Y015682D03*
X017043Y015977D03*
X018027Y014107D03*
X018027Y013713D03*
X014779Y005445D03*
X014779Y003477D03*
X014779Y002296D03*
X016059Y003477D03*
X028263Y003241D03*
X029681Y003634D03*
X029248Y005249D03*
X028854Y005544D03*
X028952Y005839D03*
X028657Y005937D03*
X028559Y005642D03*
X028342Y005839D03*
X029444Y005839D03*
D24*
X025541Y010929D02*
X025674Y011432D01*
X025028Y011605D02*
X024937Y011666D01*
X021369Y009787D02*
X021360Y009796D01*
X021314Y009796D01*
X021129Y009981D01*
X021129Y010150D01*
X020783Y009678D02*
X020783Y009676D01*
X020956Y009503D01*
X029051Y015091D02*
X029149Y015189D01*
X029346Y015189D01*
D25*
X026000Y009481D03*
X024425Y008890D03*
X022948Y008595D03*
X021866Y007119D03*
X019405Y005642D03*
X019326Y006430D03*
X018303Y005642D03*
X018303Y004855D03*
X019346Y003871D03*
X020389Y002886D03*
X019641Y002178D03*
X019208Y001607D03*
X017909Y002020D03*
X014996Y001784D03*
X014996Y004146D03*
X014996Y004934D03*
X014681Y006626D03*
X014996Y007217D03*
X014996Y008083D03*
X014681Y009776D03*
X014484Y012138D03*
X014484Y013319D03*
X014484Y014500D03*
X014484Y015682D03*
X020586Y011941D03*
X022161Y010662D03*
X018263Y008359D03*
X024917Y005682D03*
X027791Y003319D03*
D26*
X027873Y003064D02*
X028076Y003064D01*
X028045Y003095D02*
X028118Y003022D01*
X028212Y002983D01*
X028314Y002983D01*
X028409Y003022D01*
X028481Y003095D01*
X028521Y003189D01*
X028521Y003292D01*
X028481Y003386D01*
X028409Y003459D01*
X028369Y003475D01*
X029359Y003210D01*
X029466Y003271D01*
X029511Y003440D01*
X029535Y003416D01*
X029629Y003377D01*
X029732Y003377D01*
X029826Y003416D01*
X029899Y003489D01*
X029938Y003583D01*
X029938Y003686D01*
X029899Y003780D01*
X029826Y003852D01*
X029732Y003892D01*
X029632Y003892D01*
X029702Y004153D01*
X029671Y004207D01*
X029725Y004237D01*
X029831Y004636D01*
X029801Y004689D01*
X029854Y004720D01*
X029961Y005119D01*
X029899Y005226D01*
X029500Y005333D01*
X029575Y005615D01*
X029590Y005621D01*
X029663Y005693D01*
X029671Y005715D01*
X029983Y005631D01*
X029983Y000772D01*
X029672Y000772D01*
X029825Y000925D01*
X029929Y001176D01*
X029929Y001447D01*
X029825Y001698D01*
X029634Y001889D01*
X029383Y001993D01*
X029112Y001993D01*
X028861Y001889D01*
X028670Y001698D01*
X028566Y001447D01*
X028566Y001176D01*
X028670Y000925D01*
X028823Y000772D01*
X021798Y000772D01*
X021951Y000925D01*
X022055Y001176D01*
X022055Y001447D01*
X021951Y001698D01*
X021760Y001889D01*
X021509Y001993D01*
X021238Y001993D01*
X020987Y001889D01*
X020796Y001698D01*
X020692Y001447D01*
X020692Y001176D01*
X020796Y000925D01*
X020949Y000772D01*
X014338Y000772D01*
X014338Y001374D01*
X014402Y001311D01*
X014796Y000917D01*
X014959Y000917D01*
X015156Y000917D01*
X015272Y001033D01*
X015648Y001409D01*
X019028Y001409D01*
X019057Y001380D01*
X019155Y001340D01*
X019261Y001340D01*
X019359Y001380D01*
X019435Y001455D01*
X019475Y001554D01*
X019475Y001660D01*
X019454Y001711D01*
X019563Y001820D01*
X019654Y001910D01*
X019694Y001910D01*
X019793Y001951D01*
X019868Y002026D01*
X019908Y002124D01*
X019908Y002231D01*
X019868Y002329D01*
X019793Y002404D01*
X019694Y002445D01*
X019588Y002445D01*
X019490Y002404D01*
X019415Y002329D01*
X019374Y002231D01*
X019374Y002190D01*
X019284Y002100D01*
X019093Y002100D01*
X018929Y002100D01*
X018811Y001982D01*
X018307Y001982D01*
X018385Y002059D01*
X018500Y002174D01*
X018500Y002263D01*
X018597Y002166D01*
X018738Y002108D01*
X018891Y002108D01*
X019032Y002166D01*
X019141Y002275D01*
X019199Y002416D01*
X019199Y002569D01*
X019141Y002710D01*
X019032Y002819D01*
X018891Y002877D01*
X018738Y002877D01*
X018597Y002819D01*
X018500Y002722D01*
X018500Y003050D01*
X018597Y002954D01*
X018738Y002895D01*
X018891Y002895D01*
X019032Y002954D01*
X019141Y003062D01*
X019199Y003203D01*
X019199Y003356D01*
X019150Y003476D01*
X019192Y003476D01*
X019319Y003603D01*
X019399Y003603D01*
X019404Y003606D01*
X019404Y003198D01*
X019520Y003082D01*
X019618Y002984D01*
X019782Y002984D01*
X020176Y002984D01*
X020292Y003100D01*
X020324Y003132D01*
X020805Y003132D01*
X020892Y003219D01*
X020892Y003312D01*
X021126Y003428D01*
X021173Y003482D01*
X021227Y003543D01*
X021227Y003543D01*
X021332Y003650D01*
X021575Y003824D01*
X021851Y003938D01*
X021997Y003971D01*
X022077Y003984D01*
X022077Y003984D01*
X022147Y003996D01*
X022098Y003927D01*
X022098Y003927D01*
X021963Y003502D01*
X021963Y003361D01*
X021963Y003279D01*
X021964Y003046D01*
X022064Y002591D01*
X022257Y002168D01*
X022257Y002168D01*
X022396Y001981D01*
X022396Y001981D01*
X022396Y001980D01*
X022655Y001607D01*
X022712Y001511D01*
X022712Y001050D01*
X022799Y000963D01*
X023322Y000963D01*
X023339Y000980D01*
X023372Y000958D01*
X023444Y000928D01*
X023521Y000913D01*
X023560Y000913D01*
X023560Y001311D01*
X023561Y001311D01*
X023561Y000913D01*
X023600Y000913D01*
X023677Y000928D01*
X023749Y000958D01*
X023814Y001002D01*
X023846Y001033D01*
X023863Y001016D01*
X023991Y000963D01*
X024130Y000963D01*
X024258Y001016D01*
X024311Y001069D01*
X024363Y001016D01*
X024491Y000963D01*
X024630Y000963D01*
X024758Y001016D01*
X024811Y001069D01*
X024863Y001016D01*
X024991Y000963D01*
X025130Y000963D01*
X025258Y001016D01*
X025311Y001069D01*
X025363Y001016D01*
X025491Y000963D01*
X025630Y000963D01*
X025758Y001016D01*
X025811Y001069D01*
X025863Y001016D01*
X025991Y000963D01*
X026130Y000963D01*
X026258Y001016D01*
X026311Y001069D01*
X026363Y001016D01*
X026491Y000963D01*
X026630Y000963D01*
X026758Y001016D01*
X026811Y001069D01*
X026863Y001016D01*
X026991Y000963D01*
X027130Y000963D01*
X027258Y001016D01*
X027311Y001069D01*
X027363Y001016D01*
X027491Y000963D01*
X027630Y000963D01*
X027758Y001016D01*
X027856Y001114D01*
X027909Y001242D01*
X027909Y001381D01*
X027856Y001509D01*
X027758Y001607D01*
X027630Y001660D01*
X027491Y001660D01*
X027363Y001607D01*
X027311Y001554D01*
X027258Y001607D01*
X027130Y001660D01*
X026991Y001660D01*
X026863Y001607D01*
X026811Y001554D01*
X026758Y001607D01*
X026630Y001660D01*
X026491Y001660D01*
X026363Y001607D01*
X026311Y001554D01*
X026258Y001607D01*
X026130Y001660D01*
X025991Y001660D01*
X025863Y001607D01*
X025828Y001572D01*
X025826Y001595D01*
X025823Y001641D01*
X025822Y001644D01*
X025797Y002049D01*
X025792Y002194D01*
X025839Y002148D01*
X026002Y002080D01*
X026178Y002080D01*
X026341Y002148D01*
X026466Y002273D01*
X026534Y002436D01*
X026534Y002612D01*
X026466Y002775D01*
X026341Y002900D01*
X026178Y002968D01*
X026149Y002968D01*
X026167Y003019D01*
X026225Y003187D01*
X026241Y003543D01*
X026155Y003888D01*
X026155Y003888D01*
X025975Y004195D01*
X025975Y004195D01*
X025716Y004439D01*
X025716Y004439D01*
X025630Y004482D01*
X025630Y004483D01*
X025564Y004516D01*
X025557Y004519D01*
X025525Y004540D01*
X025475Y004599D01*
X025461Y004635D01*
X025445Y004688D01*
X025438Y004714D01*
X025389Y004879D01*
X025476Y005205D01*
X025415Y005311D01*
X025225Y005362D01*
X025034Y005413D01*
X024993Y005424D01*
X025068Y005455D01*
X025143Y005530D01*
X025184Y005628D01*
X025184Y005735D01*
X025143Y005833D01*
X025079Y005897D01*
X025165Y005897D01*
X025259Y005936D01*
X025261Y005938D01*
X025263Y005936D01*
X025358Y005897D01*
X025460Y005897D01*
X025555Y005936D01*
X025627Y006008D01*
X025666Y006103D01*
X025666Y006172D01*
X025755Y006172D01*
X025800Y006191D01*
X025756Y006026D01*
X025705Y005836D01*
X025654Y005646D01*
X025592Y005413D01*
X025653Y005307D01*
X026380Y005112D01*
X026487Y005173D01*
X026538Y005364D01*
X026589Y005554D01*
X026640Y005744D01*
X026691Y005934D01*
X026702Y005977D01*
X026735Y005482D01*
X026735Y005482D01*
X026790Y005209D01*
X026806Y005129D01*
X026806Y005129D01*
X026812Y005101D01*
X026843Y005061D01*
X026830Y005013D01*
X026861Y004960D01*
X026807Y004929D01*
X026701Y004530D01*
X026731Y004477D01*
X026678Y004446D01*
X026571Y004047D01*
X026633Y003941D01*
X027814Y003624D01*
X027823Y003629D01*
X027851Y003584D01*
X027844Y003586D01*
X027738Y003586D01*
X027640Y003546D01*
X027564Y003471D01*
X027524Y003373D01*
X027524Y003266D01*
X027564Y003168D01*
X027640Y003093D01*
X027738Y003052D01*
X027844Y003052D01*
X027942Y003093D01*
X028016Y003166D01*
X028045Y003095D01*
X027709Y003064D02*
X026182Y003064D01*
X026225Y003187D02*
X026225Y003187D01*
X026228Y003260D02*
X027526Y003260D01*
X027558Y003455D02*
X026237Y003455D01*
X026241Y003543D02*
X026241Y003543D01*
X026214Y003650D02*
X027715Y003650D01*
X028413Y003455D02*
X028445Y003455D01*
X028521Y003260D02*
X029174Y003260D01*
X029445Y003260D02*
X029983Y003260D01*
X029983Y003455D02*
X029865Y003455D01*
X029938Y003650D02*
X029983Y003650D01*
X029983Y003846D02*
X029833Y003846D01*
X029983Y004041D02*
X029672Y004041D01*
X029723Y004237D02*
X029983Y004237D01*
X029983Y004432D02*
X029777Y004432D01*
X029829Y004627D02*
X029983Y004627D01*
X029983Y004823D02*
X029881Y004823D01*
X029934Y005018D02*
X029983Y005018D01*
X029983Y005214D02*
X029906Y005214D01*
X029983Y005409D02*
X029520Y005409D01*
X029572Y005604D02*
X029983Y005604D01*
X029983Y006756D02*
X029618Y006854D01*
X029558Y007120D01*
X029268Y007780D01*
X028857Y008372D01*
X028857Y008372D01*
X028340Y008875D01*
X028340Y008875D01*
X027736Y009269D01*
X027736Y009269D01*
X027068Y009540D01*
X027068Y009540D01*
X026659Y009620D01*
X026726Y009871D01*
X026726Y009823D01*
X026766Y009729D01*
X026838Y009656D01*
X026933Y009617D01*
X027035Y009617D01*
X027130Y009656D01*
X027181Y009707D01*
X027232Y009656D01*
X027326Y009617D01*
X027429Y009617D01*
X027446Y009624D01*
X027446Y009518D01*
X027533Y009431D01*
X028207Y009431D01*
X028294Y009518D01*
X028294Y009649D01*
X028311Y009656D01*
X028383Y009729D01*
X028422Y009823D01*
X028422Y009926D01*
X028383Y010020D01*
X028311Y010093D01*
X028294Y010100D01*
X028294Y010271D01*
X028207Y010358D01*
X028126Y010358D01*
X028186Y010418D01*
X028225Y010512D01*
X028225Y010615D01*
X028186Y010709D01*
X028114Y010782D01*
X028019Y010821D01*
X027917Y010821D01*
X027822Y010782D01*
X027771Y010730D01*
X027720Y010782D01*
X027626Y010821D01*
X027523Y010821D01*
X027429Y010782D01*
X027356Y010709D01*
X027317Y010615D01*
X027317Y010512D01*
X027356Y010418D01*
X027429Y010345D01*
X027493Y010318D01*
X027446Y010271D01*
X027446Y010125D01*
X027429Y010132D01*
X027326Y010132D01*
X027232Y010093D01*
X027181Y010041D01*
X027130Y010093D01*
X027035Y010132D01*
X026933Y010132D01*
X026838Y010093D01*
X026767Y010021D01*
X026779Y010066D01*
X026843Y010267D01*
X026979Y010698D01*
X027191Y011745D01*
X027288Y012808D01*
X027280Y013342D01*
X027280Y013347D01*
X027269Y014678D01*
X027276Y015519D01*
X027545Y015250D01*
X027523Y015250D01*
X027429Y015211D01*
X027356Y015138D01*
X027317Y015044D01*
X027317Y014941D01*
X027318Y014940D01*
X027318Y014745D01*
X027357Y014650D01*
X027429Y014578D01*
X027626Y014381D01*
X027686Y014357D01*
X027749Y014293D01*
X028187Y014293D01*
X028274Y014380D01*
X028274Y014818D01*
X028198Y014894D01*
X028274Y014970D01*
X028274Y015350D01*
X028311Y015365D01*
X028313Y015367D01*
X028301Y015339D01*
X028301Y015237D01*
X028312Y015211D01*
X028312Y014845D01*
X028349Y014754D01*
X028419Y014685D01*
X028626Y014477D01*
X028636Y014453D01*
X028708Y014381D01*
X028803Y014342D01*
X029078Y014342D01*
X029127Y014293D01*
X029565Y014293D01*
X029652Y014380D01*
X029652Y014818D01*
X029576Y014894D01*
X029652Y014970D01*
X029652Y015408D01*
X029565Y015495D01*
X029127Y015495D01*
X029040Y015408D01*
X029040Y015402D01*
X028978Y015339D01*
X028905Y015309D01*
X028833Y015237D01*
X028805Y015171D01*
X028805Y015211D01*
X028816Y015237D01*
X028816Y015339D01*
X028777Y015434D01*
X028704Y015506D01*
X028610Y015545D01*
X028507Y015545D01*
X028413Y015506D01*
X028410Y015504D01*
X028422Y015532D01*
X028422Y015634D01*
X028383Y015729D01*
X028311Y015801D01*
X028216Y015840D01*
X028114Y015840D01*
X028019Y015801D01*
X027947Y015729D01*
X027908Y015634D01*
X027908Y015613D01*
X027634Y015886D01*
X027634Y016023D01*
X027635Y016024D01*
X027635Y016126D01*
X027596Y016221D01*
X027523Y016293D01*
X027429Y016333D01*
X027357Y016333D01*
X027437Y016473D01*
X027500Y016549D01*
X027500Y016549D01*
X027556Y016606D01*
X027557Y016608D01*
X027594Y016646D01*
X027629Y016711D01*
X027630Y016711D01*
X027758Y016764D01*
X027856Y016862D01*
X027909Y016990D01*
X027909Y017129D01*
X027856Y017257D01*
X027758Y017355D01*
X027630Y017408D01*
X027491Y017408D01*
X027363Y017355D01*
X027311Y017302D01*
X027258Y017355D01*
X027130Y017408D01*
X026991Y017408D01*
X026863Y017355D01*
X026811Y017302D01*
X026758Y017355D01*
X026630Y017408D01*
X026491Y017408D01*
X026363Y017355D01*
X026311Y017302D01*
X026258Y017355D01*
X026130Y017408D01*
X025991Y017408D01*
X025863Y017355D01*
X025811Y017302D01*
X025758Y017355D01*
X025630Y017408D01*
X025491Y017408D01*
X025363Y017355D01*
X025311Y017302D01*
X025258Y017355D01*
X025130Y017408D01*
X024991Y017408D01*
X024863Y017355D01*
X024811Y017302D01*
X024758Y017355D01*
X024630Y017408D01*
X024491Y017408D01*
X024363Y017355D01*
X024311Y017302D01*
X024258Y017355D01*
X024130Y017408D01*
X023991Y017408D01*
X023863Y017355D01*
X023811Y017302D01*
X023758Y017355D01*
X023630Y017408D01*
X023491Y017408D01*
X023372Y017358D01*
X023322Y017408D01*
X022799Y017408D01*
X022712Y017321D01*
X022712Y016798D01*
X022799Y016711D01*
X023322Y016711D01*
X023368Y016757D01*
X023375Y016323D01*
X023329Y014864D01*
X023186Y013412D01*
X022996Y012257D01*
X022996Y012258D01*
X022901Y012297D01*
X022799Y012297D01*
X022770Y012285D01*
X022773Y012288D01*
X022812Y012382D01*
X022812Y012485D01*
X022773Y012579D01*
X022700Y012652D01*
X022606Y012691D01*
X022503Y012691D01*
X022409Y012652D01*
X022336Y012579D01*
X022315Y012528D01*
X022315Y012721D01*
X022228Y012808D01*
X022215Y012808D01*
X022215Y013154D01*
X022221Y013170D01*
X022221Y013272D01*
X022182Y013367D01*
X022110Y013439D01*
X022015Y013478D01*
X022009Y013478D01*
X022597Y014067D01*
X022607Y014077D01*
X022713Y014182D01*
X022713Y014182D01*
X022828Y014297D01*
X022828Y014297D01*
X023086Y014712D01*
X023086Y014712D01*
X023244Y015175D01*
X023293Y015661D01*
X023262Y015903D01*
X023252Y015985D01*
X023243Y016055D01*
X023094Y016322D01*
X022880Y016496D01*
X022871Y016516D01*
X022799Y016589D01*
X022704Y016628D01*
X022602Y016628D01*
X022507Y016589D01*
X022437Y016518D01*
X022409Y016529D01*
X022307Y016529D01*
X022212Y016490D01*
X022140Y016418D01*
X022100Y016323D01*
X022100Y016221D01*
X022140Y016126D01*
X022212Y016054D01*
X022252Y016038D01*
X022238Y016024D01*
X022199Y015930D01*
X022199Y015827D01*
X022207Y015808D01*
X021806Y015808D01*
X021767Y015769D01*
X021728Y015808D01*
X021306Y015808D01*
X021228Y015840D01*
X021125Y015840D01*
X021031Y015801D01*
X020959Y015729D01*
X020919Y015634D01*
X020919Y015532D01*
X020959Y015437D01*
X021031Y015365D01*
X021125Y015326D01*
X021219Y015326D01*
X021219Y015098D01*
X021306Y015011D01*
X021728Y015011D01*
X021767Y015050D01*
X021806Y015011D01*
X022228Y015011D01*
X022315Y015098D01*
X022315Y015658D01*
X022405Y015621D01*
X022507Y015621D01*
X022602Y015660D01*
X022655Y015713D01*
X022682Y015611D01*
X022672Y015413D01*
X022645Y015317D01*
X022546Y015084D01*
X022288Y014650D01*
X021954Y014270D01*
X021763Y014104D01*
X021699Y014054D01*
X021548Y013935D01*
X021172Y013538D01*
X021062Y013382D01*
X021015Y013315D01*
X020884Y013128D01*
X020745Y012737D01*
X020745Y012780D01*
X020706Y012875D01*
X020633Y012947D01*
X020561Y012977D01*
X020561Y013040D01*
X020475Y013127D01*
X019257Y013127D01*
X018856Y013529D01*
X018765Y013566D01*
X018706Y013566D01*
X018739Y013598D01*
X018739Y014129D01*
X019115Y013753D01*
X019115Y013598D01*
X019202Y013511D01*
X020475Y013511D01*
X020561Y013598D01*
X020561Y013662D01*
X020633Y013692D01*
X020706Y013764D01*
X020745Y013859D01*
X020745Y013961D01*
X020706Y014056D01*
X020633Y014128D01*
X020561Y014158D01*
X020561Y014221D01*
X020475Y014308D01*
X019257Y014308D01*
X018925Y014640D01*
X018856Y014710D01*
X018765Y014747D01*
X018775Y014764D01*
X018789Y014815D01*
X018789Y015064D01*
X018042Y015064D01*
X018042Y015118D01*
X017989Y015118D01*
X017989Y015539D01*
X017414Y015539D01*
X017364Y015526D01*
X017318Y015500D01*
X017287Y015469D01*
X017261Y015532D01*
X017259Y015534D01*
X017261Y015536D01*
X017300Y015630D01*
X017300Y015733D01*
X017261Y015827D01*
X017259Y015829D01*
X017261Y015831D01*
X017300Y015926D01*
X017300Y016028D01*
X017261Y016123D01*
X017189Y016195D01*
X017094Y016234D01*
X016992Y016234D01*
X016897Y016195D01*
X016825Y016123D01*
X016786Y016028D01*
X016786Y015926D01*
X016825Y015831D01*
X016827Y015829D01*
X016825Y015827D01*
X016786Y015733D01*
X016786Y015630D01*
X016825Y015536D01*
X016827Y015534D01*
X016825Y015532D01*
X016786Y015437D01*
X016786Y015335D01*
X016825Y015241D01*
X016897Y015168D01*
X016992Y015129D01*
X017094Y015129D01*
X017189Y015168D01*
X017242Y015221D01*
X017242Y015118D01*
X017988Y015118D01*
X017988Y015064D01*
X017242Y015064D01*
X017242Y014815D01*
X017255Y014764D01*
X017265Y014747D01*
X017119Y014747D01*
X017094Y014758D01*
X016992Y014758D01*
X016897Y014719D01*
X016825Y014646D01*
X016786Y014552D01*
X016786Y014449D01*
X016825Y014355D01*
X016897Y014282D01*
X016992Y014243D01*
X017094Y014243D01*
X017119Y014254D01*
X017220Y014254D01*
X017218Y014253D01*
X017179Y014158D01*
X017179Y014056D01*
X017218Y013961D01*
X017269Y013910D01*
X017218Y013859D01*
X017198Y013809D01*
X016681Y014326D01*
X016670Y014351D01*
X016598Y014423D01*
X016503Y014462D01*
X016401Y014462D01*
X016306Y014423D01*
X016234Y014351D01*
X016195Y014256D01*
X016195Y014154D01*
X016234Y014059D01*
X016306Y013987D01*
X016332Y013977D01*
X017195Y013113D01*
X017022Y013113D01*
X016992Y013144D01*
X016897Y013183D01*
X016795Y013183D01*
X016700Y013144D01*
X016628Y013071D01*
X016589Y012977D01*
X016589Y012874D01*
X016628Y012780D01*
X016658Y012750D01*
X016658Y012708D01*
X016628Y012678D01*
X016589Y012583D01*
X016589Y012481D01*
X016628Y012386D01*
X016658Y012356D01*
X016658Y012257D01*
X016679Y012237D01*
X016628Y012186D01*
X016589Y012091D01*
X016589Y011989D01*
X016628Y011894D01*
X016630Y011892D01*
X016628Y011890D01*
X016589Y011796D01*
X016589Y011693D01*
X016628Y011599D01*
X016630Y011597D01*
X016628Y011595D01*
X016589Y011500D01*
X016589Y011398D01*
X016628Y011304D01*
X016700Y011231D01*
X016795Y011192D01*
X016897Y011192D01*
X016992Y011231D01*
X017064Y011304D01*
X017103Y011398D01*
X017103Y011500D01*
X017064Y011595D01*
X017062Y011597D01*
X017064Y011599D01*
X017103Y011693D01*
X017103Y011796D01*
X017064Y011890D01*
X017062Y011892D01*
X017064Y011894D01*
X017103Y011989D01*
X017103Y012091D01*
X017080Y012147D01*
X018343Y012147D01*
X018499Y012147D01*
X018695Y012344D01*
X018805Y012454D01*
X018805Y012881D01*
X019097Y012589D01*
X019115Y012572D01*
X019115Y012417D01*
X019202Y012330D01*
X020475Y012330D01*
X020561Y012417D01*
X020561Y012481D01*
X020633Y012511D01*
X020706Y012583D01*
X020727Y012634D01*
X020700Y012243D01*
X020700Y012243D01*
X020714Y012178D01*
X020639Y012209D01*
X020533Y012209D01*
X020435Y012168D01*
X020360Y012093D01*
X020319Y011995D01*
X020319Y011954D01*
X019520Y011155D01*
X019028Y011155D01*
X018912Y011039D01*
X018105Y010232D01*
X018105Y010068D01*
X018105Y009848D01*
X018048Y009905D01*
X017907Y009964D01*
X017754Y009964D01*
X017612Y009905D01*
X017504Y009797D01*
X017446Y009656D01*
X017446Y009503D01*
X017504Y009361D01*
X017612Y009253D01*
X017754Y009195D01*
X017907Y009195D01*
X018048Y009253D01*
X018105Y009310D01*
X018105Y009061D01*
X018048Y009118D01*
X017907Y009176D01*
X017754Y009176D01*
X017612Y009118D01*
X017504Y009010D01*
X017446Y008868D01*
X017446Y008715D01*
X017504Y008574D01*
X017517Y008561D01*
X017453Y008497D01*
X016297Y008497D01*
X016316Y008544D01*
X016316Y008646D01*
X016277Y008741D01*
X016204Y008813D01*
X016110Y008852D01*
X016007Y008852D01*
X016006Y008852D01*
X014733Y008852D01*
X014732Y008852D01*
X014629Y008852D01*
X014535Y008813D01*
X014462Y008741D01*
X014423Y008646D01*
X014423Y008544D01*
X014462Y008449D01*
X014535Y008377D01*
X014629Y008338D01*
X014732Y008338D01*
X014733Y008338D01*
X014914Y008338D01*
X014844Y008310D01*
X014769Y008234D01*
X014728Y008136D01*
X014728Y008030D01*
X014769Y007932D01*
X014844Y007857D01*
X014942Y007816D01*
X015049Y007816D01*
X015147Y007857D01*
X015222Y007932D01*
X015261Y008026D01*
X015372Y008102D01*
X017453Y008102D01*
X017454Y008102D01*
X017446Y008081D01*
X017446Y007928D01*
X017479Y007848D01*
X015511Y007848D01*
X015347Y007848D01*
X014983Y007484D01*
X014942Y007484D01*
X014844Y007443D01*
X014769Y007368D01*
X014728Y007270D01*
X014728Y007164D01*
X014769Y007066D01*
X014844Y006991D01*
X014942Y006950D01*
X015049Y006950D01*
X015147Y006991D01*
X015222Y007066D01*
X015263Y007164D01*
X015263Y007205D01*
X015511Y007452D01*
X017522Y007452D01*
X017504Y007435D01*
X017496Y007415D01*
X015681Y007415D01*
X015566Y007299D01*
X014947Y006681D01*
X014907Y006778D01*
X014832Y006853D01*
X014734Y006894D01*
X014627Y006894D01*
X014529Y006853D01*
X014454Y006778D01*
X014413Y006680D01*
X014413Y006573D01*
X014454Y006475D01*
X014529Y006400D01*
X014627Y006360D01*
X014338Y006072D01*
X014338Y017599D01*
X020949Y017599D01*
X020796Y017446D01*
X020692Y017195D01*
X020692Y016924D01*
X020796Y016673D01*
X020987Y016482D01*
X021238Y016378D01*
X021509Y016378D01*
X021760Y016482D01*
X021951Y016673D01*
X022055Y016924D01*
X022055Y017195D01*
X021951Y017446D01*
X021798Y017599D01*
X028823Y017599D01*
X028670Y017446D01*
X028566Y017195D01*
X028566Y016924D01*
X028670Y016673D01*
X028861Y016482D01*
X029112Y016378D01*
X029383Y016378D01*
X029634Y016482D01*
X029825Y016673D01*
X029929Y016924D01*
X029929Y017195D01*
X029825Y017446D01*
X029672Y017599D01*
X029983Y017599D01*
X029983Y013659D01*
X029978Y013665D01*
X029304Y013665D01*
X029217Y013578D01*
X029217Y012825D01*
X029304Y012738D01*
X029444Y012738D01*
X029444Y011322D01*
X029393Y011372D01*
X029299Y011411D01*
X029196Y011411D01*
X029102Y011372D01*
X029029Y011300D01*
X029001Y011232D01*
X028974Y011300D01*
X028901Y011372D01*
X028807Y011411D01*
X028704Y011411D01*
X028610Y011372D01*
X028537Y011300D01*
X028498Y011205D01*
X028498Y011103D01*
X028537Y011008D01*
X028610Y010936D01*
X028704Y010897D01*
X028807Y010897D01*
X028901Y010936D01*
X028974Y011008D01*
X029001Y011076D01*
X029029Y011008D01*
X029102Y010936D01*
X029196Y010897D01*
X029299Y010897D01*
X029393Y010936D01*
X029444Y010986D01*
X029444Y010731D01*
X029393Y010782D01*
X029299Y010821D01*
X029196Y010821D01*
X029102Y010782D01*
X029029Y010709D01*
X029001Y010642D01*
X028974Y010709D01*
X028901Y010782D01*
X028807Y010821D01*
X028704Y010821D01*
X028610Y010782D01*
X028537Y010709D01*
X028498Y010615D01*
X028498Y010512D01*
X028537Y010418D01*
X028610Y010345D01*
X028704Y010306D01*
X028807Y010306D01*
X028901Y010345D01*
X028974Y010418D01*
X029001Y010485D01*
X029029Y010418D01*
X029102Y010345D01*
X029196Y010306D01*
X029253Y010306D01*
X029217Y010271D01*
X029217Y009518D01*
X029304Y009431D01*
X029679Y009431D01*
X029679Y009331D01*
X029718Y009237D01*
X029791Y009164D01*
X029885Y009125D01*
X029983Y009125D01*
X029983Y009088D01*
X029885Y009088D01*
X029791Y009049D01*
X029718Y008977D01*
X029679Y008882D01*
X029679Y008780D01*
X029718Y008685D01*
X029791Y008613D01*
X029885Y008574D01*
X029983Y008574D01*
X029983Y008557D01*
X029885Y008557D01*
X029791Y008518D01*
X029718Y008445D01*
X029679Y008351D01*
X029679Y008248D01*
X029718Y008154D01*
X029791Y008082D01*
X029885Y008042D01*
X029983Y008042D01*
X029983Y006756D01*
X029983Y006777D02*
X029906Y006777D01*
X029983Y006972D02*
X029591Y006972D01*
X029558Y007120D02*
X029558Y007120D01*
X029537Y007167D02*
X029983Y007167D01*
X029983Y007363D02*
X029451Y007363D01*
X029365Y007558D02*
X029983Y007558D01*
X029983Y007754D02*
X029280Y007754D01*
X029268Y007780D02*
X029268Y007780D01*
X029151Y007949D02*
X029983Y007949D01*
X029728Y008144D02*
X029015Y008144D01*
X028879Y008340D02*
X029679Y008340D01*
X029833Y008535D02*
X028689Y008535D01*
X028488Y008731D02*
X029700Y008731D01*
X029697Y008926D02*
X028261Y008926D01*
X027962Y009121D02*
X029983Y009121D01*
X029685Y009317D02*
X027618Y009317D01*
X027451Y009512D02*
X027137Y009512D01*
X026787Y009708D02*
X026683Y009708D01*
X026789Y010098D02*
X026852Y010098D01*
X026851Y010294D02*
X027469Y010294D01*
X027327Y010489D02*
X026913Y010489D01*
X026975Y010685D02*
X027346Y010685D01*
X027429Y010936D02*
X027523Y010897D01*
X027626Y010897D01*
X027720Y010936D01*
X027771Y010987D01*
X027822Y010936D01*
X027917Y010897D01*
X028019Y010897D01*
X028114Y010936D01*
X028186Y011008D01*
X028225Y011103D01*
X028225Y011205D01*
X028186Y011300D01*
X028114Y011372D01*
X028019Y011411D01*
X027917Y011411D01*
X027822Y011372D01*
X027771Y011321D01*
X027720Y011372D01*
X027626Y011411D01*
X027523Y011411D01*
X027429Y011372D01*
X027356Y011300D01*
X027317Y011205D01*
X027317Y011103D01*
X027356Y011008D01*
X027429Y010936D01*
X027328Y011075D02*
X027056Y011075D01*
X027016Y010880D02*
X029444Y010880D01*
X029444Y011466D02*
X027135Y011466D01*
X027095Y011271D02*
X027344Y011271D01*
X027174Y011662D02*
X029444Y011662D01*
X029444Y011857D02*
X027201Y011857D01*
X027191Y011745D02*
X027191Y011745D01*
X027219Y012052D02*
X029444Y012052D01*
X029444Y012248D02*
X027237Y012248D01*
X027255Y012443D02*
X029444Y012443D01*
X029444Y012639D02*
X027273Y012639D01*
X027288Y012834D02*
X027446Y012834D01*
X027446Y012825D02*
X027533Y012738D01*
X028207Y012738D01*
X028294Y012825D01*
X028294Y012897D01*
X028311Y012904D01*
X028331Y012925D01*
X028345Y012925D01*
X028389Y012969D01*
X028441Y013003D01*
X028445Y013025D01*
X028461Y013041D01*
X028461Y013103D01*
X028473Y013164D01*
X028461Y013182D01*
X028461Y013204D01*
X028417Y013248D01*
X028382Y013300D01*
X028361Y013305D01*
X028345Y013320D01*
X028331Y013320D01*
X028311Y013341D01*
X028294Y013348D01*
X028294Y013578D01*
X028207Y013665D01*
X027533Y013665D01*
X027446Y013578D01*
X027446Y012825D01*
X027446Y013029D02*
X027285Y013029D01*
X027282Y013225D02*
X027446Y013225D01*
X027446Y013420D02*
X027279Y013420D01*
X027278Y013615D02*
X027483Y013615D01*
X027276Y013811D02*
X029983Y013811D01*
X029983Y014006D02*
X027274Y014006D01*
X027273Y014202D02*
X029983Y014202D01*
X029983Y014397D02*
X029652Y014397D01*
X029652Y014592D02*
X029983Y014592D01*
X029983Y014788D02*
X029652Y014788D01*
X029652Y014983D02*
X029983Y014983D01*
X029983Y015179D02*
X029652Y015179D01*
X029652Y015374D02*
X029983Y015374D01*
X029983Y015569D02*
X028422Y015569D01*
X028347Y015765D02*
X029983Y015765D01*
X029983Y015960D02*
X027634Y015960D01*
X027623Y016156D02*
X028126Y016156D01*
X028133Y016153D02*
X028039Y016192D01*
X027966Y016264D01*
X027927Y016359D01*
X027927Y016461D01*
X027966Y016556D01*
X028039Y016628D01*
X028133Y016667D01*
X028236Y016667D01*
X028330Y016628D01*
X028403Y016556D01*
X028442Y016461D01*
X028442Y016359D01*
X028403Y016264D01*
X028330Y016192D01*
X028236Y016153D01*
X028133Y016153D01*
X028243Y016156D02*
X029983Y016156D01*
X029983Y016351D02*
X028439Y016351D01*
X028407Y016546D02*
X028797Y016546D01*
X028641Y016742D02*
X027704Y016742D01*
X027594Y016646D02*
X027594Y016646D01*
X027498Y016546D02*
X027963Y016546D01*
X027930Y016351D02*
X027367Y016351D01*
X027756Y015765D02*
X027983Y015765D01*
X028274Y015179D02*
X028312Y015179D01*
X028312Y014983D02*
X028274Y014983D01*
X028274Y014788D02*
X028335Y014788D01*
X028274Y014592D02*
X028511Y014592D01*
X028693Y014397D02*
X028274Y014397D01*
X028559Y014894D02*
X028559Y015288D01*
X028801Y015374D02*
X029012Y015374D01*
X028809Y015179D02*
X028805Y015179D01*
X028559Y014894D02*
X028854Y014599D01*
X029255Y013615D02*
X028256Y013615D01*
X028294Y013420D02*
X029217Y013420D01*
X029217Y013225D02*
X028441Y013225D01*
X028450Y013029D02*
X029217Y013029D01*
X029217Y012834D02*
X028294Y012834D01*
X028198Y011271D02*
X028525Y011271D01*
X028509Y011075D02*
X028214Y011075D01*
X028196Y010685D02*
X028527Y010685D01*
X028508Y010489D02*
X028216Y010489D01*
X028270Y010294D02*
X029240Y010294D01*
X029217Y010098D02*
X028297Y010098D01*
X028422Y009903D02*
X029217Y009903D01*
X029217Y009708D02*
X028362Y009708D01*
X028288Y009512D02*
X029223Y009512D01*
X029019Y010685D02*
X028984Y010685D01*
X029001Y011075D02*
X029002Y011075D01*
X028986Y011271D02*
X029017Y011271D01*
X027246Y010098D02*
X027116Y010098D01*
X026979Y010698D02*
X026979Y010698D01*
X024976Y011075D02*
X024917Y010997D01*
X024917Y011065D01*
X024895Y011102D01*
X023027Y012443D02*
X022812Y012443D01*
X022714Y012639D02*
X023059Y012639D01*
X023091Y012834D02*
X022215Y012834D01*
X022215Y013029D02*
X023123Y013029D01*
X023156Y013225D02*
X022221Y013225D01*
X022129Y013420D02*
X023187Y013420D01*
X023206Y013615D02*
X022146Y013615D01*
X022341Y013811D02*
X023225Y013811D01*
X023245Y014006D02*
X022537Y014006D01*
X022732Y014202D02*
X023264Y014202D01*
X023283Y014397D02*
X022890Y014397D01*
X023012Y014592D02*
X023302Y014592D01*
X023321Y014788D02*
X023112Y014788D01*
X023179Y014983D02*
X023332Y014983D01*
X023339Y015179D02*
X023245Y015179D01*
X023244Y015175D02*
X023244Y015175D01*
X023264Y015374D02*
X023345Y015374D01*
X023351Y015569D02*
X023284Y015569D01*
X023293Y015661D02*
X023293Y015661D01*
X023280Y015765D02*
X023358Y015765D01*
X023364Y015960D02*
X023255Y015960D01*
X023187Y016156D02*
X023370Y016156D01*
X023375Y016351D02*
X023058Y016351D01*
X023094Y016322D02*
X023094Y016322D01*
X022841Y016546D02*
X023372Y016546D01*
X023353Y016742D02*
X023368Y016742D01*
X022768Y016742D02*
X021980Y016742D01*
X022055Y016937D02*
X022712Y016937D01*
X022712Y017133D02*
X022055Y017133D01*
X022000Y017328D02*
X022719Y017328D01*
X022465Y016546D02*
X021824Y016546D01*
X022112Y016351D02*
X016335Y016351D01*
X016335Y016156D02*
X016858Y016156D01*
X016786Y015960D02*
X016335Y015960D01*
X016335Y015883D02*
X016335Y017356D01*
X016248Y017443D01*
X015475Y017443D01*
X015388Y017356D01*
X015388Y015883D01*
X015475Y015796D01*
X016248Y015796D01*
X016335Y015883D01*
X016799Y015765D02*
X014338Y015765D01*
X014338Y015960D02*
X015388Y015960D01*
X015388Y016156D02*
X014338Y016156D01*
X014338Y016351D02*
X015388Y016351D01*
X015388Y016546D02*
X014338Y016546D01*
X014338Y016742D02*
X015388Y016742D01*
X015388Y016937D02*
X014338Y016937D01*
X014338Y017133D02*
X015388Y017133D01*
X015388Y017328D02*
X014338Y017328D01*
X014338Y017523D02*
X020874Y017523D01*
X020747Y017328D02*
X016335Y017328D01*
X016335Y017133D02*
X020692Y017133D01*
X020692Y016937D02*
X016335Y016937D01*
X016335Y016742D02*
X020767Y016742D01*
X020923Y016546D02*
X016335Y016546D01*
X017228Y016156D02*
X022128Y016156D01*
X022212Y015960D02*
X017300Y015960D01*
X017287Y015765D02*
X020994Y015765D01*
X020919Y015569D02*
X017275Y015569D01*
X017242Y015179D02*
X017199Y015179D01*
X017242Y014983D02*
X014338Y014983D01*
X014338Y014788D02*
X017249Y014788D01*
X017043Y014500D02*
X018716Y014500D01*
X019307Y013910D01*
X019838Y013910D01*
X020488Y013910D01*
X020726Y014006D02*
X021639Y014006D01*
X021699Y014054D02*
X021699Y014054D01*
X021548Y013935D02*
X021548Y013935D01*
X021431Y013811D02*
X020725Y013811D01*
X020561Y013615D02*
X021245Y013615D01*
X021172Y013538D02*
X021172Y013538D01*
X021089Y013420D02*
X018964Y013420D01*
X019115Y013615D02*
X018739Y013615D01*
X018739Y013811D02*
X019057Y013811D01*
X018861Y014006D02*
X018739Y014006D01*
X018973Y014592D02*
X022237Y014592D01*
X022370Y014788D02*
X020624Y014788D01*
X020607Y014748D02*
X020647Y014843D01*
X020647Y014945D01*
X020607Y015040D01*
X020561Y015086D01*
X020561Y015096D01*
X020607Y015142D01*
X020647Y015237D01*
X020647Y015339D01*
X020607Y015434D01*
X020535Y015506D01*
X020440Y015545D01*
X020338Y015545D01*
X020244Y015506D01*
X020227Y015489D01*
X019202Y015489D01*
X019115Y015402D01*
X019115Y014780D01*
X019202Y014693D01*
X020227Y014693D01*
X020244Y014676D01*
X020338Y014637D01*
X020440Y014637D01*
X020535Y014676D01*
X020607Y014748D01*
X020631Y014983D02*
X022486Y014983D01*
X022586Y015179D02*
X022315Y015179D01*
X022315Y015374D02*
X022661Y015374D01*
X022645Y015317D02*
X022645Y015317D01*
X022680Y015569D02*
X022315Y015569D01*
X021306Y015808D02*
X021306Y015808D01*
X021022Y015374D02*
X020632Y015374D01*
X020623Y015179D02*
X021219Y015179D01*
X022066Y014397D02*
X019169Y014397D01*
X019115Y014788D02*
X018781Y014788D01*
X018789Y014983D02*
X019115Y014983D01*
X019115Y015179D02*
X018789Y015179D01*
X018789Y015118D02*
X018789Y015367D01*
X018775Y015418D01*
X018749Y015463D01*
X018712Y015500D01*
X018667Y015526D01*
X018616Y015539D01*
X018042Y015539D01*
X018042Y015118D01*
X018789Y015118D01*
X018787Y015374D02*
X019115Y015374D01*
X018042Y015374D02*
X017989Y015374D01*
X017989Y015179D02*
X018042Y015179D01*
X016887Y015179D02*
X014338Y015179D01*
X014338Y015374D02*
X016786Y015374D01*
X016811Y015569D02*
X014338Y015569D01*
X014338Y014592D02*
X016802Y014592D01*
X016807Y014397D02*
X016624Y014397D01*
X016452Y014205D02*
X017338Y013319D01*
X018716Y013319D01*
X019307Y012729D01*
X019838Y012729D01*
X020488Y012729D01*
X020723Y012834D02*
X020779Y012834D01*
X020849Y013029D02*
X020561Y013029D01*
X020884Y013128D02*
X020884Y013128D01*
X020951Y013225D02*
X019160Y013225D01*
X018852Y012834D02*
X018805Y012834D01*
X018805Y012639D02*
X019048Y012639D01*
X019115Y012443D02*
X018794Y012443D01*
X018599Y012248D02*
X020701Y012248D01*
X020714Y012443D02*
X020561Y012443D01*
X020343Y012052D02*
X017103Y012052D01*
X017078Y011857D02*
X020222Y011857D01*
X020027Y011662D02*
X017090Y011662D01*
X017103Y011466D02*
X019831Y011466D01*
X019636Y011271D02*
X017031Y011271D01*
X016661Y011271D02*
X016335Y011271D01*
X016335Y011466D02*
X016589Y011466D01*
X016602Y011662D02*
X016335Y011662D01*
X016335Y011857D02*
X016614Y011857D01*
X016589Y012052D02*
X014338Y012052D01*
X014338Y011857D02*
X015388Y011857D01*
X015388Y011936D02*
X015388Y010463D01*
X015475Y010376D01*
X016248Y010376D01*
X016335Y010463D01*
X016335Y011936D01*
X016248Y012023D01*
X015475Y012023D01*
X015388Y011936D01*
X015388Y011662D02*
X014338Y011662D01*
X014338Y011466D02*
X015388Y011466D01*
X015388Y011271D02*
X014338Y011271D01*
X014338Y011075D02*
X015388Y011075D01*
X015388Y010880D02*
X014338Y010880D01*
X014338Y010685D02*
X015388Y010685D01*
X015388Y010489D02*
X014338Y010489D01*
X014338Y010294D02*
X018167Y010294D01*
X018105Y010098D02*
X014338Y010098D01*
X014338Y009903D02*
X014444Y009903D01*
X014454Y009927D02*
X014413Y009829D01*
X014413Y009723D01*
X014454Y009625D01*
X014529Y009550D01*
X014627Y009509D01*
X014734Y009509D01*
X014759Y009519D01*
X016006Y009519D01*
X016007Y009519D01*
X016110Y009519D01*
X016204Y009558D01*
X016277Y009630D01*
X016316Y009725D01*
X016316Y009827D01*
X016277Y009922D01*
X016204Y009994D01*
X016110Y010033D01*
X016007Y010033D01*
X016006Y010033D01*
X014759Y010033D01*
X014734Y010043D01*
X014627Y010043D01*
X014529Y010003D01*
X014454Y009927D01*
X014420Y009708D02*
X014338Y009708D01*
X014338Y009512D02*
X014619Y009512D01*
X014742Y009512D02*
X017446Y009512D01*
X017467Y009708D02*
X016309Y009708D01*
X016285Y009903D02*
X017610Y009903D01*
X018050Y009903D02*
X018105Y009903D01*
X017549Y009317D02*
X014338Y009317D01*
X014338Y009121D02*
X017621Y009121D01*
X017470Y008926D02*
X014338Y008926D01*
X014338Y008731D02*
X014458Y008731D01*
X014427Y008535D02*
X014338Y008535D01*
X014338Y008340D02*
X014624Y008340D01*
X014732Y008144D02*
X014338Y008144D01*
X014338Y007949D02*
X014762Y007949D01*
X014338Y007754D02*
X015253Y007754D01*
X015229Y007949D02*
X017446Y007949D01*
X017491Y008535D02*
X016312Y008535D01*
X016281Y008731D02*
X017446Y008731D01*
X018040Y009121D02*
X018105Y009121D01*
X018362Y010489D02*
X016335Y010489D01*
X016335Y010685D02*
X018558Y010685D01*
X018753Y010880D02*
X016335Y010880D01*
X016335Y011075D02*
X018948Y011075D01*
X020232Y009382D02*
X020370Y009382D01*
X020389Y008890D02*
X020232Y008890D01*
X020232Y008398D02*
X020389Y008398D01*
X020389Y007906D02*
X020291Y007906D01*
X020291Y007414D02*
X020330Y007414D01*
X020488Y007414D01*
X020389Y006922D02*
X020232Y006922D01*
X019897Y006528D02*
X019897Y006469D01*
X019858Y006430D01*
X019897Y006528D02*
X019563Y006863D01*
X019563Y006922D01*
X019661Y007020D01*
X019661Y007414D01*
X019563Y007512D01*
X019563Y007906D01*
X019198Y007137D02*
X019198Y006665D01*
X019175Y006656D01*
X019148Y006629D01*
X019141Y006647D01*
X019032Y006756D01*
X018891Y006814D01*
X018738Y006814D01*
X018597Y006756D01*
X018488Y006647D01*
X018430Y006506D01*
X018430Y006353D01*
X018479Y006234D01*
X018457Y006234D01*
X018221Y005997D01*
X018120Y005896D01*
X018048Y005968D01*
X017907Y006027D01*
X017754Y006027D01*
X017612Y005968D01*
X017504Y005860D01*
X017446Y005719D01*
X017446Y005566D01*
X017495Y005446D01*
X015229Y005446D01*
X015113Y005330D01*
X014983Y005201D01*
X014942Y005201D01*
X014844Y005160D01*
X014769Y005085D01*
X014728Y004987D01*
X014728Y004880D01*
X014769Y004782D01*
X014844Y004707D01*
X014942Y004666D01*
X015049Y004666D01*
X015147Y004707D01*
X015222Y004782D01*
X015263Y004880D01*
X015263Y004921D01*
X015392Y005051D01*
X017495Y005051D01*
X017446Y004931D01*
X017446Y004778D01*
X017495Y004659D01*
X015488Y004659D01*
X015426Y004671D01*
X015408Y004659D01*
X015386Y004659D01*
X015342Y004615D01*
X015040Y004413D01*
X014942Y004413D01*
X014844Y004373D01*
X014769Y004297D01*
X014728Y004199D01*
X014728Y004093D01*
X014769Y003995D01*
X014844Y003920D01*
X014942Y003879D01*
X015049Y003879D01*
X015147Y003920D01*
X015222Y003995D01*
X015259Y004084D01*
X015528Y004263D01*
X017495Y004263D01*
X017446Y004144D01*
X017446Y003991D01*
X017504Y003849D01*
X017612Y003741D01*
X017754Y003683D01*
X017907Y003683D01*
X018048Y003741D01*
X018156Y003849D01*
X018215Y003991D01*
X018215Y004144D01*
X018156Y004285D01*
X018124Y004318D01*
X018185Y004379D01*
X018421Y004614D01*
X018454Y004628D01*
X018481Y004655D01*
X018488Y004637D01*
X018597Y004529D01*
X018698Y004487D01*
X018648Y004470D01*
X018587Y004439D01*
X018531Y004399D01*
X018483Y004351D01*
X018443Y004295D01*
X018412Y004234D01*
X018391Y004169D01*
X018380Y004102D01*
X018380Y004068D01*
X018814Y004068D01*
X018814Y004067D01*
X018380Y004067D01*
X018380Y004033D01*
X018391Y003966D01*
X018412Y003901D01*
X018443Y003840D01*
X018469Y003804D01*
X018221Y003556D01*
X018158Y003494D01*
X018156Y003498D01*
X018048Y003606D01*
X017907Y003665D01*
X017754Y003665D01*
X017612Y003606D01*
X017504Y003498D01*
X017446Y003356D01*
X017446Y003203D01*
X017504Y003062D01*
X017612Y002954D01*
X017754Y002895D01*
X017907Y002895D01*
X018048Y002954D01*
X018105Y003011D01*
X018105Y002762D01*
X018048Y002819D01*
X017907Y002877D01*
X017754Y002877D01*
X017612Y002819D01*
X017504Y002710D01*
X017446Y002569D01*
X017446Y002416D01*
X017504Y002275D01*
X017612Y002166D01*
X017670Y002142D01*
X017642Y002073D01*
X017642Y001982D01*
X015176Y001982D01*
X015147Y002010D01*
X015049Y002051D01*
X014942Y002051D01*
X014844Y002010D01*
X014769Y001935D01*
X014728Y001837D01*
X014728Y001731D01*
X014769Y001633D01*
X014844Y001557D01*
X014942Y001517D01*
X015049Y001517D01*
X015147Y001557D01*
X015176Y001586D01*
X015267Y001586D01*
X014992Y001312D01*
X014959Y001312D01*
X014681Y001590D01*
X014681Y002058D01*
X014728Y002038D01*
X014830Y002038D01*
X014925Y002078D01*
X014997Y002150D01*
X015036Y002245D01*
X015036Y002347D01*
X014997Y002441D01*
X014925Y002514D01*
X014830Y002553D01*
X014728Y002553D01*
X014681Y002534D01*
X014681Y003239D01*
X014728Y003220D01*
X014830Y003220D01*
X014855Y003230D01*
X015982Y003230D01*
X016007Y003220D01*
X016110Y003220D01*
X016204Y003259D01*
X016277Y003331D01*
X016316Y003426D01*
X016316Y003528D01*
X016277Y003623D01*
X016204Y003695D01*
X016110Y003734D01*
X016007Y003734D01*
X015982Y003724D01*
X014855Y003724D01*
X014830Y003734D01*
X014728Y003734D01*
X014681Y003715D01*
X014681Y005207D01*
X014728Y005188D01*
X014830Y005188D01*
X014925Y005227D01*
X014997Y005300D01*
X015036Y005394D01*
X015036Y005497D01*
X014997Y005591D01*
X014925Y005663D01*
X014830Y005703D01*
X014728Y005703D01*
X014681Y005683D01*
X014681Y005856D01*
X015845Y007019D01*
X017496Y007019D01*
X017504Y006999D01*
X017612Y006891D01*
X017754Y006832D01*
X017907Y006832D01*
X018048Y006891D01*
X018156Y006999D01*
X018215Y007140D01*
X018215Y007256D01*
X018227Y007256D01*
X018430Y007256D01*
X018430Y007140D01*
X018488Y006999D01*
X018597Y006891D01*
X018738Y006832D01*
X018891Y006832D01*
X019032Y006891D01*
X019141Y006999D01*
X019198Y007137D01*
X019198Y006972D02*
X019114Y006972D01*
X019198Y006777D02*
X018982Y006777D01*
X018647Y006777D02*
X017997Y006777D01*
X018048Y006756D02*
X017907Y006814D01*
X017754Y006814D01*
X017612Y006756D01*
X017504Y006647D01*
X017446Y006506D01*
X017446Y006353D01*
X017504Y006212D01*
X017612Y006104D01*
X017754Y006045D01*
X017907Y006045D01*
X018048Y006104D01*
X018156Y006212D01*
X018215Y006353D01*
X018215Y006506D01*
X018156Y006647D01*
X018048Y006756D01*
X018184Y006581D02*
X018461Y006581D01*
X018430Y006386D02*
X018215Y006386D01*
X018135Y006191D02*
X018414Y006191D01*
X018219Y005995D02*
X017983Y005995D01*
X017677Y005995D02*
X014821Y005995D01*
X014681Y005800D02*
X017479Y005800D01*
X017446Y005604D02*
X014984Y005604D01*
X015036Y005409D02*
X015191Y005409D01*
X015113Y005330D02*
X015113Y005330D01*
X014996Y005214D02*
X014892Y005214D01*
X014741Y005018D02*
X014681Y005018D01*
X014681Y004823D02*
X014752Y004823D01*
X014681Y004627D02*
X015355Y004627D01*
X015239Y004823D02*
X017446Y004823D01*
X017482Y005018D02*
X015360Y005018D01*
X015068Y004432D02*
X014681Y004432D01*
X014681Y004237D02*
X014744Y004237D01*
X014750Y004041D02*
X014681Y004041D01*
X014681Y003846D02*
X017508Y003846D01*
X017446Y004041D02*
X015241Y004041D01*
X015487Y004237D02*
X017484Y004237D01*
X017719Y003650D02*
X016249Y003650D01*
X016316Y003455D02*
X017486Y003455D01*
X017446Y003260D02*
X016205Y003260D01*
X016059Y003477D02*
X014779Y003477D01*
X014681Y003064D02*
X017503Y003064D01*
X017733Y002869D02*
X014681Y002869D01*
X014681Y002673D02*
X017489Y002673D01*
X017446Y002478D02*
X014961Y002478D01*
X015036Y002283D02*
X017501Y002283D01*
X017648Y002087D02*
X014934Y002087D01*
X014751Y001892D02*
X014681Y001892D01*
X014681Y001696D02*
X014743Y001696D01*
X014771Y001501D02*
X015181Y001501D01*
X015545Y001306D02*
X020692Y001306D01*
X020714Y001501D02*
X019454Y001501D01*
X019460Y001696D02*
X020795Y001696D01*
X020994Y001892D02*
X019635Y001892D01*
X019893Y002087D02*
X022317Y002087D01*
X022205Y002283D02*
X019887Y002283D01*
X019799Y002571D02*
X019523Y002571D01*
X019326Y002374D01*
X019346Y002374D01*
X019149Y002178D01*
X019144Y002283D02*
X019396Y002283D01*
X019199Y002478D02*
X022116Y002478D01*
X022064Y002591D02*
X022064Y002591D01*
X022046Y002673D02*
X019156Y002673D01*
X018911Y002869D02*
X022003Y002869D01*
X021964Y003046D02*
X021964Y003046D01*
X021964Y003064D02*
X020256Y003064D01*
X020389Y002886D02*
X020114Y002886D01*
X019799Y002571D01*
X019538Y003064D02*
X019141Y003064D01*
X019199Y003260D02*
X019404Y003260D01*
X019404Y003455D02*
X019158Y003455D01*
X018718Y002869D02*
X018500Y002869D01*
X018105Y002869D02*
X017927Y002869D01*
X017941Y003650D02*
X018315Y003650D01*
X018440Y003846D02*
X018153Y003846D01*
X018215Y004041D02*
X018380Y004041D01*
X018413Y004237D02*
X018176Y004237D01*
X018238Y004432D02*
X018577Y004432D01*
X018498Y004627D02*
X018452Y004627D01*
X017525Y006191D02*
X015016Y006191D01*
X015212Y006386D02*
X017446Y006386D01*
X017477Y006581D02*
X015407Y006581D01*
X015602Y006777D02*
X017663Y006777D01*
X017531Y006972D02*
X015798Y006972D01*
X015434Y007167D02*
X015263Y007167D01*
X015239Y006972D02*
X015102Y006972D01*
X015044Y006777D02*
X014908Y006777D01*
X014889Y006972D02*
X014338Y006972D01*
X014338Y006777D02*
X014454Y006777D01*
X014413Y006581D02*
X014338Y006581D01*
X014338Y006386D02*
X014563Y006386D01*
X014457Y006191D02*
X014338Y006191D01*
X014338Y007167D02*
X014728Y007167D01*
X014767Y007363D02*
X014338Y007363D01*
X014338Y007558D02*
X015057Y007558D01*
X015421Y007363D02*
X015630Y007363D01*
X018129Y006972D02*
X018515Y006972D01*
X018430Y007167D02*
X018215Y007167D01*
X020527Y005937D02*
X020685Y005937D01*
X020685Y005445D02*
X020527Y005445D01*
X020527Y004953D02*
X020685Y004953D01*
X020685Y004461D02*
X020527Y004461D01*
X020527Y003969D02*
X020685Y003969D01*
X020685Y003477D02*
X020527Y003477D01*
X020892Y003260D02*
X021963Y003260D01*
X021963Y003361D02*
X021963Y003361D01*
X021963Y003455D02*
X021149Y003455D01*
X021173Y003482D02*
X021173Y003482D01*
X021333Y003650D02*
X022010Y003650D01*
X021963Y003502D02*
X021963Y003502D01*
X022072Y003846D02*
X021628Y003846D01*
X022363Y003336D02*
X022405Y003318D01*
X022448Y003318D01*
X022809Y003072D01*
X022858Y003023D01*
X022881Y003023D01*
X022901Y003010D01*
X022958Y003021D01*
X023011Y002968D01*
X023002Y002968D01*
X022839Y002900D01*
X022714Y002775D01*
X022646Y002612D01*
X022646Y002436D01*
X022714Y002273D01*
X022839Y002148D01*
X023002Y002080D01*
X023178Y002080D01*
X023341Y002148D01*
X023441Y002248D01*
X023558Y001874D01*
X023625Y001778D01*
X023625Y001778D01*
X023672Y001711D01*
X023684Y001692D01*
X023677Y001695D01*
X023600Y001710D01*
X023561Y001710D01*
X023561Y001312D01*
X023560Y001312D01*
X023560Y001710D01*
X023521Y001710D01*
X023444Y001695D01*
X023372Y001665D01*
X023339Y001643D01*
X023322Y001660D01*
X023095Y001660D01*
X023001Y001830D01*
X022762Y002151D01*
X022762Y002151D01*
X022715Y002215D01*
X022713Y002217D01*
X022608Y002375D01*
X022451Y002720D01*
X022369Y003091D01*
X022359Y003280D01*
X022359Y003281D01*
X022363Y003336D01*
X022360Y003260D02*
X022534Y003260D01*
X022375Y003064D02*
X022817Y003064D01*
X022807Y002869D02*
X022418Y002869D01*
X022472Y002673D02*
X022672Y002673D01*
X022646Y002478D02*
X022561Y002478D01*
X022669Y002283D02*
X022710Y002283D01*
X022810Y002087D02*
X022985Y002087D01*
X022955Y001892D02*
X023553Y001892D01*
X023558Y001874D02*
X023558Y001874D01*
X023560Y001696D02*
X023561Y001696D01*
X023667Y001696D02*
X023681Y001696D01*
X023454Y001696D02*
X023074Y001696D01*
X023195Y002087D02*
X023492Y002087D01*
X023560Y001501D02*
X023561Y001501D01*
X023560Y001306D02*
X023561Y001306D01*
X023560Y001110D02*
X023561Y001110D01*
X023560Y000915D02*
X023561Y000915D01*
X023609Y000915D02*
X028680Y000915D01*
X028593Y001110D02*
X027852Y001110D01*
X027909Y001306D02*
X028566Y001306D01*
X028588Y001501D02*
X027859Y001501D01*
X028669Y001696D02*
X025819Y001696D01*
X025807Y001892D02*
X028868Y001892D01*
X029627Y001892D02*
X029983Y001892D01*
X029983Y002087D02*
X026195Y002087D01*
X025985Y002087D02*
X025796Y002087D01*
X026470Y002283D02*
X029983Y002283D01*
X029983Y002478D02*
X026534Y002478D01*
X026508Y002673D02*
X029983Y002673D01*
X029983Y002869D02*
X026373Y002869D01*
X026166Y003846D02*
X026986Y003846D01*
X026574Y004041D02*
X026066Y004041D01*
X025932Y004237D02*
X026622Y004237D01*
X026674Y004432D02*
X025724Y004432D01*
X025557Y004519D02*
X025557Y004519D01*
X025464Y004627D02*
X026727Y004627D01*
X026779Y004823D02*
X025406Y004823D01*
X025438Y004714D02*
X025438Y004714D01*
X025426Y005018D02*
X026831Y005018D01*
X026812Y005101D02*
X026812Y005101D01*
X026789Y005214D02*
X026498Y005214D01*
X026538Y005364D02*
X026538Y005364D01*
X026550Y005409D02*
X026750Y005409D01*
X026727Y005604D02*
X026602Y005604D01*
X026589Y005554D02*
X026589Y005554D01*
X026640Y005744D02*
X026640Y005744D01*
X026655Y005800D02*
X026714Y005800D01*
X026691Y005934D02*
X026691Y005934D01*
X025800Y006191D02*
X025799Y006191D01*
X025756Y006026D02*
X025756Y006026D01*
X025748Y005995D02*
X025614Y005995D01*
X025705Y005836D02*
X025705Y005836D01*
X025695Y005800D02*
X025157Y005800D01*
X025174Y005604D02*
X025643Y005604D01*
X025654Y005646D02*
X025654Y005646D01*
X025594Y005409D02*
X025049Y005409D01*
X025034Y005413D02*
X025034Y005413D01*
X025225Y005362D02*
X025225Y005362D01*
X025471Y005214D02*
X026001Y005214D01*
X028451Y003064D02*
X029983Y003064D01*
X029983Y001696D02*
X029826Y001696D01*
X029907Y001501D02*
X029983Y001501D01*
X029983Y001306D02*
X029929Y001306D01*
X029902Y001110D02*
X029983Y001110D01*
X029983Y000915D02*
X029815Y000915D01*
X023512Y000915D02*
X021941Y000915D01*
X022028Y001110D02*
X022712Y001110D01*
X022712Y001306D02*
X022055Y001306D01*
X022033Y001501D02*
X022712Y001501D01*
X022593Y001696D02*
X021952Y001696D01*
X021753Y001892D02*
X022458Y001892D01*
X020719Y001110D02*
X015349Y001110D01*
X014602Y001110D02*
X014338Y001110D01*
X014338Y000915D02*
X020806Y000915D01*
X018917Y002087D02*
X018413Y002087D01*
X014407Y001306D02*
X014338Y001306D01*
X014338Y012248D02*
X016668Y012248D01*
X016604Y012443D02*
X014338Y012443D01*
X014338Y012639D02*
X016612Y012639D01*
X016605Y012834D02*
X014338Y012834D01*
X014338Y013029D02*
X016610Y013029D01*
X017084Y013225D02*
X014338Y013225D01*
X014338Y013420D02*
X016888Y013420D01*
X016693Y013615D02*
X014338Y013615D01*
X014338Y013811D02*
X016497Y013811D01*
X016287Y014006D02*
X014338Y014006D01*
X014338Y014202D02*
X016195Y014202D01*
X016280Y014397D02*
X014338Y014397D01*
X016805Y014202D02*
X017197Y014202D01*
X017200Y014006D02*
X017000Y014006D01*
X017196Y013811D02*
X017199Y013811D01*
X020561Y014202D02*
X021875Y014202D01*
X021062Y013382D02*
X021062Y013382D01*
X022315Y012639D02*
X022396Y012639D01*
X023785Y017328D02*
X023836Y017328D01*
X024285Y017328D02*
X024336Y017328D01*
X024785Y017328D02*
X024836Y017328D01*
X025285Y017328D02*
X025336Y017328D01*
X025785Y017328D02*
X025836Y017328D01*
X026285Y017328D02*
X026336Y017328D01*
X026785Y017328D02*
X026836Y017328D01*
X027285Y017328D02*
X027336Y017328D01*
X027785Y017328D02*
X028621Y017328D01*
X028566Y017133D02*
X027907Y017133D01*
X027887Y016937D02*
X028566Y016937D01*
X028748Y017523D02*
X021873Y017523D01*
X027275Y015374D02*
X027420Y015374D01*
X027396Y015179D02*
X027273Y015179D01*
X027271Y014983D02*
X027317Y014983D01*
X027318Y014788D02*
X027270Y014788D01*
X027270Y014592D02*
X027415Y014592D01*
X027271Y014397D02*
X027610Y014397D01*
X029698Y016546D02*
X029983Y016546D01*
X029983Y016742D02*
X029854Y016742D01*
X029929Y016937D02*
X029983Y016937D01*
X029983Y017133D02*
X029929Y017133D01*
X029874Y017328D02*
X029983Y017328D01*
X029983Y017523D02*
X029747Y017523D01*
D27*
X018425Y012339D02*
X018421Y012335D01*
X016846Y012335D01*
X016846Y012926D01*
X017301Y012926D01*
X017301Y012768D01*
X017976Y012768D01*
X017976Y012689D01*
X018055Y012689D01*
X018055Y012339D01*
X018425Y012339D01*
X018055Y012348D02*
X017976Y012348D01*
X017976Y012339D02*
X017976Y012689D01*
X017301Y012689D01*
X017301Y012460D01*
X017310Y012425D01*
X017329Y012393D01*
X017355Y012367D01*
X017386Y012349D01*
X017422Y012339D01*
X017976Y012339D01*
X017976Y012426D02*
X018055Y012426D01*
X018055Y012503D02*
X017976Y012503D01*
X017976Y012580D02*
X018055Y012580D01*
X018055Y012658D02*
X017976Y012658D01*
X017976Y012735D02*
X016846Y012735D01*
X016846Y012812D02*
X017301Y012812D01*
X017301Y012889D02*
X016846Y012889D01*
X016846Y012658D02*
X017301Y012658D01*
X017301Y012580D02*
X016846Y012580D01*
X016846Y012503D02*
X017301Y012503D01*
X017310Y012426D02*
X016846Y012426D01*
X016846Y012348D02*
X017388Y012348D01*
D28*
X023090Y002524D03*
X024090Y002524D03*
X025090Y002524D03*
X026090Y002524D03*
D29*
X025901Y010662D02*
X025732Y010831D01*
X025541Y010929D01*
X025311Y012564D02*
X025311Y012729D01*
X027574Y014796D02*
X027574Y014993D01*
X027574Y014796D02*
X027771Y014599D01*
X027968Y014599D01*
X027968Y015189D02*
X027377Y015780D01*
X027377Y016075D01*
X028854Y014599D02*
X029346Y014599D01*
X016059Y009776D02*
X014681Y009776D01*
X014681Y008595D02*
X016059Y008595D01*
D30*
X022456Y003575D02*
X022948Y003241D01*
X023126Y003241D01*
X023244Y003260D01*
X023244Y003851D02*
X023342Y004048D01*
X023342Y004737D01*
X023555Y004656D01*
X024201Y004483D02*
X024267Y004540D01*
X024201Y004483D02*
X024263Y004422D01*
X024444Y004422D01*
X025114Y003851D02*
X025704Y003182D01*
X025704Y003162D01*
X025389Y003083D02*
X025212Y003083D01*
X025114Y003260D01*
M02*
