G75*
G70*
%OFA0B0*%
%FSLAX24Y24*%
%IPPOS*%
%LPD*%
%AMOC8*
5,1,8,0,0,1.08239X$1,22.5*
%
%ADD10C,0.0000*%
%ADD11R,0.0118X0.0630*%
%ADD12R,0.0433X0.0394*%
%ADD13R,0.0551X0.0630*%
%ADD14R,0.0315X0.0315*%
%ADD15R,0.1100X0.0290*%
%ADD16C,0.0472*%
%ADD17R,0.0400X0.0400*%
%ADD18C,0.0400*%
%ADD19R,0.0299X0.0500*%
%ADD20R,0.1150X0.0500*%
%ADD21R,0.0650X0.1350*%
%ADD22C,0.0098*%
%ADD23C,0.0218*%
%ADD24C,0.0157*%
%ADD25C,0.0237*%
%ADD26C,0.0197*%
%ADD27C,0.0079*%
%ADD28C,0.0591*%
%ADD29C,0.0217*%
%ADD30C,0.0138*%
%ADD31C,0.0180*%
D10*
X000514Y000524D02*
X000514Y017847D01*
X016656Y017847D01*
X016656Y000524D01*
X000514Y000524D01*
X007364Y001311D02*
X007366Y001352D01*
X007372Y001393D01*
X007382Y001433D01*
X007395Y001472D01*
X007412Y001509D01*
X007433Y001545D01*
X007457Y001579D01*
X007484Y001610D01*
X007513Y001638D01*
X007546Y001664D01*
X007580Y001686D01*
X007617Y001705D01*
X007655Y001720D01*
X007695Y001732D01*
X007735Y001740D01*
X007776Y001744D01*
X007818Y001744D01*
X007859Y001740D01*
X007899Y001732D01*
X007939Y001720D01*
X007977Y001705D01*
X008013Y001686D01*
X008048Y001664D01*
X008081Y001638D01*
X008110Y001610D01*
X008137Y001579D01*
X008161Y001545D01*
X008182Y001509D01*
X008199Y001472D01*
X008212Y001433D01*
X008222Y001393D01*
X008228Y001352D01*
X008230Y001311D01*
X008228Y001270D01*
X008222Y001229D01*
X008212Y001189D01*
X008199Y001150D01*
X008182Y001113D01*
X008161Y001077D01*
X008137Y001043D01*
X008110Y001012D01*
X008081Y000984D01*
X008048Y000958D01*
X008014Y000936D01*
X007977Y000917D01*
X007939Y000902D01*
X007899Y000890D01*
X007859Y000882D01*
X007818Y000878D01*
X007776Y000878D01*
X007735Y000882D01*
X007695Y000890D01*
X007655Y000902D01*
X007617Y000917D01*
X007581Y000936D01*
X007546Y000958D01*
X007513Y000984D01*
X007484Y001012D01*
X007457Y001043D01*
X007433Y001077D01*
X007412Y001113D01*
X007395Y001150D01*
X007382Y001189D01*
X007372Y001229D01*
X007366Y001270D01*
X007364Y001311D01*
X015238Y001311D02*
X015240Y001352D01*
X015246Y001393D01*
X015256Y001433D01*
X015269Y001472D01*
X015286Y001509D01*
X015307Y001545D01*
X015331Y001579D01*
X015358Y001610D01*
X015387Y001638D01*
X015420Y001664D01*
X015454Y001686D01*
X015491Y001705D01*
X015529Y001720D01*
X015569Y001732D01*
X015609Y001740D01*
X015650Y001744D01*
X015692Y001744D01*
X015733Y001740D01*
X015773Y001732D01*
X015813Y001720D01*
X015851Y001705D01*
X015887Y001686D01*
X015922Y001664D01*
X015955Y001638D01*
X015984Y001610D01*
X016011Y001579D01*
X016035Y001545D01*
X016056Y001509D01*
X016073Y001472D01*
X016086Y001433D01*
X016096Y001393D01*
X016102Y001352D01*
X016104Y001311D01*
X016102Y001270D01*
X016096Y001229D01*
X016086Y001189D01*
X016073Y001150D01*
X016056Y001113D01*
X016035Y001077D01*
X016011Y001043D01*
X015984Y001012D01*
X015955Y000984D01*
X015922Y000958D01*
X015888Y000936D01*
X015851Y000917D01*
X015813Y000902D01*
X015773Y000890D01*
X015733Y000882D01*
X015692Y000878D01*
X015650Y000878D01*
X015609Y000882D01*
X015569Y000890D01*
X015529Y000902D01*
X015491Y000917D01*
X015455Y000936D01*
X015420Y000958D01*
X015387Y000984D01*
X015358Y001012D01*
X015331Y001043D01*
X015307Y001077D01*
X015286Y001113D01*
X015269Y001150D01*
X015256Y001189D01*
X015246Y001229D01*
X015240Y001270D01*
X015238Y001311D01*
X015238Y017060D02*
X015240Y017101D01*
X015246Y017142D01*
X015256Y017182D01*
X015269Y017221D01*
X015286Y017258D01*
X015307Y017294D01*
X015331Y017328D01*
X015358Y017359D01*
X015387Y017387D01*
X015420Y017413D01*
X015454Y017435D01*
X015491Y017454D01*
X015529Y017469D01*
X015569Y017481D01*
X015609Y017489D01*
X015650Y017493D01*
X015692Y017493D01*
X015733Y017489D01*
X015773Y017481D01*
X015813Y017469D01*
X015851Y017454D01*
X015887Y017435D01*
X015922Y017413D01*
X015955Y017387D01*
X015984Y017359D01*
X016011Y017328D01*
X016035Y017294D01*
X016056Y017258D01*
X016073Y017221D01*
X016086Y017182D01*
X016096Y017142D01*
X016102Y017101D01*
X016104Y017060D01*
X016102Y017019D01*
X016096Y016978D01*
X016086Y016938D01*
X016073Y016899D01*
X016056Y016862D01*
X016035Y016826D01*
X016011Y016792D01*
X015984Y016761D01*
X015955Y016733D01*
X015922Y016707D01*
X015888Y016685D01*
X015851Y016666D01*
X015813Y016651D01*
X015773Y016639D01*
X015733Y016631D01*
X015692Y016627D01*
X015650Y016627D01*
X015609Y016631D01*
X015569Y016639D01*
X015529Y016651D01*
X015491Y016666D01*
X015455Y016685D01*
X015420Y016707D01*
X015387Y016733D01*
X015358Y016761D01*
X015331Y016792D01*
X015307Y016826D01*
X015286Y016862D01*
X015269Y016899D01*
X015256Y016938D01*
X015246Y016978D01*
X015240Y017019D01*
X015238Y017060D01*
X007364Y017060D02*
X007366Y017101D01*
X007372Y017142D01*
X007382Y017182D01*
X007395Y017221D01*
X007412Y017258D01*
X007433Y017294D01*
X007457Y017328D01*
X007484Y017359D01*
X007513Y017387D01*
X007546Y017413D01*
X007580Y017435D01*
X007617Y017454D01*
X007655Y017469D01*
X007695Y017481D01*
X007735Y017489D01*
X007776Y017493D01*
X007818Y017493D01*
X007859Y017489D01*
X007899Y017481D01*
X007939Y017469D01*
X007977Y017454D01*
X008013Y017435D01*
X008048Y017413D01*
X008081Y017387D01*
X008110Y017359D01*
X008137Y017328D01*
X008161Y017294D01*
X008182Y017258D01*
X008199Y017221D01*
X008212Y017182D01*
X008222Y017142D01*
X008228Y017101D01*
X008230Y017060D01*
X008228Y017019D01*
X008222Y016978D01*
X008212Y016938D01*
X008199Y016899D01*
X008182Y016862D01*
X008161Y016826D01*
X008137Y016792D01*
X008110Y016761D01*
X008081Y016733D01*
X008048Y016707D01*
X008014Y016685D01*
X007977Y016666D01*
X007939Y016651D01*
X007899Y016639D01*
X007859Y016631D01*
X007818Y016627D01*
X007776Y016627D01*
X007735Y016631D01*
X007695Y016639D01*
X007655Y016651D01*
X007617Y016666D01*
X007581Y016685D01*
X007546Y016707D01*
X007513Y016733D01*
X007484Y016761D01*
X007457Y016792D01*
X007433Y016826D01*
X007412Y016862D01*
X007395Y016899D01*
X007382Y016938D01*
X007372Y016978D01*
X007366Y017019D01*
X007364Y017060D01*
D11*
G36*
X009359Y011202D02*
X009473Y011171D01*
X009311Y010564D01*
X009197Y010595D01*
X009359Y011202D01*
G37*
G36*
X009549Y011151D02*
X009663Y011120D01*
X009501Y010513D01*
X009387Y010544D01*
X009549Y011151D01*
G37*
G36*
X009739Y011100D02*
X009853Y011069D01*
X009691Y010462D01*
X009577Y010493D01*
X009739Y011100D01*
G37*
G36*
X009929Y011049D02*
X010043Y011018D01*
X009881Y010411D01*
X009767Y010442D01*
X009929Y011049D01*
G37*
G36*
X010119Y010998D02*
X010233Y010967D01*
X010071Y010360D01*
X009957Y010391D01*
X010119Y010998D01*
G37*
G36*
X010309Y010947D02*
X010423Y010916D01*
X010261Y010309D01*
X010147Y010340D01*
X010309Y010947D01*
G37*
G36*
X010500Y010896D02*
X010614Y010865D01*
X010452Y010258D01*
X010338Y010289D01*
X010500Y010896D01*
G37*
G36*
X010690Y010845D02*
X010804Y010814D01*
X010642Y010207D01*
X010528Y010238D01*
X010690Y010845D01*
G37*
G36*
X010880Y010794D02*
X010994Y010763D01*
X010832Y010156D01*
X010718Y010187D01*
X010880Y010794D01*
G37*
G36*
X011070Y010743D02*
X011184Y010712D01*
X011022Y010105D01*
X010908Y010136D01*
X011070Y010743D01*
G37*
G36*
X011260Y010692D02*
X011374Y010661D01*
X011212Y010054D01*
X011098Y010085D01*
X011260Y010692D01*
G37*
G36*
X011450Y010641D02*
X011564Y010610D01*
X011402Y010003D01*
X011288Y010034D01*
X011450Y010641D01*
G37*
G36*
X011640Y010590D02*
X011754Y010559D01*
X011592Y009952D01*
X011478Y009983D01*
X011640Y010590D01*
G37*
G36*
X011831Y010539D02*
X011945Y010508D01*
X011783Y009901D01*
X011669Y009932D01*
X011831Y010539D01*
G37*
G36*
X012021Y010488D02*
X012135Y010457D01*
X011973Y009850D01*
X011859Y009881D01*
X012021Y010488D01*
G37*
G36*
X012211Y010437D02*
X012325Y010406D01*
X012163Y009799D01*
X012049Y009830D01*
X012211Y010437D01*
G37*
G36*
X012401Y010386D02*
X012515Y010355D01*
X012353Y009748D01*
X012239Y009779D01*
X012401Y010386D01*
G37*
G36*
X012591Y010335D02*
X012705Y010304D01*
X012543Y009697D01*
X012429Y009728D01*
X012591Y010335D01*
G37*
G36*
X012781Y010284D02*
X012895Y010253D01*
X012733Y009646D01*
X012619Y009677D01*
X012781Y010284D01*
G37*
G36*
X012971Y010233D02*
X013085Y010202D01*
X012923Y009595D01*
X012809Y009626D01*
X012971Y010233D01*
G37*
G36*
X013781Y008998D02*
X013750Y008884D01*
X013143Y009046D01*
X013174Y009160D01*
X013781Y008998D01*
G37*
G36*
X013730Y008808D02*
X013699Y008694D01*
X013092Y008856D01*
X013123Y008970D01*
X013730Y008808D01*
G37*
G36*
X013680Y008618D02*
X013649Y008504D01*
X013042Y008666D01*
X013073Y008780D01*
X013680Y008618D01*
G37*
G36*
X013629Y008428D02*
X013598Y008314D01*
X012991Y008476D01*
X013022Y008590D01*
X013629Y008428D01*
G37*
G36*
X013578Y008238D02*
X013547Y008124D01*
X012940Y008286D01*
X012971Y008400D01*
X013578Y008238D01*
G37*
G36*
X013527Y008048D02*
X013496Y007934D01*
X012889Y008096D01*
X012920Y008210D01*
X013527Y008048D01*
G37*
G36*
X013476Y007858D02*
X013445Y007744D01*
X012838Y007906D01*
X012869Y008020D01*
X013476Y007858D01*
G37*
G36*
X013425Y007667D02*
X013394Y007553D01*
X012787Y007715D01*
X012818Y007829D01*
X013425Y007667D01*
G37*
G36*
X013374Y007477D02*
X013343Y007363D01*
X012736Y007525D01*
X012767Y007639D01*
X013374Y007477D01*
G37*
G36*
X013323Y007287D02*
X013292Y007173D01*
X012685Y007335D01*
X012716Y007449D01*
X013323Y007287D01*
G37*
G36*
X013272Y007097D02*
X013241Y006983D01*
X012634Y007145D01*
X012665Y007259D01*
X013272Y007097D01*
G37*
G36*
X013221Y006907D02*
X013190Y006793D01*
X012583Y006955D01*
X012614Y007069D01*
X013221Y006907D01*
G37*
G36*
X013170Y006717D02*
X013139Y006603D01*
X012532Y006765D01*
X012563Y006879D01*
X013170Y006717D01*
G37*
G36*
X013119Y006527D02*
X013088Y006413D01*
X012481Y006575D01*
X012512Y006689D01*
X013119Y006527D01*
G37*
G36*
X013068Y006336D02*
X013037Y006222D01*
X012430Y006384D01*
X012461Y006498D01*
X013068Y006336D01*
G37*
G36*
X013017Y006146D02*
X012986Y006032D01*
X012379Y006194D01*
X012410Y006308D01*
X013017Y006146D01*
G37*
G36*
X012966Y005956D02*
X012935Y005842D01*
X012328Y006004D01*
X012359Y006118D01*
X012966Y005956D01*
G37*
G36*
X012915Y005766D02*
X012884Y005652D01*
X012277Y005814D01*
X012308Y005928D01*
X012915Y005766D01*
G37*
G36*
X012864Y005576D02*
X012833Y005462D01*
X012226Y005624D01*
X012257Y005738D01*
X012864Y005576D01*
G37*
G36*
X012813Y005386D02*
X012782Y005272D01*
X012175Y005434D01*
X012206Y005548D01*
X012813Y005386D01*
G37*
G36*
X011578Y004576D02*
X011464Y004607D01*
X011626Y005214D01*
X011740Y005183D01*
X011578Y004576D01*
G37*
G36*
X011388Y004627D02*
X011274Y004658D01*
X011436Y005265D01*
X011550Y005234D01*
X011388Y004627D01*
G37*
G36*
X011198Y004678D02*
X011084Y004709D01*
X011246Y005316D01*
X011360Y005285D01*
X011198Y004678D01*
G37*
G36*
X011008Y004729D02*
X010894Y004760D01*
X011056Y005367D01*
X011170Y005336D01*
X011008Y004729D01*
G37*
G36*
X010818Y004780D02*
X010704Y004811D01*
X010866Y005418D01*
X010980Y005387D01*
X010818Y004780D01*
G37*
G36*
X010628Y004830D02*
X010514Y004861D01*
X010676Y005468D01*
X010790Y005437D01*
X010628Y004830D01*
G37*
G36*
X010437Y004881D02*
X010323Y004912D01*
X010485Y005519D01*
X010599Y005488D01*
X010437Y004881D01*
G37*
G36*
X010247Y004932D02*
X010133Y004963D01*
X010295Y005570D01*
X010409Y005539D01*
X010247Y004932D01*
G37*
G36*
X010057Y004983D02*
X009943Y005014D01*
X010105Y005621D01*
X010219Y005590D01*
X010057Y004983D01*
G37*
G36*
X009867Y005034D02*
X009753Y005065D01*
X009915Y005672D01*
X010029Y005641D01*
X009867Y005034D01*
G37*
G36*
X009677Y005085D02*
X009563Y005116D01*
X009725Y005723D01*
X009839Y005692D01*
X009677Y005085D01*
G37*
G36*
X009487Y005136D02*
X009373Y005167D01*
X009535Y005774D01*
X009649Y005743D01*
X009487Y005136D01*
G37*
G36*
X009297Y005187D02*
X009183Y005218D01*
X009345Y005825D01*
X009459Y005794D01*
X009297Y005187D01*
G37*
G36*
X009107Y005238D02*
X008993Y005269D01*
X009155Y005876D01*
X009269Y005845D01*
X009107Y005238D01*
G37*
G36*
X008916Y005289D02*
X008802Y005320D01*
X008964Y005927D01*
X009078Y005896D01*
X008916Y005289D01*
G37*
G36*
X008726Y005340D02*
X008612Y005371D01*
X008774Y005978D01*
X008888Y005947D01*
X008726Y005340D01*
G37*
G36*
X008536Y005391D02*
X008422Y005422D01*
X008584Y006029D01*
X008698Y005998D01*
X008536Y005391D01*
G37*
G36*
X008346Y005442D02*
X008232Y005473D01*
X008394Y006080D01*
X008508Y006049D01*
X008346Y005442D01*
G37*
G36*
X008156Y005493D02*
X008042Y005524D01*
X008204Y006131D01*
X008318Y006100D01*
X008156Y005493D01*
G37*
G36*
X007966Y005544D02*
X007852Y005575D01*
X008014Y006182D01*
X008128Y006151D01*
X007966Y005544D01*
G37*
G36*
X007156Y006779D02*
X007187Y006893D01*
X007794Y006731D01*
X007763Y006617D01*
X007156Y006779D01*
G37*
G36*
X007207Y006969D02*
X007238Y007083D01*
X007845Y006921D01*
X007814Y006807D01*
X007207Y006969D01*
G37*
G36*
X007258Y007159D02*
X007289Y007273D01*
X007896Y007111D01*
X007865Y006997D01*
X007258Y007159D01*
G37*
G36*
X007308Y007349D02*
X007339Y007463D01*
X007946Y007301D01*
X007915Y007187D01*
X007308Y007349D01*
G37*
G36*
X007359Y007539D02*
X007390Y007653D01*
X007997Y007491D01*
X007966Y007377D01*
X007359Y007539D01*
G37*
G36*
X007410Y007729D02*
X007441Y007843D01*
X008048Y007681D01*
X008017Y007567D01*
X007410Y007729D01*
G37*
G36*
X007461Y007920D02*
X007492Y008034D01*
X008099Y007872D01*
X008068Y007758D01*
X007461Y007920D01*
G37*
G36*
X007512Y008110D02*
X007543Y008224D01*
X008150Y008062D01*
X008119Y007948D01*
X007512Y008110D01*
G37*
G36*
X007563Y008300D02*
X007594Y008414D01*
X008201Y008252D01*
X008170Y008138D01*
X007563Y008300D01*
G37*
G36*
X007614Y008490D02*
X007645Y008604D01*
X008252Y008442D01*
X008221Y008328D01*
X007614Y008490D01*
G37*
G36*
X007665Y008680D02*
X007696Y008794D01*
X008303Y008632D01*
X008272Y008518D01*
X007665Y008680D01*
G37*
G36*
X007716Y008870D02*
X007747Y008984D01*
X008354Y008822D01*
X008323Y008708D01*
X007716Y008870D01*
G37*
G36*
X007767Y009060D02*
X007798Y009174D01*
X008405Y009012D01*
X008374Y008898D01*
X007767Y009060D01*
G37*
G36*
X007818Y009251D02*
X007849Y009365D01*
X008456Y009203D01*
X008425Y009089D01*
X007818Y009251D01*
G37*
G36*
X007869Y009441D02*
X007900Y009555D01*
X008507Y009393D01*
X008476Y009279D01*
X007869Y009441D01*
G37*
G36*
X007920Y009631D02*
X007951Y009745D01*
X008558Y009583D01*
X008527Y009469D01*
X007920Y009631D01*
G37*
G36*
X007971Y009821D02*
X008002Y009935D01*
X008609Y009773D01*
X008578Y009659D01*
X007971Y009821D01*
G37*
G36*
X008022Y010011D02*
X008053Y010125D01*
X008660Y009963D01*
X008629Y009849D01*
X008022Y010011D01*
G37*
G36*
X008073Y010201D02*
X008104Y010315D01*
X008711Y010153D01*
X008680Y010039D01*
X008073Y010201D01*
G37*
G36*
X008124Y010391D02*
X008155Y010505D01*
X008762Y010343D01*
X008731Y010229D01*
X008124Y010391D01*
G37*
D12*
G36*
X007307Y009993D02*
X007419Y010409D01*
X007799Y010307D01*
X007687Y009891D01*
X007307Y009993D01*
G37*
G36*
X007134Y009346D02*
X007246Y009762D01*
X007626Y009660D01*
X007514Y009244D01*
X007134Y009346D01*
G37*
X006656Y009382D03*
X006656Y008890D03*
X006656Y008398D03*
X006656Y007906D03*
X006754Y007414D03*
X006656Y006922D03*
X006951Y006430D03*
X006951Y005937D03*
X006951Y005445D03*
X006951Y004953D03*
X006951Y004461D03*
X006951Y003969D03*
X006951Y003477D03*
X006282Y003477D03*
X006282Y003969D03*
X006282Y004461D03*
X006282Y004953D03*
X006282Y005445D03*
X006282Y005937D03*
X006282Y006430D03*
X005986Y006922D03*
X006085Y007414D03*
X005986Y007906D03*
X005986Y008398D03*
X005986Y008890D03*
X005986Y009382D03*
G36*
X009822Y004902D02*
X010238Y004790D01*
X010136Y004410D01*
X009720Y004522D01*
X009822Y004902D01*
G37*
G36*
X010468Y004729D02*
X010884Y004617D01*
X010782Y004237D01*
X010366Y004349D01*
X010468Y004729D01*
G37*
G36*
X012122Y010683D02*
X011706Y010795D01*
X011808Y011175D01*
X012224Y011063D01*
X012122Y010683D01*
G37*
G36*
X012255Y011186D02*
X011839Y011298D01*
X011941Y011678D01*
X012357Y011566D01*
X012255Y011186D01*
G37*
G36*
X011609Y011359D02*
X011193Y011471D01*
X011295Y011851D01*
X011711Y011739D01*
X011609Y011359D01*
G37*
G36*
X011476Y010856D02*
X011060Y010968D01*
X011162Y011348D01*
X011578Y011236D01*
X011476Y010856D01*
G37*
D13*
X014294Y009894D03*
X016065Y009894D03*
X016065Y013201D03*
X014294Y013201D03*
D14*
X014392Y014599D03*
X014392Y015189D03*
X015770Y015189D03*
X015770Y014599D03*
X011538Y003851D03*
X011538Y003260D03*
X009668Y003260D03*
X009668Y003851D03*
D15*
X014360Y003650D03*
X014360Y004150D03*
X014360Y004650D03*
X014360Y005150D03*
X014360Y005650D03*
X014360Y006150D03*
X014360Y006650D03*
X015960Y006650D03*
X015960Y006150D03*
X015960Y005150D03*
X015960Y004650D03*
X015960Y004150D03*
X015960Y003650D03*
D16*
X005238Y003280D03*
X005238Y002493D03*
X004254Y002493D03*
X004254Y003280D03*
X004254Y004067D03*
X004254Y004855D03*
X004254Y005642D03*
X004254Y006430D03*
X004254Y007217D03*
X004254Y008004D03*
X004254Y008792D03*
X004254Y009579D03*
X005238Y009579D03*
X005238Y008792D03*
X005238Y008004D03*
X005238Y007217D03*
X005238Y006430D03*
X005238Y005642D03*
X005238Y004855D03*
X005238Y004067D03*
D17*
X009484Y001311D03*
X009484Y017060D03*
D18*
X009984Y017060D03*
X010484Y017060D03*
X010984Y017060D03*
X011484Y017060D03*
X011984Y017060D03*
X012484Y017060D03*
X012984Y017060D03*
X013484Y017060D03*
X013984Y017060D03*
X013984Y001311D03*
X013484Y001311D03*
X012984Y001311D03*
X012484Y001311D03*
X011984Y001311D03*
X011484Y001311D03*
X010984Y001311D03*
X010484Y001311D03*
X009984Y001311D03*
D19*
X008441Y012410D03*
X007941Y012410D03*
X007941Y015410D03*
X008441Y015410D03*
D20*
X006262Y015091D03*
X006262Y013910D03*
X006262Y012729D03*
X004439Y012729D03*
X004439Y013910D03*
X004439Y015091D03*
D21*
X002286Y016620D03*
X002286Y011200D03*
D22*
X013053Y010249D02*
X013179Y010679D01*
X013284Y011114D01*
X013370Y011554D01*
X013435Y011998D01*
X013479Y012444D01*
X013503Y012891D01*
X013506Y013339D01*
X014294Y013201D02*
X014687Y013123D01*
X014589Y013123D01*
X016065Y013201D02*
X016065Y009894D01*
X016026Y009934D01*
X016026Y010209D01*
X014589Y009874D02*
X014294Y009894D01*
X013782Y008949D02*
X013462Y009022D01*
X013411Y008832D02*
X013723Y008752D01*
X013664Y008556D02*
X013361Y008642D01*
X013310Y008452D02*
X013585Y008378D01*
X013723Y008753D02*
X013759Y008741D01*
X013794Y008727D01*
X013827Y008709D01*
X013859Y008688D01*
X013888Y008664D01*
X013915Y008637D01*
X013939Y008608D01*
X013961Y008577D01*
X013979Y008544D01*
X013994Y008509D01*
X014006Y008473D01*
X014014Y008436D01*
X014018Y008398D01*
X014293Y008398D02*
X014284Y008447D01*
X014271Y008495D01*
X014254Y008542D01*
X014234Y008588D01*
X014211Y008632D01*
X014184Y008674D01*
X014155Y008714D01*
X014122Y008752D01*
X014087Y008788D01*
X014049Y008820D01*
X014009Y008850D01*
X013967Y008876D01*
X013922Y008900D01*
X013877Y008920D01*
X013830Y008936D01*
X013781Y008949D01*
X013664Y008556D02*
X013695Y008545D01*
X013724Y008530D01*
X013751Y008512D01*
X013776Y008492D01*
X013799Y008468D01*
X013818Y008442D01*
X013834Y008413D01*
X013847Y008383D01*
X013856Y008352D01*
X013861Y008319D01*
X013703Y008182D02*
X013706Y008204D01*
X013707Y008227D01*
X013704Y008250D01*
X013698Y008273D01*
X013689Y008294D01*
X013677Y008314D01*
X013663Y008331D01*
X013646Y008347D01*
X013627Y008360D01*
X013606Y008371D01*
X013585Y008378D01*
X013208Y008072D02*
X012955Y008142D01*
X012837Y008182D01*
X012817Y008280D01*
X012817Y008398D01*
X011931Y009284D01*
X010160Y009284D01*
X008979Y010465D01*
X008880Y010465D01*
X008683Y010662D01*
X008191Y010760D01*
X007876Y010937D02*
X007873Y010894D01*
X007874Y010851D01*
X007878Y010808D01*
X007887Y010766D01*
X007899Y010724D01*
X007915Y010684D01*
X007934Y010645D01*
X007957Y010609D01*
X007983Y010574D01*
X008012Y010542D01*
X008043Y010513D01*
X008078Y010486D01*
X008114Y010463D01*
X008152Y010443D01*
X008192Y010427D01*
X008234Y010414D01*
X008276Y010405D01*
X008319Y010400D01*
X008318Y010401D02*
X008152Y010445D01*
X008318Y010401D02*
X008443Y010367D01*
X007876Y010938D02*
X007880Y010987D01*
X007887Y011036D01*
X007897Y011085D01*
X007910Y011133D01*
X007927Y011179D01*
X007946Y011225D01*
X007969Y011269D01*
X007994Y011312D01*
X008016Y011344D01*
X008035Y011379D01*
X008051Y011414D01*
X008063Y011452D01*
X008072Y011490D01*
X008077Y011529D01*
X008078Y011568D01*
X008076Y011607D01*
X008070Y011645D01*
X008060Y011683D01*
X008047Y011720D01*
X008031Y011756D01*
X008011Y011789D01*
X007989Y011821D01*
X007963Y011851D01*
X007935Y011878D01*
X007904Y011902D01*
X007871Y011924D01*
X007837Y011942D01*
X007758Y011626D02*
X007714Y011642D01*
X007671Y011661D01*
X007629Y011684D01*
X007590Y011710D01*
X007553Y011739D01*
X007518Y011772D01*
X007487Y011807D01*
X007458Y011844D01*
X007432Y011884D01*
X007410Y011925D01*
X007391Y011969D01*
X007376Y012013D01*
X007364Y012059D01*
X007010Y011941D02*
X006026Y010957D01*
X005534Y010957D01*
X004727Y010150D01*
X004727Y008693D01*
X004943Y008477D01*
X004943Y008241D01*
X004707Y008004D01*
X004254Y008004D01*
X004372Y007650D02*
X001853Y007650D01*
X001420Y007217D01*
X002187Y007217D02*
X004254Y007217D01*
X004569Y007453D02*
X004372Y007650D01*
X004569Y007453D02*
X004884Y007453D01*
X005081Y007650D01*
X005435Y007650D01*
X005632Y007453D01*
X005937Y007955D02*
X005937Y008052D01*
X005937Y008349D01*
X006036Y008349D01*
X006036Y008052D01*
X006036Y007955D01*
X005937Y007955D01*
X005937Y007991D02*
X006036Y007991D01*
X006036Y008088D02*
X005937Y008088D01*
X005937Y008185D02*
X006036Y008185D01*
X006036Y008282D02*
X005937Y008282D01*
X005937Y008447D02*
X005937Y008744D01*
X005937Y008841D01*
X006036Y008841D01*
X006036Y008744D01*
X006036Y008447D01*
X005937Y008447D01*
X005937Y008476D02*
X006036Y008476D01*
X006036Y008572D02*
X005937Y008572D01*
X005937Y008669D02*
X006036Y008669D01*
X006036Y008766D02*
X005937Y008766D01*
X005937Y008940D02*
X005937Y009036D01*
X005937Y009333D01*
X006036Y009333D01*
X006036Y009036D01*
X006036Y008940D01*
X005937Y008940D01*
X005937Y008960D02*
X006036Y008960D01*
X006036Y009057D02*
X005937Y009057D01*
X005937Y009154D02*
X006036Y009154D01*
X006036Y009251D02*
X005937Y009251D01*
X005937Y009432D02*
X005937Y009728D01*
X005750Y009728D01*
X005719Y009720D01*
X005691Y010288D01*
X006183Y010288D01*
X006360Y009953D01*
X006356Y009637D01*
X006345Y009625D01*
X006342Y009637D01*
X006322Y009671D01*
X006295Y009699D01*
X006261Y009718D01*
X006223Y009728D01*
X006036Y009728D01*
X006036Y009432D01*
X005937Y009432D01*
X005937Y009445D02*
X006036Y009445D01*
X006036Y009542D02*
X005937Y009542D01*
X005937Y009639D02*
X006036Y009639D01*
X006341Y009639D02*
X006356Y009639D01*
X006358Y009736D02*
X005718Y009736D01*
X005713Y009833D02*
X006359Y009833D01*
X006360Y009930D02*
X005709Y009930D01*
X005704Y010027D02*
X006321Y010027D01*
X006270Y010124D02*
X005699Y010124D01*
X005694Y010221D02*
X006219Y010221D01*
X007207Y009678D02*
X007227Y009422D01*
X007404Y009245D02*
X008086Y009036D01*
X008137Y009227D02*
X007758Y009323D01*
X007719Y009343D01*
X007793Y009787D01*
X007797Y009815D01*
X006813Y008300D02*
X006882Y008249D01*
X006953Y008201D01*
X007027Y008157D01*
X007102Y008116D01*
X007179Y008078D01*
X007258Y008045D01*
X007338Y008014D01*
X007419Y007988D01*
X007502Y007965D01*
X007780Y007896D01*
X007831Y008086D02*
X007561Y008162D01*
X007286Y007827D02*
X007729Y007705D01*
X007678Y007515D02*
X008073Y007394D01*
X007994Y006824D02*
X007963Y006823D01*
X007931Y006826D01*
X007899Y006832D01*
X007869Y006840D01*
X007839Y006852D01*
X007810Y006866D01*
X007783Y006883D01*
X007758Y006902D01*
X007526Y006945D01*
X007798Y004362D02*
X007898Y004374D01*
X007997Y004389D01*
X008096Y004409D01*
X008194Y004433D01*
X008290Y004461D01*
X008290Y004855D02*
X008256Y004834D01*
X008220Y004816D01*
X008182Y004801D01*
X008144Y004790D01*
X008104Y004783D01*
X008064Y004779D01*
X008024Y004779D01*
X007984Y004783D01*
X007944Y004790D01*
X007906Y004801D01*
X007868Y004816D01*
X007832Y004834D01*
X007798Y004855D01*
X007857Y004619D02*
X007905Y004610D01*
X007954Y004605D01*
X008003Y004603D01*
X008052Y004604D01*
X008100Y004609D01*
X008149Y004616D01*
X008197Y004627D01*
X008244Y004641D01*
X008289Y004658D01*
X008447Y005347D02*
X008560Y005710D01*
X008370Y005761D02*
X008290Y005445D01*
X009608Y005052D02*
X009587Y004980D01*
X009563Y004910D01*
X009535Y004841D01*
X009503Y004774D01*
X009468Y004708D01*
X009430Y004644D01*
X009388Y004583D01*
X009343Y004523D01*
X009296Y004466D01*
X009245Y004412D01*
X009191Y004360D01*
X009135Y004311D01*
X009077Y004265D01*
X009412Y005091D02*
X009511Y005455D01*
X009701Y005404D02*
X009609Y005052D01*
X010081Y005302D02*
X010219Y005819D01*
X010160Y005878D01*
X010160Y005937D01*
X010219Y006095D01*
X010258Y006134D01*
X010258Y007906D01*
X010160Y008004D01*
X010750Y007808D02*
X010748Y007868D01*
X010742Y007928D01*
X010732Y007988D01*
X010718Y008047D01*
X010701Y008105D01*
X010679Y008161D01*
X010654Y008216D01*
X010625Y008269D01*
X010593Y008320D01*
X010557Y008369D01*
X010519Y008416D01*
X010477Y008459D01*
X010433Y008500D01*
X010386Y008538D01*
X010336Y008573D01*
X010285Y008604D01*
X010231Y008632D01*
X010176Y008656D01*
X010119Y008677D01*
X010061Y008694D01*
X013703Y006981D02*
X013780Y007135D01*
X013852Y007291D01*
X013918Y007450D01*
X013978Y007611D01*
X013743Y007453D02*
X013729Y007406D01*
X013711Y007361D01*
X013689Y007317D01*
X013664Y007275D01*
X013636Y007235D01*
X013605Y007197D01*
X013106Y007691D02*
X011931Y008004D01*
X011144Y008004D01*
X013979Y007611D02*
X013998Y007708D01*
X014014Y007806D01*
X014025Y007904D01*
X014032Y008003D01*
X014035Y008102D01*
X014034Y008201D01*
X014028Y008300D01*
X014018Y008398D01*
X013157Y007882D02*
X012857Y007965D01*
X012463Y008103D01*
X012325Y008201D01*
X013644Y007827D02*
X013635Y007759D01*
X013623Y007691D01*
X013607Y007624D01*
X013588Y007558D01*
X013565Y007493D01*
X013861Y008123D02*
X013865Y008172D01*
X013866Y008221D01*
X013865Y008270D01*
X013861Y008319D01*
X013703Y006981D02*
X013685Y006937D01*
X013670Y006891D01*
X013659Y006844D01*
X013651Y006797D01*
X013647Y006749D01*
X013646Y006701D01*
X013649Y006653D01*
X013655Y006605D01*
X013665Y006558D01*
X013679Y006512D01*
X013695Y006467D01*
X013715Y006423D01*
X013739Y006381D01*
X013765Y006341D01*
X013794Y006303D01*
X013826Y006267D01*
X013861Y006233D01*
X013892Y006206D01*
X013926Y006183D01*
X013962Y006163D01*
X013999Y006146D01*
X014038Y006132D01*
X014078Y006122D01*
X014119Y006115D01*
X014160Y006112D01*
X014201Y006113D01*
X014241Y006117D01*
X014282Y006124D01*
X014321Y006135D01*
X014360Y006150D01*
X013605Y006036D02*
X013579Y006092D01*
X013556Y006149D01*
X013536Y006207D01*
X013520Y006266D01*
X013507Y006326D01*
X013497Y006386D01*
X013490Y006447D01*
X013487Y006509D01*
X013605Y006036D02*
X013622Y005992D01*
X013636Y005947D01*
X013647Y005901D01*
X013656Y005855D01*
X013661Y005808D01*
X013664Y005760D01*
X013782Y004658D02*
X013845Y004643D01*
X013909Y004631D01*
X013973Y004623D01*
X014038Y004618D01*
X014103Y004617D01*
X014168Y004620D01*
X014232Y004626D01*
X014297Y004637D01*
X014360Y004651D01*
X014360Y004650D02*
X014360Y004150D01*
X013782Y004658D02*
X013748Y004669D01*
X013716Y004684D01*
X013686Y004702D01*
X013658Y004724D01*
X013632Y004748D01*
X013610Y004775D01*
X013590Y004805D01*
X013574Y004836D01*
X013561Y004869D01*
X013552Y004903D01*
X013547Y004938D01*
X013545Y004973D01*
X013703Y005366D02*
X013708Y005336D01*
X013716Y005307D01*
X013728Y005278D01*
X013744Y005252D01*
X013762Y005227D01*
X013783Y005204D01*
X013806Y005184D01*
X013831Y005167D01*
X013859Y005153D01*
X013887Y005142D01*
X013917Y005135D01*
X013948Y005131D01*
X013978Y005130D01*
X014360Y005150D02*
X014379Y005130D01*
X014884Y005130D01*
X015160Y004855D01*
X015160Y003477D01*
X014923Y003241D01*
X014687Y003241D01*
X015514Y004146D02*
X015799Y004146D01*
X015839Y004107D01*
X015960Y004150D02*
X015960Y004650D01*
X015960Y005150D01*
X016144Y005249D01*
X015960Y005150D02*
X015960Y006150D01*
X015960Y006650D02*
X015943Y006653D01*
X015926Y006660D01*
X015910Y006669D01*
X015897Y006680D01*
X015885Y006693D01*
X015875Y006708D01*
X015868Y006725D01*
X013565Y007493D02*
X013524Y007418D01*
X013486Y007340D01*
X013451Y007261D01*
X013421Y007181D01*
X013394Y007099D01*
X013371Y007016D01*
X013352Y006932D01*
X013337Y006847D01*
X013326Y006762D01*
X013319Y006676D01*
X013316Y006590D01*
X013317Y006504D01*
X013322Y006418D01*
X013332Y006332D01*
X013345Y006247D01*
X013362Y006163D01*
X013383Y006079D01*
X013408Y005997D01*
X014360Y005650D02*
X014845Y005642D01*
X013487Y006508D02*
X013485Y006587D01*
X013487Y006665D01*
X013493Y006743D01*
X013502Y006821D01*
X013515Y006898D01*
X013532Y006974D01*
X013553Y007050D01*
X013577Y007124D01*
X013605Y007197D01*
X015868Y006725D02*
X015821Y006895D01*
X015765Y007062D01*
X015702Y007226D01*
X015630Y007387D01*
X015551Y007545D01*
X015465Y007698D01*
X015371Y007847D01*
X015270Y007992D01*
X015162Y008131D01*
X015048Y008265D01*
X014928Y008393D01*
X014801Y008516D01*
X014668Y008632D01*
X014531Y008742D01*
X014388Y008844D01*
X014240Y008940D01*
X014088Y009029D01*
X013931Y009110D01*
X013771Y009184D01*
X013608Y009249D01*
X013442Y009307D01*
X013273Y009357D01*
X013101Y009399D01*
X012928Y009432D01*
X012754Y009457D01*
X012579Y009473D01*
X012403Y009481D01*
X012227Y009481D01*
X012567Y010016D02*
X012640Y010327D01*
X012857Y010308D02*
X012757Y009965D01*
X012947Y009914D02*
X013053Y010249D01*
X011426Y010322D02*
X011734Y011351D01*
X011577Y011675D02*
X010873Y011675D01*
X010845Y011579D02*
X011410Y011579D01*
X011360Y011666D02*
X011006Y011626D01*
X010829Y011134D01*
X010947Y010780D01*
X010856Y010475D01*
X010826Y010512D02*
X010906Y010512D01*
X010932Y010609D02*
X010852Y010609D01*
X010878Y010706D02*
X010958Y010706D01*
X010984Y010803D02*
X010904Y010803D01*
X010911Y010829D02*
X010870Y010900D01*
X010984Y010900D01*
X010993Y010883D02*
X011048Y010868D01*
X011040Y010841D01*
X010985Y010809D01*
X010837Y010256D01*
X010762Y010275D01*
X010911Y010829D01*
X010870Y010900D02*
X010679Y010951D01*
X010672Y010953D01*
X010671Y010957D01*
X010947Y011941D01*
X011693Y011745D01*
X011692Y011743D01*
X011223Y011469D01*
X011213Y011437D01*
X011146Y011455D01*
X011075Y011414D01*
X010952Y010954D01*
X010993Y010883D01*
X010964Y010997D02*
X010683Y010997D01*
X010679Y010951D02*
X010679Y010951D01*
X010710Y011094D02*
X010989Y011094D01*
X011015Y011191D02*
X010737Y011191D01*
X010764Y011288D02*
X011041Y011288D01*
X011067Y011385D02*
X010791Y011385D01*
X010818Y011482D02*
X011244Y011482D01*
X011319Y011102D02*
X011345Y011049D01*
X011400Y010977D01*
X011236Y010373D01*
X011046Y010424D02*
X010947Y010071D01*
X010750Y009973D01*
X010553Y009973D01*
X010534Y010032D01*
X010666Y010526D01*
X010800Y010415D02*
X010880Y010415D01*
X010854Y010318D02*
X010774Y010318D01*
X012639Y010327D02*
X012654Y010395D01*
X012665Y010464D01*
X012673Y010533D01*
X012679Y010603D01*
X011589Y011772D02*
X010900Y011772D01*
X010927Y011869D02*
X011221Y011869D01*
X011439Y011115D02*
X011345Y011049D01*
X008309Y013950D02*
X008176Y013840D01*
X008049Y013723D01*
X007927Y013601D01*
X007812Y013473D01*
X007703Y013340D01*
X007600Y013202D01*
X007916Y013241D02*
X008939Y014264D01*
X008388Y013221D02*
X008441Y013168D01*
X008441Y012410D01*
X007365Y012059D02*
X007351Y012133D01*
X007342Y012207D01*
X007336Y012282D01*
X007334Y012357D01*
X007336Y012432D01*
X007342Y012507D01*
X007351Y012581D01*
X007364Y012655D01*
X007381Y012728D01*
X007402Y012800D01*
X007427Y012870D01*
X007455Y012940D01*
X007486Y013008D01*
X007521Y013074D01*
X007559Y013139D01*
X007601Y013201D01*
X007896Y012729D02*
X007941Y012684D01*
X007941Y012410D01*
X007522Y012336D02*
X007525Y012297D01*
X007532Y012260D01*
X007543Y012223D01*
X007556Y012187D01*
X007573Y012152D01*
X007593Y012119D01*
X007616Y012088D01*
X007641Y012059D01*
X007669Y012033D01*
X007699Y012009D01*
X007731Y011988D01*
X007765Y011969D01*
X007800Y011954D01*
X007836Y011942D01*
X007522Y012335D02*
X007526Y012407D01*
X007535Y012479D01*
X007547Y012550D01*
X007563Y012620D01*
X007582Y012690D01*
X007606Y012758D01*
X007633Y012825D01*
X007663Y012891D01*
X007697Y012954D01*
X007735Y013016D01*
X007775Y013076D01*
X007819Y013133D01*
X007866Y013188D01*
X007916Y013240D01*
X009963Y011843D02*
X009947Y011683D01*
X009923Y011523D01*
X009891Y011365D01*
X009852Y011209D01*
X009806Y011055D01*
X009805Y011056D02*
X009715Y010781D01*
X009905Y010730D02*
X010002Y011075D01*
X010258Y011252D02*
X010095Y010679D01*
X010285Y010628D02*
X010376Y010977D01*
X009963Y011843D02*
X010357Y014599D01*
X009490Y015878D02*
X009483Y015923D01*
X009472Y015967D01*
X009458Y016010D01*
X009440Y016052D01*
X009420Y016092D01*
X009396Y016131D01*
X009370Y016167D01*
X009341Y016202D01*
X009309Y016234D01*
X009275Y016264D01*
X009239Y016291D01*
X009201Y016316D01*
X009161Y016337D01*
X009120Y016355D01*
X009077Y016370D01*
X008860Y016194D02*
X008843Y016197D01*
X008828Y016204D01*
X008813Y016213D01*
X008801Y016225D01*
X008792Y016240D01*
X008785Y016255D01*
X008782Y016272D01*
X008860Y016193D02*
X008898Y016187D01*
X008936Y016178D01*
X008972Y016165D01*
X009007Y016150D01*
X009040Y016131D01*
X009072Y016109D01*
X009102Y016084D01*
X009129Y016057D01*
X009154Y016028D01*
X009176Y015996D01*
X009204Y015948D01*
X009229Y015899D01*
X009250Y015848D01*
X009269Y015795D01*
X009283Y015741D01*
X009295Y015687D01*
X009302Y015632D01*
X009306Y015576D01*
X009307Y015521D01*
X009303Y015465D01*
X009296Y015410D01*
X009286Y015355D01*
X009272Y015302D01*
X009254Y015249D01*
X008441Y015410D02*
X007941Y015410D01*
X007601Y015583D01*
X008939Y014265D02*
X009003Y014332D01*
X009064Y014402D01*
X009122Y014475D01*
X009175Y014551D01*
X009225Y014630D01*
X009272Y014710D01*
X009314Y014793D01*
X009352Y014878D01*
X009387Y014964D01*
X009417Y015052D01*
X009442Y015141D01*
X009464Y015232D01*
X009481Y015323D01*
X009494Y015415D01*
X009502Y015508D01*
X009506Y015600D01*
X009505Y015693D01*
X009500Y015786D01*
X009490Y015879D01*
X006813Y014894D02*
X006262Y015091D01*
X008309Y013949D02*
X008413Y014036D01*
X008514Y014127D01*
X008610Y014222D01*
X008702Y014322D01*
X008789Y014426D01*
X008871Y014534D01*
X008948Y014645D01*
X009020Y014760D01*
X009087Y014878D01*
X009148Y014999D01*
X009204Y015122D01*
X009254Y015248D01*
X009412Y011213D02*
X009335Y010883D01*
X010476Y010577D02*
X010465Y010522D01*
X010452Y010467D01*
X010436Y010413D01*
X010417Y010360D01*
X010396Y010308D01*
X010297Y009835D02*
X010297Y009638D01*
X013861Y008122D02*
X013841Y007953D01*
X013814Y007785D01*
X013782Y007618D01*
X013742Y007453D01*
X012128Y006430D02*
X012056Y006432D01*
X011984Y006438D01*
X011912Y006447D01*
X011841Y006460D01*
X011771Y006477D01*
X011702Y006497D01*
X011634Y006522D01*
X011568Y006549D01*
X011502Y006580D01*
X011439Y006615D01*
X011377Y006652D01*
X011318Y006693D01*
X011261Y006737D01*
X011206Y006784D01*
X011154Y006834D01*
X011104Y006886D01*
X011057Y006941D01*
X011013Y006998D01*
X010972Y007057D01*
X010935Y007119D01*
X010900Y007182D01*
X010869Y007248D01*
X010842Y007314D01*
X010817Y007382D01*
X010797Y007451D01*
X010780Y007521D01*
X010767Y007592D01*
X010758Y007664D01*
X010752Y007736D01*
X010750Y007808D01*
X011636Y008497D02*
X011546Y008565D01*
X011452Y008628D01*
X011356Y008688D01*
X011257Y008742D01*
X011155Y008792D01*
X011051Y008836D01*
X010945Y008876D01*
X010837Y008911D01*
X010728Y008941D01*
X010618Y008965D01*
X010506Y008984D01*
X010394Y008998D01*
X010281Y009006D01*
X010168Y009009D01*
X010055Y009007D01*
X009942Y008999D01*
X009830Y008986D01*
X009718Y008967D01*
X009608Y008943D01*
X009498Y008914D01*
X009390Y008880D01*
X009284Y008841D01*
X009180Y008797D01*
X009078Y008748D01*
X008979Y008694D01*
X008938Y008662D01*
X008895Y008633D01*
X008850Y008608D01*
X008804Y008586D01*
X008755Y008568D01*
X008706Y008553D01*
X008656Y008542D01*
X008605Y008535D01*
X008553Y008531D01*
X008501Y008532D01*
X008450Y008536D01*
X008399Y008544D01*
X008349Y008556D01*
X007984Y008656D01*
X007933Y008466D02*
X007660Y008536D01*
X007561Y008162D02*
X007521Y008175D01*
X007482Y008191D01*
X007445Y008210D01*
X007409Y008233D01*
X007375Y008258D01*
X007343Y008286D01*
X007313Y008316D01*
X007286Y008348D01*
X007262Y008383D01*
X007241Y008419D01*
X007222Y008457D01*
X007207Y008497D01*
X006813Y008398D02*
X006803Y008388D01*
X006795Y008376D01*
X006791Y008363D01*
X006789Y008349D01*
X006791Y008335D01*
X006795Y008322D01*
X006803Y008310D01*
X006813Y008300D01*
X006754Y008398D02*
X006656Y008398D01*
X006813Y008889D02*
X006858Y008872D01*
X006901Y008851D01*
X006943Y008827D01*
X006982Y008801D01*
X007020Y008771D01*
X007055Y008738D01*
X007088Y008703D01*
X007118Y008665D01*
X007144Y008626D01*
X007168Y008584D01*
X007189Y008541D01*
X007206Y008496D01*
X007286Y008890D02*
X007272Y008936D01*
X007255Y008982D01*
X007235Y009026D01*
X007212Y009069D01*
X007185Y009110D01*
X007156Y009149D01*
X007124Y009186D01*
X007090Y009220D01*
X007053Y009252D01*
X007014Y009281D01*
X006973Y009308D01*
X006930Y009331D01*
X006886Y009351D01*
X006840Y009368D01*
X006794Y009382D01*
X007285Y008890D02*
X007298Y008850D01*
X007314Y008812D01*
X007334Y008775D01*
X007356Y008740D01*
X007381Y008707D01*
X007409Y008676D01*
X007439Y008647D01*
X007472Y008621D01*
X007506Y008598D01*
X007542Y008578D01*
X007580Y008560D01*
X007619Y008546D01*
X007659Y008536D01*
X007882Y008276D02*
X008920Y008004D01*
X009097Y007768D01*
X009097Y006863D01*
X008447Y007119D02*
X008434Y007049D01*
X008424Y006979D01*
X008419Y006909D01*
X008417Y006838D01*
X008419Y006767D01*
X008425Y006697D01*
X008435Y006627D01*
X008449Y006557D01*
X008466Y006489D01*
X008467Y006489D02*
X008479Y006464D01*
X008488Y006437D01*
X008493Y006409D01*
X008494Y006381D01*
X008491Y006353D01*
X008484Y006326D01*
X008474Y006300D01*
X008460Y006275D01*
X008443Y006253D01*
X008423Y006233D01*
X008400Y006217D01*
X008375Y006203D01*
X008349Y006193D01*
X008270Y006115D02*
X008180Y005812D01*
X007876Y005308D02*
X007830Y005336D01*
X007785Y005367D01*
X007743Y005401D01*
X007703Y005437D01*
X007666Y005477D01*
X007632Y005519D01*
X007601Y005564D01*
X008289Y004855D02*
X008337Y004889D01*
X008382Y004927D01*
X008425Y004967D01*
X008465Y005010D01*
X008503Y005055D01*
X008538Y005102D01*
X008569Y005152D01*
X008598Y005203D01*
X008623Y005256D01*
X008645Y005311D01*
X008663Y005366D01*
X008664Y005367D02*
X008750Y005659D01*
X008940Y005608D02*
X008860Y005308D01*
X009038Y005229D02*
X009131Y005557D01*
X008349Y006193D02*
X008331Y006186D01*
X008314Y006176D01*
X008299Y006164D01*
X008287Y006149D01*
X008277Y006132D01*
X008270Y006114D01*
X008152Y006410D02*
X007990Y005863D01*
X008289Y005445D02*
X008275Y005416D01*
X008257Y005388D01*
X008237Y005362D01*
X008213Y005339D01*
X008187Y005319D01*
X008159Y005301D01*
X008130Y005287D01*
X008098Y005277D01*
X008066Y005270D01*
X008033Y005267D01*
X008000Y005268D01*
X007968Y005272D01*
X007936Y005280D01*
X007905Y005292D01*
X007876Y005307D01*
X007699Y005150D02*
X007727Y005122D01*
X007757Y005096D01*
X007790Y005073D01*
X007824Y005053D01*
X007861Y005036D01*
X007898Y005023D01*
X007937Y005013D01*
X007976Y005007D01*
X008016Y005004D01*
X008056Y005005D01*
X008095Y005010D01*
X008134Y005018D01*
X008172Y005030D01*
X008209Y005046D01*
X008244Y005064D01*
X008278Y005086D01*
X008309Y005111D01*
X008338Y005138D01*
X008364Y005168D01*
X008387Y005201D01*
X008407Y005235D01*
X008424Y005271D01*
X008438Y005309D01*
X008448Y005347D01*
X009411Y005091D02*
X009391Y005025D01*
X009367Y004960D01*
X009340Y004896D01*
X009310Y004833D01*
X009276Y004773D01*
X009239Y004714D01*
X009199Y004658D01*
X009155Y004604D01*
X009109Y004552D01*
X009060Y004502D01*
X009009Y004456D01*
X008955Y004412D01*
X008899Y004372D01*
X008840Y004334D01*
X008780Y004300D01*
X008718Y004269D01*
X008654Y004241D01*
X008589Y004217D01*
X008523Y004196D01*
X008456Y004180D01*
X008388Y004166D01*
X007798Y004363D02*
X007740Y004356D01*
X007682Y004345D01*
X007626Y004331D01*
X007570Y004313D01*
X007515Y004292D01*
X007462Y004268D01*
X007411Y004241D01*
X007361Y004210D01*
X007313Y004177D01*
X007267Y004140D01*
X007224Y004101D01*
X007183Y004059D01*
X007144Y004015D01*
X007109Y003969D01*
X007502Y003674D02*
X007471Y003641D01*
X007438Y003611D01*
X007402Y003583D01*
X007364Y003558D01*
X007325Y003537D01*
X007284Y003518D01*
X007241Y003503D01*
X007198Y003491D01*
X007153Y003482D01*
X007109Y003477D01*
X007108Y004461D02*
X007159Y004495D01*
X007211Y004525D01*
X007265Y004552D01*
X007321Y004576D01*
X007378Y004596D01*
X007436Y004612D01*
X007495Y004624D01*
X007555Y004633D01*
X007616Y004638D01*
X007676Y004639D01*
X007737Y004636D01*
X007797Y004629D01*
X007856Y004619D01*
X007797Y004854D02*
X007750Y004884D01*
X007701Y004910D01*
X007651Y004933D01*
X007599Y004952D01*
X007546Y004967D01*
X007491Y004979D01*
X007437Y004986D01*
X007381Y004990D01*
X007326Y004991D01*
X007271Y004987D01*
X007216Y004979D01*
X007162Y004968D01*
X007108Y004953D01*
X006951Y004953D02*
X006912Y004855D01*
X007108Y005445D02*
X007165Y005440D01*
X007221Y005432D01*
X007276Y005419D01*
X007330Y005403D01*
X007383Y005383D01*
X007435Y005359D01*
X007484Y005332D01*
X007532Y005302D01*
X007578Y005268D01*
X007621Y005232D01*
X007661Y005192D01*
X007699Y005150D01*
X008289Y004461D02*
X008351Y004482D01*
X008412Y004507D01*
X008472Y004536D01*
X008529Y004567D01*
X008585Y004603D01*
X008638Y004641D01*
X008689Y004682D01*
X008737Y004727D01*
X008783Y004774D01*
X008826Y004823D01*
X008866Y004876D01*
X008903Y004930D01*
X008937Y004986D01*
X008967Y005045D01*
X008994Y005105D01*
X009018Y005166D01*
X009037Y005229D01*
X008860Y005307D02*
X008843Y005250D01*
X008823Y005194D01*
X008799Y005139D01*
X008771Y005086D01*
X008741Y005035D01*
X008707Y004985D01*
X008671Y004938D01*
X008631Y004893D01*
X008589Y004851D01*
X008544Y004811D01*
X008497Y004774D01*
X008448Y004740D01*
X008397Y004709D01*
X008344Y004682D01*
X008289Y004658D01*
X007896Y006233D02*
X007209Y006233D01*
X007209Y006234D01*
X006765Y006234D01*
X006765Y006491D01*
X006715Y006541D01*
X006715Y006626D01*
X006913Y006626D01*
X006914Y006626D01*
X007010Y006626D01*
X007207Y006823D01*
X007896Y006626D01*
X007896Y006233D01*
X007896Y006245D02*
X006765Y006245D01*
X006765Y006342D02*
X007896Y006342D01*
X007896Y006439D02*
X006765Y006439D01*
X006720Y006536D02*
X007896Y006536D01*
X007873Y006633D02*
X007017Y006633D01*
X006912Y007414D02*
X006961Y007426D01*
X007010Y007434D01*
X007059Y007439D01*
X007109Y007441D01*
X007159Y007439D01*
X007208Y007434D01*
X007257Y007426D01*
X007306Y007414D01*
X007305Y007414D02*
X007627Y007325D01*
X007577Y007135D02*
X007305Y007217D01*
X007207Y007217D02*
X007188Y007209D01*
X007170Y007199D01*
X007154Y007187D01*
X007139Y007172D01*
X007127Y007156D01*
X007117Y007138D01*
X007109Y007119D01*
X007207Y007217D02*
X007231Y007222D01*
X007256Y007224D01*
X007281Y007222D01*
X007305Y007217D01*
X007114Y006730D02*
X007533Y006730D01*
X007108Y007118D02*
X007097Y007088D01*
X007083Y007060D01*
X007065Y007033D01*
X007045Y007008D01*
X007021Y006986D01*
X006996Y006967D01*
X006968Y006951D01*
X006939Y006938D01*
X006908Y006928D01*
X006877Y006922D01*
X006845Y006920D01*
X006813Y006921D01*
X006715Y007414D02*
X006675Y007473D01*
X006656Y007906D02*
X006715Y007906D01*
X006036Y006872D02*
X005937Y006872D01*
X005937Y006715D01*
X005942Y006711D01*
X005946Y006718D01*
X005974Y006746D01*
X006008Y006765D01*
X006036Y006773D01*
X006036Y006872D01*
X006036Y006827D02*
X005937Y006827D01*
X005937Y006730D02*
X005958Y006730D01*
X006233Y006578D02*
X006233Y006479D01*
X006331Y006479D01*
X006331Y006648D01*
X006322Y006633D01*
X006331Y006633D01*
X006322Y006633D02*
X006295Y006605D01*
X006261Y006586D01*
X006233Y006578D01*
X006233Y006536D02*
X006331Y006536D01*
X006331Y006380D02*
X006331Y006084D01*
X006331Y005987D01*
X006233Y005987D01*
X006233Y006084D01*
X006233Y006380D01*
X006331Y006380D01*
X006331Y006342D02*
X006233Y006342D01*
X006233Y006245D02*
X006331Y006245D01*
X006331Y006148D02*
X006233Y006148D01*
X006233Y006051D02*
X006331Y006051D01*
X006331Y005888D02*
X006331Y005791D01*
X006331Y005495D01*
X006233Y005495D01*
X006233Y005791D01*
X006233Y005888D01*
X006331Y005888D01*
X006331Y005857D02*
X006233Y005857D01*
X006233Y005760D02*
X006331Y005760D01*
X006331Y005663D02*
X006233Y005663D01*
X006233Y005566D02*
X006331Y005566D01*
X006331Y005396D02*
X006331Y005099D01*
X006331Y005003D01*
X006233Y005003D01*
X006233Y005099D01*
X006233Y005396D01*
X006331Y005396D01*
X006331Y005373D02*
X006233Y005373D01*
X006233Y005276D02*
X006331Y005276D01*
X006331Y005179D02*
X006233Y005179D01*
X006233Y005082D02*
X006331Y005082D01*
X006331Y004904D02*
X006331Y004807D01*
X006331Y004510D01*
X006233Y004510D01*
X006233Y004807D01*
X006233Y004904D01*
X006331Y004904D01*
X006331Y004888D02*
X006233Y004888D01*
X006233Y004791D02*
X006331Y004791D01*
X006331Y004694D02*
X006233Y004694D01*
X006233Y004597D02*
X006331Y004597D01*
X006331Y004412D02*
X006331Y004315D01*
X006331Y004018D01*
X006233Y004018D01*
X006233Y004315D01*
X006233Y004412D01*
X006331Y004412D01*
X006331Y004403D02*
X006233Y004403D01*
X006233Y004306D02*
X006331Y004306D01*
X006331Y004209D02*
X006233Y004209D01*
X006233Y004112D02*
X006331Y004112D01*
X006331Y003920D02*
X006331Y003823D01*
X006331Y003526D01*
X006233Y003526D01*
X006233Y003823D01*
X006233Y003920D01*
X006331Y003920D01*
X006331Y003918D02*
X006233Y003918D01*
X006233Y003821D02*
X006331Y003821D01*
X006331Y003724D02*
X006233Y003724D01*
X006233Y003627D02*
X006331Y003627D01*
X006331Y003530D02*
X006233Y003530D01*
X005770Y003871D02*
X005731Y003871D01*
X005534Y003674D01*
X005042Y003674D01*
X004727Y003359D01*
X004727Y002256D01*
X004490Y002020D01*
X004333Y002020D01*
X005317Y001784D02*
X002817Y001804D01*
X002719Y001902D01*
X002246Y001902D01*
X002128Y001784D01*
X001420Y001784D01*
X001223Y001390D02*
X001616Y001390D01*
X001833Y001607D01*
X002187Y001607D01*
X002325Y001745D01*
X002640Y001745D01*
X002778Y001607D01*
X005632Y001607D01*
X005435Y001902D02*
X005317Y001784D01*
X005435Y001902D02*
X005790Y001902D01*
X006065Y002178D01*
X007601Y005564D02*
X007509Y005647D01*
X007414Y005726D01*
X007315Y005801D01*
X007213Y005872D01*
X007109Y005938D01*
X007285Y007828D02*
X007192Y007851D01*
X007098Y007871D01*
X007004Y007887D01*
X006908Y007898D01*
X006813Y007906D01*
X005750Y006430D02*
X005731Y006233D01*
X005435Y006036D01*
X004963Y006036D01*
X004727Y005800D01*
X004727Y005642D01*
X004727Y004855D02*
X004727Y004776D01*
X004412Y004461D01*
X001892Y004461D01*
X001420Y004146D01*
X001420Y004934D02*
X001734Y005249D01*
X002286Y005249D01*
X002384Y005150D01*
X002679Y005150D01*
X002778Y005249D01*
X005435Y005249D01*
X005829Y005642D01*
X004687Y008359D02*
X004648Y008398D01*
X004057Y008398D01*
X003959Y008300D01*
X001734Y008300D01*
X001420Y008083D01*
X002187Y007217D02*
X000908Y005937D01*
X000908Y001705D01*
X001223Y001390D01*
X014360Y006650D02*
X014294Y008398D01*
X013703Y008182D02*
X013678Y008065D01*
X013658Y007946D01*
X013643Y007827D01*
X010298Y009835D02*
X010300Y009896D01*
X010304Y009956D01*
X010312Y010017D01*
X010323Y010076D01*
X010337Y010135D01*
X010354Y010194D01*
X010374Y010251D01*
X010396Y010307D01*
X007404Y009245D02*
X007365Y009277D01*
X007328Y009310D01*
X007292Y009346D01*
X007259Y009383D01*
X007227Y009422D01*
X010455Y005937D02*
X010271Y005251D01*
X010461Y005200D02*
X010337Y004697D01*
X013545Y004972D02*
X013547Y005121D01*
X013541Y005269D01*
X013528Y005416D01*
X013508Y005563D01*
X013482Y005709D01*
X013448Y005853D01*
X013408Y005996D01*
X011695Y004579D02*
X011706Y004546D01*
X011721Y004514D01*
X011738Y004483D01*
X011758Y004454D01*
X011780Y004427D01*
X011805Y004402D01*
X011832Y004380D01*
X011861Y004360D01*
X011892Y004342D01*
X011695Y004579D02*
X011602Y004895D01*
X011412Y004946D02*
X011321Y004540D01*
X011032Y005048D02*
X011183Y005563D01*
X011301Y005682D01*
X011341Y005682D01*
X010809Y005701D02*
X010652Y005149D01*
X010842Y005099D02*
X010691Y004540D01*
X011892Y004343D02*
X011946Y004314D01*
X011999Y004281D01*
X012049Y004245D01*
X012097Y004207D01*
X012143Y004165D01*
X012186Y004121D01*
X012227Y004074D01*
X012264Y004025D01*
X012299Y003974D01*
X012331Y003921D01*
X012359Y003866D01*
X012384Y003809D01*
X012406Y003751D01*
X012424Y003692D01*
X012438Y003632D01*
X012449Y003571D01*
X012456Y003510D01*
X012460Y003448D01*
X012459Y003386D01*
X012456Y003324D01*
X012448Y003263D01*
X012437Y003202D01*
X012422Y003142D01*
X012404Y003083D01*
X012390Y003049D01*
X012373Y003016D01*
X012353Y002985D01*
X012330Y002957D01*
X012304Y002930D01*
X012276Y002907D01*
X012246Y002886D01*
X012246Y002887D02*
X012211Y002863D01*
X012177Y002835D01*
X012147Y002806D01*
X012118Y002773D01*
X012093Y002738D01*
X012071Y002701D01*
X012052Y002663D01*
X012036Y002623D01*
X012024Y002581D01*
X012016Y002539D01*
X012011Y002497D01*
X012010Y002454D01*
X011124Y002768D02*
X011103Y002716D01*
X011085Y002663D01*
X011070Y002609D01*
X011058Y002554D01*
X011051Y002498D01*
X011046Y002442D01*
X011045Y002386D01*
X011048Y002330D01*
X011054Y002274D01*
X011063Y002219D01*
X011076Y002164D01*
X011093Y002110D01*
X011112Y002058D01*
X011135Y002006D01*
X011162Y001957D01*
X011191Y001909D01*
X011223Y001863D01*
X012049Y001626D02*
X012051Y001580D01*
X012049Y001533D01*
X012043Y001487D01*
X012034Y001442D01*
X012021Y001397D01*
X012004Y001353D01*
X011984Y001311D01*
X010258Y001824D02*
X010224Y001875D01*
X010194Y001927D01*
X010166Y001982D01*
X010142Y002038D01*
X010121Y002095D01*
X010102Y002153D01*
X010088Y002212D01*
X010076Y002272D01*
X010068Y002332D01*
X010063Y002393D01*
X010061Y002454D01*
X011125Y002768D02*
X011144Y002815D01*
X011159Y002863D01*
X011171Y002912D01*
X011179Y002962D01*
X011183Y003013D01*
X011184Y003063D01*
X008979Y002099D02*
X008923Y002179D01*
X008870Y002261D01*
X008822Y002346D01*
X008778Y002433D01*
X008738Y002522D01*
X008703Y002612D01*
X008672Y002705D01*
X008646Y002799D01*
X008624Y002894D01*
X008608Y002989D01*
X008595Y003086D01*
X008588Y003183D01*
X008585Y003280D01*
X008388Y004166D02*
X008316Y004152D01*
X008244Y004134D01*
X008173Y004113D01*
X008103Y004089D01*
X008035Y004061D01*
X007968Y004030D01*
X007903Y003996D01*
X007839Y003959D01*
X007777Y003918D01*
X007718Y003875D01*
X007660Y003828D01*
X007605Y003779D01*
X007552Y003728D01*
X007502Y003673D01*
X008585Y003280D02*
X008587Y003348D01*
X008592Y003414D01*
X008601Y003481D01*
X008613Y003547D01*
X008630Y003612D01*
X008649Y003676D01*
X008673Y003739D01*
X008699Y003801D01*
X008729Y003861D01*
X008763Y003919D01*
X008799Y003976D01*
X008839Y004030D01*
X008881Y004082D01*
X008926Y004132D01*
X008974Y004179D01*
X009024Y004223D01*
X009077Y004265D01*
X010258Y001824D02*
X010297Y001765D01*
X010333Y001704D01*
X010366Y001642D01*
X010396Y001579D01*
X010423Y001514D01*
X010447Y001447D01*
X010467Y001380D01*
X010485Y001312D01*
X011223Y001863D02*
X011267Y001800D01*
X011309Y001736D01*
X011346Y001669D01*
X011381Y001600D01*
X011412Y001530D01*
X011440Y001459D01*
X011464Y001386D01*
X011485Y001312D01*
X011203Y003772D02*
X011231Y004030D01*
X011270Y004286D01*
X011321Y004540D01*
X011202Y003772D02*
X011187Y003536D01*
X011180Y003299D01*
X011183Y003063D01*
X010061Y002453D02*
X010073Y002906D01*
X010106Y003358D01*
X010161Y003808D01*
X010238Y004255D01*
X010337Y004697D01*
X008979Y002099D02*
X009160Y001844D01*
X009328Y001581D01*
X009485Y001311D01*
X012049Y001627D02*
X012023Y002040D01*
X012010Y002453D01*
X010375Y010977D02*
X010627Y011855D01*
X010921Y012720D01*
X011258Y013570D01*
X011635Y014402D01*
X013781Y016685D02*
X013817Y016725D01*
X013850Y016767D01*
X013881Y016812D01*
X013908Y016858D01*
X013932Y016906D01*
X013953Y016956D01*
X013970Y017007D01*
X013984Y017059D01*
X013782Y016686D02*
X013740Y016640D01*
X013702Y016591D01*
X013667Y016541D01*
X013635Y016488D01*
X013606Y016433D01*
X013581Y016377D01*
X013559Y016319D01*
X013541Y016260D01*
X013526Y016200D01*
X013516Y016139D01*
X013509Y016078D01*
X013506Y016016D01*
X013309Y016076D02*
X013308Y016187D01*
X013313Y016299D01*
X013323Y016410D01*
X013337Y016521D01*
X013357Y016631D01*
X013381Y016741D01*
X013411Y016848D01*
X013445Y016955D01*
X013484Y017060D01*
X013979Y005130D02*
X014360Y005150D01*
X013703Y005367D02*
X013664Y005761D01*
X010258Y011252D02*
X010614Y012439D01*
X011006Y013614D01*
X004439Y013910D02*
X004451Y014107D01*
X013309Y013221D02*
X013286Y012729D01*
X013242Y012238D01*
X013176Y011750D01*
X013090Y011264D01*
X012984Y010783D01*
X012856Y010307D01*
X013507Y013339D02*
X013507Y016017D01*
X012485Y017060D02*
X012396Y016602D01*
X012286Y016148D01*
X012155Y015701D01*
X012003Y015260D01*
X011830Y014827D01*
X011637Y014402D01*
X010357Y014599D02*
X010431Y015212D01*
X010476Y015827D01*
X010495Y016443D01*
X010485Y017060D01*
X011485Y017059D02*
X011359Y016186D01*
X011194Y015320D01*
X010991Y014462D01*
X010750Y013614D01*
X009412Y011213D02*
X009613Y012174D01*
X009773Y013142D01*
X009890Y014117D01*
X009964Y015096D01*
X009996Y016077D01*
X009984Y017059D01*
X011984Y017060D02*
X011704Y015899D01*
X011378Y014750D01*
X011006Y013615D01*
X011734Y011351D02*
X012127Y012759D01*
X012467Y014181D01*
X012752Y015615D01*
X012984Y017059D01*
X013309Y016075D02*
X013327Y014648D01*
X013309Y013221D01*
X010750Y013615D02*
X010002Y011075D01*
D23*
X009274Y012040D03*
X008979Y012040D03*
X008979Y012434D03*
X008388Y013221D03*
X007896Y012729D03*
X006912Y012729D03*
X007758Y011626D03*
X008959Y011626D03*
X008979Y011056D03*
X010297Y009638D03*
X010553Y009973D03*
X011400Y011075D03*
X012325Y010662D03*
X012679Y010603D03*
X012719Y011351D03*
X012522Y011646D03*
X012916Y011646D03*
X013998Y011154D03*
X014392Y011154D03*
X014392Y010563D03*
X013998Y010563D03*
X013801Y009874D03*
X013408Y009874D03*
X012227Y009481D03*
X012325Y008201D03*
X011144Y008004D03*
X011144Y007611D03*
X010160Y008004D03*
X009766Y008004D03*
X009766Y007611D03*
X009097Y006863D03*
X008447Y007119D03*
X007994Y006823D03*
X008152Y006410D03*
X007404Y006528D03*
X007109Y006528D03*
X006813Y006922D03*
X006912Y007414D03*
X006813Y007906D03*
X006813Y008398D03*
X006813Y008890D03*
X006794Y009382D03*
X007207Y009678D03*
X006262Y009815D03*
X006144Y010091D03*
X004648Y010760D03*
X003368Y012237D03*
X003368Y012532D03*
X003073Y012532D03*
X003368Y012827D03*
X003073Y013024D03*
X003860Y013713D03*
X003860Y014107D03*
X003467Y014500D03*
X003467Y015386D03*
X003467Y015682D03*
X003467Y015977D03*
X002483Y014599D03*
X004451Y014107D03*
X004451Y013713D03*
X006813Y014894D03*
X006813Y015288D03*
X007601Y015583D03*
X008782Y016272D03*
X009077Y016371D03*
X008880Y015878D03*
X010750Y015977D03*
X011046Y015977D03*
X010750Y015386D03*
X011734Y013910D03*
X011734Y013516D03*
X011734Y013123D03*
X011734Y012729D03*
X012522Y012926D03*
X012916Y012926D03*
X012916Y013516D03*
X012601Y013516D03*
X012128Y013910D03*
X013801Y016075D03*
X014609Y016410D03*
X014589Y015583D03*
X014983Y015288D03*
X015475Y015091D03*
X013998Y014993D03*
X014589Y013123D03*
X015179Y011154D03*
X015671Y011154D03*
X015671Y010563D03*
X016026Y010209D03*
X016360Y009382D03*
X016360Y008831D03*
X016360Y008300D03*
X014589Y009874D03*
X015179Y010563D03*
X012128Y006430D03*
X011833Y006154D03*
X010809Y005701D03*
X010455Y005937D03*
X009884Y005918D03*
X009766Y004737D03*
X008880Y003575D03*
X007109Y003477D03*
X007109Y003969D03*
X007109Y004461D03*
X007109Y004953D03*
X007109Y005445D03*
X007109Y005937D03*
X005632Y007453D03*
X003664Y008004D03*
X002483Y008595D03*
X001105Y008595D03*
X002483Y010308D03*
X002483Y006626D03*
X002483Y005445D03*
X001400Y004560D03*
X001203Y005445D03*
X001203Y003477D03*
X002483Y003477D03*
X002483Y001508D03*
X001105Y001016D03*
X000908Y001213D03*
X010061Y008693D03*
X010868Y004422D03*
X011538Y004205D03*
X011912Y004067D03*
X012128Y003162D03*
X011813Y003083D03*
X014687Y003241D03*
X015514Y004146D03*
X016144Y005249D03*
X016183Y005997D03*
X015534Y005760D03*
X015435Y005504D03*
X015238Y005859D03*
X014845Y005642D03*
X006912Y013910D03*
D24*
X007553Y010150D02*
X007553Y009981D01*
X007738Y009796D01*
X007784Y009796D01*
X007793Y009787D01*
X007380Y009503D02*
X007207Y009676D01*
X007207Y009678D01*
X011360Y011666D02*
X011452Y011605D01*
X012098Y011432D02*
X011965Y010929D01*
X015475Y015091D02*
X015573Y015189D01*
X015770Y015189D01*
D25*
X011636Y008497D03*
X009372Y008595D03*
X008191Y010760D03*
X007010Y011941D03*
X004687Y008359D03*
X005750Y006430D03*
X005829Y005642D03*
X004727Y005642D03*
X004727Y004855D03*
X005770Y003871D03*
X006813Y002886D03*
X006065Y002178D03*
X005632Y001607D03*
X004333Y002020D03*
X001420Y001784D03*
X001420Y004146D03*
X001420Y004934D03*
X001105Y006626D03*
X001420Y007217D03*
X001420Y008083D03*
X001105Y010308D03*
X000908Y012138D03*
X000908Y013319D03*
X000908Y014500D03*
X000908Y015682D03*
X011341Y005682D03*
X014215Y003319D03*
D26*
X014297Y003064D02*
X014500Y003064D01*
X014469Y003095D02*
X014541Y003022D01*
X014636Y002983D01*
X014738Y002983D01*
X014833Y003022D01*
X014854Y003043D01*
X015005Y003043D01*
X015242Y003279D01*
X015334Y003371D01*
X015348Y003357D01*
X016407Y003357D01*
X016407Y000772D01*
X016096Y000772D01*
X016249Y000925D01*
X016353Y001176D01*
X016353Y001447D01*
X016249Y001698D01*
X016058Y001889D01*
X015807Y001993D01*
X015536Y001993D01*
X015285Y001889D01*
X015094Y001698D01*
X014990Y001447D01*
X014990Y001176D01*
X015094Y000925D01*
X015247Y000772D01*
X008222Y000772D01*
X008375Y000925D01*
X008479Y001176D01*
X008479Y001447D01*
X008375Y001698D01*
X008184Y001889D01*
X007933Y001993D01*
X007662Y001993D01*
X007411Y001889D01*
X007220Y001698D01*
X007116Y001447D01*
X007116Y001176D01*
X007220Y000925D01*
X007373Y000772D01*
X003777Y000772D01*
X003863Y000858D01*
X003863Y001056D01*
X003723Y001196D01*
X003525Y001196D01*
X003386Y001056D01*
X003386Y000858D01*
X003472Y000772D01*
X001188Y000772D01*
X001250Y000798D01*
X001323Y000870D01*
X001362Y000965D01*
X001362Y001067D01*
X001323Y001162D01*
X001292Y001193D01*
X001305Y001193D01*
X001698Y001193D01*
X001814Y001308D01*
X001915Y001409D01*
X002105Y001409D01*
X002245Y001409D01*
X002264Y001363D01*
X002337Y001290D01*
X002431Y001251D01*
X002534Y001251D01*
X002628Y001290D01*
X002701Y001363D01*
X002720Y001409D01*
X005452Y001409D01*
X005481Y001380D01*
X005579Y001340D01*
X005685Y001340D01*
X005783Y001380D01*
X005859Y001455D01*
X005899Y001554D01*
X005899Y001660D01*
X005878Y001711D01*
X006078Y001910D01*
X006118Y001910D01*
X006216Y001951D01*
X006292Y002026D01*
X006332Y002124D01*
X006332Y002231D01*
X006292Y002329D01*
X006216Y002404D01*
X006118Y002445D01*
X006012Y002445D01*
X005914Y002404D01*
X005839Y002329D01*
X005798Y002231D01*
X005798Y002190D01*
X005708Y002100D01*
X005517Y002100D01*
X005353Y002100D01*
X005236Y001982D01*
X004736Y001986D01*
X004808Y002059D01*
X004924Y002174D01*
X004924Y002263D01*
X005021Y002166D01*
X005162Y002108D01*
X005315Y002108D01*
X005456Y002166D01*
X005564Y002275D01*
X005623Y002416D01*
X005623Y002569D01*
X005564Y002710D01*
X005456Y002819D01*
X005315Y002877D01*
X005162Y002877D01*
X005021Y002819D01*
X004924Y002722D01*
X004924Y003050D01*
X005021Y002954D01*
X005162Y002895D01*
X005315Y002895D01*
X005456Y002954D01*
X005564Y003062D01*
X005623Y003203D01*
X005623Y003356D01*
X005574Y003476D01*
X005616Y003476D01*
X005743Y003603D01*
X005823Y003603D01*
X005828Y003606D01*
X005828Y003198D01*
X005944Y003082D01*
X006042Y002984D01*
X006206Y002984D01*
X006600Y002984D01*
X006716Y003100D01*
X006747Y003132D01*
X007229Y003132D01*
X007316Y003219D01*
X007316Y003312D01*
X007550Y003428D01*
X007596Y003482D01*
X007596Y003482D01*
X007651Y003543D01*
X007651Y003543D01*
X007756Y003650D01*
X007999Y003824D01*
X008275Y003938D01*
X008420Y003971D01*
X008501Y003984D01*
X008501Y003984D01*
X008571Y003996D01*
X008521Y003927D01*
X008386Y003502D01*
X008387Y003361D01*
X008387Y003279D01*
X008388Y003046D01*
X008488Y002591D01*
X008681Y002168D01*
X008681Y002168D01*
X008820Y001981D01*
X008820Y001980D01*
X009079Y001607D01*
X009136Y001511D01*
X009136Y001050D01*
X009223Y000963D01*
X009746Y000963D01*
X009763Y000980D01*
X009796Y000958D01*
X009868Y000928D01*
X009945Y000913D01*
X009984Y000913D01*
X009984Y001311D01*
X009985Y001311D01*
X009985Y000913D01*
X010024Y000913D01*
X010101Y000928D01*
X010173Y000958D01*
X010238Y001002D01*
X010270Y001033D01*
X010287Y001016D01*
X010415Y000963D01*
X010554Y000963D01*
X010682Y001016D01*
X010734Y001069D01*
X010787Y001016D01*
X010915Y000963D01*
X011054Y000963D01*
X011182Y001016D01*
X011234Y001069D01*
X011287Y001016D01*
X011415Y000963D01*
X011554Y000963D01*
X011682Y001016D01*
X011734Y001069D01*
X011787Y001016D01*
X011915Y000963D01*
X012054Y000963D01*
X012182Y001016D01*
X012234Y001069D01*
X012287Y001016D01*
X012415Y000963D01*
X012554Y000963D01*
X012682Y001016D01*
X012734Y001069D01*
X012787Y001016D01*
X012915Y000963D01*
X013054Y000963D01*
X013182Y001016D01*
X013234Y001069D01*
X013287Y001016D01*
X013415Y000963D01*
X013554Y000963D01*
X013682Y001016D01*
X013734Y001069D01*
X013787Y001016D01*
X013915Y000963D01*
X014054Y000963D01*
X014182Y001016D01*
X014280Y001114D01*
X014333Y001242D01*
X014333Y001381D01*
X014280Y001509D01*
X014182Y001607D01*
X014054Y001660D01*
X013915Y001660D01*
X013787Y001607D01*
X013734Y001554D01*
X013682Y001607D01*
X013554Y001660D01*
X013415Y001660D01*
X013287Y001607D01*
X013234Y001554D01*
X013182Y001607D01*
X013054Y001660D01*
X012915Y001660D01*
X012787Y001607D01*
X012734Y001554D01*
X012682Y001607D01*
X012554Y001660D01*
X012415Y001660D01*
X012287Y001607D01*
X012252Y001572D01*
X012250Y001596D01*
X012246Y001641D01*
X012246Y001644D01*
X012221Y002049D01*
X012216Y002194D01*
X012263Y002148D01*
X012426Y002080D01*
X012602Y002080D01*
X012765Y002148D01*
X012890Y002273D01*
X012958Y002436D01*
X012958Y002612D01*
X012890Y002775D01*
X012765Y002900D01*
X012602Y002968D01*
X012573Y002968D01*
X012591Y003019D01*
X012649Y003187D01*
X012664Y003543D01*
X012579Y003888D01*
X012579Y003888D01*
X012399Y004195D01*
X012399Y004195D01*
X012140Y004439D01*
X012140Y004439D01*
X012054Y004482D01*
X012054Y004483D01*
X011988Y004516D01*
X011981Y004519D01*
X011948Y004540D01*
X011899Y004599D01*
X011885Y004635D01*
X011869Y004688D01*
X011862Y004714D01*
X011862Y004714D01*
X011813Y004879D01*
X011900Y005205D01*
X011839Y005311D01*
X011649Y005362D01*
X011458Y005413D01*
X011417Y005424D01*
X011492Y005455D01*
X011567Y005530D01*
X011608Y005628D01*
X011608Y005735D01*
X011567Y005833D01*
X011492Y005908D01*
X011394Y005949D01*
X011288Y005949D01*
X011189Y005908D01*
X011114Y005833D01*
X011074Y005735D01*
X011074Y005733D01*
X011067Y005726D01*
X011067Y005752D01*
X011027Y005847D01*
X010955Y005919D01*
X010860Y005959D01*
X010758Y005959D01*
X010712Y005940D01*
X010712Y005989D01*
X010673Y006083D01*
X010601Y006156D01*
X010506Y006195D01*
X010456Y006195D01*
X010456Y007824D01*
X010456Y007988D01*
X010417Y008027D01*
X010417Y008056D01*
X010378Y008150D01*
X010305Y008223D01*
X010211Y008262D01*
X010108Y008262D01*
X010014Y008223D01*
X009963Y008171D01*
X009912Y008223D01*
X009817Y008262D01*
X009715Y008262D01*
X009620Y008223D01*
X009548Y008150D01*
X009509Y008056D01*
X009509Y007953D01*
X009548Y007859D01*
X009599Y007808D01*
X009548Y007756D01*
X009509Y007662D01*
X009509Y007559D01*
X009548Y007465D01*
X009620Y007393D01*
X009715Y007353D01*
X009817Y007353D01*
X009912Y007393D01*
X009984Y007465D01*
X010023Y007559D01*
X010023Y007662D01*
X009984Y007756D01*
X009933Y007808D01*
X009963Y007837D01*
X010014Y007786D01*
X010060Y007767D01*
X010060Y006236D01*
X010049Y006204D01*
X010021Y006177D01*
X010021Y006139D01*
X009935Y006175D01*
X009833Y006175D01*
X009738Y006136D01*
X009666Y006064D01*
X009627Y005969D01*
X009627Y005904D01*
X009557Y005922D01*
X009367Y005973D01*
X009367Y005973D01*
X009177Y006024D01*
X008986Y006075D01*
X008796Y006126D01*
X008796Y006126D01*
X008635Y006170D01*
X008697Y006324D01*
X008684Y006507D01*
X008684Y006507D01*
X008653Y006562D01*
X008628Y006674D01*
X008620Y006928D01*
X008665Y006973D01*
X008704Y007067D01*
X008704Y007170D01*
X008665Y007264D01*
X008593Y007337D01*
X008498Y007376D01*
X008396Y007376D01*
X008301Y007337D01*
X008245Y007280D01*
X008286Y007414D01*
X008209Y007559D01*
X008173Y007570D01*
X008197Y007659D01*
X008248Y007849D01*
X008279Y007968D01*
X008803Y007831D01*
X008899Y007702D01*
X008899Y007029D01*
X008879Y007008D01*
X008839Y006914D01*
X008839Y006811D01*
X008879Y006717D01*
X008951Y006645D01*
X009045Y006605D01*
X009148Y006605D01*
X009242Y006645D01*
X009315Y006717D01*
X009354Y006811D01*
X009354Y006914D01*
X009315Y007008D01*
X009294Y007029D01*
X009294Y007754D01*
X009304Y007821D01*
X009294Y007834D01*
X009294Y007850D01*
X009246Y007898D01*
X009084Y008114D01*
X009049Y008175D01*
X009036Y008178D01*
X009029Y008188D01*
X008958Y008198D01*
X008463Y008328D01*
X008725Y008342D01*
X008725Y008342D01*
X008995Y008449D01*
X009089Y008528D01*
X009107Y008537D01*
X009146Y008444D01*
X009221Y008368D01*
X009319Y008328D01*
X009425Y008328D01*
X009524Y008368D01*
X009599Y008444D01*
X009639Y008542D01*
X009639Y008648D01*
X009608Y008724D01*
X009806Y008782D01*
X009820Y008783D01*
X009804Y008745D01*
X009804Y008642D01*
X009843Y008548D01*
X009915Y008475D01*
X010010Y008436D01*
X010112Y008436D01*
X010145Y008450D01*
X010322Y008334D01*
X010466Y008148D01*
X010543Y007925D01*
X010553Y007808D01*
X010553Y007726D01*
X010553Y007600D01*
X010660Y007199D01*
X010867Y006840D01*
X011161Y006547D01*
X011520Y006339D01*
X011626Y006311D01*
X011615Y006300D01*
X011576Y006205D01*
X011576Y006103D01*
X011615Y006008D01*
X011687Y005936D01*
X011782Y005897D01*
X011884Y005897D01*
X011979Y005936D01*
X012051Y006008D01*
X012090Y006103D01*
X012090Y006172D01*
X012179Y006172D01*
X012224Y006191D01*
X012180Y006026D01*
X012129Y005836D01*
X012078Y005646D01*
X012016Y005413D01*
X012077Y005307D01*
X012804Y005112D01*
X012911Y005173D01*
X012962Y005364D01*
X013013Y005554D01*
X013064Y005744D01*
X013115Y005934D01*
X013162Y006111D01*
X013219Y005938D01*
X013281Y005703D01*
X013346Y005222D01*
X013348Y004981D01*
X013348Y004977D01*
X013345Y004897D01*
X013347Y004896D01*
X013346Y004860D01*
X013442Y004649D01*
X013617Y004498D01*
X013617Y004498D01*
X013650Y004489D01*
X013661Y004486D01*
X013661Y004444D01*
X013705Y004400D01*
X013661Y004357D01*
X013661Y003944D01*
X013705Y003900D01*
X013661Y003857D01*
X013661Y003444D01*
X013748Y003357D01*
X013948Y003357D01*
X013948Y003266D01*
X013988Y003168D01*
X014063Y003093D01*
X014162Y003052D01*
X014268Y003052D01*
X014366Y003093D01*
X014439Y003166D01*
X014469Y003095D01*
X014133Y003064D02*
X012606Y003064D01*
X012649Y003187D02*
X012649Y003187D01*
X012652Y003260D02*
X013950Y003260D01*
X013661Y003455D02*
X012661Y003455D01*
X012664Y003543D02*
X012664Y003543D01*
X012638Y003650D02*
X013661Y003650D01*
X013661Y003846D02*
X012590Y003846D01*
X012490Y004041D02*
X013661Y004041D01*
X013661Y004237D02*
X012355Y004237D01*
X012148Y004432D02*
X013673Y004432D01*
X013650Y004489D02*
X013650Y004489D01*
X013467Y004627D02*
X011888Y004627D01*
X011829Y004823D02*
X013363Y004823D01*
X013346Y004860D02*
X013346Y004860D01*
X013348Y005018D02*
X011850Y005018D01*
X011895Y005214D02*
X012425Y005214D01*
X012067Y005604D02*
X011598Y005604D01*
X011581Y005800D02*
X012119Y005800D01*
X012129Y005836D02*
X012129Y005836D01*
X012172Y005995D02*
X012038Y005995D01*
X012180Y006026D02*
X012180Y006026D01*
X012223Y006191D02*
X012224Y006191D01*
X012078Y005646D02*
X012078Y005646D01*
X012018Y005409D02*
X011473Y005409D01*
X011458Y005413D02*
X011458Y005413D01*
X011649Y005362D02*
X011649Y005362D01*
X011628Y005995D02*
X010710Y005995D01*
X010516Y006191D02*
X011576Y006191D01*
X011520Y006339D02*
X011520Y006339D01*
X011439Y006386D02*
X010456Y006386D01*
X010456Y006581D02*
X011126Y006581D01*
X011161Y006547D02*
X011161Y006547D01*
X010931Y006777D02*
X010456Y006777D01*
X010456Y006972D02*
X010791Y006972D01*
X010867Y006840D02*
X010867Y006840D01*
X010678Y007167D02*
X010456Y007167D01*
X010456Y007363D02*
X010616Y007363D01*
X010660Y007199D02*
X010660Y007199D01*
X010564Y007558D02*
X010456Y007558D01*
X010553Y007600D02*
X010553Y007600D01*
X010553Y007754D02*
X010456Y007754D01*
X010456Y007949D02*
X010535Y007949D01*
X010468Y008144D02*
X010380Y008144D01*
X010313Y008340D02*
X009454Y008340D01*
X009290Y008340D02*
X008683Y008340D01*
X008995Y008449D02*
X008995Y008449D01*
X009104Y008535D02*
X009108Y008535D01*
X009067Y008144D02*
X009545Y008144D01*
X009510Y007949D02*
X009208Y007949D01*
X009294Y007754D02*
X009547Y007754D01*
X009509Y007558D02*
X009294Y007558D01*
X009294Y007363D02*
X009692Y007363D01*
X009840Y007363D02*
X010060Y007363D01*
X010060Y007558D02*
X010023Y007558D01*
X009985Y007754D02*
X010060Y007754D01*
X010060Y007167D02*
X009294Y007167D01*
X009330Y006972D02*
X010060Y006972D01*
X010060Y006777D02*
X009340Y006777D01*
X008854Y006777D02*
X008625Y006777D01*
X008648Y006581D02*
X010060Y006581D01*
X010060Y006386D02*
X008692Y006386D01*
X008697Y006324D02*
X008697Y006324D01*
X008643Y006191D02*
X010035Y006191D01*
X009638Y005995D02*
X009286Y005995D01*
X008864Y006972D02*
X008664Y006972D01*
X008704Y007167D02*
X008899Y007167D01*
X008899Y007363D02*
X008530Y007363D01*
X008365Y007363D02*
X008270Y007363D01*
X008210Y007558D02*
X008899Y007558D01*
X008861Y007754D02*
X008222Y007754D01*
X008248Y007849D02*
X008248Y007849D01*
X008274Y007949D02*
X008350Y007949D01*
X009637Y008535D02*
X009855Y008535D01*
X009804Y008731D02*
X009629Y008731D01*
X011341Y010997D02*
X011341Y011065D01*
X011319Y011102D01*
X011400Y011075D02*
X011341Y010997D01*
X013150Y009871D02*
X013080Y009607D01*
X013329Y009565D01*
X013329Y009565D01*
X014026Y009304D01*
X014026Y009304D01*
X014661Y008913D01*
X014661Y008913D01*
X015209Y008409D01*
X015209Y008409D01*
X015650Y007808D01*
X015650Y007808D01*
X015968Y007135D01*
X015968Y007135D01*
X016017Y006943D01*
X016407Y006943D01*
X016407Y008042D01*
X016309Y008042D01*
X016215Y008082D01*
X016142Y008154D01*
X016103Y008248D01*
X016103Y008351D01*
X016142Y008445D01*
X016215Y008518D01*
X016309Y008557D01*
X016407Y008557D01*
X016407Y008574D01*
X016309Y008574D01*
X016215Y008613D01*
X016142Y008685D01*
X016103Y008780D01*
X016103Y008882D01*
X016142Y008977D01*
X016215Y009049D01*
X016309Y009088D01*
X016407Y009088D01*
X016407Y009125D01*
X016309Y009125D01*
X016215Y009164D01*
X016142Y009237D01*
X016103Y009331D01*
X016103Y009431D01*
X015728Y009431D01*
X015641Y009518D01*
X015641Y010271D01*
X015677Y010306D01*
X015620Y010306D01*
X015526Y010345D01*
X015453Y010418D01*
X015425Y010485D01*
X015397Y010418D01*
X015325Y010345D01*
X015231Y010306D01*
X015128Y010306D01*
X015034Y010345D01*
X014961Y010418D01*
X014922Y010512D01*
X014922Y010615D01*
X014961Y010709D01*
X015034Y010782D01*
X015128Y010821D01*
X015231Y010821D01*
X015325Y010782D01*
X015397Y010709D01*
X015425Y010642D01*
X015453Y010709D01*
X015526Y010782D01*
X015620Y010821D01*
X015723Y010821D01*
X015817Y010782D01*
X015868Y010731D01*
X015868Y010986D01*
X015817Y010936D01*
X015723Y010897D01*
X015620Y010897D01*
X015526Y010936D01*
X015453Y011008D01*
X015425Y011076D01*
X015397Y011008D01*
X015325Y010936D01*
X015231Y010897D01*
X015128Y010897D01*
X015034Y010936D01*
X014961Y011008D01*
X014922Y011103D01*
X014922Y011205D01*
X014961Y011300D01*
X015034Y011372D01*
X015128Y011411D01*
X015231Y011411D01*
X015325Y011372D01*
X015397Y011300D01*
X015425Y011232D01*
X015453Y011300D01*
X015526Y011372D01*
X015620Y011411D01*
X015723Y011411D01*
X015817Y011372D01*
X015868Y011322D01*
X015868Y012738D01*
X015728Y012738D01*
X015641Y012825D01*
X015641Y013578D01*
X015728Y013665D01*
X016402Y013665D01*
X016407Y013659D01*
X016407Y017599D01*
X016096Y017599D01*
X016249Y017446D01*
X016353Y017195D01*
X016353Y016924D01*
X016249Y016673D01*
X016058Y016482D01*
X015807Y016378D01*
X015536Y016378D01*
X015285Y016482D01*
X015094Y016673D01*
X014990Y016924D01*
X014990Y017195D01*
X015094Y017446D01*
X015247Y017599D01*
X008222Y017599D01*
X008375Y017446D01*
X008479Y017195D01*
X008479Y016924D01*
X008375Y016673D01*
X008184Y016482D01*
X007933Y016378D01*
X007662Y016378D01*
X007411Y016482D01*
X007220Y016673D01*
X007116Y016924D01*
X007116Y017195D01*
X007220Y017446D01*
X007373Y017599D01*
X000762Y017599D01*
X000762Y006072D01*
X001050Y006360D01*
X000953Y006400D01*
X000878Y006475D01*
X000837Y006573D01*
X000837Y006680D01*
X000878Y006778D01*
X000953Y006853D01*
X001051Y006894D01*
X001158Y006894D01*
X001256Y006853D01*
X001331Y006778D01*
X001371Y006681D01*
X001990Y007299D01*
X002105Y007415D01*
X003920Y007415D01*
X003928Y007435D01*
X003946Y007452D01*
X001934Y007452D01*
X001687Y007205D01*
X001687Y007164D01*
X001646Y007066D01*
X001571Y006991D01*
X001473Y006950D01*
X001366Y006950D01*
X001268Y006991D01*
X001193Y007066D01*
X001152Y007164D01*
X001152Y007270D01*
X001193Y007368D01*
X001268Y007443D01*
X001366Y007484D01*
X001407Y007484D01*
X001771Y007848D01*
X001934Y007848D01*
X003456Y007848D01*
X003445Y007859D01*
X003406Y007953D01*
X003406Y008056D01*
X003426Y008102D01*
X001796Y008102D01*
X001685Y008026D01*
X001646Y007932D01*
X001571Y007857D01*
X001473Y007816D01*
X001366Y007816D01*
X001268Y007857D01*
X001193Y007932D01*
X001152Y008030D01*
X001152Y008136D01*
X001193Y008234D01*
X001268Y008310D01*
X001337Y008338D01*
X001157Y008338D01*
X001156Y008338D01*
X001053Y008338D01*
X000959Y008377D01*
X000886Y008449D01*
X000847Y008544D01*
X000847Y008646D01*
X000886Y008741D01*
X000959Y008813D01*
X001053Y008852D01*
X001156Y008852D01*
X001157Y008852D01*
X002430Y008852D01*
X002431Y008852D01*
X002534Y008852D01*
X002628Y008813D01*
X002701Y008741D01*
X002740Y008646D01*
X002740Y008544D01*
X002721Y008497D01*
X003877Y008497D01*
X003941Y008561D01*
X003928Y008574D01*
X003870Y008715D01*
X003870Y008868D01*
X003928Y009010D01*
X004036Y009118D01*
X004178Y009176D01*
X004331Y009176D01*
X004472Y009118D01*
X004529Y009061D01*
X004529Y009310D01*
X004472Y009253D01*
X004331Y009195D01*
X004178Y009195D01*
X004036Y009253D01*
X003928Y009361D01*
X003870Y009503D01*
X003870Y009656D01*
X003928Y009797D01*
X004036Y009905D01*
X004178Y009964D01*
X004331Y009964D01*
X004472Y009905D01*
X004529Y009848D01*
X004529Y010068D01*
X004529Y010232D01*
X005336Y011039D01*
X005452Y011155D01*
X005944Y011155D01*
X006743Y011954D01*
X006743Y011995D01*
X006784Y012093D01*
X006859Y012168D01*
X006957Y012209D01*
X007063Y012209D01*
X007138Y012178D01*
X007124Y012243D01*
X007124Y012243D01*
X007151Y012634D01*
X007130Y012583D01*
X007057Y012511D01*
X006985Y012481D01*
X006985Y012417D01*
X006899Y012330D01*
X005626Y012330D01*
X005539Y012417D01*
X005539Y012572D01*
X005521Y012589D01*
X005229Y012881D01*
X005229Y012848D01*
X005229Y012454D01*
X005119Y012344D01*
X005119Y012344D01*
X004922Y012147D01*
X004767Y012147D01*
X003610Y012147D01*
X003586Y012091D01*
X003514Y012019D01*
X003420Y011979D01*
X003317Y011979D01*
X003223Y012019D01*
X003150Y012091D01*
X003127Y012147D01*
X002856Y012147D01*
X002700Y012147D01*
X002590Y012257D01*
X002590Y013299D01*
X002700Y013409D01*
X002856Y013409D01*
X003324Y013409D01*
X002362Y014370D01*
X002337Y014381D01*
X002264Y014453D01*
X002225Y014548D01*
X002225Y014650D01*
X002264Y014745D01*
X002337Y014817D01*
X002431Y014856D01*
X002534Y014856D01*
X002628Y014817D01*
X002701Y014745D01*
X002711Y014719D01*
X003622Y013809D01*
X003642Y013859D01*
X003693Y013910D01*
X003642Y013961D01*
X003603Y014056D01*
X003603Y014158D01*
X003642Y014253D01*
X003643Y014254D01*
X003543Y014254D01*
X003518Y014243D01*
X003416Y014243D01*
X003321Y014282D01*
X003249Y014355D01*
X003209Y014449D01*
X003209Y014552D01*
X003249Y014646D01*
X003321Y014719D01*
X003416Y014758D01*
X003518Y014758D01*
X003543Y014747D01*
X003689Y014747D01*
X003679Y014764D01*
X003666Y014815D01*
X003666Y015064D01*
X004412Y015064D01*
X004412Y015118D01*
X003666Y015118D01*
X003666Y015221D01*
X003613Y015168D01*
X003518Y015129D01*
X003416Y015129D01*
X003321Y015168D01*
X003249Y015241D01*
X003209Y015335D01*
X003209Y015437D01*
X003249Y015532D01*
X003251Y015534D01*
X003249Y015536D01*
X003209Y015630D01*
X003209Y015733D01*
X003249Y015827D01*
X003251Y015829D01*
X003249Y015831D01*
X003209Y015926D01*
X003209Y016028D01*
X003249Y016123D01*
X003321Y016195D01*
X003416Y016234D01*
X003518Y016234D01*
X003613Y016195D01*
X003685Y016123D01*
X003724Y016028D01*
X003724Y015926D01*
X003685Y015831D01*
X003683Y015829D01*
X003685Y015827D01*
X003724Y015733D01*
X003724Y015630D01*
X003685Y015536D01*
X003683Y015534D01*
X003685Y015532D01*
X003711Y015469D01*
X003742Y015500D01*
X003788Y015526D01*
X003838Y015539D01*
X004413Y015539D01*
X004413Y015118D01*
X004466Y015118D01*
X004466Y015539D01*
X005040Y015539D01*
X005091Y015526D01*
X005136Y015500D01*
X005173Y015463D01*
X005199Y015418D01*
X005213Y015367D01*
X005213Y015118D01*
X004466Y015118D01*
X004466Y015064D01*
X005213Y015064D01*
X005213Y014815D01*
X005199Y014764D01*
X005189Y014747D01*
X005280Y014710D01*
X005349Y014640D01*
X005681Y014308D01*
X006899Y014308D01*
X006985Y014221D01*
X006985Y014158D01*
X007057Y014128D01*
X007130Y014056D01*
X007169Y013961D01*
X007169Y013859D01*
X007130Y013764D01*
X007057Y013692D01*
X006985Y013662D01*
X006985Y013598D01*
X006899Y013511D01*
X005626Y013511D01*
X005539Y013598D01*
X005539Y013753D01*
X005163Y014129D01*
X005163Y013598D01*
X005130Y013566D01*
X005189Y013566D01*
X005280Y013529D01*
X005681Y013127D01*
X006899Y013127D01*
X006985Y013040D01*
X006985Y012977D01*
X007057Y012947D01*
X007130Y012875D01*
X007169Y012780D01*
X007169Y012737D01*
X007308Y013128D01*
X007308Y013128D01*
X007439Y013315D01*
X007486Y013382D01*
X007486Y013382D01*
X007596Y013538D01*
X007596Y013538D01*
X007972Y013935D01*
X008123Y014054D01*
X008123Y014054D01*
X008187Y014104D01*
X008378Y014270D01*
X008712Y014650D01*
X008970Y015084D01*
X009069Y015317D01*
X009096Y015413D01*
X009106Y015611D01*
X009079Y015713D01*
X009026Y015660D01*
X008931Y015621D01*
X008829Y015621D01*
X008739Y015658D01*
X008739Y015098D01*
X008652Y015011D01*
X008230Y015011D01*
X008191Y015050D01*
X008152Y015011D01*
X007730Y015011D01*
X007643Y015098D01*
X007643Y015326D01*
X007549Y015326D01*
X007455Y015365D01*
X007382Y015437D01*
X007343Y015532D01*
X007343Y015634D01*
X007382Y015729D01*
X007455Y015801D01*
X007549Y015840D01*
X007652Y015840D01*
X007730Y015808D01*
X007730Y015808D01*
X008152Y015808D01*
X008191Y015769D01*
X008230Y015808D01*
X008631Y015808D01*
X008623Y015827D01*
X008623Y015930D01*
X008662Y016024D01*
X008675Y016038D01*
X008636Y016054D01*
X008564Y016126D01*
X008524Y016221D01*
X008524Y016323D01*
X008564Y016418D01*
X008636Y016490D01*
X008731Y016529D01*
X008833Y016529D01*
X008861Y016518D01*
X008931Y016589D01*
X009026Y016628D01*
X009128Y016628D01*
X009223Y016589D01*
X009295Y016516D01*
X009303Y016496D01*
X009518Y016322D01*
X009518Y016322D01*
X009667Y016055D01*
X009667Y016055D01*
X009677Y015973D01*
X009686Y015903D01*
X009717Y015661D01*
X009717Y015661D01*
X009668Y015175D01*
X009668Y015175D01*
X009510Y014712D01*
X009510Y014712D01*
X009252Y014297D01*
X009252Y014297D01*
X009137Y014182D01*
X009137Y014182D01*
X009037Y014082D01*
X009021Y014067D01*
X008433Y013478D01*
X008439Y013478D01*
X008534Y013439D01*
X008606Y013367D01*
X008645Y013272D01*
X008645Y013170D01*
X008639Y013154D01*
X008639Y012808D01*
X008652Y012808D01*
X008739Y012721D01*
X008739Y012528D01*
X008760Y012579D01*
X008833Y012652D01*
X008927Y012691D01*
X009030Y012691D01*
X009124Y012652D01*
X009197Y012579D01*
X009236Y012485D01*
X009236Y012382D01*
X009197Y012288D01*
X009194Y012285D01*
X009223Y012297D01*
X009325Y012297D01*
X009420Y012258D01*
X009420Y012257D01*
X009610Y013412D01*
X009753Y014864D01*
X009799Y016323D01*
X009792Y016757D01*
X009746Y016711D01*
X009223Y016711D01*
X009136Y016798D01*
X009136Y017321D01*
X009223Y017408D01*
X009746Y017408D01*
X009795Y017358D01*
X009915Y017408D01*
X010054Y017408D01*
X010182Y017355D01*
X010234Y017302D01*
X010287Y017355D01*
X010415Y017408D01*
X010554Y017408D01*
X010682Y017355D01*
X010734Y017302D01*
X010787Y017355D01*
X010915Y017408D01*
X011054Y017408D01*
X011182Y017355D01*
X011234Y017302D01*
X011287Y017355D01*
X011415Y017408D01*
X011554Y017408D01*
X011682Y017355D01*
X011734Y017302D01*
X011787Y017355D01*
X011915Y017408D01*
X012054Y017408D01*
X012182Y017355D01*
X012234Y017302D01*
X012287Y017355D01*
X012415Y017408D01*
X012554Y017408D01*
X012682Y017355D01*
X012734Y017302D01*
X012787Y017355D01*
X012915Y017408D01*
X013054Y017408D01*
X013182Y017355D01*
X013234Y017302D01*
X013287Y017355D01*
X013415Y017408D01*
X013554Y017408D01*
X013682Y017355D01*
X013734Y017302D01*
X013787Y017355D01*
X013915Y017408D01*
X014054Y017408D01*
X014182Y017355D01*
X014280Y017257D01*
X014333Y017129D01*
X014333Y016990D01*
X014280Y016862D01*
X014182Y016764D01*
X014054Y016711D01*
X014053Y016711D01*
X014018Y016646D01*
X014018Y016646D01*
X013981Y016608D01*
X013964Y016590D01*
X013924Y016549D01*
X013924Y016549D01*
X013860Y016473D01*
X013781Y016333D01*
X013853Y016333D01*
X013947Y016293D01*
X014020Y016221D01*
X014059Y016126D01*
X014059Y016024D01*
X014058Y016023D01*
X014058Y015886D01*
X014331Y015613D01*
X014331Y015634D01*
X014371Y015729D01*
X014443Y015801D01*
X014538Y015840D01*
X014640Y015840D01*
X014735Y015801D01*
X014807Y015729D01*
X014846Y015634D01*
X014846Y015532D01*
X014834Y015504D01*
X014837Y015506D01*
X014931Y015545D01*
X015034Y015545D01*
X015128Y015506D01*
X015201Y015434D01*
X015240Y015339D01*
X015240Y015237D01*
X015229Y015211D01*
X015229Y015171D01*
X015256Y015237D01*
X015329Y015309D01*
X015402Y015339D01*
X015464Y015402D01*
X015464Y015408D01*
X015551Y015495D01*
X015989Y015495D01*
X016076Y015408D01*
X016076Y014970D01*
X015999Y014894D01*
X016076Y014818D01*
X016076Y014380D01*
X015989Y014293D01*
X015551Y014293D01*
X015502Y014342D01*
X015227Y014342D01*
X015132Y014381D01*
X015060Y014453D01*
X015050Y014477D01*
X014843Y014685D01*
X014773Y014754D01*
X014736Y014845D01*
X014736Y015211D01*
X014725Y015237D01*
X014725Y015339D01*
X014737Y015367D01*
X014735Y015365D01*
X014698Y015350D01*
X014698Y014970D01*
X014621Y014894D01*
X014698Y014818D01*
X014698Y014380D01*
X014611Y014293D01*
X014173Y014293D01*
X014109Y014357D01*
X014050Y014381D01*
X013853Y014578D01*
X013781Y014650D01*
X013742Y014745D01*
X013742Y014940D01*
X013741Y014941D01*
X013741Y015044D01*
X013780Y015138D01*
X013852Y015211D01*
X013947Y015250D01*
X013969Y015250D01*
X013700Y015519D01*
X013693Y014678D01*
X013704Y013347D01*
X013704Y013342D01*
X013712Y012808D01*
X013615Y011745D01*
X013403Y010698D01*
X013266Y010267D01*
X013266Y010267D01*
X013203Y010066D01*
X013191Y010021D01*
X013262Y010093D01*
X013356Y010132D01*
X013459Y010132D01*
X013553Y010093D01*
X013605Y010041D01*
X013656Y010093D01*
X013750Y010132D01*
X013853Y010132D01*
X013870Y010125D01*
X013870Y010271D01*
X013917Y010318D01*
X013852Y010345D01*
X013780Y010418D01*
X013741Y010512D01*
X013741Y010615D01*
X013780Y010709D01*
X013852Y010782D01*
X013947Y010821D01*
X014049Y010821D01*
X014144Y010782D01*
X014195Y010730D01*
X014246Y010782D01*
X014341Y010821D01*
X014443Y010821D01*
X014538Y010782D01*
X014610Y010709D01*
X014649Y010615D01*
X014649Y010512D01*
X014610Y010418D01*
X014550Y010358D01*
X014631Y010358D01*
X014718Y010271D01*
X014718Y010100D01*
X014735Y010093D01*
X014807Y010020D01*
X014846Y009926D01*
X014846Y009823D01*
X014807Y009729D01*
X014735Y009656D01*
X014718Y009649D01*
X014718Y009518D01*
X014631Y009431D01*
X013956Y009431D01*
X013870Y009518D01*
X013870Y009624D01*
X013853Y009617D01*
X013750Y009617D01*
X013656Y009656D01*
X013605Y009707D01*
X013553Y009656D01*
X013459Y009617D01*
X013356Y009617D01*
X013262Y009656D01*
X013190Y009729D01*
X013150Y009823D01*
X013150Y009871D01*
X013107Y009708D02*
X013211Y009708D01*
X013470Y009512D02*
X013875Y009512D01*
X013992Y009317D02*
X016109Y009317D01*
X016407Y009121D02*
X014323Y009121D01*
X014640Y008926D02*
X016121Y008926D01*
X016124Y008731D02*
X014859Y008731D01*
X015072Y008535D02*
X016257Y008535D01*
X016103Y008340D02*
X015260Y008340D01*
X015403Y008144D02*
X016152Y008144D01*
X016407Y007949D02*
X015547Y007949D01*
X015676Y007754D02*
X016407Y007754D01*
X016407Y007558D02*
X015768Y007558D01*
X015861Y007363D02*
X016407Y007363D01*
X016407Y007167D02*
X015953Y007167D01*
X016010Y006972D02*
X016407Y006972D01*
X015647Y009512D02*
X014712Y009512D01*
X014786Y009708D02*
X015641Y009708D01*
X015641Y009903D02*
X014846Y009903D01*
X014721Y010098D02*
X015641Y010098D01*
X015664Y010294D02*
X014694Y010294D01*
X014640Y010489D02*
X014932Y010489D01*
X014951Y010685D02*
X014620Y010685D01*
X014538Y010936D02*
X014443Y010897D01*
X014341Y010897D01*
X014246Y010936D01*
X014195Y010987D01*
X014144Y010936D01*
X014049Y010897D01*
X013947Y010897D01*
X013852Y010936D01*
X013780Y011008D01*
X013741Y011103D01*
X013741Y011205D01*
X013780Y011300D01*
X013852Y011372D01*
X013947Y011411D01*
X014049Y011411D01*
X014144Y011372D01*
X014195Y011321D01*
X014246Y011372D01*
X014341Y011411D01*
X014443Y011411D01*
X014538Y011372D01*
X014610Y011300D01*
X014649Y011205D01*
X014649Y011103D01*
X014610Y011008D01*
X014538Y010936D01*
X014638Y011075D02*
X014933Y011075D01*
X014949Y011271D02*
X014622Y011271D01*
X015409Y011271D02*
X015441Y011271D01*
X015425Y011075D02*
X015426Y011075D01*
X015408Y010685D02*
X015443Y010685D01*
X015868Y010880D02*
X013440Y010880D01*
X013479Y011075D02*
X013752Y011075D01*
X013768Y011271D02*
X013519Y011271D01*
X013558Y011466D02*
X015868Y011466D01*
X015868Y011662D02*
X013598Y011662D01*
X013625Y011857D02*
X015868Y011857D01*
X015868Y012052D02*
X013643Y012052D01*
X013661Y012248D02*
X015868Y012248D01*
X015868Y012443D02*
X013679Y012443D01*
X013697Y012639D02*
X015868Y012639D01*
X015641Y012834D02*
X014718Y012834D01*
X014718Y012825D02*
X014718Y012897D01*
X014735Y012904D01*
X014755Y012925D01*
X014769Y012925D01*
X014813Y012969D01*
X014865Y013003D01*
X014869Y013025D01*
X014885Y013041D01*
X014885Y013103D01*
X014897Y013164D01*
X014885Y013182D01*
X014885Y013204D01*
X014841Y013248D01*
X014806Y013300D01*
X014785Y013305D01*
X014769Y013320D01*
X014755Y013320D01*
X014735Y013341D01*
X014718Y013348D01*
X014718Y013578D01*
X014631Y013665D01*
X013956Y013665D01*
X013870Y013578D01*
X013870Y012825D01*
X013956Y012738D01*
X014631Y012738D01*
X014718Y012825D01*
X014873Y013029D02*
X015641Y013029D01*
X015641Y013225D02*
X014865Y013225D01*
X014718Y013420D02*
X015641Y013420D01*
X015679Y013615D02*
X014680Y013615D01*
X014698Y014397D02*
X015117Y014397D01*
X015278Y014599D02*
X014983Y014894D01*
X014983Y015288D01*
X014736Y015179D02*
X014698Y015179D01*
X014698Y014983D02*
X014736Y014983D01*
X014759Y014788D02*
X014698Y014788D01*
X014698Y014592D02*
X014935Y014592D01*
X015229Y015179D02*
X015232Y015179D01*
X015225Y015374D02*
X015436Y015374D01*
X016076Y015374D02*
X016407Y015374D01*
X016407Y015179D02*
X016076Y015179D01*
X016076Y014983D02*
X016407Y014983D01*
X016407Y014788D02*
X016076Y014788D01*
X016076Y014592D02*
X016407Y014592D01*
X016407Y014397D02*
X016076Y014397D01*
X016407Y014202D02*
X013697Y014202D01*
X013695Y014397D02*
X014034Y014397D01*
X013839Y014592D02*
X013694Y014592D01*
X013694Y014788D02*
X013742Y014788D01*
X013741Y014983D02*
X013695Y014983D01*
X013697Y015179D02*
X013820Y015179D01*
X013844Y015374D02*
X013698Y015374D01*
X014058Y015960D02*
X016407Y015960D01*
X016407Y015765D02*
X014771Y015765D01*
X014846Y015569D02*
X016407Y015569D01*
X016407Y016156D02*
X014667Y016156D01*
X014660Y016153D02*
X014754Y016192D01*
X014827Y016264D01*
X014866Y016359D01*
X014866Y016461D01*
X014827Y016556D01*
X014754Y016628D01*
X014660Y016667D01*
X014557Y016667D01*
X014463Y016628D01*
X014390Y016556D01*
X014351Y016461D01*
X014351Y016359D01*
X014390Y016264D01*
X014463Y016192D01*
X014557Y016153D01*
X014660Y016153D01*
X014550Y016156D02*
X014047Y016156D01*
X013791Y016351D02*
X014354Y016351D01*
X014387Y016546D02*
X013922Y016546D01*
X014128Y016742D02*
X015065Y016742D01*
X014990Y016937D02*
X014311Y016937D01*
X014331Y017133D02*
X014990Y017133D01*
X015045Y017328D02*
X014209Y017328D01*
X013760Y017328D02*
X013709Y017328D01*
X013260Y017328D02*
X013209Y017328D01*
X012760Y017328D02*
X012709Y017328D01*
X012260Y017328D02*
X012209Y017328D01*
X011760Y017328D02*
X011709Y017328D01*
X011260Y017328D02*
X011209Y017328D01*
X010760Y017328D02*
X010709Y017328D01*
X010260Y017328D02*
X010209Y017328D01*
X009792Y016742D02*
X009777Y016742D01*
X009796Y016546D02*
X009265Y016546D01*
X009192Y016742D02*
X008403Y016742D01*
X008479Y016937D02*
X009136Y016937D01*
X009136Y017133D02*
X008479Y017133D01*
X008424Y017328D02*
X009143Y017328D01*
X008889Y016546D02*
X008248Y016546D01*
X008536Y016351D02*
X002759Y016351D01*
X002759Y016156D02*
X003282Y016156D01*
X003209Y015960D02*
X002759Y015960D01*
X002759Y015883D02*
X002759Y017356D01*
X002672Y017443D01*
X001899Y017443D01*
X001812Y017356D01*
X001812Y015883D01*
X001899Y015796D01*
X002672Y015796D01*
X002759Y015883D01*
X003223Y015765D02*
X000762Y015765D01*
X000762Y015960D02*
X001812Y015960D01*
X001812Y016156D02*
X000762Y016156D01*
X000762Y016351D02*
X001812Y016351D01*
X001812Y016546D02*
X000762Y016546D01*
X000762Y016742D02*
X001812Y016742D01*
X001812Y016937D02*
X000762Y016937D01*
X000762Y017133D02*
X001812Y017133D01*
X001812Y017328D02*
X000762Y017328D01*
X000762Y017523D02*
X007298Y017523D01*
X007171Y017328D02*
X002759Y017328D01*
X002759Y017133D02*
X007116Y017133D01*
X007116Y016937D02*
X002759Y016937D01*
X002759Y016742D02*
X007191Y016742D01*
X007347Y016546D02*
X002759Y016546D01*
X003235Y015569D02*
X000762Y015569D01*
X000762Y015374D02*
X003209Y015374D01*
X003311Y015179D02*
X000762Y015179D01*
X000762Y014983D02*
X003666Y014983D01*
X003673Y014788D02*
X002657Y014788D01*
X002483Y014599D02*
X003762Y013319D01*
X005140Y013319D01*
X005731Y012729D01*
X006262Y012729D01*
X006912Y012729D01*
X007147Y012834D02*
X007203Y012834D01*
X007273Y013029D02*
X006985Y013029D01*
X007375Y013225D02*
X005584Y013225D01*
X005388Y013420D02*
X007513Y013420D01*
X007669Y013615D02*
X006985Y013615D01*
X007149Y013811D02*
X007855Y013811D01*
X008062Y014006D02*
X007150Y014006D01*
X006985Y014202D02*
X008299Y014202D01*
X008490Y014397D02*
X005592Y014397D01*
X005397Y014592D02*
X008661Y014592D01*
X008794Y014788D02*
X007048Y014788D01*
X007031Y014748D02*
X007071Y014843D01*
X007071Y014945D01*
X007031Y015040D01*
X006985Y015086D01*
X006985Y015096D01*
X007031Y015142D01*
X007071Y015237D01*
X007071Y015339D01*
X007031Y015434D01*
X006959Y015506D01*
X006864Y015545D01*
X006762Y015545D01*
X006667Y015506D01*
X006651Y015489D01*
X005626Y015489D01*
X005539Y015402D01*
X005539Y014780D01*
X005626Y014693D01*
X006651Y014693D01*
X006667Y014676D01*
X006762Y014637D01*
X006864Y014637D01*
X006959Y014676D01*
X007031Y014748D01*
X007055Y014983D02*
X008910Y014983D01*
X009010Y015179D02*
X008739Y015179D01*
X008739Y015374D02*
X009085Y015374D01*
X009104Y015569D02*
X008739Y015569D01*
X008636Y015960D02*
X003724Y015960D01*
X003711Y015765D02*
X007418Y015765D01*
X007343Y015569D02*
X003699Y015569D01*
X003666Y015179D02*
X003623Y015179D01*
X003467Y014500D02*
X005140Y014500D01*
X005731Y013910D01*
X006262Y013910D01*
X006912Y013910D01*
X007046Y015179D02*
X007643Y015179D01*
X007446Y015374D02*
X007056Y015374D01*
X005539Y015374D02*
X005211Y015374D01*
X005213Y015179D02*
X005539Y015179D01*
X005539Y014983D02*
X005213Y014983D01*
X005205Y014788D02*
X005539Y014788D01*
X005285Y014006D02*
X005163Y014006D01*
X005163Y013811D02*
X005481Y013811D01*
X005539Y013615D02*
X005163Y013615D01*
X005229Y012834D02*
X005276Y012834D01*
X005229Y012639D02*
X005472Y012639D01*
X005539Y012443D02*
X005218Y012443D01*
X005023Y012248D02*
X007125Y012248D01*
X007138Y012443D02*
X006985Y012443D01*
X006767Y012052D02*
X003548Y012052D01*
X003189Y012052D02*
X000762Y012052D01*
X000762Y011857D02*
X001812Y011857D01*
X001812Y011936D02*
X001812Y010564D01*
X001183Y010564D01*
X001158Y010575D01*
X001051Y010575D01*
X000953Y010534D01*
X000878Y010459D01*
X000837Y010361D01*
X000837Y010254D01*
X000878Y010156D01*
X000953Y010081D01*
X001051Y010040D01*
X001158Y010040D01*
X001183Y010051D01*
X002430Y010051D01*
X002431Y010050D01*
X002534Y010050D01*
X002628Y010089D01*
X002701Y010162D01*
X002740Y010256D01*
X002740Y010359D01*
X002715Y010419D01*
X002759Y010463D01*
X002759Y011936D01*
X002672Y012023D01*
X001899Y012023D01*
X001812Y011936D01*
X001812Y011662D02*
X000762Y011662D01*
X000762Y011466D02*
X001812Y011466D01*
X001812Y011271D02*
X000762Y011271D01*
X000762Y011075D02*
X001812Y011075D01*
X001812Y010880D02*
X000762Y010880D01*
X000762Y010685D02*
X001812Y010685D01*
X002637Y010098D02*
X004529Y010098D01*
X004529Y009903D02*
X004474Y009903D01*
X004591Y010294D02*
X002740Y010294D01*
X002759Y010489D02*
X004786Y010489D01*
X004794Y010542D02*
X004866Y010615D01*
X004905Y010709D01*
X004905Y010811D01*
X004866Y010906D01*
X004794Y010978D01*
X004699Y011018D01*
X004597Y011018D01*
X004502Y010978D01*
X004430Y010906D01*
X004391Y010811D01*
X004391Y010709D01*
X004430Y010615D01*
X004502Y010542D01*
X004597Y010503D01*
X004699Y010503D01*
X004794Y010542D01*
X004895Y010685D02*
X004982Y010685D01*
X004877Y010880D02*
X005177Y010880D01*
X005372Y011075D02*
X002759Y011075D01*
X002759Y010880D02*
X004419Y010880D01*
X004401Y010685D02*
X002759Y010685D01*
X002759Y011271D02*
X006060Y011271D01*
X006255Y011466D02*
X002759Y011466D01*
X002759Y011662D02*
X006451Y011662D01*
X006646Y011857D02*
X002759Y011857D01*
X002600Y012248D02*
X000762Y012248D01*
X000762Y012443D02*
X002590Y012443D01*
X002590Y012639D02*
X000762Y012639D01*
X000762Y012834D02*
X002590Y012834D01*
X002590Y013029D02*
X000762Y013029D01*
X000762Y013225D02*
X002590Y013225D01*
X003117Y013615D02*
X000762Y013615D01*
X000762Y013420D02*
X003312Y013420D01*
X003620Y013811D02*
X003622Y013811D01*
X003624Y014006D02*
X003424Y014006D01*
X003229Y014202D02*
X003621Y014202D01*
X003231Y014397D02*
X003033Y014397D01*
X003226Y014592D02*
X002838Y014592D01*
X002531Y014202D02*
X000762Y014202D01*
X000762Y014397D02*
X002320Y014397D01*
X002225Y014592D02*
X000762Y014592D01*
X000762Y014788D02*
X002308Y014788D01*
X002726Y014006D02*
X000762Y014006D01*
X000762Y013811D02*
X002921Y013811D01*
X004413Y015179D02*
X004466Y015179D01*
X004466Y015374D02*
X004413Y015374D01*
X003652Y016156D02*
X008551Y016156D01*
X009482Y016351D02*
X009799Y016351D01*
X009794Y016156D02*
X009611Y016156D01*
X009679Y015960D02*
X009788Y015960D01*
X009781Y015765D02*
X009704Y015765D01*
X009708Y015569D02*
X009775Y015569D01*
X009769Y015374D02*
X009688Y015374D01*
X009669Y015179D02*
X009763Y015179D01*
X009756Y014983D02*
X009603Y014983D01*
X009536Y014788D02*
X009745Y014788D01*
X009726Y014592D02*
X009436Y014592D01*
X009314Y014397D02*
X009707Y014397D01*
X009688Y014202D02*
X009156Y014202D01*
X008961Y014006D02*
X009668Y014006D01*
X009649Y013811D02*
X008765Y013811D01*
X008570Y013615D02*
X009630Y013615D01*
X009611Y013420D02*
X008553Y013420D01*
X008645Y013225D02*
X009579Y013225D01*
X009547Y013029D02*
X008639Y013029D01*
X008639Y012834D02*
X009515Y012834D01*
X009483Y012639D02*
X009137Y012639D01*
X009236Y012443D02*
X009451Y012443D01*
X008820Y012639D02*
X008739Y012639D01*
X006794Y009382D02*
X006656Y009382D01*
X006656Y008890D02*
X006813Y008890D01*
X006813Y008398D02*
X006656Y008398D01*
X006715Y007906D02*
X006813Y007906D01*
X006754Y007414D02*
X006715Y007414D01*
X006754Y007414D02*
X006912Y007414D01*
X006813Y006922D02*
X006656Y006922D01*
X006321Y006528D02*
X006321Y006469D01*
X006282Y006430D01*
X006321Y006528D02*
X005986Y006863D01*
X005986Y006922D01*
X006085Y007020D01*
X006085Y007414D01*
X005986Y007512D01*
X005986Y007906D01*
X005621Y007137D02*
X005621Y006665D01*
X005599Y006656D01*
X005572Y006629D01*
X005564Y006647D01*
X005456Y006756D01*
X005315Y006814D01*
X005162Y006814D01*
X005021Y006756D01*
X004912Y006647D01*
X004854Y006506D01*
X004854Y006353D01*
X004903Y006234D01*
X004881Y006234D01*
X004765Y006118D01*
X004765Y006118D01*
X004645Y005997D01*
X004544Y005896D01*
X004472Y005968D01*
X004331Y006027D01*
X004178Y006027D01*
X004036Y005968D01*
X003928Y005860D01*
X003870Y005719D01*
X003870Y005566D01*
X003919Y005446D01*
X002740Y005446D01*
X002740Y005497D01*
X002701Y005591D01*
X002628Y005663D01*
X002534Y005703D01*
X002431Y005703D01*
X002337Y005663D01*
X002264Y005591D01*
X002225Y005497D01*
X002225Y005446D01*
X002204Y005446D01*
X001653Y005446D01*
X001537Y005330D01*
X001407Y005201D01*
X001366Y005201D01*
X001268Y005160D01*
X001193Y005085D01*
X001152Y004987D01*
X001152Y004880D01*
X001193Y004782D01*
X001226Y004749D01*
X001182Y004705D01*
X001143Y004611D01*
X001143Y004508D01*
X001182Y004414D01*
X001246Y004350D01*
X001193Y004297D01*
X001152Y004199D01*
X001152Y004093D01*
X001193Y003995D01*
X001268Y003920D01*
X001366Y003879D01*
X001473Y003879D01*
X001571Y003920D01*
X001646Y003995D01*
X001683Y004084D01*
X001952Y004263D01*
X003919Y004263D01*
X003870Y004144D01*
X003870Y003991D01*
X003928Y003849D01*
X004036Y003741D01*
X004178Y003683D01*
X004331Y003683D01*
X004472Y003741D01*
X004580Y003849D01*
X004639Y003991D01*
X004639Y004144D01*
X004580Y004285D01*
X004548Y004318D01*
X004609Y004379D01*
X004844Y004614D01*
X004878Y004628D01*
X004905Y004655D01*
X004912Y004637D01*
X005021Y004529D01*
X005122Y004487D01*
X005072Y004470D01*
X005011Y004439D01*
X004955Y004399D01*
X004907Y004351D01*
X004867Y004295D01*
X004836Y004234D01*
X004814Y004169D01*
X004804Y004102D01*
X004804Y004068D01*
X005238Y004068D01*
X005238Y004067D01*
X004804Y004067D01*
X004804Y004033D01*
X004814Y003966D01*
X004836Y003901D01*
X004867Y003840D01*
X004893Y003804D01*
X004645Y003556D01*
X004582Y003494D01*
X004580Y003498D01*
X004472Y003606D01*
X004331Y003665D01*
X004178Y003665D01*
X004036Y003606D01*
X003928Y003498D01*
X003870Y003356D01*
X003870Y003203D01*
X003928Y003062D01*
X004036Y002954D01*
X004178Y002895D01*
X004331Y002895D01*
X004472Y002954D01*
X004529Y003011D01*
X004529Y002762D01*
X004472Y002819D01*
X004331Y002877D01*
X004178Y002877D01*
X004036Y002819D01*
X003928Y002710D01*
X003870Y002569D01*
X003870Y002416D01*
X003928Y002275D01*
X004036Y002166D01*
X004094Y002142D01*
X004066Y002073D01*
X004066Y001991D01*
X002900Y002001D01*
X002801Y002100D01*
X002637Y002100D01*
X002164Y002100D01*
X002049Y001984D01*
X002046Y001982D01*
X001600Y001982D01*
X001571Y002010D01*
X001473Y002051D01*
X001366Y002051D01*
X001268Y002010D01*
X001193Y001935D01*
X001152Y001837D01*
X001152Y001740D01*
X001105Y001787D01*
X001105Y003239D01*
X001152Y003220D01*
X001254Y003220D01*
X001279Y003230D01*
X002406Y003230D01*
X002431Y003220D01*
X002534Y003220D01*
X002628Y003259D01*
X002701Y003331D01*
X002740Y003426D01*
X002740Y003528D01*
X002701Y003623D01*
X002628Y003695D01*
X002534Y003734D01*
X002431Y003734D01*
X002406Y003724D01*
X001279Y003724D01*
X001254Y003734D01*
X001152Y003734D01*
X001105Y003715D01*
X001105Y005207D01*
X001152Y005188D01*
X001254Y005188D01*
X001349Y005227D01*
X001421Y005300D01*
X001460Y005394D01*
X001460Y005497D01*
X001421Y005591D01*
X001349Y005663D01*
X001254Y005703D01*
X001152Y005703D01*
X001105Y005683D01*
X001105Y005856D01*
X002269Y007019D01*
X003920Y007019D01*
X003928Y006999D01*
X004036Y006891D01*
X004178Y006832D01*
X004331Y006832D01*
X004472Y006891D01*
X004580Y006999D01*
X004639Y007140D01*
X004639Y007256D01*
X004651Y007256D01*
X004854Y007256D01*
X004854Y007140D01*
X004912Y006999D01*
X005021Y006891D01*
X005162Y006832D01*
X005315Y006832D01*
X005456Y006891D01*
X005564Y006999D01*
X005621Y007137D01*
X005621Y006972D02*
X005537Y006972D01*
X005621Y006777D02*
X005406Y006777D01*
X005071Y006777D02*
X004421Y006777D01*
X004472Y006756D02*
X004331Y006814D01*
X004178Y006814D01*
X004036Y006756D01*
X003928Y006647D01*
X003870Y006506D01*
X003870Y006353D01*
X003928Y006212D01*
X004036Y006104D01*
X004178Y006045D01*
X004331Y006045D01*
X004472Y006104D01*
X004580Y006212D01*
X004639Y006353D01*
X004639Y006506D01*
X004580Y006647D01*
X004472Y006756D01*
X004608Y006581D02*
X004885Y006581D01*
X004854Y006386D02*
X004639Y006386D01*
X004559Y006191D02*
X004838Y006191D01*
X004645Y005997D02*
X004645Y005997D01*
X004643Y005995D02*
X004407Y005995D01*
X004101Y005995D02*
X001245Y005995D01*
X001105Y005800D02*
X003903Y005800D01*
X003870Y005604D02*
X002687Y005604D01*
X002278Y005604D02*
X001408Y005604D01*
X001460Y005409D02*
X001615Y005409D01*
X001537Y005330D02*
X001537Y005330D01*
X001420Y005214D02*
X001316Y005214D01*
X001165Y005018D02*
X001105Y005018D01*
X001105Y004823D02*
X001176Y004823D01*
X001149Y004627D02*
X001105Y004627D01*
X001105Y004432D02*
X001174Y004432D01*
X001168Y004237D02*
X001105Y004237D01*
X001105Y004041D02*
X001174Y004041D01*
X001105Y003846D02*
X003932Y003846D01*
X003870Y004041D02*
X001665Y004041D01*
X001911Y004237D02*
X003908Y004237D01*
X004143Y003650D02*
X002673Y003650D01*
X002740Y003455D02*
X003910Y003455D01*
X003870Y003260D02*
X002629Y003260D01*
X002483Y003477D02*
X001203Y003477D01*
X001105Y003064D02*
X003927Y003064D01*
X004157Y002869D02*
X001105Y002869D01*
X001105Y002673D02*
X003913Y002673D01*
X003870Y002478D02*
X001105Y002478D01*
X001105Y002283D02*
X003925Y002283D01*
X004072Y002087D02*
X002813Y002087D01*
X002152Y002087D02*
X001105Y002087D01*
X001105Y001892D02*
X001175Y001892D01*
X001344Y001110D02*
X003440Y001110D01*
X003386Y000915D02*
X001341Y000915D01*
X001811Y001306D02*
X002321Y001306D01*
X002644Y001306D02*
X007116Y001306D01*
X007138Y001501D02*
X005877Y001501D01*
X005884Y001696D02*
X007219Y001696D01*
X007418Y001892D02*
X006059Y001892D01*
X006317Y002087D02*
X008741Y002087D01*
X008820Y001981D02*
X008820Y001981D01*
X008882Y001892D02*
X008177Y001892D01*
X008376Y001696D02*
X009017Y001696D01*
X009136Y001501D02*
X008457Y001501D01*
X008479Y001306D02*
X009136Y001306D01*
X009136Y001110D02*
X008452Y001110D01*
X008365Y000915D02*
X009936Y000915D01*
X009984Y000915D02*
X009985Y000915D01*
X010033Y000915D02*
X015104Y000915D01*
X015017Y001110D02*
X014276Y001110D01*
X014333Y001306D02*
X014990Y001306D01*
X015012Y001501D02*
X014283Y001501D01*
X015093Y001696D02*
X012243Y001696D01*
X012231Y001892D02*
X015292Y001892D01*
X016051Y001892D02*
X016407Y001892D01*
X016407Y002087D02*
X012619Y002087D01*
X012409Y002087D02*
X012220Y002087D01*
X012894Y002283D02*
X016407Y002283D01*
X016407Y002478D02*
X012958Y002478D01*
X012932Y002673D02*
X016407Y002673D01*
X016407Y002869D02*
X012797Y002869D01*
X013442Y004649D02*
X013442Y004649D01*
X013346Y005214D02*
X012922Y005214D01*
X012962Y005364D02*
X012962Y005364D01*
X012974Y005409D02*
X013320Y005409D01*
X013294Y005604D02*
X013026Y005604D01*
X013013Y005554D02*
X013013Y005554D01*
X013064Y005744D02*
X013064Y005744D01*
X013079Y005800D02*
X013255Y005800D01*
X013115Y005934D02*
X013115Y005934D01*
X013131Y005995D02*
X013200Y005995D01*
X011101Y005800D02*
X011047Y005800D01*
X009233Y003072D02*
X008872Y003318D01*
X008829Y003318D01*
X008787Y003336D01*
X008782Y003281D01*
X008782Y003280D01*
X008793Y003091D01*
X008874Y002720D01*
X009032Y002375D01*
X009137Y002217D01*
X009139Y002215D01*
X009186Y002151D01*
X009186Y002151D01*
X009425Y001830D01*
X009518Y001660D01*
X009746Y001660D01*
X009763Y001643D01*
X009796Y001665D01*
X009868Y001695D01*
X009945Y001710D01*
X009984Y001710D01*
X009984Y001312D01*
X009985Y001312D01*
X009985Y001710D01*
X010024Y001710D01*
X010101Y001695D01*
X010108Y001692D01*
X010096Y001711D01*
X010049Y001778D01*
X010049Y001778D01*
X009982Y001874D01*
X009982Y001874D01*
X009865Y002248D01*
X009765Y002148D01*
X009602Y002080D01*
X009426Y002080D01*
X009263Y002148D01*
X009138Y002273D01*
X009070Y002436D01*
X009070Y002612D01*
X009138Y002775D01*
X009263Y002900D01*
X009426Y002968D01*
X009435Y002968D01*
X009382Y003021D01*
X009324Y003010D01*
X009305Y003023D01*
X009282Y003023D01*
X009233Y003072D01*
X009241Y003064D02*
X008799Y003064D01*
X008784Y003260D02*
X008958Y003260D01*
X008842Y002869D02*
X009231Y002869D01*
X009096Y002673D02*
X008896Y002673D01*
X008985Y002478D02*
X009070Y002478D01*
X009093Y002283D02*
X009134Y002283D01*
X009234Y002087D02*
X009409Y002087D01*
X009379Y001892D02*
X009977Y001892D01*
X009984Y001696D02*
X009985Y001696D01*
X010091Y001696D02*
X010105Y001696D01*
X009985Y001501D02*
X009984Y001501D01*
X009984Y001306D02*
X009985Y001306D01*
X009984Y001110D02*
X009985Y001110D01*
X009878Y001696D02*
X009498Y001696D01*
X009619Y002087D02*
X009916Y002087D01*
X008629Y002283D02*
X006311Y002283D01*
X006223Y002571D02*
X005947Y002571D01*
X005750Y002374D01*
X005770Y002374D01*
X005573Y002178D01*
X005568Y002283D02*
X005820Y002283D01*
X005623Y002478D02*
X008540Y002478D01*
X008488Y002591D02*
X008488Y002591D01*
X008470Y002673D02*
X005580Y002673D01*
X005335Y002869D02*
X008427Y002869D01*
X008388Y003046D02*
X008388Y003046D01*
X008388Y003064D02*
X006680Y003064D01*
X006813Y002886D02*
X006538Y002886D01*
X006223Y002571D01*
X005962Y003064D02*
X005565Y003064D01*
X005623Y003260D02*
X005828Y003260D01*
X005828Y003455D02*
X005582Y003455D01*
X005142Y002869D02*
X004924Y002869D01*
X004529Y002869D02*
X004351Y002869D01*
X004365Y003650D02*
X004739Y003650D01*
X004864Y003846D02*
X004577Y003846D01*
X004639Y004041D02*
X004804Y004041D01*
X004837Y004237D02*
X004600Y004237D01*
X004662Y004432D02*
X005001Y004432D01*
X004922Y004627D02*
X004876Y004627D01*
X003949Y006191D02*
X001440Y006191D01*
X001636Y006386D02*
X002391Y006386D01*
X002431Y006369D02*
X002534Y006369D01*
X002628Y006408D01*
X002701Y006481D01*
X002740Y006575D01*
X002740Y006678D01*
X002701Y006772D01*
X002628Y006845D01*
X002534Y006884D01*
X002431Y006884D01*
X002337Y006845D01*
X002264Y006772D01*
X002225Y006678D01*
X002225Y006575D01*
X002264Y006481D01*
X002337Y006408D01*
X002431Y006369D01*
X002574Y006386D02*
X003870Y006386D01*
X003901Y006581D02*
X002740Y006581D01*
X002696Y006777D02*
X004087Y006777D01*
X003955Y006972D02*
X002222Y006972D01*
X002269Y006777D02*
X002026Y006777D01*
X001831Y006581D02*
X002225Y006581D01*
X001663Y006972D02*
X001526Y006972D01*
X001467Y006777D02*
X001331Y006777D01*
X001313Y006972D02*
X000762Y006972D01*
X000762Y006777D02*
X000878Y006777D01*
X000837Y006581D02*
X000762Y006581D01*
X000762Y006386D02*
X000987Y006386D01*
X000881Y006191D02*
X000762Y006191D01*
X000762Y007167D02*
X001152Y007167D01*
X001191Y007363D02*
X000762Y007363D01*
X000762Y007558D02*
X001481Y007558D01*
X001677Y007754D02*
X000762Y007754D01*
X000762Y007949D02*
X001186Y007949D01*
X001156Y008144D02*
X000762Y008144D01*
X000762Y008340D02*
X001048Y008340D01*
X000851Y008535D02*
X000762Y008535D01*
X000762Y008731D02*
X000882Y008731D01*
X000762Y008926D02*
X003893Y008926D01*
X003870Y008731D02*
X002705Y008731D01*
X002736Y008535D02*
X003915Y008535D01*
X004045Y009121D02*
X000762Y009121D01*
X000762Y009317D02*
X003973Y009317D01*
X003870Y009512D02*
X000762Y009512D01*
X000762Y009708D02*
X003891Y009708D01*
X004034Y009903D02*
X000762Y009903D01*
X000762Y010098D02*
X000936Y010098D01*
X000837Y010294D02*
X000762Y010294D01*
X000762Y010489D02*
X000908Y010489D01*
X001653Y007949D02*
X003408Y007949D01*
X004553Y006972D02*
X004939Y006972D01*
X004854Y007167D02*
X004639Y007167D01*
X004529Y009121D02*
X004464Y009121D01*
X002054Y007363D02*
X001845Y007363D01*
X001858Y007167D02*
X001687Y007167D01*
X004837Y002087D02*
X005341Y002087D01*
X003808Y001110D02*
X007143Y001110D01*
X007230Y000915D02*
X003863Y000915D01*
X006951Y003477D02*
X007109Y003477D01*
X007316Y003260D02*
X008387Y003260D01*
X008387Y003361D02*
X008387Y003361D01*
X008387Y003455D02*
X007573Y003455D01*
X007550Y003428D02*
X007550Y003428D01*
X007757Y003650D02*
X008434Y003650D01*
X008386Y003502D02*
X008386Y003502D01*
X008496Y003846D02*
X008052Y003846D01*
X008521Y003927D02*
X008521Y003927D01*
X007109Y003969D02*
X006951Y003969D01*
X006951Y004461D02*
X007109Y004461D01*
X007109Y004953D02*
X006951Y004953D01*
X006951Y005445D02*
X007109Y005445D01*
X007109Y005937D02*
X006951Y005937D01*
X013213Y010098D02*
X013276Y010098D01*
X013275Y010294D02*
X013893Y010294D01*
X013750Y010489D02*
X013337Y010489D01*
X013399Y010685D02*
X013770Y010685D01*
X013670Y010098D02*
X013540Y010098D01*
X013712Y012834D02*
X013870Y012834D01*
X013870Y013029D02*
X013709Y013029D01*
X013706Y013225D02*
X013870Y013225D01*
X013870Y013420D02*
X013703Y013420D01*
X013701Y013615D02*
X013907Y013615D01*
X013700Y013811D02*
X016407Y013811D01*
X016407Y014006D02*
X013698Y014006D01*
X014180Y015765D02*
X014407Y015765D01*
X014863Y016351D02*
X016407Y016351D01*
X016407Y016546D02*
X016122Y016546D01*
X016277Y016742D02*
X016407Y016742D01*
X016407Y016937D02*
X016353Y016937D01*
X016353Y017133D02*
X016407Y017133D01*
X016407Y017328D02*
X016298Y017328D01*
X016407Y017523D02*
X016171Y017523D01*
X015221Y016546D02*
X014830Y016546D01*
X015172Y017523D02*
X008297Y017523D01*
X015222Y003260D02*
X016407Y003260D01*
X016407Y003064D02*
X015027Y003064D01*
X016250Y001696D02*
X016407Y001696D01*
X016407Y001501D02*
X016331Y001501D01*
X016353Y001306D02*
X016407Y001306D01*
X016407Y001110D02*
X016326Y001110D01*
X016407Y000915D02*
X016239Y000915D01*
D27*
X004845Y012335D02*
X003550Y012335D01*
X003501Y012384D01*
X003567Y012450D01*
X003567Y012614D01*
X003501Y012680D01*
X003567Y012745D01*
X003567Y012909D01*
X003450Y013025D01*
X003286Y013025D01*
X003170Y012909D01*
X003170Y012745D01*
X003236Y012680D01*
X003170Y012614D01*
X003170Y012450D01*
X003236Y012384D01*
X003186Y012335D01*
X002778Y012335D01*
X002778Y013221D01*
X003595Y013221D01*
X003684Y013132D01*
X003840Y013132D01*
X003959Y013132D01*
X003959Y013118D01*
X003846Y013118D01*
X003810Y013109D01*
X003779Y013090D01*
X003753Y013064D01*
X003734Y013033D01*
X003725Y012997D01*
X003725Y012768D01*
X004400Y012768D01*
X004400Y012689D01*
X004478Y012689D01*
X004478Y012339D01*
X004849Y012339D01*
X004845Y012335D01*
X004478Y012348D02*
X004400Y012348D01*
X004400Y012339D02*
X004400Y012689D01*
X003725Y012689D01*
X003725Y012460D01*
X003734Y012425D01*
X003753Y012393D01*
X003779Y012367D01*
X003810Y012349D01*
X003846Y012339D01*
X004400Y012339D01*
X004400Y012426D02*
X004478Y012426D01*
X004478Y012503D02*
X004400Y012503D01*
X004400Y012580D02*
X004478Y012580D01*
X004478Y012658D02*
X004400Y012658D01*
X004400Y012735D02*
X003556Y012735D01*
X003567Y012812D02*
X003725Y012812D01*
X003725Y012889D02*
X003567Y012889D01*
X003509Y012967D02*
X003725Y012967D01*
X003741Y013044D02*
X002778Y013044D01*
X002778Y013121D02*
X003959Y013121D01*
X003617Y013199D02*
X002778Y013199D01*
X002778Y012967D02*
X003227Y012967D01*
X003170Y012889D02*
X002778Y012889D01*
X002778Y012812D02*
X003170Y012812D01*
X003180Y012735D02*
X002778Y012735D01*
X002778Y012658D02*
X003214Y012658D01*
X003170Y012580D02*
X002778Y012580D01*
X002778Y012503D02*
X003170Y012503D01*
X003194Y012426D02*
X002778Y012426D01*
X002778Y012348D02*
X003200Y012348D01*
X003537Y012348D02*
X003812Y012348D01*
X003734Y012426D02*
X003542Y012426D01*
X003567Y012503D02*
X003725Y012503D01*
X003725Y012580D02*
X003567Y012580D01*
X003523Y012658D02*
X003725Y012658D01*
D28*
X009514Y002524D03*
X010514Y002524D03*
X011514Y002524D03*
X012514Y002524D03*
D29*
X012325Y010662D02*
X012156Y010831D01*
X011965Y010929D01*
X011734Y012564D02*
X011734Y012729D01*
X013998Y014796D02*
X013998Y014993D01*
X013998Y014796D02*
X014195Y014599D01*
X014392Y014599D01*
X014392Y015189D02*
X013801Y015780D01*
X013801Y016075D01*
X015278Y014599D02*
X015770Y014599D01*
X002483Y010308D02*
X001105Y010308D01*
X001105Y008595D02*
X002483Y008595D01*
D30*
X008880Y003575D02*
X009372Y003241D01*
X009549Y003241D01*
X009668Y003260D01*
X009668Y003851D02*
X009766Y004048D01*
X009766Y004737D01*
X009979Y004656D01*
X010625Y004483D02*
X010691Y004540D01*
X010625Y004483D02*
X010687Y004422D01*
X010868Y004422D01*
X011538Y003851D02*
X012128Y003182D01*
X012128Y003162D01*
X011813Y003083D02*
X011636Y003083D01*
X011538Y003260D01*
D31*
X003624Y000957D03*
M02*
